<svg width="1056" height="854" viewBox="0 0 1056 854" fill="none" xmlns="http://www.w3.org/2000/svg">
<g clip-path="url(#clip0)">
<rect width="1056" height="854" fill="#EEE1B8"/>
<path d="M611.878 248.951C609.816 248.934 608.081 250.448 607.85 252.493L590.876 396.494C590.611 398.687 592.171 400.663 594.34 400.946C594.49 400.959 594.659 400.994 594.808 401.006L458.695 799.945L458.215 799.777C456.584 799.214 454.815 800.081 454.252 801.712L447.028 822.879C445.675 822.597 444.303 823.346 443.85 824.685L443.681 825.187C443.228 826.526 443.864 827.953 445.084 828.547L441.78 838.253C441.217 839.884 442.084 841.652 443.715 842.215L444.196 842.383L391.112 997.959C390.659 999.298 391.249 1000.76 392.441 1001.44L367.782 1077.62C367.271 1079.15 366.993 1079.92 367.454 1080.07L374.566 1082.49C375.025 1082.66 375.676 1080.73 376.208 1079.21L402.859 1004.98C404.219 1005.17 405.573 1004.38 406.047 1003.04L459.129 847.488L459.61 847.656C461.241 848.219 463.01 847.352 463.572 845.721L466.873 836.058L467.689 836.339C469.133 836.822 470.699 836.068 471.205 834.604L471.374 834.102C471.857 832.658 471.103 831.092 469.64 830.586L468.824 830.305L476.046 809.159C476.609 807.528 475.742 805.759 474.111 805.197L473.631 805.029L478.318 791.265C478.797 789.864 588.356 457.103 605.113 402.231C607.045 402.259 608.928 401.574 610.506 400.412C616.687 395.777 630.196 395.134 635.984 395.067C637.641 395.051 639.123 394.011 639.701 392.446L687.919 262.872C688.769 260.619 687.444 258.147 685.105 257.57C655.247 250.155 622.572 249.089 611.878 248.951Z" fill="black"/>
<path d="M688.103 262.24L641.09 293.178L607.875 252.197C607.875 252.197 608.379 248.944 610.875 248.91C628.883 248.719 663.119 251.202 685.224 256.933C685.246 256.934 689.615 258.192 688.103 262.24Z" fill="#F76902"/>
<path d="M688.255 262.088L641.067 292.448L607.845 252.005L607.03 259.137L639.922 299.385L639.896 299.447L639.942 299.408L639.981 299.454L639.986 299.39L685.324 269.941L688.255 262.088Z" fill="white"/>
<path d="M444.122 248.951C446.184 248.934 447.919 250.448 448.15 252.493L465.124 396.494C465.389 398.687 463.829 400.663 461.66 400.946C461.51 400.959 461.341 400.994 461.192 401.006L597.305 799.945L597.785 799.777C599.416 799.214 601.185 800.081 601.748 801.712L608.972 822.879C610.325 822.597 611.697 823.346 612.15 824.685L612.319 825.187C612.772 826.526 612.136 827.953 610.916 828.547L614.22 838.253C614.783 839.884 613.916 841.652 612.285 842.215L611.804 842.383L664.888 997.959C665.341 999.298 664.751 1000.76 663.559 1001.44L688.218 1077.62C688.729 1079.15 689.007 1079.92 688.546 1080.07L681.434 1082.49C680.975 1082.66 680.324 1080.73 679.792 1079.21L653.141 1004.98C651.781 1005.17 650.427 1004.38 649.953 1003.04L596.871 847.488L596.39 847.656C594.759 848.219 592.99 847.352 592.428 845.721L589.127 836.058L588.311 836.339C586.867 836.822 585.301 836.068 584.795 834.604L584.626 834.102C584.143 832.658 584.897 831.092 586.36 830.586L587.176 830.305L579.954 809.159C579.391 807.528 580.258 805.759 581.889 805.197L582.369 805.029L577.682 791.265C577.203 789.864 467.644 457.103 450.887 402.231C448.955 402.259 447.072 401.574 445.494 400.412C439.313 395.777 425.804 395.134 420.016 395.067C418.359 395.051 416.877 394.011 416.299 392.446L368.081 262.872C367.231 260.619 368.556 258.147 370.895 257.57C400.753 250.155 433.428 249.089 444.122 248.951Z" fill="black"/>
<path d="M367.897 262.24L414.91 293.178L448.125 252.197C448.125 252.197 447.621 248.944 445.125 248.91C427.117 248.719 392.881 251.202 370.776 256.933C370.754 256.934 366.385 258.192 367.897 262.24Z" fill="#F76902"/>
<path d="M367.745 262.088L414.933 292.448L448.155 252.005L448.97 259.137L416.078 299.385L416.104 299.447L416.058 299.408L416.019 299.454L416.014 299.39L370.676 269.941L367.745 262.088Z" fill="white"/>
</g>
<defs>
<clipPath id="clip0">
<rect width="1056" height="854" fill="white"/>
</clipPath>
</defs>
</svg>
