<svg width="1056" height="854" viewBox="0 0 1056 854" fill="none" xmlns="http://www.w3.org/2000/svg">
<g clip-path="url(#clip0)">
<rect width="1056" height="854" fill="#EEE1B8"/>
<path d="M389.249 608.75H404.607V740.5L389.249 737.948V608.75Z" fill="#3F3F3F"/>
<path d="M404.607 611.348H413.993V734.748L404.607 740.5V611.348Z" fill="#474747"/>
<path d="M672.102 428.82H687.461V560.57L672.102 558.017V428.82Z" fill="#3F3F3F"/>
<path d="M687.461 431.418H696.847V554.818L687.461 560.57V431.418Z" fill="#474747"/>
<path d="M273.206 578.904H288.565V718.755L273.206 716.046V578.904Z" fill="#3F3F3F"/>
<path d="M288.564 581.661H297.95V712.648L288.564 718.754V581.661Z" fill="#474747"/>
<path d="M556.059 398.973H571.418V538.824L556.059 536.115V398.973Z" fill="#3F3F3F"/>
<path d="M571.418 401.731H580.804V532.718L571.418 538.824V401.731Z" fill="#474747"/>
<rect x="520.223" y="371.259" width="15.785" height="50.3124" fill="#474747"/>
<rect x="320.562" y="496.187" width="15.7852" height="50.3123" fill="#474747"/>
<path d="M236.765 408.353L576.867 213.5L576.867 276.222L236.765 474.868L236.765 408.353Z" fill="#D07E79"/>
<path d="M404.18 621.022L336.347 607.966L665.276 407.834L735.243 421.478L404.18 621.022Z" fill="#D07E79"/>
<path d="M253.208 487.531L591.403 289.392L592.012 352.112L253.853 554.042L253.208 487.531Z" fill="#A86561"/>
<path d="M253.816 553.83L239.264 549.068L238.618 482.556L576.732 284.418L591.286 289.394L253.172 487.531L253.816 553.83Z" fill="#D07E79"/>
<path d="M251.27 413.47L591.373 218.616L591.373 281.338L251.27 479.984L251.27 413.47Z" fill="#A86561"/>
<path d="M251.235 479.771L236.729 474.868V408.354L576.751 213.5L591.257 218.617L251.235 413.47V479.771Z" fill="#D07E79"/>
<path d="M323.121 589.47L255.288 576.414L584.217 376.283L654.184 389.927L323.121 589.47Z" fill="#A86561"/>
<path d="M654.184 390.02V405.795L323.121 605.339L255.288 592.121V576.346L323.121 589.457L654.184 390.02Z" fill="#7D4D4A"/>
<path d="M404.18 605.246L336.347 592.19L665.276 392.058L735.243 405.702L404.18 605.246Z" fill="#A86561"/>
<path d="M735.243 405.795V421.571L404.18 621.115L336.347 607.897V592.121L404.18 605.233L735.243 405.795Z" fill="#7D4D4A"/>
<path d="M580.804 300.267L591.256 294.085V311.414L580.804 318.175V300.267Z" fill="#474747"/>
<path d="M704.099 320.947C661.819 318.802 616.143 317.749 583.577 308.795L590.83 303.678C618.774 312.206 668.914 313.086 711.352 315.83C790.492 320.947 752.735 384.903 703.246 400.679C750.602 374.67 775.56 324.571 704.099 320.947Z" fill="#474747"/>
<path d="M699.62 398.76L713.485 401.532L709.859 403.45L696.633 400.679L699.62 398.76Z" fill="#474747"/>
<path d="M726.284 389.38C726.71 389.593 708.863 400.679 707.726 401.532L704.312 400.252L715.831 393.004C715.831 393.004 725.857 389.167 726.284 389.38Z" fill="#474747"/>
<path d="M254.434 498.106L264.886 491.923V509.252L254.434 516.013V498.106Z" fill="#3F3F3F"/>
<path d="M377.729 518.785C335.448 516.64 289.773 515.587 257.207 506.633L264.46 501.517C292.404 510.044 342.544 510.925 384.982 513.668C464.121 518.785 426.365 582.741 376.876 598.517C424.232 572.508 449.189 522.409 377.729 518.785Z" fill="#474747"/>
<path d="M373.25 596.598L387.115 599.37L383.489 601.288L370.264 598.517L373.25 596.598Z" fill="#474747"/>
<path d="M399.914 587.218C400.341 587.431 382.494 598.517 381.356 599.37L377.943 598.091L389.462 590.842C389.462 590.842 399.488 587.005 399.914 587.218Z" fill="#474747"/>
<path d="M370.477 598.517L383.276 601.075V614.506L370.477 612.161V598.517Z" fill="#3F3F3F"/>
<rect x="561.325" y="359.219" width="206.802" height="64.9118" fill="#C8924D"/>
<path d="M799.574 272.492C703.635 284.197 659.219 255.289 639.675 240.036L626.351 291.114C655.772 318.356 734.549 324.102 799.574 320.378V272.492Z" fill="#688159"/>
<path d="M519.218 234.715C614.624 195.342 639.675 234.715 639.675 234.715V465.631H519.218C519.218 465.631 423.812 274.088 519.218 234.715Z" fill="#C8924D"/>
<rect x="530.411" y="400.719" width="206.802" height="64.9118" fill="#E0A458"/>
<rect x="702.978" y="601.756" width="219.077" height="65.1091" transform="rotate(-90 702.978 601.756)" fill="#C8924D"/>
<rect x="710.214" y="576.601" width="99.137" height="36.1803" fill="#688159"/>
<rect x="672.258" y="623.252" width="222.736" height="65.1092" transform="rotate(-90 672.258 623.252)" fill="#E0A458"/>
<path d="M517.886 465.63H639.942V336.871L574.117 390.61L477.645 336.871C477.645 382.628 517.886 465.63 517.886 465.63Z" fill="#E0A458"/>
<path d="M443 414.021C445.132 301.649 492.213 245.889 515.487 232.055L602.365 253.338C586.162 267.81 612.315 373.229 627.416 424.13C560.898 451.372 476.756 428.742 443 414.021Z" fill="#688159"/>
<path d="M641.432 452.386C562.16 369.399 558.241 306.614 558.934 277.191C558.934 277.191 521.883 260.255 500.701 300.765C479.519 341.275 536.274 432.111 595.705 486.373L641.432 452.386Z" fill="#7F9C6D"/>
<path d="M699.371 366.667L643.406 235.78H635.944L640.208 375.712L699.371 366.667Z" fill="#7F9C6D"/>
<ellipse cx="580.513" cy="183.637" rx="81.0152" ry="80.8737" fill="#E6D0C1"/>
<path d="M615.957 176.936L594.14 172.042L608.495 209.126L600.5 215.034L606.324 221.529L632.797 215.034L615.957 176.936Z" fill="#D8B8A2"/>
<path d="M704.701 140.54C606.57 128.622 513.888 210.773 464.32 182.041L501.91 153.842V102.231C525.652 84.3541 590.94 75.6283 620.617 73.5L641.274 127.771L704.701 140.54Z" fill="#688159"/>
<ellipse cx="574.916" cy="192.1" rx="9.32742" ry="9.31111" fill="#474747"/>
<ellipse cx="632.48" cy="172.946" rx="7.19543" ry="7.18286" fill="#474747"/>
<rect x="799.574" y="272.492" width="42.1066" height="42.0331" fill="#E6D0C1"/>
<rect width="48.3207" height="48.3443" transform="matrix(0.600683 0.799487 -0.800494 0.599341 640.531 452.862)" fill="#E6D0C1"/>
<path d="M562.391 230.598C571.065 236.827 597.153 245.154 632.112 228.636C618.032 238.858 584.377 253.561 562.391 230.598Z" fill="#D8B8A2"/>
<path fill-rule="evenodd" clip-rule="evenodd" d="M863 292.71H809.167V314.525H836.406V612.733H850.62V314.525H863V292.71Z" fill="#C8924D"/>
<rect x="661.712" y="600.544" width="109.797" height="36.1803" fill="#7F9C6D"/>
<path d="M558.394 196.407C562.515 203.376 573.263 214.607 584.71 206.927C585.408 206.443 586.056 205.946 586.642 205.452C585.997 206.006 585.352 206.496 584.71 206.927C577.259 212.088 564.046 215.671 558.394 196.407Z" fill="#D8B8A2"/>
<path d="M645.743 166.611C646.557 173.543 645.05 186.853 633.177 187.545C632.444 187.576 631.74 187.572 631.079 187.539C631.812 187.583 632.511 187.583 633.177 187.545C640.99 187.206 651.934 182.781 645.743 166.611Z" fill="#D8B8A2"/>
<ellipse cx="505.36" cy="203.324" rx="16.5228" ry="16.494" fill="#D8B8A2"/>
<path d="M520.647 203.334C521.893 209.678 520.014 225.959 513.659 227.204C507.304 228.448 494.167 216.462 492.921 210.118C491.674 203.774 502.79 205.475 509.145 204.231C515.5 202.986 519.4 196.99 520.647 203.334Z" fill="#D8B8A2"/>
<rect x="546" y="187.552" width="54.2045" height="10.1579" transform="rotate(-19.2057 546 187.552)" fill="white"/>
<rect x="619.229" y="159.154" width="46.5486" height="10.6279" transform="rotate(-4.50075 619.229 159.154)" fill="white"/>
<path d="M472.192 496.725C469.204 492.241 470.308 486.111 474.659 483.032C479.01 479.953 484.959 481.091 487.948 485.574C490.936 490.057 494.247 505.772 489.896 508.852C485.545 511.931 475.18 501.208 472.192 496.725Z" fill="#CBCBCB"/>
<path fill-rule="evenodd" clip-rule="evenodd" d="M489.367 485.568L478.009 471.737C478.009 471.737 468.62 476.594 459.155 485.133C458.653 489.067 456.835 493.752 453.544 500.464C439.262 529.589 448.462 545.764 453.544 550.508C452.711 550.182 451.887 549.792 451.074 549.343C451.519 549.894 451.979 550.446 452.454 551H475.104L475.17 551C488.571 551 499.434 539.806 499.434 525.998C499.434 515.998 493.737 507.369 485.504 503.37L489.367 485.568Z" fill="#CBCBCB"/>
<ellipse cx="499.241" cy="469.278" rx="5.09805" ry="5.25315" fill="#474747"/>
<ellipse cx="488.334" cy="473.202" rx="15.3588" ry="15.8259" fill="#CBCBCB"/>
<path d="M485.495 461.954C486.095 461.646 493.695 456.171 493.695 456.171C497.571 454.676 499.686 454.271 500.357 454.17C500.51 453.859 500.596 453.818 500.596 454.14C500.596 454.14 500.518 454.146 500.357 454.17C499.653 455.606 497.522 462.797 495.795 466.684C492.829 465.793 486.615 463.6 485.495 461.954Z" fill="#CBCBCB"/>
<path d="M473.553 470.809C473.739 470.145 474.976 460.675 474.976 460.675C476.533 456.725 477.676 454.846 478.059 454.269C477.94 453.943 477.968 453.85 478.198 454.068C478.198 454.068 478.15 454.131 478.059 454.269C478.607 455.775 482.298 462.261 483.906 466.202C481.26 467.848 475.486 471.074 473.553 470.809Z" fill="#CBCBCB"/>
<path d="M478.848 465.555C483.839 464.336 493.123 465.275 490.335 478.787C484.764 479.386 474.666 477.577 478.848 465.555Z" fill="#EAEAEA"/>
<ellipse cx="484.527" cy="472.07" rx="5.09808" ry="5.25315" fill="#474747"/>
<path d="M508.469 482.046C505.823 475.839 500.131 463.055 498.531 461.565L490.464 488.961C497.124 491.621 505.242 485.459 508.469 482.046Z" fill="#CBCBCB"/>
<path d="M507.437 484.239C505.393 486.389 499.473 490.157 492.142 488.029C484.812 485.901 498.94 480.515 506.856 478.187L507.437 479.517L507.017 481.013L507.437 484.239Z" fill="#EAEAEA"/>
<path d="M506.985 480.914H504.339L504.984 483.84L506.598 482.044L505.759 483.84L507.436 484.172L508.34 482.044L507.436 479.518L506.985 480.914Z" fill="#474747"/>
<ellipse cx="486.399" cy="469.345" rx="0.90345" ry="0.930938" fill="white"/>
<path fill-rule="evenodd" clip-rule="evenodd" d="M415.391 507.628C415.554 507.692 415.718 507.755 415.881 507.816C415.882 507.819 415.883 507.821 415.883 507.824C422.674 508.832 436.687 506.895 441.743 496.474C441.743 502.595 435.231 510.462 416.575 510.313C421.488 526.076 437.061 544.589 453.31 550.963C445.647 545.206 434.944 526.284 451.735 498.262C456.179 490.845 457.61 484.809 457.247 479.868C458.082 466.303 450.361 453.183 437.386 448.093C421.431 441.835 403.574 450.089 397.5 466.529C391.426 482.969 399.436 501.37 415.391 507.628Z" fill="#CBCBCB"/>
<path d="M469.476 509.285C462.155 499.355 471.598 488.733 477.235 484.663L472.162 482.628V477.744C443.992 513.884 444.409 539.096 454.456 551H463.21C450.318 533.907 461.32 514.779 469.476 509.285Z" fill="#B0AEAE"/>
<ellipse cx="328.087" cy="335.951" rx="1.82262" ry="1.7637" fill="#474747"/>
<path d="M285.939 369.241C281.565 351.075 293.533 343.668 300.064 342.235L299.039 374.422C290.928 374.863 286.926 371.152 285.939 369.241Z" fill="#474747"/>
<path d="M336.061 368.029C340.435 349.862 328.467 342.455 321.936 341.022L322.961 373.209C331.072 373.65 335.074 369.939 336.061 368.029Z" fill="#474747"/>
<ellipse cx="311.228" cy="358.659" rx="20.5045" ry="19.8415" fill="#C8924D"/>
<ellipse cx="314.418" cy="338.818" rx="15.0367" ry="14.5505" fill="#E0A458"/>
<ellipse cx="315.329" cy="338.376" rx="2.05046" ry="1.98415" fill="#474747"/>
<ellipse cx="315.898" cy="337.164" rx="0.569571" ry="0.551154" fill="white"/>
<path fill-rule="evenodd" clip-rule="evenodd" d="M325.345 343.459L333.238 342.306L324.877 335.133L317.607 343.117L321.219 347.048L321.204 347.094L328.363 346.048L325.345 343.459Z" fill="#474747"/>
<path d="M320.227 309.055C323.235 310.289 320.113 321.621 318.177 327.132L310.317 328.345C310.013 327.941 308.562 326.449 305.191 323.715C300.976 320.298 304.963 317.542 308.722 317.322C311.729 317.146 314.076 323.789 314.873 327.132C314.532 323.127 313.666 314.544 312.937 312.251C312.025 309.385 316.468 307.511 320.227 309.055Z" fill="#E0A458"/>
<path d="M313.62 315.116C314.721 313.867 317.789 311.832 321.252 313.683C319.847 311.809 316.354 309.473 313.62 315.116Z" fill="#474747"/>
<path d="M304.851 323.322C305.495 321.803 307.755 318.943 311.642 319.659C309.704 318.302 305.632 317.135 304.851 323.322Z" fill="#474747"/>
<path d="M313.165 313.023C314.381 311.781 317.655 309.976 321.48 311.818C319.929 309.954 316.184 307.409 313.165 313.023Z" fill="#474747"/>
<path d="M296.989 349.51C296.897 344.572 300.444 343.116 302.229 343.006L312.823 351.163C312.101 352.67 309.838 355.528 306.557 354.911C303.277 354.294 304.051 351.421 304.849 350.061C302.267 351.935 297.08 354.448 296.989 349.51Z" fill="#E0A458"/>
<path d="M316.582 330.881C307.013 327.794 302.039 337.825 300.748 343.227C306.398 318.535 319.429 323.238 325.239 328.676C326.34 330.697 326.15 333.967 316.582 330.881Z" fill="#C8924D"/>
<path d="M672.86 757.582C672.86 750.28 650.428 729.336 650.428 729.336L629.362 751.241C629.362 751.241 651.404 765.844 670.325 774.299C689.246 782.753 672.86 764.884 672.86 757.582Z" fill="#A86561"/>
<path d="M657.656 740.835C655.521 731.686 613.847 694.342 613.847 694.342C613.847 694.342 580.762 712.502 593.894 727.772C607.027 743.042 633.227 757.283 659.371 762.501C685.514 767.718 659.79 749.983 657.656 740.835Z" fill="#A86561"/>
<rect width="2.75461" height="20.2577" transform="matrix(-1 0 0 1 616.089 745.641)" fill="#E0A458"/>
<rect width="2.75462" height="20.2577" transform="matrix(-1 0 0 1 629.361 749.1)" fill="#E0A458"/>
<ellipse rx="30.8017" ry="30.3865" transform="matrix(-1 0 0 1 626.857 720.196)" fill="#7D4D4A"/>
<path d="M684.704 730.325C680.122 722.097 629.704 697.378 629.704 697.378C629.704 697.378 602.893 723.75 619.748 734.909C636.604 746.068 665.747 752.721 692.342 750.708C718.937 748.695 689.286 738.553 684.704 730.325Z" fill="#A86561"/>
<path d="M659.913 642.5L625.104 648.429L643.26 670.663C651.774 666.315 652.984 659.628 652.525 656.829C656.933 655.742 656.699 651.27 656.031 649.17C660.539 647.787 660.497 644.147 659.913 642.5Z" fill="#A86561"/>
<ellipse rx="17.279" ry="17.0461" transform="matrix(-1 0 0 1 626.857 665.352)" fill="#A86561"/>
<ellipse rx="9.01514" ry="8.89362" transform="matrix(-1 0 0 1 627.622 663.005)" fill="#D07E79"/>
<ellipse rx="3.13025" ry="3.08806" transform="matrix(-1 0 0 1 628.985 662.264)" fill="#474747"/>
<ellipse rx="0.626045" ry="0.617604" transform="matrix(-1 0 0 1 627.983 660.781)" fill="white"/>
<path d="M640.614 691.867C634.048 690.389 639.233 677.834 641.632 674.121C644.031 670.408 610.268 673.619 612.16 674.124C614.051 674.629 618.597 689.649 613.19 691.867C609.858 693.234 621.533 693.295 630.989 692.935C633.869 692.648 638.276 694.379 638.877 693.885C639.478 693.39 637.625 693.045 636.623 692.935C640.439 692.684 642.574 692.308 640.614 691.867Z" fill="#A86561"/>
<path d="M614.711 677.21C614.711 677.21 599.273 672.28 594.408 666.84C599.602 664.769 608.807 662.844 612.76 662.14L614.711 677.21Z" fill="#E0A458"/>
<path d="M621.11 732.177C610.342 722.296 621.695 706.073 630.376 701.297C610.142 725.211 655.084 745.6 676.954 747.741C664.683 747.988 632.084 742.248 621.11 732.177Z" fill="#D07E79"/>
<path d="M376.221 259.916C368.764 255.396 354.782 239.952 358.514 214.341C362.246 188.73 366.094 185.61 365.763 182.514C378.438 187.842 398.383 204.053 398.935 235.334C399.302 256.094 400.769 264.579 402.14 267.294L403.996 267.822C403.506 268.563 402.836 268.67 402.14 267.294L376.221 259.916Z" fill="#474747"/>
<path fill-rule="evenodd" clip-rule="evenodd" d="M394.926 272.609H392.935V284.49H394.926V284.49H399.794V287.404H401.786L401.786 284.746L404.219 281.733L402.678 280.455L401.786 281.56L401.786 279.558H399.794V282.472H394.926V272.609ZM384.085 278.886H386.076V288.749H391.165V286.059H393.156V287.837L394.049 286.731L395.59 288.009L393.156 291.022V293.904H391.165V290.766H384.085V288.749H384.085V278.886Z" fill="#474747"/>
<path d="M344.921 307.801L374.57 256.695L380.323 262.747L365.941 298.163C362.401 304.977 358.713 304.738 357.312 303.767C352.356 309.505 346.986 308.847 344.921 307.801Z" fill="#474747"/>
<ellipse rx="19.9133" ry="20.1738" transform="matrix(-1 0 0 1 386.961 262.523)" fill="#C8924D"/>
<path d="M374.239 248.401C372.062 239.877 360.999 217.749 335.693 214.149C310.387 210.549 303.509 212.212 303.509 212.212L298.347 212.985C297.739 214.181 298.133 216.908 304.571 218.253C302.259 219.261 299.476 222.108 306.841 225.426C305.73 226.621 304.795 229.617 309.944 232.038C309.942 233.084 310.692 235.737 313.712 237.978C320.021 246.67 329.721 254.768 344.166 259.359C370.32 267.671 373.157 272.326 373.465 273.267L373.502 273.446C373.502 273.446 373.504 273.387 373.465 273.267L370.035 256.807L374.239 248.401Z" fill="#474747"/>
<ellipse cx="406.653" cy="237.982" rx="1.77008" ry="1.79322" fill="#474747"/>
<ellipse cx="393.378" cy="240.896" rx="14.6031" ry="14.7941" fill="#E0A458"/>
<ellipse cx="394.262" cy="240.448" rx="1.99131" ry="2.01738" fill="#474747"/>
<ellipse cx="394.815" cy="239.215" rx="0.553146" ry="0.560379" fill="white"/>
<path d="M399.019 210.635C401.94 211.89 398.909 223.411 397.028 229.015L389.395 230.248C389.1 229.837 387.691 228.32 384.416 225.541C380.323 222.066 384.195 219.265 387.846 219.04C390.766 218.861 393.045 225.616 393.82 229.015C393.488 224.943 392.647 216.216 391.939 213.885C391.054 210.971 395.369 209.066 399.019 210.635Z" fill="#E0A458"/>
<path d="M392.603 216.798C393.672 215.528 396.652 213.458 400.015 215.341C398.651 213.436 395.258 211.06 392.603 216.798Z" fill="#474747"/>
<path d="M384.087 225.143C384.712 223.598 386.907 220.691 390.682 221.419C388.799 220.039 384.845 218.852 384.087 225.143Z" fill="#474747"/>
<path d="M392.16 214.67C393.341 213.406 396.522 211.571 400.236 213.445C398.729 211.549 395.093 208.961 392.16 214.67Z" fill="#474747"/>
<path d="M376.451 251.767C376.363 246.746 379.807 245.267 381.54 245.155L391.829 253.448C391.128 254.98 388.93 257.887 385.744 257.259C382.558 256.631 383.31 253.71 384.085 252.328C381.577 254.233 376.54 256.788 376.451 251.767Z" fill="#E0A458"/>
<path d="M395.479 232.826C386.186 229.688 381.355 239.887 380.102 245.379C385.589 220.274 398.245 225.056 403.887 230.585C404.956 232.639 404.772 235.964 395.479 232.826Z" fill="#C8924D"/>
<path fill-rule="evenodd" clip-rule="evenodd" d="M406.289 247.229L413.955 246.056L405.834 238.763L398.774 246.881L402.282 250.878L402.268 250.925L409.22 249.861L406.289 247.229Z" fill="#474747"/>
<ellipse cx="761.5" cy="668.5" rx="8.5" ry="5" fill="#E0A458"/>
<ellipse cx="805.5" cy="668.5" rx="8.5" ry="5" fill="#E0A458"/>
<ellipse cx="780.5" cy="686.5" rx="8.5" ry="5" fill="#E0A458"/>
<ellipse cx="805.5" cy="644" rx="8.5" ry="4.5" fill="#E0A458"/>
<ellipse cx="611" cy="642" rx="9" ry="4.5" fill="#E0A458"/>
<ellipse cx="555" cy="758" rx="9" ry="5.5" fill="#E0A458"/>
</g>
<defs>
<clipPath id="clip0">
<rect width="1056" height="854" fill="white"/>
</clipPath>
</defs>
</svg>
