<svg width="198" height="347" viewBox="0 0 198 347" fill="none" xmlns="http://www.w3.org/2000/svg">
<path d="M1.07812 320.175L99.1045 346.976V187.214L1.07812 160.413V320.175Z" fill="#DADFEF"/>
<path d="M197.131 320.175L99.1045 346.976V187.214L197.131 160.413V320.175Z" fill="#C2C9E0"/>
<path d="M98.9682 138.816L197.131 160.413L98.9682 187.271L0.805664 160.413L98.9682 138.816Z" fill="#E8EDFF"/>
<path d="M175.691 130.023L190.97 136.774L180.889 150.385L165.61 143.634L175.691 130.023Z" fill="#222222"/>
<path d="M191.139 136.547L180.228 123.898L170.147 137.509L181.058 150.158L191.139 136.547Z" fill="#222222"/>
<path d="M175.691 130.023L190.97 136.774L180.889 150.385L165.61 143.634L175.691 130.023Z" fill="#C2945E"/>
<path d="M164.949 117.148L180.228 123.899L170.147 137.509L154.867 130.759L164.949 117.148Z" fill="#222222"/>
<path d="M175.691 130.023L164.78 117.375L154.698 130.986L165.61 143.634L175.691 130.023Z" fill="#222222"/>
<path d="M164.949 117.148L180.228 123.899L191.055 136.661L175.692 130.024L164.949 117.148Z" fill="#222222"/>
<path d="M158.485 116.005L180.109 125.598L166.472 144.267L144.847 134.675L158.485 116.005Z" fill="#222222"/>
<path d="M180.336 125.286L164.621 107.604L150.984 126.273L166.699 143.956L180.336 125.286Z" fill="#222222"/>
<path d="M158.485 116.005L180.109 125.598L166.472 144.267L144.847 134.675L158.485 116.005Z" fill="#C2945E"/>
<path d="M142.997 98.0116L164.622 107.604L150.984 126.273L129.36 116.681L142.997 98.0116Z" fill="#222222"/>
<path d="M158.485 116.005L142.77 98.3228L129.133 116.992L144.847 134.675L158.485 116.005Z" fill="#222222"/>
<path d="M142.997 98.0116L164.622 107.604L180.223 125.442L158.485 116.005L142.997 98.0116Z" fill="#222222"/>
<path d="M60.8364 148.576L80.4162 143.893L80.8375 163.564L61.2577 168.247L60.8364 148.576Z" fill="#BDAA79"/>
<path d="M80.4096 143.565L60.6472 139.724L61.0685 159.395L80.8309 163.236L80.4096 143.565Z" fill="#A9996F"/>
<path d="M60.8364 148.576L80.4162 143.893L80.8375 163.564L61.2577 168.247L60.8364 148.576Z" fill="#C2945E"/>
<path d="M41.0669 144.407L60.6467 139.724L61.068 159.395L41.4882 164.078L41.0669 144.407Z" fill="#BDAA79"/>
<path d="M60.8371 148.576L41.0771 144.384L41.496 164.407L61.2584 168.248L60.8371 148.576Z" fill="#A37B4D"/>
<path d="M41.0669 144.407L60.6467 139.724L80.4126 143.729L60.8363 148.576L41.0669 144.407Z" fill="#664F34"/>
<path d="M60.5693 132.176L72.5037 129.322L72.7605 141.312L60.8261 144.167L60.5693 132.176Z" fill="#BDAA79"/>
<path d="M72.5 129.122L60.4543 126.781L60.7111 138.771L72.7568 141.112L72.5 129.122Z" fill="#A9996F"/>
<path d="M60.5693 132.176L72.5037 129.322L72.7605 141.312L60.8261 144.167L60.5693 132.176Z" fill="#C2945E"/>
<path d="M48.5195 129.635L60.4539 126.781L60.7107 138.771L48.7763 141.626L48.5195 129.635Z" fill="#BDAA79"/>
<path d="M60.5693 132.176L48.5236 129.835L48.7804 141.825L60.8261 144.167L60.5693 132.176Z" fill="#A37B4D"/>
<path d="M48.5195 129.635L60.4539 126.781L72.5018 129.222L60.5695 132.176L48.5195 129.635Z" fill="#664F34"/>
<path d="M87.604 155.578L107.184 150.895L107.605 170.566L88.0253 175.25L87.604 155.578Z" fill="#BDAA79"/>
<path d="M107.177 150.567L87.4148 146.726L87.8361 166.398L107.599 170.238L107.177 150.567Z" fill="#A9996F"/>
<path d="M87.604 155.578L107.184 150.895L107.605 170.566L88.0253 175.25L87.604 155.578Z" fill="#C2945E"/>
<path d="M67.8344 151.41L87.4143 146.726L87.8356 166.398L68.2557 171.081L67.8344 151.41Z" fill="#BDAA79"/>
<path d="M87.6037 155.579L67.8437 151.386L68.2626 171.409L88.025 175.25L87.6037 155.579Z" fill="#A37B4D"/>
<path d="M67.8344 151.41L87.4143 146.726L107.18 150.731L87.6039 155.578L67.8344 151.41Z" fill="#664F34"/>
<path d="M87.7424 137.793L101.4 134.526L101.694 148.247L88.0362 151.514L87.7424 137.793Z" fill="#BDAA79"/>
<path d="M101.396 134.297L87.6106 131.618L87.9044 145.339L101.69 148.018L101.396 134.297Z" fill="#A9996F"/>
<path d="M87.7424 137.793L101.4 134.526L101.694 148.247L88.0362 151.514L87.7424 137.793Z" fill="#C2945E"/>
<path d="M73.9533 134.885L87.6111 131.618L87.905 145.339L74.2472 148.606L73.9533 134.885Z" fill="#BDAA79"/>
<path d="M87.7424 137.793L73.9573 135.113L74.2511 148.835L88.0362 151.514L87.7424 137.793Z" fill="#A37B4D"/>
<path d="M73.9533 134.885L87.6111 131.618L101.399 134.411L87.7433 137.792L73.9533 134.885Z" fill="#664F34"/>
<path d="M104.758 82.0025L168.672 102.948L165.179 157.531L93.768 145.818L104.758 82.0025Z" fill="#C2945E"/>
<path d="M104.759 82.0025L40.1153 63.6385L32.1808 125.604L94.335 145.818L104.759 82.0025Z" fill="#A37B4D"/>
<path d="M39.7375 63.8275L120.028 82.0026L168.978 102.968L104.759 82.0026L39.7375 63.8275Z" fill="#222222"/>
<path d="M151.446 147.416L165.104 144.149L165.398 157.87L151.74 161.137L151.446 147.416Z" fill="#BDAA79"/>
<path d="M151.446 147.416L165.298 144.011L165.398 157.87L151.74 161.137L151.446 147.416Z" fill="#222222"/>
<path d="M151.446 147.416L137.661 144.736L137.955 158.458L151.74 161.137L151.446 147.416Z" fill="#0D0D0D"/>
<path d="M137.55 144.734L150.992 141.176L165.299 144.015L151.399 147.439L137.55 144.734Z" fill="#4D4C4C"/>
<path d="M154.392 145.087L134.63 141.246L135.051 160.918L154.813 164.758L154.392 145.087Z" fill="#A9996F"/>
<path d="M138.921 148.652L154.399 145.415L154.82 165.086L139.582 168.867L138.921 148.652Z" fill="#C2945E"/>
<path d="M139.236 148.779L119.476 144.587L119.895 164.609L139.658 168.45L139.236 148.779Z" fill="#A37B4D"/>
<path d="M134.446 155.046L123.796 152.786L124.021 163.578L134.673 165.648L134.446 155.046Z" fill="#664F34"/>
<path d="M125.556 147.06L120.596 146.008L120.701 151.034L125.662 151.998L125.556 147.06Z" fill="#664F34"/>
<path d="M131.661 148.338L126.7 147.286L126.806 152.312L131.766 153.276L131.661 148.338Z" fill="#664F34"/>
<path d="M137.764 149.707L132.804 148.655L132.909 153.681L137.87 154.645L137.764 149.707Z" fill="#664F34"/>
<path d="M119.529 144.483L134.629 141.246L154.395 145.251L139.299 148.652L119.529 144.483Z" fill="#D1C093"/>
<path d="M53.0479 104.62L88.2897 99.1555V124.695L53.0479 130.159V104.62Z" fill="#C2945E"/>
<path d="M53.0479 104.62L17.5369 96.9263V122.44L53.0479 130.134V104.62Z" fill="#A37B4D"/>
<path d="M17.5381 96.3344L53.049 88.6404L87.913 99.3445L53.049 104.62L17.5381 96.3344Z" fill="#D1C093"/>
<path d="M34.8389 95.4403L49.9499 92.1663V107.277L34.8389 110.551V95.4403Z" fill="black"/>
<path d="M49.9502 91.9142L34.8392 88.6401V103.751L49.9502 107.025V91.9142Z" fill="#3A3A3A"/>
<path d="M34.8389 95.4403L49.9499 92.1663V107.277L34.8389 110.551V95.4403Z" fill="#3A3A3A"/>
<path d="M19.7285 91.9142L34.8396 88.6401V103.751L19.7285 107.025V91.9142Z" fill="black"/>
<path d="M34.8389 95.4403L19.7278 92.1663V107.277L34.8389 110.551V95.4403Z" fill="black"/>
<path d="M19.7285 91.9142L34.8396 88.6401L49.9506 92.0401L34.8396 95.4401L19.7285 91.9142Z" fill="#808080"/>
<circle cx="80.1541" cy="87.7437" r="4.6248" fill="#0D0D0D"/>
<circle cx="57.4597" cy="81.9326" r="4.02608" fill="#0D0D0D"/>
<path d="M68.527 47.8355L92.2639 43.6377L91.3611 67.179L67.6242 71.3767L68.527 47.8355Z" fill="#BDAA79"/>
<path d="M92.28 43.2454L68.9343 37.2419L68.0314 60.7832L91.3771 66.7867L92.28 43.2454Z" fill="#A9996F"/>
<path d="M68.527 47.8355L92.2639 43.6377L95.6583 78.9412L67.6242 71.3767L68.527 47.8355Z" fill="#222222"/>
<path d="M68.527 47.8355L45.1814 41.832L44.2785 65.3733L67.6242 71.3767L68.527 47.8355Z" fill="#664F34"/>
<path d="M45.029 41.8659L68.9342 37.2419L92.2723 43.4416L68.5279 47.8355L45.029 41.8659Z" fill="#4D4C4C"/>
<path d="M64.8955 32.2366L80.4169 29.4917L79.8266 44.8852L64.3051 47.6301L64.8955 32.2366Z" fill="#BDAA79"/>
<path d="M64.8955 32.2366L80.4169 29.4917L79.8266 44.8852L64.3051 47.6301L64.8955 32.2366Z" fill="#222222"/>
<path d="M64.8955 32.2366L49.6299 28.311L49.0396 43.7045L64.3051 47.6301L64.8955 32.2366Z" fill="#664F34"/>
<path d="M49.5874 28.3466L65.1616 25.3095L80.4048 29.5038L64.896 32.2366L49.5874 28.3466Z" fill="#4D4C4C"/>
<path d="M108.008 57.9563L134.846 56.0831L131.081 82.1053L104.243 83.9785L108.008 57.9563Z" fill="#BDAA79"/>
<path d="M108.008 57.9564L134.846 55.7516L134.846 91.5989L104.243 83.9786L108.008 57.9564Z" fill="#222222"/>
<path d="M82.8649 48.1193L109.703 46.2462L105.938 72.2684L79.0999 74.1416L82.8649 48.1193Z" fill="#BDAA79"/>
<path d="M108.009 57.9562L82.884 48.1474L79.0374 74.5753L104.244 83.9785L108.009 57.9562Z" fill="#664F34"/>
<path d="M82.8649 48.1193L109.703 46.2462L134.878 55.8662L108.009 57.9562L82.8649 48.1193Z" fill="#4D4C4C"/>
<path d="M105.808 40.2165L123.358 38.9917L120.896 56.0075L103.346 57.2323L105.808 40.2165Z" fill="#BDAA79"/>
<path d="M105.808 40.2165L123.383 38.8432L120.896 56.0074L103.346 57.2323L105.808 40.2165Z" fill="#222222"/>
<path d="M89.367 33.7844L106.916 32.5596L104.454 49.5753L86.9051 50.8002L89.367 33.7844Z" fill="#BDAA79"/>
<path d="M105.808 40.2166L89.4013 33.7661L86.8637 51.0837L103.346 57.2324L105.808 40.2166Z" fill="#664F34"/>
<path d="M89.367 33.7844L106.916 32.5596L123.378 38.85L105.808 40.2167L89.367 33.7844Z" fill="#4D4C4C"/>
<path d="M63.5905 21.2469L74.4173 19.3322L74.0055 30.0699L63.1786 31.9845L63.5905 21.2469Z" fill="#BDAA79"/>
<path d="M74.4244 19.1534L63.776 16.4151L63.3642 27.1527L74.0126 29.891L74.4244 19.1534Z" fill="#A9996F"/>
<path d="M63.5905 21.2469L74.4173 19.3322L74.0055 30.0699L63.1786 31.9845L63.5905 21.2469Z" fill="#222222"/>
<path d="M63.5905 21.2469L52.9421 18.5086L52.5302 29.2462L63.1786 31.9845L63.5905 21.2469Z" fill="#664F34"/>
<path d="M52.9167 18.505L63.7759 16.4152L74.4538 19.337L63.5906 21.2472L52.9167 18.505Z" fill="#4D4C4C"/>
<path d="M105.662 27.8681L117.903 27.0137L116.186 38.8829L103.945 39.7373L105.662 27.8681Z" fill="#BDAA79"/>
<path d="M105.662 27.8683L117.953 26.9178L116.186 38.8831L103.945 39.7375L105.662 27.8683Z" fill="#222222"/>
<path d="M94.1934 23.3815L106.435 22.5271L104.717 34.3963L92.4761 35.2507L94.1934 23.3815Z" fill="#BDAA79"/>
<path d="M105.662 27.8681L94.2192 23.3991L92.4474 35.4484L103.945 39.7373L105.662 27.8681Z" fill="#664F34"/>
<path d="M94.1934 23.3815L106.435 22.5271L117.917 26.915L105.662 27.8682L94.1934 23.3815Z" fill="#4D4C4C"/>
</svg>
