<svg width="198" height="348" viewBox="0 0 198 348" fill="none" xmlns="http://www.w3.org/2000/svg">
<path d="M1.13574 321.137L99.3011 347.976V187.987L1.13574 161.148V321.137Z" fill="#DADFEF"/>
<path d="M197.467 321.137L99.3014 347.976V187.987L197.467 161.148V321.137Z" fill="#C2C9E0"/>
<path d="M99.165 139.521L197.467 161.149L99.165 188.044L0.863281 161.149L99.165 139.521Z" fill="#E8EDFF"/>
<path d="M165.005 53.0546L173.476 49.8307L174.778 58.928L166.307 62.1519L165.005 53.0546Z" fill="#222222"/>
<path d="M173.453 49.6789L164.418 48.9606L165.72 58.0579L174.755 58.7762L173.453 49.6789Z" fill="#222222"/>
<path d="M165.005 53.0546L173.476 49.8307L174.778 58.928L166.307 62.1519L165.005 53.0546Z" fill="#9F5B34"/>
<path d="M155.95 52.1852L164.421 48.9613L165.723 58.0586L157.252 61.2826L155.95 52.1852Z" fill="#222222"/>
<path d="M165.005 53.0546L155.97 52.3363L157.272 61.4337L166.307 62.1519L165.005 53.0546Z" fill="#864C2C"/>
<path d="M155.993 52.3437L164.42 48.9605L173.466 49.7546L165.006 53.0543L155.993 52.3437Z" fill="#BF754C"/>
<path d="M156.468 54.599L168.045 50.1927L169.825 62.6266L158.247 67.0329L156.468 54.599Z" fill="#222222"/>
<path d="M168.015 49.9855L155.667 49.0038L157.446 61.4377L169.795 62.4194L168.015 49.9855Z" fill="#222222"/>
<path d="M156.468 54.599L168.045 50.1927L169.825 62.6266L158.247 67.0329L156.468 54.599Z" fill="#9F5B34"/>
<path d="M144.09 53.4108L155.667 49.0045L157.447 61.4384L145.869 65.8447L144.09 53.4108Z" fill="#222222"/>
<path d="M156.468 54.599L144.119 53.6173L145.899 66.0512L158.247 67.0329L156.468 54.599Z" fill="#864C2C"/>
<path d="M144.149 53.6278L155.667 49.0038L168.031 50.0891L156.468 54.599L144.149 53.6278Z" fill="#BF754C"/>
<path d="M144.07 57.6989L160.493 51.4763L163.038 68.4512L146.615 74.6737L144.07 57.6989Z" fill="#222222"/>
<path d="M160.452 51.1935L142.926 50.0603L145.47 67.0351L162.996 68.1684L160.452 51.1935Z" fill="#864C2C"/>
<path d="M144.07 57.6989L160.493 51.4763L163.038 68.4512L146.615 74.6737L144.07 57.6989Z" fill="#9F5B34"/>
<path d="M144.07 57.6989L126.544 56.5656L129.088 73.5405L146.615 74.6737L144.07 57.6989Z" fill="#864C2C"/>
<path d="M126.55 56.5565L142.924 50.0606L160.471 51.3353L144.069 57.6993L126.55 56.5565Z" fill="#BF754C"/>
<path d="M55.3087 147.445L74.5941 142.832L75.0091 162.208L55.7236 166.821L55.3087 147.445Z" fill="#BDAA79"/>
<path d="M74.587 142.509L55.1217 138.726L55.5366 158.102L75.0019 161.885L74.587 142.509Z" fill="#A9996F"/>
<path d="M55.3087 147.445L74.5941 142.832L75.0091 162.208L55.7236 166.821L55.3087 147.445Z" fill="#9F5B34"/>
<path d="M35.836 143.34L55.1215 138.727L55.5364 158.103L36.251 162.716L35.836 143.34Z" fill="#BDAA79"/>
<path d="M55.3092 147.446L35.8463 143.316L36.2589 163.038L55.7242 166.821L55.3092 147.446Z" fill="#864C2C"/>
<path d="M35.836 143.34L55.1215 138.727L74.5902 142.672L55.3082 147.446L35.836 143.34Z" fill="#693D24"/>
<path d="M55.046 131.293L66.801 128.481L67.0539 140.291L55.2989 143.102L55.046 131.293Z" fill="#864C2C"/>
<path d="M66.797 128.284L54.9324 125.978L55.1853 137.788L67.0499 140.094L66.797 128.284Z" fill="#A9996F"/>
<path d="M55.046 131.293L66.801 128.481L67.0539 140.291L55.2989 143.102L55.046 131.293Z" fill="#9F5B34"/>
<path d="M43.1769 128.79L54.9319 125.979L55.1848 137.788L43.4298 140.6L43.1769 128.79Z" fill="#864C2C"/>
<path d="M55.046 131.293L43.1814 128.987L43.4343 140.797L55.2989 143.102L55.046 131.293Z" fill="#864C2C"/>
<path d="M43.1769 128.79L54.9319 125.979L66.7986 128.383L55.0457 131.293L43.1769 128.79Z" fill="#664F34"/>
<path d="M93.5079 156.488L112.793 151.875L113.208 171.251L93.9228 175.864L93.5079 156.488Z" fill="#BDAA79"/>
<path d="M112.787 151.552L93.3219 147.769L93.7368 167.145L113.202 170.928L112.787 151.552Z" fill="#A9996F"/>
<path d="M93.5079 156.488L112.793 151.875L113.208 171.251L93.9228 175.864L93.5079 156.488Z" fill="#9F5B34"/>
<path d="M74.0352 152.382L93.3207 147.769L93.7357 167.145L74.4502 171.757L74.0352 152.382Z" fill="#BDAA79"/>
<path d="M93.5084 156.488L74.0455 152.359L74.4581 172.08L93.9234 175.863L93.5084 156.488Z" fill="#864C2C"/>
<path d="M74.0352 152.382L93.3207 147.769L112.789 151.714L93.5074 156.488L74.0352 152.382Z" fill="#693D24"/>
<path d="M93.6438 138.97L107.096 135.752L107.386 149.267L93.9332 152.485L93.6438 138.97Z" fill="#BDAA79"/>
<path d="M107.091 135.527L93.5132 132.888L93.8026 146.403L107.38 149.042L107.091 135.527Z" fill="#A9996F"/>
<path d="M93.6438 138.97L107.096 135.752L107.386 149.267L93.9332 152.485L93.6438 138.97Z" fill="#9F5B34"/>
<path d="M80.0608 136.105L93.5132 132.888L93.8027 146.403L80.3502 149.62L80.0608 136.105Z" fill="#BDAA79"/>
<path d="M93.6438 138.97L80.0659 136.331L80.3553 149.846L93.9332 152.485L93.6438 138.97Z" fill="#864C2C"/>
<path d="M80.0608 136.105L93.5132 132.888L107.094 135.639L93.6435 138.969L80.0608 136.105Z" fill="#664F34"/>
<path d="M98.1914 76.2829L162.936 62.2549V127L98.1914 141.028V76.2829Z" fill="#BDAA79"/>
<path d="M98.1914 76.2829L162.936 62.2549V127L98.1914 141.028V76.2829Z" fill="#9F5B34"/>
<path d="M98.1914 76.2829L33.4466 62.2549V127L98.1914 141.028V76.2829Z" fill="#864C2C"/>
<path d="M33.041 62.1876L98.1905 47.1479L163.205 62.1202L98.1905 76.2831L33.041 62.1876Z" fill="#BF754C"/>
<path d="M36.8252 159.472L51.7091 156.247V171.131L36.8252 174.356V159.472Z" fill="black"/>
<path d="M36.8252 159.472L51.7091 156.247V171.131L36.8252 174.356V159.472Z" fill="#D0EB29"/>
<path d="M36.8252 159.472L21.9413 156.247V171.131L36.8252 174.356V159.472Z" fill="#B9D125"/>
<path d="M21.6338 156.201L36.8253 152.774L51.7785 156.201L36.8253 159.472L21.6338 156.201Z" fill="#D3E660"/>
<path d="M150.435 143.889L169.72 139.276L170.135 158.652L150.85 163.265L150.435 143.889Z" fill="#BDAA79"/>
<path d="M169.713 138.953L150.248 135.17L150.663 154.546L170.128 158.329L169.713 138.953Z" fill="#A9996F"/>
<path d="M150.435 143.889L169.72 139.276L170.135 158.652L150.85 163.265L150.435 143.889Z" fill="#9F5B34"/>
<path d="M130.962 139.783L150.247 135.17L150.662 154.546L131.377 159.159L130.962 139.783Z" fill="#BDAA79"/>
<path d="M150.434 143.889L130.971 139.76L131.384 159.482L150.849 163.265L150.434 143.889Z" fill="#864C2C"/>
<path d="M130.962 139.783L150.247 135.17L169.716 139.115L150.434 143.889L130.962 139.783Z" fill="#693D24"/>
<path d="M150.572 126.37L164.024 123.152L164.313 136.668L150.861 139.885L150.572 126.37Z" fill="#BDAA79"/>
<path d="M150.571 126.371L164.215 123.017L164.313 136.668L150.861 139.886L150.571 126.371Z" fill="#9F5B34"/>
<path d="M150.572 126.37L136.994 123.731L137.283 137.247L150.861 139.885L150.572 126.37Z" fill="#864C2C"/>
<path d="M136.883 123.729L150.123 120.224L164.215 123.021L150.524 126.393L136.883 123.729Z" fill="#BF754C"/>
<path d="M46.8408 101.734L81.8179 94.156V119.311L46.8408 126.89V101.734Z" fill="#9F5B34"/>
<path d="M46.8408 101.734L11.8637 94.156V119.286L46.8408 126.865V101.734Z" fill="#864C2C"/>
<path d="M11.8633 93.573L46.8404 85.9946L82.0035 94.0877L46.8404 101.734L11.8633 93.573Z" fill="#BF754C"/>
<path d="M28.9062 92.6924L43.7901 89.4675V104.351L28.9062 107.576V92.6924Z" fill="black"/>
<path d="M43.7891 89.2195L28.9052 85.9946V100.878L43.7891 104.103V89.2195Z" fill="#3A3A3A"/>
<path d="M28.9062 92.6924L43.7901 89.4675V104.351L28.9062 107.576V92.6924Z" fill="#9F4E34"/>
<path d="M14.0215 89.2197L28.9053 85.9949V100.879L14.0215 104.104V89.2197Z" fill="black"/>
<path d="M28.9062 92.6924L14.0224 89.4675V104.351L28.9062 107.576V92.6924Z" fill="#7C3F2C"/>
<path d="M14.0215 89.2197L28.9053 85.9949L43.7892 89.3437L28.9053 92.6926L14.0215 89.2197Z" fill="#C17055"/>
<path d="M55.5471 79.165C55.5471 81.6808 53.5037 80.8397 49.9647 79.9093C47.9152 79.3704 46.0107 80.4793 46.0107 77.9635C46.0107 75.4477 48.0502 73.4082 50.566 73.4082C53.0818 73.4082 55.5471 76.6492 55.5471 79.165Z" fill="#341D10"/>
<path d="M77.1111 83.6137C77.1111 86.452 74.8058 85.5031 70.8133 84.4534C68.501 83.8455 66.3525 85.0965 66.3525 82.2582C66.3525 79.42 68.6534 77.1191 71.4916 77.1191C74.3299 77.1191 77.1111 80.7755 77.1111 83.6137Z" fill="#341D10"/>
<path d="M75.8164 62.1523L96.6864 60.7986V73.7154L75.8164 68.2441V62.1523Z" fill="#693D24"/>
<path d="M85.0049 54.669L106.665 49.9761V71.6358L96.6298 73.7156V64.1923H85.0049V54.669Z" fill="#9F5B34"/>
<path d="M85.0674 54.6784L63.3513 49.6301V59.2191L85.0674 64.2974V54.6784Z" fill="#BF754C"/>
<path d="M63.3457 49.6148L85.0054 44.9219L106.727 49.9686L85.0054 54.6687L63.3457 49.6148Z" fill="#BF754C"/>
<path d="M41.3174 56.2849L59.1163 55.1304V66.1465L41.3174 61.4803V56.2849Z" fill="#693D24"/>
<path d="M49.1543 49.9027L67.6266 45.9004V64.3727L59.0686 66.1465V58.0246H49.1543V49.9027Z" fill="#9F5B34"/>
<path d="M49.207 49.9114L30.6865 45.606V53.7838L49.207 58.1148V49.9114Z" fill="#BF754C"/>
<path d="M30.6826 45.5927L49.155 41.5903L67.68 45.8944L49.155 49.9029L30.6826 45.5927Z" fill="#BF754C"/>
</svg>
