<svg width="207" height="348" viewBox="0 0 207 348" fill="none" xmlns="http://www.w3.org/2000/svg">
<path d="M9.87109 320.629L108.036 347.468V187.479L9.87109 160.64V320.629Z" fill="#CCD1E2"/>
<path d="M206.202 320.629L108.037 347.468V187.479L206.202 160.64V320.629Z" fill="#AAAFC1"/>
<path d="M107.9 139.013L206.202 160.64L107.9 187.536L9.59863 160.64L107.9 139.013Z" fill="#DADFEF"/>
<path d="M171.969 41.5914L199.605 35.8226L199.396 63.413L171.76 69.1819L171.969 41.5914Z" fill="#222222"/>
<path d="M199.608 35.3627L172.063 29.1757L171.854 56.7661L199.399 62.9531L199.608 35.3627Z" fill="#222222"/>
<path d="M171.969 41.5914L199.605 35.8226L199.396 63.413L171.76 69.1819L171.969 41.5914Z" fill="#0B0B0B"/>
<path d="M144.427 34.945L172.063 29.1761L171.854 56.7665L144.218 62.5354L144.427 34.945Z" fill="#222222"/>
<path d="M171.969 41.5914L144.424 35.4044L144.215 62.9948L171.76 69.1819L171.969 41.5914Z" fill="#222222"/>
<path d="M144.427 34.945L172.063 29.1761L199.606 35.5931L171.969 41.5918L144.427 34.945Z" fill="#222222"/>
<path d="M53.2945 144.373L76.661 138.784L77.1637 162.26L53.7972 167.849L53.2945 144.373Z" fill="#BDAA79"/>
<path d="M76.6529 138.393L53.0685 133.809L53.5713 157.285L77.1556 161.868L76.6529 138.393Z" fill="#A9996F"/>
<path d="M53.2946 144.373L76.6921 138.503L77.1639 162.26L53.7974 167.849L53.2946 144.373Z" fill="#0B0B0B"/>
<path d="M29.7017 139.4L53.0682 133.81L53.571 157.286L30.2045 162.875L29.7017 139.4Z" fill="#BDAA79"/>
<path d="M53.2947 144.373L29.7132 139.37L30.2131 163.265L53.7974 167.849L53.2947 144.373Z" fill="white"/>
<path d="M29.7017 139.4L53.0682 133.81L76.6568 138.59L53.2945 144.374L29.7017 139.4Z" fill="#0D0D0D"/>
<path d="M52.9775 124.802L67.22 121.396L67.5265 135.705L53.284 139.111L52.9775 124.802Z" fill="#BDAA79"/>
<path d="M67.2148 121.157L52.8395 118.363L53.146 132.672L67.5213 135.466L67.2148 121.157Z" fill="#A9996F"/>
<path d="M52.9775 124.802L67.22 121.396L67.5265 135.705L53.284 139.111L52.9775 124.802Z" fill="#0B0B0B"/>
<path d="M38.5967 121.771L52.8392 118.364L53.1456 132.673L38.9031 136.08L38.5967 121.771Z" fill="#BDAA79"/>
<path d="M52.9775 124.802L38.6022 122.009L38.9087 136.317L53.284 139.111L52.9775 124.802Z" fill="#404040"/>
<path d="M38.5967 121.771L52.8392 118.364L67.217 121.277L52.9771 124.803L38.5967 121.771Z" fill="#664F34"/>
<path d="M99.5787 155.329L122.945 149.74L123.448 173.215L100.081 178.804L99.5787 155.329Z" fill="#BDAA79"/>
<path d="M122.937 149.349L99.3527 144.765L99.8554 168.24L123.44 172.824L122.937 149.349Z" fill="#A9996F"/>
<path d="M99.5781 155.329L122.901 149.494L123.447 173.216L100.081 178.805L99.5781 155.329Z" fill="#0B0B0B"/>
<path d="M75.9878 150.355L99.3543 144.766L99.8571 168.241L76.4906 173.831L75.9878 150.355Z" fill="#BDAA79"/>
<path d="M99.5788 155.329L75.9973 150.326L76.4972 174.221L100.082 178.804L99.5788 155.329Z" fill="white"/>
<path d="M75.9878 150.355L99.3543 144.766L122.943 149.545L99.5806 155.33L75.9878 150.355Z" fill="#0D0D0D"/>
<path d="M99.7449 134.104L116.044 130.205L116.395 146.58L100.096 150.479L99.7449 134.104Z" fill="#BDAA79"/>
<path d="M116.039 129.932L99.5878 126.735L99.9385 143.11L116.39 146.307L116.039 129.932Z" fill="#A9996F"/>
<path d="M99.7449 134.104L116.044 130.205L116.395 146.58L100.096 150.479L99.7449 134.104Z" fill="#0B0B0B"/>
<path d="M83.2879 130.633L99.587 126.735L99.9377 143.11L83.6386 147.009L83.2879 130.633Z" fill="#BDAA79"/>
<path d="M99.7449 134.104L83.2938 130.906L83.6445 147.281L100.096 150.479L99.7449 134.104Z" fill="#404040"/>
<path d="M83.2879 130.633L99.587 126.735L116.041 130.068L99.7449 134.104L83.2879 130.633Z" fill="#664F34"/>
<path d="M105.25 58.1528L183.696 41.1562V119.602L105.25 136.598V58.1528Z" fill="#BDAA79"/>
<path d="M105.25 58.1528L183.696 41.1562V119.602L105.25 136.598V58.1528Z" fill="#0B0B0B"/>
<path d="M105.25 58.1528L26.8044 41.1562V119.602L105.25 136.598V58.1528Z" fill="#404040"/>
<path d="M26.3145 41.0743L105.25 22.8521L184.023 40.9926L105.25 58.1525L26.3145 41.0743Z" fill="#222222"/>
<path d="M168.551 140.064L191.918 134.475L192.421 157.95L169.054 163.539L168.551 140.064Z" fill="#BDAA79"/>
<path d="M191.91 134.083L168.325 129.5L168.828 152.975L192.412 157.559L191.91 134.083Z" fill="#A9996F"/>
<path d="M168.552 140.064L191.828 134.173L192.421 157.95L169.055 163.539L168.552 140.064Z" fill="#0B0B0B"/>
<path d="M144.959 135.089L168.325 129.5L168.828 152.975L145.461 158.564L144.959 135.089Z" fill="#BDAA79"/>
<path d="M168.552 140.064L144.971 135.061L145.471 158.955L169.055 163.539L168.552 140.064Z" fill="#404040"/>
<path d="M144.959 135.089L168.325 129.5L191.914 134.279L168.551 140.064L144.959 135.089Z" fill="#0D0D0D"/>
<path d="M168.718 118.838L185.017 114.94L185.367 131.315L169.068 135.213L168.718 118.838Z" fill="#BDAA79"/>
<path d="M168.717 118.838L185.248 114.775L185.367 131.315L169.068 135.214L168.717 118.838Z" fill="#222222"/>
<path d="M168.718 118.838L152.266 115.641L152.617 132.016L169.068 135.213L168.718 118.838Z" fill="#0D0D0D"/>
<path d="M152.134 115.638L168.175 111.391L185.249 114.78L168.661 118.866L152.134 115.638Z" fill="#4D4C4C"/>
<path d="M43.0352 88.9899L85.4138 79.8079V122.186L43.0352 131.369V88.9899Z" fill="#BDAA79"/>
<path d="M85.4131 79.1015L43.0345 69.9194V112.298L85.4131 121.48V79.1015Z" fill="#A9996F"/>
<path d="M43.0352 88.9899L85.4138 79.8079V122.186L43.0352 131.369V88.9899Z" fill="#0B0B0B"/>
<path d="M0.65625 79.1015L43.0349 69.9194V112.298L0.65625 121.48V79.1015Z" fill="#BDAA79"/>
<path d="M43.0352 88.9901L0.656525 79.0566V122.187L43.0352 131.369V88.9901Z" fill="white"/>
<path d="M0.65625 79.1015L43.0349 69.9194L85.4135 79.4546L43.0349 88.9898L0.65625 79.1015Z" fill="white"/>
<path d="M33.5323 30.2667L58.0956 22.2472L62.0562 37.7068L35.4002 37.5577L33.5323 30.2667Z" fill="black"/>
<path d="M42.2358 18.4925L66.7204 6.23432L73.3618 32.1578L61.9894 37.724L59.0693 26.326L45.1559 29.8905L42.2358 18.4925Z" fill="#222222"/>
<path d="M42.3126 18.4852L14.7736 19.1018L17.7138 30.5784L45.262 29.9977L42.3126 18.4852Z" fill="#4D4C4C"/>
<path d="M14.7622 19.085L39.2467 6.82685L66.7916 6.20666L42.2354 18.4924L14.7622 19.085Z" fill="#4D4C4C"/>
<path d="M103.005 35.9625L131.188 47.084L123.207 64.0092L99.2413 43.9447L103.005 35.9625Z" fill="black"/>
<path d="M119.669 31.8343L150.949 39.0683L137.566 67.4492L123.132 63.9741L129.017 51.4956L113.784 44.3128L119.669 31.8343Z" fill="#222222"/>
<path d="M119.744 31.8851L94.4084 11.8522L88.4835 24.4167L113.801 44.4889L119.744 31.8851Z" fill="#4D4C4C"/>
<path d="M94.4109 11.8289L125.692 19.0629L151.035 39.097L119.669 31.8343L94.4109 11.8289Z" fill="#4D4C4C"/>
<path d="M21.3047 78.0344L39.3382 74.1272V92.1607L21.3047 96.0679V78.0344Z" fill="black"/>
<path d="M39.3379 73.8267L21.3044 69.9194V87.9529L39.3379 91.8601V73.8267Z" fill="#3A3A3A"/>
<path d="M21.3047 78.0344L39.3382 74.1272V92.1607L21.3047 96.0679V78.0344Z" fill="#3A3A3A"/>
<path d="M3.27051 73.8267L21.304 69.9194V87.9529L3.27051 91.8601V73.8267Z" fill="black"/>
<path d="M21.3047 78.0344L3.27122 74.1272V92.1607L21.3047 96.0679V78.0344Z" fill="black"/>
<path d="M3.27051 73.8267L21.304 69.9194L39.3374 73.977L21.304 78.0345L3.27051 73.8267Z" fill="#808080"/>
<circle cx="73.1647" cy="65.7077" r="5.51921" fill="#0D0D0D"/>
<circle cx="48.5807" cy="60.9786" r="4.72909" fill="#0D0D0D"/>
</svg>
