<svg width="207" height="348" viewBox="0 0 207 348" fill="none" xmlns="http://www.w3.org/2000/svg">
<path d="M10.1582 320.629L108.324 347.468V187.479L10.1582 160.64V320.629Z" fill="#DADFEF"/>
<path d="M206.489 320.629L108.324 347.468V187.479L206.489 160.64V320.629Z" fill="#C2C9E0"/>
<path d="M108.187 139.013L206.489 160.64L108.187 187.536L9.88574 160.64L108.187 139.013Z" fill="#E8EDFF"/>
<path d="M172.256 41.5914L199.892 35.8226L199.683 63.413L172.047 69.1819L172.256 41.5914Z" fill="#222222"/>
<path d="M199.895 35.3627L172.35 29.1757L172.141 56.7661L199.686 62.9531L199.895 35.3627Z" fill="#222222"/>
<path d="M172.256 41.5914L199.892 35.8226L199.683 63.413L172.047 69.1819L172.256 41.5914Z" fill="#0B0B0B"/>
<path d="M144.714 34.945L172.35 29.1761L172.141 56.7665L144.505 62.5354L144.714 34.945Z" fill="#222222"/>
<path d="M172.256 41.5914L144.711 35.4044L144.502 62.9948L172.047 69.1819L172.256 41.5914Z" fill="#222222"/>
<path d="M144.714 34.945L172.35 29.1761L199.894 35.5931L172.256 41.5918L144.714 34.945Z" fill="#222222"/>
<path d="M53.5816 144.373L76.9481 138.784L77.4509 162.26L54.0844 167.849L53.5816 144.373Z" fill="#BDAA79"/>
<path d="M76.94 138.393L53.3556 133.809L53.8584 157.285L77.4428 161.868L76.94 138.393Z" fill="#A9996F"/>
<path d="M53.5817 144.373L76.9792 138.503L77.451 162.26L54.0845 167.849L53.5817 144.373Z" fill="#0B0B0B"/>
<path d="M29.9888 139.4L53.3553 133.81L53.8581 157.286L30.4916 162.875L29.9888 139.4Z" fill="#BDAA79"/>
<path d="M53.5818 144.373L30.0003 139.37L30.5002 163.265L54.0845 167.849L53.5818 144.373Z" fill="white"/>
<path d="M29.9888 139.4L53.3553 133.81L76.9439 138.59L53.5816 144.374L29.9888 139.4Z" fill="#0D0D0D"/>
<path d="M53.2646 124.802L67.5071 121.396L67.8136 135.705L53.5711 139.111L53.2646 124.802Z" fill="#BDAA79"/>
<path d="M67.5019 121.157L53.1266 118.363L53.4331 132.672L67.8084 135.466L67.5019 121.157Z" fill="#A9996F"/>
<path d="M53.2646 124.802L67.5071 121.396L67.8136 135.705L53.5711 139.111L53.2646 124.802Z" fill="#0B0B0B"/>
<path d="M38.8838 121.771L53.1263 118.364L53.4327 132.673L39.1902 136.08L38.8838 121.771Z" fill="#BDAA79"/>
<path d="M53.2646 124.802L38.8893 122.009L39.1958 136.317L53.5711 139.111L53.2646 124.802Z" fill="#404040"/>
<path d="M38.8838 121.771L53.1263 118.364L67.5041 121.277L53.2642 124.803L38.8838 121.771Z" fill="#664F34"/>
<path d="M99.8658 155.329L123.232 149.74L123.735 173.215L100.369 178.804L99.8658 155.329Z" fill="#BDAA79"/>
<path d="M123.224 149.349L99.6398 144.765L100.143 168.24L123.727 172.824L123.224 149.349Z" fill="#A9996F"/>
<path d="M99.8652 155.329L123.188 149.494L123.734 173.216L100.368 178.805L99.8652 155.329Z" fill="#0B0B0B"/>
<path d="M76.2749 150.355L99.6415 144.766L100.144 168.241L76.7777 173.831L76.2749 150.355Z" fill="#BDAA79"/>
<path d="M99.866 155.329L76.2844 150.326L76.7843 174.221L100.369 178.804L99.866 155.329Z" fill="white"/>
<path d="M76.2749 150.355L99.6415 144.766L123.23 149.545L99.8677 155.33L76.2749 150.355Z" fill="#0D0D0D"/>
<path d="M100.032 134.104L116.331 130.205L116.682 146.58L100.383 150.479L100.032 134.104Z" fill="#BDAA79"/>
<path d="M116.326 129.932L99.8749 126.735L100.226 143.11L116.677 146.307L116.326 129.932Z" fill="#A9996F"/>
<path d="M100.032 134.104L116.331 130.205L116.682 146.58L100.383 150.479L100.032 134.104Z" fill="#0B0B0B"/>
<path d="M83.575 130.633L99.8742 126.735L100.225 143.11L83.9257 147.009L83.575 130.633Z" fill="#BDAA79"/>
<path d="M100.032 134.104L83.5809 130.906L83.9316 147.281L100.383 150.479L100.032 134.104Z" fill="#404040"/>
<path d="M83.575 130.633L99.8742 126.735L116.328 130.068L100.032 134.104L83.575 130.633Z" fill="#664F34"/>
<path d="M105.537 58.1528L183.983 41.1562V119.602L105.537 136.598V58.1528Z" fill="#BDAA79"/>
<path d="M105.537 58.1528L183.983 41.1562V119.602L105.537 136.598V58.1528Z" fill="#0B0B0B"/>
<path d="M105.537 58.1528L27.0916 41.1562V119.602L105.537 136.598V58.1528Z" fill="#404040"/>
<path d="M26.6016 41.0743L105.537 22.8521L184.31 40.9926L105.537 58.1525L26.6016 41.0743Z" fill="#222222"/>
<path d="M22.7002 131.729L32.8256 129.535V139.661L22.7002 141.855V131.729Z" fill="black"/>
<path d="M32.8262 129.367L22.7008 127.173V137.298L32.8262 139.492V129.367Z" fill="#3A3A3A"/>
<path d="M22.7002 131.729L32.8256 129.535V139.661L22.7002 141.855V131.729Z" fill="#CC376D"/>
<path d="M12.5752 129.367L22.7006 127.173V137.298L12.5752 139.492V129.367Z" fill="black"/>
<path d="M22.7002 131.729L12.5748 129.535V139.661L22.7002 141.855V131.729Z" fill="#F95791"/>
<path d="M12.5752 129.367L22.7006 127.173L32.826 129.451L22.7006 131.729L12.5752 129.367Z" fill="#808080"/>
<path d="M22.7002 125.439L32.8256 123.245V133.371L22.7002 135.565V125.439Z" fill="black"/>
<path d="M32.8262 123.077L22.7008 120.883V131.008L32.8262 133.202V123.077Z" fill="#3A3A3A"/>
<path d="M22.7002 125.439L32.8256 123.245V133.371L22.7002 135.565V125.439Z" fill="#CC376D"/>
<path d="M12.5752 123.077L22.7006 120.883V131.008L12.5752 133.202V123.077Z" fill="black"/>
<path d="M22.7002 125.439L12.5748 123.245V133.371L22.7002 135.565V125.439Z" fill="#F95791"/>
<path d="M12.5752 123.077L22.7006 120.883L32.826 123.161L22.7006 125.439L12.5752 123.077Z" fill="#808080"/>
<path d="M168.838 140.064L192.205 134.475L192.708 157.95L169.341 163.539L168.838 140.064Z" fill="#BDAA79"/>
<path d="M192.197 134.083L168.612 129.5L169.115 152.975L192.7 157.559L192.197 134.083Z" fill="#A9996F"/>
<path d="M168.839 140.064L192.115 134.173L192.708 157.95L169.342 163.539L168.839 140.064Z" fill="#0B0B0B"/>
<path d="M145.246 135.089L168.612 129.5L169.115 152.975L145.748 158.564L145.246 135.089Z" fill="#BDAA79"/>
<path d="M168.84 140.064L145.258 135.061L145.758 158.955L169.342 163.539L168.84 140.064Z" fill="#404040"/>
<path d="M145.246 135.089L168.612 129.5L192.201 134.279L168.838 140.064L145.246 135.089Z" fill="#0D0D0D"/>
<path d="M169.005 118.838L185.304 114.94L185.655 131.315L169.355 135.213L169.005 118.838Z" fill="#BDAA79"/>
<path d="M169.004 118.838L185.535 114.775L185.654 131.315L169.355 135.214L169.004 118.838Z" fill="#222222"/>
<path d="M169.005 118.838L152.554 115.641L152.904 132.016L169.355 135.213L169.005 118.838Z" fill="#0D0D0D"/>
<path d="M152.421 115.638L168.463 111.391L185.536 114.78L168.949 118.866L152.421 115.638Z" fill="#4D4C4C"/>
<path d="M43.3223 88.9899L85.7009 79.8079V122.186L43.3223 131.369V88.9899Z" fill="#BDAA79"/>
<path d="M85.7002 79.1015L43.3216 69.9194V112.298L85.7002 121.48V79.1015Z" fill="#A9996F"/>
<path d="M43.3223 88.9899L85.7009 79.8079V122.186L43.3223 131.369V88.9899Z" fill="#0B0B0B"/>
<path d="M0.943359 79.1015L43.322 69.9194V112.298L0.943359 121.48V79.1015Z" fill="#BDAA79"/>
<path d="M43.3223 88.9901L0.943632 79.0566V122.187L43.3223 131.369V88.9901Z" fill="white"/>
<path d="M0.943359 79.1015L43.322 69.9194L85.7006 79.4546L43.322 88.9898L0.943359 79.1015Z" fill="white"/>
<path d="M33.8194 30.2667L58.3827 22.2472L62.3434 37.7068L35.6873 37.5577L33.8194 30.2667Z" fill="black"/>
<path d="M42.523 18.4925L67.0075 6.23432L73.6489 32.1578L62.2765 37.724L59.3564 26.326L45.443 29.8905L42.523 18.4925Z" fill="#222222"/>
<path d="M42.5997 18.4852L15.0607 19.1018L18.0009 30.5784L45.5491 29.9977L42.5997 18.4852Z" fill="#4D4C4C"/>
<path d="M15.0493 19.085L39.5338 6.82685L67.0787 6.20666L42.5225 18.4924L15.0493 19.085Z" fill="#4D4C4C"/>
<path d="M103.292 35.9625L131.475 47.084L123.494 64.0092L99.5284 43.9447L103.292 35.9625Z" fill="black"/>
<path d="M119.956 31.8343L151.236 39.0683L137.853 67.4492L123.419 63.9741L129.304 51.4956L114.071 44.3128L119.956 31.8343Z" fill="#222222"/>
<path d="M120.031 31.8851L94.6955 11.8522L88.7706 24.4167L114.088 44.4889L120.031 31.8851Z" fill="#4D4C4C"/>
<path d="M94.698 11.8289L125.979 19.0629L151.322 39.097L119.956 31.8343L94.698 11.8289Z" fill="#4D4C4C"/>
<path d="M21.5918 78.0344L39.6253 74.1272V92.1607L21.5918 96.0679V78.0344Z" fill="black"/>
<path d="M39.625 73.8267L21.5915 69.9194V87.9529L39.625 91.8601V73.8267Z" fill="#3A3A3A"/>
<path d="M21.5918 78.0344L39.6253 74.1272V92.1607L21.5918 96.0679V78.0344Z" fill="#3A3A3A"/>
<path d="M3.55762 73.8267L21.5911 69.9194V87.9529L3.55762 91.8601V73.8267Z" fill="black"/>
<path d="M21.5918 78.0344L3.55833 74.1272V92.1607L21.5918 96.0679V78.0344Z" fill="black"/>
<path d="M3.55762 73.8267L21.5911 69.9194L39.6245 73.977L21.5911 78.0345L3.55762 73.8267Z" fill="#808080"/>
<path d="M53.5969 60.9786C53.5969 63.5904 51.8496 63.2566 48.1122 61.671C44.8596 60.6307 44.1387 63.5904 44.1387 60.9786C44.1387 58.3668 46.256 56.2495 48.8678 56.2495C51.4796 56.2495 53.5969 58.3668 53.5969 60.9786Z" fill="#0D0D0D"/>
<path d="M67.9121 63.278C66.6391 66.4212 68.9046 66.871 74.1752 66.7844C78.5967 67.1178 78.0217 71.031 79.2947 67.8878C80.5677 64.7446 79.0515 61.1646 75.9083 59.8916C72.7651 58.6186 69.1851 60.1347 67.9121 63.278Z" fill="#0D0D0D"/>
</svg>
