<svg width="464" height="464" viewBox="0 0 464 464" fill="none" xmlns="http://www.w3.org/2000/svg">
<path d="M100.388 389.976L207.405 419.247V244.762L100.388 215.491V389.976Z" fill="#CCD1E2"/>
<path d="M314.421 389.976L207.404 419.247V244.762L314.421 215.491V389.976Z" fill="#AAAFC1"/>
<path d="M207.256 191.904L314.421 215.491L207.256 244.824L100.09 215.491L207.256 191.904Z" fill="#DADFEF"/>
<path d="M263.989 404.278L314.491 418.091V335.752L263.989 321.939V404.278Z" fill="#CCD1E2"/>
<path d="M364.992 404.278L314.491 418.091V335.752L364.992 321.939V404.278Z" fill="#AAAFC1"/>
<path d="M314.42 310.808L364.992 321.939L314.42 335.781L263.849 321.939L314.42 310.808Z" fill="#DADFEF"/>
<path d="M0.196289 401.696L70.4835 420.921V306.322L0.196289 287.098V401.696Z" fill="#CCD1E2"/>
<path d="M140.77 401.696L70.4823 420.921V306.322L140.77 287.098V401.696Z" fill="#AAAFC1"/>
<path d="M70.3848 271.606L140.77 287.097L70.3848 306.363L0 287.097L70.3848 271.606Z" fill="#DADFEF"/>
<path d="M273.961 266.823L289.637 285.521L272.138 291.956L266.699 273.275L273.961 266.823Z" fill="#FBF7F2"/>
<path d="M281.04 277.119L298.49 290.246L288.66 303.397L271.21 290.27L281.04 277.119Z" fill="#FBF7F2"/>
<path d="M263.097 271.971L278.773 290.669L261.274 297.104L255.835 278.423L263.097 271.971Z" fill="#FBF7F2"/>
<path d="M275.183 286.101L280.646 307.243L264.762 311.399L259.299 290.258L275.183 286.101Z" fill="#FBF7F2"/>
<path d="M194.398 64.1463C194.398 68.556 190.835 72.1308 186.441 72.1308C182.047 72.1308 178.485 68.556 178.485 64.1463C178.485 59.7366 182.047 56.1619 186.441 56.1619C190.835 56.1619 194.398 59.7366 194.398 64.1463Z" fill="#F6C442"/>
<path d="M200.915 55.1037C200.915 59.5134 197.353 63.0882 192.959 63.0882C188.565 63.0882 185.003 59.5134 185.003 55.1037C185.003 50.694 188.565 47.1193 192.959 47.1193C197.353 47.1193 200.915 50.694 200.915 55.1037Z" fill="#F6C442"/>
<path d="M194.398 75.113C194.398 79.5227 190.835 83.0974 186.441 83.0974C182.047 83.0974 178.485 79.5227 178.485 75.113C178.485 70.7032 182.047 67.1285 186.441 67.1285C190.835 67.1285 194.398 70.7032 194.398 75.113Z" fill="#F6C442"/>
<path d="M204.175 69.341C204.175 73.7507 200.613 77.3255 196.219 77.3255C191.825 77.3255 188.263 73.7507 188.263 69.341C188.263 64.9313 191.825 61.3566 196.219 61.3566C200.613 61.3566 204.175 64.9313 204.175 69.341Z" fill="#F6C442"/>
<path d="M202.094 78.9609C202.094 83.3706 198.532 86.9453 194.138 86.9453C189.744 86.9453 186.182 83.3706 186.182 78.9609C186.182 74.5511 189.744 70.9764 194.138 70.9764C198.532 70.9764 202.094 74.5511 202.094 78.9609Z" fill="#F6C442"/>
<path d="M211.342 51.0634C211.342 55.4731 207.78 59.0479 203.386 59.0479C198.992 59.0479 195.43 55.4731 195.43 51.0634C195.43 46.6537 198.992 43.0789 203.386 43.0789C207.78 43.0789 211.342 46.6537 211.342 51.0634Z" fill="#FFCF55"/>
<path d="M221.283 53.3721C221.283 57.7818 217.721 61.3566 213.327 61.3566C208.933 61.3566 205.371 57.7818 205.371 53.3721C205.371 48.9624 208.933 45.3876 213.327 45.3876C217.721 45.3876 221.283 48.9624 221.283 53.3721Z" fill="#FFCF55"/>
<path d="M224.991 62.9919C224.991 67.4016 221.429 70.9764 217.035 70.9764C212.641 70.9764 209.079 67.4016 209.079 62.9919C209.079 58.5822 212.641 55.0074 217.035 55.0074C221.429 55.0074 224.991 58.5822 224.991 62.9919Z" fill="#FFCF55"/>
<path d="M215.206 69.341C215.206 73.7507 211.644 77.3255 207.25 77.3255C202.856 77.3255 199.294 73.7507 199.294 69.341C199.294 64.9313 202.856 61.3566 207.25 61.3566C211.644 61.3566 215.206 64.9313 215.206 69.341Z" fill="#F6C442"/>
<path d="M211.342 80.3794C211.342 84.7891 207.78 88.3639 203.386 88.3639C198.992 88.3639 195.43 84.7891 195.43 80.3794C195.43 75.9697 198.992 72.395 203.386 72.395C207.78 72.395 211.342 75.9697 211.342 80.3794Z" fill="#F6C442"/>
<path d="M211.342 57.7973C211.342 62.207 207.78 65.7817 203.386 65.7817C198.992 65.7817 195.43 62.207 195.43 57.7973C195.43 53.3876 198.992 49.8128 203.386 49.8128C207.78 49.8128 211.342 53.3876 211.342 57.7973Z" fill="#F6C442"/>
<path d="M223.161 73.7663C223.161 78.176 219.599 81.7507 215.205 81.7507C210.811 81.7507 207.249 78.176 207.249 73.7663C207.249 69.3566 210.811 65.7818 215.205 65.7818C219.599 65.7818 223.161 69.3566 223.161 73.7663Z" fill="#FFCF55"/>
<path d="M219.106 60.6125C219.106 65.0222 215.543 68.5969 211.149 68.5969C206.755 68.5969 203.193 65.0222 203.193 60.6125C203.193 56.2028 206.755 52.628 211.149 52.628C215.543 52.628 219.106 56.2028 219.106 60.6125Z" fill="#FFCF55"/>
<path d="M223.98 192.555C193.878 188.797 201.728 218.47 203.552 229.83L223.074 222.568C223.074 222.568 248.265 231.122 269.478 224.241C274.08 229.83 255.306 226.791 269.478 274.104L281.168 274.104L285.389 253.309C288.97 237.458 290.149 214.1 274.08 203.875C274.08 203.875 253.311 196.217 223.98 192.555Z" fill="#3F3F3F"/>
<path d="M213.263 198.419C183.161 194.661 190.273 222.584 197.032 228.433C203.79 234.281 211.018 234.412 209.377 234.281C209.377 234.281 237.547 236.986 258.76 230.106C258.76 230.106 244.589 232.656 258.761 279.969L270.451 279.969L274.671 259.173C278.253 243.322 279.431 219.964 263.362 209.739C263.362 209.739 242.593 202.081 213.263 198.419Z" fill="#3F3F3F"/>
<path d="M197.332 196.045C197.332 196.045 208.807 172.694 195.365 136.19C206.39 129.956 241.165 120.589 236.986 131.69C232.807 142.791 262.703 149.21 243.186 169.908C243.186 174.539 248.151 196.045 248.151 196.045H197.332Z" fill="#C2C9E0"/>
<path d="M215.16 102.543L219.463 102.68L218.537 105.22L215.16 102.543Z" fill="#3F3F3F"/>
<path d="M248.598 94.9868L245.143 97.1634L247.11 98.7977L248.598 94.9868Z" fill="#3F3F3F"/>
<path d="M215.057 106.135L218.91 104.211L219.296 106.887L215.057 106.135Z" fill="#3F3F3F"/>
<path d="M250.442 97.5312L246.385 97.9566L247.432 100.295L250.442 97.5312Z" fill="#3F3F3F"/>
<path d="M237.544 122.269C237.544 124.364 230.795 129.528 225.796 127.721C219.8 125.554 220.108 121.332 220.108 120.779C220.108 118.684 227.287 121.862 229.375 121.862C234.648 122.269 237.544 120.174 237.544 122.269Z" fill="#FFFEFE"/>
<path d="M233.609 124.708C229.683 125.67 223.163 123.45 220.223 122.083C220.446 124.134 222.686 127.931 227.894 128.112C233.103 128.293 236.32 125.28 236.799 123.857L233.609 124.708Z" fill="#FAF8F8"/>
<path d="M233.82 100.295C235.997 100.294 242.273 113.023 240.4 115.338C238.526 117.652 233.82 117.652 233.82 117.652C233.82 117.652 231.643 100.296 233.82 100.295Z" fill="#F3C1B1"/>
<path d="M202.019 107.731C202.307 111.546 199.458 114.861 195.656 115.134C191.854 115.408 188.539 112.536 188.251 108.72C187.964 104.905 190.813 101.59 194.614 101.317C198.416 101.043 201.732 103.915 202.019 107.731Z" fill="#F9DDD4"/>
<path d="M201.506 107.768C202.226 110.388 201.958 117.264 199.349 117.975C196.74 118.686 190.887 114.058 190.167 111.438C189.447 108.819 194.133 109.199 196.741 108.488C199.35 107.776 200.786 105.148 201.506 107.768Z" fill="#F9DDD4"/>
<path d="M203.544 110.098C199.693 102.854 211.07 84.5579 204.867 82.2436L195.109 81.913C184.358 87.6987 187.688 106.614 190.665 103.308C193.047 100.663 196.411 104.766 198.286 105.041L201.52 113.264L203.544 110.098Z" fill="#F7C442"/>
<path d="M222.893 98.476C221.231 98.5812 218.666 98.8681 218.514 98.8781C214.204 99.1622 213.849 100.859 211.304 104.968C213.184 95.0386 218.072 96.2394 223.796 95.4775C225.276 96.0434 224.477 98.3756 222.893 98.476Z" fill="#9E8568"/>
<path d="M241.621 94.8129C242.574 94.5018 244.577 93.4743 245.541 93.4182C247.674 93.294 248.045 93.0803 250.377 94.8129C247.474 89.9201 246.694 91.6678 240.428 92.6491C239.725 93.2952 240.713 95.1094 241.621 94.8129Z" fill="#9E8568"/>
<path d="M249.998 90.6939C241 76.1589 217.107 81.0801 206.285 85.3576L194.398 82.8165C204.496 68.8405 220.984 70.3652 224.435 69.4758C227.195 68.7643 230.612 71.0428 231.976 72.271C232.896 71.0513 236.108 72.7792 237.599 73.7956C239.338 72.9825 242.073 74.9815 243.223 76.0826C245.166 76.1843 245.992 78.6661 246.163 79.8942C248.106 79.5893 249.529 82.7318 249.998 84.3412C252.247 86.2724 250.935 89.381 249.998 90.6939Z" fill="#FFCF55"/>
<path d="M212.983 118.865C212.698 119.417 212.02 119.632 211.469 119.346C210.919 119.059 211.702 118.898 211.988 118.346C212.274 117.794 211.954 117.058 212.504 117.345C213.055 117.632 213.269 118.312 212.983 118.865Z" fill="#F3C1B1"/>
<path d="M224.662 104.211C224.662 106.759 223.325 105.86 221.285 106.875C219.246 107.89 217.908 106.082 217.908 104.211C217.908 102.339 219.42 100.822 221.285 100.822C223.15 100.822 224.662 102.339 224.662 104.211Z" fill="#3F3F3F"/>
<path d="M247.88 98.9961C248.07 101.772 246.856 100.524 244.893 101.468C242.774 102.486 241.906 100.652 241.906 98.9961C241.906 97.3406 243.243 95.9986 244.893 95.9986C246.543 95.9986 247.88 97.3406 247.88 98.9961Z" fill="#3F3F3F"/>
<path d="M381.678 383.455L391.693 348.551L369.538 333.376L375.304 383.455H381.678Z" fill="#44392B"/>
<path d="M427.729 376.049C435.015 381.634 442.799 377.469 444.857 377.299C449.267 376.934 452.087 385.798 447.139 387.241C434.469 390.936 415.989 395.82 403.111 348.899L414.94 346.012C414.94 346.012 420.443 370.464 427.729 376.049Z" fill="#31291F"/>
<path d="M406.502 337.706C403.261 338.585 401.875 343.873 403.406 349.517C413.093 357.669 408.806 359.023 412.046 358.144C415.287 357.264 413.419 352.701 414.94 346.012C413.409 340.368 409.742 336.827 406.502 337.706Z" fill="#31291F"/>
<circle r="6.12354" transform="matrix(-1 0 0 1 376.343 386.549)" fill="#31291F"/>
<path d="M411.844 343.486C402.984 307.442 363.685 295.914 345.143 294.655C312.924 294.655 322.238 333.418 348.415 328.132C369.357 323.903 388.016 353.554 394.728 368.908L411.844 343.486Z" fill="#554839"/>
<path d="M373.13 346.652C373.13 353.149 378.396 358.415 384.893 358.415C391.39 358.415 396.656 353.149 396.656 346.652C396.656 340.156 372.882 332.143 366.386 332.143C366.386 332.143 373.13 340.156 373.13 346.652Z" fill="#31291F"/>
<path d="M312.915 260.198C317.956 260.633 324.533 267.445 327.191 270.797C324.03 277.438 317.195 290.099 315.152 287.608C312.598 284.495 306.614 259.654 312.915 260.198Z" fill="#554839"/>
<path d="M314.72 264.485C318.127 264.779 322.573 269.383 324.37 271.649C322.233 276.138 317.613 284.695 316.232 283.011C314.506 280.907 310.461 264.117 314.72 264.485Z" fill="#D2C0AC"/>
<path d="M355.953 260.204C350.912 260.634 344.329 267.441 341.667 270.79C344.823 277.434 351.646 290.1 353.692 287.611C356.248 284.5 362.255 259.665 355.953 260.204Z" fill="#554839"/>
<path d="M353.975 264.274C350.581 264.696 346.312 269.464 344.602 271.796C346.906 276.201 351.844 284.578 353.161 282.844C354.807 280.676 358.217 263.746 353.975 264.274Z" fill="#D2C0AC"/>
<path d="M313.608 289.44C313.608 300.98 324.744 302.845 335.121 302.302C344.487 302.302 355.396 300.98 355.396 289.44C355.396 277.901 346.042 268.546 334.502 268.546C322.963 268.546 313.608 277.901 313.608 289.44Z" fill="#7E6A51"/>
<circle r="2.18119" transform="matrix(-1 0 0 1 339.852 284.084)" fill="#44392B"/>
<circle r="2.18119" transform="matrix(-1 0 0 1 328.992 284.084)" fill="#44392B"/>
<circle r="3.46549" transform="matrix(-1 0 0 1 334.502 299.042)" fill="#D2C0AC"/>
<circle r="5.82787" transform="matrix(-1 0 0 1 338.654 293.214)" fill="#D2C0AC"/>
<circle r="5.82787" transform="matrix(-1 0 0 1 330.351 293.214)" fill="#D2C0AC"/>
<path d="M331.496 288.684C332.556 290.441 333.332 289.551 334.26 291.448C335.343 289.551 335.86 290.298 337.024 288.684C337.024 287.157 335.787 287.654 334.26 287.654C332.733 287.654 331.496 287.157 331.496 288.684Z" fill="#44392B"/>
<path d="M338.679 276.259C340.018 276.062 342.199 272.1 343.086 270.376C338.736 268.552 337.621 268.552 334.64 268.552C330.551 268.552 328.792 269.177 326.691 270.06C326.839 271.275 327.951 274.841 329.37 276.259C331.143 278.033 332.916 271.679 334.64 270.842C336.364 270.004 337.004 276.506 338.679 276.259Z" fill="#44392B"/>
<path d="M381.928 314.937C383.204 315.392 388.696 312.64 390.288 311.533C386.645 308.645 384.561 307.286 381.928 305.888C378.317 303.97 376.205 303.032 374.204 302.212C373.764 303.354 373.12 308.653 373.707 310.571C374.441 312.969 378.987 308.189 380.903 308.258C382.818 308.327 380.334 314.369 381.928 314.937Z" fill="#31291F"/>
<path d="M394.417 325.768C395.548 326.512 401.556 325.49 403.364 324.792C400.509 321.123 398.595 319.154 396.559 316.976C394.809 315.104 392.125 312.821 390.374 311.55C389.677 312.556 387.346 317.577 387.463 319.579C387.608 322.083 393.157 318.515 395.002 319.036C396.846 319.557 393.002 324.839 394.417 325.768Z" fill="#31291F"/>
<circle cx="325.587" cy="322.01" r="6.12354" fill="#31291F"/>
<circle cx="335.91" cy="325.658" r="6.12354" fill="#31291F"/>
<path d="M399.453 392.673L389.438 357.77L411.593 342.595L405.827 392.673H399.453Z" fill="#44392B"/>
<circle cx="400.515" cy="395.768" r="6.12354" fill="#31291F"/>
<path d="M192.968 65.1818C192.968 69.5727 189.41 73.1322 185.022 73.1322C180.633 73.1322 177.075 69.5727 177.075 65.1818C177.075 60.7909 180.633 57.2314 185.022 57.2314C189.41 57.2314 192.968 60.7909 192.968 65.1818Z" fill="#F6C442"/>
<path d="M199.478 56.1778C199.478 60.5687 195.92 64.1282 191.531 64.1282C187.143 64.1282 183.585 60.5687 183.585 56.1778C183.585 51.7869 187.143 48.2274 191.531 48.2274C195.92 48.2274 199.478 51.7869 199.478 56.1778Z" fill="#F6C442"/>
<path d="M192.968 76.1015C192.968 80.4924 189.41 84.0519 185.022 84.0519C180.633 84.0519 177.075 80.4924 177.075 76.1015C177.075 71.7106 180.633 68.1511 185.022 68.1511C189.41 68.1511 192.968 71.7106 192.968 76.1015Z" fill="#F6C442"/>
<path d="M202.733 70.3543C202.733 74.7452 199.176 78.3047 194.787 78.3047C190.399 78.3047 186.841 74.7452 186.841 70.3543C186.841 65.9634 190.399 62.4039 194.787 62.4039C199.176 62.4039 202.733 65.9634 202.733 70.3543Z" fill="#F6C442"/>
<path d="M200.653 79.9331C200.653 84.3239 197.096 87.8835 192.707 87.8835C188.318 87.8835 184.761 84.3239 184.761 79.9331C184.761 75.5422 188.318 71.9827 192.707 71.9827C197.096 71.9827 200.653 75.5422 200.653 79.9331Z" fill="#F6C442"/>
<path d="M209.892 52.1547C209.892 56.5456 206.334 60.1051 201.945 60.1051C197.557 60.1051 193.999 56.5456 193.999 52.1547C193.999 47.7638 197.557 44.2043 201.945 44.2043C206.334 44.2043 209.892 47.7638 209.892 52.1547Z" fill="#FFCF55"/>
<path d="M219.82 54.4536C219.82 58.8445 216.263 62.404 211.874 62.404C207.485 62.404 203.928 58.8445 203.928 54.4536C203.928 50.0627 207.485 46.5032 211.874 46.5032C216.263 46.5032 219.82 50.0627 219.82 54.4536Z" fill="#FFCF55"/>
<path d="M223.523 64.0324C223.523 68.4232 219.966 71.9828 215.577 71.9828C211.189 71.9828 207.631 68.4232 207.631 64.0324C207.631 59.6415 211.189 56.082 215.577 56.082C219.966 56.082 223.523 59.6415 223.523 64.0324Z" fill="#FFCF55"/>
<path d="M213.75 70.3543C213.75 74.7452 210.192 78.3047 205.804 78.3047C201.415 78.3047 197.857 74.7452 197.857 70.3543C197.857 65.9634 201.415 62.4039 205.804 62.4039C210.192 62.4039 213.75 65.9634 213.75 70.3543Z" fill="#F6C442"/>
<path d="M209.892 81.3455C209.892 85.7364 206.334 89.2959 201.945 89.2959C197.557 89.2959 193.999 85.7364 193.999 81.3455C193.999 76.9547 197.557 73.3951 201.945 73.3951C206.334 73.3951 209.892 76.9547 209.892 81.3455Z" fill="#F6C442"/>
<path d="M209.892 58.8598C209.892 63.2507 206.334 66.8102 201.945 66.8102C197.557 66.8102 193.999 63.2507 193.999 58.8598C193.999 54.4689 197.557 50.9094 201.945 50.9094C206.334 50.9094 209.892 54.4689 209.892 58.8598Z" fill="#F6C442"/>
<path d="M221.695 74.7606C221.695 79.1515 218.138 82.711 213.749 82.711C209.36 82.711 205.803 79.1515 205.803 74.7606C205.803 70.3698 209.36 66.8102 213.749 66.8102C218.138 66.8102 221.695 70.3698 221.695 74.7606Z" fill="#FFCF55"/>
<path d="M217.645 61.6629C217.645 66.0537 214.087 69.6133 209.698 69.6133C205.31 69.6133 201.752 66.0537 201.752 61.6629C201.752 57.272 205.31 53.7125 209.698 53.7125C214.087 53.7125 217.645 57.272 217.645 61.6629Z" fill="#FFCF55"/>
<path d="M286.498 189.967L270.923 191.543L268.941 173.489L284.516 171.913L286.498 189.967Z" fill="#F9DDD4"/>
<path d="M227.699 180.896C224.137 162.465 220.225 146.306 226.087 138.954C233.862 133.91 235.816 137.434 238.634 148.204C242.187 161.784 249.613 172.506 253.12 174.044L271.867 172.15C274.075 179.525 270.959 190.638 269.125 195.273C256.8 198.16 231.261 199.327 227.699 180.896Z" fill="#8895BE"/>
<path d="M195.896 196.518C195.896 196.518 207.535 183.776 193.932 136.918C204.944 130.71 239.675 121.383 235.502 132.437C231.328 143.491 261.187 149.883 241.694 170.492C241.694 175.103 246.654 196.518 246.654 196.518H195.896Z" fill="#C2C9E0"/>
<path d="M195.81 107.3C195.81 123.354 208.649 136.367 224.488 136.367C240.326 136.367 253.166 123.354 253.166 107.3C253.166 91.2474 240.326 78.2338 224.488 78.2338C208.649 78.2338 195.81 91.2474 195.81 107.3Z" fill="#F9DDD4"/>
<path d="M231.82 101.295C233.997 101.294 240.273 114.023 238.4 116.338C236.526 118.652 231.82 118.652 231.82 118.652C231.82 118.652 229.643 101.296 231.82 101.295Z" fill="#F3C1B1"/>
<path d="M205.029 215.041L195.401 203.54L209.217 191.758L218.845 203.259L205.029 215.041Z" fill="#F9DDD4"/>
<path d="M173.209 165.751C182.942 149.701 190.889 135.1 200.168 133.592C209.315 135.079 208.396 139.003 203.255 148.876C196.773 161.325 195.078 174.26 196.644 177.755L211.806 188.949C208.491 195.897 198.723 202.037 194.253 204.239C183.183 198.097 163.477 181.801 173.209 165.751Z" fill="#8895BE"/>
<path d="M213.703 103.414L218 103.551L217.075 106.08L213.703 103.414Z" fill="#3F3F3F"/>
<path d="M247.1 95.8906L243.649 98.058L245.614 99.6853L247.1 95.8906Z" fill="#3F3F3F"/>
<path d="M213.6 106.991L217.449 105.075L217.834 107.74L213.6 106.991Z" fill="#3F3F3F"/>
<path d="M248.942 98.4241L244.891 98.8476L245.936 101.176L248.942 98.4241Z" fill="#3F3F3F"/>
<path d="M200.579 108.58C200.866 112.379 198.021 115.68 194.224 115.952C190.426 116.224 187.115 113.365 186.828 109.566C186.541 105.766 189.386 102.466 193.183 102.193C196.98 101.921 200.292 104.781 200.579 108.58Z" fill="#F9DDD4"/>
<path d="M200.065 108.617C200.784 111.226 200.516 118.072 197.911 118.78C195.305 119.488 189.459 114.881 188.74 112.272C188.02 109.663 192.7 110.042 195.306 109.334C197.912 108.626 199.345 106.009 200.065 108.617Z" fill="#F9DDD4"/>
<path d="M202.102 110.937C198.255 103.724 209.618 85.5062 203.424 83.2018L193.677 82.8726C182.939 88.6336 186.265 107.468 189.239 104.176C191.618 101.543 194.978 105.628 196.85 105.902L200.08 114.09L202.102 110.937Z" fill="#F6C442"/>
<path d="M221.425 99.3648C219.765 99.4696 217.203 99.7553 217.051 99.7653C212.747 100.048 212.392 101.738 209.85 105.83C211.728 95.9421 216.609 97.1378 222.327 96.3791C223.805 96.9427 223.007 99.2649 221.425 99.3648Z" fill="#9E8568"/>
<path d="M240.132 95.7175C241.084 95.4077 243.084 94.3846 244.047 94.3287C246.177 94.205 246.548 93.9923 248.877 95.7175C245.978 90.8455 245.199 92.5858 238.94 93.5629C238.238 94.2063 239.224 96.0127 240.132 95.7175Z" fill="#9E8568"/>
<path d="M248.497 91.616C239.51 77.143 215.646 82.0432 204.838 86.3024L192.966 83.7722C203.051 69.8558 219.518 71.374 222.965 70.4884C225.722 69.7799 229.135 72.0487 230.497 73.2717C231.416 72.0571 234.624 73.7777 236.114 74.7898C237.85 73.9801 240.582 75.9706 241.731 77.067C243.671 77.1682 244.496 79.6394 244.667 80.8624C246.607 80.5588 248.028 83.6878 248.497 85.2903C250.744 87.2133 249.433 90.3087 248.497 91.616Z" fill="#FFCF55"/>
<path d="M223.193 105.075C223.193 106.939 221.683 108.45 219.82 108.45C217.957 108.45 216.447 106.939 216.447 105.075C216.447 103.212 217.957 101.701 219.82 101.701C221.683 101.701 223.193 103.212 223.193 105.075Z" fill="#3F3F3F"/>
<path d="M246.381 99.8827C246.381 101.531 245.046 102.867 243.398 102.867C241.751 102.867 240.415 101.531 240.415 99.8827C240.415 98.2344 241.751 96.8981 243.398 96.8981C245.046 96.8981 246.381 98.2344 246.381 99.8827Z" fill="#3F3F3F"/>
<path d="M235.424 123.195C235.424 123.936 232.417 125.877 228.732 125.877C225.046 125.877 222.202 123.936 222.202 123.195C222.202 122.455 225.046 123.195 228.732 123.195C232.417 123.195 235.424 122.455 235.424 123.195Z" fill="#F3C1B1"/>
<path d="M103.193 276.07C103.193 295.215 88.3286 294.626 69.1829 294.626C50.0373 294.626 33.8604 295.215 33.8604 276.07C33.8604 256.924 49.381 241.404 68.5266 241.404C87.6723 241.404 103.193 256.924 103.193 276.07Z" fill="#FFC070"/>
<path d="M121.375 256.896C119.207 255.673 107.445 255.219 99.4965 253.408C97.8315 253.519 102.44 266.38 110.919 265.747C114.117 265.418 123.544 258.119 121.375 256.896Z" fill="#FFB558"/>
<path d="M117.556 271.558C120.128 284.201 116.048 292.116 96.8521 290.444C80.8038 299.021 74.3428 293.516 71.7706 280.872C69.1984 268.229 77.3627 255.895 90.0059 253.322C102.649 250.75 114.984 258.914 117.556 271.558Z" fill="#FFC67D"/>
<path d="M91.5644 271.246C91.7184 272.584 90.7584 273.794 89.4204 273.948C88.0823 274.102 86.8728 273.142 86.7189 271.804C86.5649 270.466 87.116 272.884 89.3668 272.625C91.2528 272.408 91.4105 269.908 91.5644 271.246Z" fill="#3F3F3F"/>
<path d="M100.256 270.6C100.256 271.78 101.211 272.737 102.391 272.738C103.57 272.738 104.527 271.783 104.528 270.603C104.529 269.424 104.29 271.583 102.306 271.581C100.643 271.58 100.257 269.421 100.256 270.6Z" fill="#3F3F3F"/>
<circle cx="97.2296" cy="289.161" r="3.87472" transform="rotate(-11.4995 97.2296 289.161)" fill="#FFEACF"/>
<circle cx="91.6432" cy="283.696" r="8.16887" transform="rotate(-11.4995 91.6432 283.696)" fill="#FFEACF"/>
<circle cx="102.39" cy="282.369" r="7.3278" transform="rotate(-11.4995 102.39 282.369)" fill="#FFEACF"/>
<path d="M100.968 275.896C100.534 277.389 98.5153 277.339 97.4595 280.105C95.7079 277.593 95.0806 278.702 93.2505 276.597C93.0572 274.465 94.8478 275.003 96.979 274.809C99.1102 274.616 100.526 274.189 100.968 275.896Z" fill="#DE7177"/>
<path d="M89.6962 261.794C88.1874 261.668 85.0615 257.327 83.9516 255.465C88.6778 253.126 90.3371 253.119 93.6641 252.911C98.2272 252.625 100.233 253.199 102.64 254.037C102.56 255.403 101.568 259.46 100.084 261.143C98.2297 263.245 95.8065 256.279 93.8243 255.465C91.842 254.652 91.5823 261.951 89.6962 261.794Z" fill="#FFB558"/>
<path d="M52.1331 254.503C50.6652 254.874 46.617 251.91 44.9622 250.511C49.008 246.842 49.9199 246.091 52.9984 244.812C57.2208 243.059 59.8808 242.363 62.4094 242.001C62.7779 243.319 62.6019 248.438 61.7455 250.511C60.675 253.102 56.1193 247.302 53.9802 247.176C51.8411 247.051 53.968 254.039 52.1331 254.503Z" fill="#FFB558"/>
<path d="M67.4878 249.181C66.0991 248.578 64.7054 243.758 64.251 241.639C69.6954 241.207 71.3546 241.412 74.6285 241.902C79.15 242.58 82.0624 243.785 84.2847 245.044C83.771 246.312 79.4809 250.777 77.5362 251.895C75.1053 253.292 75.0437 245.917 73.427 244.51C71.8103 243.104 69.2237 249.935 67.4878 249.181Z" fill="#FFB558"/>
<path d="M60.4365 261.786C62.5621 260.282 74.7497 258.555 82.8247 255.822C84.5687 255.759 81.1478 269.631 72.2592 269.877C68.8973 269.877 58.3109 263.29 60.4365 261.786Z" fill="#FFB558"/>
<path d="M34.3558 278.786C33.6253 273.885 34.9221 272.515 32.8747 272.739C30.5974 272.739 25.5898 273.979 25.6501 279.406C25.7256 286.19 23.7795 296.365 53.2046 296.516L52.6735 283.781C52.6735 283.781 35.0863 283.688 34.3558 278.786Z" fill="#FFCD8D"/>
<path d="M59.42 290.1C59.42 293.637 56.5531 296.503 53.0167 296.503C49.4802 296.503 46.6133 293.637 46.6133 290.1C46.6133 286.564 49.4802 283.697 53.0167 283.697C56.5531 283.697 59.42 286.564 59.42 290.1Z" fill="#FFCD8D"/>
</svg>
