<svg width="464" height="464" viewBox="0 0 464 464" fill="none" xmlns="http://www.w3.org/2000/svg">
<path d="M317.436 270.814C322.068 272.849 326.101 281.417 327.538 285.446C322.406 290.715 311.859 300.5 310.726 297.484C309.311 293.714 311.646 268.269 317.436 270.814Z" fill="#554839"/>
<path d="M317.765 275.454C320.896 276.83 323.621 282.62 324.593 285.343C321.124 288.905 313.995 295.518 313.23 293.48C312.273 290.932 313.851 273.734 317.765 275.454Z" fill="#D2C0AC"/>
<path d="M358.178 284.68C353.267 283.464 344.843 287.787 341.244 290.101C342.092 297.408 344.472 311.597 347.21 309.899C350.633 307.777 364.318 286.2 358.178 284.68Z" fill="#554839"/>
<path d="M354.995 287.896C351.647 287.203 346.07 290.342 343.7 291.999C344.462 296.911 346.439 306.432 348.244 305.215C350.501 303.692 359.182 288.763 354.995 287.896Z" fill="#D2C0AC"/>
<path d="M308.675 298.721C304.958 309.646 314.9 314.998 324.899 317.826C333.766 320.842 344.52 323.104 348.237 312.18C351.953 301.255 346.11 289.386 335.185 285.669C324.26 281.953 312.391 287.796 308.675 298.721Z" fill="#7E6A51"/>
<circle r="2.18119" transform="matrix(-0.946719 -0.322062 -0.322062 0.946719 335.245 302.102)" fill="#44392B"/>
<circle r="2.18119" transform="matrix(-0.946719 -0.322062 -0.322062 0.946719 324.964 298.604)" fill="#44392B"/>
<circle r="3.46549" transform="matrix(-0.946719 -0.322062 -0.322062 0.946719 325.364 314.541)" fill="#D2C0AC"/>
<circle r="5.82787" transform="matrix(-0.946719 -0.322062 -0.322062 0.946719 331.17 310.36)" fill="#D2C0AC"/>
<circle r="5.82787" transform="matrix(-0.946719 -0.322062 -0.322062 0.946719 323.31 307.686)" fill="#D2C0AC"/>
<path d="M325.853 303.766C326.29 305.771 327.312 305.178 327.58 307.273C329.216 305.826 329.465 306.699 331.087 305.547C331.579 304.101 330.247 304.173 328.801 303.682C327.356 303.19 326.345 302.321 325.853 303.766Z" fill="#44392B"/>
<path d="M336.654 294.317C337.986 294.562 341.327 291.513 342.721 290.166C339.191 287.039 338.135 286.68 335.312 285.72C331.441 284.403 329.575 284.428 327.302 284.587C327.05 285.785 326.955 289.519 327.841 291.319C328.948 293.569 332.673 288.124 334.575 287.887C336.477 287.649 334.989 294.011 336.654 294.317Z" fill="#44392B"/>
<path d="M101.883 389.972L208.9 419.243V244.758L101.883 215.487V389.972Z" fill="#DADFEF"/>
<path d="M315.916 389.972L208.899 419.243V244.758L315.916 215.487V389.972Z" fill="#C2C9E0"/>
<path d="M208.751 191.9L315.916 215.487L208.751 244.82L101.585 215.487L208.751 191.9Z" fill="#E8EDFF"/>
<path d="M263.989 404.278L314.491 418.091V335.752L263.989 321.939V404.278Z" fill="#DADFEF"/>
<path d="M364.992 404.278L314.491 418.091V335.752L364.992 321.939V404.278Z" fill="#C2C9E0"/>
<path d="M314.42 310.808L364.992 321.939L314.42 335.781L263.849 321.939L314.42 310.808Z" fill="#E8EDFF"/>
<path d="M0.196289 401.696L70.4835 420.921V306.322L0.196289 287.098V401.696Z" fill="#DADFEF"/>
<path d="M140.77 401.696L70.4823 420.921V306.322L140.77 287.098V401.696Z" fill="#C2C9E0"/>
<path d="M70.3848 271.606L140.77 287.097L70.3848 306.363L0 287.097L70.3848 271.606Z" fill="#E8EDFF"/>
<path d="M259.545 301.052C261.915 295.307 263.523 296.796 264.521 291.311C265.52 285.826 267.92 278.146 276.31 291.311C286.797 307.767 300.495 306.426 303.277 306.426C305.503 306.426 304.205 311.102 303.277 313.44L295.786 318.565C294.255 320.039 286.626 316.893 281.661 313.44C276.696 309.987 271.031 310.113 267.964 311.551C262.822 313.963 257.841 305.18 259.545 301.052Z" fill="white"/>
<ellipse cx="56.4506" cy="272.881" rx="8.53726" ry="17.1273" transform="rotate(-20.7529 56.4506 272.881)" fill="#FFB558"/>
<rect x="68.9668" y="272.881" width="8.1748" height="16.566" fill="#DF9A44"/>
<ellipse rx="8.53726" ry="17.1273" transform="matrix(-0.935117 -0.354338 -0.354338 0.935117 89.9224 272.881)" fill="#FFB558"/>
<path d="M63.1354 289.983C65.7074 285.251 60.8114 271.859 57.8964 265.815L72.3942 265.936V293.97C68.2362 294.613 60.5634 294.716 63.1354 289.983Z" fill="#FFC070"/>
<path d="M83.6127 289.983C81.0407 285.251 85.9367 271.859 88.8516 265.815L74.3539 265.936V293.97C78.5118 294.613 86.1847 294.716 83.6127 289.983Z" fill="#FFC070"/>
<circle cx="73.4863" cy="255.016" r="18.8067" fill="#FFC070"/>
<ellipse cx="73.1862" cy="253.661" rx="12.2878" ry="17.4521" fill="#FFDCAF"/>
<ellipse rx="6.96507" ry="6.90876" transform="matrix(-0.966092 0.258198 0.258198 0.966092 57.8958 285.816)" fill="#FFC070"/>
<ellipse rx="6.96507" ry="6.90876" transform="matrix(-0.966092 0.258198 0.258198 0.966092 88.8518 285.816)" fill="#FFC070"/>
<path d="M99.6002 194.574C94.2652 194.491 86.6366 200.934 83.4892 204.166C86.0954 211.472 91.9104 225.484 94.3204 223.09C97.333 220.097 106.269 194.678 99.6002 194.574Z" fill="#FFB558"/>
<path d="M97.2466 198.878C93.6407 198.822 88.4846 203.177 86.3572 205.361C88.1188 210.299 92.0491 219.77 93.678 218.152C95.7142 216.129 101.754 198.948 97.2466 198.878Z" fill="#FFDCAF"/>
<path d="M46.4452 196.235C51.7437 195.606 59.9916 201.234 63.4532 204.127C61.6083 211.661 57.258 226.195 54.6156 224.06C51.3126 221.391 39.8221 197.02 46.4452 196.235Z" fill="#FFB558"/>
<path d="M49.354 200.017C52.9489 199.731 58.3729 203.747 60.6356 205.791C59.1934 210.831 55.8768 220.534 54.1477 219.023C51.9864 217.135 44.8603 200.375 49.354 200.017Z" fill="#FFDCAF"/>
<path d="M95.52 223.703C95.52 235.872 90.2606 242.42 72.8341 237.265C56.3894 242.174 51.4531 235.872 51.4531 223.703C51.4531 211.534 61.3178 201.669 73.4866 201.669C85.6553 201.669 95.52 211.534 95.52 223.703Z" fill="#FFC67D"/>
<circle cx="67.845" cy="218.054" r="2.30012" fill="#3F3F3F"/>
<circle cx="79.2962" cy="218.054" r="2.30012" fill="#3F3F3F"/>
<circle cx="73.4865" cy="236.209" r="3.65444" fill="#FFEACF"/>
<circle cx="67.9525" cy="229.778" r="7.70447" fill="#FFEACF"/>
<circle cx="78.9281" cy="229.778" r="7.70447" fill="#FFEACF"/>
<path d="M77.4153 223.789C76.0139 226.112 74.9884 224.935 73.7609 227.443C72.3297 224.935 71.646 225.922 70.1064 223.789C70.1064 221.771 71.7426 222.428 73.7609 222.428C75.7792 222.428 77.4153 221.771 77.4153 223.789Z" fill="#DE7177"/>
<path d="M69.0831 209.803C67.6703 209.596 65.3705 205.417 64.4355 203.599C69.0223 201.676 70.1982 201.676 73.3422 201.676C77.6543 201.676 79.5087 202.335 81.7244 203.266C81.5686 204.547 80.3957 208.308 78.8998 209.803C77.03 211.673 75.1601 204.973 73.3422 204.09C71.5243 203.207 70.8491 210.063 69.0831 209.803Z" fill="#FFB558"/>
<path d="M50.5242 280.173C48.8544 275.848 48.2796 274.316 47.9785 274.316C45.6982 274.316 42.6434 275.165 42.7039 280.599C42.7794 287.392 40.8307 297.58 70.2949 297.732L69.763 284.98C69.763 284.98 52.194 284.498 50.5242 280.173Z" fill="#FFCD8D"/>
<path d="M76.5185 291.307C76.5185 294.848 73.6478 297.719 70.1067 297.719C66.5655 297.719 63.6949 294.848 63.6949 291.307C63.6949 287.766 66.5655 284.895 70.1067 284.895C73.6478 284.895 76.5185 287.766 76.5185 291.307Z" fill="#FFCD8D"/>
<path d="M223.98 185.555C193.878 181.796 201.727 211.47 203.552 222.83L220.52 226.657C220.52 226.657 249.615 226.657 260.705 225.156C260.705 225.156 246.262 232.888 264.533 283.254L276.223 283.254L278.547 253.551C278.547 253.551 284.488 216.1 274.116 208.908C274.116 208.908 253.31 189.217 223.98 185.555Z" fill="#3F3F3F"/>
<path d="M211.295 298.465C199.796 256.404 201.79 243.962 202.275 234.749C205.282 231.743 217.708 224.255 222.642 234.749C234.705 260.411 225.43 277.471 225.43 298.465C219.379 303.353 213.525 300.502 211.295 298.465Z" fill="#3F3F3F"/>
<path d="M235.329 208.004C235.329 220.06 223.714 239.489 211.658 239.489C199.602 239.489 191.672 220.06 191.672 208.004C191.672 195.949 201.445 186.176 213.501 186.176C225.556 186.176 235.329 176.246 235.329 208.004Z" fill="#3F3F3F"/>
<path d="M194.398 57.1463C194.398 61.556 190.835 65.1308 186.441 65.1308C182.047 65.1308 178.485 61.556 178.485 57.1463C178.485 52.7366 182.047 49.1619 186.441 49.1619C190.835 49.1619 194.398 52.7366 194.398 57.1463Z" fill="#F6C442"/>
<path d="M200.915 48.1037C200.915 52.5134 197.353 56.0882 192.959 56.0882C188.565 56.0882 185.003 52.5134 185.003 48.1037C185.003 43.694 188.565 40.1193 192.959 40.1193C197.353 40.1193 200.915 43.694 200.915 48.1037Z" fill="#F6C442"/>
<path d="M194.398 68.113C194.398 72.5227 190.835 76.0974 186.441 76.0974C182.047 76.0974 178.485 72.5227 178.485 68.113C178.485 63.7032 182.047 60.1285 186.441 60.1285C190.835 60.1285 194.398 63.7032 194.398 68.113Z" fill="#F6C442"/>
<path d="M204.175 62.341C204.175 66.7507 200.613 70.3255 196.219 70.3255C191.825 70.3255 188.263 66.7507 188.263 62.341C188.263 57.9313 191.825 54.3566 196.219 54.3566C200.613 54.3566 204.175 57.9313 204.175 62.341Z" fill="#F6C442"/>
<path d="M202.094 71.9609C202.094 76.3706 198.532 79.9453 194.138 79.9453C189.744 79.9453 186.182 76.3706 186.182 71.9609C186.182 67.5511 189.744 63.9764 194.138 63.9764C198.532 63.9764 202.094 67.5511 202.094 71.9609Z" fill="#F6C442"/>
<path d="M211.342 44.0634C211.342 48.4731 207.78 52.0479 203.386 52.0479C198.992 52.0479 195.43 48.4731 195.43 44.0634C195.43 39.6537 198.992 36.0789 203.386 36.0789C207.78 36.0789 211.342 39.6537 211.342 44.0634Z" fill="#FFCF55"/>
<path d="M221.283 46.3721C221.283 50.7818 217.721 54.3566 213.327 54.3566C208.933 54.3566 205.371 50.7818 205.371 46.3721C205.371 41.9624 208.933 38.3876 213.327 38.3876C217.721 38.3876 221.283 41.9624 221.283 46.3721Z" fill="#FFCF55"/>
<path d="M224.991 55.9919C224.991 60.4016 221.429 63.9764 217.035 63.9764C212.641 63.9764 209.079 60.4016 209.079 55.9919C209.079 51.5822 212.641 48.0074 217.035 48.0074C221.429 48.0074 224.991 51.5822 224.991 55.9919Z" fill="#FFCF55"/>
<path d="M215.206 62.341C215.206 66.7507 211.644 70.3255 207.25 70.3255C202.856 70.3255 199.294 66.7507 199.294 62.341C199.294 57.9313 202.856 54.3566 207.25 54.3566C211.644 54.3566 215.206 57.9313 215.206 62.341Z" fill="#F6C442"/>
<path d="M211.342 73.3794C211.342 77.7891 207.78 81.3639 203.386 81.3639C198.992 81.3639 195.43 77.7891 195.43 73.3794C195.43 68.9697 198.992 65.395 203.386 65.395C207.78 65.395 211.342 68.9697 211.342 73.3794Z" fill="#F6C442"/>
<path d="M211.342 50.7973C211.342 55.207 207.78 58.7817 203.386 58.7817C198.992 58.7817 195.43 55.207 195.43 50.7973C195.43 46.3876 198.992 42.8128 203.386 42.8128C207.78 42.8128 211.342 46.3876 211.342 50.7973Z" fill="#F6C442"/>
<path d="M223.161 66.7663C223.161 71.176 219.599 74.7507 215.205 74.7507C210.811 74.7507 207.249 71.176 207.249 66.7663C207.249 62.3566 210.811 58.7818 215.205 58.7818C219.599 58.7818 223.161 62.3566 223.161 66.7663Z" fill="#FFCF55"/>
<path d="M219.106 53.6125C219.106 58.0222 215.543 61.5969 211.149 61.5969C206.755 61.5969 203.193 58.0222 203.193 53.6125C203.193 49.2028 206.755 45.628 211.149 45.628C215.543 45.628 219.106 49.2028 219.106 53.6125Z" fill="#FFCF55"/>
<path d="M289.015 102.361L282.643 116.002L266.12 108.403L272.492 94.7608L289.015 102.361Z" fill="#F9DDD4"/>
<path d="M255.462 150.802C236.931 147.702 220.41 145.728 215.561 137.633C213.545 128.544 217.533 127.939 228.617 129.056C242.594 130.465 255.244 127.226 257.91 124.463L266.33 106.581C274.017 107.085 279.702 113.474 283.409 116.824C281.814 129.442 273.992 153.902 255.462 150.802Z" fill="#8895BE"/>
<path d="M195.367 194.69C195.367 194.69 208.807 165.694 195.365 129.19C206.39 122.956 241.165 113.589 236.986 124.69C232.807 135.791 262.703 142.21 243.186 162.908C243.186 167.539 247.274 188.54 247.274 188.54L195.367 194.69Z" fill="#C2C9E0"/>
<path d="M197.245 99.4455C197.245 115.567 210.1 128.637 225.958 128.637C241.816 128.637 254.672 115.567 254.672 99.4455C254.672 83.3236 241.816 70.2543 225.958 70.2543C210.1 70.2543 197.245 83.3236 197.245 99.4455Z" fill="#F9DDD4"/>
<path d="M197.188 207.605L189.24 194.83L204.575 185.04L212.524 197.815L197.188 207.605Z" fill="#F9DDD4"/>
<path d="M172.487 154.168C184.366 139.567 194.274 126.157 203.683 125.95C212.546 128.703 211.09 132.477 204.622 141.577C196.466 153.051 192.989 165.675 194.056 169.368L207.535 182.609C203.284 189.055 192.746 193.799 188.008 195.365C177.885 187.716 160.608 168.769 172.487 154.168Z" fill="#8895BE"/>
<path d="M215.16 95.5426L219.463 95.6799L218.537 98.2198L215.16 95.5426Z" fill="#3F3F3F"/>
<path d="M248.598 87.9868L245.143 90.1634L247.11 91.7977L248.598 87.9868Z" fill="#3F3F3F"/>
<path d="M215.057 99.1348L218.91 97.2109L219.296 99.8875L215.057 99.1348Z" fill="#3F3F3F"/>
<path d="M250.442 90.5312L246.385 90.9566L247.432 93.2947L250.442 90.5312Z" fill="#3F3F3F"/>
<path d="M237.544 115.269C237.544 117.364 230.795 122.528 225.796 120.721C219.8 118.554 220.108 114.332 220.108 113.779C220.108 111.684 227.287 114.862 229.375 114.862C234.648 115.269 237.544 113.174 237.544 115.269Z" fill="#FFFEFE"/>
<path d="M233.609 117.708C229.683 118.67 223.163 116.45 220.223 115.083C220.446 117.134 222.686 120.931 227.894 121.112C233.103 121.293 236.32 118.28 236.799 116.857L233.609 117.708Z" fill="#FAF8F8"/>
<path d="M233.82 93.2947C235.997 93.2939 242.273 106.023 240.4 108.338C238.526 110.652 233.82 110.652 233.82 110.652C233.82 110.652 231.643 93.2956 233.82 93.2947Z" fill="#F3C1B1"/>
<path d="M202.019 100.731C202.307 104.546 199.458 107.861 195.656 108.134C191.854 108.408 188.539 105.536 188.251 101.72C187.964 97.9048 190.813 94.59 194.614 94.3167C198.416 94.0433 201.732 96.9149 202.019 100.731Z" fill="#F9DDD4"/>
<path d="M201.506 100.768C202.226 103.388 201.958 110.264 199.349 110.975C196.74 111.686 190.887 107.058 190.167 104.438C189.447 101.819 194.133 102.199 196.741 101.488C199.35 100.776 200.786 98.1485 201.506 100.768Z" fill="#F9DDD4"/>
<path d="M203.544 103.098C199.693 95.854 211.07 77.5579 204.867 75.2436L195.109 74.913C184.358 80.6987 187.688 99.614 190.665 96.3079C193.047 93.663 196.411 97.7658 198.286 98.0413L201.52 106.264L203.544 103.098Z" fill="#F7C442"/>
<path d="M222.892 88.5648C221.23 88.67 218.665 88.9569 218.513 88.967C214.203 89.251 213.848 90.9478 211.303 95.0573C213.183 85.1274 218.071 86.3282 223.795 85.5663C225.275 86.1322 224.476 88.4644 222.892 88.5648Z" fill="#9E8568"/>
<path d="M241.245 86.1897C242.198 85.8786 244.201 84.8511 245.165 84.7949C247.298 84.6707 247.669 84.4571 250.001 86.1897C247.098 81.2968 246.318 83.0446 240.052 84.0258C239.349 84.672 240.337 86.4862 241.245 86.1897Z" fill="#9E8568"/>
<path d="M249.998 83.6939C241 69.1589 217.107 74.0801 206.285 78.3576L194.398 75.8165C204.496 61.8405 220.984 63.3652 224.435 62.4758C227.195 61.7643 230.612 64.0428 231.976 65.271C232.896 64.0513 236.108 65.7792 237.599 66.7956C239.338 65.9825 242.073 67.9815 243.223 69.0826C245.166 69.1843 245.992 71.6661 246.163 72.8942C248.106 72.5893 249.529 75.7318 249.998 77.3412C252.247 79.2724 250.935 82.381 249.998 83.6939Z" fill="#FFCF55"/>
<path d="M212.983 111.865C212.698 112.417 212.02 112.632 211.469 112.346C210.919 112.059 211.702 111.898 211.988 111.346C212.274 110.794 211.954 110.058 212.504 110.345C213.055 110.632 213.269 111.312 212.983 111.865Z" fill="#F3C1B1"/>
<path d="M224.662 97.2107C224.662 99.7592 223.325 98.8602 221.285 99.8752C219.246 100.89 217.908 99.0825 217.908 97.2107C217.908 95.339 219.42 93.8217 221.285 93.8217C223.15 93.8217 224.662 95.339 224.662 97.2107Z" fill="#3F3F3F"/>
<path d="M247.88 91.9961C248.07 94.7722 246.856 93.5238 244.893 94.4677C242.774 95.4865 241.906 93.6515 241.906 91.9961C241.906 90.3406 243.243 88.9986 244.893 88.9986C246.543 88.9986 247.88 90.3406 247.88 91.9961Z" fill="#3F3F3F"/>
<path d="M209.838 324.356C211.426 318.859 211.416 309.647 211.212 305.728L225.871 303.437C227.194 304.557 228.228 310.042 228.228 310.042L229.841 323.287C229.841 323.287 233.773 340.269 228.228 342.088C221.865 344.174 211.823 343.116 208.769 338.108C204.952 331.847 207.853 331.227 209.838 324.356Z" fill="#F2F2F2"/>
</svg>
