<svg width="505" height="505" viewBox="0 0 505 505" fill="none" xmlns="http://www.w3.org/2000/svg">
<g clip-path="url(#clip0)">
<path d="M154.607 467.606L261.624 496.877V322.393L154.607 293.122V467.606Z" fill="#DADFEF"/>
<path d="M368.641 467.606L261.624 496.877V322.393L368.641 293.122V467.606Z" fill="#C2C9E0"/>
<path d="M261.475 269.535L368.641 293.122L261.475 322.455L154.31 293.122L261.475 269.535Z" fill="#E8EDFF"/>
<path d="M318.21 481.909L368.711 495.722V413.382L318.21 399.57V481.909Z" fill="#DADFEF"/>
<path d="M419.212 481.909L368.711 495.722V413.382L419.212 399.57V481.909Z" fill="#C2C9E0"/>
<path d="M368.64 388.439L419.212 399.57L368.64 413.412L318.069 399.57L368.64 388.439Z" fill="#E8EDFF"/>
<path d="M83.4155 484.327L153.703 503.552V388.953L83.4155 369.728V484.327Z" fill="#DADFEF"/>
<path d="M223.989 484.327L153.702 503.552V388.953L223.989 369.728V484.327Z" fill="#C2C9E0"/>
<path d="M153.605 354.236L223.989 369.728L153.605 388.993L83.2197 369.728L153.605 354.236Z" fill="#E8EDFF"/>
<ellipse cx="139.67" cy="355.512" rx="8.53726" ry="17.1273" transform="rotate(-20.7529 139.67 355.512)" fill="#FFB558"/>
<rect x="152.186" y="355.512" width="8.1748" height="16.566" fill="#DF9A44"/>
<ellipse rx="8.53726" ry="17.1273" transform="matrix(-0.935117 -0.354338 -0.354338 0.935117 173.142 355.512)" fill="#FFB558"/>
<path d="M146.355 372.614C148.927 367.882 144.031 354.489 141.116 348.445L155.613 348.566V376.6C151.455 377.243 143.783 377.346 146.355 372.614Z" fill="#FFC070"/>
<path d="M166.832 372.614C164.26 367.882 169.156 354.489 172.071 348.445L157.574 348.566V376.6C161.732 377.243 169.404 377.346 166.832 372.614Z" fill="#FFC070"/>
<circle cx="156.706" cy="337.646" r="18.8067" fill="#FFC070"/>
<ellipse cx="156.406" cy="336.292" rx="12.2878" ry="17.4521" fill="#FFDCAF"/>
<ellipse rx="6.96507" ry="6.90876" transform="matrix(-0.966092 0.258198 0.258198 0.966092 141.115 368.446)" fill="#FFC070"/>
<ellipse rx="6.96507" ry="6.90876" transform="matrix(-0.966092 0.258198 0.258198 0.966092 172.071 368.446)" fill="#FFC070"/>
<path d="M182.819 277.205C177.484 277.122 169.856 283.565 166.708 286.796C169.315 294.102 175.13 308.115 177.54 305.721C180.552 302.728 189.488 277.308 182.819 277.205Z" fill="#FFB558"/>
<path d="M180.466 281.509C176.86 281.453 171.704 285.808 169.577 287.992C171.339 292.93 175.269 302.401 176.898 300.783C178.934 298.76 184.974 281.579 180.466 281.509Z" fill="#FFDCAF"/>
<path d="M129.664 278.865C134.963 278.237 143.211 283.865 146.672 286.757C144.828 294.292 140.477 308.826 137.835 306.691C134.532 304.022 123.041 279.651 129.664 278.865Z" fill="#FFB558"/>
<path d="M132.574 282.648C136.169 282.361 141.593 286.377 143.855 288.421C142.413 293.462 139.097 303.165 137.367 301.654C135.206 299.765 128.08 283.006 132.574 282.648Z" fill="#FFDCAF"/>
<path d="M178.74 306.333C178.74 318.502 173.48 325.05 156.054 319.896C139.609 324.805 134.673 318.502 134.673 306.333C134.673 294.165 144.538 284.3 156.706 284.3C168.875 284.3 178.74 294.165 178.74 306.333Z" fill="#FFC67D"/>
<circle cx="151.065" cy="300.685" r="2.30012" fill="#3F3F3F"/>
<circle cx="162.517" cy="300.685" r="2.30012" fill="#3F3F3F"/>
<circle cx="156.706" cy="318.84" r="3.65444" fill="#FFEACF"/>
<circle cx="151.173" cy="312.408" r="7.70447" fill="#FFEACF"/>
<circle cx="162.148" cy="312.408" r="7.70447" fill="#FFEACF"/>
<path d="M160.636 306.419C159.234 308.743 158.209 307.565 156.981 310.074C155.55 307.565 154.866 308.553 153.327 306.419C153.327 304.401 154.963 305.059 156.981 305.059C158.999 305.059 160.636 304.401 160.636 306.419Z" fill="#DE7177"/>
<path d="M152.303 292.434C150.89 292.226 148.59 288.047 147.655 286.23C152.242 284.306 153.418 284.306 156.562 284.306C160.874 284.306 162.728 284.965 164.944 285.896C164.788 287.178 163.615 290.938 162.12 292.434C160.25 294.304 158.38 287.604 156.562 286.721C154.744 285.838 154.069 292.694 152.303 292.434Z" fill="#FFB558"/>
<path d="M133.744 362.804C132.075 358.479 131.5 356.946 131.199 356.946C128.918 356.946 125.864 357.796 125.924 363.23C126 370.022 124.051 380.211 153.515 380.362L152.983 367.611C152.983 367.611 135.414 367.129 133.744 362.804Z" fill="#FFCD8D"/>
<path d="M159.739 373.938C159.739 377.479 156.868 380.349 153.327 380.349C149.786 380.349 146.915 377.479 146.915 373.938C146.915 370.397 149.786 367.526 153.327 367.526C156.868 367.526 159.739 370.397 159.739 373.938Z" fill="#FFCD8D"/>
<path d="M374.385 395.148C370.685 398.424 369.401 399.593 368.919 399.468C365.275 398.521 360.595 396.473 361.987 391.51C363.727 385.307 363.042 375.147 410.171 387.242L406.809 398.945C406.809 398.945 378.085 391.872 374.385 395.148Z" fill="#31291F"/>
<path d="M418.586 395.722C419.43 392.472 415.527 388.646 409.867 387.175C397.983 391.543 398.934 387.148 398.09 390.398C397.246 393.648 401.756 394.306 406.809 398.945C412.469 400.415 417.742 398.973 418.586 395.722Z" fill="#31291F"/>
<ellipse rx="8.09585" ry="16.2418" transform="matrix(-0.935117 -0.354338 -0.354338 0.935117 385.561 385.01)" fill="#554839"/>
<rect width="7.75213" height="15.7095" transform="matrix(-1 0 0 1 373.693 385.01)" fill="#31291F"/>
<ellipse cx="353.821" cy="385.01" rx="8.09585" ry="16.2418" transform="rotate(-20.7529 353.821 385.01)" fill="#554839"/>
<path d="M379.222 401.228C376.783 396.74 381.426 384.04 384.19 378.309L370.442 378.424V405.008C374.385 405.618 381.661 405.715 379.222 401.228Z" fill="#44392B"/>
<path d="M359.803 401.228C362.242 396.74 357.6 384.04 354.835 378.309L368.584 378.424V405.008C364.641 405.618 357.364 405.715 359.803 401.228Z" fill="#44392B"/>
<ellipse rx="17.8343" ry="19.567" transform="matrix(-1 0 0 1 369.406 366.335)" fill="#44392B"/>
<ellipse rx="11.6525" ry="16.5498" transform="matrix(-1 0 0 1 369.691 366.784)" fill="#31291F"/>
<ellipse cx="384.191" cy="397.276" rx="6.60494" ry="6.55154" transform="rotate(14.9632 384.191 397.276)" fill="#44392B"/>
<ellipse cx="354.835" cy="397.276" rx="6.60494" ry="6.55154" transform="rotate(14.9632 354.835 397.276)" fill="#44392B"/>
<path d="M347.818 309.132C352.859 309.567 359.436 316.379 362.094 319.731C358.933 326.372 352.099 339.033 350.055 336.542C347.501 333.429 341.517 308.588 347.818 309.132Z" fill="#554839"/>
<path d="M349.624 313.419C353.031 313.713 357.476 318.317 359.273 320.583C357.136 325.072 352.517 333.629 351.136 331.945C349.409 329.841 345.365 313.051 349.624 313.419Z" fill="#D2C0AC"/>
<path d="M390.856 309.138C385.814 309.568 379.231 316.375 376.57 319.724C379.726 326.368 386.549 339.034 388.594 336.545C391.151 333.434 397.157 308.599 390.856 309.138Z" fill="#554839"/>
<path d="M388.878 313.208C385.484 313.63 381.215 318.398 379.505 320.73C381.81 325.135 386.748 333.512 388.064 331.778C389.71 329.61 393.12 312.68 388.878 313.208Z" fill="#D2C0AC"/>
<path d="M348.511 338.374C348.511 349.914 359.647 351.779 370.024 351.236C379.39 351.236 390.3 349.914 390.3 338.374C390.3 326.835 380.945 317.48 369.406 317.48C357.866 317.48 348.511 326.835 348.511 338.374Z" fill="#7E6A51"/>
<circle r="2.18119" transform="matrix(-1 0 0 1 374.755 333.018)" fill="#44392B"/>
<circle r="2.18119" transform="matrix(-1 0 0 1 363.895 333.018)" fill="#44392B"/>
<circle r="3.46549" transform="matrix(-1 0 0 1 369.407 347.976)" fill="#D2C0AC"/>
<circle r="5.82787" transform="matrix(-1 0 0 1 373.557 342.148)" fill="#D2C0AC"/>
<circle r="5.82787" transform="matrix(-1 0 0 1 365.255 342.148)" fill="#D2C0AC"/>
<path d="M366.4 337.618C367.46 339.375 368.235 338.485 369.164 340.382C370.247 338.485 370.764 339.232 371.928 337.618C371.928 336.091 370.691 336.588 369.164 336.588C367.637 336.588 366.4 336.091 366.4 337.618Z" fill="#44392B"/>
<path d="M373.582 325.194C374.921 324.996 377.102 321.034 377.989 319.31C373.639 317.486 372.524 317.486 369.543 317.486C365.453 317.486 363.695 318.111 361.594 318.994C361.742 320.209 362.854 323.775 364.272 325.194C366.046 326.967 367.819 320.613 369.543 319.776C371.266 318.938 371.907 325.44 373.582 325.194Z" fill="#44392B"/>
<ellipse cx="261.396" cy="293.905" rx="58.7586" ry="7.11492" fill="#C2C9E0"/>
<path d="M258.621 264.552L274.297 283.251L256.798 289.685L251.359 271.004L258.621 264.552Z" fill="#FBF7F2"/>
<path d="M256.347 276.662H278.183L278.224 289.778H256.387L256.347 276.662Z" fill="#FBF7F2"/>
<path d="M249.726 277.675L249.726 293.983L238.096 293.938L238.096 277.63L249.726 277.675Z" fill="#FBF7F2"/>
<path d="M226.379 19.6023C226.379 24.012 222.817 27.5867 218.423 27.5867C214.029 27.5867 210.467 24.012 210.467 19.6023C210.467 15.1926 214.029 11.6178 218.423 11.6178C222.817 11.6178 226.379 15.1926 226.379 19.6023Z" fill="#E7C368"/>
<path d="M232.897 10.5597C232.897 14.9694 229.335 18.5441 224.941 18.5441C220.547 18.5441 216.985 14.9694 216.985 10.5597C216.985 6.14997 220.547 2.5752 224.941 2.5752C229.335 2.5752 232.897 6.14997 232.897 10.5597Z" fill="#E7C368"/>
<path d="M226.379 30.5689C226.379 34.9786 222.817 38.5534 218.423 38.5534C214.029 38.5534 210.467 34.9786 210.467 30.5689C210.467 26.1592 214.029 22.5844 218.423 22.5844C222.817 22.5844 226.379 26.1592 226.379 30.5689Z" fill="#E7C368"/>
<path d="M236.156 24.797C236.156 29.2067 232.594 32.7814 228.2 32.7814C223.806 32.7814 220.244 29.2067 220.244 24.797C220.244 20.3873 223.806 16.8125 228.2 16.8125C232.594 16.8125 236.156 20.3873 236.156 24.797Z" fill="#E7C368"/>
<path d="M234.075 34.4168C234.075 38.8265 230.513 42.4013 226.119 42.4013C221.725 42.4013 218.163 38.8265 218.163 34.4168C218.163 30.0071 221.725 26.4323 226.119 26.4323C230.513 26.4323 234.075 30.0071 234.075 34.4168Z" fill="#E7C368"/>
<path d="M243.323 6.51932C243.323 10.929 239.761 14.5038 235.367 14.5038C230.973 14.5038 227.411 10.929 227.411 6.51932C227.411 2.10962 230.973 -1.46515 235.367 -1.46515C239.761 -1.46515 243.323 2.10962 243.323 6.51932Z" fill="#F2CF76"/>
<path d="M253.265 8.82804C253.265 13.2377 249.703 16.8125 245.309 16.8125C240.915 16.8125 237.353 13.2377 237.353 8.82804C237.353 4.41834 240.915 0.843567 245.309 0.843567C249.703 0.843567 253.265 4.41834 253.265 8.82804Z" fill="#F2CF76"/>
<path d="M256.973 18.4479C256.973 22.8576 253.411 26.4323 249.017 26.4323C244.623 26.4323 241.061 22.8576 241.061 18.4479C241.061 14.0381 244.623 10.4634 249.017 10.4634C253.411 10.4634 256.973 14.0381 256.973 18.4479Z" fill="#F2CF76"/>
<path d="M247.187 24.797C247.187 29.2067 243.625 32.7814 239.231 32.7814C234.837 32.7814 231.275 29.2067 231.275 24.797C231.275 20.3873 234.837 16.8125 239.231 16.8125C243.625 16.8125 247.187 20.3873 247.187 24.797Z" fill="#E7C368"/>
<path d="M243.323 35.8354C243.323 40.2451 239.761 43.8198 235.367 43.8198C230.973 43.8198 227.411 40.2451 227.411 35.8354C227.411 31.4257 230.973 27.8509 235.367 27.8509C239.761 27.8509 243.323 31.4257 243.323 35.8354Z" fill="#E7C368"/>
<path d="M243.323 13.2532C243.323 17.6629 239.761 21.2377 235.367 21.2377C230.973 21.2377 227.411 17.6629 227.411 13.2532C227.411 8.84351 230.973 5.26874 235.367 5.26874C239.761 5.26874 243.323 8.84351 243.323 13.2532Z" fill="#E7C368"/>
<path d="M255.142 29.2222C255.142 33.6319 251.58 37.2067 247.186 37.2067C242.792 37.2067 239.23 33.6319 239.23 29.2222C239.23 24.8125 242.792 21.2377 247.186 21.2377C251.58 21.2377 255.142 24.8125 255.142 29.2222Z" fill="#F2CF76"/>
<path d="M251.087 16.0684C251.087 20.4781 247.525 24.0529 243.131 24.0529C238.737 24.0529 235.175 20.4781 235.175 16.0684C235.175 11.6587 238.737 8.08392 243.131 8.08392C247.525 8.08392 251.087 11.6587 251.087 16.0684Z" fill="#F2CF76"/>
<path d="M280.635 156.889C277.667 126.7 250.453 140.896 239.774 145.179L251.16 162.62C251.16 162.62 248.369 189.077 259.755 208.252C250.635 219.43 250.14 239.301 251.16 248.536L255.079 274.634L267.075 274.633C266.067 265.152 274.204 226.18 280.635 208.252C280.635 208.252 283.528 186.306 280.635 156.889Z" fill="#3F3F3F"/>
<path d="M226.609 161.729C229.578 131.539 256.792 145.735 267.47 150.019L256.085 167.459C256.085 167.459 253.72 197.424 251.745 209.228C252.17 215.448 254.74 229.842 253.72 239.078L250.218 270.789L250.218 279.473L237.543 279.473C239.737 262.105 224.132 242.296 233.477 212.995C233.477 212.995 223.717 191.145 226.609 161.729Z" fill="#3F3F3F"/>
<path d="M320.997 64.8165L314.625 78.4583L298.102 70.8585L304.474 57.2167L320.997 64.8165Z" fill="#EAD3C3"/>
<path d="M287.444 113.258C268.913 110.158 252.392 108.184 247.543 100.089C245.527 91 249.514 90.3945 260.599 91.512C274.576 92.9209 287.226 89.6824 289.892 86.9187L298.312 69.0372C305.999 69.5407 311.684 75.9301 315.391 79.2802C313.796 91.8978 305.974 116.358 287.444 113.258Z" fill="#8895BE"/>
<path d="M229.313 151.501C229.313 151.501 240.788 128.15 227.347 91.6459C238.372 85.4118 273.146 76.0449 268.967 87.146C264.789 98.2471 294.685 104.666 275.167 125.364C275.167 129.995 280.133 151.501 280.133 151.501H229.313Z" fill="#C2C9E0"/>
<path d="M229.225 61.9015C229.225 78.0233 242.081 91.0927 257.939 91.0927C273.797 91.0927 286.652 78.0233 286.652 61.9015C286.652 45.7796 273.797 32.7102 257.939 32.7102C242.081 32.7102 229.225 45.7796 229.225 61.9015Z" fill="#EAD3C3"/>
<path d="M229.169 170.061L221.221 157.286L236.556 147.496L244.504 160.271L229.169 170.061Z" fill="#EAD3C3"/>
<path d="M204.469 116.624C216.348 102.023 226.255 88.6133 235.665 88.406C244.527 91.1592 243.072 94.9326 236.603 104.033C228.448 115.507 224.97 128.131 226.038 131.824L239.517 145.065C235.266 151.511 224.727 156.255 219.99 157.821C209.866 150.172 192.59 131.225 204.469 116.624Z" fill="#8895BE"/>
<path d="M247.141 57.9985L251.443 58.1358L250.517 60.6758L247.141 57.9985Z" fill="#3F3F3F"/>
<path d="M280.58 50.4427L277.124 52.6193L279.092 54.2536L280.58 50.4427Z" fill="#3F3F3F"/>
<path d="M247.038 61.5907L250.891 59.6668L251.276 62.3434L247.038 61.5907Z" fill="#3F3F3F"/>
<path d="M282.423 52.9872L278.367 53.4125L279.413 55.7507L282.423 52.9872Z" fill="#3F3F3F"/>
<path d="M269.526 77.7248C269.526 79.8195 262.776 84.984 257.777 83.177C251.781 81.0095 252.09 76.7883 252.09 76.2345C252.09 74.1397 259.268 77.3176 261.356 77.3176C266.63 77.7248 269.526 75.6301 269.526 77.7248Z" fill="#FFFEFE"/>
<path d="M265.59 80.1636C261.664 81.1257 255.144 78.9058 252.204 77.5386C252.427 79.5901 254.667 83.3869 259.875 83.5679C265.084 83.749 268.301 80.7363 268.78 79.3126L265.59 80.1636Z" fill="#FAF8F8"/>
<path d="M267.307 52.6194L273.886 67.6622L267.307 69.9765L267.307 52.6194Z" fill="#E6C6B0"/>
<path d="M234.001 63.1865C234.288 67.0022 231.439 70.3169 227.638 70.5903C223.836 70.8636 220.52 67.992 220.233 64.1764C219.945 60.3607 222.794 57.0459 226.596 56.7726C230.398 56.4993 233.713 59.3709 234.001 63.1865Z" fill="#E6C6B0"/>
<path d="M233.487 63.2242C234.207 65.8441 233.939 72.7196 231.33 73.4307C228.721 74.1418 222.868 69.5142 222.148 66.8944C221.428 64.2746 226.114 64.6546 228.722 63.9435C231.331 63.2324 232.767 60.6044 233.487 63.2242Z" fill="#E6C6B0"/>
<path d="M235.526 65.5536C231.674 58.31 243.051 40.0138 236.849 37.6996L227.09 37.369C216.339 43.1547 219.67 62.0699 222.647 58.7638C225.029 56.1189 228.393 60.2218 230.267 60.4973L233.501 68.7199L235.526 65.5536Z" fill="#E7C368"/>
<path d="M254.874 53.9319C253.211 54.0371 250.646 54.3241 250.495 54.3341C246.185 54.6182 245.829 56.315 243.284 60.4244C245.164 50.4945 250.052 51.6953 255.776 50.9334C257.257 51.4994 256.458 53.8316 254.874 53.9319Z" fill="#9E8568"/>
<path d="M273.602 50.2688C274.556 49.9577 276.558 48.9302 277.522 48.8741C279.656 48.7499 280.027 48.5362 282.359 50.2688C279.456 45.376 278.676 47.1238 272.409 48.105C271.706 48.7512 272.694 50.5653 273.602 50.2688Z" fill="#9E8568"/>
<path d="M281.978 46.1498C272.98 31.6148 249.087 36.536 238.265 40.8135L226.379 38.2725C236.476 24.2965 252.964 25.8211 256.415 24.9317C259.176 24.2202 262.593 26.4987 263.956 27.7269C264.876 26.5072 268.089 28.2351 269.58 29.2516C271.318 28.4384 274.053 30.4374 275.204 31.5386C277.146 31.6402 277.973 34.122 278.143 35.3502C280.086 35.0452 281.509 38.1877 281.978 39.7971C284.228 41.7283 282.915 44.8369 281.978 46.1498Z" fill="#F2CF76"/>
<path d="M244.964 74.3205C244.679 74.873 244.001 75.0883 243.45 74.8015C242.9 74.5147 243.683 74.3544 243.969 73.802C244.255 73.2495 243.935 72.5142 244.485 72.801C245.036 73.0878 245.25 73.7681 244.964 74.3205Z" fill="#E5C6B0"/>
<path d="M256.643 59.6667C256.643 62.2152 255.306 61.3161 253.266 62.3312C251.227 63.3462 249.889 61.5384 249.889 59.6667C249.889 57.7949 251.401 56.2776 253.266 56.2776C255.131 56.2776 256.643 57.7949 256.643 59.6667Z" fill="#3F3F3F"/>
<path d="M279.86 54.452C280.051 57.2282 278.837 55.9797 276.874 56.9237C274.755 57.9424 273.887 56.1075 273.887 54.452C273.887 52.7965 275.224 51.4545 276.874 51.4545C278.523 51.4545 279.86 52.7965 279.86 54.452Z" fill="#3F3F3F"/>
<path d="M232.365 283.041H255.51L255.456 297.2H232.311L232.365 283.041Z" fill="#FBF7F2"/>
</g>
<defs>
<clipPath id="clip0">
<rect width="505" height="505" fill="white"/>
</clipPath>
</defs>
</svg>
