<svg width="505" height="505" viewBox="0 0 505 505" fill="none" xmlns="http://www.w3.org/2000/svg">
<path d="M409.592 362.539C404.656 361.046 395.856 365.009 392.073 367.177C392.557 374.659 394.242 389.225 397.117 387.64C400.711 385.658 415.763 364.405 409.592 362.539Z" fill="#554839"/>
<path d="M406.263 365.915C402.926 364.906 396.979 367.584 394.422 369.05C394.748 374.106 395.888 383.952 397.831 382.88C400.26 381.541 410.433 367.176 406.263 365.915Z" fill="#D2C0AC"/>
<path d="M359.751 349.975C364.842 350.797 371.014 358.216 373.463 361.824C369.749 368.336 361.848 380.689 359.959 378.004C357.598 374.647 353.387 348.947 359.751 349.975Z" fill="#554839"/>
<path d="M361.45 354.262C364.867 354.95 368.842 360.122 370.403 362.622C367.725 366.924 362.067 375.062 360.861 373.199C359.354 370.87 357.179 353.403 361.45 354.262Z" fill="#D2C0AC"/>
<path d="M398.07 388.528C394.841 399.837 383.405 398.549 373.387 395.112C364.208 392.49 353.886 388.142 357.115 376.832C360.345 365.523 372.131 358.973 383.44 362.202C394.75 365.432 401.3 377.218 398.07 388.528Z" fill="#7E6A51"/>
<circle cx="373.849" cy="375.933" r="2.22314" transform="rotate(15.9376 373.849 375.933)" fill="#44392B"/>
<circle cx="384.492" cy="378.972" r="2.22314" transform="rotate(15.9376 384.492 378.972)" fill="#44392B"/>
<circle cx="374.904" cy="392.09" r="3.53213" transform="rotate(15.9376 374.904 392.09)" fill="#D2C0AC"/>
<circle cx="372.467" cy="385.217" r="5.93994" transform="rotate(15.9376 372.467 385.217)" fill="#D2C0AC"/>
<circle cx="380.604" cy="387.54" r="5.93994" transform="rotate(15.9376 380.604 387.54)" fill="#D2C0AC"/>
<path d="M380.75 382.78C379.219 384.206 378.708 383.116 377.267 384.716C376.737 382.553 376.021 383.14 375.331 381.233C375.759 379.737 376.832 380.57 378.329 380.997C379.825 381.425 381.177 381.284 380.75 382.78Z" fill="#44392B"/>
<path d="M377.189 368.593C375.931 368.025 374.903 363.531 374.516 361.594C379.29 361.024 380.383 361.336 383.305 362.17C387.312 363.315 388.861 364.419 390.673 365.873C390.188 367.022 388.1 370.206 386.313 371.199C384.079 372.44 384.119 365.717 382.664 364.414C381.209 363.111 378.762 369.303 377.189 368.593Z" fill="#44392B"/>
<path d="M154.607 467.606L261.624 496.877V322.393L154.607 293.122V467.606Z" fill="#CCD1E2"/>
<path d="M368.641 467.606L261.624 496.877V322.393L368.641 293.122V467.606Z" fill="#AAAFC1"/>
<path d="M261.475 269.535L368.641 293.122L261.475 322.455L154.31 293.122L261.475 269.535Z" fill="#DADFEF"/>
<path d="M318.21 481.909L368.711 495.722V413.382L318.21 399.57V481.909Z" fill="#CCD1E2"/>
<path d="M419.212 481.909L368.711 495.722V413.382L419.212 399.57V481.909Z" fill="#AAAFC1"/>
<path d="M368.64 388.439L419.212 399.57L368.64 413.412L318.069 399.57L368.64 388.439Z" fill="#DADFEF"/>
<path d="M83.4155 484.327L153.703 503.552V388.953L83.4155 369.728V484.327Z" fill="#CCD1E2"/>
<path d="M223.989 484.327L153.702 503.552V388.953L223.989 369.728V484.327Z" fill="#AAAFC1"/>
<path d="M153.605 354.236L223.989 369.728L153.605 388.993L83.2197 369.728L153.605 354.236Z" fill="#DADFEF"/>
<ellipse cx="261.098" cy="294.645" rx="58.6864" ry="7.08455" fill="#AAAFC1"/>
<path d="M258.324 265.417L273.981 284.036L256.503 290.443L251.071 271.842L258.324 265.417Z" fill="#FBF7F2"/>
<path d="M256.055 277.475H277.864L277.904 290.535H256.095L256.055 277.475Z" fill="#FBF7F2"/>
<path d="M249.441 278.484L249.441 294.722L237.825 294.678L237.825 278.439L249.441 278.484Z" fill="#FBF7F2"/>
<path d="M226.125 21.5123C226.125 25.9032 222.567 29.4627 218.178 29.4627C213.79 29.4627 210.232 25.9032 210.232 21.5123C210.232 17.1215 213.79 13.562 218.178 13.562C222.567 13.562 226.125 17.1215 226.125 21.5123Z" fill="#E7C368"/>
<path d="M232.634 12.5084C232.634 16.8993 229.077 20.4588 224.688 20.4588C220.299 20.4588 216.742 16.8993 216.742 12.5084C216.742 8.1175 220.299 4.55798 224.688 4.55798C229.077 4.55798 232.634 8.1175 232.634 12.5084Z" fill="#E7C368"/>
<path d="M226.125 32.4321C226.125 36.823 222.567 40.3825 218.178 40.3825C213.79 40.3825 210.232 36.823 210.232 32.4321C210.232 28.0412 213.79 24.4817 218.178 24.4817C222.567 24.4817 226.125 28.0412 226.125 32.4321Z" fill="#E7C368"/>
<path d="M235.89 26.6849C235.89 31.0758 232.332 34.6353 227.943 34.6353C223.555 34.6353 219.997 31.0758 219.997 26.6849C219.997 22.294 223.555 18.7345 227.943 18.7345C232.332 18.7345 235.89 22.294 235.89 26.6849Z" fill="#E7C368"/>
<path d="M233.811 36.2636C233.811 40.6545 230.253 44.214 225.864 44.214C221.476 44.214 217.918 40.6545 217.918 36.2636C217.918 31.8727 221.476 28.3132 225.864 28.3132C230.253 28.3132 233.811 31.8727 233.811 36.2636Z" fill="#E7C368"/>
<path d="M243.048 8.48525C243.048 12.8761 239.49 16.4356 235.102 16.4356C230.713 16.4356 227.155 12.8761 227.155 8.48525C227.155 4.09436 230.713 0.534851 235.102 0.534851C239.49 0.534851 243.048 4.09436 243.048 8.48525Z" fill="#F2CF76"/>
<path d="M252.978 10.7842C252.978 15.1751 249.42 18.7346 245.031 18.7346C240.643 18.7346 237.085 15.1751 237.085 10.7842C237.085 6.39331 240.643 2.8338 245.031 2.8338C249.42 2.8338 252.978 6.39331 252.978 10.7842Z" fill="#F2CF76"/>
<path d="M256.681 20.3629C256.681 24.7538 253.123 28.3133 248.734 28.3133C244.346 28.3133 240.788 24.7538 240.788 20.3629C240.788 15.972 244.346 12.4125 248.734 12.4125C253.123 12.4125 256.681 15.972 256.681 20.3629Z" fill="#F2CF76"/>
<path d="M246.907 26.6849C246.907 31.0758 243.349 34.6353 238.96 34.6353C234.572 34.6353 231.014 31.0758 231.014 26.6849C231.014 22.294 234.572 18.7345 238.96 18.7345C243.349 18.7345 246.907 22.294 246.907 26.6849Z" fill="#E7C368"/>
<path d="M243.048 37.6761C243.048 42.067 239.49 45.6265 235.102 45.6265C230.713 45.6265 227.155 42.067 227.155 37.6761C227.155 33.2852 230.713 29.7257 235.102 29.7257C239.49 29.7257 243.048 33.2852 243.048 37.6761Z" fill="#E7C368"/>
<path d="M243.048 15.1904C243.048 19.5813 239.49 23.1408 235.102 23.1408C230.713 23.1408 227.155 19.5813 227.155 15.1904C227.155 10.7995 230.713 7.23999 235.102 7.23999C239.49 7.23999 243.048 10.7995 243.048 15.1904Z" fill="#E7C368"/>
<path d="M254.853 31.0912C254.853 35.4821 251.295 39.0416 246.906 39.0416C242.518 39.0416 238.96 35.4821 238.96 31.0912C238.96 26.7003 242.518 23.1408 246.906 23.1408C251.295 23.1408 254.853 26.7003 254.853 31.0912Z" fill="#F2CF76"/>
<path d="M250.801 17.9934C250.801 22.3843 247.244 25.9438 242.855 25.9438C238.466 25.9438 234.909 22.3843 234.909 17.9934C234.909 13.6025 238.466 10.043 242.855 10.043C247.244 10.043 250.801 13.6025 250.801 17.9934Z" fill="#F2CF76"/>
<path d="M280.313 158.214C277.348 128.153 250.168 142.288 239.502 146.553L250.874 163.92C250.874 163.92 248.086 190.264 259.459 209.357C250.35 220.488 249.855 240.273 250.874 249.469L254.788 275.455L266.769 275.455C265.763 266.014 273.889 227.208 280.313 209.357C280.313 209.357 283.202 187.505 280.313 158.214Z" fill="#3F3F3F"/>
<path d="M226.354 163.032C229.318 132.971 256.499 147.107 267.164 151.372L255.793 168.738C255.793 168.738 253.431 198.575 251.459 210.329C251.883 216.522 254.45 230.855 253.431 240.052L249.933 271.627L249.933 280.274L237.274 280.274C239.465 262.98 223.879 243.255 233.213 214.08C233.213 214.08 223.465 192.323 226.354 163.032Z" fill="#3F3F3F"/>
<path d="M319.657 146.297L304.081 147.873L302.1 129.819L317.675 128.244L319.657 146.297Z" fill="#EAD3C3"/>
<path d="M260.857 137.226C257.295 118.795 253.383 102.637 259.245 95.2844C267.02 90.2405 268.974 93.765 271.792 104.535C275.345 118.114 282.772 128.837 286.278 130.374L305.025 128.481C307.233 135.856 304.117 146.969 302.283 151.603C289.959 154.491 264.419 155.658 260.857 137.226Z" fill="#8895BE"/>
<path d="M229.054 152.848C229.054 152.848 240.692 140.107 227.089 93.2485C238.101 87.041 272.833 77.714 268.659 88.7677C264.485 99.8215 294.345 106.213 274.851 126.823C274.851 131.434 279.811 152.848 279.811 152.848H229.054Z" fill="#C2C9E0"/>
<path d="M228.967 63.6311C228.967 79.6841 241.807 92.6977 257.645 92.6977C273.484 92.6977 286.323 79.6841 286.323 63.6311C286.323 47.578 273.484 34.5644 257.645 34.5644C241.807 34.5644 228.967 47.578 228.967 63.6311Z" fill="#EAD3C3"/>
<path d="M238.186 171.371L228.558 159.871L242.374 148.089L252.002 159.59L238.186 171.371Z" fill="#EAD3C3"/>
<path d="M206.367 122.081C216.099 106.032 224.047 91.431 233.325 89.9221C242.472 91.4094 241.554 95.3335 236.413 105.207C229.93 117.656 228.235 130.591 229.801 134.086L244.963 145.279C241.648 152.227 231.88 158.367 227.41 160.569C216.34 154.427 196.634 138.131 206.367 122.081Z" fill="#8895BE"/>
<path d="M246.86 59.7448L251.157 59.8815L250.232 62.4106L246.86 59.7448Z" fill="#3F3F3F"/>
<path d="M280.258 52.2212L276.806 54.3886L278.772 56.0158L280.258 52.2212Z" fill="#3F3F3F"/>
<path d="M246.757 63.3215L250.605 61.4058L250.991 64.071L246.757 63.3215Z" fill="#3F3F3F"/>
<path d="M282.1 54.7547L278.048 55.1782L279.093 57.5064L282.1 54.7547Z" fill="#3F3F3F"/>
<path d="M267.001 54.3885L273.572 69.3672L267.001 71.6716L267.001 54.3885Z" fill="#E6C6B0"/>
<path d="M233.736 64.9105C234.023 68.7099 231.177 72.0105 227.38 72.2827C223.583 72.5549 220.272 69.6955 219.985 65.8961C219.697 62.0968 222.543 58.7962 226.34 58.524C230.137 58.2518 233.448 61.1112 233.736 64.9105Z" fill="#E6C6B0"/>
<path d="M233.221 64.948C233.941 67.5566 233.673 74.4028 231.067 75.1108C228.462 75.8189 222.616 71.2111 221.896 68.6025C221.177 65.9939 225.857 66.3722 228.463 65.6642C231.068 64.9561 232.502 62.3393 233.221 64.948Z" fill="#E6C6B0"/>
<path d="M235.259 67.2675C231.412 60.0548 242.775 41.8368 236.58 39.5324L226.834 39.2032C216.096 44.9642 219.422 63.7987 222.396 60.5067C224.775 57.8731 228.134 61.9584 230.007 62.2328L233.237 70.4203L235.259 67.2675Z" fill="#E7C368"/>
<path d="M254.582 55.6954C252.922 55.8002 250.36 56.0859 250.208 56.0959C245.903 56.3787 245.548 58.0683 243.006 62.1602C244.884 52.2727 249.766 53.4684 255.483 52.7097C256.962 53.2732 256.164 55.5955 254.582 55.6954Z" fill="#9E8568"/>
<path d="M273.289 52.048C274.24 51.7383 276.24 50.7152 277.204 50.6593C279.334 50.5356 279.705 50.3228 282.034 52.048C279.134 47.1761 278.355 48.9164 272.097 49.8934C271.395 50.5368 272.381 52.3433 273.289 52.048Z" fill="#9E8568"/>
<path d="M281.654 47.9465C272.667 33.4735 248.803 38.3738 237.995 42.633L226.123 40.1028C236.208 26.1864 252.676 27.7045 256.122 26.8189C258.88 26.1105 262.292 28.3793 263.654 29.6022C264.573 28.3877 267.782 30.1083 269.271 31.1204C271.007 30.3107 273.739 32.3012 274.888 33.3976C276.828 33.4988 277.654 35.97 277.824 37.193C279.764 36.8893 281.186 40.0184 281.654 41.6209C283.901 43.5439 282.59 46.6392 281.654 47.9465Z" fill="#F2CF76"/>
<path d="M256.351 61.4059C256.351 63.2696 254.841 64.7805 252.978 64.7805C251.115 64.7805 249.605 63.2696 249.605 61.4059C249.605 59.5421 251.115 58.0312 252.978 58.0312C254.841 58.0312 256.351 59.5421 256.351 61.4059Z" fill="#3F3F3F"/>
<path d="M279.539 56.2133C279.539 57.8617 278.203 59.198 276.555 59.198C274.908 59.198 273.572 57.8617 273.572 56.2133C273.572 54.5649 274.908 53.2286 276.555 53.2286C278.203 53.2286 279.539 54.5649 279.539 56.2133Z" fill="#3F3F3F"/>
<path d="M232.103 283.827H255.219L255.165 297.925H232.048L232.103 283.827Z" fill="#FBF7F2"/>
<path d="M268.582 79.5256C268.582 80.2661 265.575 82.2071 261.889 82.2071C258.203 82.2071 255.36 80.2661 255.36 79.5256C255.36 78.7852 258.203 79.5256 261.889 79.5256C265.575 79.5256 268.582 78.7852 268.582 79.5256Z" fill="#DDB79D"/>
<path d="M186.33 359.485C186.33 378.631 171.465 378.041 152.32 378.041C133.174 378.041 116.997 378.631 116.997 359.485C116.997 340.34 132.518 324.819 151.663 324.819C170.809 324.819 186.33 340.34 186.33 359.485Z" fill="#FFC070"/>
<path d="M204.512 340.311C202.343 339.088 190.581 338.635 182.633 336.823C180.968 336.934 185.576 349.796 194.056 349.162C197.254 348.834 206.681 341.534 204.512 340.311Z" fill="#FFB558"/>
<path d="M200.692 354.973C203.264 367.616 199.184 375.531 179.988 373.86C163.94 382.436 157.479 376.931 154.907 364.288C152.335 351.644 160.499 339.31 173.142 336.738C185.785 334.165 198.12 342.33 200.692 354.973Z" fill="#FFC67D"/>
<path d="M174.701 354.662C174.855 356 173.895 357.209 172.557 357.363C171.219 357.517 170.009 356.557 169.855 355.219C169.701 353.881 170.252 356.299 172.503 356.04C174.389 355.823 174.547 353.323 174.701 354.662Z" fill="#3F3F3F"/>
<path d="M183.393 354.016C183.392 355.195 184.347 356.152 185.527 356.153C186.707 356.154 187.663 355.198 187.664 354.019C187.665 352.839 187.426 354.998 185.442 354.997C183.779 354.995 183.393 352.836 183.393 354.016Z" fill="#3F3F3F"/>
<circle cx="180.367" cy="372.577" r="3.87472" transform="rotate(-11.4995 180.367 372.577)" fill="#FFEACF"/>
<circle cx="174.78" cy="367.111" r="8.16887" transform="rotate(-11.4995 174.78 367.111)" fill="#FFEACF"/>
<circle cx="185.527" cy="365.784" r="7.3278" transform="rotate(-11.4995 185.527 365.784)" fill="#FFEACF"/>
<path d="M184.105 359.312C183.671 360.804 181.653 360.754 180.597 363.521C178.845 361.009 178.218 362.117 176.388 360.012C176.194 357.881 177.985 358.418 180.116 358.225C182.247 358.031 183.663 357.604 184.105 359.312Z" fill="#DE7177"/>
<path d="M172.832 345.209C171.324 345.083 168.198 340.742 167.088 338.881C171.814 336.541 173.473 336.535 176.8 336.326C181.363 336.04 183.369 336.614 185.776 337.453C185.696 338.819 184.704 342.876 183.221 344.558C181.366 346.661 178.943 339.694 176.96 338.881C174.978 338.067 174.719 345.367 172.832 345.209Z" fill="#FFB558"/>
<path d="M135.27 337.918C133.802 338.289 129.754 335.326 128.099 333.926C132.145 330.257 133.057 329.506 136.136 328.228C140.358 326.474 143.018 325.778 145.547 325.417C145.915 326.735 145.739 331.853 144.883 333.926C143.812 336.517 139.257 330.717 137.117 330.592C134.978 330.466 137.105 337.454 135.27 337.918Z" fill="#FFB558"/>
<path d="M150.625 332.596C149.236 331.993 147.842 327.174 147.388 325.054C152.832 324.623 154.491 324.827 157.765 325.318C162.287 325.995 165.199 327.2 167.421 328.459C166.908 329.728 162.618 334.193 160.673 335.31C158.242 336.707 158.18 329.332 156.564 327.926C154.947 326.519 152.36 333.35 150.625 332.596Z" fill="#FFB558"/>
<path d="M143.573 345.201C145.699 343.697 157.886 341.97 165.961 339.237C167.705 339.174 164.285 353.047 155.396 353.292C152.034 353.292 141.448 346.705 143.573 345.201Z" fill="#FFB558"/>
<path d="M117.493 362.202C116.762 357.3 118.059 355.93 116.011 356.154C113.734 356.154 108.727 357.395 108.787 362.822C108.862 369.605 106.916 379.78 136.341 379.931L135.81 367.197C135.81 367.197 118.223 367.103 117.493 362.202Z" fill="#FFCD8D"/>
<path d="M142.557 373.515C142.557 377.052 139.69 379.919 136.153 379.919C132.617 379.919 129.75 377.052 129.75 373.515C129.75 369.979 132.617 367.112 136.153 367.112C139.69 367.112 142.557 369.979 142.557 373.515Z" fill="#FFCD8D"/>
</svg>
