<svg width="464" height="464" viewBox="0 0 464 464" fill="none" xmlns="http://www.w3.org/2000/svg">
<path d="M101.878 389.976L208.895 419.247V244.762L101.878 215.491V389.976Z" fill="#CCD1E2"/>
<path d="M315.911 389.976L208.894 419.247V244.762L315.911 215.491V389.976Z" fill="#AAAFC1"/>
<path d="M208.746 191.904L315.912 215.491L208.746 244.824L101.58 215.491L208.746 191.904Z" fill="#DADFEF"/>
<path d="M284.915 290.775C282.927 286.074 281.962 277.912 281.728 274.418L268.5 273.939C267.446 275.071 267.11 280.04 267.11 280.04L267.081 291.943C267.081 291.943 265.393 307.403 270.498 308.428C276.355 309.604 285.14 307.605 287.315 302.845C290.035 296.896 287.399 296.652 284.915 290.775Z" fill="#F2F2F2"/>
<path d="M299.336 266.082C297.173 260.255 299.364 260.257 296.371 255.553C293.378 250.849 289.923 243.583 305.022 247.545C323.897 252.497 333.038 242.208 335.08 240.318C336.713 238.806 338.937 243.119 339.845 245.465L337.829 254.315C337.706 256.437 329.971 259.31 323.981 260.149C317.992 260.988 313.921 264.928 312.647 268.068C310.512 273.33 300.89 270.268 299.336 266.082Z" fill="white"/>
<path d="M263.989 404.278L314.491 418.091V335.752L263.989 321.939V404.278Z" fill="#CCD1E2"/>
<path d="M364.992 404.278L314.491 418.091V335.752L364.992 321.939V404.278Z" fill="#AAAFC1"/>
<path d="M314.42 310.808L364.992 321.939L314.42 335.781L263.849 321.939L314.42 310.808Z" fill="#DADFEF"/>
<path d="M0.196289 401.696L70.4835 420.921V306.322L0.196289 287.098V401.696Z" fill="#CCD1E2"/>
<path d="M140.77 401.696L70.4823 420.921V306.322L140.77 287.098V401.696Z" fill="#AAAFC1"/>
<path d="M70.3848 271.606L140.77 287.097L70.3848 306.363L0 287.097L70.3848 271.606Z" fill="#DADFEF"/>
<path d="M197.332 196.045C197.332 196.045 208.807 172.694 195.365 136.19C206.39 129.956 241.165 120.589 236.986 131.69C232.807 142.791 262.703 149.21 243.186 169.908C243.186 174.539 248.151 196.045 248.151 196.045H197.332Z" fill="#C2C9E0"/>
<path d="M215.16 102.543L219.463 102.68L218.537 105.22L215.16 102.543Z" fill="#3F3F3F"/>
<path d="M248.598 94.9868L245.143 97.1635L247.11 98.7977L248.598 94.9868Z" fill="#3F3F3F"/>
<path d="M215.057 106.135L218.91 104.211L219.296 106.887L215.057 106.135Z" fill="#3F3F3F"/>
<path d="M307.709 248.46L278.353 196.409L263.976 220.029L295.488 257.576C299.601 258.112 306.368 250.918 307.709 248.46Z" fill="#4B4B4B"/>
<path d="M250.442 97.5312L246.385 97.9566L247.432 100.295L250.442 97.5312Z" fill="#3F3F3F"/>
<path d="M237.544 122.269C237.544 124.364 230.795 129.528 225.796 127.721C219.8 125.554 220.108 121.332 220.108 120.779C220.108 118.684 227.287 121.862 229.375 121.862C234.648 122.269 237.544 120.174 237.544 122.269Z" fill="#FFFEFE"/>
<path d="M223.98 192.555C193.878 188.797 201.728 218.47 203.552 229.83L223.074 222.568C223.074 222.568 250.144 229.83 267.4 226.432C267.4 226.432 257.472 235.414 269.478 274.104L281.168 274.104L285.389 253.309C289.62 213.903 290.149 214.1 274.08 203.875C274.08 203.875 253.311 196.217 223.98 192.555Z" fill="#3F3F3F"/>
<path d="M233.609 124.708C229.683 125.67 223.163 123.45 220.223 122.083C220.446 124.134 222.686 127.931 227.894 128.112C233.103 128.293 236.32 125.28 236.799 123.857L233.609 124.708Z" fill="#FAF8F8"/>
<path d="M233.82 100.295C235.997 100.294 242.273 113.023 240.4 115.338C238.526 117.652 233.82 117.652 233.82 117.652C233.82 117.652 231.643 100.296 233.82 100.295Z" fill="#F3C1B1"/>
<path d="M202.019 107.731C202.307 111.546 199.458 114.861 195.656 115.134C191.854 115.408 188.539 112.536 188.251 108.72C187.964 104.905 190.813 101.59 194.614 101.317C198.416 101.043 201.732 103.915 202.019 107.731Z" fill="#F9DDD4"/>
<path d="M201.506 107.768C202.226 110.388 201.958 117.264 199.349 117.975C196.74 118.686 190.887 114.058 190.167 111.438C189.447 108.819 194.133 109.199 196.741 108.488C199.35 107.776 200.786 105.148 201.506 107.768Z" fill="#F9DDD4"/>
<path d="M203.544 110.098C199.693 102.854 211.07 84.5579 204.867 82.2436L195.109 81.913C184.358 87.6987 187.688 106.614 190.665 103.308C193.047 100.663 196.411 104.766 198.286 105.041L201.52 113.264L203.544 110.098Z" fill="#F7C442"/>
<path d="M222.893 98.476C221.231 98.5812 218.666 98.8681 218.514 98.8781C214.204 99.1622 213.849 100.859 211.304 104.968C213.184 95.0386 218.072 96.2394 223.796 95.4775C225.276 96.0434 224.477 98.3756 222.893 98.476Z" fill="#9E8568"/>
<path d="M241.621 94.8129C242.574 94.5018 244.577 93.4743 245.541 93.4182C247.674 93.294 248.045 93.0803 250.377 94.8129C247.474 89.9201 246.694 91.6678 240.428 92.6491C239.725 93.2952 240.713 95.1094 241.621 94.8129Z" fill="#9E8568"/>
<path d="M212.983 118.865C212.698 119.417 212.02 119.632 211.469 119.346C210.919 119.059 211.702 118.898 211.988 118.346C212.274 117.794 211.954 117.058 212.504 117.345C213.055 117.632 213.269 118.312 212.983 118.865Z" fill="#F3C1B1"/>
<path d="M224.662 104.211C224.662 106.759 223.325 105.86 221.285 106.875C219.246 107.89 217.908 106.082 217.908 104.211C217.908 102.339 219.42 100.822 221.285 100.822C223.15 100.822 224.662 102.339 224.662 104.211Z" fill="#3F3F3F"/>
<path d="M247.88 98.9961C248.07 101.772 246.856 100.524 244.893 101.468C242.774 102.487 241.906 100.652 241.906 98.9961C241.906 97.3407 243.243 95.9987 244.893 95.9987C246.543 95.9987 247.88 97.3407 247.88 98.9961Z" fill="#3F3F3F"/>
<path d="M186.142 70.7322C186.878 75.0611 183.966 79.1661 179.64 79.9011C175.313 80.6361 171.209 77.7227 170.474 73.3939C169.739 69.065 172.65 64.9599 176.977 64.2249C181.303 63.4899 185.407 66.4033 186.142 70.7322Z" fill="#F6C442"/>
<path d="M191.052 60.7652C191.788 65.094 188.876 69.1991 184.55 69.9341C180.223 70.6691 176.12 67.7557 175.384 63.4268C174.649 59.098 177.56 54.9929 181.887 54.2579C186.213 53.5229 190.317 56.4363 191.052 60.7652Z" fill="#F6C442"/>
<path d="M187.971 81.4977C188.707 85.8266 185.795 89.9316 181.469 90.6666C177.142 91.4016 173.039 88.4883 172.303 84.1594C171.568 79.8305 174.479 75.7254 178.806 74.9904C183.132 74.2554 187.236 77.1688 187.971 81.4977Z" fill="#F6C442"/>
<path d="M196.636 74.1962C197.372 78.525 194.46 82.6301 190.134 83.3651C185.807 84.1001 181.704 81.1867 180.968 76.8579C180.233 72.529 183.144 68.4239 187.471 67.6889C191.797 66.9539 195.901 69.8673 196.636 74.1962Z" fill="#F6C442"/>
<path d="M196.19 83.9878C196.925 88.3167 194.014 92.4218 189.688 93.1568C185.361 93.8918 181.257 90.9784 180.522 86.6495C179.787 82.3206 182.698 78.2156 187.024 77.4806C191.351 76.7456 195.455 79.6589 196.19 83.9878Z" fill="#F6C442"/>
<path d="M200.645 55.0547C201.381 59.3836 198.469 63.4886 194.143 64.2237C189.816 64.9587 185.712 62.0453 184.977 57.7164C184.242 53.3875 187.153 49.2825 191.48 48.5475C195.806 47.8124 199.91 50.7258 200.645 55.0547Z" fill="#FFCF55"/>
<path d="M210.819 55.6582C211.554 59.9871 208.643 64.0922 204.316 64.8272C199.99 65.5622 195.886 62.6488 195.151 58.3199C194.415 53.991 197.327 49.886 201.653 49.151C205.98 48.416 210.084 51.3294 210.819 55.6582Z" fill="#FFCF55"/>
<path d="M216.074 64.4815C216.809 68.8103 213.898 72.9154 209.571 73.6504C205.245 74.3854 201.141 71.472 200.406 67.1432C199.67 62.8143 202.582 58.7092 206.908 57.9742C211.235 57.2392 215.339 60.1526 216.074 64.4815Z" fill="#FFCF55"/>
<path d="M207.498 72.351C208.233 76.6799 205.322 80.785 200.995 81.52C196.669 82.255 192.565 79.3416 191.83 75.0127C191.094 70.6839 194.005 66.5788 198.332 65.8438C202.659 65.1088 206.762 68.0222 207.498 72.351Z" fill="#F6C442"/>
<path d="M205.534 83.8333C206.269 88.1621 203.358 92.2672 199.031 93.0022C194.705 93.7372 190.601 90.8238 189.866 86.495C189.13 82.1661 192.042 78.061 196.368 77.326C200.695 76.591 204.798 79.5044 205.534 83.8333Z" fill="#F6C442"/>
<path d="M201.768 61.6651C202.504 65.994 199.592 70.0991 195.266 70.8341C190.939 71.5691 186.835 68.6557 186.1 64.3268C185.365 59.9979 188.276 55.8929 192.603 55.1579C196.929 54.4229 201.033 57.3363 201.768 61.6651Z" fill="#F6C442"/>
<path d="M216.069 75.3643C216.804 79.6932 213.893 83.7983 209.566 84.5333C205.24 85.2683 201.136 82.3549 200.401 78.026C199.665 73.6972 202.577 69.5921 206.903 68.8571C211.23 68.1221 215.334 71.0355 216.069 75.3643Z" fill="#FFCF55"/>
<path d="M209.882 63.1301C210.617 67.4589 207.706 71.564 203.379 72.299C199.052 73.034 194.949 70.1206 194.213 65.7918C193.478 61.4629 196.389 57.3578 200.716 56.6228C205.043 55.8878 209.146 58.8012 209.882 63.1301Z" fill="#FFCF55"/>
<path d="M195.896 196.518C195.896 196.518 207.535 183.776 193.932 136.918C204.944 130.71 239.675 121.383 235.502 132.437C231.328 143.491 261.187 149.883 241.694 170.492C241.694 175.103 246.654 196.518 246.654 196.518H195.896Z" fill="#C2C9E0"/>
<path d="M231.684 190.061C249.103 197.059 252.722 187.086 257.327 182.305C263.755 175.629 253.279 135.868 243.24 131.055C230.583 124.987 244.083 170.139 243.239 166.404L248.659 148.358C241.838 144.79 230.335 145.738 225.437 146.659C220.261 158.21 214.265 183.063 231.684 190.061Z" fill="#8895BE"/>
<path d="M233.617 131.981L229.112 146.974L246.461 152.348L250.966 137.356L233.617 131.981Z" fill="#F9DDD4"/>
<path d="M195.81 107.3C195.81 123.354 208.649 136.367 224.488 136.367C240.326 136.367 253.166 123.354 253.166 107.3C253.166 91.2474 240.326 78.2338 224.488 78.2338C208.649 78.2338 195.81 91.2474 195.81 107.3Z" fill="#F9DDD4"/>
<path d="M230.494 99.8281C232.64 99.4626 240.959 110.961 239.5 113.556C238.041 116.152 233.401 116.94 233.401 116.94C233.401 116.94 228.348 100.194 230.494 99.8281Z" fill="#F3C1B1"/>
<path d="M200.914 112.243C201.834 115.94 199.581 119.671 195.883 120.575C192.185 121.479 188.442 119.215 187.522 115.517C186.603 111.82 188.855 108.089 192.553 107.185C196.251 106.281 199.995 108.545 200.914 112.243Z" fill="#F9DDD4"/>
<path d="M200.413 112.366C201.559 114.817 202.442 121.611 199.992 122.746C197.542 123.88 191.006 120.317 189.86 117.865C188.714 115.414 193.392 115.003 195.842 113.869C198.292 112.734 199.267 109.914 200.413 112.366Z" fill="#F9DDD4"/>
<path d="M202.811 114.311C197.81 107.845 205.962 87.9809 199.468 86.7466L189.804 88.0544C180.183 95.5324 186.617 113.544 188.997 109.8C190.901 106.805 194.898 110.27 196.789 110.227L201.345 117.758L202.811 114.311Z" fill="#F6C442"/>
<path d="M219.922 99.6664C218.303 100.048 215.825 100.758 215.677 100.794C211.481 101.794 211.414 103.519 209.593 107.979C209.789 97.9162 214.802 98.2773 220.311 96.5719C221.863 96.8798 221.465 99.3029 219.922 99.6664Z" fill="#9E8568"/>
<path d="M237.754 92.9375C238.64 92.4727 240.441 91.1291 241.381 90.9127C243.461 90.4339 243.79 90.1621 246.376 91.4728C242.701 87.1553 242.225 89.0015 236.218 91.013C235.633 91.7649 236.909 93.3806 237.754 92.9375Z" fill="#9E8568"/>
<path d="M245.314 87.493C234.03 74.7296 211.324 83.5573 201.382 89.5666L189.254 89.0603C196.866 73.6515 213.355 72.3902 216.605 70.9399C219.205 69.7796 222.949 71.4448 224.496 72.4224C225.199 71.0711 228.65 72.2301 230.288 72.9784C231.864 71.8894 234.891 73.3942 236.207 74.2828C238.137 74.0576 239.365 76.3556 239.737 77.5328C241.599 76.9085 243.525 79.7553 244.255 81.2567C246.792 82.7762 246.018 86.0474 245.314 87.493Z" fill="#FFCF55"/>
<path d="M214.887 110.121L217.061 106.411L218.841 108.432L214.887 110.121Z" fill="#3F3F3F"/>
<path d="M213.484 108.495L216.957 105.962L217.784 108.525L213.484 108.495Z" fill="#3F3F3F"/>
<path d="M222.621 105C222.934 106.838 221.698 108.58 219.861 108.892C218.025 109.204 216.283 107.967 215.971 106.13C215.659 104.292 217.674 107.137 219.51 106.825C221.347 106.513 222.309 103.163 222.621 105Z" fill="#3F3F3F"/>
<path d="M246.648 98.9874L243.804 97.0817L243.229 99.1472L246.648 98.9874Z" fill="#3F3F3F"/>
<path d="M247.091 97.3362L243.723 96.7243L244.02 98.848L247.091 97.3362Z" fill="#3F3F3F"/>
<path d="M239.33 97.9979C239.744 99.4232 241.234 100.244 242.658 99.8309C244.083 99.4179 244.903 97.9277 244.489 96.5023C244.076 95.077 243.618 97.8144 242.193 98.2274C240.769 98.6404 238.917 96.5726 239.33 97.9979Z" fill="#3F3F3F"/>
<path d="M237.716 120.815C237.84 121.545 235.2 123.963 231.566 124.58C227.933 125.197 224.804 123.76 224.68 123.03C224.556 122.3 227.483 122.554 231.117 121.936C234.751 121.319 237.592 120.085 237.716 120.815Z" fill="#F3C1B1"/>
<path d="M213.263 198.419C183.161 194.661 190.273 222.584 197.032 228.433C203.791 234.281 209.377 234.281 209.377 234.281C209.377 234.281 238.173 240.82 261.65 210.85C261.65 210.85 267.761 203.55 277.862 206.312C282.599 198.419 274.381 189.208 267.761 189.208C267.761 189.208 239.245 186.153 213.263 198.419Z" fill="#4B4B4B"/>
<path d="M205.029 215.041L195.401 203.54L209.217 191.758L218.845 203.259L205.029 215.041Z" fill="#F9DDD4"/>
<path d="M173.209 165.751C182.942 149.701 190.889 135.1 200.168 133.592C209.315 135.079 208.396 139.003 203.255 148.876C196.773 161.325 195.078 174.26 196.644 177.755L211.806 188.949C208.491 195.897 198.723 202.037 194.253 204.239C183.183 198.097 163.477 181.801 173.209 165.751Z" fill="#8895BE"/>
<path d="M381.678 383.455L391.693 348.551L369.538 333.376L375.304 383.455H381.678Z" fill="#44392B"/>
<path d="M427.729 376.049C435.015 381.634 442.799 377.469 444.857 377.299C449.267 376.934 452.087 385.798 447.139 387.241C434.469 390.936 415.989 395.82 403.111 348.899L414.94 346.012C414.94 346.012 420.443 370.464 427.729 376.049Z" fill="#31291F"/>
<path d="M406.502 337.706C403.261 338.585 401.875 343.873 403.406 349.517C413.093 357.669 408.806 359.023 412.046 358.144C415.287 357.264 413.419 352.701 414.94 346.012C413.409 340.368 409.742 336.827 406.502 337.706Z" fill="#31291F"/>
<circle r="6.12354" transform="matrix(-1 0 0 1 376.343 386.549)" fill="#31291F"/>
<path d="M411.844 343.486C402.984 307.442 363.685 295.914 345.143 294.655C312.924 294.655 322.238 333.418 348.415 328.132C369.357 323.903 388.016 353.554 394.728 368.908L411.844 343.486Z" fill="#554839"/>
<path d="M373.13 346.652C373.13 353.149 378.396 358.415 384.893 358.415C391.39 358.415 396.656 353.149 396.656 346.652C396.656 340.156 372.882 332.143 366.386 332.143C366.386 332.143 373.13 340.156 373.13 346.652Z" fill="#31291F"/>
<path d="M312.915 260.198C317.956 260.633 324.533 267.445 327.191 270.797C324.03 277.438 317.195 290.099 315.152 287.608C312.598 284.495 306.614 259.654 312.915 260.198Z" fill="#554839"/>
<path d="M314.72 264.485C318.127 264.779 322.573 269.383 324.37 271.649C322.233 276.138 317.613 284.695 316.232 283.011C314.506 280.907 310.461 264.117 314.72 264.485Z" fill="#D2C0AC"/>
<path d="M355.953 260.204C350.912 260.634 344.329 267.441 341.667 270.79C344.823 277.434 351.646 290.1 353.692 287.611C356.248 284.5 362.255 259.665 355.953 260.204Z" fill="#554839"/>
<path d="M353.975 264.274C350.581 264.696 346.312 269.464 344.602 271.796C346.906 276.201 351.844 284.578 353.161 282.844C354.807 280.676 358.217 263.746 353.975 264.274Z" fill="#D2C0AC"/>
<path d="M313.608 289.44C313.608 300.98 324.744 302.845 335.121 302.302C344.487 302.302 355.396 300.98 355.396 289.44C355.396 277.901 346.042 268.546 334.502 268.546C322.963 268.546 313.608 277.901 313.608 289.44Z" fill="#7E6A51"/>
<circle r="2.18119" transform="matrix(-1 0 0 1 339.852 284.084)" fill="#44392B"/>
<circle r="2.18119" transform="matrix(-1 0 0 1 328.992 284.084)" fill="#44392B"/>
<circle r="3.46549" transform="matrix(-1 0 0 1 334.502 299.042)" fill="#D2C0AC"/>
<circle r="5.82787" transform="matrix(-1 0 0 1 338.654 293.214)" fill="#D2C0AC"/>
<circle r="5.82787" transform="matrix(-1 0 0 1 330.351 293.214)" fill="#D2C0AC"/>
<path d="M331.496 288.684C332.556 290.441 333.332 289.551 334.26 291.448C335.343 289.551 335.86 290.298 337.024 288.684C337.024 287.157 335.787 287.654 334.26 287.654C332.733 287.654 331.496 287.157 331.496 288.684Z" fill="#44392B"/>
<path d="M338.679 276.259C340.018 276.062 342.199 272.1 343.086 270.376C338.736 268.552 337.621 268.552 334.64 268.552C330.551 268.552 328.792 269.177 326.691 270.06C326.839 271.275 327.951 274.841 329.37 276.259C331.143 278.033 332.916 271.679 334.64 270.842C336.364 270.004 337.004 276.506 338.679 276.259Z" fill="#44392B"/>
<path d="M381.928 314.937C383.204 315.392 388.696 312.64 390.288 311.533C386.645 308.645 384.561 307.286 381.928 305.888C378.317 303.97 376.205 303.032 374.204 302.212C373.764 303.354 373.12 308.653 373.707 310.571C374.441 312.969 378.987 308.189 380.903 308.258C382.818 308.327 380.334 314.369 381.928 314.937Z" fill="#31291F"/>
<path d="M394.417 325.768C395.548 326.512 401.556 325.49 403.364 324.792C400.509 321.123 398.595 319.154 396.559 316.976C394.809 315.104 392.125 312.821 390.374 311.55C389.677 312.556 387.346 317.577 387.463 319.579C387.608 322.083 393.157 318.515 395.002 319.036C396.846 319.557 393.002 324.839 394.417 325.768Z" fill="#31291F"/>
<circle cx="325.587" cy="322.01" r="6.12354" fill="#31291F"/>
<circle cx="335.91" cy="325.658" r="6.12354" fill="#31291F"/>
<path d="M399.453 392.673L389.438 357.77L411.593 342.595L405.827 392.673H399.453Z" fill="#44392B"/>
<circle cx="400.515" cy="395.768" r="6.12354" fill="#31291F"/>
<path d="M103.193 276.07C103.193 295.215 88.3286 294.626 69.1829 294.626C50.0373 294.626 33.8604 295.215 33.8604 276.07C33.8604 256.924 49.381 241.404 68.5266 241.404C87.6723 241.404 103.193 256.924 103.193 276.07Z" fill="#FFC070"/>
<path d="M121.375 256.896C119.207 255.673 107.445 255.219 99.4965 253.408C97.8315 253.519 102.44 266.38 110.919 265.747C114.117 265.418 123.544 258.119 121.375 256.896Z" fill="#FFB558"/>
<path d="M117.556 271.558C120.128 284.201 116.048 292.116 96.8521 290.444C80.8038 299.021 74.3428 293.516 71.7706 280.872C69.1984 268.229 77.3627 255.895 90.0059 253.322C102.649 250.75 114.984 258.914 117.556 271.558Z" fill="#FFC67D"/>
<path d="M91.5644 271.246C91.7184 272.584 90.7584 273.794 89.4204 273.948C88.0823 274.102 86.8728 273.142 86.7189 271.804C86.5649 270.466 87.116 272.884 89.3668 272.625C91.2528 272.408 91.4105 269.908 91.5644 271.246Z" fill="#3F3F3F"/>
<path d="M100.256 270.6C100.256 271.78 101.211 272.737 102.391 272.738C103.57 272.738 104.527 271.783 104.528 270.603C104.529 269.424 104.29 271.583 102.306 271.581C100.643 271.58 100.257 269.421 100.256 270.6Z" fill="#3F3F3F"/>
<circle cx="97.2296" cy="289.161" r="3.87472" transform="rotate(-11.4995 97.2296 289.161)" fill="#FFEACF"/>
<circle cx="91.6432" cy="283.696" r="8.16887" transform="rotate(-11.4995 91.6432 283.696)" fill="#FFEACF"/>
<circle cx="102.39" cy="282.369" r="7.3278" transform="rotate(-11.4995 102.39 282.369)" fill="#FFEACF"/>
<path d="M100.968 275.896C100.534 277.389 98.5153 277.339 97.4595 280.105C95.7079 277.593 95.0806 278.702 93.2505 276.597C93.0572 274.465 94.8478 275.003 96.979 274.809C99.1102 274.616 100.526 274.189 100.968 275.896Z" fill="#DE7177"/>
<path d="M89.6962 261.794C88.1874 261.668 85.0615 257.327 83.9516 255.465C88.6778 253.126 90.3371 253.119 93.6641 252.911C98.2272 252.625 100.233 253.199 102.64 254.037C102.56 255.403 101.568 259.46 100.084 261.143C98.2297 263.245 95.8065 256.279 93.8243 255.465C91.842 254.652 91.5823 261.951 89.6962 261.794Z" fill="#FFB558"/>
<path d="M52.1331 254.503C50.6652 254.874 46.617 251.91 44.9622 250.511C49.008 246.842 49.9199 246.091 52.9984 244.812C57.2208 243.059 59.8808 242.363 62.4094 242.001C62.7779 243.319 62.6019 248.438 61.7455 250.511C60.675 253.102 56.1193 247.302 53.9802 247.176C51.8411 247.051 53.968 254.039 52.1331 254.503Z" fill="#FFB558"/>
<path d="M67.4878 249.181C66.0991 248.578 64.7054 243.758 64.251 241.639C69.6954 241.207 71.3546 241.412 74.6285 241.902C79.15 242.58 82.0624 243.785 84.2847 245.044C83.771 246.312 79.4809 250.777 77.5362 251.895C75.1053 253.292 75.0437 245.917 73.427 244.51C71.8103 243.104 69.2237 249.935 67.4878 249.181Z" fill="#FFB558"/>
<path d="M60.4365 261.786C62.5621 260.282 74.7497 258.555 82.8247 255.822C84.5687 255.759 81.1478 269.631 72.2592 269.877C68.8973 269.877 58.3109 263.29 60.4365 261.786Z" fill="#FFB558"/>
<path d="M34.3558 278.786C33.6253 273.885 34.9221 272.515 32.8747 272.739C30.5974 272.739 25.5898 273.979 25.6501 279.406C25.7256 286.19 23.7795 296.365 53.2046 296.516L52.6735 283.781C52.6735 283.781 35.0863 283.688 34.3558 278.786Z" fill="#FFCD8D"/>
<path d="M59.42 290.1C59.42 293.637 56.5531 296.503 53.0167 296.503C49.4802 296.503 46.6133 293.637 46.6133 290.1C46.6133 286.564 49.4802 283.697 53.0167 283.697C56.5531 283.697 59.42 286.564 59.42 290.1Z" fill="#FFCD8D"/>
<path d="M247.311 150.43C242.568 145.029 230.744 145.735 225.486 146.513L245.295 157.427L247.311 150.43Z" fill="#8895BE"/>
</svg>
