<svg width="505" height="505" viewBox="0 0 505 505" fill="none" xmlns="http://www.w3.org/2000/svg">
<g clip-path="url(#clip0)">
<path d="M154.607 467.606L261.624 496.877V322.393L154.607 293.122V467.606Z" fill="#DADFEF"/>
<path d="M368.641 467.606L261.624 496.877V322.393L368.641 293.122V467.606Z" fill="#C2C9E0"/>
<path d="M261.475 269.535L368.641 293.122L261.475 322.455L154.31 293.122L261.475 269.535Z" fill="#E8EDFF"/>
<path d="M318.21 481.909L368.711 495.722V413.382L318.21 399.57V481.909Z" fill="#DADFEF"/>
<path d="M419.212 481.909L368.711 495.722V413.382L419.212 399.57V481.909Z" fill="#C2C9E0"/>
<path d="M368.64 388.439L419.212 399.57L368.64 413.412L318.069 399.57L368.64 388.439Z" fill="#E8EDFF"/>
<path d="M54.4155 479.327L124.703 498.552V383.953L54.4155 364.728V479.327Z" fill="#DADFEF"/>
<path d="M194.989 479.327L124.702 498.552V383.953L194.989 364.728V479.327Z" fill="#C2C9E0"/>
<path d="M124.605 349.236L194.989 364.728L124.605 383.993L54.2197 364.728L124.605 349.236Z" fill="#E8EDFF"/>
<ellipse cx="110.67" cy="350.512" rx="8.53726" ry="17.1273" transform="rotate(-20.7529 110.67 350.512)" fill="#FFB558"/>
<rect x="123.186" y="350.512" width="8.1748" height="16.566" fill="#DF9A44"/>
<ellipse rx="8.53726" ry="17.1273" transform="matrix(-0.935117 -0.354338 -0.354338 0.935117 144.142 350.512)" fill="#FFB558"/>
<path d="M117.355 367.614C119.927 362.882 115.031 349.489 112.116 343.445L126.613 343.566V371.6C122.455 372.243 114.783 372.346 117.355 367.614Z" fill="#FFC070"/>
<path d="M137.832 367.614C135.26 362.882 140.156 349.489 143.071 343.445L128.574 343.566V371.6C132.732 372.243 140.404 372.346 137.832 367.614Z" fill="#FFC070"/>
<circle cx="127.706" cy="332.646" r="18.8067" fill="#FFC070"/>
<ellipse cx="127.406" cy="331.292" rx="12.2878" ry="17.4521" fill="#FFDCAF"/>
<ellipse rx="6.96507" ry="6.90876" transform="matrix(-0.966092 0.258198 0.258198 0.966092 112.115 363.446)" fill="#FFC070"/>
<ellipse rx="6.96507" ry="6.90876" transform="matrix(-0.966092 0.258198 0.258198 0.966092 143.071 363.446)" fill="#FFC070"/>
<path d="M153.819 272.205C148.484 272.122 140.856 278.565 137.708 281.796C140.315 289.102 146.13 303.115 148.54 300.721C151.552 297.728 160.488 272.308 153.819 272.205Z" fill="#FFB558"/>
<path d="M151.466 276.509C147.86 276.453 142.704 280.808 140.577 282.992C142.339 287.93 146.269 297.401 147.898 295.783C149.934 293.76 155.974 276.579 151.466 276.509Z" fill="#FFDCAF"/>
<path d="M100.664 273.865C105.963 273.237 114.211 278.865 117.672 281.757C115.828 289.292 111.477 303.826 108.835 301.691C105.532 299.022 94.0414 274.651 100.664 273.865Z" fill="#FFB558"/>
<path d="M103.574 277.648C107.169 277.361 112.593 281.377 114.855 283.421C113.413 288.462 110.097 298.165 108.367 296.654C106.206 294.765 99.08 278.006 103.574 277.648Z" fill="#FFDCAF"/>
<path d="M149.74 301.333C149.74 313.502 144.48 320.05 127.054 314.896C110.609 319.805 105.673 313.502 105.673 301.333C105.673 289.165 115.538 279.3 127.706 279.3C139.875 279.3 149.74 289.165 149.74 301.333Z" fill="#FFC67D"/>
<circle cx="122.065" cy="295.685" r="2.30012" fill="#3F3F3F"/>
<circle cx="133.517" cy="295.685" r="2.30012" fill="#3F3F3F"/>
<circle cx="127.706" cy="313.84" r="3.65444" fill="#FFEACF"/>
<circle cx="122.173" cy="307.408" r="7.70447" fill="#FFEACF"/>
<circle cx="133.148" cy="307.408" r="7.70447" fill="#FFEACF"/>
<path d="M131.636 301.419C130.234 303.743 129.209 302.565 127.981 305.074C126.55 302.565 125.866 303.553 124.327 301.419C124.327 299.401 125.963 300.059 127.981 300.059C129.999 300.059 131.636 299.401 131.636 301.419Z" fill="#DE7177"/>
<path d="M123.303 287.434C121.89 287.226 119.59 283.047 118.655 281.23C123.242 279.306 124.418 279.306 127.562 279.306C131.874 279.306 133.728 279.965 135.944 280.896C135.788 282.178 134.615 285.938 133.12 287.434C131.25 289.304 129.38 282.604 127.562 281.721C125.744 280.838 125.069 287.694 123.303 287.434Z" fill="#FFB558"/>
<path d="M104.744 357.804C103.075 353.479 102.5 351.946 102.199 351.946C99.9184 351.946 96.8636 352.796 96.9241 358.23C96.9996 365.022 95.051 375.211 124.515 375.362L123.983 362.611C123.983 362.611 106.414 362.129 104.744 357.804Z" fill="#FFCD8D"/>
<path d="M130.739 368.938C130.739 372.479 127.868 375.349 124.327 375.349C120.786 375.349 117.915 372.479 117.915 368.938C117.915 365.397 120.786 362.526 124.327 362.526C127.868 362.526 130.739 365.397 130.739 368.938Z" fill="#FFCD8D"/>
<ellipse cx="261.396" cy="293.905" rx="58.7586" ry="7.11492" fill="#C2C9E0"/>
<path d="M258.621 264.552L274.297 283.251L256.798 289.685L251.359 271.004L258.621 264.552Z" fill="#FBF7F2"/>
<path d="M256.347 276.662H278.183L278.224 289.778H256.387L256.347 276.662Z" fill="#FBF7F2"/>
<path d="M249.726 277.675L249.726 293.983L238.096 293.938L238.096 277.63L249.726 277.675Z" fill="#FBF7F2"/>
<path d="M226.379 19.6023C226.379 24.012 222.817 27.5867 218.423 27.5867C214.029 27.5867 210.467 24.012 210.467 19.6023C210.467 15.1926 214.029 11.6178 218.423 11.6178C222.817 11.6178 226.379 15.1926 226.379 19.6023Z" fill="#F6C442"/>
<path d="M232.897 10.5597C232.897 14.9694 229.335 18.5441 224.941 18.5441C220.547 18.5441 216.985 14.9694 216.985 10.5597C216.985 6.14997 220.547 2.5752 224.941 2.5752C229.335 2.5752 232.897 6.14997 232.897 10.5597Z" fill="#F6C442"/>
<path d="M226.379 30.5689C226.379 34.9786 222.817 38.5534 218.423 38.5534C214.029 38.5534 210.467 34.9786 210.467 30.5689C210.467 26.1592 214.029 22.5844 218.423 22.5844C222.817 22.5844 226.379 26.1592 226.379 30.5689Z" fill="#F6C442"/>
<path d="M236.156 24.797C236.156 29.2067 232.594 32.7814 228.2 32.7814C223.806 32.7814 220.244 29.2067 220.244 24.797C220.244 20.3873 223.806 16.8125 228.2 16.8125C232.594 16.8125 236.156 20.3873 236.156 24.797Z" fill="#F6C442"/>
<path d="M234.075 34.4168C234.075 38.8265 230.513 42.4013 226.119 42.4013C221.725 42.4013 218.163 38.8265 218.163 34.4168C218.163 30.0071 221.725 26.4323 226.119 26.4323C230.513 26.4323 234.075 30.0071 234.075 34.4168Z" fill="#F6C442"/>
<path d="M243.323 6.51932C243.323 10.929 239.761 14.5038 235.367 14.5038C230.973 14.5038 227.411 10.929 227.411 6.51932C227.411 2.10962 230.973 -1.46515 235.367 -1.46515C239.761 -1.46515 243.323 2.10962 243.323 6.51932Z" fill="#FFCF55"/>
<path d="M253.265 8.82804C253.265 13.2377 249.703 16.8125 245.309 16.8125C240.915 16.8125 237.353 13.2377 237.353 8.82804C237.353 4.41834 240.915 0.843567 245.309 0.843567C249.703 0.843567 253.265 4.41834 253.265 8.82804Z" fill="#FFCF55"/>
<path d="M256.973 18.4479C256.973 22.8576 253.411 26.4323 249.017 26.4323C244.623 26.4323 241.061 22.8576 241.061 18.4479C241.061 14.0381 244.623 10.4634 249.017 10.4634C253.411 10.4634 256.973 14.0381 256.973 18.4479Z" fill="#FFCF55"/>
<path d="M247.187 24.797C247.187 29.2067 243.625 32.7814 239.231 32.7814C234.837 32.7814 231.275 29.2067 231.275 24.797C231.275 20.3873 234.837 16.8125 239.231 16.8125C243.625 16.8125 247.187 20.3873 247.187 24.797Z" fill="#F6C442"/>
<path d="M243.323 35.8354C243.323 40.2451 239.761 43.8198 235.367 43.8198C230.973 43.8198 227.411 40.2451 227.411 35.8354C227.411 31.4257 230.973 27.8509 235.367 27.8509C239.761 27.8509 243.323 31.4257 243.323 35.8354Z" fill="#F6C442"/>
<path d="M243.323 13.2532C243.323 17.6629 239.761 21.2377 235.367 21.2377C230.973 21.2377 227.411 17.6629 227.411 13.2532C227.411 8.84351 230.973 5.26874 235.367 5.26874C239.761 5.26874 243.323 8.84351 243.323 13.2532Z" fill="#F6C442"/>
<path d="M255.142 29.2222C255.142 33.6319 251.58 37.2067 247.186 37.2067C242.792 37.2067 239.23 33.6319 239.23 29.2222C239.23 24.8125 242.792 21.2377 247.186 21.2377C251.58 21.2377 255.142 24.8125 255.142 29.2222Z" fill="#FFCF55"/>
<path d="M251.087 16.0684C251.087 20.4781 247.525 24.0529 243.131 24.0529C238.737 24.0529 235.175 20.4781 235.175 16.0684C235.175 11.6587 238.737 8.08392 243.131 8.08392C247.525 8.08392 251.087 11.6587 251.087 16.0684Z" fill="#FFCF55"/>
<path d="M280.635 156.889C277.667 126.7 250.453 140.896 239.774 145.179L251.16 162.62C251.16 162.62 248.369 189.077 259.755 208.252C250.635 219.43 250.14 239.301 251.16 248.536L255.079 274.634L267.075 274.633C266.067 265.152 274.204 226.18 280.635 208.252C280.635 208.252 283.528 186.306 280.635 156.889Z" fill="#3F3F3F"/>
<path d="M226.609 161.729C229.578 131.539 256.792 145.735 267.47 150.019L256.085 167.459C256.085 167.459 253.72 197.424 251.745 209.228C252.17 215.448 254.74 229.842 253.72 239.078L250.218 270.789L250.218 279.473L237.543 279.473C239.737 262.105 224.132 242.296 233.477 212.995C233.477 212.995 223.717 191.145 226.609 161.729Z" fill="#3F3F3F"/>
<path d="M320.997 64.8165L314.625 78.4583L298.102 70.8585L304.474 57.2167L320.997 64.8165Z" fill="#F9DDD4"/>
<path d="M287.444 113.258C268.913 110.158 252.392 108.184 247.543 100.089C245.527 91 249.514 90.3945 260.599 91.512C274.576 92.9209 287.226 89.6824 289.892 86.9187L298.312 69.0372C305.999 69.5407 311.684 75.9301 315.391 79.2802C313.796 91.8978 305.974 116.358 287.444 113.258Z" fill="#8895BE"/>
<path d="M229.313 151.501C229.313 151.501 240.788 128.15 227.347 91.6459C238.372 85.4118 273.146 76.0449 268.967 87.146C264.789 98.2471 294.685 104.666 275.167 125.364C275.167 129.995 280.133 151.501 280.133 151.501H229.313Z" fill="#C2C9E0"/>
<path d="M229.225 61.9015C229.225 78.0233 242.081 91.0927 257.939 91.0927C273.797 91.0927 286.652 78.0233 286.652 61.9015C286.652 45.7796 273.797 32.7102 257.939 32.7102C242.081 32.7102 229.225 45.7796 229.225 61.9015Z" fill="#F9DDD4"/>
<path d="M229.169 170.061L221.221 157.286L236.556 147.496L244.504 160.271L229.169 170.061Z" fill="#F9DDD4"/>
<path d="M204.469 116.624C216.348 102.023 226.255 88.6133 235.665 88.406C244.527 91.1592 243.072 94.9326 236.603 104.033C228.448 115.507 224.97 128.131 226.038 131.824L239.517 145.065C235.266 151.511 224.727 156.255 219.99 157.821C209.866 150.172 192.59 131.225 204.469 116.624Z" fill="#8895BE"/>
<path d="M247.141 57.9985L251.443 58.1358L250.517 60.6758L247.141 57.9985Z" fill="#3F3F3F"/>
<path d="M280.58 50.4427L277.124 52.6193L279.092 54.2536L280.58 50.4427Z" fill="#3F3F3F"/>
<path d="M247.038 61.5907L250.891 59.6668L251.276 62.3434L247.038 61.5907Z" fill="#3F3F3F"/>
<path d="M282.423 52.9872L278.367 53.4125L279.413 55.7507L282.423 52.9872Z" fill="#3F3F3F"/>
<path d="M269.526 77.7248C269.526 79.8195 262.776 84.984 257.777 83.177C251.781 81.0095 252.09 76.7883 252.09 76.2345C252.09 74.1397 259.268 77.3176 261.356 77.3176C266.63 77.7248 269.526 75.6301 269.526 77.7248Z" fill="#FFFEFE"/>
<path d="M265.59 80.1636C261.664 81.1257 255.144 78.9058 252.204 77.5386C252.427 79.5901 254.667 83.3869 259.875 83.5679C265.084 83.749 268.301 80.7363 268.78 79.3126L265.59 80.1636Z" fill="#FAF8F8"/>
<path d="M265.802 55.7507C267.978 55.7498 274.255 68.4792 272.381 70.7935C270.508 73.1078 265.802 73.1078 265.802 73.1078C265.802 73.1078 263.625 55.7515 265.802 55.7507Z" fill="#F3C1B1"/>
<path d="M234.001 63.1865C234.288 67.0022 231.439 70.3169 227.638 70.5903C223.836 70.8636 220.52 67.992 220.233 64.1764C219.945 60.3607 222.794 57.0459 226.596 56.7726C230.398 56.4993 233.713 59.3709 234.001 63.1865Z" fill="#F9DDD4"/>
<path d="M233.487 63.2242C234.207 65.8441 233.939 72.7196 231.33 73.4307C228.721 74.1418 222.868 69.5142 222.148 66.8944C221.428 64.2746 226.114 64.6546 228.722 63.9435C231.331 63.2324 232.767 60.6044 233.487 63.2242Z" fill="#F9DDD4"/>
<path d="M235.526 65.5536C231.674 58.31 243.051 40.0138 236.849 37.6996L227.09 37.369C216.339 43.1547 219.67 62.0699 222.647 58.7638C225.029 56.1189 228.393 60.2218 230.267 60.4973L233.501 68.7199L235.526 65.5536Z" fill="#F7C442"/>
<path d="M254.874 53.9319C253.211 54.0371 250.646 54.3241 250.495 54.3341C246.185 54.6182 245.829 56.315 243.284 60.4244C245.164 50.4945 250.052 51.6953 255.776 50.9334C257.257 51.4994 256.458 53.8316 254.874 53.9319Z" fill="#9E8568"/>
<path d="M273.602 50.2688C274.556 49.9577 276.558 48.9302 277.522 48.8741C279.656 48.7499 280.027 48.5362 282.359 50.2688C279.456 45.376 278.676 47.1238 272.409 48.105C271.706 48.7512 272.694 50.5653 273.602 50.2688Z" fill="#9E8568"/>
<path d="M281.978 46.1498C272.98 31.6148 249.087 36.536 238.265 40.8135L226.379 38.2725C236.476 24.2965 252.964 25.8211 256.415 24.9317C259.176 24.2202 262.593 26.4987 263.956 27.7269C264.876 26.5072 268.089 28.2351 269.58 29.2516C271.318 28.4384 274.053 30.4374 275.204 31.5386C277.146 31.6402 277.973 34.122 278.143 35.3502C280.086 35.0452 281.509 38.1877 281.978 39.7971C284.228 41.7283 282.915 44.8369 281.978 46.1498Z" fill="#FFCF55"/>
<path d="M244.964 74.3205C244.679 74.873 244.001 75.0883 243.45 74.8015C242.9 74.5147 243.683 74.3544 243.969 73.802C244.255 73.2495 243.935 72.5142 244.485 72.801C245.036 73.0878 245.25 73.7681 244.964 74.3205Z" fill="#F3C1B1"/>
<path d="M256.643 59.6667C256.643 62.2152 255.306 61.3161 253.266 62.3312C251.227 63.3462 249.889 61.5384 249.889 59.6667C249.889 57.7949 251.401 56.2776 253.266 56.2776C255.131 56.2776 256.643 57.7949 256.643 59.6667Z" fill="#3F3F3F"/>
<path d="M279.86 54.452C280.051 57.2282 278.837 55.9797 276.874 56.9237C274.755 57.9424 273.887 56.1075 273.887 54.452C273.887 52.7965 275.224 51.4545 276.874 51.4545C278.523 51.4545 279.86 52.7965 279.86 54.452Z" fill="#3F3F3F"/>
<path d="M232.365 283.041H255.51L255.456 297.2H232.311L232.365 283.041Z" fill="#FBF7F2"/>
<path d="M435.898 461.085L445.914 426.182L423.758 411.007L429.525 461.085H435.898Z" fill="#44392B"/>
<path d="M481.949 453.679C489.235 459.265 497.019 455.1 499.076 454.93C503.487 454.565 506.307 463.429 501.359 464.872C488.689 468.566 470.209 473.45 457.331 426.53L469.16 423.643C469.16 423.643 474.662 448.094 481.949 453.679Z" fill="#31291F"/>
<path d="M460.721 415.337C457.48 416.216 456.094 421.504 457.626 427.147C467.313 435.299 463.025 436.653 466.266 435.774C469.507 434.895 467.639 430.331 469.16 423.643C467.629 417.999 463.962 414.457 460.721 415.337Z" fill="#31291F"/>
<circle r="6.12354" transform="matrix(-1 0 0 1 430.562 464.18)" fill="#31291F"/>
<path d="M466.064 421.117C457.204 385.073 417.905 373.545 399.362 372.286C367.144 372.286 376.457 411.048 402.635 405.763C423.576 401.534 442.236 431.185 448.948 446.539L466.064 421.117Z" fill="#554839"/>
<path d="M427.349 424.283C427.349 430.779 432.616 436.046 439.112 436.046C445.609 436.046 450.875 430.779 450.875 424.283C450.875 417.786 427.101 409.774 420.605 409.774C420.605 409.774 427.349 417.786 427.349 424.283Z" fill="#31291F"/>
<path d="M367.135 337.829C372.176 338.264 378.753 345.076 381.411 348.427C378.249 355.069 371.415 367.729 369.372 365.238C366.818 362.125 360.833 337.285 367.135 337.829Z" fill="#554839"/>
<path d="M368.94 342.116C372.347 342.41 376.792 347.014 378.589 349.279C376.452 353.768 371.833 362.325 370.452 360.642C368.726 358.537 364.681 341.748 368.94 342.116Z" fill="#D2C0AC"/>
<path d="M410.172 337.834C405.131 338.265 398.548 345.071 395.887 348.42C399.042 355.065 405.865 367.731 407.911 365.242C410.468 362.131 416.474 337.296 410.172 337.834Z" fill="#554839"/>
<path d="M408.194 341.904C404.801 342.327 400.532 347.095 398.822 349.426C401.126 353.832 406.064 362.209 407.381 360.474C409.027 358.307 412.436 341.377 408.194 341.904Z" fill="#D2C0AC"/>
<path d="M367.828 367.071C367.828 378.61 378.963 380.476 389.341 379.932C398.706 379.932 409.616 378.61 409.616 367.071C409.616 355.531 400.262 346.177 388.722 346.177C377.182 346.177 367.828 355.531 367.828 367.071Z" fill="#7E6A51"/>
<circle r="2.18119" transform="matrix(-1 0 0 1 394.072 361.714)" fill="#44392B"/>
<circle r="2.18119" transform="matrix(-1 0 0 1 383.212 361.714)" fill="#44392B"/>
<circle r="3.46549" transform="matrix(-1 0 0 1 388.723 376.673)" fill="#D2C0AC"/>
<circle r="5.82787" transform="matrix(-1 0 0 1 392.874 370.845)" fill="#D2C0AC"/>
<circle r="5.82787" transform="matrix(-1 0 0 1 384.571 370.845)" fill="#D2C0AC"/>
<path d="M385.716 366.314C386.776 368.072 387.552 367.181 388.48 369.079C389.563 367.181 390.08 367.928 391.245 366.314C391.245 364.788 390.007 365.285 388.48 365.285C386.954 365.285 385.716 364.788 385.716 366.314Z" fill="#44392B"/>
<path d="M392.898 353.89C394.238 353.693 396.419 349.73 397.305 348.006C392.956 346.183 391.84 346.183 388.859 346.183C384.77 346.183 383.011 346.808 380.91 347.691C381.058 348.906 382.17 352.472 383.589 353.89C385.362 355.663 387.135 349.309 388.859 348.472C390.583 347.635 391.223 354.136 392.898 353.89Z" fill="#44392B"/>
<path d="M436.148 392.568C437.424 393.022 442.916 390.271 444.507 389.164C440.864 386.275 438.781 384.917 436.148 383.518C432.536 381.6 430.425 380.663 428.423 379.842C427.984 380.985 427.339 386.283 427.927 388.201C428.661 390.599 433.207 385.819 435.122 385.889C437.038 385.958 434.554 392 436.148 392.568Z" fill="#31291F"/>
<path d="M448.636 403.399C449.768 404.143 455.775 403.121 457.584 402.423C454.728 398.754 452.815 396.784 450.778 394.607C449.029 392.735 446.344 390.452 444.594 389.181C443.896 390.187 441.566 395.207 441.682 397.21C441.828 399.713 447.377 396.146 449.221 396.667C451.065 397.187 447.221 402.47 448.636 403.399Z" fill="#31291F"/>
<circle cx="379.807" cy="399.64" r="6.12354" fill="#31291F"/>
<circle cx="390.129" cy="403.289" r="6.12354" fill="#31291F"/>
<path d="M453.672 470.304L443.657 435.4L465.812 420.225L460.046 470.304H453.672Z" fill="#44392B"/>
<circle cx="454.734" cy="473.398" r="6.12354" fill="#31291F"/>
</g>
<defs>
<clipPath id="clip0">
<rect width="505" height="505" fill="white"/>
</clipPath>
</defs>
</svg>
