<svg width="464" height="464" viewBox="0 0 464 464" fill="none" xmlns="http://www.w3.org/2000/svg">
<path d="M317.436 270.814C322.068 272.849 326.101 281.417 327.538 285.446C322.406 290.715 311.859 300.5 310.726 297.484C309.311 293.714 311.646 268.269 317.436 270.814Z" fill="#554839"/>
<path d="M317.765 275.454C320.896 276.83 323.621 282.62 324.593 285.343C321.124 288.905 313.995 295.518 313.23 293.48C312.273 290.932 313.851 273.734 317.765 275.454Z" fill="#D2C0AC"/>
<path d="M358.178 284.68C353.267 283.464 344.843 287.787 341.244 290.101C342.092 297.408 344.472 311.597 347.21 309.899C350.633 307.777 364.318 286.2 358.178 284.68Z" fill="#554839"/>
<path d="M354.995 287.896C351.647 287.203 346.07 290.342 343.7 291.999C344.462 296.911 346.439 306.432 348.244 305.215C350.501 303.692 359.182 288.763 354.995 287.896Z" fill="#D2C0AC"/>
<path d="M308.675 298.721C304.958 309.646 314.9 314.998 324.899 317.826C333.766 320.842 344.52 323.104 348.237 312.18C351.953 301.255 346.11 289.386 335.185 285.669C324.26 281.953 312.391 287.796 308.675 298.721Z" fill="#7E6A51"/>
<circle r="2.18119" transform="matrix(-0.946719 -0.322062 -0.322062 0.946719 335.245 302.102)" fill="#44392B"/>
<circle r="2.18119" transform="matrix(-0.946719 -0.322062 -0.322062 0.946719 324.964 298.604)" fill="#44392B"/>
<circle r="3.46549" transform="matrix(-0.946719 -0.322062 -0.322062 0.946719 325.364 314.541)" fill="#D2C0AC"/>
<circle r="5.82787" transform="matrix(-0.946719 -0.322062 -0.322062 0.946719 331.17 310.36)" fill="#D2C0AC"/>
<circle r="5.82787" transform="matrix(-0.946719 -0.322062 -0.322062 0.946719 323.31 307.686)" fill="#D2C0AC"/>
<path d="M325.853 303.766C326.29 305.771 327.312 305.178 327.58 307.273C329.216 305.826 329.465 306.699 331.087 305.547C331.579 304.101 330.247 304.173 328.801 303.682C327.356 303.19 326.345 302.321 325.853 303.766Z" fill="#44392B"/>
<path d="M336.654 294.317C337.986 294.562 341.327 291.513 342.721 290.166C339.191 287.039 338.135 286.68 335.312 285.72C331.441 284.403 329.575 284.428 327.302 284.587C327.05 285.785 326.955 289.519 327.841 291.319C328.948 293.569 332.673 288.124 334.575 287.887C336.477 287.649 334.989 294.011 336.654 294.317Z" fill="#44392B"/>
<path d="M101.883 397.267L208.9 426.538V252.054L101.883 222.783V397.267Z" fill="#DADFEF"/>
<path d="M315.916 397.267L208.899 426.538V252.054L315.916 222.783V397.267Z" fill="#C2C9E0"/>
<path d="M208.751 199.196L315.916 222.783L208.751 252.115L101.585 222.783L208.751 199.196Z" fill="#E8EDFF"/>
<path d="M263.989 404.278L314.491 418.091V335.752L263.989 321.939V404.278Z" fill="#DADFEF"/>
<path d="M364.992 404.278L314.491 418.091V335.752L364.992 321.939V404.278Z" fill="#C2C9E0"/>
<path d="M314.42 310.808L364.992 321.939L314.42 335.781L263.849 321.939L314.42 310.808Z" fill="#E8EDFF"/>
<path d="M0.196289 401.696L70.4835 420.921V306.322L0.196289 287.098V401.696Z" fill="#DADFEF"/>
<path d="M140.77 401.696L70.4823 420.921V306.322L140.77 287.098V401.696Z" fill="#C2C9E0"/>
<path d="M70.3848 271.606L140.77 287.097L70.3848 306.363L0 287.097L70.3848 271.606Z" fill="#E8EDFF"/>
<path d="M259.545 301.052C261.915 295.307 263.523 296.796 264.521 291.311C265.52 285.826 267.92 278.146 276.31 291.311C286.797 307.767 300.495 306.426 303.277 306.426C305.503 306.426 304.205 311.102 303.277 313.44L295.786 318.565C294.255 320.039 286.626 316.893 281.661 313.44C276.696 309.987 271.031 310.113 267.964 311.551C262.822 313.963 257.841 305.18 259.545 301.052Z" fill="white"/>
<ellipse cx="56.4506" cy="272.881" rx="8.53726" ry="17.1273" transform="rotate(-20.7529 56.4506 272.881)" fill="#FFB558"/>
<rect x="68.9668" y="272.881" width="8.1748" height="16.566" fill="#DF9A44"/>
<ellipse rx="8.53726" ry="17.1273" transform="matrix(-0.935117 -0.354338 -0.354338 0.935117 89.9224 272.881)" fill="#FFB558"/>
<path d="M63.1354 289.983C65.7074 285.251 60.8114 271.859 57.8964 265.815L72.3942 265.936V293.97C68.2362 294.613 60.5634 294.716 63.1354 289.983Z" fill="#FFC070"/>
<path d="M83.6127 289.983C81.0407 285.251 85.9367 271.859 88.8516 265.815L74.3539 265.936V293.97C78.5118 294.613 86.1847 294.716 83.6127 289.983Z" fill="#FFC070"/>
<circle cx="73.4863" cy="255.016" r="18.8067" fill="#FFC070"/>
<ellipse cx="73.1862" cy="253.661" rx="12.2878" ry="17.4521" fill="#FFDCAF"/>
<ellipse rx="6.96507" ry="6.90876" transform="matrix(-0.966092 0.258198 0.258198 0.966092 57.8958 285.816)" fill="#FFC070"/>
<ellipse rx="6.96507" ry="6.90876" transform="matrix(-0.966092 0.258198 0.258198 0.966092 88.8518 285.816)" fill="#FFC070"/>
<path d="M99.6002 194.574C94.2652 194.491 86.6366 200.934 83.4892 204.166C86.0954 211.472 91.9104 225.484 94.3204 223.09C97.333 220.097 106.269 194.678 99.6002 194.574Z" fill="#FFB558"/>
<path d="M97.2466 198.878C93.6407 198.822 88.4846 203.177 86.3572 205.361C88.1188 210.299 92.0491 219.77 93.678 218.152C95.7142 216.129 101.754 198.948 97.2466 198.878Z" fill="#FFDCAF"/>
<path d="M46.4452 196.235C51.7437 195.606 59.9916 201.234 63.4532 204.127C61.6083 211.661 57.258 226.195 54.6156 224.06C51.3126 221.391 39.8221 197.02 46.4452 196.235Z" fill="#FFB558"/>
<path d="M49.354 200.017C52.9489 199.731 58.3729 203.747 60.6356 205.791C59.1934 210.831 55.8768 220.534 54.1477 219.023C51.9864 217.135 44.8603 200.375 49.354 200.017Z" fill="#FFDCAF"/>
<path d="M95.52 223.703C95.52 235.872 90.2606 242.42 72.8341 237.265C56.3894 242.174 51.4531 235.872 51.4531 223.703C51.4531 211.534 61.3178 201.669 73.4866 201.669C85.6553 201.669 95.52 211.534 95.52 223.703Z" fill="#FFC67D"/>
<circle cx="67.845" cy="218.054" r="2.30012" fill="#3F3F3F"/>
<circle cx="79.2962" cy="218.054" r="2.30012" fill="#3F3F3F"/>
<circle cx="73.4865" cy="236.209" r="3.65444" fill="#FFEACF"/>
<circle cx="67.9525" cy="229.778" r="7.70447" fill="#FFEACF"/>
<circle cx="78.9281" cy="229.778" r="7.70447" fill="#FFEACF"/>
<path d="M77.4153 223.789C76.0139 226.112 74.9884 224.935 73.7609 227.443C72.3297 224.935 71.646 225.922 70.1064 223.789C70.1064 221.771 71.7426 222.428 73.7609 222.428C75.7792 222.428 77.4153 221.771 77.4153 223.789Z" fill="#DE7177"/>
<path d="M69.0831 209.803C67.6703 209.596 65.3705 205.417 64.4355 203.599C69.0223 201.676 70.1982 201.676 73.3422 201.676C77.6543 201.676 79.5087 202.335 81.7244 203.266C81.5686 204.547 80.3957 208.308 78.8998 209.803C77.03 211.673 75.1601 204.973 73.3422 204.09C71.5243 203.207 70.8491 210.063 69.0831 209.803Z" fill="#FFB558"/>
<path d="M50.5242 280.173C48.8544 275.848 48.2796 274.316 47.9785 274.316C45.6982 274.316 42.6434 275.165 42.7039 280.599C42.7794 287.392 40.8307 297.58 70.2949 297.732L69.763 284.98C69.763 284.98 52.194 284.498 50.5242 280.173Z" fill="#FFCD8D"/>
<path d="M76.5185 291.307C76.5185 294.848 73.6478 297.719 70.1067 297.719C66.5655 297.719 63.6949 294.848 63.6949 291.307C63.6949 287.766 66.5655 284.895 70.1067 284.895C73.6478 284.895 76.5185 287.766 76.5185 291.307Z" fill="#FFCD8D"/>
<path d="M223.98 192.555C193.878 188.796 201.727 218.47 203.552 229.83L220.52 233.657C220.52 233.657 249.615 233.657 260.705 232.156C260.705 232.156 246.262 239.888 264.533 290.254L276.223 290.254L278.547 260.551C278.547 260.551 284.488 223.1 274.116 215.908C274.116 215.908 253.31 196.217 223.98 192.555Z" fill="#3F3F3F"/>
<path d="M211.295 305.465C199.796 263.404 201.79 250.962 202.275 241.749C205.282 238.743 217.708 231.255 222.642 241.749C234.705 267.411 225.43 284.471 225.43 305.465C219.379 310.353 213.525 307.502 211.295 305.465Z" fill="#3F3F3F"/>
<path d="M235.329 215.004C235.329 227.06 223.714 246.489 211.658 246.489C199.602 246.489 191.672 227.06 191.672 215.004C191.672 202.949 201.445 193.176 213.501 193.176C225.556 193.176 235.329 183.246 235.329 215.004Z" fill="#3F3F3F"/>
<path d="M194.398 64.1463C194.398 68.556 190.835 72.1308 186.441 72.1308C182.047 72.1308 178.485 68.556 178.485 64.1463C178.485 59.7366 182.047 56.1619 186.441 56.1619C190.835 56.1619 194.398 59.7366 194.398 64.1463Z" fill="#F6C442"/>
<path d="M200.915 55.1037C200.915 59.5134 197.353 63.0882 192.959 63.0882C188.565 63.0882 185.003 59.5134 185.003 55.1037C185.003 50.694 188.565 47.1193 192.959 47.1193C197.353 47.1193 200.915 50.694 200.915 55.1037Z" fill="#F6C442"/>
<path d="M194.398 75.113C194.398 79.5227 190.835 83.0974 186.441 83.0974C182.047 83.0974 178.485 79.5227 178.485 75.113C178.485 70.7032 182.047 67.1285 186.441 67.1285C190.835 67.1285 194.398 70.7032 194.398 75.113Z" fill="#F6C442"/>
<path d="M204.175 69.341C204.175 73.7507 200.613 77.3255 196.219 77.3255C191.825 77.3255 188.263 73.7507 188.263 69.341C188.263 64.9313 191.825 61.3566 196.219 61.3566C200.613 61.3566 204.175 64.9313 204.175 69.341Z" fill="#F6C442"/>
<path d="M202.094 78.9609C202.094 83.3706 198.532 86.9453 194.138 86.9453C189.744 86.9453 186.182 83.3706 186.182 78.9609C186.182 74.5511 189.744 70.9764 194.138 70.9764C198.532 70.9764 202.094 74.5511 202.094 78.9609Z" fill="#F6C442"/>
<path d="M211.342 51.0634C211.342 55.4731 207.78 59.0479 203.386 59.0479C198.992 59.0479 195.43 55.4731 195.43 51.0634C195.43 46.6537 198.992 43.0789 203.386 43.0789C207.78 43.0789 211.342 46.6537 211.342 51.0634Z" fill="#FFCF55"/>
<path d="M221.283 53.3721C221.283 57.7818 217.721 61.3566 213.327 61.3566C208.933 61.3566 205.371 57.7818 205.371 53.3721C205.371 48.9624 208.933 45.3876 213.327 45.3876C217.721 45.3876 221.283 48.9624 221.283 53.3721Z" fill="#FFCF55"/>
<path d="M224.991 62.9919C224.991 67.4016 221.429 70.9764 217.035 70.9764C212.641 70.9764 209.079 67.4016 209.079 62.9919C209.079 58.5822 212.641 55.0074 217.035 55.0074C221.429 55.0074 224.991 58.5822 224.991 62.9919Z" fill="#FFCF55"/>
<path d="M215.206 69.341C215.206 73.7507 211.644 77.3255 207.25 77.3255C202.856 77.3255 199.294 73.7507 199.294 69.341C199.294 64.9313 202.856 61.3566 207.25 61.3566C211.644 61.3566 215.206 64.9313 215.206 69.341Z" fill="#F6C442"/>
<path d="M211.342 80.3794C211.342 84.7891 207.78 88.3639 203.386 88.3639C198.992 88.3639 195.43 84.7891 195.43 80.3794C195.43 75.9697 198.992 72.395 203.386 72.395C207.78 72.395 211.342 75.9697 211.342 80.3794Z" fill="#F6C442"/>
<path d="M211.342 57.7973C211.342 62.207 207.78 65.7817 203.386 65.7817C198.992 65.7817 195.43 62.207 195.43 57.7973C195.43 53.3876 198.992 49.8128 203.386 49.8128C207.78 49.8128 211.342 53.3876 211.342 57.7973Z" fill="#F6C442"/>
<path d="M223.161 73.7663C223.161 78.176 219.599 81.7507 215.205 81.7507C210.811 81.7507 207.249 78.176 207.249 73.7663C207.249 69.3566 210.811 65.7818 215.205 65.7818C219.599 65.7818 223.161 69.3566 223.161 73.7663Z" fill="#FFCF55"/>
<path d="M219.106 60.6125C219.106 65.0222 215.543 68.5969 211.149 68.5969C206.755 68.5969 203.193 65.0222 203.193 60.6125C203.193 56.2028 206.755 52.628 211.149 52.628C215.543 52.628 219.106 56.2028 219.106 60.6125Z" fill="#FFCF55"/>
<path d="M289.015 109.361L282.643 123.002L266.12 115.403L272.492 101.761L289.015 109.361Z" fill="#F9DDD4"/>
<path d="M255.462 157.802C236.931 154.702 220.41 152.728 215.561 144.633C213.545 135.544 217.533 134.939 228.617 136.056C242.594 137.465 255.244 134.226 257.91 131.463L266.33 113.581C274.017 114.085 279.702 120.474 283.409 123.824C281.814 136.442 273.992 160.902 255.462 157.802Z" fill="#8895BE"/>
<path d="M195.367 201.69C195.367 201.69 208.807 172.694 195.365 136.19C206.39 129.956 241.165 120.589 236.986 131.69C232.807 142.791 262.703 149.21 243.186 169.908C243.186 174.539 247.274 195.54 247.274 195.54L195.367 201.69Z" fill="#C2C9E0"/>
<path d="M197.245 106.446C197.245 122.567 210.1 135.637 225.958 135.637C241.816 135.637 254.672 122.567 254.672 106.446C254.672 90.3236 241.816 77.2543 225.958 77.2543C210.1 77.2543 197.245 90.3236 197.245 106.446Z" fill="#F9DDD4"/>
<path d="M197.188 214.605L189.24 201.83L204.575 192.04L212.524 204.815L197.188 214.605Z" fill="#F9DDD4"/>
<path d="M172.487 161.168C184.366 146.567 194.274 133.157 203.683 132.95C212.546 135.703 211.09 139.477 204.622 148.577C196.466 160.051 192.989 172.675 194.056 176.368L207.535 189.609C203.284 196.055 192.746 200.799 188.008 202.365C177.885 194.716 160.608 175.769 172.487 161.168Z" fill="#8895BE"/>
<path d="M215.16 102.543L219.463 102.68L218.537 105.22L215.16 102.543Z" fill="#3F3F3F"/>
<path d="M248.598 94.9868L245.143 97.1634L247.11 98.7977L248.598 94.9868Z" fill="#3F3F3F"/>
<path d="M215.057 106.135L218.91 104.211L219.296 106.887L215.057 106.135Z" fill="#3F3F3F"/>
<path d="M250.442 97.5312L246.385 97.9566L247.432 100.295L250.442 97.5312Z" fill="#3F3F3F"/>
<path d="M237.544 122.269C237.544 124.364 230.795 129.528 225.796 127.721C219.8 125.554 220.108 121.332 220.108 120.779C220.108 118.684 227.287 121.862 229.375 121.862C234.648 122.269 237.544 120.174 237.544 122.269Z" fill="#FFFEFE"/>
<path d="M233.609 124.708C229.683 125.67 223.163 123.45 220.223 122.083C220.446 124.134 222.686 127.931 227.894 128.112C233.103 128.293 236.32 125.28 236.799 123.857L233.609 124.708Z" fill="#FAF8F8"/>
<path d="M233.82 100.295C235.997 100.294 242.273 113.023 240.4 115.338C238.526 117.652 233.82 117.652 233.82 117.652C233.82 117.652 231.643 100.296 233.82 100.295Z" fill="#F3C1B1"/>
<path d="M202.019 107.731C202.307 111.546 199.458 114.861 195.656 115.134C191.854 115.408 188.539 112.536 188.251 108.72C187.964 104.905 190.813 101.59 194.614 101.317C198.416 101.043 201.732 103.915 202.019 107.731Z" fill="#F9DDD4"/>
<path d="M201.506 107.768C202.226 110.388 201.958 117.264 199.349 117.975C196.74 118.686 190.887 114.058 190.167 111.438C189.447 108.819 194.133 109.199 196.741 108.488C199.35 107.776 200.786 105.148 201.506 107.768Z" fill="#F9DDD4"/>
<path d="M203.544 110.098C199.693 102.854 211.07 84.5579 204.867 82.2436L195.109 81.913C184.358 87.6987 187.688 106.614 190.665 103.308C193.047 100.663 196.411 104.766 198.286 105.041L201.52 113.264L203.544 110.098Z" fill="#F7C442"/>
<path d="M222.892 95.5648C221.23 95.67 218.665 95.9569 218.513 95.967C214.203 96.251 213.848 97.9478 211.303 102.057C213.183 92.1274 218.071 93.3282 223.795 92.5663C225.275 93.1322 224.476 95.4644 222.892 95.5648Z" fill="#9E8568"/>
<path d="M241.245 93.1897C242.198 92.8786 244.201 91.8511 245.165 91.7949C247.298 91.6707 247.669 91.4571 250.001 93.1897C247.098 88.2968 246.318 90.0446 240.052 91.0258C239.349 91.672 240.337 93.4862 241.245 93.1897Z" fill="#9E8568"/>
<path d="M249.998 90.6939C241 76.1589 217.107 81.0801 206.285 85.3576L194.398 82.8165C204.496 68.8405 220.984 70.3652 224.435 69.4758C227.195 68.7643 230.612 71.0428 231.976 72.271C232.896 71.0513 236.108 72.7792 237.599 73.7956C239.338 72.9825 242.073 74.9815 243.223 76.0826C245.166 76.1843 245.992 78.6661 246.163 79.8942C248.106 79.5893 249.529 82.7318 249.998 84.3412C252.247 86.2724 250.935 89.381 249.998 90.6939Z" fill="#FFCF55"/>
<path d="M212.983 118.865C212.698 119.417 212.02 119.632 211.469 119.346C210.919 119.059 211.702 118.898 211.988 118.346C212.274 117.794 211.954 117.058 212.504 117.345C213.055 117.632 213.269 118.312 212.983 118.865Z" fill="#F3C1B1"/>
<path d="M224.662 104.211C224.662 106.759 223.325 105.86 221.285 106.875C219.246 107.89 217.908 106.082 217.908 104.211C217.908 102.339 219.42 100.822 221.285 100.822C223.15 100.822 224.662 102.339 224.662 104.211Z" fill="#3F3F3F"/>
<path d="M247.88 98.9961C248.07 101.772 246.856 100.524 244.893 101.468C242.774 102.486 241.906 100.652 241.906 98.9961C241.906 97.3406 243.243 95.9986 244.893 95.9986C246.543 95.9986 247.88 97.3406 247.88 98.9961Z" fill="#3F3F3F"/>
<path d="M209.838 324.356C211.426 318.859 211.416 309.647 211.212 305.728L225.871 303.437C227.194 304.557 228.228 310.042 228.228 310.042L229.841 323.287C229.841 323.287 233.773 340.269 228.228 342.088C221.865 344.174 211.823 343.116 208.769 338.108C204.952 331.847 207.853 331.227 209.838 324.356Z" fill="#F2F2F2"/>
</svg>
