<svg width="505" height="505" viewBox="0 0 505 505" fill="none" xmlns="http://www.w3.org/2000/svg">
<path d="M409.592 362.539C404.656 361.046 395.856 365.009 392.073 367.177C392.557 374.659 394.242 389.225 397.117 387.64C400.711 385.658 415.763 364.405 409.592 362.539Z" fill="#554839"/>
<path d="M406.263 365.915C402.926 364.906 396.979 367.584 394.422 369.05C394.748 374.106 395.888 383.952 397.831 382.88C400.26 381.541 410.433 367.176 406.263 365.915Z" fill="#D2C0AC"/>
<path d="M359.751 349.975C364.842 350.797 371.014 358.216 373.463 361.824C369.749 368.336 361.848 380.689 359.959 378.004C357.598 374.647 353.387 348.947 359.751 349.975Z" fill="#554839"/>
<path d="M361.45 354.262C364.867 354.95 368.842 360.122 370.403 362.622C367.725 366.924 362.067 375.062 360.861 373.199C359.354 370.87 357.179 353.403 361.45 354.262Z" fill="#D2C0AC"/>
<path d="M398.07 388.528C394.841 399.837 383.405 398.549 373.387 395.112C364.208 392.49 353.886 388.142 357.115 376.832C360.345 365.523 372.131 358.973 383.44 362.202C394.75 365.432 401.3 377.218 398.07 388.528Z" fill="#7E6A51"/>
<circle cx="373.849" cy="375.933" r="2.22314" transform="rotate(15.9376 373.849 375.933)" fill="#44392B"/>
<circle cx="384.492" cy="378.972" r="2.22314" transform="rotate(15.9376 384.492 378.972)" fill="#44392B"/>
<circle cx="374.904" cy="392.09" r="3.53213" transform="rotate(15.9376 374.904 392.09)" fill="#D2C0AC"/>
<circle cx="372.467" cy="385.217" r="5.93994" transform="rotate(15.9376 372.467 385.217)" fill="#D2C0AC"/>
<circle cx="380.604" cy="387.54" r="5.93994" transform="rotate(15.9376 380.604 387.54)" fill="#D2C0AC"/>
<path d="M380.75 382.78C379.219 384.206 378.708 383.116 377.267 384.716C376.737 382.553 376.021 383.14 375.331 381.233C375.759 379.737 376.832 380.57 378.329 380.997C379.825 381.425 381.177 381.284 380.75 382.78Z" fill="#44392B"/>
<path d="M377.189 368.593C375.931 368.025 374.903 363.531 374.516 361.594C379.29 361.024 380.383 361.336 383.305 362.17C387.312 363.315 388.861 364.419 390.673 365.873C390.188 367.022 388.1 370.206 386.313 371.199C384.079 372.44 384.119 365.717 382.664 364.414C381.209 363.111 378.762 369.303 377.189 368.593Z" fill="#44392B"/>
<path d="M154.607 467.606L261.624 496.877V322.393L154.607 293.122V467.606Z" fill="#CCD1E2"/>
<path d="M368.641 467.606L261.624 496.877V322.393L368.641 293.122V467.606Z" fill="#AAAFC1"/>
<path d="M261.475 269.535L368.641 293.122L261.475 322.455L154.31 293.122L261.475 269.535Z" fill="#DADFEF"/>
<path d="M318.21 481.909L368.711 495.722V413.382L318.21 399.57V481.909Z" fill="#CCD1E2"/>
<path d="M419.212 481.909L368.711 495.722V413.382L419.212 399.57V481.909Z" fill="#AAAFC1"/>
<path d="M368.64 388.439L419.212 399.57L368.64 413.412L318.069 399.57L368.64 388.439Z" fill="#DADFEF"/>
<path d="M53.4155 479.327L123.703 498.552V383.953L53.4155 364.728V479.327Z" fill="#CCD1E2"/>
<path d="M193.989 479.327L123.702 498.552V383.953L193.989 364.728V479.327Z" fill="#AAAFC1"/>
<path d="M123.605 349.236L193.989 364.728L123.605 383.993L53.2197 364.728L123.605 349.236Z" fill="#DADFEF"/>
<ellipse cx="261.098" cy="294.645" rx="58.6864" ry="7.08455" fill="#AAAFC1"/>
<path d="M258.324 265.417L273.981 284.036L256.503 290.443L251.071 271.842L258.324 265.417Z" fill="#FBF7F2"/>
<path d="M256.055 277.475H277.864L277.904 290.535H256.095L256.055 277.475Z" fill="#FBF7F2"/>
<path d="M249.441 278.484L249.441 294.722L237.825 294.678L237.825 278.439L249.441 278.484Z" fill="#FBF7F2"/>
<path d="M226.125 21.5123C226.125 25.9032 222.567 29.4627 218.178 29.4627C213.79 29.4627 210.232 25.9032 210.232 21.5123C210.232 17.1215 213.79 13.562 218.178 13.562C222.567 13.562 226.125 17.1215 226.125 21.5123Z" fill="#F6C442"/>
<path d="M232.634 12.5084C232.634 16.8993 229.077 20.4588 224.688 20.4588C220.299 20.4588 216.742 16.8993 216.742 12.5084C216.742 8.1175 220.299 4.55798 224.688 4.55798C229.077 4.55798 232.634 8.1175 232.634 12.5084Z" fill="#F6C442"/>
<path d="M226.125 32.4321C226.125 36.823 222.567 40.3825 218.178 40.3825C213.79 40.3825 210.232 36.823 210.232 32.4321C210.232 28.0412 213.79 24.4817 218.178 24.4817C222.567 24.4817 226.125 28.0412 226.125 32.4321Z" fill="#F6C442"/>
<path d="M235.89 26.6849C235.89 31.0758 232.332 34.6353 227.943 34.6353C223.555 34.6353 219.997 31.0758 219.997 26.6849C219.997 22.294 223.555 18.7345 227.943 18.7345C232.332 18.7345 235.89 22.294 235.89 26.6849Z" fill="#F6C442"/>
<path d="M233.811 36.2636C233.811 40.6545 230.253 44.214 225.864 44.214C221.476 44.214 217.918 40.6545 217.918 36.2636C217.918 31.8727 221.476 28.3132 225.864 28.3132C230.253 28.3132 233.811 31.8727 233.811 36.2636Z" fill="#F6C442"/>
<path d="M243.048 8.48525C243.048 12.8761 239.49 16.4356 235.102 16.4356C230.713 16.4356 227.155 12.8761 227.155 8.48525C227.155 4.09436 230.713 0.534851 235.102 0.534851C239.49 0.534851 243.048 4.09436 243.048 8.48525Z" fill="#FFCF55"/>
<path d="M252.978 10.7842C252.978 15.1751 249.42 18.7346 245.031 18.7346C240.643 18.7346 237.085 15.1751 237.085 10.7842C237.085 6.39331 240.643 2.8338 245.031 2.8338C249.42 2.8338 252.978 6.39331 252.978 10.7842Z" fill="#FFCF55"/>
<path d="M256.681 20.3629C256.681 24.7538 253.123 28.3133 248.734 28.3133C244.346 28.3133 240.788 24.7538 240.788 20.3629C240.788 15.972 244.346 12.4125 248.734 12.4125C253.123 12.4125 256.681 15.972 256.681 20.3629Z" fill="#FFCF55"/>
<path d="M246.907 26.6849C246.907 31.0758 243.349 34.6353 238.96 34.6353C234.572 34.6353 231.014 31.0758 231.014 26.6849C231.014 22.294 234.572 18.7345 238.96 18.7345C243.349 18.7345 246.907 22.294 246.907 26.6849Z" fill="#F6C442"/>
<path d="M243.048 37.6761C243.048 42.067 239.49 45.6265 235.102 45.6265C230.713 45.6265 227.155 42.067 227.155 37.6761C227.155 33.2852 230.713 29.7257 235.102 29.7257C239.49 29.7257 243.048 33.2852 243.048 37.6761Z" fill="#F6C442"/>
<path d="M243.048 15.1904C243.048 19.5813 239.49 23.1408 235.102 23.1408C230.713 23.1408 227.155 19.5813 227.155 15.1904C227.155 10.7995 230.713 7.23999 235.102 7.23999C239.49 7.23999 243.048 10.7995 243.048 15.1904Z" fill="#F6C442"/>
<path d="M254.853 31.0912C254.853 35.4821 251.295 39.0416 246.906 39.0416C242.518 39.0416 238.96 35.4821 238.96 31.0912C238.96 26.7003 242.518 23.1408 246.906 23.1408C251.295 23.1408 254.853 26.7003 254.853 31.0912Z" fill="#FFCF55"/>
<path d="M250.801 17.9934C250.801 22.3843 247.244 25.9438 242.855 25.9438C238.466 25.9438 234.909 22.3843 234.909 17.9934C234.909 13.6025 238.466 10.043 242.855 10.043C247.244 10.043 250.801 13.6025 250.801 17.9934Z" fill="#FFCF55"/>
<path d="M280.313 158.214C277.348 128.153 250.168 142.288 239.502 146.553L250.874 163.92C250.874 163.92 248.086 190.264 259.459 209.357C250.35 220.488 249.855 240.273 250.874 249.469L254.788 275.455L266.769 275.455C265.763 266.014 273.889 227.208 280.313 209.357C280.313 209.357 283.202 187.505 280.313 158.214Z" fill="#3F3F3F"/>
<path d="M226.354 163.032C229.318 132.971 256.499 147.107 267.164 151.372L255.793 168.738C255.793 168.738 253.431 198.575 251.459 210.329C251.883 216.522 254.45 230.855 253.431 240.052L249.933 271.627L249.933 280.274L237.274 280.274C239.465 262.98 223.879 243.255 233.213 214.08C233.213 214.08 223.465 192.323 226.354 163.032Z" fill="#3F3F3F"/>
<path d="M319.657 146.297L304.081 147.873L302.1 129.819L317.675 128.244L319.657 146.297Z" fill="#F9DDD4"/>
<path d="M260.857 137.226C257.295 118.795 253.383 102.637 259.245 95.2844C267.02 90.2405 268.974 93.765 271.792 104.535C275.345 118.114 282.772 128.837 286.278 130.374L305.025 128.481C307.233 135.856 304.117 146.969 302.283 151.603C289.959 154.491 264.419 155.658 260.857 137.226Z" fill="#8895BE"/>
<path d="M229.054 152.848C229.054 152.848 240.692 140.107 227.089 93.2485C238.101 87.041 272.833 77.714 268.659 88.7677C264.485 99.8215 294.345 106.213 274.851 126.823C274.851 131.434 279.811 152.848 279.811 152.848H229.054Z" fill="#C2C9E0"/>
<path d="M228.967 63.6311C228.967 79.6841 241.807 92.6977 257.645 92.6977C273.484 92.6977 286.323 79.6841 286.323 63.6311C286.323 47.578 273.484 34.5644 257.645 34.5644C241.807 34.5644 228.967 47.578 228.967 63.6311Z" fill="#F9DDD4"/>
<path d="M238.186 171.371L228.558 159.871L242.374 148.089L252.002 159.59L238.186 171.371Z" fill="#F9DDD4"/>
<path d="M206.367 122.081C216.099 106.032 224.047 91.431 233.325 89.9221C242.472 91.4094 241.554 95.3335 236.413 105.207C229.93 117.656 228.235 130.591 229.801 134.086L244.963 145.279C241.648 152.227 231.88 158.367 227.41 160.569C216.34 154.427 196.634 138.131 206.367 122.081Z" fill="#8895BE"/>
<path d="M246.86 59.7448L251.157 59.8815L250.232 62.4106L246.86 59.7448Z" fill="#3F3F3F"/>
<path d="M280.258 52.2212L276.806 54.3886L278.772 56.0158L280.258 52.2212Z" fill="#3F3F3F"/>
<path d="M246.757 63.3215L250.605 61.4058L250.991 64.071L246.757 63.3215Z" fill="#3F3F3F"/>
<path d="M282.1 54.7547L278.048 55.1782L279.093 57.5064L282.1 54.7547Z" fill="#3F3F3F"/>
<path d="M233.736 64.9105C234.023 68.7099 231.177 72.0105 227.38 72.2827C223.583 72.5549 220.272 69.6955 219.985 65.8961C219.697 62.0968 222.543 58.7962 226.34 58.524C230.137 58.2518 233.448 61.1112 233.736 64.9105Z" fill="#F9DDD4"/>
<path d="M233.221 64.948C233.941 67.5566 233.673 74.4028 231.067 75.1108C228.462 75.8189 222.616 71.2111 221.896 68.6025C221.177 65.9939 225.857 66.3722 228.463 65.6642C231.068 64.9561 232.502 62.3393 233.221 64.948Z" fill="#F9DDD4"/>
<path d="M235.259 67.2675C231.412 60.0548 242.775 41.8368 236.58 39.5324L226.834 39.2032C216.096 44.9642 219.422 63.7987 222.396 60.5067C224.775 57.8731 228.134 61.9584 230.007 62.2328L233.237 70.4203L235.259 67.2675Z" fill="#F6C442"/>
<path d="M254.582 55.6954C252.922 55.8002 250.36 56.0859 250.208 56.0959C245.903 56.3787 245.548 58.0683 243.006 62.1602C244.884 52.2727 249.766 53.4684 255.483 52.7097C256.962 53.2732 256.164 55.5955 254.582 55.6954Z" fill="#9E8568"/>
<path d="M273.289 52.048C274.24 51.7383 276.24 50.7152 277.204 50.6593C279.334 50.5356 279.705 50.3228 282.034 52.048C279.134 47.1761 278.355 48.9164 272.097 49.8934C271.395 50.5368 272.381 52.3433 273.289 52.048Z" fill="#9E8568"/>
<path d="M281.654 47.9465C272.667 33.4735 248.803 38.3738 237.995 42.633L226.123 40.1028C236.208 26.1864 252.676 27.7045 256.122 26.8189C258.88 26.1105 262.292 28.3793 263.654 29.6022C264.573 28.3877 267.782 30.1083 269.271 31.1204C271.007 30.3107 273.739 32.3012 274.888 33.3976C276.828 33.4988 277.654 35.97 277.824 37.193C279.764 36.8893 281.186 40.0184 281.654 41.6209C283.901 43.5439 282.59 46.6392 281.654 47.9465Z" fill="#FFCF55"/>
<path d="M256.351 61.4059C256.351 63.2696 254.841 64.7805 252.978 64.7805C251.115 64.7805 249.605 63.2696 249.605 61.4059C249.605 59.5421 251.115 58.0312 252.978 58.0312C254.841 58.0312 256.351 59.5421 256.351 61.4059Z" fill="#3F3F3F"/>
<path d="M279.539 56.2133C279.539 57.8617 278.203 59.198 276.555 59.198C274.908 59.198 273.572 57.8617 273.572 56.2133C273.572 54.5649 274.908 53.2286 276.555 53.2286C278.203 53.2286 279.539 54.5649 279.539 56.2133Z" fill="#3F3F3F"/>
<path d="M232.103 283.827H255.219L255.165 297.925H232.048L232.103 283.827Z" fill="#FBF7F2"/>
<path d="M268.582 79.5256C268.582 80.2661 265.575 82.2071 261.889 82.2071C258.203 82.2071 255.36 80.2661 255.36 79.5256C255.36 78.7852 258.203 79.5256 261.889 79.5256C265.575 79.5256 268.582 78.7852 268.582 79.5256Z" fill="#F3C1B1"/>
<path d="M156.33 354.485C156.33 373.631 141.465 373.041 122.32 373.041C103.174 373.041 86.9971 373.631 86.9971 354.485C86.9971 335.34 102.518 319.819 121.663 319.819C140.809 319.819 156.33 335.34 156.33 354.485Z" fill="#FFC070"/>
<path d="M174.512 335.311C172.343 334.088 160.581 333.635 152.633 331.823C150.968 331.934 155.576 344.796 164.056 344.162C167.254 343.834 176.681 336.534 174.512 335.311Z" fill="#FFB558"/>
<path d="M170.692 349.973C173.264 362.616 169.184 370.531 149.988 368.86C133.94 377.436 127.479 371.931 124.907 359.288C122.335 346.644 130.499 334.31 143.142 331.738C155.785 329.165 168.12 337.33 170.692 349.973Z" fill="#FFC67D"/>
<path d="M144.701 349.662C144.855 351 143.895 352.209 142.557 352.363C141.219 352.517 140.009 351.557 139.855 350.219C139.701 348.881 140.252 351.299 142.503 351.04C144.389 350.823 144.547 348.323 144.701 349.662Z" fill="#3F3F3F"/>
<path d="M153.393 349.016C153.392 350.195 154.347 351.152 155.527 351.153C156.707 351.154 157.663 350.198 157.664 349.019C157.665 347.839 157.426 349.998 155.442 349.997C153.779 349.995 153.393 347.836 153.393 349.016Z" fill="#3F3F3F"/>
<circle cx="150.367" cy="367.577" r="3.87472" transform="rotate(-11.4995 150.367 367.577)" fill="#FFEACF"/>
<circle cx="144.78" cy="362.111" r="8.16887" transform="rotate(-11.4995 144.78 362.111)" fill="#FFEACF"/>
<circle cx="155.527" cy="360.784" r="7.3278" transform="rotate(-11.4995 155.527 360.784)" fill="#FFEACF"/>
<path d="M154.105 354.312C153.671 355.804 151.653 355.754 150.597 358.521C148.845 356.009 148.218 357.117 146.388 355.012C146.194 352.881 147.985 353.418 150.116 353.225C152.247 353.031 153.663 352.604 154.105 354.312Z" fill="#DE7177"/>
<path d="M142.832 340.209C141.324 340.083 138.198 335.742 137.088 333.881C141.814 331.541 143.473 331.535 146.8 331.326C151.363 331.04 153.369 331.614 155.776 332.453C155.696 333.819 154.704 337.876 153.221 339.558C151.366 341.661 148.943 334.694 146.96 333.881C144.978 333.067 144.719 340.367 142.832 340.209Z" fill="#FFB558"/>
<path d="M105.27 332.918C103.802 333.289 99.7542 330.326 98.0994 328.926C102.145 325.257 103.057 324.506 106.136 323.228C110.358 321.474 113.018 320.778 115.547 320.417C115.915 321.735 115.739 326.853 114.883 328.926C113.812 331.517 109.257 325.717 107.117 325.592C104.978 325.466 107.105 332.454 105.27 332.918Z" fill="#FFB558"/>
<path d="M120.625 327.596C119.236 326.993 117.842 322.174 117.388 320.054C122.832 319.623 124.491 319.827 127.765 320.318C132.287 320.995 135.199 322.2 137.421 323.459C136.908 324.728 132.618 329.193 130.673 330.31C128.242 331.707 128.18 324.332 126.564 322.926C124.947 321.519 122.36 328.35 120.625 327.596Z" fill="#FFB558"/>
<path d="M113.573 340.201C115.699 338.697 127.886 336.97 135.961 334.237C137.705 334.174 134.285 348.047 125.396 348.292C122.034 348.292 111.448 341.705 113.573 340.201Z" fill="#FFB558"/>
<path d="M87.4925 357.202C86.7621 352.3 88.0588 350.93 86.0114 351.154C83.7341 351.154 78.7265 352.395 78.7869 357.822C78.8623 364.605 76.9162 374.78 106.341 374.931L105.81 362.197C105.81 362.197 88.223 362.103 87.4925 357.202Z" fill="#FFCD8D"/>
<path d="M112.557 368.515C112.557 372.052 109.69 374.919 106.153 374.919C102.617 374.919 99.7501 372.052 99.7501 368.515C99.7501 364.979 102.617 362.112 106.153 362.112C109.69 362.112 112.557 364.979 112.557 368.515Z" fill="#FFCD8D"/>
<path d="M264.538 55.7507C266.715 55.7498 272.991 68.4792 271.117 70.7935C269.244 73.1078 264.538 73.1078 264.538 73.1078C264.538 73.1078 262.361 55.7515 264.538 55.7507Z" fill="#F3C1B1"/>
</svg>
