<svg width="277" height="314" viewBox="0 0 277 314" fill="none" xmlns="http://www.w3.org/2000/svg">
<path d="M51.517 0.695465H118.12L169.078 313.595H119.908L110.968 251.462V252.356H55.093L46.153 313.595H0.559082L51.517 0.695465ZM105.157 209.891L83.254 55.2294H82.36L60.904 209.891H105.157Z" fill="white"/>
<path d="M204.521 313.595H169.078L158.645 270.683C157.122 270.683 197.85 270.683 197.85 270.683C207.684 270.683 214.985 268.299 219.753 263.531C224.521 258.465 226.905 250.866 226.905 240.734V0.695465H276.075V239.393C276.075 265.021 270.115 284.093 258.195 296.609C246.573 309.125 228.658 313.595 204.521 313.595Z" fill="white"/>
</svg>
