<svg width="230" height="462" viewBox="0 0 230 462" fill="none" xmlns="http://www.w3.org/2000/svg">
<ellipse cx="118.745" cy="450.837" rx="89.9707" ry="10.8556" fill="#AAAFC1"/>
<path d="M114.495 406.052L138.498 434.581L111.704 444.399L103.376 415.896L114.495 406.052Z" fill="#FBF7F2"/>
<path d="M111.015 424.528H144.45L144.512 444.54H111.076L111.015 424.528Z" fill="#FBF7F2"/>
<path d="M100.875 426.074L100.875 450.956L83.0659 450.888L83.0659 426.005L100.875 426.074Z" fill="#FBF7F2"/>
<path d="M65.1278 32.3199C65.1278 39.048 59.6736 44.5022 52.9455 44.5022C46.2174 44.5022 40.7632 39.048 40.7632 32.3199C40.7632 25.5918 46.2174 20.1376 52.9455 20.1376C59.6736 20.1376 65.1278 25.5918 65.1278 32.3199Z" fill="#E7C368"/>
<path d="M75.1078 18.5231C75.1078 25.2512 69.6536 30.7054 62.9255 30.7054C56.1974 30.7054 50.7432 25.2512 50.7432 18.5231C50.7432 11.795 56.1974 6.34079 62.9255 6.34079C69.6536 6.34079 75.1078 11.795 75.1078 18.5231Z" fill="#E7C368"/>
<path d="M65.1278 49.0521C65.1278 55.7802 59.6736 61.2344 52.9455 61.2344C46.2174 61.2344 40.7632 55.7802 40.7632 49.0521C40.7632 42.324 46.2174 36.8698 52.9455 36.8698C59.6736 36.8698 65.1278 42.324 65.1278 49.0521Z" fill="#E7C368"/>
<path d="M80.098 40.2456C80.098 46.9737 74.6438 52.4279 67.9157 52.4279C61.1876 52.4279 55.7334 46.9737 55.7334 40.2456C55.7334 33.5175 61.1876 28.0633 67.9157 28.0633C74.6438 28.0633 80.098 33.5175 80.098 40.2456Z" fill="#E7C368"/>
<path d="M76.9115 54.9231C76.9115 61.6511 71.4573 67.1053 64.7292 67.1053C58.0011 67.1053 52.5469 61.6511 52.5469 54.9231C52.5469 48.195 58.0011 42.7408 64.7292 42.7408C71.4573 42.7408 76.9115 48.195 76.9115 54.9231Z" fill="#E7C368"/>
<path d="M91.0731 12.3585C91.0731 19.0866 85.6189 24.5408 78.8908 24.5408C72.1627 24.5408 66.7085 19.0866 66.7085 12.3585C66.7085 5.63044 72.1627 0.176239 78.8908 0.176239C85.6189 0.176239 91.0731 5.63044 91.0731 12.3585Z" fill="#F2CF76"/>
<path d="M106.295 15.881C106.295 22.6091 100.841 28.0633 94.1125 28.0633C87.3844 28.0633 81.9302 22.6091 81.9302 15.881C81.9302 9.15293 87.3844 3.69873 94.1125 3.69873C100.841 3.69873 106.295 9.15293 106.295 15.881Z" fill="#F2CF76"/>
<path d="M111.973 30.5585C111.973 37.2866 106.518 42.7408 99.7902 42.7408C93.0621 42.7408 87.6079 37.2866 87.6079 30.5585C87.6079 23.8304 93.0621 18.3762 99.7902 18.3762C106.518 18.3762 111.973 23.8304 111.973 30.5585Z" fill="#F2CF76"/>
<path d="M96.9891 40.2456C96.9891 46.9737 91.5349 52.4279 84.8068 52.4279C78.0787 52.4279 72.6245 46.9737 72.6245 40.2456C72.6245 33.5175 78.0787 28.0633 84.8068 28.0633C91.5349 28.0633 96.9891 33.5175 96.9891 40.2456Z" fill="#E7C368"/>
<path d="M91.0731 57.0873C91.0731 63.8154 85.6189 69.2696 78.8908 69.2696C72.1627 69.2696 66.7085 63.8154 66.7085 57.0873C66.7085 50.3592 72.1627 44.905 78.8908 44.905C85.6189 44.905 91.0731 50.3592 91.0731 57.0873Z" fill="#E7C368"/>
<path d="M91.0731 22.6327C91.0731 29.3608 85.6189 34.815 78.8908 34.815C72.1627 34.815 66.7085 29.3608 66.7085 22.6327C66.7085 15.9046 72.1627 10.4504 78.8908 10.4504C85.6189 10.4504 91.0731 15.9046 91.0731 22.6327Z" fill="#E7C368"/>
<path d="M109.171 46.9974C109.171 53.7255 103.717 59.1797 96.9884 59.1797C90.2604 59.1797 84.8062 53.7255 84.8062 46.9974C84.8062 40.2693 90.2604 34.8151 96.9884 34.8151C103.717 34.8151 109.171 40.2693 109.171 46.9974Z" fill="#F2CF76"/>
<path d="M102.96 26.928C102.96 33.6561 97.5061 39.1103 90.778 39.1103C84.0499 39.1103 78.5957 33.6561 78.5957 26.928C78.5957 20.1999 84.0499 14.7457 90.778 14.7457C97.5061 14.7457 102.96 20.1999 102.96 26.928Z" fill="#F2CF76"/>
<path d="M148.204 241.786C143.659 195.723 101.989 217.383 85.6379 223.918L103.072 250.529C103.072 250.529 98.798 290.895 116.233 320.152C102.268 337.207 101.51 367.524 103.072 381.616L109.072 421.433L127.44 421.433C125.897 406.967 138.356 347.505 148.204 320.152C148.204 320.152 152.633 286.668 148.204 241.786Z" fill="#3F3F3F"/>
<path d="M65.48 249.169C70.0252 203.107 111.695 224.767 128.046 231.302L110.613 257.913C110.613 257.913 106.992 303.631 103.968 321.641C104.619 331.131 108.554 353.094 106.992 367.185L101.63 415.568L101.63 428.817L82.2216 428.817C85.5807 402.318 61.6862 372.094 75.9955 327.389C75.9955 327.389 61.0512 294.052 65.48 249.169Z" fill="#3F3F3F"/>
<path d="M208.521 223.526L184.643 225.941L181.605 198.277L205.484 195.863L208.521 223.526Z" fill="#EAD3C3"/>
<path d="M118.377 209.627C112.916 181.385 106.919 156.626 115.906 145.36C127.826 137.631 130.821 143.032 135.141 159.534C140.589 180.341 151.974 196.772 157.349 199.128L186.09 196.226C189.475 207.526 184.698 224.555 181.886 231.657C162.992 236.081 123.838 237.869 118.377 209.627Z" fill="#8895BE"/>
<path d="M69.6189 233.564C69.6189 233.564 87.462 214.04 66.6076 142.24C83.4893 132.729 136.736 118.437 130.337 135.375C123.939 152.312 169.715 162.106 139.83 193.686C139.83 200.751 147.434 233.564 147.434 233.564H69.6189Z" fill="#C2C9E0"/>
<path d="M69.4858 96.8577C69.4858 121.456 89.17 141.396 113.452 141.396C137.733 141.396 157.417 121.456 157.417 96.8577C157.417 72.2598 137.733 52.3192 113.452 52.3192C89.17 52.3192 69.4858 72.2598 69.4858 96.8577Z" fill="#EAD3C3"/>
<path d="M83.6211 261.947L68.8606 244.325L90.0409 226.272L104.801 243.894L83.6211 261.947Z" fill="#EAD3C3"/>
<path d="M34.8399 186.421C49.7608 161.828 61.9447 139.455 76.1696 137.143C90.192 139.422 88.7841 145.435 80.9026 160.564C70.965 179.639 68.3659 199.459 70.7667 204.815L94.0108 221.966C88.9292 232.613 73.9536 242.021 67.101 245.395C50.1303 235.984 19.9191 211.013 34.8399 186.421Z" fill="#8895BE"/>
<path d="M96.9178 90.9029L103.506 91.1123L102.088 94.9877L96.9178 90.9029Z" fill="#3F3F3F"/>
<path d="M148.119 79.3746L142.828 82.6956L145.841 85.1891L148.119 79.3746Z" fill="#3F3F3F"/>
<path d="M96.7598 96.3836L102.659 93.4482L103.25 97.5321L96.7598 96.3836Z" fill="#3F3F3F"/>
<path d="M150.942 83.2567L144.73 83.9057L146.332 87.4731L150.942 83.2567Z" fill="#3F3F3F"/>
<path d="M127.796 82.6956L137.87 105.647L127.796 109.178L127.796 82.6956Z" fill="#E6C6B0"/>
<path d="M76.7973 98.8184C77.2378 104.64 72.8756 109.698 67.0541 110.115C61.2327 110.532 56.1564 106.15 55.716 100.329C55.2755 94.5069 59.6377 89.4494 65.4591 89.0324C71.2806 88.6153 76.3568 92.9967 76.7973 98.8184Z" fill="#E6C6B0"/>
<path d="M76.0102 98.8758C77.1129 102.873 76.7027 113.363 72.7081 114.448C68.7135 115.533 59.751 108.473 58.6483 104.476C57.5457 100.478 64.7204 101.058 68.715 99.9732C72.7095 98.8883 74.9076 94.8787 76.0102 98.8758Z" fill="#E6C6B0"/>
<path d="M79.1324 102.43C73.2347 91.3781 90.6556 63.4628 81.1584 59.9318L66.2161 59.4274C49.7543 68.2549 54.8538 97.1149 59.4124 92.0706C63.0594 88.0351 68.2104 94.295 71.0806 94.7153L76.0328 107.261L79.1324 102.43Z" fill="#E7C368"/>
<path d="M108.758 84.6982C106.213 84.8588 102.285 85.2966 102.052 85.3118C95.4531 85.7453 94.9087 88.3342 91.0118 94.6041C93.8908 79.4537 101.375 81.2857 110.14 80.1233C112.407 80.9868 111.183 84.5451 108.758 84.6982Z" fill="#9E8568"/>
<path d="M137.435 79.1093C138.895 78.6347 141.961 77.0669 143.438 76.9813C146.704 76.7918 147.272 76.4658 150.843 79.1093C146.398 71.6441 145.203 74.3107 135.608 75.8078C134.532 76.7937 136.044 79.5617 137.435 79.1093Z" fill="#9E8568"/>
<path d="M150.26 72.8248C136.482 50.648 99.8976 58.1565 83.3273 64.6829L65.127 60.8059C80.5878 39.482 105.834 41.8082 111.118 40.4512C115.345 39.3657 120.577 42.8421 122.665 44.716C124.074 42.855 128.993 45.4914 131.276 47.0423C133.938 45.8016 138.126 48.8516 139.887 50.5316C142.862 50.6867 144.127 54.4733 144.388 56.3472C147.363 55.882 149.542 60.6766 150.26 63.1321C153.705 66.0786 151.695 70.8216 150.26 72.8248Z" fill="#F2CF76"/>
<path d="M111.468 93.4481C111.468 96.3039 109.153 98.619 106.297 98.619C103.441 98.619 101.126 96.3039 101.126 93.4481C101.126 90.5923 103.441 88.2772 106.297 88.2772C109.153 88.2772 111.468 90.5923 111.468 93.4481Z" fill="#3F3F3F"/>
<path d="M147.018 85.4917C147.018 88.0176 144.97 90.0651 142.444 90.0651C139.919 90.0651 137.871 88.0176 137.871 85.4917C137.871 82.9659 139.919 80.9184 142.444 80.9184C144.97 80.9184 147.018 82.9659 147.018 85.4917Z" fill="#3F3F3F"/>
<path d="M74.2935 434.261H109.733L109.65 455.864H74.2106L74.2935 434.261Z" fill="#FBF7F2"/>
<path d="M130.22 121.213C130.22 122.347 125.61 125.322 119.959 125.322C114.308 125.322 109.949 122.347 109.949 121.213C109.949 120.078 114.308 121.213 119.959 121.213C125.61 121.213 130.22 120.078 130.22 121.213Z" fill="#E5C6B0"/>
</svg>
