<svg width="240" height="462" viewBox="0 0 240 462" fill="none" xmlns="http://www.w3.org/2000/svg">
<ellipse cx="120.151" cy="450.837" rx="89.9707" ry="10.8556" fill="#AAAFC1"/>
<path d="M115.901 406.052L139.904 434.581L113.11 444.399L104.782 415.896L115.901 406.052Z" fill="#FBF7F2"/>
<path d="M112.42 424.528H145.856L145.918 444.54H112.482L112.42 424.528Z" fill="#FBF7F2"/>
<path d="M102.281 426.074L102.281 450.956L84.4722 450.888L84.4722 426.005L102.281 426.074Z" fill="#FBF7F2"/>
<path d="M66.5335 32.3199C66.5335 39.048 61.0793 44.5022 54.3512 44.5022C47.6231 44.5022 42.1689 39.048 42.1689 32.3199C42.1689 25.5918 47.6231 20.1376 54.3512 20.1376C61.0793 20.1376 66.5335 25.5918 66.5335 32.3199Z" fill="#E7C368"/>
<path d="M76.5135 18.5231C76.5135 25.2512 71.0593 30.7054 64.3312 30.7054C57.6031 30.7054 52.1489 25.2512 52.1489 18.5231C52.1489 11.795 57.6031 6.34079 64.3312 6.34079C71.0593 6.34079 76.5135 11.795 76.5135 18.5231Z" fill="#E7C368"/>
<path d="M66.5335 49.0521C66.5335 55.7802 61.0793 61.2344 54.3512 61.2344C47.6231 61.2344 42.1689 55.7802 42.1689 49.0521C42.1689 42.324 47.6231 36.8698 54.3512 36.8698C61.0793 36.8698 66.5335 42.324 66.5335 49.0521Z" fill="#E7C368"/>
<path d="M81.5038 40.2456C81.5038 46.9737 76.0496 52.4279 69.3215 52.4279C62.5934 52.4279 57.1392 46.9737 57.1392 40.2456C57.1392 33.5175 62.5934 28.0633 69.3215 28.0633C76.0496 28.0633 81.5038 33.5175 81.5038 40.2456Z" fill="#E7C368"/>
<path d="M78.3172 54.9231C78.3172 61.6511 72.863 67.1053 66.1349 67.1053C59.4068 67.1053 53.9526 61.6511 53.9526 54.9231C53.9526 48.195 59.4068 42.7408 66.1349 42.7408C72.863 42.7408 78.3172 48.195 78.3172 54.9231Z" fill="#E7C368"/>
<path d="M92.4789 12.3585C92.4789 19.0866 87.0247 24.5408 80.2966 24.5408C73.5685 24.5408 68.1143 19.0866 68.1143 12.3585C68.1143 5.63044 73.5685 0.176239 80.2966 0.176239C87.0247 0.176239 92.4789 5.63044 92.4789 12.3585Z" fill="#F2CF76"/>
<path d="M107.701 15.881C107.701 22.6091 102.246 28.0633 95.5182 28.0633C88.7901 28.0633 83.3359 22.6091 83.3359 15.881C83.3359 9.15293 88.7901 3.69873 95.5182 3.69873C102.246 3.69873 107.701 9.15293 107.701 15.881Z" fill="#F2CF76"/>
<path d="M113.378 30.5585C113.378 37.2866 107.924 42.7408 101.196 42.7408C94.4679 42.7408 89.0137 37.2866 89.0137 30.5585C89.0137 23.8304 94.4679 18.3762 101.196 18.3762C107.924 18.3762 113.378 23.8304 113.378 30.5585Z" fill="#F2CF76"/>
<path d="M98.3949 40.2456C98.3949 46.9737 92.9407 52.4279 86.2126 52.4279C79.4845 52.4279 74.0303 46.9737 74.0303 40.2456C74.0303 33.5175 79.4845 28.0633 86.2126 28.0633C92.9407 28.0633 98.3949 33.5175 98.3949 40.2456Z" fill="#E7C368"/>
<path d="M92.4789 57.0873C92.4789 63.8154 87.0247 69.2696 80.2966 69.2696C73.5685 69.2696 68.1143 63.8154 68.1143 57.0873C68.1143 50.3592 73.5685 44.905 80.2966 44.905C87.0247 44.905 92.4789 50.3592 92.4789 57.0873Z" fill="#E7C368"/>
<path d="M92.4789 22.6327C92.4789 29.3608 87.0247 34.815 80.2966 34.815C73.5685 34.815 68.1143 29.3608 68.1143 22.6327C68.1143 15.9046 73.5685 10.4504 80.2966 10.4504C87.0247 10.4504 92.4789 15.9046 92.4789 22.6327Z" fill="#E7C368"/>
<path d="M110.577 46.9974C110.577 53.7255 105.122 59.1797 98.3942 59.1797C91.6661 59.1797 86.2119 53.7255 86.2119 46.9974C86.2119 40.2693 91.6661 34.8151 98.3942 34.8151C105.122 34.8151 110.577 40.2693 110.577 46.9974Z" fill="#F2CF76"/>
<path d="M104.366 26.928C104.366 33.6561 98.9119 39.1103 92.1838 39.1103C85.4557 39.1103 80.0015 33.6561 80.0015 26.928C80.0015 20.1999 85.4557 14.7457 92.1838 14.7457C98.9119 14.7457 104.366 20.1999 104.366 26.928Z" fill="#F2CF76"/>
<path d="M149.61 241.786C145.065 195.723 103.395 217.383 87.0436 223.918L104.477 250.529C104.477 250.529 100.204 290.895 117.639 320.152C103.674 337.207 102.915 367.524 104.477 381.616L110.478 421.433L128.846 421.433C127.303 406.967 139.761 347.505 149.61 320.152C149.61 320.152 154.039 286.668 149.61 241.786Z" fill="#3F3F3F"/>
<path d="M66.8857 249.169C71.431 203.107 113.101 224.767 129.452 231.302L112.018 257.913C112.018 257.913 108.398 303.631 105.374 321.641C106.025 331.131 109.96 353.094 108.398 367.185L103.035 415.568L103.035 428.817L83.6273 428.817C86.9864 402.318 63.092 372.094 77.4012 327.389C77.4012 327.389 62.4569 294.052 66.8857 249.169Z" fill="#3F3F3F"/>
<path d="M218.582 224.287L194.703 226.702L191.665 199.038L215.544 196.623L218.582 224.287Z" fill="#EAD3C3"/>
<path d="M128.437 210.388C122.977 182.146 116.979 157.387 125.966 146.12C137.886 138.392 140.881 143.792 145.201 160.295C150.649 181.102 162.034 197.533 167.409 199.888L196.151 196.986C199.535 208.287 194.758 225.316 191.946 232.417C173.052 236.842 133.898 238.63 128.437 210.388Z" fill="#8895BE"/>
<path d="M71.0246 233.564C71.0246 233.564 88.8677 214.04 68.0133 142.24C84.895 132.729 138.141 118.437 131.743 135.375C125.344 152.312 171.121 162.106 141.236 193.686C141.236 200.751 148.839 233.564 148.839 233.564H71.0246Z" fill="#C2C9E0"/>
<path d="M70.8916 96.8577C70.8916 121.456 90.5757 141.396 114.857 141.396C139.139 141.396 158.823 121.456 158.823 96.8577C158.823 72.2598 139.139 52.3192 114.857 52.3192C90.5757 52.3192 70.8916 72.2598 70.8916 96.8577Z" fill="#EAD3C3"/>
<path d="M90.3389 262.789L74.3856 246.239L94.2557 226.753L110.209 243.304L90.3389 262.789Z" fill="#EAD3C3"/>
<path d="M36.4106 190.848C49.5805 165.275 60.1749 142.107 74.2039 138.809C88.3512 140.105 87.366 146.201 80.5584 161.843C71.975 181.565 70.7641 201.517 73.5325 206.692L97.9158 222.182C93.5889 233.156 79.3057 243.586 72.705 247.43C55.1194 239.225 23.2407 216.421 36.4106 190.848Z" fill="#8895BE"/>
<path d="M98.3236 90.9029L104.912 91.1123L103.494 94.9877L98.3236 90.9029Z" fill="#3F3F3F"/>
<path d="M149.525 79.3746L144.234 82.6956L147.247 85.1891L149.525 79.3746Z" fill="#3F3F3F"/>
<path d="M98.1655 96.3836L104.065 93.4482L104.656 97.5321L98.1655 96.3836Z" fill="#3F3F3F"/>
<path d="M152.347 83.2567L146.136 83.9057L147.738 87.4731L152.347 83.2567Z" fill="#3F3F3F"/>
<path d="M129.202 82.6956L139.276 105.647L129.202 109.178L129.202 82.6956Z" fill="#E6C6B0"/>
<path d="M78.2031 98.8184C78.6435 104.64 74.2814 109.698 68.4599 110.115C62.6385 110.532 57.5622 106.15 57.1217 100.329C56.6813 94.5069 61.0434 89.4494 66.8649 89.0324C72.6863 88.6153 77.7626 92.9967 78.2031 98.8184Z" fill="#E6C6B0"/>
<path d="M77.416 98.8758C78.5187 102.873 78.1084 113.363 74.1139 114.448C70.1193 115.533 61.1568 108.473 60.0541 104.476C58.9514 100.478 66.1262 101.058 70.1207 99.9732C74.1153 98.8883 76.3133 94.8787 77.416 98.8758Z" fill="#E6C6B0"/>
<path d="M80.5381 102.43C74.6405 91.3781 92.0614 63.4628 82.5642 59.9318L67.6219 59.4274C51.1601 68.2549 56.2595 97.1149 60.8182 92.0706C64.4651 88.0351 69.6161 94.295 72.4864 94.7153L77.4385 107.261L80.5381 102.43Z" fill="#E7C368"/>
<path d="M110.163 84.6982C107.618 84.8588 103.691 85.2966 103.458 85.3118C96.8589 85.7453 96.3145 88.3342 92.4176 94.6041C95.2966 79.4537 102.781 81.2857 111.546 80.1233C113.812 80.9868 112.589 84.5451 110.163 84.6982Z" fill="#9E8568"/>
<path d="M138.841 79.1093C140.301 78.6347 143.367 77.0669 144.843 76.9813C148.11 76.7918 148.678 76.4658 152.249 79.1093C147.803 71.6441 146.609 74.3107 137.014 75.8078C135.937 76.7937 137.45 79.5617 138.841 79.1093Z" fill="#9E8568"/>
<path d="M151.666 72.8248C137.888 50.648 101.303 58.1565 84.733 64.6829L66.5327 60.8059C81.9936 39.482 107.24 41.8082 112.524 40.4512C116.751 39.3657 121.983 42.8421 124.071 44.716C125.48 42.855 130.398 45.4914 132.682 47.0423C135.343 45.8016 139.531 48.8516 141.293 50.5316C144.268 50.6867 145.533 54.4733 145.794 56.3472C148.769 55.882 150.948 60.6766 151.666 63.1321C155.11 66.0786 153.101 70.8216 151.666 72.8248Z" fill="#F2CF76"/>
<path d="M112.874 93.4481C112.874 96.3039 110.558 98.619 107.703 98.619C104.847 98.619 102.532 96.3039 102.532 93.4481C102.532 90.5923 104.847 88.2772 107.703 88.2772C110.558 88.2772 112.874 90.5923 112.874 93.4481Z" fill="#3F3F3F"/>
<path d="M148.423 85.4917C148.423 88.0176 146.376 90.0651 143.85 90.0651C141.324 90.0651 139.276 88.0176 139.276 85.4917C139.276 82.9659 141.324 80.9184 143.85 80.9184C146.376 80.9184 148.423 82.9659 148.423 85.4917Z" fill="#3F3F3F"/>
<path d="M75.6992 434.261H111.139L111.056 455.864H75.6164L75.6992 434.261Z" fill="#FBF7F2"/>
</svg>
