<svg width="240" height="462" viewBox="0 0 240 462" fill="none" xmlns="http://www.w3.org/2000/svg">
<ellipse cx="117.217" cy="450.837" rx="89.9707" ry="10.8556" fill="#AAAFC1"/>
<path d="M112.967 406.052L136.971 434.581L110.176 444.399L101.848 415.896L112.967 406.052Z" fill="#FBF7F2"/>
<path d="M109.487 424.528H142.922L142.984 444.54H109.548L109.487 424.528Z" fill="#FBF7F2"/>
<path d="M99.3472 426.074L99.3472 450.956L81.5386 450.888L81.5386 426.005L99.3472 426.074Z" fill="#FBF7F2"/>
<path d="M63.5999 32.3199C63.5999 39.048 58.1457 44.5022 51.4176 44.5022C44.6896 44.5022 39.2354 39.048 39.2354 32.3199C39.2354 25.5918 44.6896 20.1376 51.4176 20.1376C58.1457 20.1376 63.5999 25.5918 63.5999 32.3199Z" fill="#E7C368"/>
<path d="M73.5799 18.5231C73.5799 25.2512 68.1257 30.7054 61.3976 30.7054C54.6695 30.7054 49.2153 25.2512 49.2153 18.5231C49.2153 11.795 54.6695 6.34079 61.3976 6.34079C68.1257 6.34079 73.5799 11.795 73.5799 18.5231Z" fill="#E7C368"/>
<path d="M63.5999 49.0521C63.5999 55.7802 58.1457 61.2344 51.4176 61.2344C44.6896 61.2344 39.2354 55.7802 39.2354 49.0521C39.2354 42.324 44.6896 36.8698 51.4176 36.8698C58.1457 36.8698 63.5999 42.324 63.5999 49.0521Z" fill="#E7C368"/>
<path d="M78.5702 40.2456C78.5702 46.9737 73.116 52.4279 66.3879 52.4279C59.6598 52.4279 54.2056 46.9737 54.2056 40.2456C54.2056 33.5175 59.6598 28.0633 66.3879 28.0633C73.116 28.0633 78.5702 33.5175 78.5702 40.2456Z" fill="#E7C368"/>
<path d="M75.3836 54.9231C75.3836 61.6511 69.9294 67.1053 63.2013 67.1053C56.4732 67.1053 51.019 61.6511 51.019 54.9231C51.019 48.195 56.4732 42.7408 63.2013 42.7408C69.9294 42.7408 75.3836 48.195 75.3836 54.9231Z" fill="#E7C368"/>
<path d="M89.5453 12.3585C89.5453 19.0866 84.0911 24.5408 77.363 24.5408C70.6349 24.5408 65.1807 19.0866 65.1807 12.3585C65.1807 5.63044 70.6349 0.176239 77.363 0.176239C84.0911 0.176239 89.5453 5.63044 89.5453 12.3585Z" fill="#F2CF76"/>
<path d="M104.767 15.881C104.767 22.6091 99.3127 28.0633 92.5846 28.0633C85.8565 28.0633 80.4023 22.6091 80.4023 15.881C80.4023 9.15293 85.8565 3.69873 92.5846 3.69873C99.3127 3.69873 104.767 9.15293 104.767 15.881Z" fill="#F2CF76"/>
<path d="M110.445 30.5585C110.445 37.2866 104.99 42.7408 98.2624 42.7408C91.5343 42.7408 86.0801 37.2866 86.0801 30.5585C86.0801 23.8304 91.5343 18.3762 98.2624 18.3762C104.99 18.3762 110.445 23.8304 110.445 30.5585Z" fill="#F2CF76"/>
<path d="M95.4613 40.2456C95.4613 46.9737 90.0071 52.4279 83.279 52.4279C76.5509 52.4279 71.0967 46.9737 71.0967 40.2456C71.0967 33.5175 76.5509 28.0633 83.279 28.0633C90.0071 28.0633 95.4613 33.5175 95.4613 40.2456Z" fill="#E7C368"/>
<path d="M89.5453 57.0873C89.5453 63.8154 84.0911 69.2696 77.363 69.2696C70.6349 69.2696 65.1807 63.8154 65.1807 57.0873C65.1807 50.3592 70.6349 44.905 77.363 44.905C84.0911 44.905 89.5453 50.3592 89.5453 57.0873Z" fill="#E7C368"/>
<path d="M89.5453 22.6327C89.5453 29.3608 84.0911 34.815 77.363 34.815C70.6349 34.815 65.1807 29.3608 65.1807 22.6327C65.1807 15.9046 70.6349 10.4504 77.363 10.4504C84.0911 10.4504 89.5453 15.9046 89.5453 22.6327Z" fill="#E7C368"/>
<path d="M107.643 46.9974C107.643 53.7255 102.189 59.1797 95.4606 59.1797C88.7325 59.1797 83.2783 53.7255 83.2783 46.9974C83.2783 40.2693 88.7325 34.8151 95.4606 34.8151C102.189 34.8151 107.643 40.2693 107.643 46.9974Z" fill="#F2CF76"/>
<path d="M101.432 26.928C101.432 33.6561 95.9783 39.1103 89.2502 39.1103C82.5221 39.1103 77.0679 33.6561 77.0679 26.928C77.0679 20.1999 82.5221 14.7457 89.2502 14.7457C95.9783 14.7457 101.432 20.1999 101.432 26.928Z" fill="#F2CF76"/>
<path d="M146.676 241.786C142.131 195.723 100.461 217.383 84.11 223.918L101.544 250.529C101.544 250.529 97.2701 290.895 114.705 320.152C100.74 337.207 99.9819 367.524 101.544 381.616L107.544 421.433L125.912 421.433C124.37 406.967 136.828 347.505 146.676 320.152C146.676 320.152 151.105 286.668 146.676 241.786Z" fill="#3F3F3F"/>
<path d="M63.9521 249.169C68.4974 203.107 110.167 224.767 126.518 231.302L109.085 257.913C109.085 257.913 105.464 303.631 102.44 321.641C103.091 331.131 107.026 353.094 105.464 367.185L100.102 415.568L100.102 428.817L80.6937 428.817C84.0528 402.318 60.1584 372.094 74.4676 327.389C74.4676 327.389 59.5233 294.052 63.9521 249.169Z" fill="#3F3F3F"/>
<path d="M208.477 101.305L198.72 122.119L173.421 110.524L183.178 89.71L208.477 101.305Z" fill="#EAD3C3"/>
<path d="M157.1 175.215C128.727 170.485 103.43 167.473 96.0046 155.122C92.9175 141.255 99.0234 140.331 115.997 142.036C137.398 144.186 156.767 139.244 160.849 135.028L173.741 107.745C185.513 108.513 194.217 118.262 199.892 123.373C197.451 142.625 185.474 179.945 157.1 175.215Z" fill="#8895BE"/>
<path d="M68.091 233.564C68.091 233.564 85.6618 197.936 65.0798 142.24C81.9614 132.729 135.208 118.437 128.809 135.375C122.411 152.312 168.187 162.106 138.302 193.686C138.302 200.751 145.906 233.564 145.906 233.564H68.091Z" fill="#C2C9E0"/>
<path d="M67.958 96.8577C67.958 121.456 87.6421 141.396 111.924 141.396C136.205 141.396 155.89 121.456 155.89 96.8577C155.89 72.2598 136.205 52.3192 111.924 52.3192C87.6421 52.3192 67.958 72.2598 67.958 96.8577Z" fill="#EAD3C3"/>
<path d="M67.8804 261.927L55.7075 242.428L79.1877 227.488L91.3606 246.987L67.8804 261.927Z" fill="#EAD3C3"/>
<path d="M30.0497 180.364C48.2382 158.079 63.4083 137.613 77.8164 137.297C91.387 141.499 89.1585 147.259 79.2543 161.148C66.7662 178.66 61.4424 197.927 63.077 203.564L83.7166 223.775C77.2072 233.613 61.071 240.853 53.8166 243.243C38.3157 231.569 11.8611 202.648 30.0497 180.364Z" fill="#8895BE"/>
<path d="M95.39 90.9029L101.978 91.1123L100.56 94.9877L95.39 90.9029Z" fill="#3F3F3F"/>
<path d="M146.591 79.3746L141.3 82.6956L144.313 85.1891L146.591 79.3746Z" fill="#3F3F3F"/>
<path d="M95.232 96.3836L101.132 93.4482L101.722 97.5321L95.232 96.3836Z" fill="#3F3F3F"/>
<path d="M149.414 83.2567L143.202 83.9057L144.805 87.4731L149.414 83.2567Z" fill="#3F3F3F"/>
<path d="M129.666 121C129.666 124.196 119.332 132.076 111.677 129.319C102.496 126.012 102.968 119.571 102.968 118.726C102.968 115.53 113.96 120.379 117.157 120.379C125.231 121 129.666 117.804 129.666 121Z" fill="#FFFEFE"/>
<path d="M123.639 124.721C117.627 126.189 107.644 122.802 103.142 120.716C103.484 123.846 106.913 129.639 114.888 129.915C122.864 130.192 127.789 125.595 128.523 123.423L123.639 124.721Z" fill="#FAF8F8"/>
<path d="M126.268 82.6956L136.343 105.647L126.268 109.178L126.268 82.6956Z" fill="#E6C6B0"/>
<path d="M75.2695 98.8184C75.7099 104.64 71.3478 109.698 65.5263 110.115C59.7049 110.532 54.6286 106.15 54.1881 100.329C53.7477 94.5069 58.1098 89.4494 63.9313 89.0324C69.7527 88.6153 74.829 92.9967 75.2695 98.8184Z" fill="#E6C6B0"/>
<path d="M74.4824 98.8758C75.5851 102.873 75.1748 113.363 71.1803 114.448C67.1857 115.533 58.2232 108.473 57.1205 104.476C56.0178 100.478 63.1926 101.058 67.1871 99.9732C71.1817 98.8883 73.3797 94.8787 74.4824 98.8758Z" fill="#E6C6B0"/>
<path d="M77.6045 102.43C71.7069 91.3781 89.1278 63.4628 79.6306 59.9318L64.6883 59.4274C48.2265 68.2549 53.3259 97.1149 57.8846 92.0706C61.5315 88.0351 66.6825 94.295 69.5528 94.7153L74.5049 107.261L77.6045 102.43Z" fill="#E7C368"/>
<path d="M107.23 84.6982C104.685 84.8588 100.757 85.2966 100.525 85.3118C93.9253 85.7453 93.3809 88.3342 89.484 94.6041C92.363 79.4537 99.8472 81.2857 108.612 80.1233C110.879 80.9868 109.656 84.5451 107.23 84.6982Z" fill="#9E8568"/>
<path d="M135.908 79.1093C137.367 78.6347 140.433 77.0669 141.91 76.9813C145.176 76.7918 145.744 76.4658 149.315 79.1093C144.87 71.6441 143.675 74.3107 134.081 75.8078C133.004 76.7937 134.516 79.5617 135.908 79.1093Z" fill="#9E8568"/>
<path d="M148.732 72.8248C134.955 50.648 98.3697 58.1565 81.7995 64.6829L63.5991 60.8059C79.06 39.482 104.306 41.8082 109.59 40.4512C113.818 39.3657 119.049 42.8421 121.137 44.716C122.546 42.855 127.465 45.4914 129.748 47.0423C132.41 45.8016 136.598 48.8516 138.359 50.5316C141.334 50.6867 142.6 54.4733 142.86 56.3472C145.835 55.882 148.014 60.6766 148.732 63.1321C152.177 66.0786 150.167 70.8216 148.732 72.8248Z" fill="#F2CF76"/>
<path d="M92.0572 115.806C91.6196 116.649 90.5816 116.978 89.7387 116.54C88.8958 116.102 90.0955 115.858 90.533 115.015C90.9706 114.172 90.4804 113.05 91.3233 113.488C92.1662 113.925 92.4947 114.963 92.0572 115.806Z" fill="#E5C6B0"/>
<path d="M109.94 93.4481C109.94 97.3365 107.892 95.9648 104.769 97.5135C101.646 99.0621 99.5981 96.3039 99.5981 93.4481C99.5981 90.5923 101.913 88.2772 104.769 88.2772C107.625 88.2772 109.94 90.5923 109.94 93.4481Z" fill="#3F3F3F"/>
<path d="M145.49 85.4917C145.781 89.7275 143.923 87.8227 140.916 89.2629C137.672 90.8172 136.343 88.0176 136.343 85.4917C136.343 82.9659 138.39 80.9184 140.916 80.9184C143.442 80.9184 145.49 82.9659 145.49 85.4917Z" fill="#3F3F3F"/>
<path d="M72.7656 434.261H108.205L108.122 455.864H72.6828L72.7656 434.261Z" fill="#FBF7F2"/>
</svg>
