<svg width="521" height="919" viewBox="0 0 521 919" fill="none" xmlns="http://www.w3.org/2000/svg">
<path d="M1.17676 847.396L260.618 918.329V495.497L1.17676 424.564V847.396Z" fill="#585858"/>
<path d="M520.058 847.396L260.617 918.329V495.497L520.058 424.564V847.396Z" fill="#313131"/>
<path d="M260.257 367.404L520.058 424.564L260.257 495.646L0.456055 424.564L260.257 367.404Z" fill="#8A8A8A"/>
<path d="M434.608 106.25L475.928 90.524L482.279 134.9L440.96 150.626L434.608 106.25Z" fill="#222222"/>
<path d="M475.821 89.7843L431.75 86.2807L438.101 130.656L482.173 134.16L475.821 89.7843Z" fill="#222222"/>
<path d="M434.608 106.25L475.928 90.524L482.279 134.9L440.96 150.626L434.608 106.25Z" fill="#C2945E"/>
<path d="M390.431 102.006L431.75 86.2805L438.102 130.656L396.783 146.382L390.431 102.006Z" fill="#222222"/>
<path d="M434.608 106.25L390.537 102.746L396.888 147.122L440.96 150.626L434.608 106.25Z" fill="#222222"/>
<path d="M390.431 102.006L431.75 86.2805L475.875 90.1539L434.609 106.25L390.431 102.006Z" fill="#222222"/>
<path d="M387.159 137.357L445.707 115.174L454.779 175.688L396.23 197.871L387.159 137.357Z" fill="#222222"/>
<path d="M445.556 114.166L383.077 110.126L392.148 170.64L454.628 174.68L445.556 114.166Z" fill="#222222"/>
<path d="M387.159 137.357L445.707 115.174L454.779 175.688L396.23 197.871L387.159 137.357Z" fill="#C2945E"/>
<path d="M324.528 132.309L383.077 110.126L392.148 170.64L333.6 192.823L324.528 132.309Z" fill="#222222"/>
<path d="M387.159 137.357L324.679 133.317L333.751 193.831L396.23 197.871L387.159 137.357Z" fill="#222222"/>
<path d="M324.528 132.309L383.077 110.126L445.632 114.67L387.159 137.357L324.528 132.309Z" fill="#222222"/>
<path d="M127.535 387.472L179.356 375.076L180.471 427.139L128.65 439.534L127.535 387.472Z" fill="#BDAA79"/>
<path d="M179.338 374.209L127.034 364.043L128.149 416.106L180.453 426.271L179.338 374.209Z" fill="#A9996F"/>
<path d="M127.535 387.472L179.356 375.076L180.471 427.139L128.65 439.534L127.535 387.472Z" fill="#C2945E"/>
<path d="M75.2125 376.438L127.033 364.043L128.148 416.106L76.3275 428.501L75.2125 376.438Z" fill="#BDAA79"/>
<path d="M127.535 387.472L75.2373 376.376L76.3459 429.369L128.65 439.534L127.535 387.472Z" fill="#A37B4D"/>
<path d="M75.2125 376.438L127.033 364.043L179.347 374.642L127.535 387.471L75.2125 376.438Z" fill="#664F34"/>
<path d="M126.833 344.068L158.419 336.513L159.099 368.247L127.512 375.802L126.833 344.068Z" fill="#BDAA79"/>
<path d="M158.408 335.984L126.527 329.788L127.207 361.522L159.088 367.718L158.408 335.984Z" fill="#A9996F"/>
<path d="M126.833 344.068L158.419 336.513L159.099 368.247L127.512 375.802L126.833 344.068Z" fill="#C2945E"/>
<path d="M94.941 337.343L126.527 329.788L127.207 361.522L95.6206 369.077L94.941 337.343Z" fill="#BDAA79"/>
<path d="M126.833 344.068L94.9521 337.872L95.6318 369.606L127.512 375.802L126.833 344.068Z" fill="#A37B4D"/>
<path d="M94.941 337.343L126.527 329.788L158.413 336.249L126.833 344.068L94.941 337.343Z" fill="#664F34"/>
<path d="M230.181 411.769L282.002 399.374L283.117 451.436L231.296 463.831L230.181 411.769Z" fill="#BDAA79"/>
<path d="M281.984 398.506L229.68 388.34L230.795 440.403L283.099 450.568L281.984 398.506Z" fill="#A9996F"/>
<path d="M230.181 411.769L282.002 399.374L283.117 451.436L231.296 463.831L230.181 411.769Z" fill="#C2945E"/>
<path d="M177.859 400.736L229.679 388.34L230.794 440.403L178.974 452.798L177.859 400.736Z" fill="#BDAA79"/>
<path d="M230.181 411.768L177.883 400.673L178.992 453.666L231.296 463.831L230.181 411.768Z" fill="#A37B4D"/>
<path d="M177.859 400.736L229.679 388.34L281.993 398.939L230.181 411.768L177.859 400.736Z" fill="#664F34"/>
<path d="M230.551 364.696L266.698 356.049L267.476 392.365L231.328 401.011L230.551 364.696Z" fill="#BDAA79"/>
<path d="M266.685 355.444L230.201 348.354L230.979 384.669L267.463 391.76L266.685 355.444Z" fill="#A9996F"/>
<path d="M230.551 364.696L266.698 356.049L267.476 392.365L231.328 401.011L230.551 364.696Z" fill="#C2945E"/>
<path d="M194.054 356.999L230.201 348.353L230.979 384.669L194.831 393.315L194.054 356.999Z" fill="#BDAA79"/>
<path d="M230.551 364.696L194.066 357.605L194.844 393.921L231.328 401.011L230.551 364.696Z" fill="#A37B4D"/>
<path d="M194.054 356.999L230.201 348.353L266.692 355.746L230.551 364.695L194.054 356.999Z" fill="#664F34"/>
<path d="M242.761 196.255L416.733 158.562V332.533L242.761 370.227V196.255Z" fill="#BDAA79"/>
<path d="M242.761 196.255L416.733 158.562V332.533L242.761 370.227V196.255Z" fill="#C2945E"/>
<path d="M242.761 196.255L68.7889 158.562V332.533L242.761 370.227V196.255Z" fill="#A37B4D"/>
<path d="M67.7017 158.38L242.761 117.968L417.458 158.199L242.761 196.256L67.7017 158.38Z" fill="#222222"/>
<path d="M383.145 377.914L434.966 365.519L436.081 417.582L384.26 429.977L383.145 377.914Z" fill="#BDAA79"/>
<path d="M434.948 364.652L382.644 354.486L383.759 406.549L436.063 416.714L434.948 364.652Z" fill="#A9996F"/>
<path d="M383.145 377.914L434.966 365.519L436.081 417.582L384.26 429.977L383.145 377.914Z" fill="#C2945E"/>
<path d="M330.823 366.881L382.643 354.486L383.758 406.549L331.938 418.944L330.823 366.881Z" fill="#BDAA79"/>
<path d="M383.145 377.915L330.847 366.819L331.956 419.812L384.26 429.977L383.145 377.915Z" fill="#A37B4D"/>
<path d="M330.823 366.881L382.643 354.486L434.957 365.085L383.145 377.914L330.823 366.881Z" fill="#664F34"/>
<path d="M383.514 330.841L419.662 322.195L420.439 358.511L384.292 367.157L383.514 330.841Z" fill="#BDAA79"/>
<path d="M383.514 330.842L420.176 321.831L420.439 358.511L384.292 367.157L383.514 330.842Z" fill="#222222"/>
<path d="M383.514 330.841L347.03 323.751L347.808 360.067L384.292 367.157L383.514 330.841Z" fill="#0D0D0D"/>
<path d="M346.736 323.745L382.311 314.326L420.176 321.842L383.389 330.903L346.736 323.745Z" fill="#4D4C4C"/>
<path d="M150.166 106.349L212.517 92.8392V155.19L150.166 168.7V106.349Z" fill="#BDAA79"/>
<path d="M212.517 91.8002L150.165 78.2908V140.642L212.517 154.151V91.8002Z" fill="#A9996F"/>
<path d="M150.166 106.349L212.517 92.8392V155.19L150.166 168.7V106.349Z" fill="#222222"/>
<path d="M87.8142 91.8003L150.165 78.2909V140.642L87.8142 154.151V91.8003Z" fill="#BDAA79"/>
<path d="M150.166 106.349L87.8144 92.8392V155.19L150.166 168.7V106.349Z" fill="#664F34"/>
<path d="M87.8142 91.8003L150.165 78.2909L212.516 92.3199L150.165 106.349L87.8142 91.8003Z" fill="#4D4C4C"/>
<path d="M104.783 264.644L198.768 244.281V311.874L104.783 332.237V264.644Z" fill="#C2945E"/>
<path d="M104.783 264.644L10.7984 244.281V311.807L104.783 332.171V264.644Z" fill="#A37B4D"/>
<path d="M10.7983 242.715L104.783 222.351L199.268 244.098L104.783 264.644L10.7983 242.715Z" fill="#D1C093"/>
<path d="M138.977 65.4621L179.748 56.6284V97.3994L138.977 106.233V65.4621Z" fill="#BDAA79"/>
<path d="M179.749 55.949L138.978 47.1152V87.8863L179.749 96.72V55.949Z" fill="#A9996F"/>
<path d="M138.977 65.4621L179.748 56.6284V97.3994L138.977 106.233V65.4621Z" fill="#222222"/>
<path d="M98.2061 55.949L138.977 47.1152V87.8863L98.2061 96.72V55.949Z" fill="#BDAA79"/>
<path d="M138.977 65.4621L98.2063 56.6284V97.3994L138.977 106.233V65.4621Z" fill="#664F34"/>
<path d="M98.2061 55.949L138.977 47.1152L179.748 56.2887L138.977 65.4622L98.2061 55.949Z" fill="#4D4C4C"/>
<path d="M249.992 121.438L319.581 106.36V175.949L249.992 191.026V121.438Z" fill="#BDAA79"/>
<path d="M319.581 105.2L249.992 90.1226V159.711L319.581 174.789V105.2Z" fill="#A9996F"/>
<path d="M249.992 121.438L319.581 106.36V175.949L249.992 191.026V121.438Z" fill="#222222"/>
<path d="M180.404 105.2L249.992 90.1224V159.711L180.404 174.789V105.2Z" fill="#BDAA79"/>
<path d="M249.992 121.438L180.404 106.36V175.949L249.992 191.026V121.438Z" fill="#664F34"/>
<path d="M180.404 105.2L249.992 90.1224L319.581 105.78L249.992 121.437L180.404 105.2Z" fill="#4D4C4C"/>
<path d="M237.505 75.8049L283.009 65.9458V111.449L237.505 121.308V75.8049Z" fill="#BDAA79"/>
<path d="M283.01 65.1872L237.506 55.3281V100.832L283.01 110.691V65.1872Z" fill="#A9996F"/>
<path d="M237.505 75.8049L283.009 65.9458V111.449L237.505 121.308V75.8049Z" fill="#222222"/>
<path d="M192.002 65.1872L237.506 55.3281V100.832L192.002 110.691V65.1872Z" fill="#BDAA79"/>
<path d="M237.505 75.8049L192.002 65.9458V111.449L237.505 121.308V75.8049Z" fill="#664F34"/>
<path d="M192.002 65.1872L237.506 55.3281L283.009 65.5664L237.506 75.8047L192.002 65.1872Z" fill="#4D4C4C"/>
<path d="M134.439 36.5312L162.879 30.3693V58.8088L134.439 64.9707V36.5312Z" fill="#BDAA79"/>
<path d="M162.879 29.8953L134.44 23.7334V52.1729L162.879 58.3348V29.8953Z" fill="#A9996F"/>
<path d="M134.439 36.5312L162.879 30.3693V58.8088L134.439 64.9707V36.5312Z" fill="#222222"/>
<path d="M106.001 29.8954L134.44 23.7335V52.1731L106.001 58.335V29.8954Z" fill="#BDAA79"/>
<path d="M134.439 36.5312L106 30.3693V58.8088L134.439 64.9707V36.5312Z" fill="#664F34"/>
<path d="M106.001 29.8954L134.44 23.7335L162.88 30.1324L134.44 36.5313L106.001 29.8954Z" fill="#4D4C4C"/>
<path d="M232.441 43.5155L264.182 36.6383V68.379L232.441 75.2562V43.5155Z" fill="#BDAA79"/>
<path d="M264.182 36.1093L232.441 29.2322V60.9729L264.182 67.85V36.1093Z" fill="#A9996F"/>
<path d="M232.441 43.5155L264.182 36.6383V68.379L232.441 75.2562V43.5155Z" fill="#222222"/>
<path d="M200.7 36.1093L232.441 29.2322V60.9729L200.7 67.85V36.1093Z" fill="#BDAA79"/>
<path d="M232.441 43.5155L200.7 36.6383V68.379L232.441 75.2562V43.5155Z" fill="#664F34"/>
<path d="M200.7 36.1093L232.441 29.2322L264.182 36.3738L232.441 43.5155L200.7 36.1093Z" fill="#4D4C4C"/>
<path d="M56.5911 240.349L96.5846 231.683V271.677L56.5911 280.342V240.349Z" fill="black"/>
<path d="M96.5845 231.016L56.591 222.351V262.345L96.5845 271.01V231.016Z" fill="#3A3A3A"/>
<path d="M56.5911 240.349L96.5846 231.683V271.677L56.5911 280.342V240.349Z" fill="#3A3A3A"/>
<path d="M16.5974 231.017L56.5909 222.351V262.345L16.5974 271.01V231.017Z" fill="black"/>
<path d="M56.5911 240.349L16.5975 231.683V271.677L56.5911 280.342V240.349Z" fill="black"/>
<path d="M16.5974 231.017L56.5909 222.351L96.5845 231.35L56.5909 240.348L16.5974 231.017Z" fill="#808080"/>
<circle cx="171.603" cy="213.011" r="12.2402" fill="#0D0D0D"/>
<circle cx="114.794" cy="200.77" r="12.2402" fill="#0D0D0D"/>
</svg>
