<svg width="521" height="919" viewBox="0 0 521 919" fill="none" xmlns="http://www.w3.org/2000/svg">
<path d="M1.17676 847.458L260.618 918.391V495.559L1.17676 424.626V847.458Z" fill="#585858"/>
<path d="M520.058 847.458L260.617 918.391V495.559L520.058 424.626V847.458Z" fill="#313131"/>
<path d="M260.257 367.466L520.058 424.626L260.257 495.709L0.456055 424.626L260.257 367.466Z" fill="#8A8A8A"/>
<path d="M463.316 344.196L503.756 362.062L477.075 398.085L436.635 380.219L463.316 344.196Z" fill="#222222"/>
<path d="M504.2 361.462L475.323 327.986L448.641 364.008L477.519 397.485L504.2 361.462Z" fill="#222222"/>
<path d="M463.316 344.196L503.756 362.062L477.075 398.085L436.635 380.219L463.316 344.196Z" fill="#C2945E"/>
<path d="M434.884 310.12L475.323 327.986L448.642 364.009L408.202 346.143L434.884 310.12Z" fill="#222222"/>
<path d="M463.316 344.196L434.438 310.72L407.757 346.743L436.635 380.219L463.316 344.196Z" fill="#222222"/>
<path d="M434.884 310.12L475.323 327.986L503.979 361.762L463.317 344.196L434.884 310.12Z" fill="#222222"/>
<path d="M417.778 307.095L475.01 332.482L438.917 381.894L381.685 356.507L417.778 307.095Z" fill="#222222"/>
<path d="M475.611 331.659L434.02 284.86L397.927 334.272L439.518 381.071L475.611 331.659Z" fill="#222222"/>
<path d="M417.778 307.095L475.01 332.482L438.917 381.894L381.685 356.507L417.778 307.095Z" fill="#C2945E"/>
<path d="M376.788 259.472L434.02 284.86L397.927 334.271L340.695 308.884L376.788 259.472Z" fill="#222222"/>
<path d="M417.778 307.095L376.187 260.296L340.093 309.708L381.685 356.507L417.778 307.095Z" fill="#222222"/>
<path d="M376.788 259.472L434.02 284.86L475.311 332.071L417.778 307.095L376.788 259.472Z" fill="#222222"/>
<path d="M159.338 393.299L211.159 380.904L212.274 432.966L160.453 445.361L159.338 393.299Z" fill="#BDAA79"/>
<path d="M211.141 380.036L158.837 369.871L159.952 421.933L212.256 432.098L211.141 380.036Z" fill="#A9996F"/>
<path d="M159.338 393.299L211.159 380.904L212.274 432.966L160.453 445.361L159.338 393.299Z" fill="#C2945E"/>
<path d="M107.016 382.266L158.836 369.87L159.951 421.933L108.131 434.328L107.016 382.266Z" fill="#BDAA79"/>
<path d="M159.338 393.299L107.04 382.204L108.149 435.196L160.453 445.361L159.338 393.299Z" fill="#A37B4D"/>
<path d="M107.016 382.266L158.836 369.87L211.15 380.469L159.338 393.298L107.016 382.266Z" fill="#664F34"/>
<path d="M158.636 349.896L190.222 342.34L190.901 374.074L159.315 381.629L158.636 349.896Z" fill="#BDAA79"/>
<path d="M190.211 341.811L158.33 335.616L159.01 367.349L190.89 373.545L190.211 341.811Z" fill="#A9996F"/>
<path d="M158.636 349.896L190.222 342.34L190.901 374.074L159.315 381.629L158.636 349.896Z" fill="#C2945E"/>
<path d="M126.743 343.17L158.33 335.615L159.009 367.349L127.423 374.904L126.743 343.17Z" fill="#BDAA79"/>
<path d="M158.636 349.896L126.755 343.7L127.434 375.433L159.315 381.629L158.636 349.896Z" fill="#A37B4D"/>
<path d="M126.743 343.17L158.33 335.615L190.216 342.076L158.635 349.895L126.743 343.17Z" fill="#664F34"/>
<path d="M230.181 411.831L282.001 399.436L283.116 451.498L231.296 463.893L230.181 411.831Z" fill="#BDAA79"/>
<path d="M281.984 398.568L229.68 388.403L230.795 440.465L283.099 450.63L281.984 398.568Z" fill="#A9996F"/>
<path d="M230.181 411.831L282.001 399.436L283.116 451.498L231.296 463.893L230.181 411.831Z" fill="#C2945E"/>
<path d="M177.858 400.798L229.679 388.403L230.794 440.465L178.973 452.86L177.858 400.798Z" fill="#BDAA79"/>
<path d="M230.18 411.831L177.883 400.736L178.991 453.728L231.295 463.893L230.18 411.831Z" fill="#A37B4D"/>
<path d="M177.858 400.798L229.679 388.403L281.992 399.002L230.181 411.831L177.858 400.798Z" fill="#664F34"/>
<path d="M230.55 364.758L266.697 356.112L267.475 392.427L231.328 401.074L230.55 364.758Z" fill="#BDAA79"/>
<path d="M266.685 355.506L230.2 348.416L230.978 384.732L267.462 391.822L266.685 355.506Z" fill="#A9996F"/>
<path d="M230.55 364.758L266.697 356.112L267.475 392.427L231.328 401.074L230.55 364.758Z" fill="#C2945E"/>
<path d="M194.053 357.062L230.201 348.415L230.978 384.731L194.831 393.377L194.053 357.062Z" fill="#BDAA79"/>
<path d="M230.55 364.758L194.066 357.667L194.843 393.983L231.328 401.074L230.55 364.758Z" fill="#A37B4D"/>
<path d="M194.053 357.062L230.201 348.415L266.691 355.809L230.551 364.757L194.053 357.062Z" fill="#664F34"/>
<path d="M275.588 217.102L444.745 272.537L435.5 417L246.5 386L275.588 217.102Z" fill="#C2945E"/>
<path d="M275.588 217.102L104.5 168.499L83.4996 332.499L248 385.999L275.588 217.102Z" fill="#A37B4D"/>
<path d="M103.499 168.999L316 217.102L445.553 272.591L275.588 217.102L103.499 168.999Z" fill="#222222"/>
<path d="M399.154 390.228L435.301 381.582L436.079 417.898L399.932 426.544L399.154 390.228Z" fill="#BDAA79"/>
<path d="M399.154 390.228L435.815 381.217L436.079 417.898L399.931 426.544L399.154 390.228Z" fill="#222222"/>
<path d="M399.154 390.228L362.67 383.137L363.447 419.453L399.932 426.544L399.154 390.228Z" fill="#0D0D0D"/>
<path d="M362.376 383.131L397.951 373.713L435.816 381.228L399.029 390.289L362.376 383.131Z" fill="#4D4C4C"/>
<path d="M406.948 384.065L354.644 373.9L355.759 425.962L408.063 436.127L406.948 384.065Z" fill="#A9996F"/>
<path d="M366 393.5L406.965 384.933L408.08 436.995L367.75 447L366 393.5Z" fill="#C2945E"/>
<path d="M366.837 393.835L314.539 382.74L315.648 435.733L367.952 445.898L366.837 393.835Z" fill="#A37B4D"/>
<path d="M354.157 410.421L325.97 404.441L326.567 433.003L354.758 438.482L354.157 410.421Z" fill="#664F34"/>
<path d="M330.629 389.287L317.501 386.502L317.779 399.804L330.909 402.356L330.629 389.287Z" fill="#664F34"/>
<path d="M346.784 392.67L333.657 389.885L333.935 403.187L347.064 405.738L346.784 392.67Z" fill="#664F34"/>
<path d="M362.94 396.291L349.812 393.506L350.091 406.808L363.22 409.36L362.94 396.291Z" fill="#664F34"/>
<path d="M314.678 382.467L354.643 373.899L406.956 384.499L367 393.5L314.678 382.467Z" fill="#D1C093"/>
<path d="M138.728 276.963L232 262.5V330.093L138.728 344.556V276.963Z" fill="#C2945E"/>
<path d="M138.728 276.963L44.7428 256.6V324.126L138.728 344.49V276.963Z" fill="#A37B4D"/>
<path d="M44.7429 255.033L138.728 234.67L231 263L138.728 276.963L44.7429 255.033Z" fill="#D1C093"/>
<path d="M90.5356 252.667L130.529 244.002V283.996L90.5356 292.661V252.667Z" fill="black"/>
<path d="M130.529 243.335L90.5358 234.67V274.663L130.529 283.329V243.335Z" fill="#3A3A3A"/>
<path d="M90.5356 252.667L130.529 244.002V283.996L90.5356 292.661V252.667Z" fill="#3A3A3A"/>
<path d="M50.542 243.335L90.5355 234.67V274.664L50.542 283.329V243.335Z" fill="black"/>
<path d="M90.5356 252.667L50.5421 244.002V283.996L90.5356 292.661V252.667Z" fill="black"/>
<path d="M50.542 243.335L90.5355 234.67L130.529 243.669L90.5355 252.667L50.542 243.335Z" fill="#808080"/>
<circle cx="210.468" cy="232.296" r="12.2402" fill="#0D0D0D"/>
<circle cx="150.403" cy="216.917" r="10.6556" fill="#0D0D0D"/>
<path d="M179.693 126.674L242.516 115.564L240.127 177.869L177.304 188.979L179.693 126.674Z" fill="#BDAA79"/>
<path d="M242.556 114.526L180.768 98.6368L178.379 160.942L240.166 176.831L242.556 114.526Z" fill="#A9996F"/>
<path d="M179.693 126.674L242.516 115.564L251.5 209L177.304 188.979L179.693 126.674Z" fill="#222222"/>
<path d="M179.693 126.674L117.906 110.785L115.516 173.09L177.304 188.979L179.693 126.674Z" fill="#664F34"/>
<path d="M117.5 110.875L180.768 98.6369L242.536 115.045L179.693 126.674L117.5 110.875Z" fill="#4D4C4C"/>
<path d="M170.079 85.389L211.159 78.1243L209.596 118.865L168.516 126.13L170.079 85.389Z" fill="#BDAA79"/>
<path d="M170.079 85.389L211.159 78.1243L209.596 118.865L168.516 126.13L170.079 85.389Z" fill="#222222"/>
<path d="M170.079 85.389L129.676 74.9992L128.114 115.74L168.516 126.13L170.079 85.389Z" fill="#664F34"/>
<path d="M129.562 75.0937L170.782 67.0555L211.125 78.1563L170.079 85.389L129.562 75.0937Z" fill="#4D4C4C"/>
<path d="M284.184 153.46L355.215 148.503L345.25 217.374L274.22 222.332L284.184 153.46Z" fill="#BDAA79"/>
<path d="M284.184 153.46L355.215 147.625L355.215 242.5L274.22 222.332L284.184 153.46Z" fill="#222222"/>
<path d="M217.638 127.425L288.668 122.468L278.704 191.339L207.673 196.297L217.638 127.425Z" fill="#BDAA79"/>
<path d="M284.184 153.46L217.688 127.5L207.507 197.445L274.22 222.332L284.184 153.46Z" fill="#664F34"/>
<path d="M217.638 127.425L288.668 122.468L355.298 147.929L284.184 153.46L217.638 127.425Z" fill="#4D4C4C"/>
<path d="M278.36 106.51L324.806 103.268L318.29 148.303L271.844 151.544L278.36 106.51Z" fill="#BDAA79"/>
<path d="M278.36 106.51L324.875 102.875L318.29 148.303L271.844 151.544L278.36 106.51Z" fill="#222222"/>
<path d="M234.846 89.4858L281.292 86.244L274.776 131.279L228.33 134.52L234.846 89.4858Z" fill="#BDAA79"/>
<path d="M278.36 106.51L234.938 89.4375L228.221 135.271L271.844 151.544L278.36 106.51Z" fill="#664F34"/>
<path d="M234.846 89.4858L281.292 86.244L324.861 102.893L278.36 106.51L234.846 89.4858Z" fill="#4D4C4C"/>
<path d="M166.624 56.3041L195.279 51.2367L194.189 79.6553L165.534 84.7228L166.624 56.3041Z" fill="#BDAA79"/>
<path d="M195.297 50.7632L167.115 43.5159L166.025 71.9346L194.207 79.1819L195.297 50.7632Z" fill="#A9996F"/>
<path d="M166.624 56.3041L195.279 51.2367L194.189 79.6553L165.534 84.7228L166.624 56.3041Z" fill="#222222"/>
<path d="M166.624 56.3041L138.441 49.0568L137.351 77.4755L165.534 84.7228L166.624 56.3041Z" fill="#664F34"/>
<path d="M138.374 49.0469L167.115 43.516L195.375 51.2489L166.624 56.3044L138.374 49.0469Z" fill="#4D4C4C"/>
<path d="M277.972 73.8279L310.37 71.5666L305.825 102.98L273.427 105.241L277.972 73.8279Z" fill="#BDAA79"/>
<path d="M277.972 73.828L310.5 71.3125L305.825 102.98L273.427 105.242L277.972 73.828Z" fill="#222222"/>
<path d="M247.619 61.9531L280.017 59.6919L275.472 91.1055L243.074 93.3667L247.619 61.9531Z" fill="#BDAA79"/>
<path d="M277.972 73.8279L247.688 62L242.998 93.8902L273.427 105.242L277.972 73.8279Z" fill="#664F34"/>
<path d="M247.619 61.9531L280.017 59.6919L310.408 71.305L277.972 73.828L247.619 61.9531Z" fill="#4D4C4C"/>
</svg>
