<svg width="521" height="919" viewBox="0 0 521 919" fill="none" xmlns="http://www.w3.org/2000/svg">
<path d="M1.17676 847.396L260.617 918.329V495.497L1.17676 424.564V847.396Z" fill="#585858"/>
<path d="M520.058 847.396L260.617 918.329V495.497L520.058 424.564V847.396Z" fill="#313131"/>
<path d="M260.257 367.404L520.058 424.564L260.257 495.647L0.456055 424.564L260.257 367.404Z" fill="#8A8A8A"/>
<path d="M434.608 106.25L475.928 90.5241L482.279 134.9L440.96 150.626L434.608 106.25Z" fill="#222222"/>
<path d="M475.821 89.7844L431.75 86.2808L438.101 130.656L482.173 134.16L475.821 89.7844Z" fill="#222222"/>
<path d="M434.608 106.25L475.928 90.5241L482.279 134.9L440.96 150.626L434.608 106.25Z" fill="#C2945E"/>
<path d="M390.431 102.006L431.75 86.2806L438.102 130.656L396.783 146.382L390.431 102.006Z" fill="#222222"/>
<path d="M434.608 106.25L390.537 102.746L396.888 147.122L440.96 150.626L434.608 106.25Z" fill="#222222"/>
<path d="M390.431 102.006L431.75 86.2806L475.875 90.154L434.609 106.25L390.431 102.006Z" fill="#222222"/>
<path d="M387.159 137.357L445.707 115.174L454.779 175.688L396.23 197.871L387.159 137.357Z" fill="#222222"/>
<path d="M445.556 114.166L383.077 110.126L392.148 170.64L454.628 174.68L445.556 114.166Z" fill="#222222"/>
<path d="M387.159 137.357L445.707 115.174L454.779 175.688L396.23 197.871L387.159 137.357Z" fill="#C2945E"/>
<path d="M324.528 132.309L383.077 110.126L392.148 170.64L333.6 192.823L324.528 132.309Z" fill="#222222"/>
<path d="M387.159 137.357L324.679 133.317L333.751 193.831L396.23 197.871L387.159 137.357Z" fill="#222222"/>
<path d="M324.528 132.309L383.077 110.126L445.632 114.67L387.159 137.357L324.528 132.309Z" fill="#222222"/>
<path d="M127.535 387.472L179.356 375.077L180.471 427.139L128.65 439.534L127.535 387.472Z" fill="#BDAA79"/>
<path d="M179.338 374.209L127.034 364.044L128.149 416.106L180.453 426.271L179.338 374.209Z" fill="#A9996F"/>
<path d="M127.535 387.472L179.356 375.077L180.471 427.139L128.65 439.534L127.535 387.472Z" fill="#C2945E"/>
<path d="M75.2125 376.439L127.033 364.043L128.148 416.106L76.3275 428.501L75.2125 376.439Z" fill="#BDAA79"/>
<path d="M127.535 387.472L75.2373 376.377L76.3459 429.369L128.65 439.534L127.535 387.472Z" fill="#A37B4D"/>
<path d="M75.2125 376.439L127.033 364.043L179.347 374.642L127.535 387.471L75.2125 376.439Z" fill="#664F34"/>
<path d="M126.833 344.069L158.419 336.513L159.099 368.247L127.512 375.802L126.833 344.069Z" fill="#BDAA79"/>
<path d="M158.408 335.985L126.527 329.789L127.207 361.522L159.088 367.718L158.408 335.985Z" fill="#A9996F"/>
<path d="M126.833 344.069L158.419 336.513L159.099 368.247L127.512 375.802L126.833 344.069Z" fill="#C2945E"/>
<path d="M94.941 337.344L126.527 329.788L127.207 361.522L95.6206 369.077L94.941 337.344Z" fill="#BDAA79"/>
<path d="M126.833 344.069L94.9521 337.873L95.6318 369.606L127.512 375.802L126.833 344.069Z" fill="#A37B4D"/>
<path d="M94.941 337.344L126.527 329.788L158.413 336.249L126.833 344.068L94.941 337.344Z" fill="#664F34"/>
<path d="M230.181 411.769L282.002 399.374L283.117 451.436L231.296 463.831L230.181 411.769Z" fill="#BDAA79"/>
<path d="M281.984 398.506L229.68 388.341L230.795 440.403L283.099 450.568L281.984 398.506Z" fill="#A9996F"/>
<path d="M230.181 411.769L282.002 399.374L283.117 451.436L231.296 463.831L230.181 411.769Z" fill="#C2945E"/>
<path d="M177.859 400.736L229.679 388.341L230.794 440.403L178.974 452.798L177.859 400.736Z" fill="#BDAA79"/>
<path d="M230.181 411.769L177.883 400.674L178.992 453.666L231.296 463.831L230.181 411.769Z" fill="#A37B4D"/>
<path d="M177.859 400.736L229.679 388.341L281.993 398.94L230.181 411.769L177.859 400.736Z" fill="#664F34"/>
<path d="M230.551 364.696L266.698 356.05L267.476 392.365L231.328 401.012L230.551 364.696Z" fill="#BDAA79"/>
<path d="M266.685 355.444L230.201 348.354L230.979 384.67L267.463 391.76L266.685 355.444Z" fill="#A9996F"/>
<path d="M230.551 364.696L266.698 356.05L267.476 392.365L231.328 401.012L230.551 364.696Z" fill="#C2945E"/>
<path d="M194.054 357L230.201 348.353L230.979 384.669L194.831 393.315L194.054 357Z" fill="#BDAA79"/>
<path d="M230.551 364.696L194.066 357.605L194.844 393.921L231.328 401.012L230.551 364.696Z" fill="#A37B4D"/>
<path d="M194.054 357L230.201 348.353L266.692 355.747L230.551 364.695L194.054 357Z" fill="#664F34"/>
<path d="M242.761 196.256L416.733 158.562V332.533L242.761 370.227V196.256Z" fill="#BDAA79"/>
<path d="M242.761 196.256L416.733 158.562V332.533L242.761 370.227V196.256Z" fill="#C2945E"/>
<path d="M242.761 196.256L68.7889 158.562V332.533L242.761 370.227V196.256Z" fill="#A37B4D"/>
<path d="M67.7017 158.381L242.761 117.968L417.458 158.199L242.761 196.256L67.7017 158.381Z" fill="#222222"/>
<path d="M383.145 377.914L434.966 365.519L436.081 417.582L384.26 429.977L383.145 377.914Z" fill="#BDAA79"/>
<path d="M434.948 364.652L382.644 354.486L383.759 406.549L436.063 416.714L434.948 364.652Z" fill="#A9996F"/>
<path d="M383.145 377.914L434.966 365.519L436.081 417.582L384.26 429.977L383.145 377.914Z" fill="#C2945E"/>
<path d="M330.823 366.881L382.643 354.486L383.758 406.549L331.938 418.944L330.823 366.881Z" fill="#BDAA79"/>
<path d="M383.145 377.915L330.847 366.819L331.956 419.812L384.26 429.977L383.145 377.915Z" fill="#A37B4D"/>
<path d="M330.823 366.881L382.643 354.486L434.957 365.085L383.145 377.914L330.823 366.881Z" fill="#664F34"/>
<path d="M383.514 330.841L419.662 322.195L420.439 358.511L384.292 367.157L383.514 330.841Z" fill="#BDAA79"/>
<path d="M383.514 330.842L420.176 321.831L420.439 358.511L384.292 367.157L383.514 330.842Z" fill="#222222"/>
<path d="M383.514 330.841L347.03 323.751L347.808 360.067L384.292 367.157L383.514 330.841Z" fill="#0D0D0D"/>
<path d="M346.736 323.745L382.311 314.326L420.176 321.842L383.389 330.903L346.736 323.745Z" fill="#4D4C4C"/>
<path d="M150.166 106.349L212.517 92.8392V155.19L150.166 168.7V106.349Z" fill="#BDAA79"/>
<path d="M150.166 106.349L212.517 92.8392V155.19L150.166 168.7V106.349Z" fill="#222222"/>
<path d="M150.166 106.349L87.8144 92.8392V155.19L150.166 168.7V106.349Z" fill="#664F34"/>
<path d="M87.6875 92.8438L150.165 78.2909L212.781 92.8125L150.165 106.349L87.6875 92.8438Z" fill="#4D4C4C"/>
<path d="M104.783 264.644L198.768 244.281V311.874L104.783 332.238V264.644Z" fill="#C2945E"/>
<path d="M104.783 264.644L10.7984 244.281V311.808L104.783 332.171V264.644Z" fill="#A37B4D"/>
<path d="M10.7983 242.715L104.783 222.351L199.268 244.098L104.783 264.644L10.7983 242.715Z" fill="#D1C093"/>
<path d="M138.978 65.4623L179.749 56.6285V97.3996L138.978 106.233V65.4623Z" fill="#BDAA79"/>
<path d="M138.978 65.4623L179.749 56.6285V97.3996L138.978 106.233V65.4623Z" fill="#222222"/>
<path d="M138.978 65.4623L98.2065 56.6285V97.3996L138.978 106.233V65.4623Z" fill="#664F34"/>
<path d="M98.1562 56.7188L138.977 47.1154L179.781 56.625L138.977 65.4623L98.1562 56.7188Z" fill="#4D4C4C"/>
<path d="M249.992 121.438L319.581 106.36V175.949L249.992 191.026V121.438Z" fill="#BDAA79"/>
<path d="M249.992 121.438L319.581 106.36V175.949L249.992 191.026V121.438Z" fill="#222222"/>
<path d="M249.992 121.438L180.404 106.36V175.949L249.992 191.026V121.438Z" fill="#664F34"/>
<path d="M180.125 106.25L249.992 90.1226L319.562 106.375L249.992 121.437L180.125 106.25Z" fill="#4D4C4C"/>
<path d="M237.505 75.805L283.009 65.9459V111.449L237.505 121.309V75.805Z" fill="#BDAA79"/>
<path d="M237.505 75.805L283.009 65.9459V111.449L237.505 121.309V75.805Z" fill="#222222"/>
<path d="M237.505 75.805L192.002 65.9459V111.449L237.505 121.309V75.805Z" fill="#664F34"/>
<path d="M191.812 65.9062L237.506 55.3282L283.094 65.9375L237.506 75.8049L191.812 65.9062Z" fill="#4D4C4C"/>
<path d="M134.44 36.5312L162.879 30.3693V58.8088L134.44 64.9707V36.5312Z" fill="#BDAA79"/>
<path d="M134.44 36.5312L162.879 30.3693V58.8088L134.44 64.9707V36.5312Z" fill="#222222"/>
<path d="M134.44 36.5312L106 30.3693V58.8088L134.44 64.9707V36.5312Z" fill="#664F34"/>
<path d="M105.812 30.3438L134.44 23.7336L162.938 30.375L134.44 36.5314L105.812 30.3438Z" fill="#4D4C4C"/>
<path d="M232.441 43.5156L264.182 36.6384V68.3791L232.441 75.2563V43.5156Z" fill="#BDAA79"/>
<path d="M232.441 43.5156L264.182 36.6384V68.3791L232.441 75.2563V43.5156Z" fill="#222222"/>
<path d="M232.441 43.5156L200.7 36.6384V68.3791L232.441 75.2563V43.5156Z" fill="#664F34"/>
<path d="M200.594 36.625L232.441 29.2323L264.188 36.7188L232.441 43.5156L200.594 36.625Z" fill="#4D4C4C"/>
<path d="M56.5911 240.349L96.5846 231.683V271.677L56.5911 280.342V240.349Z" fill="black"/>
<path d="M96.5845 231.016L56.591 222.351V262.345L96.5845 271.01V231.016Z" fill="#3A3A3A"/>
<path d="M56.5911 240.349L96.5846 231.683V271.677L56.5911 280.342V240.349Z" fill="#3A3A3A"/>
<path d="M16.5974 231.017L56.5909 222.351V262.345L16.5974 271.01V231.017Z" fill="black"/>
<path d="M56.5911 240.349L16.5975 231.683V271.677L56.5911 280.342V240.349Z" fill="black"/>
<path d="M16.5974 231.017L56.5909 222.351L96.5845 231.35L56.5909 240.349L16.5974 231.017Z" fill="#808080"/>
<circle cx="171.603" cy="213.011" r="12.2402" fill="#0D0D0D"/>
<circle cx="114.794" cy="200.77" r="12.2402" fill="#0D0D0D"/>
</svg>
