<svg width="185" height="326" viewBox="0 0 185 326" fill="none" xmlns="http://www.w3.org/2000/svg">
<path d="M0.553223 300.608L92.4615 325.736V175.945L0.553223 150.817V300.608Z" fill="#CCD1E2"/>
<path d="M184.37 300.608L92.4618 325.736V175.945L184.37 150.817V300.608Z" fill="#AAAFC1"/>
<path d="M92.3338 130.568L184.37 150.817L92.3338 175.998L0.297852 150.817L92.3338 130.568Z" fill="#DADFEF"/>
<path d="M154.099 38.0526L168.736 32.4816L170.986 48.2019L156.349 53.7729L154.099 38.0526Z" fill="#222222"/>
<path d="M168.699 32.2195L153.086 30.9784L155.336 46.6987L170.949 47.9399L168.699 32.2195Z" fill="#222222"/>
<path d="M154.099 38.0526L168.736 32.4816L170.986 48.2019L156.349 53.7729L154.099 38.0526Z" fill="#C2945E"/>
<path d="M138.448 36.5491L153.086 30.9782L155.336 46.6985L140.699 52.2694L138.448 36.5491Z" fill="#222222"/>
<path d="M154.099 38.0526L138.486 36.8114L140.736 52.5317L156.349 53.7729L154.099 38.0526Z" fill="#222222"/>
<path d="M138.448 36.5491L153.086 30.9782L168.717 32.3503L154.099 38.0523L138.448 36.5491Z" fill="#222222"/>
<path d="M137.29 49.0725L158.031 41.2141L161.244 62.6515L140.503 70.5099L137.29 49.0725Z" fill="#222222"/>
<path d="M157.977 40.8569L135.843 39.4258L139.057 60.8632L161.191 62.2943L157.977 40.8569Z" fill="#222222"/>
<path d="M137.29 49.0725L158.031 41.2141L161.244 62.6515L140.503 70.5099L137.29 49.0725Z" fill="#C2945E"/>
<path d="M115.103 47.2839L135.844 39.4255L139.058 60.8629L118.317 68.7213L115.103 47.2839Z" fill="#222222"/>
<path d="M137.29 49.0725L115.156 47.6413L118.369 69.0787L140.503 70.5099L137.29 49.0725Z" fill="#222222"/>
<path d="M115.103 47.2839L135.844 39.4255L158.005 41.0353L137.29 49.0724L115.103 47.2839Z" fill="#222222"/>
<path d="M45.3161 137.677L63.6739 133.286L64.0689 151.729L45.711 156.12L45.3161 137.677Z" fill="#BDAA79"/>
<path d="M63.6666 132.978L45.1377 129.377L45.5327 147.821L64.0616 151.422L63.6666 132.978Z" fill="#A9996F"/>
<path d="M45.3161 137.677L63.6739 133.286L64.0689 151.729L45.711 156.12L45.3161 137.677Z" fill="#C2945E"/>
<path d="M26.7809 133.768L45.1387 129.377L45.5337 147.82L27.1759 152.211L26.7809 133.768Z" fill="#BDAA79"/>
<path d="M45.3158 137.677L26.7891 133.746L27.1818 152.519L45.7108 156.12L45.3158 137.677Z" fill="#A37B4D"/>
<path d="M26.7809 133.768L45.1387 129.377L63.671 133.132L45.3165 137.677L26.7809 133.768Z" fill="#664F34"/>
<path d="M45.0678 122.301L56.2574 119.624L56.4981 130.866L45.3085 133.543L45.0678 122.301Z" fill="#BDAA79"/>
<path d="M56.2533 119.437L44.9594 117.242L45.2002 128.484L56.4941 130.679L56.2533 119.437Z" fill="#A9996F"/>
<path d="M45.0678 122.301L56.2574 119.624L56.4981 130.866L45.3085 133.543L45.0678 122.301Z" fill="#C2945E"/>
<path d="M33.769 119.919L44.9585 117.242L45.1993 128.484L34.0097 131.16L33.769 119.919Z" fill="#BDAA79"/>
<path d="M45.0678 122.301L33.7739 120.106L34.0147 131.348L45.3085 133.543L45.0678 122.301Z" fill="#A37B4D"/>
<path d="M33.769 119.919L44.9585 117.242L56.2544 119.531L45.0669 122.301L33.769 119.919Z" fill="#664F34"/>
<path d="M81.6788 146.284L100.037 141.893L100.432 160.337L82.0738 164.728L81.6788 146.284Z" fill="#BDAA79"/>
<path d="M100.03 141.586L81.5009 137.985L81.8959 156.428L100.425 160.029L100.03 141.586Z" fill="#A9996F"/>
<path d="M81.6788 146.284L100.037 141.893L100.432 160.337L82.0738 164.728L81.6788 146.284Z" fill="#C2945E"/>
<path d="M63.1432 142.376L81.501 137.985L81.896 156.428L63.5382 160.819L63.1432 142.376Z" fill="#BDAA79"/>
<path d="M81.6786 146.284L63.1518 142.354L63.5446 161.127L82.0736 164.728L81.6786 146.284Z" fill="#A37B4D"/>
<path d="M63.1432 142.376L81.501 137.985L100.033 141.74L81.6788 146.284L63.1432 142.376Z" fill="#664F34"/>
<path d="M81.8097 129.608L94.6151 126.546L94.8906 139.411L82.0852 142.474L81.8097 129.608Z" fill="#BDAA79"/>
<path d="M94.611 126.331L81.6862 123.819L81.9617 136.684L94.8865 139.196L94.611 126.331Z" fill="#A9996F"/>
<path d="M81.8097 129.608L94.6151 126.546L94.8906 139.411L82.0852 142.474L81.8097 129.608Z" fill="#C2945E"/>
<path d="M68.881 126.882L81.6863 123.819L81.9619 136.684L69.1565 139.747L68.881 126.882Z" fill="#BDAA79"/>
<path d="M81.8097 129.608L68.8849 127.097L69.1605 139.962L82.0852 142.474L81.8097 129.608Z" fill="#A37B4D"/>
<path d="M68.881 126.882L81.6863 123.819L94.6134 126.438L81.8103 129.608L68.881 126.882Z" fill="#664F34"/>
<path d="M86.1357 69.9375L147.766 56.5842V118.215L86.1357 131.568V69.9375Z" fill="#BDAA79"/>
<path d="M86.1357 69.9375L147.766 56.5842V118.215L86.1357 131.568V69.9375Z" fill="#C2945E"/>
<path d="M86.1357 69.9375L24.5053 56.5842V118.215L86.1357 131.568V69.9375Z" fill="#A37B4D"/>
<path d="M24.1191 56.5201L86.1348 42.2039L148.022 56.4559L86.1348 69.9376L24.1191 56.5201Z" fill="#222222"/>
<path d="M135.867 134.291L154.225 129.9L154.62 148.343L136.262 152.734L135.867 134.291Z" fill="#BDAA79"/>
<path d="M154.219 129.593L135.69 125.992L136.085 144.435L154.614 148.036L154.219 129.593Z" fill="#A9996F"/>
<path d="M135.867 134.291L154.225 129.9L154.62 148.343L136.262 152.734L135.867 134.291Z" fill="#C2945E"/>
<path d="M117.332 130.383L135.689 125.991L136.084 144.435L117.727 148.826L117.332 130.383Z" fill="#BDAA79"/>
<path d="M135.867 134.291L117.34 130.361L117.733 149.133L136.262 152.735L135.867 134.291Z" fill="#A37B4D"/>
<path d="M117.332 130.383L135.689 125.991L154.222 129.746L135.867 134.291L117.332 130.383Z" fill="#664F34"/>
<path d="M135.996 117.616L148.802 114.553L149.077 127.418L136.272 130.481L135.996 117.616Z" fill="#BDAA79"/>
<path d="M135.997 117.616L148.985 114.423L149.078 127.418L136.273 130.481L135.997 117.616Z" fill="#222222"/>
<path d="M135.996 117.616L123.071 115.104L123.347 127.969L136.272 130.481L135.996 117.616Z" fill="#0D0D0D"/>
<path d="M122.968 115.101L135.571 111.765L148.984 114.427L135.952 117.637L122.968 115.101Z" fill="#4D4C4C"/>
<path d="M53.3325 38.0873L75.4207 33.3015V55.3897L53.3325 60.1755V38.0873Z" fill="#BDAA79"/>
<path d="M53.3325 38.0873L75.4207 33.3015V55.3897L53.3325 60.1755V38.0873Z" fill="#222222"/>
<path d="M53.3325 38.0873L31.2443 33.3015V55.3897L53.3325 60.1755V38.0873Z" fill="#664F34"/>
<path d="M31.1997 33.3031L53.3328 28.1477L75.5148 33.2921L53.3328 38.0874L31.1997 33.3031Z" fill="#4D4C4C"/>
<path d="M37.2559 94.1645L70.5505 86.9507V110.896L37.2559 118.11V94.1645Z" fill="#C2945E"/>
<path d="M37.2559 94.1645L3.96124 86.9507V110.872L37.2559 118.086V94.1645Z" fill="#A37B4D"/>
<path d="M3.96143 86.3957L37.256 79.1819L70.7278 86.8857L37.256 94.1645L3.96143 86.3957Z" fill="#D1C093"/>
<path d="M49.3701 23.6033L63.8135 20.4739V34.9172L49.3701 38.0466V23.6033Z" fill="#BDAA79"/>
<path d="M49.3701 23.6033L63.8135 20.4739V34.9172L49.3701 38.0466V23.6033Z" fill="#222222"/>
<path d="M49.3701 23.6033L34.9268 20.4739V34.9172L49.3701 38.0466V23.6033Z" fill="#664F34"/>
<path d="M34.9082 20.5058L49.3693 17.1038L63.8244 20.4726L49.3693 23.6033L34.9082 20.5058Z" fill="#4D4C4C"/>
<path d="M88.6973 43.4326L113.349 38.0913V62.7434L88.6973 68.0847V43.4326Z" fill="#BDAA79"/>
<path d="M88.6973 43.4326L113.349 38.0913V62.7434L88.6973 68.0847V43.4326Z" fill="#222222"/>
<path d="M88.6973 43.4326L64.0451 38.0913V62.7434L88.6973 68.0847V43.4326Z" fill="#664F34"/>
<path d="M63.9468 38.0523L88.6976 32.3391L113.343 38.0966L88.6976 43.4326L63.9468 38.0523Z" fill="#4D4C4C"/>
<path d="M84.2725 27.2673L100.392 23.7747V39.8945L84.2725 43.3872V27.2673Z" fill="#BDAA79"/>
<path d="M84.2725 27.2673L100.392 23.7747V39.8945L84.2725 43.3872V27.2673Z" fill="#222222"/>
<path d="M84.2725 27.2673L68.1526 23.7747V39.8945L84.2725 43.3872V27.2673Z" fill="#664F34"/>
<path d="M68.0859 23.7605L84.2729 20.0132L100.423 23.7716L84.2729 27.2671L68.0859 23.7605Z" fill="#4D4C4C"/>
<path d="M47.7622 13.3543L57.8371 11.1714V21.2463L47.7622 23.4291V13.3543Z" fill="#BDAA79"/>
<path d="M47.7622 13.3543L57.8371 11.1714V21.2463L47.7622 23.4291V13.3543Z" fill="#222222"/>
<path d="M47.7622 13.3543L37.6873 11.1714V21.2463L47.7622 23.4291V13.3543Z" fill="#664F34"/>
<path d="M37.6201 11.1622L47.7617 8.82056L57.857 11.1733L47.7617 13.3542L37.6201 11.1622Z" fill="#4D4C4C"/>
<path d="M82.4795 15.8286L93.7238 13.3923V24.6366L82.4795 27.0729V15.8286Z" fill="#BDAA79"/>
<path d="M82.4795 15.8286L93.7238 13.3923V24.6366L82.4795 27.0729V15.8286Z" fill="#222222"/>
<path d="M82.4795 15.8286L71.2352 13.3923V24.6366L82.4795 27.0729V15.8286Z" fill="#664F34"/>
<path d="M71.1973 13.3875L82.4794 10.7686L93.7257 13.4207L82.4794 15.8285L71.1973 13.3875Z" fill="#4D4C4C"/>
<path d="M20.1836 85.5575L34.3515 82.4878V96.6557L20.1836 99.7254V85.5575Z" fill="black"/>
<path d="M34.3511 82.2516L20.1832 79.1819V93.3498L34.3511 96.4195V82.2516Z" fill="#3A3A3A"/>
<path d="M20.1836 85.5575L34.3515 82.4878V96.6557L20.1836 99.7254V85.5575Z" fill="#3A3A3A"/>
<path d="M6.0166 82.2521L20.1845 79.1824V93.3503L6.0166 96.42V82.2521Z" fill="black"/>
<path d="M20.1836 85.5575L6.01567 82.4878V96.6557L20.1836 99.7254V85.5575Z" fill="black"/>
<path d="M6.0166 82.2521L20.1845 79.1824L34.3524 82.3702L20.1845 85.5579L6.0166 82.2521Z" fill="#808080"/>
<circle cx="60.9275" cy="75.873" r="4.33615" fill="#0D0D0D"/>
<circle cx="40.8025" cy="71.5368" r="4.33615" fill="#0D0D0D"/>
</svg>
