<svg width="229" height="461" viewBox="0 0 229 461" fill="none" xmlns="http://www.w3.org/2000/svg">
<path d="M2.28955 429.765L114.51 460.46V277.488L2.28955 246.793V429.765Z" fill="#CCD1E2"/>
<path d="M226.729 429.765L114.509 460.46V277.488L226.729 246.793V429.765Z" fill="#AAAFC1"/>
<path d="M114.354 222.059L226.73 246.793L114.354 277.553L1.97754 246.793L114.354 222.059Z" fill="#DADFEF"/>
<ellipse cx="114.351" cy="249.203" rx="78.5784" ry="7.83979" fill="#AAAFC1"/>
<path d="M121.242 106.719C117.448 104.578 103.972 107.657 103.972 107.657L115.722 191.613L130.743 189.441C130.743 189.441 125.035 108.861 121.242 106.719Z" fill="#5C6174"/>
<path fill-rule="evenodd" clip-rule="evenodd" d="M181.759 251.689C156.191 251.689 135.464 230.62 135.464 204.63C135.464 178.641 156.191 157.572 181.759 157.572C207.328 157.572 228.055 178.641 228.055 204.63C228.055 230.62 207.328 251.689 181.759 251.689ZM181.76 244.376C160.164 244.376 142.658 226.581 142.658 204.631C142.658 182.68 160.164 164.886 181.76 164.886C203.355 164.886 220.861 182.68 220.861 204.631C220.861 226.581 203.355 244.376 181.76 244.376Z" fill="#5C6174"/>
<path fill-rule="evenodd" clip-rule="evenodd" d="M47.2512 251.689C21.6826 251.689 0.955185 230.62 0.955185 204.63C0.955185 178.641 21.6826 157.572 47.2512 157.572C72.8197 157.572 93.5471 178.641 93.5471 204.63C93.5471 230.62 72.8197 251.689 47.2512 251.689ZM47.2513 244.376C25.6562 244.376 8.14998 226.581 8.14998 204.631C8.14998 182.68 25.6562 164.886 47.2513 164.886C68.8463 164.886 86.3526 182.68 86.3526 204.631C86.3526 226.581 68.8463 244.376 47.2513 244.376Z" fill="#5C6174"/>
<ellipse rx="6.25621" ry="6.35918" transform="matrix(-1 0 0 1 181.759 204.63)" fill="#5C6174"/>
<ellipse rx="6.25618" ry="6.35918" transform="matrix(-1 0 0 1 47.2511 204.63)" fill="#5C6174"/>
<rect width="6.25624" height="104.291" transform="matrix(-1 0 0 1 50.3792 102.247)" fill="#E3E8F9"/>
<rect width="6.27435" height="85.4129" transform="matrix(-0.905714 0.423889 0.412618 0.910904 150.092 126.89)" fill="#E3E8F9"/>
<path d="M64.4089 126.783L61.1156 132.189L179.687 207.253L185.318 204.67L64.4089 126.783Z" fill="#E3E8F9"/>
<rect width="6.35921" height="113.237" transform="matrix(4.30034e-08 1 1 -4.4431e-08 47.2512 126.889)" fill="#E3E8F9"/>
<rect width="6.35921" height="27.8402" transform="matrix(4.30034e-08 1 1 -4.4431e-08 16.2827 102.247)" fill="#5C6174"/>
<rect width="6.25619" height="17.6468" transform="matrix(-1 0 0 1 120.605 115.601)" fill="#E3E8F9"/>
<rect width="6.35927" height="34.0963" transform="matrix(4.30029e-08 1 1 -4.44315e-08 95.7368 112.422)" fill="#5C6174"/>
<rect width="5.11673" height="14.5627" transform="matrix(-1 0 0 1 165.631 122.704)" fill="#AEAEAE"/>
<rect width="29.7825" height="10.9809" transform="matrix(-0.313282 0.957262 0.941582 0.314558 121.981 187.916)" fill="#797F98"/>
<rect width="11.5067" height="11.0176" transform="matrix(-0.984483 0.140027 0.13246 0.99681 121.633 208.748)" fill="#797F98"/>
<path d="M124.493 81.9758C124.493 81.9758 100.05 54.0852 66.3532 48.9295C32.656 43.7738 46.8198 63.924 46.8198 63.924C73.274 74.5101 88.0886 100.996 88.0886 100.996L124.493 81.9758Z" fill="#E3E8F9"/>
<rect width="11.4777" height="13.7685" transform="matrix(0.951508 -0.28942 -0.282103 -0.965026 27.7822 108.523)" fill="#8F96B0"/>
<path d="M68.5552 90.3517C69.0483 76.0433 70.0738 63.405 64.7989 58.5684C58.3598 55.6995 57.3096 58.5879 56.4678 67.0367C55.4064 77.6897 51.0971 86.6544 48.6448 88.2318L34.3356 89.0481C33.5504 94.867 37.2077 102.865 39.1345 106.136C48.7359 106.836 68.0621 104.66 68.5552 90.3517Z" fill="#EFF3FF"/>
<ellipse rx="2.73104" ry="2.776" transform="matrix(-1 0 0 1 65.8622 42.717)" fill="#5C6174"/>
<ellipse rx="2.73103" ry="2.77601" transform="matrix(-1 0 0 1 67.3793 39.1698)" fill="#5C6174"/>
<ellipse rx="24.1818" ry="24.5748" transform="matrix(-1 0 0 1 39.5262 38.9148)" fill="#8F96B0"/>
<ellipse rx="2.78412" ry="2.82935" transform="matrix(-1 0 0 1 37.5882 41.4666)" fill="#5C6174"/>
<ellipse rx="2.14775" ry="2.18263" transform="matrix(-1 0 0 1 20.4064 35.6462)" fill="#5C6174"/>
<ellipse rx="3.18621" ry="3.23867" transform="matrix(-1 0 0 1 25.3516 45.8014)" fill="#797F98"/>
<ellipse rx="3.1862" ry="3.23867" transform="matrix(-1 0 0 1 28.5379 47.0352)" fill="#797F98"/>
<path d="M29.2964 35.6227L23.8522 48.2697L29.2964 50.2154L29.2964 35.6227Z" fill="#797F98"/>
<path d="M57.5171 32.8467L54.6344 48.7316L58.6551 46.4954L62.4963 41.8687L65.5585 42.6398L71.7792 30.6876C73.7213 9.83672 40.2206 3.39022 23.2274 2.77333L22.0136 21.8969C30.8743 19.5528 49.3746 28.2201 57.5171 32.8467Z" fill="#5C6174"/>
<ellipse rx="2.73103" ry="2.776" transform="matrix(-1 0 0 1 25.9584 3.236)" fill="#5C6174"/>
<ellipse rx="2.73103" ry="2.776" transform="matrix(-1 0 0 1 30.0551 3.236)" fill="#5C6174"/>
<ellipse rx="2.73105" ry="2.776" transform="matrix(-1 0 0 1 34.9103 3.54444)" fill="#5C6174"/>
<ellipse rx="2.73104" ry="2.776" transform="matrix(-1 0 0 1 39.7655 4.31555)" fill="#5C6174"/>
<ellipse rx="2.73103" ry="2.776" transform="matrix(-1 0 0 1 44.6205 5.08666)" fill="#5C6174"/>
<ellipse rx="2.73103" ry="2.77601" transform="matrix(-1 0 0 1 49.4758 6.32044)" fill="#5C6174"/>
<ellipse rx="2.73104" ry="2.776" transform="matrix(-1 0 0 1 65.4069 16.1907)" fill="#5C6174"/>
<ellipse rx="2.73104" ry="2.77601" transform="matrix(-1 0 0 1 61.4621 13.4147)" fill="#5C6174"/>
<ellipse rx="2.73104" ry="2.776" transform="matrix(-1 0 0 1 57.5173 10.6387)" fill="#5C6174"/>
<ellipse rx="2.73104" ry="2.776" transform="matrix(-1 0 0 1 53.5724 7.86267)" fill="#5C6174"/>
<ellipse rx="2.73103" ry="2.77601" transform="matrix(-1 0 0 1 68.2897 19.892)" fill="#5C6174"/>
<ellipse rx="2.73103" ry="2.776" transform="matrix(-1 0 0 1 70.8691 24.3645)" fill="#5C6174"/>
<ellipse rx="2.73107" ry="2.776" transform="matrix(-1 0 0 1 71.931 28.5285)" fill="#5C6174"/>
<ellipse rx="2.73103" ry="2.776" transform="matrix(-1 0 0 1 70.4137 32.0756)" fill="#5C6174"/>
<ellipse rx="2.73104" ry="2.776" transform="matrix(-1 0 0 1 68.8964 35.6227)" fill="#5C6174"/>
<ellipse rx="4.06219" ry="4.07174" transform="matrix(-0.883144 -0.469133 -0.455958 0.890017 62.6426 43.9535)" fill="#797F98"/>
<path d="M59.9478 42.2004C58.964 43.4511 57.5408 47.2471 58.7793 48.2539C60.0179 49.2608 64.2153 48.1419 65.1991 46.8912C66.1829 45.6405 63.5805 44.7316 62.3419 43.7247C61.1033 42.7179 60.9315 40.9497 59.9478 42.2004Z" fill="#797F98"/>
<path d="M29.9144 54.702C29.9144 56.2646 35.7204 59.4272 37.258 59.4272C38.7956 59.4272 41.8896 55.1527 41.8896 53.5901C41.8896 52.0275 37.1317 53.5902 35.5941 53.5902C34.0565 53.5902 29.9144 53.1393 29.9144 54.702Z" fill="#797F98"/>
<rect width="4.09656" height="26.0636" transform="matrix(-1 0 0 1 122 198.327)" fill="#5C6174"/>
<ellipse rx="14.9449" ry="15.1909" transform="matrix(-1 0 0 1 112.821 189.46)" fill="#8F96B0"/>
<path fill-rule="evenodd" clip-rule="evenodd" d="M87.7105 100.319C88.2169 100.985 88.741 101.659 89.2914 102.333C83.6909 111.073 78.266 133.714 76.7781 140.246C76.5464 140.793 76.4167 141.332 76.4185 141.852C76.3922 141.972 76.3788 142.035 76.3788 142.035L76.4259 142.054C76.4339 142.166 76.4483 142.278 76.4695 142.388C77.3664 147.059 109.097 173.181 109.097 173.181L119.421 161.879L95.4251 139.233L110.897 112.58C112.144 112.583 113.369 112.603 114.562 112.623L114.563 112.623C125.478 112.807 133.835 112.947 133.835 99.0081C133.835 84.6654 121.09 79.1134 121.09 79.1134C108.311 79.1134 85.8898 88.8295 87.7105 100.319Z" fill="#5C6174"/>
<rect width="24.4405" height="11.0173" transform="matrix(-0.675205 0.740592 0.727079 0.683376 119.766 159.509)" fill="#797F98"/>
<rect width="19.6984" height="11.152" transform="matrix(-0.998914 -0.0266734 -0.029801 1.00028 111.531 173.869)" fill="#797F98"/>
<rect width="16.6898" height="5.86044" transform="matrix(-1 0 0 1 111.531 185.064)" fill="#5C6174"/>
<rect width="16.6896" height="5.86046" transform="matrix(-1 0 0 1 128.221 219.919)" fill="#5C6174"/>
<rect width="4.0965" height="11.5667" transform="matrix(-1 0 0 1 105.159 187.994)" fill="#5C6174"/>
</svg>
