<svg width="228" height="461" viewBox="0 0 228 461" fill="none" xmlns="http://www.w3.org/2000/svg">
<path d="M1.77319 429.862L113.993 460.556V277.584L1.77319 246.889V429.862Z" fill="#F57731"/>
<path d="M226.213 429.862L113.993 460.556V277.584L226.213 246.889V429.862Z" fill="#C35A1F"/>
<path d="M113.837 222.155L226.213 246.889L113.837 277.649L1.46118 246.889L113.837 222.155Z" fill="#FD8746"/>
<ellipse cx="113.835" cy="249.299" rx="78.5784" ry="7.83979" fill="#C35A1F"/>
<rect width="29.7825" height="10.9809" transform="matrix(-0.493231 0.87819 0.862561 0.491438 105.815 150.824)" fill="#AD5D4E"/>
<rect width="11.5067" height="11.0176" transform="matrix(-0.992933 -0.0538403 -0.0636572 1.00356 101.428 171.191)" fill="#AD5D4E"/>
<path d="M111.868 113.686C111.868 113.686 110.692 97.3719 104.306 92.9209C97.9209 88.4699 66.6011 120.061 66.6011 120.061L75.3449 132.503L111.868 113.686Z" fill="#474747"/>
<path d="M83.6887 112.244C79.802 112.187 67.8145 119.018 67.8145 119.018L93.0308 170.059L106.607 163.275C106.607 163.275 87.5754 112.3 83.6887 112.244Z" fill="#474747"/>
<path fill-rule="evenodd" clip-rule="evenodd" d="M181.243 251.785C155.675 251.785 134.947 230.716 134.947 204.727C134.947 178.737 155.675 157.668 181.243 157.668C206.812 157.668 227.539 178.737 227.539 204.727C227.539 230.716 206.812 251.785 181.243 251.785ZM181.243 244.472C159.648 244.472 142.142 226.678 142.142 204.727C142.142 182.777 159.648 164.982 181.243 164.982C202.838 164.982 220.344 182.777 220.344 204.727C220.344 226.678 202.838 244.472 181.243 244.472Z" fill="#3F3F3F"/>
<path fill-rule="evenodd" clip-rule="evenodd" d="M46.7348 251.785C21.1662 251.785 0.438828 230.716 0.438828 204.727C0.438828 178.737 21.1662 157.668 46.7348 157.668C72.3034 157.668 93.0308 178.737 93.0308 204.727C93.0308 230.716 72.3034 251.785 46.7348 251.785ZM46.7349 244.472C25.1399 244.472 7.63362 226.678 7.63362 204.727C7.63362 182.777 25.1399 164.982 46.7349 164.982C68.33 164.982 85.8362 182.777 85.8362 204.727C85.8362 226.678 68.33 244.472 46.7349 244.472Z" fill="#3F3F3F"/>
<ellipse rx="6.25621" ry="6.35918" transform="matrix(-1 0 0 1 181.243 204.726)" fill="#474747"/>
<ellipse rx="6.25618" ry="6.35918" transform="matrix(-1 0 0 1 46.7348 204.726)" fill="#474747"/>
<rect width="6.25624" height="104.291" transform="matrix(-1 0 0 1 49.8628 102.343)" fill="#E0A458"/>
<rect width="6.27435" height="85.4129" transform="matrix(-0.905714 0.423889 0.412618 0.910904 149.575 126.987)" fill="#E0A458"/>
<path d="M63.8926 126.879L60.5992 132.286L179.171 207.35L184.801 204.766L63.8926 126.879Z" fill="#E0A458"/>
<rect width="6.35921" height="113.237" transform="matrix(4.30034e-08 1 1 -4.4431e-08 46.7349 126.986)" fill="#E0A458"/>
<rect width="6.35921" height="27.8402" transform="matrix(4.30034e-08 1 1 -4.4431e-08 15.7664 102.343)" fill="#474747"/>
<rect width="6.25619" height="17.6468" transform="matrix(-1 0 0 1 120.089 115.697)" fill="#E0A458"/>
<rect width="6.35927" height="34.0963" transform="matrix(4.30029e-08 1 1 -4.44315e-08 95.2202 112.518)" fill="#474747"/>
<rect width="5.11673" height="14.5627" transform="matrix(-1 0 0 1 165.115 122.801)" fill="#A86561"/>
<path d="M123.976 82.0723C123.976 82.0723 99.5341 54.1817 65.8369 49.026C32.1396 43.8702 46.3034 64.0205 46.3034 64.0205C72.7577 74.6066 87.5722 101.092 87.5722 101.092L123.976 82.0723Z" fill="#E0A458"/>
<rect width="11.4777" height="13.7685" transform="matrix(0.951508 -0.28942 -0.282103 -0.965026 27.2659 108.62)" fill="#A27D63"/>
<path d="M68.0388 90.4482C68.532 76.1398 69.5575 63.5015 64.2825 58.6649C57.8435 55.796 56.7932 58.6844 55.9514 67.1332C54.89 77.7862 50.5807 86.7509 48.1285 88.3283L33.8192 89.1445C33.034 94.9635 36.6913 102.961 38.6181 106.232C48.2196 106.933 67.5457 104.757 68.0388 90.4482Z" fill="#F4BB73"/>
<rect width="4.09656" height="26.0636" transform="matrix(-1 0 0 1 117.401 166.639)" fill="#474747"/>
<ellipse rx="2.73104" ry="2.776" transform="matrix(-1 0 0 1 65.3459 42.8134)" fill="#474747"/>
<ellipse rx="2.73103" ry="2.77601" transform="matrix(-1 0 0 1 66.863 39.2662)" fill="#474747"/>
<rect width="16.6898" height="5.86044" transform="matrix(-0.99916 -0.0409742 -0.0409742 0.99916 105.818 181.46)" fill="#474747"/>
<ellipse rx="24.1818" ry="24.5748" transform="matrix(-1 0 0 1 39.0099 39.0112)" fill="#936D51"/>
<path d="M34.2877 41.563C34.2877 43.1256 34.8032 43.2248 37.0718 42.6836C39.1782 43.4748 39.856 43.1256 39.856 41.563C39.856 40.0004 38.6095 38.7336 37.0718 38.7336C35.5342 38.7336 34.2877 40.0004 34.2877 41.563Z" fill="#474747"/>
<path d="M17.4597 35.5858C17.2804 36.9742 17.727 37.1215 19.8048 36.9009C21.5855 37.8456 22.2278 37.6131 22.4071 36.2247C22.5863 34.8363 21.6242 33.5678 20.258 33.3914C18.8918 33.215 17.6389 34.1974 17.4597 35.5858Z" fill="#474747"/>
<ellipse rx="3.18621" ry="3.23867" transform="matrix(-1 0 0 1 24.8353 45.8978)" fill="#7B5A41"/>
<ellipse rx="3.1862" ry="3.23867" transform="matrix(-1 0 0 1 28.0216 47.1316)" fill="#7B5A41"/>
<path d="M28.78 35.7191L23.3358 48.3661L28.78 50.3118L28.78 35.7191Z" fill="#7B5A41"/>
<path d="M57.0008 32.9431L54.118 48.8281L58.1387 46.5918L61.9799 41.9651L65.0422 42.7363L71.2628 30.784C73.2049 9.93314 39.7042 3.48664 22.7111 2.86975L21.4973 21.9934C30.358 19.6492 48.8582 28.3165 57.0008 32.9431Z" fill="#474747"/>
<ellipse rx="2.73103" ry="2.776" transform="matrix(-1 0 0 1 25.4423 3.3324)" fill="#474747"/>
<ellipse rx="2.73103" ry="2.776" transform="matrix(-1 0 0 1 29.5387 3.3324)" fill="#474747"/>
<ellipse rx="2.73105" ry="2.776" transform="matrix(-1 0 0 1 34.394 3.64087)" fill="#474747"/>
<ellipse rx="2.73104" ry="2.776" transform="matrix(-1 0 0 1 39.2492 4.41199)" fill="#474747"/>
<ellipse rx="2.73103" ry="2.776" transform="matrix(-1 0 0 1 44.1042 5.18311)" fill="#474747"/>
<ellipse rx="2.73103" ry="2.77601" transform="matrix(-1 0 0 1 48.9594 6.41687)" fill="#474747"/>
<ellipse rx="2.73104" ry="2.776" transform="matrix(-1 0 0 1 64.8905 16.2871)" fill="#474747"/>
<ellipse rx="2.73104" ry="2.77601" transform="matrix(-1 0 0 1 60.9457 13.5111)" fill="#474747"/>
<ellipse rx="2.73104" ry="2.776" transform="matrix(-1 0 0 1 57.0009 10.7351)" fill="#474747"/>
<ellipse rx="2.73104" ry="2.776" transform="matrix(-1 0 0 1 53.0561 7.95911)" fill="#474747"/>
<ellipse rx="2.73103" ry="2.77601" transform="matrix(-1 0 0 1 67.7734 19.9884)" fill="#474747"/>
<ellipse rx="2.73103" ry="2.776" transform="matrix(-1 0 0 1 70.3525 24.4608)" fill="#474747"/>
<ellipse rx="2.73107" ry="2.776" transform="matrix(-1 0 0 1 71.4147 28.6249)" fill="#474747"/>
<ellipse rx="2.73103" ry="2.776" transform="matrix(-1 0 0 1 69.8974 32.172)" fill="#474747"/>
<ellipse rx="2.73104" ry="2.776" transform="matrix(-1 0 0 1 68.3803 35.7191)" fill="#474747"/>
<ellipse rx="4.06219" ry="4.07174" transform="matrix(-0.883144 -0.469133 -0.455958 0.890017 62.1263 44.0499)" fill="#7B5A41"/>
<path d="M59.4314 42.2968C58.4476 43.5475 57.0244 47.3434 58.263 48.3503C59.5016 49.3572 63.699 48.2382 64.6827 46.9875C65.6665 45.7368 63.0641 44.8279 61.8255 43.8211C60.5869 42.8142 60.4152 41.0461 59.4314 42.2968Z" fill="#7B5A41"/>
<path d="M29.3981 54.7984C29.3981 56.361 35.204 59.5236 36.7416 59.5236C43.866 60.2461 43.866 53.4962 43.866 51.9336C43.866 50.371 36.6154 53.6866 35.0777 53.6866C33.5401 53.6866 29.3981 53.2358 29.3981 54.7984Z" fill="#7B5A41"/>
<rect width="4.0965" height="11.5667" transform="matrix(-0.99916 -0.0409742 -0.0409742 0.99916 99.3311 184.127)" fill="#474747"/>
<rect width="16.6896" height="5.86046" transform="matrix(-1 0 0 1 123.622 188.23)" fill="#474747"/>
<ellipse rx="14.9449" ry="15.1909" transform="matrix(-1 0 0 1 112.304 189.556)" fill="#C8924D"/>
<rect width="22.6713" height="11.0173" transform="matrix(-0.155473 0.990054 0.983278 0.169736 128.574 173.007)" fill="#AD5D4E"/>
<rect width="14.0601" height="11.152" transform="matrix(-0.900658 0.432845 0.430688 0.903304 130.298 187.359)" fill="#AD5D4E"/>
<path fill-rule="evenodd" clip-rule="evenodd" d="M87.1943 100.415C90.2771 104.467 94.0137 108.86 100.37 111.127C98.2461 122.524 98.6369 141.59 98.8001 147.006C98.6628 147.383 98.5914 147.762 98.5985 148.142C98.6875 152.897 125.51 184.039 125.51 184.039L137.606 174.659L115.445 145.098L124.66 112.228C129.934 111.144 133.319 107.975 133.319 99.1045C133.319 84.7618 120.574 79.2098 120.574 79.2098C107.795 79.2098 85.3736 88.9259 87.1943 100.415Z" fill="#474747"/>
<rect width="16.6898" height="5.86044" transform="matrix(-0.906965 0.421205 0.421205 0.906965 134.426 197.856)" fill="#474747"/>
<rect width="4.0965" height="11.5667" transform="matrix(-0.906965 0.421205 0.421205 0.906965 129.881 203.197)" fill="#474747"/>
<rect x="97.0029" y="20.9336" width="75.5" height="1.83082" fill="white"/>
<rect x="120.089" y="31.4009" width="75.5" height="1.83082" fill="white"/>
<rect x="153.304" y="100.315" width="59.0903" height="1.83082" fill="white"/>
<rect x="151.698" y="110.664" width="38.6055" height="1.83082" fill="white"/>
</svg>
