<svg width="228" height="461" viewBox="0 0 228 461" fill="none" xmlns="http://www.w3.org/2000/svg">
<path d="M1.96973 429.428L114.19 460.123V277.151L1.96973 246.456V429.428Z" fill="#4B5578"/>
<path d="M226.41 429.428L114.189 460.123V277.151L226.41 246.456V429.428Z" fill="#363D52"/>
<path d="M114.034 221.721L226.41 246.456L114.034 277.215L1.65771 246.456L114.034 221.721Z" fill="#6E7CAE"/>
<ellipse cx="114.031" cy="248.866" rx="78.5784" ry="7.83979" fill="#4B5578"/>
<rect width="29.7825" height="10.9809" transform="matrix(-0.493231 0.87819 0.862561 0.491438 106.011 150.39)" fill="#AD5D4E"/>
<rect width="11.5067" height="11.0176" transform="matrix(-0.992933 -0.0538403 -0.0636572 1.00356 101.624 170.757)" fill="#AD5D4E"/>
<path d="M112.065 113.253C112.065 113.253 110.888 96.9383 104.502 92.4873C98.1169 88.0363 66.7972 119.627 66.7972 119.627L75.541 132.07L112.065 113.253Z" fill="#474747"/>
<path d="M83.8852 111.81C79.9985 111.754 68.011 118.584 68.011 118.584L93.2274 169.626L106.804 162.841C106.804 162.841 87.772 111.867 83.8852 111.81Z" fill="#474747"/>
<path fill-rule="evenodd" clip-rule="evenodd" d="M181.439 251.351C155.871 251.351 135.143 230.283 135.143 204.293C135.143 178.304 155.871 157.235 181.439 157.235C207.008 157.235 227.735 178.304 227.735 204.293C227.735 230.283 207.008 251.351 181.439 251.351ZM181.439 244.039C159.844 244.039 142.338 226.244 142.338 204.294C142.338 182.343 159.844 164.548 181.439 164.548C203.035 164.548 220.541 182.343 220.541 204.294C220.541 226.244 203.035 244.039 181.439 244.039Z" fill="#3F3F3F"/>
<path fill-rule="evenodd" clip-rule="evenodd" d="M46.9311 251.351C21.3625 251.351 0.635117 230.283 0.635117 204.293C0.635117 178.304 21.3625 157.235 46.9311 157.235C72.4996 157.235 93.2271 178.304 93.2271 204.293C93.2271 230.283 72.4996 251.351 46.9311 251.351ZM46.9312 244.039C25.3362 244.039 7.82991 226.244 7.82991 204.294C7.82991 182.343 25.3362 164.548 46.9312 164.548C68.5262 164.548 86.0325 182.343 86.0325 204.294C86.0325 226.244 68.5262 244.039 46.9312 244.039Z" fill="#3F3F3F"/>
<ellipse rx="6.25621" ry="6.35918" transform="matrix(-1 0 0 1 181.44 204.293)" fill="#474747"/>
<ellipse rx="6.25618" ry="6.35918" transform="matrix(-1 0 0 1 46.9308 204.293)" fill="#474747"/>
<rect width="6.25624" height="104.291" transform="matrix(-1 0 0 1 50.0591 101.91)" fill="#E0A458"/>
<rect width="6.27435" height="85.4129" transform="matrix(-0.905714 0.423889 0.412618 0.910904 149.771 126.553)" fill="#E0A458"/>
<path d="M64.0889 126.445L60.7955 131.852L179.367 206.916L184.998 204.333L64.0889 126.445Z" fill="#E0A458"/>
<rect width="6.35921" height="113.237" transform="matrix(4.30034e-08 1 1 -4.4431e-08 46.9312 126.552)" fill="#E0A458"/>
<rect width="6.35921" height="27.8402" transform="matrix(4.30034e-08 1 1 -4.4431e-08 15.9629 101.91)" fill="#474747"/>
<rect width="6.25619" height="17.6468" transform="matrix(-1 0 0 1 120.285 115.264)" fill="#E0A458"/>
<rect width="6.35927" height="34.0963" transform="matrix(4.30029e-08 1 1 -4.44315e-08 95.4165 112.084)" fill="#474747"/>
<rect width="5.11673" height="14.5627" transform="matrix(-1 0 0 1 165.311 122.367)" fill="#A86561"/>
<path d="M124.173 81.6386C124.173 81.6386 99.7302 53.748 66.0329 48.5923C32.3357 43.4366 46.4995 63.5868 46.4995 63.5868C72.9537 74.1729 87.7682 100.659 87.7682 100.659L124.173 81.6386Z" fill="#E0A458"/>
<rect width="11.4777" height="13.7685" transform="matrix(0.951508 -0.28942 -0.282103 -0.965026 27.4624 108.186)" fill="#A27D63"/>
<path d="M68.2351 90.0145C68.7282 75.7062 69.7538 63.0679 64.4788 58.2312C58.0398 55.3624 56.9895 58.2507 56.1477 66.6995C55.0863 77.3525 50.777 86.3172 48.3248 87.8946L34.0155 88.7109C33.2303 94.5298 36.8876 102.527 38.8144 105.799C48.4158 106.499 67.742 104.323 68.2351 90.0145Z" fill="#F4BB73"/>
<rect width="4.09656" height="26.0636" transform="matrix(-1 0 0 1 117.598 166.205)" fill="#474747"/>
<ellipse rx="2.73104" ry="2.776" transform="matrix(-1 0 0 1 65.5419 42.3798)" fill="#474747"/>
<ellipse rx="2.73103" ry="2.77601" transform="matrix(-1 0 0 1 67.0595 38.8327)" fill="#474747"/>
<rect width="16.6898" height="5.86044" transform="matrix(-0.99916 -0.0409742 -0.0409742 0.99916 106.014 181.027)" fill="#474747"/>
<ellipse rx="24.1818" ry="24.5748" transform="matrix(-1 0 0 1 39.2064 38.5776)" fill="#936D51"/>
<path d="M34.4845 41.1294C34.4845 42.692 35 42.7912 37.2686 42.25C39.375 43.0412 40.0527 42.692 40.0527 41.1294C40.0527 39.5668 38.8062 38.3 37.2686 38.3C35.731 38.3 34.4845 39.5668 34.4845 41.1294Z" fill="#474747"/>
<path d="M17.6562 35.1522C17.4769 36.5406 17.9235 36.6879 20.0013 36.4673C21.7821 37.412 22.4243 37.1795 22.6036 35.7911C22.7829 34.4027 21.8207 33.1342 20.4545 32.9578C19.0883 32.7814 17.8355 33.7639 17.6562 35.1522Z" fill="#474747"/>
<ellipse rx="3.18621" ry="3.23867" transform="matrix(-1 0 0 1 25.0321 45.4642)" fill="#7B5A41"/>
<ellipse rx="3.1862" ry="3.23867" transform="matrix(-1 0 0 1 28.2181 46.698)" fill="#7B5A41"/>
<path d="M28.9766 35.2855L23.5323 47.9325L28.9766 49.8782L28.9766 35.2855Z" fill="#7B5A41"/>
<path d="M57.1975 32.5096L54.3148 48.3945L58.3355 46.1582L62.1767 41.5316L65.2389 42.3027L71.4596 30.3504C73.4017 9.49955 39.901 3.05305 22.9079 2.43616L21.6941 21.5598C30.5548 19.2156 49.055 27.8829 57.1975 32.5096Z" fill="#474747"/>
<ellipse rx="2.73103" ry="2.776" transform="matrix(-1 0 0 1 25.6386 2.89881)" fill="#474747"/>
<ellipse rx="2.73103" ry="2.776" transform="matrix(-1 0 0 1 29.7353 2.89881)" fill="#474747"/>
<ellipse rx="2.73105" ry="2.776" transform="matrix(-1 0 0 1 34.5902 3.20728)" fill="#474747"/>
<ellipse rx="2.73104" ry="2.776" transform="matrix(-1 0 0 1 39.4457 3.97834)" fill="#474747"/>
<ellipse rx="2.73103" ry="2.776" transform="matrix(-1 0 0 1 44.3007 4.74945)" fill="#474747"/>
<ellipse rx="2.73103" ry="2.77601" transform="matrix(-1 0 0 1 49.1562 5.98328)" fill="#474747"/>
<ellipse rx="2.73104" ry="2.776" transform="matrix(-1 0 0 1 65.0868 15.8535)" fill="#474747"/>
<ellipse rx="2.73104" ry="2.77601" transform="matrix(-1 0 0 1 61.142 13.0775)" fill="#474747"/>
<ellipse rx="2.73104" ry="2.776" transform="matrix(-1 0 0 1 57.1972 10.3015)" fill="#474747"/>
<ellipse rx="2.73104" ry="2.776" transform="matrix(-1 0 0 1 53.2524 7.52545)" fill="#474747"/>
<ellipse rx="2.73103" ry="2.77601" transform="matrix(-1 0 0 1 67.9697 19.5548)" fill="#474747"/>
<ellipse rx="2.73103" ry="2.776" transform="matrix(-1 0 0 1 70.5492 24.0273)" fill="#474747"/>
<ellipse rx="2.73107" ry="2.776" transform="matrix(-1 0 0 1 71.6112 28.1913)" fill="#474747"/>
<ellipse rx="2.73103" ry="2.776" transform="matrix(-1 0 0 1 70.0942 31.7384)" fill="#474747"/>
<ellipse rx="2.73104" ry="2.776" transform="matrix(-1 0 0 1 68.5766 35.2855)" fill="#474747"/>
<ellipse rx="4.06219" ry="4.07174" transform="matrix(-0.883144 -0.469133 -0.455958 0.890017 62.323 43.6163)" fill="#7B5A41"/>
<path d="M59.6277 41.8632C58.6439 43.1139 57.2207 46.9098 58.4593 47.9167C59.6979 48.9236 63.8953 47.8047 64.879 46.5539C65.8628 45.3032 63.2604 44.3944 62.0218 43.3875C60.7832 42.3806 60.6114 40.6125 59.6277 41.8632Z" fill="#7B5A41"/>
<path d="M29.5946 54.3648C29.5946 55.9274 35.4005 59.09 36.9381 59.09C44.0625 59.8125 44.0625 53.0626 44.0625 51.5C44.0625 49.9374 36.8119 53.253 35.2743 53.253C33.7367 53.253 29.5946 52.8022 29.5946 54.3648Z" fill="#7B5A41"/>
<rect width="4.0965" height="11.5667" transform="matrix(-0.99916 -0.0409742 -0.0409742 0.99916 99.5273 183.693)" fill="#474747"/>
<rect width="16.6896" height="5.86046" transform="matrix(-1 0 0 1 123.818 187.797)" fill="#474747"/>
<ellipse rx="14.9449" ry="15.1909" transform="matrix(-1 0 0 1 112.501 189.122)" fill="#C8924D"/>
<rect width="22.6713" height="11.0173" transform="matrix(-0.155473 0.990054 0.983278 0.169736 128.771 172.574)" fill="#AD5D4E"/>
<rect width="14.0601" height="11.152" transform="matrix(-0.900658 0.432845 0.430688 0.903304 130.495 186.926)" fill="#AD5D4E"/>
<path fill-rule="evenodd" clip-rule="evenodd" d="M87.3903 99.9818C90.4732 104.034 94.2097 108.427 100.566 110.694C98.4421 122.091 98.833 141.156 98.9961 146.573C98.8588 146.949 98.7875 147.328 98.7946 147.708C98.8835 152.463 125.706 183.605 125.706 183.605L137.802 174.225L115.641 144.664L124.856 111.795C130.13 110.71 133.515 107.542 133.515 98.6709C133.515 84.3283 120.77 78.7762 120.77 78.7762C107.991 78.7762 85.5697 88.4923 87.3903 99.9818Z" fill="#474747"/>
<rect width="16.6898" height="5.86044" transform="matrix(-0.906965 0.421205 0.421205 0.906965 134.622 197.422)" fill="#474747"/>
<rect width="4.0965" height="11.5667" transform="matrix(-0.906965 0.421205 0.421205 0.906965 130.077 202.763)" fill="#474747"/>
<rect x="97.1992" y="20.5" width="75.5" height="1.83082" fill="white"/>
<rect x="120.285" y="30.9673" width="75.5" height="1.83082" fill="white"/>
<rect x="153.5" y="99.8814" width="59.0903" height="1.83082" fill="white"/>
<rect x="151.895" y="110.231" width="38.6055" height="1.83082" fill="white"/>
</svg>
