<svg width="228" height="461" viewBox="0 0 228 461" fill="none" xmlns="http://www.w3.org/2000/svg">
<path d="M1.8833 429.428L114.104 460.123V277.151L1.8833 246.456V429.428Z" fill="#4B5578"/>
<path d="M226.323 429.428L114.103 460.123V277.151L226.323 246.456V429.428Z" fill="#363D52"/>
<path d="M113.947 221.721L226.323 246.456L113.947 277.215L1.57129 246.456L113.947 221.721Z" fill="#6E7CAE"/>
<ellipse cx="113.945" cy="248.866" rx="78.5784" ry="7.83979" fill="#4B5578"/>
<path d="M120.835 106.382C117.042 104.241 103.566 107.32 103.566 107.32L115.316 191.276L130.337 189.104C130.337 189.104 124.628 108.524 120.835 106.382Z" fill="#474747"/>
<path fill-rule="evenodd" clip-rule="evenodd" d="M181.353 251.351C155.784 251.351 135.057 230.283 135.057 204.293C135.057 178.304 155.784 157.235 181.353 157.235C206.922 157.235 227.649 178.304 227.649 204.293C227.649 230.283 206.922 251.351 181.353 251.351ZM181.353 244.039C159.758 244.039 142.252 226.244 142.252 204.294C142.252 182.343 159.758 164.548 181.353 164.548C202.948 164.548 220.454 182.343 220.454 204.294C220.454 226.244 202.948 244.039 181.353 244.039Z" fill="#3F3F3F"/>
<path fill-rule="evenodd" clip-rule="evenodd" d="M46.8447 251.351C21.2761 251.351 0.548691 230.283 0.548691 204.293C0.548691 178.304 21.2761 157.235 46.8447 157.235C72.4132 157.235 93.1406 178.304 93.1406 204.293C93.1406 230.283 72.4132 251.351 46.8447 251.351ZM46.8448 244.039C25.2497 244.039 7.74348 226.244 7.74348 204.294C7.74348 182.343 25.2497 164.548 46.8448 164.548C68.4398 164.548 85.9461 182.343 85.9461 204.294C85.9461 226.244 68.4398 244.039 46.8448 244.039Z" fill="#3F3F3F"/>
<ellipse rx="6.25621" ry="6.35918" transform="matrix(-1 0 0 1 181.353 204.293)" fill="#474747"/>
<ellipse rx="6.25618" ry="6.35918" transform="matrix(-1 0 0 1 46.8444 204.293)" fill="#474747"/>
<rect width="6.25624" height="104.291" transform="matrix(-1 0 0 1 49.9727 101.91)" fill="#E6E6E6"/>
<rect width="6.27435" height="85.4129" transform="matrix(-0.905714 0.423889 0.412618 0.910904 149.685 126.553)" fill="#E6E6E6"/>
<path d="M64.0024 126.445L60.7091 131.852L179.281 206.916L184.911 204.333L64.0024 126.445Z" fill="#E6E6E6"/>
<rect width="6.35921" height="113.237" transform="matrix(4.30034e-08 1 1 -4.4431e-08 46.8447 126.552)" fill="#E6E6E6"/>
<rect width="6.35921" height="27.8402" transform="matrix(4.30034e-08 1 1 -4.4431e-08 15.8765 101.91)" fill="#474747"/>
<rect width="6.25619" height="17.6468" transform="matrix(-1 0 0 1 120.199 115.264)" fill="#E6E6E6"/>
<rect width="6.35927" height="34.0963" transform="matrix(4.30029e-08 1 1 -4.44315e-08 95.3301 112.084)" fill="#474747"/>
<rect width="5.11673" height="14.5627" transform="matrix(-1 0 0 1 165.225 122.367)" fill="#AEAEAE"/>
<rect width="29.7825" height="10.9809" transform="matrix(-0.313282 0.957262 0.941582 0.314558 121.574 187.579)" fill="#B1B1B1"/>
<rect width="11.5067" height="11.0176" transform="matrix(-0.984483 0.140027 0.13246 0.99681 121.227 208.411)" fill="#B1B1B1"/>
<path d="M124.086 81.6386C124.086 81.6386 99.6437 53.748 65.9465 48.5923C32.2492 43.4366 46.4131 63.5868 46.4131 63.5868C72.8673 74.1729 87.6818 100.659 87.6818 100.659L124.086 81.6386Z" fill="#E6E6E6"/>
<rect width="11.4777" height="13.7685" transform="matrix(0.951508 -0.28942 -0.282103 -0.965026 27.376 108.186)" fill="#A8A8A8"/>
<path d="M68.1487 90.0145C68.6418 75.7062 69.6673 63.0679 64.3924 58.2312C57.9533 55.3624 56.9031 58.2507 56.0613 66.6995C54.9999 77.3525 50.6906 86.3172 48.2384 87.8946L33.9291 88.7109C33.1439 94.5298 36.8012 102.527 38.728 105.799C48.3294 106.499 67.6556 104.323 68.1487 90.0145Z" fill="#F2F2F2"/>
<ellipse rx="2.73104" ry="2.776" transform="matrix(-1 0 0 1 65.4555 42.3798)" fill="#474747"/>
<ellipse rx="2.73103" ry="2.77601" transform="matrix(-1 0 0 1 66.9731 38.8327)" fill="#474747"/>
<ellipse rx="24.1818" ry="24.5748" transform="matrix(-1 0 0 1 39.12 38.5776)" fill="#9B9B9B"/>
<ellipse rx="2.78412" ry="2.82935" transform="matrix(-1 0 0 1 37.1822 41.1294)" fill="#474747"/>
<ellipse rx="2.14775" ry="2.18263" transform="matrix(-1 0 0 1 20.0002 35.309)" fill="#474747"/>
<ellipse rx="3.18621" ry="3.23867" transform="matrix(-1 0 0 1 24.9456 45.4642)" fill="#7C7C7C"/>
<ellipse rx="3.1862" ry="3.23867" transform="matrix(-1 0 0 1 28.1317 46.698)" fill="#7C7C7C"/>
<path d="M28.8901 35.2855L23.4459 47.9325L28.8901 49.8782L28.8901 35.2855Z" fill="#7C7C7C"/>
<path d="M57.1111 32.5096L54.2283 48.3945L58.2491 46.1582L62.0903 41.5316L65.1525 42.3027L71.3732 30.3504C73.3153 9.49955 39.8145 3.05305 22.8214 2.43616L21.6076 21.5598C30.4683 19.2156 48.9686 27.8829 57.1111 32.5096Z" fill="#474747"/>
<ellipse rx="2.73103" ry="2.776" transform="matrix(-1 0 0 1 25.5522 2.89881)" fill="#474747"/>
<ellipse rx="2.73103" ry="2.776" transform="matrix(-1 0 0 1 29.6488 2.89881)" fill="#474747"/>
<ellipse rx="2.73105" ry="2.776" transform="matrix(-1 0 0 1 34.5038 3.20728)" fill="#474747"/>
<ellipse rx="2.73104" ry="2.776" transform="matrix(-1 0 0 1 39.3593 3.97834)" fill="#474747"/>
<ellipse rx="2.73103" ry="2.776" transform="matrix(-1 0 0 1 44.2143 4.74945)" fill="#474747"/>
<ellipse rx="2.73103" ry="2.77601" transform="matrix(-1 0 0 1 49.0697 5.98328)" fill="#474747"/>
<ellipse rx="2.73104" ry="2.776" transform="matrix(-1 0 0 1 65.0004 15.8535)" fill="#474747"/>
<ellipse rx="2.73104" ry="2.77601" transform="matrix(-1 0 0 1 61.0556 13.0775)" fill="#474747"/>
<ellipse rx="2.73104" ry="2.776" transform="matrix(-1 0 0 1 57.1108 10.3015)" fill="#474747"/>
<ellipse rx="2.73104" ry="2.776" transform="matrix(-1 0 0 1 53.1659 7.52545)" fill="#474747"/>
<ellipse rx="2.73103" ry="2.77601" transform="matrix(-1 0 0 1 67.8832 19.5548)" fill="#474747"/>
<ellipse rx="2.73103" ry="2.776" transform="matrix(-1 0 0 1 70.4628 24.0273)" fill="#474747"/>
<ellipse rx="2.73107" ry="2.776" transform="matrix(-1 0 0 1 71.5248 28.1913)" fill="#474747"/>
<ellipse rx="2.73103" ry="2.776" transform="matrix(-1 0 0 1 70.0077 31.7384)" fill="#474747"/>
<ellipse rx="2.73104" ry="2.776" transform="matrix(-1 0 0 1 68.4902 35.2855)" fill="#474747"/>
<ellipse rx="4.06219" ry="4.07174" transform="matrix(-0.883144 -0.469133 -0.455958 0.890017 62.2366 43.6163)" fill="#7C7C7C"/>
<path d="M59.5413 41.8632C58.5575 43.1139 57.1343 46.9098 58.3729 47.9167C59.6114 48.9236 63.8088 47.8047 64.7926 46.5539C65.7764 45.3032 63.174 44.3944 61.9354 43.3875C60.6968 42.3806 60.525 40.6125 59.5413 41.8632Z" fill="#7C7C7C"/>
<path d="M29.5082 54.3647C29.5082 55.9273 35.3141 59.09 36.8517 59.09C38.3893 59.09 41.4834 54.8155 41.4834 53.2529C41.4834 51.6903 36.7255 53.253 35.1879 53.253C33.6502 53.253 29.5082 52.8021 29.5082 54.3647Z" fill="#7C7C7C"/>
<rect width="4.09656" height="26.0636" transform="matrix(-1 0 0 1 121.594 197.99)" fill="#474747"/>
<ellipse rx="14.9449" ry="15.1909" transform="matrix(-1 0 0 1 112.415 189.122)" fill="#CDCDCD"/>
<path fill-rule="evenodd" clip-rule="evenodd" d="M87.304 99.9818C87.8104 100.647 88.3345 101.322 88.8849 101.995C83.2844 110.736 77.8595 133.376 76.3716 139.909C76.1399 140.456 76.0102 140.995 76.012 141.515C75.9857 141.635 75.9723 141.698 75.9723 141.698L76.0194 141.717C76.0274 141.829 76.0418 141.941 76.063 142.051C76.9599 146.721 108.691 172.844 108.691 172.844L119.014 161.542L95.0186 138.896L110.49 112.243C111.738 112.246 112.962 112.266 114.156 112.286L114.157 112.286C125.071 112.47 133.428 112.61 133.428 98.6709C133.428 84.3283 120.683 78.7762 120.683 78.7762C107.905 78.7762 85.4833 88.4923 87.304 99.9818Z" fill="#474747"/>
<rect width="24.4405" height="11.0173" transform="matrix(-0.675205 0.740592 0.727079 0.683376 119.36 159.172)" fill="#B1B1B1"/>
<rect width="19.6984" height="11.152" transform="matrix(-0.998914 -0.0266734 -0.029801 1.00028 111.125 173.532)" fill="#B1B1B1"/>
<rect width="16.6898" height="5.86044" transform="matrix(-1 0 0 1 111.125 184.727)" fill="#474747"/>
<rect width="16.6896" height="5.86046" transform="matrix(-1 0 0 1 127.814 219.581)" fill="#474747"/>
<rect width="4.0965" height="11.5667" transform="matrix(-1 0 0 1 104.752 187.657)" fill="#474747"/>
</svg>
