<svg width="189" height="380" viewBox="0 0 189 380" fill="none" xmlns="http://www.w3.org/2000/svg">
<path d="M0.917969 354.586L93.525 379.916V228.923L0.917969 203.593V354.586Z" fill="#C26756"/>
<path d="M186.132 354.586L93.5248 379.916V228.923L186.132 203.593V354.586Z" fill="#AD5D4E"/>
<path d="M93.3963 183.181L186.132 203.593L93.3963 228.976L0.660645 203.593L93.3963 183.181Z" fill="#D89589"/>
<ellipse cx="94.536" cy="204.703" rx="65.0516" ry="6.49021" fill="#AD5D4E"/>
<rect width="24.6115" height="9.08492" transform="matrix(-0.493762 0.876689 0.864057 0.490944 87.8882 124.316)" fill="#AD5D4E"/>
<rect width="9.52509" height="9.09177" transform="matrix(-0.99372 -0.0544338 -0.0631229 1.00278 84.2651 141.131)" fill="#AD5D4E"/>
<path d="M92.9084 93.6698C92.9084 93.6698 91.9344 80.2066 86.6481 76.5336C81.3618 72.8605 55.4336 98.9301 55.4336 98.9301L62.6722 109.198L92.9084 93.6698Z" fill="#2C2C2C"/>
<path d="M69.5797 92.4793C66.3621 92.4328 56.4382 98.0693 56.4382 98.0693L77.3137 140.19L88.5532 134.591C88.5532 134.591 72.7974 92.5258 69.5797 92.4793Z" fill="#2C2C2C"/>
<path fill-rule="evenodd" clip-rule="evenodd" d="M150.341 207.632C129.174 207.632 112.014 190.246 112.014 168.799C112.014 147.351 129.174 129.965 150.341 129.965C171.508 129.965 188.667 147.351 188.667 168.799C188.667 190.246 171.508 207.632 150.341 207.632ZM150.341 201.598C132.463 201.598 117.97 186.913 117.97 168.799C117.97 150.685 132.463 136 150.341 136C168.218 136 182.711 150.685 182.711 168.799C182.711 186.913 168.218 201.598 150.341 201.598Z" fill="#3F3F3F"/>
<path fill-rule="evenodd" clip-rule="evenodd" d="M38.9871 207.632C17.82 207.632 0.660744 190.246 0.660744 168.799C0.660744 147.351 17.82 129.965 38.9871 129.965C60.1542 129.965 77.3135 147.351 77.3135 168.799C77.3135 190.246 60.1542 207.632 38.9871 207.632ZM38.9872 201.598C21.1096 201.598 6.61697 186.913 6.61697 168.799C6.61697 150.685 21.1096 136 38.9872 136C56.8647 136 71.3574 150.685 71.3574 168.799C71.3574 186.913 56.8647 201.598 38.9872 201.598Z" fill="#3F3F3F"/>
<ellipse rx="5.17924" ry="5.24777" transform="matrix(-1 0 0 1 150.341 168.798)" fill="#474747"/>
<ellipse rx="5.17921" ry="5.24777" transform="matrix(-1 0 0 1 38.9873 168.798)" fill="#474747"/>
<rect width="5.17928" height="86.0637" transform="matrix(-1 0 0 1 41.5767 84.3091)" fill="#E0A458"/>
<rect width="5.19129" height="70.5232" transform="matrix(-0.906231 0.422783 0.413709 0.910409 124.124 104.645)" fill="#E0A458"/>
<path d="M53.1914 104.557L50.465 109.018L148.625 170.963L153.286 168.831L53.1914 104.557Z" fill="#E0A458"/>
<rect width="5.24777" height="93.7441" transform="matrix(4.31406e-08 1 1 -4.42898e-08 38.9873 104.645)" fill="#E0A458"/>
<rect width="5.24779" height="23.0476" transform="matrix(4.30034e-08 1 1 -4.4431e-08 13.3496 84.3091)" fill="#474747"/>
<rect width="5.17922" height="14.5626" transform="matrix(-1 0 0 1 99.7139 95.3291)" fill="#E0A458"/>
<rect width="5.24783" height="28.2268" transform="matrix(4.314e-08 1 1 -4.42904e-08 79.126 92.7055)" fill="#2C2C2C"/>
<rect width="4.2359" height="12.0175" transform="matrix(-1 0 0 1 136.989 101.191)" fill="#A86561"/>
<path d="M102.932 67.5987C102.932 67.5987 82.6893 44.5721 54.7952 40.3033C26.9011 36.0346 38.633 52.6692 38.633 52.6692C60.5341 61.4163 72.8072 83.2795 72.8072 83.2795L102.932 67.5987Z" fill="#E0A458"/>
<rect width="9.48388" height="11.3819" transform="matrix(0.95286 -0.28863 -0.282891 -0.963698 22.8745 89.4884)" fill="#A27D63"/>
<path d="M56.6273 74.4997C57.0298 62.691 57.8738 52.2609 53.5044 48.2669C48.1721 45.8965 47.3037 48.2799 46.6102 55.2525C45.7357 64.0441 42.1715 71.441 40.1418 72.7418L28.2948 73.4095C27.6471 78.2116 30.6784 84.8137 32.275 87.5145C40.2247 88.0965 56.2249 86.3085 56.6273 74.4997Z" fill="#F4BB73"/>
<rect width="3.39135" height="21.5083" transform="matrix(-1 0 0 1 97.4888 137.368)" fill="#474747"/>
<ellipse rx="2.26091" ry="2.29083" transform="matrix(-1 0 0 1 54.3944 35.1835)" fill="#474747"/>
<ellipse rx="2.26089" ry="2.29083" transform="matrix(-1 0 0 1 55.6507 32.2563)" fill="#474747"/>
<rect width="13.8167" height="4.8362" transform="matrix(-0.999166 -0.0408442 -0.0411047 0.999155 87.8994 149.598)" fill="#474747"/>
<ellipse rx="20.019" ry="20.2798" transform="matrix(-1 0 0 1 32.5923 32.0459)" fill="#936D51"/>
<path d="M28.6833 34.1517C28.6833 35.4412 29.11 35.5231 30.9881 35.0765C32.7319 35.7294 33.293 35.4412 33.293 34.1517C33.293 32.8622 32.261 31.8169 30.9881 31.8169C29.7152 31.8169 28.6833 32.8622 28.6833 34.1517Z" fill="#2C2C2C"/>
<path d="M14.7517 29.2192C14.6033 30.3649 14.9731 30.4865 16.6932 30.3044C18.1674 31.084 18.699 30.8921 18.8475 29.7464C18.9959 28.6006 18.1993 27.5538 17.0683 27.4082C15.9373 27.2626 14.9001 28.0734 14.7517 29.2192Z" fill="#2C2C2C"/>
<ellipse rx="2.63772" ry="2.67263" transform="matrix(-1 0 0 1 20.8579 37.7289)" fill="#7B5A41"/>
<ellipse rx="2.6377" ry="2.67263" transform="matrix(-1 0 0 1 23.4956 38.747)" fill="#7B5A41"/>
<path d="M24.1235 29.3292L19.6165 39.7658L24.1235 41.3714L24.1235 29.3292Z" fill="#7B5A41"/>
<path d="M47.4859 27.0384L45.0994 40.147L48.428 38.3016L51.608 34.4835L54.1431 35.1199L59.2929 25.2566C60.9006 8.04993 33.1669 2.73011 19.099 2.22104L18.0942 18.0023C25.4296 16.0678 40.7451 23.2203 47.4859 27.0384Z" fill="#2C2C2C"/>
<ellipse rx="2.2609" ry="2.29083" transform="matrix(-1 0 0 1 21.3602 2.60284)" fill="#2C2C2C"/>
<ellipse rx="2.26088" ry="2.29083" transform="matrix(-1 0 0 1 24.7513 2.60284)" fill="#2C2C2C"/>
<ellipse rx="2.26091" ry="2.29083" transform="matrix(-1 0 0 1 28.7708 2.85818)" fill="#2C2C2C"/>
<ellipse rx="2.2609" ry="2.29083" transform="matrix(-1 0 0 1 32.7904 3.49371)" fill="#2C2C2C"/>
<ellipse rx="2.26091" ry="2.29083" transform="matrix(-1 0 0 1 36.8099 4.13006)" fill="#2C2C2C"/>
<ellipse rx="2.26089" ry="2.29083" transform="matrix(-1 0 0 1 40.8289 5.14822)" fill="#2C2C2C"/>
<ellipse rx="2.26091" ry="2.29083" transform="matrix(-1 0 0 1 54.0179 13.2934)" fill="#2C2C2C"/>
<ellipse rx="2.26091" ry="2.29083" transform="matrix(-1 0 0 1 50.7518 11.0026)" fill="#2C2C2C"/>
<ellipse rx="2.2609" ry="2.29083" transform="matrix(-1 0 0 1 47.4862 8.71173)" fill="#2C2C2C"/>
<ellipse rx="2.26091" ry="2.29083" transform="matrix(-1 0 0 1 44.2205 6.42089)" fill="#2C2C2C"/>
<ellipse rx="2.26091" ry="2.29083" transform="matrix(-1 0 0 1 56.4041 16.3478)" fill="#2C2C2C"/>
<ellipse rx="2.2609" ry="2.29083" transform="matrix(-1 0 0 1 58.5394 20.0386)" fill="#2C2C2C"/>
<ellipse rx="2.26093" ry="2.29083" transform="matrix(-1 0 0 1 59.4188 23.4748)" fill="#2C2C2C"/>
<ellipse rx="2.26089" ry="2.29083" transform="matrix(-1 0 0 1 58.1629 26.402)" fill="#2C2C2C"/>
<ellipse rx="2.26092" ry="2.29082" transform="matrix(-1 0 0 1 56.9066 29.3292)" fill="#2C2C2C"/>
<ellipse rx="3.35807" ry="3.36486" transform="matrix(-0.883865 -0.467761 -0.457313 0.889316 51.729 36.2039)" fill="#7B5A41"/>
<path d="M49.5007 34.7576C48.6856 35.7905 47.5051 38.9243 48.5298 39.7545C49.5545 40.5847 53.0299 39.6587 53.8451 38.6258C54.6602 37.5929 52.5064 36.8444 51.4817 36.0142C50.457 35.184 50.3159 33.7248 49.5007 34.7576Z" fill="#7B5A41"/>
<path d="M24.635 45.0739C24.635 46.3633 29.4415 48.9732 30.7144 48.9732C36.6123 49.5694 36.6123 43.9993 36.6123 42.7098C36.6123 41.4203 30.6099 44.1564 29.3369 44.1564C28.064 44.1564 24.635 43.7844 24.635 45.0739Z" fill="#7B5A41"/>
<rect width="3.39129" height="9.54517" transform="matrix(-0.999166 -0.0408444 -0.0411045 0.999155 82.5293 151.799)" fill="#474747"/>
<rect width="13.8166" height="4.83618" transform="matrix(-1 0 0 1 102.639 155.185)" fill="#474747"/>
<ellipse rx="12.3722" ry="12.5359" transform="matrix(-1 0 0 1 93.2694 156.279)" fill="#C8924D"/>
<rect width="18.7329" height="9.11408" transform="matrix(-0.155381 0.988556 0.984791 0.169793 106.731 142.623)" fill="#AD5D4E"/>
<rect width="11.6219" height="9.21816" transform="matrix(-0.901714 0.43178 0.431753 0.902255 108.162 154.466)" fill="#AD5D4E"/>
<path fill-rule="evenodd" clip-rule="evenodd" d="M72.4816 82.7182C75.0338 86.0621 78.1271 89.6871 83.389 91.5577C81.6309 100.963 81.9544 116.697 82.0895 121.166C81.9758 121.477 81.9168 121.79 81.9226 122.103C81.9963 126.027 104.201 151.726 104.201 151.726L114.215 143.986L95.8691 119.591L103.498 92.4664C107.864 91.5717 110.666 88.9569 110.666 81.6364C110.666 69.8005 100.115 65.2188 100.115 65.2188C89.536 65.2188 70.9744 73.2367 72.4816 82.7182Z" fill="#474747"/>
<rect width="13.8089" height="4.83892" transform="matrix(-0.907476 0.420103 0.422309 0.906452 111.583 163.128)" fill="#474747"/>
<rect width="3.3894" height="9.55051" transform="matrix(-0.907477 0.420103 0.422309 0.906452 107.82 167.536)" fill="#474747"/>
<rect x="80.6021" y="17.1278" width="62.5031" height="1.51084" fill="white"/>
<rect x="99.7134" y="25.7657" width="62.5031" height="1.51084" fill="white"/>
<rect x="127.211" y="82.6353" width="48.9183" height="1.51084" fill="white"/>
<rect x="125.881" y="91.1758" width="31.9597" height="1.51084" fill="white"/>
</svg>
