<svg width="225" height="461" viewBox="0 0 225 461" fill="none" xmlns="http://www.w3.org/2000/svg">
<path d="M0.311035 429.432L112.324 460.026V277.656L0.311035 247.062V429.432Z" fill="#F57731"/>
<path d="M224.338 429.432L112.324 460.026V277.656L224.338 247.062V429.432Z" fill="#C35A1F"/>
<path d="M112.169 222.409L224.338 247.062L112.169 277.721L0 247.062L112.169 222.409Z" fill="#FD8746"/>
<ellipse cx="108.478" cy="247.062" rx="29.1647" ry="5.10315" fill="#C35A1F"/>
<path d="M79.0111 173.789L63.4764 175.096L55.9616 178.703L55.0889 193.697L75.1613 196.362L79.0111 173.789Z" fill="#005D4D"/>
<path d="M89.0348 106.292L64.1846 57.2537L156.004 84.208L119.36 111.453C107.631 115.369 91.4215 109.733 89.0348 106.292Z" fill="#EEEEEE"/>
<path d="M156.425 84.2081C102.513 95.8455 69.9406 66.9518 63.7632 57.254C63.7632 57.254 69.9106 35.5642 85.6651 32.0108C114.306 16.6083 169.313 3.51622 160.216 74.3676C160.216 74.3676 157.267 82.0688 156.425 84.2081Z" fill="#181818"/>
<path d="M154.32 50.7292C151.052 93.7804 111.771 93.1745 77.6606 70.3863C70.6098 65.6758 86.1682 31.9166 86.1682 31.9166L122.857 33.6815L154.32 50.7292Z" fill="black"/>
<path d="M115.107 113.006C109.67 100.263 103.366 87.747 100.201 81.8896C124.406 89.7268 146.01 86.5394 156.339 84.2232C144.331 93.5074 119.339 111.475 119.339 111.475C119.339 111.475 117.299 112.568 115.107 113.006Z" fill="url(#paint0_linear)"/>
<path d="M81.2426 34.3707C76.2327 36.726 70.8464 42.8017 68.6616 48.4758C67.5139 51.4565 69.4785 55.3643 71.9359 53.3239C73.5987 51.9433 75.5483 49.0451 77.6275 43.9189C78.9598 40.6342 80.8783 37.5384 82.176 35.5983C82.8876 34.5345 82.4008 33.8262 81.2426 34.3707Z" fill="#646464"/>
<path d="M59.1234 168.428C59.7185 170.625 62.0445 175.253 66.5873 176.186C72.2659 177.353 81.136 165.835 76.9868 160.384C75.3502 158.234 73.2809 155.546 66.5982 155.589C66.5528 155.582 66.5255 155.582 66.5259 155.589C66.7422 158.921 66.3167 166.202 59.1234 168.428Z" fill="url(#paint1_radial)"/>
<path d="M54.7554 163.683C55.1976 165.917 57.1989 170.7 61.6663 171.953C67.2506 173.52 76.8927 162.662 73.1294 156.929C71.645 154.668 69.766 151.839 63.0968 151.407C63.0518 151.398 63.0247 151.395 63.0246 151.402C63.0107 154.742 62.0844 161.975 54.7554 163.683Z" fill="url(#paint2_radial)"/>
<path d="M51.2625 158.613C51.6737 160.853 53.6085 165.664 58.0581 166.981C63.6201 168.628 73.4118 157.909 69.7283 152.123C68.2754 149.84 66.4359 146.985 59.7733 146.457C59.7285 146.447 59.7014 146.444 59.7012 146.452C59.641 149.791 58.6145 157.009 51.2625 158.613Z" fill="url(#paint3_radial)"/>
<path d="M48.3961 149.375C47.9701 151.612 48.0343 156.808 51.6986 159.691C56.279 163.294 69.2574 156.968 67.9185 150.213C67.3904 147.548 66.7094 144.207 60.7011 141.234C60.663 141.209 60.6389 141.196 60.6361 141.202C59.3751 144.287 55.8149 150.621 48.3961 149.375Z" fill="url(#paint4_radial)"/>
<path d="M49.781 138.808C48.4657 140.655 46.3664 145.393 48.4918 149.577C51.1486 154.807 65.5431 154.631 67.1339 147.933C67.7614 145.291 68.5316 141.969 64.318 136.7C64.2942 136.66 64.2776 136.638 64.2723 136.643C61.8483 138.899 55.9903 143.117 49.781 138.808Z" fill="url(#paint5_radial)"/>
<path d="M53.739 129.235C51.8499 130.465 48.1895 134.094 48.6608 138.778C49.2499 144.633 62.7097 149.818 66.6027 144.176C68.1383 141.95 70.0514 139.145 68.0276 132.675C68.0198 132.629 68.0123 132.602 68.0056 132.605C64.9371 133.804 57.9662 135.552 53.739 129.235Z" fill="url(#paint6_radial)"/>
<path d="M60.5194 120.688C58.3736 121.353 53.8842 123.844 53.0927 128.483C52.1034 134.282 63.6843 142.967 68.9329 138.602C71.0032 136.88 73.591 134.704 73.3624 127.92C73.3671 127.874 73.367 127.846 73.3598 127.846C70.0867 128.159 62.91 127.93 60.5194 120.688Z" fill="url(#paint7_radial)"/>
<ellipse cx="71.6637" cy="118.827" rx="14.3165" ry="14.5428" fill="#005D4D"/>
<path d="M75.0076 108.27C75.4836 109.893 72.8825 108.913 69.7825 109.852C66.6824 110.79 64.2572 113.291 63.7812 111.668C63.3052 110.045 65.2341 108.064 68.3342 107.126C71.4343 106.187 74.5316 106.647 75.0076 108.27Z" fill="#75AFA6"/>
<path d="M61.7981 142.456C63.1459 126.369 78.6458 114.361 86.2272 110.368C90.0597 108.349 101.388 118.316 117.395 114.218C132.457 110.363 134.243 133.471 132.979 142.456C131.716 159.427 126.83 197.392 117.395 213.479C107.961 229.566 97.7397 220.182 93.8086 213.479C82.5769 196.507 60.4503 158.543 61.7981 142.456Z" fill="#EEEEEE"/>
<ellipse rx="2.27877" ry="2.3106" transform="matrix(0.969832 0.243773 -0.236675 0.971589 94.4317 129.29)" fill="#5697F9"/>
<ellipse rx="2.27877" ry="2.3106" transform="matrix(0.969832 0.243773 -0.236675 0.971589 99.1138 130.466)" fill="#C751FF"/>
<ellipse rx="2.27877" ry="2.3106" transform="matrix(0.969832 0.243773 -0.236675 0.971589 103.796 131.643)" fill="#6CBB3C"/>
<ellipse rx="2.27877" ry="2.3106" transform="matrix(0.969832 0.243773 -0.236675 0.971589 108.478 132.82)" fill="#FFD600"/>
<path d="M109.088 155.606C117.353 140.71 120.884 130.281 114.446 119.116C109.853 111.151 130.855 115.185 132.558 130.281C133.332 193.81 114.523 224.97 105.75 222.245C99.455 216.793 104.524 163.832 109.088 155.606Z" fill="url(#paint8_linear)"/>
<path d="M151.568 181.326C144.823 183.278 141.342 177.947 140.445 175.038C138.873 177.638 135.38 184.618 141.482 187.565C146.828 190.148 150.123 184.982 151.568 181.326Z" fill="#005D4D"/>
<path d="M151.943 135.493C151.284 133.109 148.729 128.094 143.787 127.108C137.61 125.875 128.04 138.444 132.58 144.342C134.371 146.668 136.636 149.577 143.897 149.49C143.946 149.496 143.976 149.497 143.975 149.489C143.721 145.869 144.14 137.955 151.943 135.493Z" fill="url(#paint9_radial)"/>
<path d="M156.718 140.622C156.224 138.197 154.021 133.013 149.16 131.678C143.083 130.009 132.669 141.866 136.792 148.072C138.419 150.52 140.477 153.583 147.726 154.012C147.775 154.022 147.805 154.025 147.805 154.017C147.8 150.388 148.764 142.523 156.718 140.622Z" fill="url(#paint10_radial)"/>
<path d="M160.544 146.11C160.084 143.678 157.953 138.463 153.11 137.059C147.057 135.303 136.481 147.01 140.517 153.274C142.109 155.746 144.125 158.837 151.367 159.37C151.416 159.381 151.446 159.384 151.446 159.376C151.492 155.747 152.564 147.897 160.544 146.11Z" fill="url(#paint11_radial)"/>
<path d="M163.712 156.131C164.162 153.697 164.062 148.052 160.063 144.942C155.065 141.054 141 148.007 142.495 155.339C143.084 158.231 143.844 161.858 150.39 165.051C150.431 165.079 150.458 165.093 150.461 165.085C151.813 161.727 155.644 154.822 163.712 156.131Z" fill="url(#paint12_radial)"/>
<path d="M162.27 167.621C163.688 165.607 165.941 160.445 163.607 155.912C160.689 150.245 145.049 150.524 143.36 157.812C142.694 160.686 141.877 164.301 146.486 170C146.512 170.043 146.53 170.067 146.536 170.062C149.157 167.596 155.497 162.977 162.27 167.621Z" fill="url(#paint13_radial)"/>
<path d="M158.026 178.047C160.071 176.7 164.027 172.733 163.487 167.647C162.813 161.289 148.157 155.736 143.96 161.891C142.305 164.319 140.242 167.379 142.479 174.396C142.488 174.446 142.496 174.475 142.504 174.472C145.831 173.151 153.395 171.209 158.026 178.047Z" fill="url(#paint14_radial)"/>
<path d="M150.708 187.376C153.036 186.639 157.899 183.906 158.732 178.86C159.773 172.554 147.138 163.186 141.461 167.961C139.221 169.844 136.422 172.225 136.71 179.595C136.706 179.646 136.706 179.676 136.714 179.675C140.268 179.316 148.068 179.521 150.708 187.376Z" fill="url(#paint15_radial)"/>
<ellipse cx="130.978" cy="131.292" rx="16.4467" ry="16.7067" fill="#005D4D"/>
<path d="M125.748 143.969C125.136 142.126 129.129 141.837 136.25 139.266C142.098 137.154 144.117 132.25 144.73 134.093C145.342 135.936 142.713 143.001 136.25 145.218C132.729 146.425 126.361 145.812 125.748 143.969Z" fill="#00372D" fill-opacity="0.390925"/>
<ellipse rx="3.07299" ry="1.34508" transform="matrix(0.942998 0.332799 -0.323616 0.946188 143.522 4.07085)" fill="#75AFA6"/>
<path fill-rule="evenodd" clip-rule="evenodd" d="M86.4632 25.5693C86.9668 22.4125 90.5325 14.5179 101.419 5.62077C115.509 -5.89354 168.684 2.39676 170.502 30.0311C171.957 52.1386 162.928 72.0967 158.231 79.3124C158.614 73.3333 157.183 65.1021 152.385 56.8825L144.954 62.4321C143.118 63.8036 140.579 63.7363 138.768 62.3319C102.883 34.5081 70.4796 33.3701 54.4974 37.5032C52.6955 37.9691 51.4974 36.3701 52.9543 35.212C57.9825 31.215 68.2885 26.5047 86.4632 25.5693Z" fill="#004B3F"/>
<path d="M120.462 31.3006C111.918 26.5499 92.1824 24.273 86.8911 24.0908C96.2666 3.11488 111.964 -5.8387 143.192 4.0528C154.679 13.0816 122.345 22.464 120.462 31.3006Z" fill="url(#paint16_linear)"/>
<path d="M138.649 41.6615C116.074 26.9435 94.8067 25.3052 86.4678 25.5604C86.5138 25.1359 86.8001 24.1699 86.8001 24.1699C110.05 24.1699 131.349 35.3864 138.649 41.6615Z" fill="#00372D"/>
<path d="M158.464 78.9878C158.833 74.2954 155.507 61.8137 152.505 56.7929L170.139 35.0847C171.969 42.7689 167.056 64.5822 158.464 78.9878Z" fill="url(#paint17_linear)"/>
<path d="M139.744 62.7902C110.892 35.8333 75.3313 29.8424 52.1899 35.9889C59.7957 28.7669 76.6902 25.6841 86.4578 25.4927C106.938 25.0914 124.946 34.2376 133.626 39.2763L139.744 62.7902Z" fill="url(#paint18_linear)"/>
<path d="M145.182 4.54999C149.381 5.7485 172.476 16.0427 152.499 56.7043C161.536 38.3094 165.079 11.916 145.182 4.54999Z" fill="#00372D"/>
<path d="M120.603 14.2972L119.51 17.4464L121.672 18.3383L121.588 18.5987L118.897 17.4672L120.022 14.0597L120.603 14.2972Z" fill="#3D796F"/>
<path d="M117.945 21.4363L117.268 23.6039L119.46 24.5223L119.36 24.7864L116.654 23.6247L117.364 21.1988L117.945 21.4363Z" fill="#3D796F"/>
<path fill-rule="evenodd" clip-rule="evenodd" d="M119.114 10.9179L125.828 13.5632L126.112 15.2998L121.973 27.5938L120.569 28.9279L113.866 25.9376L113.593 23.856L114.736 20.0953L117.419 21.2224L116.661 23.6145L119.345 24.7416L120.476 21.326L116.117 19.4513L115.471 18.3933L117.382 11.8955L119.114 10.9179ZM120.031 14.0564L118.899 17.4722L121.583 18.5988L122.714 15.1829L120.031 14.0564Z" fill="#75AFA6"/>
<path d="M121.485 27.097L125.491 15.3398L125.114 13.2879L125.824 13.5656L126.116 15.3186L121.96 27.5919L120.565 28.9202L119.803 28.5971L121.485 27.097Z" fill="#3D796F"/>
<path d="M86.5395 114.155C81.6292 115.796 75.9927 120.736 73.2466 125.724C71.7078 128.52 73.2289 132.581 75.8585 130.777C77.5567 129.611 79.667 127.126 82.1302 122.704C83.7403 119.814 85.8632 117.163 87.3131 115.481C88.1469 114.513 87.7514 113.75 86.5395 114.155Z" fill="#F8F8F8"/>
<ellipse cx="71.6189" cy="133.837" rx="1.75557" ry="1.78332" fill="#F8F8F8"/>
<path d="M124.855 182.149L140.39 183.455L147.905 187.062L148.777 202.057L128.705 204.721L124.855 182.149Z" fill="#005D4D"/>
<path d="M81.8499 54.2767L79.8166 53.2386L80.8055 51.0791L83.0093 52.1774L83.7725 50.5812L86.1144 51.7826L86.8754 50.2089L90.0176 51.822L89.314 53.46L92.0718 54.8595L91.4222 56.3699L93.2222 57.2669L92.2964 59.4018L90.3178 58.4295L81.8499 54.2767Z" fill="#6CBB3C"/>
<path d="M107.714 65.8041L105.157 64.9175L105.965 62.2199L108.732 63.1493L109.368 61.1501L112.314 62.178L112.95 60.2056L116.904 61.5862L116.346 63.6247L119.813 64.8171L119.297 66.697L121.557 67.456L120.819 70.1143L118.337 69.2961L107.714 65.8041Z" fill="#6CBB3C"/>
<defs>
<linearGradient id="paint0_linear" x1="154.254" y1="87.7011" x2="98.5126" y2="92.0641" gradientUnits="userSpaceOnUse">
<stop offset="0.333333" stop-color="#ABABAB"/>
<stop offset="0.833333" stop-color="#B9B7B7" stop-opacity="0"/>
</linearGradient>
<radialGradient id="paint1_radial" cx="0" cy="0" r="1" gradientUnits="userSpaceOnUse" gradientTransform="translate(65.95 164.208) rotate(35.2195) scale(8.77425 12.6962)">
<stop stop-color="#005D4D"/>
<stop offset="0.776042" stop-color="#3D796F"/>
</radialGradient>
<radialGradient id="paint2_radial" cx="0" cy="0" r="1" gradientUnits="userSpaceOnUse" gradientTransform="translate(61.856 159.959) rotate(39.2513) scale(8.78354 12.6827)">
<stop stop-color="#005D4D"/>
<stop offset="0.776042" stop-color="#3D796F"/>
</radialGradient>
<radialGradient id="paint3_radial" cx="0" cy="0" r="1" gradientUnits="userSpaceOnUse" gradientTransform="translate(58.4141 154.991) rotate(40.0608) scale(8.78545 12.68)">
<stop stop-color="#005D4D"/>
<stop offset="0.776042" stop-color="#3D796F"/>
</radialGradient>
<radialGradient id="paint4_radial" cx="0" cy="0" r="1" gradientUnits="userSpaceOnUse" gradientTransform="translate(56.3569 148.668) rotate(61.5025) scale(8.83506 12.6088)">
<stop stop-color="#005D4D"/>
<stop offset="0.776042" stop-color="#3D796F"/>
</radialGradient>
<radialGradient id="paint5_radial" cx="0" cy="0" r="1" gradientUnits="userSpaceOnUse" gradientTransform="translate(57.2925 141.578) rotate(86.1324) scale(8.8664 12.5642)">
<stop stop-color="#005D4D"/>
<stop offset="0.776042" stop-color="#3D796F"/>
</radialGradient>
<radialGradient id="paint6_radial" cx="0" cy="0" r="1" gradientUnits="userSpaceOnUse" gradientTransform="translate(59.7321 134.605) rotate(107.275) scale(8.85461 12.581)">
<stop stop-color="#005D4D"/>
<stop offset="0.776042" stop-color="#3D796F"/>
</radialGradient>
<radialGradient id="paint7_radial" cx="0" cy="0" r="1" gradientUnits="userSpaceOnUse" gradientTransform="translate(64.8623 127.502) rotate(122.789) scale(8.82591 12.6219)">
<stop stop-color="#005D4D"/>
<stop offset="0.776042" stop-color="#3D796F"/>
</radialGradient>
<linearGradient id="paint8_linear" x1="140.393" y1="167.494" x2="101.316" y2="157.27" gradientUnits="userSpaceOnUse">
<stop offset="0.102342" stop-color="#C8C8C8"/>
<stop offset="1" stop-color="#C4C4C4" stop-opacity="0"/>
</linearGradient>
<radialGradient id="paint9_radial" cx="0" cy="0" r="1" gradientUnits="userSpaceOnUse" gradientTransform="translate(144.551 140.12) rotate(-145.098) scale(9.53343 13.7969)">
<stop stop-color="#005D4D"/>
<stop offset="0.776042" stop-color="#3D796F"/>
</radialGradient>
<radialGradient id="paint10_radial" cx="0" cy="0" r="1" gradientUnits="userSpaceOnUse" gradientTransform="translate(149.024 144.712) rotate(-141.065) scale(9.54349 13.7824)">
<stop stop-color="#005D4D"/>
<stop offset="0.776042" stop-color="#3D796F"/>
</radialGradient>
<radialGradient id="paint11_radial" cx="0" cy="0" r="1" gradientUnits="userSpaceOnUse" gradientTransform="translate(152.794 150.089) rotate(-140.255) scale(9.54556 13.7794)">
<stop stop-color="#005D4D"/>
<stop offset="0.776042" stop-color="#3D796F"/>
</radialGradient>
<radialGradient id="paint12_radial" cx="0" cy="0" r="1" gradientUnits="userSpaceOnUse" gradientTransform="translate(155.066 156.947) rotate(-118.81) scale(9.59958 13.7018)">
<stop stop-color="#005D4D"/>
<stop offset="0.776042" stop-color="#3D796F"/>
</radialGradient>
<radialGradient id="paint13_radial" cx="0" cy="0" r="1" gradientUnits="userSpaceOnUse" gradientTransform="translate(154.091 164.657) rotate(-94.178) scale(9.63421 13.6526)">
<stop stop-color="#005D4D"/>
<stop offset="0.776042" stop-color="#3D796F"/>
</radialGradient>
<radialGradient id="paint14_radial" cx="0" cy="0" r="1" gradientUnits="userSpaceOnUse" gradientTransform="translate(151.482 172.249) rotate(-73.0364) scale(9.62199 13.6699)">
<stop stop-color="#005D4D"/>
<stop offset="0.776042" stop-color="#3D796F"/>
</radialGradient>
<radialGradient id="paint15_radial" cx="0" cy="0" r="1" gradientUnits="userSpaceOnUse" gradientTransform="translate(145.949 179.998) rotate(-57.5239) scale(9.59108 13.714)">
<stop stop-color="#005D4D"/>
<stop offset="0.776042" stop-color="#3D796F"/>
</radialGradient>
<linearGradient id="paint16_linear" x1="121.935" y1="0.0258163" x2="125.919" y2="16.3773" gradientUnits="userSpaceOnUse">
<stop offset="0.0773366" stop-color="#3D796F"/>
<stop offset="0.964698" stop-color="#006857" stop-opacity="0"/>
</linearGradient>
<linearGradient id="paint17_linear" x1="157.308" y1="49.6714" x2="164.646" y2="57.8355" gradientUnits="userSpaceOnUse">
<stop stop-color="#00372D" stop-opacity="0"/>
<stop offset="0.308563" stop-color="#00372D" stop-opacity="0.390925"/>
<stop offset="0.478055" stop-color="#00372D" stop-opacity="0.597563"/>
<stop offset="0.808558" stop-color="#00372D"/>
<stop offset="1" stop-color="#00372D"/>
</linearGradient>
<linearGradient id="paint18_linear" x1="89.6746" y1="25.4799" x2="132.981" y2="47.5543" gradientUnits="userSpaceOnUse">
<stop stop-color="#3D796F"/>
<stop offset="1" stop-color="#3D796F" stop-opacity="0"/>
</linearGradient>
</defs>
</svg>
