<svg width="187" height="382" viewBox="0 0 187 382" fill="none" xmlns="http://www.w3.org/2000/svg">
<path d="M0.930664 356.266L93.6616 381.593V230.618L0.930664 205.29V356.266Z" fill="#DADFEF"/>
<path d="M186.393 356.266L93.6621 381.593V230.618L186.393 205.29V356.266Z" fill="#C2C9E0"/>
<path d="M93.5326 184.881L186.392 205.29L93.5326 230.671L0.672852 205.29L93.5326 184.881Z" fill="#E8EDFF"/>
<ellipse cx="90.4762" cy="205.29" rx="24.1441" ry="4.22467" fill="#C2C9E0"/>
<path d="M66.0831 144.631L53.2225 145.713L47.0014 148.698L46.2789 161.112L62.8959 163.318L66.0831 144.631Z" fill="#005D4D"/>
<path d="M74.3829 88.7526L53.8105 48.1563L129.824 70.4706L99.4882 93.0258C89.7783 96.2675 76.3588 91.6014 74.3829 88.7526Z" fill="#EEEEEE"/>
<path d="M130.171 70.4706C85.5394 80.1047 58.5745 56.185 53.4604 48.1566C53.4604 48.1566 58.5496 30.2006 71.5921 27.2589C95.3026 14.5078 140.841 3.66947 133.309 62.3242C133.309 62.3242 130.868 68.6997 130.171 70.4706Z" fill="#181818"/>
<path d="M128.429 42.7551C125.724 78.3952 93.2049 77.8936 64.9666 59.0283C59.1295 55.1286 72.0096 27.1809 72.0096 27.1809L102.383 28.642L128.429 42.7551Z" fill="black"/>
<path d="M95.9665 94.311C91.4653 83.7617 86.2467 73.4004 83.6265 68.5514C103.664 75.0394 121.549 72.4007 130.1 70.4832C120.16 78.1692 99.47 93.0438 99.47 93.0438C99.47 93.0438 97.781 93.9489 95.9665 94.311Z" fill="url(#paint0_linear)"/>
<path d="M67.5448 29.4025C63.7403 31.3554 59.7522 35.7913 57.8399 40.1073C56.546 43.0275 58.6437 46.6398 60.8419 44.3226C62.0749 43.0229 63.4674 40.7434 64.9383 37.1171C65.9623 34.5924 67.4047 32.2025 68.4657 30.5879C69.1685 29.5184 68.6834 28.8181 67.5448 29.4025Z" fill="#646464"/>
<path d="M49.6182 140.192C50.1109 142.012 52.0364 145.843 55.7972 146.615C60.4982 147.581 67.8414 138.046 64.4065 133.533C63.0516 131.753 61.3385 129.528 55.8062 129.563C55.7686 129.558 55.746 129.558 55.7464 129.564C55.9255 132.323 55.5731 138.35 49.6182 140.192Z" fill="url(#paint1_radial)"/>
<path d="M46.0035 136.264C46.3695 138.114 48.0263 142.073 51.7247 143.111C56.3476 144.408 64.3299 135.419 61.2144 130.673C59.9856 128.801 58.4301 126.46 52.9089 126.102C52.8717 126.094 52.8492 126.092 52.8492 126.098C52.8377 128.862 52.0708 134.85 46.0035 136.264Z" fill="url(#paint2_radial)"/>
<path d="M43.1108 132.067C43.4513 133.922 45.053 137.904 48.7366 138.995C53.3411 140.358 61.4472 131.484 58.3978 126.694C57.1951 124.805 55.6722 122.441 50.1565 122.004C50.1194 121.996 50.097 121.993 50.0968 121.999C50.047 124.763 49.1972 130.74 43.1108 132.067Z" fill="url(#paint3_radial)"/>
<path d="M40.7375 124.419C40.3849 126.272 40.438 130.573 43.4715 132.96C47.2634 135.943 58.0076 130.705 56.8993 125.113C56.4621 122.907 55.8983 120.141 50.9243 117.68C50.8928 117.659 50.8728 117.648 50.8705 117.654C49.8265 120.207 46.8792 125.451 40.7375 124.419Z" fill="url(#paint4_radial)"/>
<path d="M41.8842 115.672C40.7953 117.2 39.0574 121.123 40.817 124.587C43.0164 128.916 54.9329 128.771 56.2499 123.226C56.7694 121.038 57.407 118.288 53.9187 113.926C53.899 113.893 53.8853 113.875 53.8809 113.879C51.8742 115.747 47.0246 119.239 41.8842 115.672Z" fill="url(#paint5_radial)"/>
<path d="M45.1601 107.747C43.5963 108.764 40.566 111.769 40.9561 115.647C41.4438 120.493 52.5867 124.787 55.8095 120.115C57.0807 118.273 58.6645 115.95 56.989 110.594C56.9826 110.556 56.9764 110.534 56.9708 110.536C54.4306 111.529 48.6597 112.976 45.1601 107.747Z" fill="url(#paint6_radial)"/>
<path d="M50.7746 100.671C48.9982 101.222 45.2816 103.284 44.6264 107.124C43.8074 111.924 53.3948 119.115 57.7398 115.501C59.4537 114.076 61.5961 112.274 61.4068 106.658C61.4107 106.619 61.4106 106.596 61.4047 106.597C58.695 106.856 52.7537 106.666 50.7746 100.671Z" fill="url(#paint7_radial)"/>
<ellipse cx="60.0005" cy="99.1305" rx="11.852" ry="12.0393" fill="#005D4D"/>
<path d="M62.7701 90.3906C63.1642 91.7341 61.0108 90.9231 58.4444 91.6999C55.878 92.4767 53.8703 94.5472 53.4763 93.2037C53.0822 91.8602 54.6791 90.22 57.2455 89.4432C59.8119 88.6664 62.376 89.0471 62.7701 90.3906Z" fill="#75AFA6"/>
<path d="M51.8334 118.692C52.9492 105.374 65.7808 95.4329 72.0571 92.127C75.2299 90.4559 84.6083 98.707 97.8598 95.3148C110.329 92.1229 111.807 111.254 110.761 118.692C109.715 132.741 105.67 164.17 97.8598 177.488C90.0492 190.806 81.5878 183.037 78.3334 177.488C69.0352 163.438 50.7176 132.009 51.8334 118.692Z" fill="#EEEEEE"/>
<ellipse rx="1.88649" ry="1.91284" transform="matrix(0.969832 0.243773 -0.236675 0.971589 78.849 107.792)" fill="#5697F9"/>
<ellipse rx="1.88649" ry="1.91284" transform="matrix(0.969832 0.243773 -0.236675 0.971589 82.726 108.765)" fill="#C751FF"/>
<ellipse rx="1.88649" ry="1.91284" transform="matrix(0.969832 0.243773 -0.236675 0.971589 86.6024 109.74)" fill="#6CBB3C"/>
<ellipse rx="1.88649" ry="1.91284" transform="matrix(0.969832 0.243773 -0.236675 0.971589 90.4774 110.714)" fill="#FFD600"/>
<path d="M90.9838 129.578C97.8264 117.246 100.75 108.612 95.42 99.3694C91.6178 92.7758 109.004 96.1149 110.414 108.612C111.055 161.205 95.4832 187.001 88.221 184.745C83.0094 180.232 87.2054 136.387 90.9838 129.578Z" fill="url(#paint8_linear)"/>
<path d="M126.151 150.87C120.567 152.486 117.686 148.073 116.943 145.665C115.642 147.817 112.75 153.595 117.802 156.035C122.227 158.173 124.955 153.897 126.151 150.87Z" fill="#005D4D"/>
<path d="M126.461 112.927C125.915 110.954 123.8 106.802 119.709 105.986C114.595 104.965 106.672 115.37 110.431 120.253C111.914 122.179 113.788 124.587 119.799 124.514C119.84 124.52 119.865 124.52 119.864 124.514C119.654 121.517 120.001 114.965 126.461 112.927Z" fill="url(#paint9_radial)"/>
<path d="M130.413 117.173C130.004 115.166 128.181 110.874 124.156 109.769C119.125 108.387 110.505 118.203 113.918 123.341C115.264 125.368 116.968 127.903 122.969 128.258C123.01 128.267 123.034 128.269 123.034 128.262C123.031 125.258 123.829 118.747 130.413 117.173Z" fill="url(#paint10_radial)"/>
<path d="M133.579 121.717C133.199 119.703 131.435 115.386 127.426 114.223C122.414 112.77 113.659 122.461 117 127.648C118.318 129.693 119.987 132.253 125.983 132.694C126.023 132.703 126.048 132.705 126.048 132.699C126.086 129.695 126.974 123.196 133.579 121.717Z" fill="url(#paint11_radial)"/>
<path d="M136.202 130.013C136.575 127.998 136.492 123.324 133.181 120.749C129.044 117.531 117.4 123.287 118.637 129.357C119.125 131.751 119.754 134.754 125.173 137.397C125.207 137.42 125.229 137.431 125.232 137.425C126.351 134.645 129.523 128.929 136.202 130.013Z" fill="url(#paint12_radial)"/>
<path d="M135.009 139.524C136.183 137.857 138.048 133.584 136.116 129.831C133.701 125.14 120.753 125.37 119.355 131.404C118.803 133.784 118.126 136.776 121.942 141.494C121.964 141.53 121.979 141.55 121.984 141.545C124.153 139.503 129.402 135.68 135.009 139.524Z" fill="url(#paint13_radial)"/>
<path d="M131.495 148.156C133.189 147.04 136.464 143.757 136.017 139.546C135.459 134.283 123.325 129.685 119.851 134.781C118.481 136.791 116.773 139.324 118.625 145.133C118.633 145.175 118.64 145.199 118.646 145.196C121.4 144.102 127.662 142.495 131.495 148.156Z" fill="url(#paint14_radial)"/>
<path d="M125.437 155.878C127.364 155.269 131.391 153.006 132.08 148.829C132.942 143.608 122.482 135.853 117.782 139.806C115.928 141.365 113.611 143.336 113.849 149.438C113.845 149.479 113.845 149.504 113.852 149.504C116.795 149.206 123.252 149.376 125.437 155.878Z" fill="url(#paint15_radial)"/>
<ellipse cx="109.105" cy="109.449" rx="13.6155" ry="13.8307" fill="#005D4D"/>
<path d="M104.777 119.944C104.269 118.418 107.575 118.179 113.47 116.051C118.312 114.303 119.983 110.242 120.491 111.768C120.998 113.294 118.821 119.143 113.47 120.978C110.556 121.977 105.284 121.47 104.777 119.944Z" fill="#00372D" fill-opacity="0.390925"/>
<ellipse rx="2.54399" ry="1.11353" transform="matrix(0.942998 0.332799 -0.323616 0.946188 119.489 4.12862)" fill="#75AFA6"/>
<path fill-rule="evenodd" clip-rule="evenodd" d="M72.252 21.9262C72.6689 19.3129 75.6208 12.7773 84.6336 5.41168C96.2975 -4.12051 140.319 2.74267 141.824 25.6199C143.028 43.9217 135.553 60.4442 131.665 66.4177C131.982 61.4679 130.798 54.6538 126.826 47.8492L121.212 52.0416C119.376 53.4131 116.846 53.3504 115.028 51.9549C86.2013 29.8305 60.154 28.4571 46.7081 31.5804C44.8952 32.0015 43.7492 30.4329 45.2585 29.344C49.6579 26.17 58.055 22.6569 72.252 21.9262Z" fill="#004B3F"/>
<path d="M100.398 26.671C93.3252 22.7381 76.9873 20.8531 72.6069 20.7023C80.3685 3.33723 93.364 -4.07503 119.216 4.11369C128.726 11.5882 101.958 19.3555 100.398 26.671Z" fill="url(#paint16_linear)"/>
<path d="M115.456 35.2482C96.7666 23.0639 79.1607 21.7076 72.2573 21.9189C72.2955 21.5674 72.5325 20.7677 72.5325 20.7677C91.7799 20.7677 109.412 30.0534 115.456 35.2482Z" fill="#00372D"/>
<path d="M131.859 66.149C132.165 62.2644 129.412 51.9314 126.926 47.7749L141.525 29.8037C143.04 36.165 138.972 54.2233 131.859 66.149Z" fill="url(#paint17_linear)"/>
<path d="M116.362 52.7398C92.476 30.4233 63.0371 25.4637 43.8794 30.5522C50.1758 24.5734 64.1621 22.0213 72.2483 21.8628C89.2032 21.5306 104.111 29.1023 111.297 33.2736L116.362 52.7398Z" fill="url(#paint18_linear)"/>
<path d="M120.864 4.5253C124.339 5.51749 143.459 14.0396 126.921 47.7015C134.403 32.4732 137.335 10.6233 120.864 4.5253Z" fill="#00372D"/>
<path d="M100.516 12.5946L99.6112 15.2017L101.4 15.94L101.331 16.1556L99.1032 15.2189L100.035 12.3979L100.516 12.5946Z" fill="#3D796F"/>
<path d="M98.3154 18.5047L97.7544 20.2992L99.569 21.0595L99.4863 21.2781L97.2464 20.3164L97.8339 18.3081L98.3154 18.5047Z" fill="#3D796F"/>
<path fill-rule="evenodd" clip-rule="evenodd" d="M99.2821 9.79708L104.841 11.987L105.076 13.4246L101.649 23.6023L100.487 24.7067L94.9377 22.2312L94.7121 20.5079L95.6577 17.3946L97.8793 18.3277L97.252 20.308L99.4736 21.2411L100.41 18.4134L96.8009 16.8615L96.2664 15.9856L97.8484 10.6063L99.2821 9.79708ZM100.042 12.3953L99.105 15.2231L101.326 16.1557L102.263 13.3279L100.042 12.3953Z" fill="#75AFA6"/>
<path d="M101.246 23.191L104.563 13.4577L104.251 11.759L104.838 11.9889L105.08 13.4402L101.639 23.6006L100.485 24.7003L99.8534 24.4328L101.246 23.191Z" fill="#3D796F"/>
<path d="M71.9124 95.4057C68.1885 96.8002 64.0504 100.372 61.739 104.109C60.0607 106.823 61.7321 110.594 64.1404 108.504C65.4192 107.394 66.9377 105.442 68.6662 102.34C69.8995 100.126 71.4963 98.0819 72.6789 96.6852C73.5044 95.7102 73.109 94.9576 71.9124 95.4057Z" fill="#F8F8F8"/>
<ellipse cx="59.9646" cy="111.556" rx="1.45336" ry="1.47633" fill="#F8F8F8"/>
<path d="M104.036 151.551L116.896 152.633L123.117 155.619L123.84 168.032L107.223 170.238L104.036 151.551Z" fill="#005D4D"/>
<path d="M68.4325 45.6919L66.7492 44.8325L67.5679 43.0447L69.3923 43.9539L70.0242 42.6325L71.9629 43.627L72.5929 42.3242L75.1942 43.6597L74.6117 45.0157L76.8948 46.1743L76.357 47.4247L77.8471 48.1673L77.0807 49.9346L75.4427 49.1297L68.4325 45.6919Z" fill="#6CBB3C"/>
<path d="M89.8449 55.2348L87.7277 54.5009L88.3968 52.2677L90.6879 53.0371L91.2138 51.382L93.653 52.233L94.1798 50.6001L97.4528 51.743L96.9905 53.4306L99.8608 54.4178L99.4338 55.974L101.305 56.6024L100.694 58.8031L98.639 58.1257L89.8449 55.2348Z" fill="#6CBB3C"/>
<defs>
<linearGradient id="paint0_linear" x1="128.374" y1="73.3624" x2="82.2285" y2="76.9744" gradientUnits="userSpaceOnUse">
<stop offset="0.333333" stop-color="#ABABAB"/>
<stop offset="0.833333" stop-color="#B9B7B7" stop-opacity="0"/>
</linearGradient>
<radialGradient id="paint1_radial" cx="0" cy="0" r="1" gradientUnits="userSpaceOnUse" gradientTransform="translate(55.2696 136.699) rotate(35.2195) scale(7.26381 10.5106)">
<stop stop-color="#005D4D"/>
<stop offset="0.776042" stop-color="#3D796F"/>
</radialGradient>
<radialGradient id="paint2_radial" cx="0" cy="0" r="1" gradientUnits="userSpaceOnUse" gradientTransform="translate(51.8817 133.182) rotate(39.2513) scale(7.2715 10.4995)">
<stop stop-color="#005D4D"/>
<stop offset="0.776042" stop-color="#3D796F"/>
</radialGradient>
<radialGradient id="paint3_radial" cx="0" cy="0" r="1" gradientUnits="userSpaceOnUse" gradientTransform="translate(49.0313 129.069) rotate(40.0608) scale(7.27308 10.4972)">
<stop stop-color="#005D4D"/>
<stop offset="0.776042" stop-color="#3D796F"/>
</radialGradient>
<radialGradient id="paint4_radial" cx="0" cy="0" r="1" gradientUnits="userSpaceOnUse" gradientTransform="translate(47.3279 123.834) rotate(61.5025) scale(7.31415 10.4383)">
<stop stop-color="#005D4D"/>
<stop offset="0.776042" stop-color="#3D796F"/>
</radialGradient>
<radialGradient id="paint5_radial" cx="0" cy="0" r="1" gradientUnits="userSpaceOnUse" gradientTransform="translate(48.1027 117.965) rotate(86.1325) scale(7.34009 10.4014)">
<stop stop-color="#005D4D"/>
<stop offset="0.776042" stop-color="#3D796F"/>
</radialGradient>
<radialGradient id="paint6_radial" cx="0" cy="0" r="1" gradientUnits="userSpaceOnUse" gradientTransform="translate(50.1216 112.192) rotate(107.275) scale(7.33034 10.4152)">
<stop stop-color="#005D4D"/>
<stop offset="0.776042" stop-color="#3D796F"/>
</radialGradient>
<radialGradient id="paint7_radial" cx="0" cy="0" r="1" gradientUnits="userSpaceOnUse" gradientTransform="translate(54.3699 106.312) rotate(122.789) scale(7.30657 10.4491)">
<stop stop-color="#005D4D"/>
<stop offset="0.776042" stop-color="#3D796F"/>
</radialGradient>
<linearGradient id="paint8_linear" x1="116.9" y1="139.419" x2="84.5502" y2="130.956" gradientUnits="userSpaceOnUse">
<stop offset="0.102342" stop-color="#C8C8C8"/>
<stop offset="1" stop-color="#C4C4C4" stop-opacity="0"/>
</linearGradient>
<radialGradient id="paint9_radial" cx="0" cy="0" r="1" gradientUnits="userSpaceOnUse" gradientTransform="translate(120.34 116.758) rotate(-145.098) scale(7.8923 11.4219)">
<stop stop-color="#005D4D"/>
<stop offset="0.776042" stop-color="#3D796F"/>
</radialGradient>
<radialGradient id="paint10_radial" cx="0" cy="0" r="1" gradientUnits="userSpaceOnUse" gradientTransform="translate(124.044 120.559) rotate(-141.065) scale(7.90063 11.4098)">
<stop stop-color="#005D4D"/>
<stop offset="0.776042" stop-color="#3D796F"/>
</radialGradient>
<radialGradient id="paint11_radial" cx="0" cy="0" r="1" gradientUnits="userSpaceOnUse" gradientTransform="translate(127.164 125.011) rotate(-140.255) scale(7.90234 11.4073)">
<stop stop-color="#005D4D"/>
<stop offset="0.776042" stop-color="#3D796F"/>
</radialGradient>
<radialGradient id="paint12_radial" cx="0" cy="0" r="1" gradientUnits="userSpaceOnUse" gradientTransform="translate(129.045 130.688) rotate(-118.81) scale(7.94706 11.3431)">
<stop stop-color="#005D4D"/>
<stop offset="0.776042" stop-color="#3D796F"/>
</radialGradient>
<radialGradient id="paint13_radial" cx="0" cy="0" r="1" gradientUnits="userSpaceOnUse" gradientTransform="translate(128.238 137.07) rotate(-94.178) scale(7.97573 11.3024)">
<stop stop-color="#005D4D"/>
<stop offset="0.776042" stop-color="#3D796F"/>
</radialGradient>
<radialGradient id="paint14_radial" cx="0" cy="0" r="1" gradientUnits="userSpaceOnUse" gradientTransform="translate(126.078 143.356) rotate(-73.0364) scale(7.96561 11.3167)">
<stop stop-color="#005D4D"/>
<stop offset="0.776042" stop-color="#3D796F"/>
</radialGradient>
<radialGradient id="paint15_radial" cx="0" cy="0" r="1" gradientUnits="userSpaceOnUse" gradientTransform="translate(121.498 149.771) rotate(-57.5239) scale(7.94003 11.3532)">
<stop stop-color="#005D4D"/>
<stop offset="0.776042" stop-color="#3D796F"/>
</radialGradient>
<linearGradient id="paint16_linear" x1="101.618" y1="0.779936" x2="104.916" y2="14.3166" gradientUnits="userSpaceOnUse">
<stop offset="0.0773366" stop-color="#3D796F"/>
<stop offset="0.964698" stop-color="#006857" stop-opacity="0"/>
</linearGradient>
<linearGradient id="paint17_linear" x1="130.902" y1="41.8794" x2="136.977" y2="48.638" gradientUnits="userSpaceOnUse">
<stop stop-color="#00372D" stop-opacity="0"/>
<stop offset="0.308563" stop-color="#00372D" stop-opacity="0.390925"/>
<stop offset="0.478055" stop-color="#00372D" stop-opacity="0.597563"/>
<stop offset="0.808558" stop-color="#00372D"/>
<stop offset="1" stop-color="#00372D"/>
</linearGradient>
<linearGradient id="paint18_linear" x1="74.9113" y1="21.8522" x2="110.763" y2="40.1266" gradientUnits="userSpaceOnUse">
<stop stop-color="#3D796F"/>
<stop offset="1" stop-color="#3D796F" stop-opacity="0"/>
</linearGradient>
</defs>
</svg>
