<svg width="226" height="461" viewBox="0 0 226 461" fill="none" xmlns="http://www.w3.org/2000/svg">
<path d="M1.14209 430.304L113.156 460.898V278.528L1.14209 247.934V430.304Z" fill="#CCD1E2"/>
<path d="M225.169 430.304L113.155 460.898V278.528L225.169 247.934V430.304Z" fill="#AAAFC1"/>
<path d="M113 223.281L225.169 247.934L113 278.593L0.831055 247.934L113 223.281Z" fill="#DADFEF"/>
<ellipse cx="111.77" cy="251.061" rx="48.5967" ry="8.5033" fill="#AAAFC1"/>
<path d="M83.9921 193.324L68.4573 194.631L60.9426 198.237L60.0698 213.232L80.1422 215.897L83.9921 193.324Z" fill="#797F98"/>
<path d="M94.0158 125.826L69.1655 76.7883L160.985 103.743L124.341 130.988C112.612 134.904 96.4025 129.267 94.0158 125.826Z" fill="#F6F9FF"/>
<path d="M161.406 103.743C107.494 115.38 74.9216 86.4865 68.7441 76.7886C68.7441 76.7886 74.8916 55.0988 90.646 51.5454C119.287 36.143 174.294 23.0509 165.197 93.9022C165.197 93.9022 162.248 101.603 161.406 103.743Z" fill="#181818"/>
<path d="M159.3 70.2639C156.032 113.315 116.751 112.709 82.6411 89.9209C75.5902 85.2104 91.1486 51.4513 91.1486 51.4513L127.837 53.2162L159.3 70.2639Z" fill="black"/>
<path d="M120.088 132.54C114.651 119.798 108.347 107.282 105.182 101.424C129.387 109.261 150.991 106.074 161.32 103.758C149.312 113.042 124.32 131.01 124.32 131.01C124.32 131.01 122.28 132.103 120.088 132.54Z" fill="url(#paint0_linear)"/>
<path d="M86.223 53.9054C81.2132 56.2607 75.8269 62.3364 73.6421 68.0105C72.4944 70.9912 74.459 74.899 76.9164 72.8586C78.5791 71.478 80.5288 68.5798 82.608 63.4536C83.9403 60.1689 85.8588 57.0731 87.1565 55.1329C87.868 54.0692 87.3812 53.3609 86.223 53.9054Z" fill="#646464"/>
<path d="M64.1044 187.962C64.6995 190.16 67.0255 194.788 71.5683 195.721C77.2469 196.887 86.1169 185.37 81.9678 179.919C80.3312 177.769 78.2619 175.08 71.5792 175.123C71.5337 175.117 71.5064 175.116 71.5069 175.124C71.7232 178.456 71.2976 185.737 64.1044 187.962Z" fill="url(#paint1_radial)"/>
<path d="M59.7364 183.218C60.1786 185.452 62.1799 190.234 66.6473 191.488C72.2315 193.055 81.8736 182.197 78.1103 176.464C76.6259 174.203 74.747 171.374 68.0777 170.941C68.0328 170.932 68.0056 170.93 68.0056 170.937C67.9917 174.276 67.0653 181.509 59.7364 183.218Z" fill="url(#paint2_radial)"/>
<path d="M56.2435 178.147C56.6547 180.388 58.5895 185.198 63.0391 186.516C68.601 188.163 78.3927 177.444 74.7093 171.657C73.2564 169.375 71.4168 166.52 64.7543 165.992C64.7094 165.982 64.6823 165.979 64.6822 165.986C64.622 169.325 63.5955 176.544 56.2435 178.147Z" fill="url(#paint3_radial)"/>
<path d="M53.377 168.909C52.9511 171.147 53.0152 176.343 56.6795 179.226C61.2599 182.829 74.2383 176.502 72.8995 169.747C72.3714 167.083 71.6904 163.741 65.6821 160.769C65.644 160.743 65.6198 160.73 65.6171 160.737C64.3561 163.821 60.7958 170.155 53.377 168.909Z" fill="url(#paint4_radial)"/>
<path d="M54.762 158.343C53.4467 160.189 51.3474 164.928 53.4728 169.112C56.1296 174.341 70.524 174.166 72.1149 167.467C72.7424 164.825 73.5125 161.504 69.2989 156.235C69.2751 156.195 69.2586 156.173 69.2533 156.178C66.8293 158.434 60.9713 162.651 54.762 158.343Z" fill="url(#paint5_radial)"/>
<path d="M58.7199 148.77C56.8308 149.999 53.1705 153.629 53.6417 158.313C54.2308 164.167 67.6907 169.353 71.5837 163.71C73.1193 161.485 75.0324 158.679 73.0085 152.21C73.0007 152.164 72.9933 152.137 72.9865 152.14C69.9181 153.339 62.9471 155.087 58.7199 148.77Z" fill="url(#paint6_radial)"/>
<path d="M65.5003 140.223C63.3545 140.888 58.8651 143.379 58.0736 148.018C57.0843 153.816 68.6653 162.502 73.9139 158.137C75.9841 156.415 78.572 154.239 78.3434 147.455C78.3481 147.408 78.348 147.38 78.3408 147.381C75.0676 147.694 67.8909 147.465 65.5003 140.223Z" fill="url(#paint7_radial)"/>
<ellipse cx="76.6447" cy="138.362" rx="14.3165" ry="14.5428" fill="#797F98"/>
<path d="M66.7791 161.991C68.1269 145.904 83.6267 133.896 91.2081 129.902C95.0407 127.884 106.369 137.851 122.376 133.753C137.438 129.897 139.224 153.006 137.96 161.991C136.697 178.962 131.811 216.926 122.376 233.013C112.942 249.1 102.721 239.716 98.7896 233.013C87.5578 216.042 65.4313 178.078 66.7791 161.991Z" fill="#F7F9FF"/>
<ellipse rx="2.27877" ry="2.3106" transform="matrix(0.969832 0.243773 -0.236675 0.971589 99.4127 148.825)" fill="#999EB1"/>
<ellipse rx="2.27877" ry="2.3106" transform="matrix(0.969832 0.243773 -0.236675 0.971589 104.094 150.001)" fill="#999EB1"/>
<ellipse rx="2.27877" ry="2.3106" transform="matrix(0.969832 0.243773 -0.236675 0.971589 108.777 151.178)" fill="#999EB1"/>
<ellipse rx="2.27877" ry="2.3106" transform="matrix(0.969832 0.243773 -0.236675 0.971589 113.459 152.354)" fill="#999EB1"/>
<path d="M114.069 175.141C122.334 160.245 125.865 149.815 119.427 138.651C114.834 130.686 135.836 134.719 137.539 149.815C138.313 213.345 119.504 244.505 110.731 241.779C104.436 236.328 109.504 183.366 114.069 175.141Z" fill="url(#paint8_linear)"/>
<path d="M156.549 200.86C149.804 202.813 146.323 197.482 145.426 194.572C143.854 197.172 140.361 204.152 146.463 207.1C151.809 209.682 155.104 204.516 156.549 200.86Z" fill="#686868"/>
<path d="M156.924 155.028C156.265 152.644 153.71 147.629 148.768 146.643C142.591 145.41 133.021 157.979 137.561 163.877C139.352 166.203 141.617 169.112 148.878 169.024C148.927 169.031 148.957 169.031 148.956 169.023C148.702 165.404 149.121 157.49 156.924 155.028Z" fill="url(#paint9_radial)"/>
<path d="M161.699 160.157C161.205 157.732 159.002 152.548 154.141 151.213C148.064 149.544 137.65 161.401 141.773 167.607C143.4 170.055 145.458 173.118 152.707 173.547C152.756 173.557 152.786 173.559 152.786 173.551C152.781 169.923 153.745 162.058 161.699 160.157Z" fill="url(#paint10_radial)"/>
<path d="M165.525 165.645C165.065 163.213 162.934 157.998 158.091 156.593C152.038 154.837 141.461 166.544 145.498 172.809C147.09 175.28 149.106 178.372 156.348 178.905C156.397 178.915 156.427 178.919 156.427 178.911C156.472 175.282 157.545 167.432 165.525 165.645Z" fill="url(#paint11_radial)"/>
<path d="M168.693 175.666C169.143 173.232 169.043 167.586 165.044 164.476C160.046 160.589 145.981 167.542 147.475 174.874C148.065 177.766 148.825 181.393 155.371 184.586C155.412 184.614 155.439 184.627 155.442 184.62C156.794 181.261 160.625 174.357 168.693 175.666Z" fill="url(#paint12_radial)"/>
<path d="M167.251 187.155C168.669 185.141 170.922 179.98 168.588 175.446C165.67 169.78 150.03 170.058 148.341 177.346C147.675 180.221 146.858 183.835 151.467 189.535C151.493 189.578 151.511 189.602 151.517 189.596C154.138 187.13 160.478 182.512 167.251 187.155Z" fill="url(#paint13_radial)"/>
<path d="M163.007 197.582C165.052 196.234 169.008 192.268 168.468 187.182C167.794 180.824 153.138 175.271 148.941 181.426C147.285 183.853 145.223 186.913 147.46 193.931C147.469 193.981 147.477 194.01 147.485 194.007C150.812 192.685 158.376 190.743 163.007 197.582Z" fill="url(#paint14_radial)"/>
<path d="M155.69 206.91C158.017 206.174 162.881 203.44 163.714 198.395C164.754 192.088 152.119 182.721 146.442 187.496C144.203 189.379 141.404 191.759 141.692 199.13C141.687 199.18 141.687 199.21 141.695 199.21C145.25 198.85 153.049 199.056 155.69 206.91Z" fill="url(#paint15_radial)"/>
<ellipse cx="135.959" cy="150.826" rx="16.4468" ry="16.7067" fill="#797F98"/>
<ellipse rx="3.07299" ry="1.34508" transform="matrix(0.942998 0.332799 -0.323616 0.946188 148.503 23.6054)" fill="#DADFEF"/>
<path fill-rule="evenodd" clip-rule="evenodd" d="M91.4446 45.104C91.9483 41.9472 95.5139 34.0526 106.401 25.1554C120.49 13.6411 173.666 21.9314 175.484 49.5657C176.938 71.6732 167.909 91.6313 163.213 98.847C163.595 92.8679 162.165 84.6368 157.367 76.4172L149.936 81.9667C148.099 83.3382 145.561 83.271 143.749 81.8665C107.865 54.0427 75.4611 52.9048 59.4788 57.0378C57.677 57.5038 56.4789 55.9048 57.9358 54.7467C62.9639 50.7496 73.2699 46.0393 91.4446 45.104Z" fill="#999EB1"/>
<path d="M125.443 50.8353C116.898 46.0846 97.1633 43.8076 91.8721 43.6254C101.248 22.6495 116.945 13.6959 148.173 23.5874C159.66 32.6162 127.326 41.9987 125.443 50.8353Z" fill="url(#paint16_linear)"/>
<path d="M143.63 61.1961C121.054 46.4782 99.7876 44.8398 91.4487 45.095C91.4948 44.6705 91.7811 43.7045 91.7811 43.7045C115.031 43.7045 136.33 54.921 143.63 61.1961Z" fill="#797F98"/>
<path d="M163.445 98.5224C163.814 93.8301 160.488 81.3484 157.486 76.3276L175.12 54.6194C176.95 62.3036 172.037 84.1169 163.445 98.5224Z" fill="url(#paint17_linear)"/>
<path d="M144.725 82.3248C115.873 55.3679 80.3123 49.377 57.1709 55.5235C64.7766 48.3015 81.6712 45.2187 91.4388 45.0273C111.919 44.6261 129.927 53.7722 138.607 58.8109L144.725 82.3248Z" fill="url(#paint18_linear)"/>
<path d="M150.163 24.0846C154.362 25.2831 177.457 35.5773 157.48 76.2389C166.517 57.8441 170.06 31.4506 150.163 24.0846Z" fill="#797F98"/>
<path d="M125.584 33.8318L124.491 36.9811L126.653 37.873L126.569 38.1333L123.878 37.0019L125.003 33.5943L125.584 33.8318Z" fill="#797F98"/>
<path d="M122.927 40.9709L122.249 43.1385L124.441 44.0569L124.341 44.321L121.635 43.1593L122.345 40.7334L122.927 40.9709Z" fill="#797F98"/>
<path fill-rule="evenodd" clip-rule="evenodd" d="M124.095 30.4526L130.809 33.0978L131.093 34.8344L126.954 47.1285L125.55 48.4625L118.847 45.4723L118.574 43.3907L119.717 39.63L122.4 40.7571L121.642 43.1492L124.326 44.2763L125.457 40.8606L121.098 38.986L120.452 37.9279L122.363 31.4301L124.095 30.4526ZM125.013 33.591L123.881 37.0069L126.564 38.1334L127.696 34.7176L125.013 33.591Z" fill="#DADFEF"/>
<path d="M126.466 46.6316L130.472 34.8744L130.096 32.8225L130.806 33.1002L131.098 34.8532L126.941 47.1265L125.547 48.4548L124.784 48.1318L126.466 46.6316Z" fill="#797F98"/>
<rect width="7.42151" height="13.9455" transform="matrix(0.934447 0.355933 -0.344573 0.938821 92.1743 65.9365)" fill="#DADFEF"/>
<rect width="8.00939" height="15.0501" transform="matrix(0.934787 0.355041 -0.345447 0.938501 118.681 73.8564)" fill="#DADFEF"/>
<path d="M129.836 201.683L145.371 202.99L152.886 206.597L153.758 221.591L133.686 224.256L129.836 201.683Z" fill="#797F98"/>
<defs>
<linearGradient id="paint0_linear" x1="159.235" y1="107.236" x2="103.494" y2="111.599" gradientUnits="userSpaceOnUse">
<stop offset="0.333333" stop-color="#DADFEF"/>
<stop offset="0.833333" stop-color="#DADFEF" stop-opacity="0"/>
</linearGradient>
<radialGradient id="paint1_radial" cx="0" cy="0" r="1" gradientUnits="userSpaceOnUse" gradientTransform="translate(70.9309 183.743) rotate(35.2195) scale(8.77425 12.6962)">
<stop stop-color="#999EB1"/>
<stop offset="0.776042" stop-color="#999EB1"/>
</radialGradient>
<radialGradient id="paint2_radial" cx="0" cy="0" r="1" gradientUnits="userSpaceOnUse" gradientTransform="translate(66.837 179.494) rotate(39.2513) scale(8.78354 12.6827)">
<stop stop-color="#999EB1"/>
<stop offset="0.776042" stop-color="#999EB1"/>
</radialGradient>
<radialGradient id="paint3_radial" cx="0" cy="0" r="1" gradientUnits="userSpaceOnUse" gradientTransform="translate(63.3951 174.525) rotate(40.0608) scale(8.78545 12.68)">
<stop stop-color="#999EB1"/>
<stop offset="0.776042" stop-color="#999EB1"/>
</radialGradient>
<radialGradient id="paint4_radial" cx="0" cy="0" r="1" gradientUnits="userSpaceOnUse" gradientTransform="translate(61.3379 168.202) rotate(61.5025) scale(8.83506 12.6088)">
<stop stop-color="#999EB1"/>
<stop offset="0.776042" stop-color="#999EB1"/>
</radialGradient>
<radialGradient id="paint5_radial" cx="0" cy="0" r="1" gradientUnits="userSpaceOnUse" gradientTransform="translate(62.2735 161.113) rotate(86.1324) scale(8.8664 12.5642)">
<stop stop-color="#999EB1"/>
<stop offset="0.776042" stop-color="#999EB1"/>
</radialGradient>
<radialGradient id="paint6_radial" cx="0" cy="0" r="1" gradientUnits="userSpaceOnUse" gradientTransform="translate(64.7131 154.139) rotate(107.275) scale(8.85461 12.581)">
<stop stop-color="#999EB1"/>
<stop offset="0.776042" stop-color="#999EB1"/>
</radialGradient>
<radialGradient id="paint7_radial" cx="0" cy="0" r="1" gradientUnits="userSpaceOnUse" gradientTransform="translate(69.8432 147.037) rotate(122.789) scale(8.82591 12.6219)">
<stop stop-color="#999EB1"/>
<stop offset="0.776042" stop-color="#999EB1"/>
</radialGradient>
<linearGradient id="paint8_linear" x1="145.374" y1="187.028" x2="106.297" y2="176.805" gradientUnits="userSpaceOnUse">
<stop offset="0.102342" stop-color="#DADFEF"/>
<stop offset="1" stop-color="#DADFEF" stop-opacity="0"/>
</linearGradient>
<radialGradient id="paint9_radial" cx="0" cy="0" r="1" gradientUnits="userSpaceOnUse" gradientTransform="translate(149.532 159.655) rotate(-145.098) scale(9.53343 13.7969)">
<stop stop-color="#999EB1"/>
<stop offset="0.776042" stop-color="#999EB1"/>
</radialGradient>
<radialGradient id="paint10_radial" cx="0" cy="0" r="1" gradientUnits="userSpaceOnUse" gradientTransform="translate(154.005 164.247) rotate(-141.065) scale(9.54349 13.7824)">
<stop stop-color="#999EB1"/>
<stop offset="0.776042" stop-color="#999EB1"/>
</radialGradient>
<radialGradient id="paint11_radial" cx="0" cy="0" r="1" gradientUnits="userSpaceOnUse" gradientTransform="translate(157.775 169.624) rotate(-140.255) scale(9.54556 13.7794)">
<stop stop-color="#999EB1"/>
<stop offset="0.776042" stop-color="#999EB1"/>
</radialGradient>
<radialGradient id="paint12_radial" cx="0" cy="0" r="1" gradientUnits="userSpaceOnUse" gradientTransform="translate(160.047 176.482) rotate(-118.81) scale(9.59958 13.7018)">
<stop stop-color="#999EB1"/>
<stop offset="0.776042" stop-color="#999EB1"/>
</radialGradient>
<radialGradient id="paint13_radial" cx="0" cy="0" r="1" gradientUnits="userSpaceOnUse" gradientTransform="translate(159.072 184.191) rotate(-94.178) scale(9.63421 13.6526)">
<stop stop-color="#999EB1"/>
<stop offset="0.776042" stop-color="#999EB1"/>
</radialGradient>
<radialGradient id="paint14_radial" cx="0" cy="0" r="1" gradientUnits="userSpaceOnUse" gradientTransform="translate(156.463 191.784) rotate(-73.0364) scale(9.62199 13.6699)">
<stop stop-color="#999EB1"/>
<stop offset="0.776042" stop-color="#999EB1"/>
</radialGradient>
<radialGradient id="paint15_radial" cx="0" cy="0" r="1" gradientUnits="userSpaceOnUse" gradientTransform="translate(150.931 199.532) rotate(-57.5239) scale(9.59108 13.714)">
<stop stop-color="#999EB1"/>
<stop offset="0.776042" stop-color="#999EB1"/>
</radialGradient>
<linearGradient id="paint16_linear" x1="126.916" y1="19.5605" x2="130.9" y2="35.9119" gradientUnits="userSpaceOnUse">
<stop offset="0.0773366" stop-color="#DADFEF"/>
<stop offset="0.964698" stop-color="#DADFEF" stop-opacity="0"/>
</linearGradient>
<linearGradient id="paint17_linear" x1="162.289" y1="69.2061" x2="169.627" y2="77.3702" gradientUnits="userSpaceOnUse">
<stop stop-color="#797F98" stop-opacity="0"/>
<stop offset="0.308563" stop-color="#797F98" stop-opacity="0.390925"/>
<stop offset="0.478055" stop-color="#797F98" stop-opacity="0.597563"/>
<stop offset="0.808558" stop-color="#797F98"/>
<stop offset="1" stop-color="#797F98"/>
</linearGradient>
<linearGradient id="paint18_linear" x1="94.6555" y1="45.0145" x2="137.962" y2="67.0889" gradientUnits="userSpaceOnUse">
<stop stop-color="#DADFEF"/>
<stop offset="1" stop-color="#DADFEF" stop-opacity="0"/>
</linearGradient>
</defs>
</svg>
