<svg width="226" height="461" viewBox="0 0 226 461" fill="none" xmlns="http://www.w3.org/2000/svg">
<path d="M1.14209 430.347L113.156 460.94V278.57L1.14209 247.977V430.347Z" fill="#F57731"/>
<path d="M225.169 430.347L113.155 460.94V278.57L225.169 247.977V430.347Z" fill="#C35A1F"/>
<path d="M113 223.324L225.169 247.977L113 278.635L0.831055 247.977L113 223.324Z" fill="#FD8746"/>
<ellipse cx="111.77" cy="251.103" rx="48.5967" ry="8.5033" fill="#C35A1F"/>
<path d="M83.9926 193.366L68.4578 194.673L60.943 198.28L60.0703 213.274L80.1427 215.939L83.9926 193.366Z" fill="#797F98"/>
<path d="M94.0165 125.869L69.1663 76.8308L160.986 103.785L124.342 131.031C112.613 134.946 96.4032 129.31 94.0165 125.869Z" fill="#EBF0FF"/>
<path d="M161.406 103.785C107.494 115.423 74.9218 86.5289 68.7444 76.8311C68.7444 76.8311 74.8918 55.1413 90.6463 51.5879C119.287 36.1854 174.295 23.0933 165.197 93.9447C165.197 93.9447 162.249 101.646 161.406 103.785Z" fill="#181818"/>
<path d="M159.301 70.3063C156.033 113.358 116.752 112.752 82.6418 89.9634C75.591 85.2529 91.1494 51.4937 91.1494 51.4937L127.838 53.2586L159.301 70.3063Z" fill="black"/>
<path d="M120.089 132.583C114.652 119.84 108.348 107.324 105.183 101.467C129.387 109.304 150.991 106.117 161.32 103.8C149.313 113.085 124.321 131.052 124.321 131.052C124.321 131.052 122.28 132.146 120.089 132.583Z" fill="url(#paint0_linear)"/>
<path d="M86.2238 53.9478C81.2139 56.3032 75.8276 62.3788 73.6428 68.0529C72.4951 71.0337 74.4597 74.9415 76.9171 72.901C78.5799 71.5204 80.5295 68.6222 82.6087 63.496C83.941 60.2114 85.8595 57.1155 87.1572 55.1754C87.8688 54.1116 87.382 53.4033 86.2238 53.9478Z" fill="#646464"/>
<path d="M64.1046 188.005C64.6997 190.202 67.0257 194.83 71.5685 195.763C77.2471 196.93 86.1172 185.412 81.968 179.961C80.3314 177.811 78.2621 175.123 71.5794 175.166C71.534 175.159 71.5067 175.159 71.5071 175.166C71.7234 178.498 71.2979 185.779 64.1046 188.005Z" fill="url(#paint1_radial)"/>
<path d="M59.7368 183.26C60.1791 185.494 62.1804 190.277 66.6478 191.53C72.232 193.098 81.8741 182.239 78.1108 176.507C76.6264 174.245 74.7474 171.416 68.0782 170.984C68.0333 170.975 68.0061 170.972 68.0061 170.979C67.9922 174.319 67.0658 181.552 59.7368 183.26Z" fill="url(#paint2_radial)"/>
<path d="M56.2433 178.19C56.6545 180.43 58.5892 185.241 63.0388 186.558C68.6008 188.205 78.3925 177.486 74.7091 171.7C73.2562 169.418 71.4166 166.562 64.754 166.034C64.7092 166.024 64.6821 166.021 64.6819 166.029C64.6217 169.368 63.5952 176.586 56.2433 178.19Z" fill="url(#paint3_radial)"/>
<path d="M53.3773 168.952C52.9513 171.189 53.0155 176.385 56.6798 179.268C61.2602 182.871 74.2386 176.545 72.8997 169.79C72.3716 167.125 71.6906 163.784 65.6823 160.812C65.6442 160.786 65.6201 160.773 65.6173 160.779C64.3563 163.864 60.7961 170.198 53.3773 168.952Z" fill="url(#paint4_radial)"/>
<path d="M54.7622 158.386C53.4469 160.232 51.3476 164.97 53.473 169.154C56.1298 174.384 70.5243 174.208 72.1151 167.51C72.7426 164.868 73.5128 161.546 69.2992 156.277C69.2754 156.237 69.2588 156.215 69.2535 156.22C66.8295 158.476 60.9715 162.694 54.7622 158.386Z" fill="url(#paint5_radial)"/>
<path d="M58.7197 148.812C56.8306 150.042 53.1702 153.672 53.6415 158.355C54.2306 164.21 67.6905 169.395 71.5835 163.753C73.119 161.527 75.0321 158.722 73.0083 152.252C73.0005 152.206 72.993 152.18 72.9863 152.182C69.9178 153.381 62.9469 155.129 58.7197 148.812Z" fill="url(#paint6_radial)"/>
<path d="M65.5006 140.265C63.3548 140.931 58.8654 143.421 58.0739 148.06C57.0846 153.859 68.6655 162.544 73.9141 158.179C75.9844 156.458 78.5722 154.281 78.3436 147.497C78.3483 147.451 78.3482 147.423 78.341 147.424C75.0679 147.736 67.8912 147.507 65.5006 140.265Z" fill="url(#paint7_radial)"/>
<ellipse cx="76.6449" cy="138.405" rx="14.3165" ry="14.5428" fill="#797F98"/>
<path d="M66.7796 162.033C68.1274 145.946 83.6272 133.938 91.2086 129.945C95.0412 127.926 106.37 137.893 122.377 133.795C137.439 129.94 139.224 153.049 137.961 162.033C136.697 179.005 131.811 216.969 122.377 233.056C112.942 249.143 102.721 239.759 98.7901 233.056C87.5583 216.085 65.4318 178.12 66.7796 162.033Z" fill="#EBF0FF"/>
<ellipse rx="2.27877" ry="2.3106" transform="matrix(0.969832 0.243773 -0.236675 0.971589 99.4129 148.867)" fill="#FEFEFE"/>
<ellipse rx="2.27877" ry="2.3106" transform="matrix(0.969832 0.243773 -0.236675 0.971589 104.095 150.043)" fill="white"/>
<ellipse rx="2.27877" ry="2.3106" transform="matrix(0.969832 0.243773 -0.236675 0.971589 108.777 151.22)" fill="white"/>
<ellipse rx="2.27877" ry="2.3106" transform="matrix(0.969832 0.243773 -0.236675 0.971589 113.459 152.397)" fill="white"/>
<path d="M114.069 175.183C122.335 160.287 125.866 149.858 119.428 138.693C114.835 130.728 135.837 134.762 137.54 149.858C138.314 213.387 119.504 244.547 110.732 241.822C104.437 236.37 109.505 183.409 114.069 175.183Z" fill="url(#paint8_linear)"/>
<path d="M156.549 200.903C149.804 202.855 146.324 197.524 145.426 194.615C143.855 197.215 140.362 204.195 146.463 207.142C151.809 209.725 155.105 204.559 156.549 200.903Z" fill="#686868"/>
<path d="M156.925 155.07C156.266 152.686 153.711 147.671 148.769 146.685C142.592 145.453 133.022 158.021 137.562 163.919C139.353 166.245 141.618 169.154 148.879 169.067C148.928 169.073 148.958 169.074 148.957 169.066C148.703 165.446 149.122 157.532 156.925 155.07Z" fill="url(#paint9_radial)"/>
<path d="M161.7 160.199C161.206 157.774 159.003 152.59 154.142 151.255C148.065 149.586 137.651 161.443 141.774 167.649C143.401 170.097 145.459 173.16 152.708 173.589C152.757 173.599 152.787 173.602 152.787 173.594C152.782 169.965 153.746 162.1 161.7 160.199Z" fill="url(#paint10_radial)"/>
<path d="M165.526 165.687C165.066 163.255 162.935 158.04 158.092 156.636C152.039 154.88 141.462 166.587 145.499 172.852C147.091 175.323 149.107 178.414 156.349 178.947C156.398 178.958 156.428 178.961 156.428 178.953C156.473 175.325 157.546 167.474 165.526 165.687Z" fill="url(#paint11_radial)"/>
<path d="M168.694 175.708C169.144 173.274 169.043 167.629 165.045 164.519C160.046 160.631 145.981 167.584 147.476 174.916C148.065 177.808 148.825 181.435 155.371 184.628C155.413 184.656 155.439 184.67 155.442 184.662C156.794 181.304 160.625 174.4 168.694 175.708Z" fill="url(#paint12_radial)"/>
<path d="M167.251 187.198C168.67 185.184 170.923 180.022 168.589 175.489C165.671 169.822 150.031 170.101 148.342 177.389C147.676 180.264 146.858 183.878 151.468 189.577C151.494 189.62 151.512 189.644 151.518 189.639C154.138 187.173 160.479 182.554 167.251 187.198Z" fill="url(#paint13_radial)"/>
<path d="M163.007 197.624C165.053 196.277 169.009 192.31 168.469 187.224C167.794 180.866 153.139 175.313 148.942 181.468C147.286 183.896 145.224 186.956 147.461 193.973C147.47 194.023 147.478 194.052 147.485 194.049C150.813 192.728 158.377 190.786 163.007 197.624Z" fill="url(#paint14_radial)"/>
<path d="M155.69 206.953C158.018 206.216 162.881 203.483 163.714 198.437C164.755 192.131 152.12 182.763 146.442 187.538C144.203 189.422 141.404 191.802 141.692 199.172C141.687 199.223 141.688 199.253 141.695 199.252C145.25 198.893 153.05 199.098 155.69 206.953Z" fill="url(#paint15_radial)"/>
<ellipse cx="135.96" cy="150.869" rx="16.4468" ry="16.7067" fill="#797F98"/>
<ellipse rx="3.07299" ry="1.34508" transform="matrix(0.942998 0.332799 -0.323616 0.946188 148.504 23.6479)" fill="#BDBDBD"/>
<path fill-rule="evenodd" clip-rule="evenodd" d="M91.4453 45.1464C91.949 41.9896 95.5146 34.095 106.402 25.1978C120.491 13.6835 173.667 21.9738 175.485 49.6082C176.939 71.7156 167.91 91.6738 163.213 98.8894C163.596 92.9103 162.166 84.6792 157.367 76.4596L149.937 82.0092C148.1 83.3807 145.562 83.3134 143.75 81.909C107.866 54.0852 75.4618 52.9472 59.4795 57.0802C57.6777 57.5462 56.4796 55.9472 57.9365 54.7891C62.9647 50.7921 73.2706 46.0818 91.4453 45.1464Z" fill="#999EB1"/>
<path d="M125.443 50.8777C116.899 46.127 97.1641 43.8501 91.8728 43.6679C101.248 22.692 116.946 13.7384 148.174 23.6299C159.661 32.6587 127.327 42.0411 125.443 50.8777Z" fill="url(#paint16_linear)"/>
<path d="M143.631 61.2385C121.055 46.5206 99.7886 44.8823 91.4497 45.1374C91.4958 44.7129 91.7821 43.7469 91.7821 43.7469C115.032 43.7469 136.331 54.9634 143.631 61.2385Z" fill="#3E3E3E"/>
<path d="M163.446 98.5649C163.815 93.8725 160.489 81.3909 157.487 76.37L175.121 54.6619C176.951 62.346 172.038 84.1593 163.446 98.5649Z" fill="url(#paint17_linear)"/>
<path d="M144.726 82.3673C115.873 55.4104 80.313 49.4194 57.1716 55.566C64.7774 48.344 81.6719 45.2611 91.4395 45.0698C111.92 44.6685 129.928 53.8147 138.608 58.8533L144.726 82.3673Z" fill="url(#paint18_linear)"/>
<path d="M150.164 24.1271C154.362 25.3256 177.458 35.6197 157.48 76.2814C166.518 57.8865 170.061 31.4931 150.164 24.1271Z" fill="#3E3E3E"/>
<path d="M125.586 33.8743L124.493 37.0235L126.654 37.9154L126.57 38.1758L123.879 37.0443L125.004 33.6368L125.586 33.8743Z" fill="#797F98"/>
<path d="M122.928 41.0134L122.25 43.181L124.442 44.0994L124.342 44.3635L121.636 43.2018L122.346 40.7759L122.928 41.0134Z" fill="#797F98"/>
<path fill-rule="evenodd" clip-rule="evenodd" d="M124.096 30.4951L130.81 33.1403L131.094 34.8769L126.955 47.1709L125.551 48.505L118.848 45.5147L118.575 43.4331L119.718 39.6724L122.401 40.7995L121.643 43.1917L124.327 44.3187L125.458 40.9031L121.099 39.0284L120.453 37.9704L122.364 31.4726L124.096 30.4951ZM125.014 33.6335L123.882 37.0493L126.565 38.1759L127.697 34.7601L125.014 33.6335Z" fill="#DADFEF"/>
<path d="M126.467 46.6741L130.473 34.9169L130.097 32.865L130.807 33.1427L131.099 34.8957L126.942 47.169L125.548 48.4973L124.785 48.1742L126.467 46.6741Z" fill="#797F98"/>
<rect width="7.42151" height="13.9455" transform="matrix(0.934447 0.355933 -0.344573 0.938821 92.1748 65.9789)" fill="#DADFEF"/>
<rect width="8.00939" height="15.0501" transform="matrix(0.934787 0.355041 -0.345447 0.938501 118.681 73.8988)" fill="#DADFEF"/>
<path d="M129.836 201.726L145.371 203.033L152.886 206.639L153.758 221.634L133.686 224.298L129.836 201.726Z" fill="#797F98"/>
<defs>
<linearGradient id="paint0_linear" x1="159.235" y1="107.278" x2="103.494" y2="111.641" gradientUnits="userSpaceOnUse">
<stop offset="0.333333" stop-color="#DADFEF"/>
<stop offset="0.833333" stop-color="#DADFEF" stop-opacity="0"/>
</linearGradient>
<radialGradient id="paint1_radial" cx="0" cy="0" r="1" gradientUnits="userSpaceOnUse" gradientTransform="translate(70.9312 183.785) rotate(35.2195) scale(8.77425 12.6962)">
<stop stop-color="#999EB1"/>
<stop offset="0.776042" stop-color="#999EB1"/>
</radialGradient>
<radialGradient id="paint2_radial" cx="0" cy="0" r="1" gradientUnits="userSpaceOnUse" gradientTransform="translate(66.8375 179.536) rotate(39.2513) scale(8.78354 12.6827)">
<stop stop-color="#999EB1"/>
<stop offset="0.776042" stop-color="#999EB1"/>
</radialGradient>
<radialGradient id="paint3_radial" cx="0" cy="0" r="1" gradientUnits="userSpaceOnUse" gradientTransform="translate(63.3948 174.568) rotate(40.0608) scale(8.78545 12.68)">
<stop stop-color="#999EB1"/>
<stop offset="0.776042" stop-color="#999EB1"/>
</radialGradient>
<radialGradient id="paint4_radial" cx="0" cy="0" r="1" gradientUnits="userSpaceOnUse" gradientTransform="translate(61.3381 168.245) rotate(61.5025) scale(8.83506 12.6088)">
<stop stop-color="#999EB1"/>
<stop offset="0.776042" stop-color="#999EB1"/>
</radialGradient>
<radialGradient id="paint5_radial" cx="0" cy="0" r="1" gradientUnits="userSpaceOnUse" gradientTransform="translate(62.2737 161.156) rotate(86.1324) scale(8.8664 12.5642)">
<stop stop-color="#999EB1"/>
<stop offset="0.776042" stop-color="#999EB1"/>
</radialGradient>
<radialGradient id="paint6_radial" cx="0" cy="0" r="1" gradientUnits="userSpaceOnUse" gradientTransform="translate(64.7129 154.182) rotate(107.275) scale(8.85461 12.581)">
<stop stop-color="#999EB1"/>
<stop offset="0.776042" stop-color="#999EB1"/>
</radialGradient>
<radialGradient id="paint7_radial" cx="0" cy="0" r="1" gradientUnits="userSpaceOnUse" gradientTransform="translate(69.8435 147.079) rotate(122.789) scale(8.82591 12.6219)">
<stop stop-color="#999EB1"/>
<stop offset="0.776042" stop-color="#999EB1"/>
</radialGradient>
<linearGradient id="paint8_linear" x1="145.374" y1="187.071" x2="106.298" y2="176.847" gradientUnits="userSpaceOnUse">
<stop offset="0.102342" stop-color="#DADFEF"/>
<stop offset="1" stop-color="#DADFEF" stop-opacity="0"/>
</linearGradient>
<radialGradient id="paint9_radial" cx="0" cy="0" r="1" gradientUnits="userSpaceOnUse" gradientTransform="translate(149.533 159.697) rotate(-145.098) scale(9.53343 13.7969)">
<stop stop-color="#999EB1"/>
<stop offset="0.776042" stop-color="#999EB1"/>
</radialGradient>
<radialGradient id="paint10_radial" cx="0" cy="0" r="1" gradientUnits="userSpaceOnUse" gradientTransform="translate(154.006 164.289) rotate(-141.065) scale(9.54349 13.7824)">
<stop stop-color="#999EB1"/>
<stop offset="0.776042" stop-color="#999EB1"/>
</radialGradient>
<radialGradient id="paint11_radial" cx="0" cy="0" r="1" gradientUnits="userSpaceOnUse" gradientTransform="translate(157.776 169.667) rotate(-140.255) scale(9.54556 13.7794)">
<stop stop-color="#999EB1"/>
<stop offset="0.776042" stop-color="#999EB1"/>
</radialGradient>
<radialGradient id="paint12_radial" cx="0" cy="0" r="1" gradientUnits="userSpaceOnUse" gradientTransform="translate(160.048 176.525) rotate(-118.81) scale(9.59958 13.7018)">
<stop stop-color="#999EB1"/>
<stop offset="0.776042" stop-color="#999EB1"/>
</radialGradient>
<radialGradient id="paint13_radial" cx="0" cy="0" r="1" gradientUnits="userSpaceOnUse" gradientTransform="translate(159.073 184.234) rotate(-94.178) scale(9.63421 13.6526)">
<stop stop-color="#999EB1"/>
<stop offset="0.776042" stop-color="#999EB1"/>
</radialGradient>
<radialGradient id="paint14_radial" cx="0" cy="0" r="1" gradientUnits="userSpaceOnUse" gradientTransform="translate(156.464 191.826) rotate(-73.0364) scale(9.62199 13.6699)">
<stop stop-color="#999EB1"/>
<stop offset="0.776042" stop-color="#999EB1"/>
</radialGradient>
<radialGradient id="paint15_radial" cx="0" cy="0" r="1" gradientUnits="userSpaceOnUse" gradientTransform="translate(150.931 199.575) rotate(-57.5239) scale(9.59108 13.714)">
<stop stop-color="#999EB1"/>
<stop offset="0.776042" stop-color="#999EB1"/>
</radialGradient>
<linearGradient id="paint16_linear" x1="126.916" y1="19.6029" x2="130.901" y2="35.9544" gradientUnits="userSpaceOnUse">
<stop offset="0.0773366" stop-color="#DADFEF"/>
<stop offset="0.964698" stop-color="#DADFEF" stop-opacity="0"/>
</linearGradient>
<linearGradient id="paint17_linear" x1="162.29" y1="69.2486" x2="169.628" y2="77.4126" gradientUnits="userSpaceOnUse">
<stop stop-color="#797F98" stop-opacity="0"/>
<stop offset="0.308563" stop-color="#797F98" stop-opacity="0.390925"/>
<stop offset="0.478055" stop-color="#797F98" stop-opacity="0.597563"/>
<stop offset="0.808558" stop-color="#797F98"/>
<stop offset="1" stop-color="#797F98"/>
</linearGradient>
<linearGradient id="paint18_linear" x1="94.6563" y1="45.057" x2="137.963" y2="67.1314" gradientUnits="userSpaceOnUse">
<stop stop-color="#DADFEF"/>
<stop offset="1" stop-color="#DADFEF" stop-opacity="0"/>
</linearGradient>
</defs>
</svg>
