<svg width="186" height="381" viewBox="0 0 186 381" fill="none" xmlns="http://www.w3.org/2000/svg">
<path d="M0.666016 355.151L93.1025 380.397V229.901L0.666016 204.654V355.151Z" fill="#6CBB3C"/>
<path d="M185.539 355.151L93.1026 380.397V229.901L185.539 204.654V355.151Z" fill="#61A835"/>
<path d="M92.974 184.31L185.539 204.654L92.974 229.954L0.40918 204.654L92.974 184.31Z" fill="#8ACF5F"/>
<ellipse cx="92.9742" cy="205.304" rx="24.1441" ry="4.22467" fill="#61A835"/>
<path d="M68.5816 144.644L55.7211 145.726L49.4999 148.712L48.7774 161.125L65.3944 163.331L68.5816 144.644Z" fill="#005D4D"/>
<path d="M76.881 88.766L56.3086 48.1697L132.322 70.484L101.986 93.0392C92.2764 96.2809 78.8569 91.6148 76.881 88.766Z" fill="#EEEEEE"/>
<path d="M132.67 70.484C88.038 80.1181 61.073 56.1984 55.959 48.17C55.959 48.17 61.0482 30.2139 74.0906 27.2723C97.8011 14.5212 143.339 3.68287 135.808 62.3376C135.808 62.3376 133.367 68.7131 132.67 70.484Z" fill="#181818"/>
<path d="M130.927 42.7684C128.222 78.4086 95.7025 77.907 67.4642 59.0417C61.627 55.142 74.5072 27.1943 74.5072 27.1943L104.88 28.6554L130.927 42.7684Z" fill="black"/>
<path d="M98.465 94.3244C93.9639 83.7751 88.7453 73.4138 86.125 68.5648C106.163 75.0528 124.048 72.4141 132.599 70.4966C122.658 78.1826 101.969 93.0572 101.969 93.0572C101.969 93.0572 100.28 93.9623 98.465 94.3244Z" fill="url(#paint0_linear)"/>
<path d="M70.0433 29.4159C66.2388 31.3688 62.2507 35.8047 60.3384 40.1206C59.0446 43.0409 61.1422 46.6532 63.3405 44.336C64.5734 43.0363 65.966 40.7568 67.4368 37.1305C68.4608 34.6058 69.9032 32.2159 70.9642 30.6013C71.667 29.5318 71.1819 28.8315 70.0433 29.4159Z" fill="#646464"/>
<path d="M52.1157 140.206C52.6084 142.025 54.534 145.856 58.2948 146.629C62.9958 147.594 70.339 138.06 66.9041 133.547C65.5492 131.767 63.8361 129.541 58.3038 129.577C58.2662 129.572 58.2436 129.571 58.244 129.577C58.423 132.336 58.0707 138.363 52.1157 140.206Z" fill="url(#paint1_radial)"/>
<path d="M48.5005 136.278C48.8666 138.128 50.5234 142.086 54.2218 143.124C58.8447 144.422 66.827 135.433 63.7115 130.687C62.4826 128.815 60.9271 126.473 55.406 126.115C55.3688 126.107 55.3463 126.105 55.3462 126.111C55.3347 128.876 54.5679 134.863 48.5005 136.278Z" fill="url(#paint2_radial)"/>
<path d="M45.6079 132.08C45.9483 133.935 47.55 137.917 51.2336 139.008C55.8381 140.372 63.9443 131.498 60.8949 126.708C59.6921 124.818 58.1692 122.454 52.6536 122.017C52.6165 122.009 52.594 122.007 52.5939 122.013C52.5441 124.777 51.6943 130.753 45.6079 132.08Z" fill="url(#paint3_radial)"/>
<path d="M43.2351 124.433C42.8824 126.285 42.9355 130.586 45.9691 132.973C49.761 135.956 60.5052 130.718 59.3968 125.126C58.9596 122.921 58.3959 120.154 53.4219 117.694C53.3903 117.672 53.3703 117.662 53.368 117.667C52.3241 120.22 49.3768 125.464 43.2351 124.433Z" fill="url(#paint4_radial)"/>
<path d="M44.3823 115.685C43.2934 117.214 41.5555 121.137 43.315 124.6C45.5144 128.93 57.431 128.784 58.748 123.239C59.2674 121.052 59.905 118.302 56.4168 113.94C56.3971 113.907 56.3834 113.888 56.379 113.893C54.3723 115.76 49.5227 119.252 44.3823 115.685Z" fill="url(#paint5_radial)"/>
<path d="M47.6577 107.76C46.0938 108.778 43.0636 111.783 43.4537 115.66C43.9414 120.507 55.0842 124.8 58.3071 120.129C59.5783 118.286 61.1621 115.964 59.4866 110.608C59.4802 110.57 59.474 110.548 59.4684 110.55C56.9281 111.542 51.1572 112.99 47.6577 107.76Z" fill="url(#paint6_radial)"/>
<path d="M53.2722 100.684C51.4958 101.235 47.7792 103.297 47.124 107.137C46.305 111.938 55.8923 119.128 60.2374 115.515C61.9513 114.089 64.0936 112.288 63.9044 106.671C63.9083 106.633 63.9082 106.61 63.9023 106.61C61.1925 106.869 55.2513 106.679 53.2722 100.684Z" fill="url(#paint7_radial)"/>
<ellipse cx="62.4985" cy="99.1439" rx="11.852" ry="12.0393" fill="#005D4D"/>
<path d="M65.2681 90.404C65.6622 91.7475 63.5089 90.9365 60.9425 91.7133C58.3761 92.4901 56.3684 94.5606 55.9743 93.2171C55.5802 91.8736 57.1771 90.2334 59.7435 89.4566C62.3099 88.6798 64.874 89.0605 65.2681 90.404Z" fill="#75AFA6"/>
<path d="M54.331 118.705C55.4468 105.387 68.2784 95.4463 74.5547 92.1404C77.7275 90.4693 87.1059 98.7204 100.357 95.3282C112.826 92.1363 114.305 111.267 113.259 118.705C112.213 132.755 108.168 164.184 100.357 177.501C92.5468 190.819 84.0854 183.051 80.831 177.501C71.5327 163.452 53.2152 132.023 54.331 118.705Z" fill="#EEEEEE"/>
<ellipse rx="1.88649" ry="1.91284" transform="matrix(0.969832 0.243773 -0.236675 0.971589 81.3466 107.805)" fill="#5697F9"/>
<ellipse rx="1.88649" ry="1.91284" transform="matrix(0.969832 0.243773 -0.236675 0.971589 85.2235 108.779)" fill="#C751FF"/>
<ellipse rx="1.88649" ry="1.91284" transform="matrix(0.969832 0.243773 -0.236675 0.971589 89.0995 109.753)" fill="#6CBB3C"/>
<ellipse rx="1.88649" ry="1.91284" transform="matrix(0.969832 0.243773 -0.236675 0.971589 92.9745 110.727)" fill="#FFD600"/>
<path d="M93.4809 129.591C100.324 117.259 103.247 108.626 97.917 99.3828C94.1149 92.7892 111.502 96.1283 112.911 108.626C113.552 161.219 97.9803 187.015 90.7181 184.758C85.5065 180.245 89.7025 136.401 93.4809 129.591Z" fill="url(#paint8_linear)"/>
<path d="M128.65 150.883C123.066 152.5 120.184 148.086 119.442 145.678C118.14 147.83 115.249 153.609 120.3 156.049C124.726 158.187 127.454 153.91 128.65 150.883Z" fill="#005D4D"/>
<path d="M128.959 112.941C128.413 110.967 126.298 106.816 122.207 105.999C117.093 104.979 109.17 115.384 112.929 120.266C114.412 122.192 116.286 124.6 122.297 124.528C122.338 124.533 122.363 124.534 122.362 124.527C122.152 121.53 122.499 114.979 128.959 112.941Z" fill="url(#paint9_radial)"/>
<path d="M132.911 117.187C132.502 115.179 130.679 110.888 126.654 109.782C121.623 108.401 113.003 118.216 116.416 123.354C117.762 125.381 119.466 127.916 125.467 128.272C125.508 128.28 125.532 128.282 125.532 128.276C125.529 125.271 126.327 118.761 132.911 117.187Z" fill="url(#paint10_radial)"/>
<path d="M136.077 121.73C135.697 119.717 133.933 115.4 129.924 114.237C124.913 112.783 116.157 122.475 119.498 127.661C120.816 129.707 122.485 132.266 128.481 132.708C128.521 132.716 128.546 132.719 128.546 132.712C128.584 129.708 129.472 123.21 136.077 121.73Z" fill="url(#paint11_radial)"/>
<path d="M138.7 130.026C139.073 128.011 138.99 123.337 135.679 120.763C131.542 117.544 119.898 123.301 121.135 129.37C121.623 131.764 122.252 134.767 127.671 137.41C127.706 137.433 127.727 137.445 127.73 137.439C128.849 134.658 132.021 128.943 138.7 130.026Z" fill="url(#paint12_radial)"/>
<path d="M137.506 139.538C138.68 137.87 140.545 133.597 138.613 129.844C136.198 125.153 123.25 125.384 121.852 131.417C121.3 133.797 120.624 136.789 124.44 141.508C124.461 141.543 124.476 141.563 124.481 141.559C126.65 139.517 131.899 135.693 137.506 139.538Z" fill="url(#paint13_radial)"/>
<path d="M133.993 148.169C135.686 147.054 138.961 143.77 138.514 139.559C137.956 134.296 125.823 129.699 122.349 134.794C120.978 136.804 119.271 139.337 121.123 145.147C121.13 145.188 121.137 145.212 121.143 145.21C123.897 144.116 130.16 142.508 133.993 148.169Z" fill="url(#paint14_radial)"/>
<path d="M127.934 155.892C129.861 155.282 133.888 153.019 134.577 148.842C135.439 143.621 124.979 135.866 120.279 139.819C118.425 141.379 116.108 143.349 116.346 149.451C116.342 149.493 116.343 149.518 116.349 149.517C119.292 149.219 125.749 149.389 127.934 155.892Z" fill="url(#paint15_radial)"/>
<ellipse cx="111.604" cy="109.463" rx="13.6155" ry="13.8307" fill="#005D4D"/>
<path d="M107.275 119.957C106.768 118.431 110.074 118.193 115.969 116.064C120.811 114.316 122.482 110.256 122.989 111.781C123.496 113.307 121.319 119.156 115.969 120.991C113.054 121.991 107.782 121.483 107.275 119.957Z" fill="#00372D" fill-opacity="0.390925"/>
<ellipse rx="2.54399" ry="1.11353" transform="matrix(0.942998 0.332799 -0.323616 0.946188 121.987 4.14201)" fill="#75AFA6"/>
<path fill-rule="evenodd" clip-rule="evenodd" d="M74.7495 21.9396C75.1665 19.3263 78.1183 12.7907 87.1311 5.42509C98.795 -4.10709 142.817 2.75608 144.322 25.6333C145.526 43.9351 138.051 60.4576 134.163 66.4311C134.48 61.4813 133.296 54.6672 129.324 47.8626L123.71 52.0551C121.873 53.4265 119.343 53.3638 117.525 51.9683C88.6988 29.8439 62.6515 28.4705 49.2057 31.5938C47.3928 32.0149 46.2467 30.4463 47.7561 29.3574C52.1554 26.1834 60.5526 22.6704 74.7495 21.9396Z" fill="#004B3F"/>
<path d="M102.896 26.6844C95.8227 22.7515 79.4849 20.8665 75.1045 20.7157C82.866 3.35063 95.8615 -4.06163 121.714 4.12709C131.223 11.6016 104.455 19.3689 102.896 26.6844Z" fill="url(#paint16_linear)"/>
<path d="M117.954 35.2616C99.2641 23.0773 81.6583 21.721 74.7549 21.9323C74.793 21.5808 75.03 20.7811 75.03 20.7811C94.2774 20.7811 111.91 30.0668 117.954 35.2616Z" fill="#00372D"/>
<path d="M134.357 66.1624C134.663 62.2778 131.91 51.9448 129.424 47.7883L144.022 29.8171C145.537 36.1784 141.47 54.2367 134.357 66.1624Z" fill="url(#paint17_linear)"/>
<path d="M118.859 52.7532C94.9735 30.4367 65.5347 25.4771 46.377 30.5656C52.6734 24.5868 66.6596 22.0346 74.7458 21.8762C91.7007 21.544 106.608 29.1157 113.795 33.287L118.859 52.7532Z" fill="url(#paint18_linear)"/>
<path d="M123.361 4.5387C126.837 5.53089 145.957 14.053 129.418 47.7149C136.9 32.4866 139.833 10.6367 123.361 4.5387Z" fill="#00372D"/>
<path d="M103.014 12.608L102.109 15.2151L103.898 15.9534L103.829 16.169L101.601 15.2323L102.533 12.4113L103.014 12.608Z" fill="#3D796F"/>
<path d="M100.813 18.5181L100.252 20.3126L102.067 21.0729L101.984 21.2915L99.744 20.3298L100.331 18.3215L100.813 18.5181Z" fill="#3D796F"/>
<path fill-rule="evenodd" clip-rule="evenodd" d="M101.78 9.81047L107.339 12.0003L107.574 13.438L104.147 23.6157L102.985 24.7201L97.4357 22.2446L97.2102 20.5213L98.1557 17.408L100.377 18.3411L99.7501 20.3214L101.972 21.2545L102.908 18.4268L99.299 16.8749L98.7644 15.999L100.346 10.6197L101.78 9.81047ZM102.54 12.4086L101.603 15.2365L103.824 16.1691L104.761 13.3413L102.54 12.4086Z" fill="#75AFA6"/>
<path d="M103.744 23.2044L107.061 13.4711L106.749 11.7724L107.336 12.0023L107.578 13.4536L104.137 23.6141L102.983 24.7137L102.351 24.4462L103.744 23.2044Z" fill="#3D796F"/>
<path d="M74.411 95.4191C70.687 96.8136 66.5489 100.386 64.2376 104.123C62.5592 106.836 64.2307 110.608 66.639 108.517C67.9178 107.407 69.4362 105.456 71.1647 102.353C72.398 100.139 73.9948 98.0952 75.1774 96.6986C76.0029 95.7236 75.6075 94.971 74.411 95.4191Z" fill="#F8F8F8"/>
<ellipse cx="62.4621" cy="111.569" rx="1.45336" ry="1.47633" fill="#F8F8F8"/>
<path d="M106.534 151.565L119.394 152.646L125.615 155.632L126.338 168.046L109.721 170.252L106.534 151.565Z" fill="#005D4D"/>
<path d="M70.9306 45.7053L69.2473 44.8458L70.0659 43.0581L71.8904 43.9673L72.5222 42.6459L74.461 43.6404L75.0909 42.3376L77.6923 43.6731L77.1098 45.0291L79.3928 46.1877L78.855 47.438L80.3452 48.1806L79.5788 49.948L77.9408 49.1431L70.9306 45.7053Z" fill="#6CBB3C"/>
<path d="M92.343 55.2482L90.2258 54.5143L90.8948 52.2811L93.1859 53.0505L93.7118 51.3954L96.1511 52.2464L96.6778 50.6135L99.9508 51.7564L99.4885 53.444L102.359 54.4312L101.932 55.9874L103.803 56.6158L103.192 58.8165L101.137 58.1391L92.343 55.2482Z" fill="#6CBB3C"/>
<defs>
<linearGradient id="paint0_linear" x1="130.873" y1="73.3758" x2="84.7271" y2="76.9878" gradientUnits="userSpaceOnUse">
<stop offset="0.333333" stop-color="#ABABAB"/>
<stop offset="0.833333" stop-color="#B9B7B7" stop-opacity="0"/>
</linearGradient>
<radialGradient id="paint1_radial" cx="0" cy="0" r="1" gradientUnits="userSpaceOnUse" gradientTransform="translate(57.7671 136.712) rotate(35.2195) scale(7.26381 10.5106)">
<stop stop-color="#005D4D"/>
<stop offset="0.776042" stop-color="#3D796F"/>
</radialGradient>
<radialGradient id="paint2_radial" cx="0" cy="0" r="1" gradientUnits="userSpaceOnUse" gradientTransform="translate(54.3788 133.195) rotate(39.2513) scale(7.2715 10.4995)">
<stop stop-color="#005D4D"/>
<stop offset="0.776042" stop-color="#3D796F"/>
</radialGradient>
<radialGradient id="paint3_radial" cx="0" cy="0" r="1" gradientUnits="userSpaceOnUse" gradientTransform="translate(51.5284 129.082) rotate(40.0608) scale(7.27308 10.4972)">
<stop stop-color="#005D4D"/>
<stop offset="0.776042" stop-color="#3D796F"/>
</radialGradient>
<radialGradient id="paint4_radial" cx="0" cy="0" r="1" gradientUnits="userSpaceOnUse" gradientTransform="translate(49.8255 123.847) rotate(61.5025) scale(7.31415 10.4383)">
<stop stop-color="#005D4D"/>
<stop offset="0.776042" stop-color="#3D796F"/>
</radialGradient>
<radialGradient id="paint5_radial" cx="0" cy="0" r="1" gradientUnits="userSpaceOnUse" gradientTransform="translate(50.6007 117.978) rotate(86.1325) scale(7.34009 10.4014)">
<stop stop-color="#005D4D"/>
<stop offset="0.776042" stop-color="#3D796F"/>
</radialGradient>
<radialGradient id="paint6_radial" cx="0" cy="0" r="1" gradientUnits="userSpaceOnUse" gradientTransform="translate(52.6192 112.205) rotate(107.275) scale(7.33034 10.4152)">
<stop stop-color="#005D4D"/>
<stop offset="0.776042" stop-color="#3D796F"/>
</radialGradient>
<radialGradient id="paint7_radial" cx="0" cy="0" r="1" gradientUnits="userSpaceOnUse" gradientTransform="translate(56.8675 106.325) rotate(122.789) scale(7.30657 10.4491)">
<stop stop-color="#005D4D"/>
<stop offset="0.776042" stop-color="#3D796F"/>
</radialGradient>
<linearGradient id="paint8_linear" x1="119.397" y1="139.433" x2="87.0473" y2="130.969" gradientUnits="userSpaceOnUse">
<stop offset="0.102342" stop-color="#C8C8C8"/>
<stop offset="1" stop-color="#C4C4C4" stop-opacity="0"/>
</linearGradient>
<radialGradient id="paint9_radial" cx="0" cy="0" r="1" gradientUnits="userSpaceOnUse" gradientTransform="translate(122.838 116.771) rotate(-145.098) scale(7.8923 11.4219)">
<stop stop-color="#005D4D"/>
<stop offset="0.776042" stop-color="#3D796F"/>
</radialGradient>
<radialGradient id="paint10_radial" cx="0" cy="0" r="1" gradientUnits="userSpaceOnUse" gradientTransform="translate(126.542 120.572) rotate(-141.065) scale(7.90063 11.4098)">
<stop stop-color="#005D4D"/>
<stop offset="0.776042" stop-color="#3D796F"/>
</radialGradient>
<radialGradient id="paint11_radial" cx="0" cy="0" r="1" gradientUnits="userSpaceOnUse" gradientTransform="translate(129.662 125.024) rotate(-140.255) scale(7.90234 11.4073)">
<stop stop-color="#005D4D"/>
<stop offset="0.776042" stop-color="#3D796F"/>
</radialGradient>
<radialGradient id="paint12_radial" cx="0" cy="0" r="1" gradientUnits="userSpaceOnUse" gradientTransform="translate(131.543 130.702) rotate(-118.81) scale(7.94706 11.3431)">
<stop stop-color="#005D4D"/>
<stop offset="0.776042" stop-color="#3D796F"/>
</radialGradient>
<radialGradient id="paint13_radial" cx="0" cy="0" r="1" gradientUnits="userSpaceOnUse" gradientTransform="translate(130.735 137.084) rotate(-94.178) scale(7.97573 11.3024)">
<stop stop-color="#005D4D"/>
<stop offset="0.776042" stop-color="#3D796F"/>
</radialGradient>
<radialGradient id="paint14_radial" cx="0" cy="0" r="1" gradientUnits="userSpaceOnUse" gradientTransform="translate(128.576 143.369) rotate(-73.0364) scale(7.96561 11.3167)">
<stop stop-color="#005D4D"/>
<stop offset="0.776042" stop-color="#3D796F"/>
</radialGradient>
<radialGradient id="paint15_radial" cx="0" cy="0" r="1" gradientUnits="userSpaceOnUse" gradientTransform="translate(123.995 149.784) rotate(-57.5239) scale(7.94003 11.3532)">
<stop stop-color="#005D4D"/>
<stop offset="0.776042" stop-color="#3D796F"/>
</radialGradient>
<linearGradient id="paint16_linear" x1="104.116" y1="0.793334" x2="107.414" y2="14.33" gradientUnits="userSpaceOnUse">
<stop offset="0.0773366" stop-color="#3D796F"/>
<stop offset="0.964698" stop-color="#006857" stop-opacity="0"/>
</linearGradient>
<linearGradient id="paint17_linear" x1="133.4" y1="41.8928" x2="139.475" y2="48.6514" gradientUnits="userSpaceOnUse">
<stop stop-color="#00372D" stop-opacity="0"/>
<stop offset="0.308563" stop-color="#00372D" stop-opacity="0.390925"/>
<stop offset="0.478055" stop-color="#00372D" stop-opacity="0.597563"/>
<stop offset="0.808558" stop-color="#00372D"/>
<stop offset="1" stop-color="#00372D"/>
</linearGradient>
<linearGradient id="paint18_linear" x1="77.4088" y1="21.8656" x2="113.26" y2="40.14" gradientUnits="userSpaceOnUse">
<stop stop-color="#3D796F"/>
<stop offset="1" stop-color="#3D796F" stop-opacity="0"/>
</linearGradient>
</defs>
</svg>
