<svg width="225" height="461" viewBox="0 0 225 461" fill="none" xmlns="http://www.w3.org/2000/svg">
<path d="M0.508789 429.86L112.522 460.454V278.084L0.508789 247.49V429.86Z" fill="#585858"/>
<path d="M224.536 429.86L112.522 460.454V278.084L224.536 247.49V429.86Z" fill="#313131"/>
<path d="M112.367 222.837L224.536 247.491L112.367 278.149L0.197754 247.491L112.367 222.837Z" fill="#8A8A8A"/>
<ellipse cx="111.137" cy="250.617" rx="48.5967" ry="8.5033" fill="#585858"/>
<path d="M83.3588 192.88L67.824 194.187L60.3093 197.794L59.4365 212.788L79.5089 215.453L83.3588 192.88Z" fill="#5B5B5B"/>
<path d="M93.3825 125.383L68.5322 76.3447L160.352 103.299L123.708 130.544C111.979 134.46 95.7692 128.824 93.3825 125.383Z" fill="#EEEEEE"/>
<path d="M160.773 103.299C106.86 114.936 74.2883 86.0428 68.1108 76.345C68.1108 76.345 74.2583 54.6552 90.0127 51.1018C118.654 35.6993 173.661 22.6072 164.563 93.4586C164.563 93.4586 161.615 101.16 160.773 103.299Z" fill="#181818"/>
<path d="M158.667 69.8202C155.399 112.871 116.118 112.266 82.0078 89.4773C74.9569 84.7668 90.5153 51.0076 90.5153 51.0076L127.204 52.7725L158.667 69.8202Z" fill="black"/>
<path d="M119.455 132.097C114.018 119.354 107.714 106.838 104.549 100.981C128.753 108.818 150.357 105.631 160.686 103.314C148.679 112.598 123.687 130.566 123.687 130.566C123.687 130.566 121.647 131.659 119.455 132.097Z" fill="url(#paint0_linear)"/>
<path d="M85.5897 53.4618C80.5799 55.8171 75.1936 61.8927 73.0088 67.5668C71.8611 70.5476 73.8257 74.4554 76.2831 72.415C77.9458 71.0343 79.8955 68.1362 81.9747 63.01C83.307 59.7253 85.2255 56.6295 86.5232 54.6893C87.2347 53.6256 86.7479 52.9173 85.5897 53.4618Z" fill="#646464"/>
<path d="M63.4711 187.519C64.0662 189.716 66.3922 194.344 70.935 195.277C76.6135 196.444 85.4836 184.926 81.3345 179.475C79.6979 177.325 77.6286 174.637 70.9459 174.68C70.9004 174.673 70.8731 174.673 70.8736 174.68C71.0899 178.012 70.6643 185.293 63.4711 187.519Z" fill="url(#paint1_radial)"/>
<path d="M59.1031 182.774C59.5453 185.008 61.5466 189.791 66.014 191.044C71.5982 192.612 81.2403 181.753 77.477 176.02C75.9926 173.759 74.1137 170.93 67.4444 170.498C67.3995 170.489 67.3723 170.486 67.3723 170.493C67.3584 173.833 66.432 181.066 59.1031 182.774Z" fill="url(#paint2_radial)"/>
<path d="M55.6102 177.704C56.0214 179.944 57.9562 184.755 62.4058 186.072C67.9677 187.719 77.7594 177 74.076 171.214C72.6231 168.931 70.7835 166.076 64.121 165.548C64.0761 165.538 64.049 165.535 64.0489 165.543C63.9887 168.882 62.9622 176.1 55.6102 177.704Z" fill="url(#paint3_radial)"/>
<path d="M52.7437 168.466C52.3178 170.703 52.3819 175.899 56.0462 178.782C60.6266 182.385 73.605 176.059 72.2662 169.304C71.7381 166.639 71.0571 163.297 65.0488 160.325C65.0107 160.299 64.9865 160.287 64.9838 160.293C63.7228 163.377 60.1625 169.711 52.7437 168.466Z" fill="url(#paint4_radial)"/>
<path d="M54.1287 157.899C52.8134 159.746 50.7141 164.484 52.8395 168.668C55.4963 173.898 69.8907 173.722 71.4816 167.024C72.1091 164.382 72.8792 161.06 68.6656 155.791C68.6418 155.751 68.6253 155.729 68.62 155.734C66.196 157.99 60.338 162.208 54.1287 157.899Z" fill="url(#paint5_radial)"/>
<path d="M58.0866 148.326C56.1975 149.556 52.5372 153.185 53.0084 157.869C53.5975 163.724 67.0574 168.909 70.9504 163.267C72.486 161.041 74.3991 158.236 72.3752 151.766C72.3674 151.72 72.36 151.693 72.3532 151.696C69.2848 152.895 62.3138 154.643 58.0866 148.326Z" fill="url(#paint6_radial)"/>
<path d="M64.867 139.779C62.7212 140.444 58.2318 142.935 57.4403 147.574C56.451 153.373 68.032 162.058 73.2806 157.693C75.3508 155.971 77.9387 153.795 77.7101 147.011C77.7148 146.965 77.7147 146.937 77.7075 146.937C74.4343 147.25 67.2576 147.021 64.867 139.779Z" fill="url(#paint7_radial)"/>
<ellipse cx="76.0114" cy="137.919" rx="14.3165" ry="14.5428" fill="#686868"/>
<path d="M79.3552 127.361C79.8313 128.984 77.2302 128.004 74.1301 128.943C71.03 129.881 68.6049 132.382 68.1289 130.759C67.6528 129.136 69.5818 127.155 72.6819 126.217C75.7819 125.279 78.8792 125.738 79.3552 127.361Z" fill="#BDBDBD"/>
<path d="M66.1458 161.547C67.4936 145.46 82.9934 133.452 90.5748 129.459C94.4074 127.44 105.736 137.407 121.743 133.309C136.805 129.454 138.591 152.562 137.327 161.547C136.063 178.518 131.178 216.483 121.743 232.57C112.308 248.657 102.087 239.273 98.1563 232.57C86.9245 215.599 64.798 177.634 66.1458 161.547Z" fill="#EEEEEE"/>
<ellipse rx="2.27877" ry="2.3106" transform="matrix(0.969832 0.243773 -0.236675 0.971589 98.7794 148.381)" fill="#FEFEFE"/>
<ellipse rx="2.27877" ry="2.3106" transform="matrix(0.969832 0.243773 -0.236675 0.971589 103.461 149.557)" fill="white"/>
<ellipse rx="2.27877" ry="2.3106" transform="matrix(0.969832 0.243773 -0.236675 0.971589 108.144 150.734)" fill="white"/>
<ellipse rx="2.27877" ry="2.3106" transform="matrix(0.969832 0.243773 -0.236675 0.971589 112.825 151.911)" fill="white"/>
<path d="M113.435 174.697C121.701 159.801 125.232 149.372 118.794 138.207C114.201 130.242 135.203 134.276 136.906 149.372C137.68 212.901 118.87 244.061 110.098 241.336C103.803 235.884 108.871 182.923 113.435 174.697Z" fill="url(#paint8_linear)"/>
<path d="M155.916 200.417C149.171 202.369 145.69 197.038 144.793 194.129C143.221 196.729 139.728 203.709 145.83 206.656C151.176 209.239 154.471 204.073 155.916 200.417Z" fill="#686868"/>
<path d="M156.291 154.584C155.631 152.2 153.077 147.185 148.135 146.199C141.958 144.966 132.388 157.535 136.928 163.433C138.719 165.759 140.983 168.668 148.245 168.581C148.294 168.587 148.324 168.588 148.323 168.58C148.068 164.96 148.488 157.046 156.291 154.584Z" fill="url(#paint9_radial)"/>
<path d="M161.065 159.713C160.572 157.288 158.369 152.104 153.507 150.769C147.43 149.1 137.017 160.957 141.14 167.163C142.766 169.611 144.825 172.674 152.074 173.103C152.123 173.113 152.152 173.116 152.152 173.108C152.148 169.479 153.112 161.614 161.065 159.713Z" fill="url(#paint10_radial)"/>
<path d="M164.891 165.201C164.431 162.769 162.301 157.554 157.458 156.15C151.405 154.394 140.828 166.101 144.865 172.366C146.457 174.837 148.472 177.928 155.715 178.461C155.764 178.472 155.793 178.475 155.793 178.467C155.839 174.838 156.912 166.988 164.891 165.201Z" fill="url(#paint11_radial)"/>
<path d="M168.06 175.222C168.51 172.788 168.409 167.143 164.411 164.033C159.413 160.145 145.348 167.098 146.842 174.43C147.432 177.322 148.191 180.949 154.737 184.142C154.779 184.17 154.805 184.184 154.808 184.176C156.16 180.818 159.992 173.913 168.06 175.222Z" fill="url(#paint12_radial)"/>
<path d="M166.617 186.712C168.036 184.698 170.289 179.536 167.955 175.003C165.037 169.336 149.397 169.615 147.708 176.903C147.042 179.778 146.224 183.392 150.834 189.091C150.86 189.134 150.878 189.158 150.884 189.153C153.504 186.687 159.845 182.068 166.617 186.712Z" fill="url(#paint13_radial)"/>
<path d="M162.373 197.138C164.419 195.791 168.375 191.824 167.835 186.738C167.16 180.38 152.505 174.827 148.308 180.982C146.652 183.41 144.59 186.47 146.827 193.487C146.836 193.537 146.844 193.566 146.851 193.563C150.179 192.242 157.743 190.3 162.373 197.138Z" fill="url(#paint14_radial)"/>
<path d="M155.056 206.467C157.384 205.73 162.248 202.997 163.08 197.951C164.121 191.645 151.486 182.277 145.809 187.052C143.569 188.936 140.77 191.316 141.059 198.686C141.054 198.737 141.054 198.767 141.062 198.766C144.617 198.407 152.416 198.612 155.056 206.467Z" fill="url(#paint15_radial)"/>
<ellipse cx="135.326" cy="150.383" rx="16.4468" ry="16.7067" fill="#686868"/>
<path d="M130.096 163.06C129.483 161.217 133.476 160.928 140.598 158.357C146.446 156.245 148.465 151.341 149.077 153.184C149.69 155.027 147.06 162.092 140.598 164.309C137.077 165.516 130.708 164.903 130.096 163.06Z" fill="#00372D" fill-opacity="0.390925"/>
<ellipse rx="3.07299" ry="1.34508" transform="matrix(0.942998 0.332799 -0.323616 0.946188 147.87 23.1618)" fill="#BDBDBD"/>
<path fill-rule="evenodd" clip-rule="evenodd" d="M90.8113 44.6603C91.315 41.5035 94.8806 33.609 105.768 24.7118C119.857 13.1975 173.033 21.4878 174.851 49.1221C176.305 71.2296 167.276 91.1877 162.579 98.4034C162.962 92.4243 161.532 84.1932 156.733 75.9736L149.302 81.5231C147.466 82.8946 144.928 82.8274 143.116 81.4229C107.232 53.5991 74.8278 52.4612 58.8455 56.5942C57.0437 57.0601 55.8456 55.4612 57.3025 54.3031C62.3306 50.306 72.6366 45.5957 90.8113 44.6603Z" fill="#454545"/>
<path d="M124.809 50.3917C116.265 45.6409 96.53 43.364 91.2388 43.1818C100.614 22.2059 116.312 13.2523 147.54 23.1438C159.027 32.1726 126.693 41.555 124.809 50.3917Z" fill="url(#paint16_linear)"/>
<path d="M142.997 60.7525C120.421 46.0345 99.1543 44.3962 90.8154 44.6514C90.8615 44.2269 91.1478 43.2609 91.1478 43.2609C114.397 43.2609 135.696 54.4774 142.997 60.7525Z" fill="#3E3E3E"/>
<path d="M162.812 98.0788C163.181 93.3865 159.855 80.9048 156.853 75.884L174.486 54.1758C176.317 61.8599 171.404 83.6733 162.812 98.0788Z" fill="url(#paint17_linear)"/>
<path d="M144.092 81.8812C115.239 54.9243 79.679 48.9334 56.5376 55.0799C64.1433 47.8579 81.0379 44.7751 90.8055 44.5837C111.286 44.1824 129.294 53.3286 137.974 58.3673L144.092 81.8812Z" fill="url(#paint18_linear)"/>
<path d="M149.53 23.641C153.728 24.8395 176.824 35.1337 156.846 75.7953C165.884 57.4004 169.427 31.007 149.53 23.641Z" fill="#3E3E3E"/>
<path d="M124.951 33.3882L123.858 36.5374L126.019 37.4293L125.936 37.6897L123.244 36.5582L124.369 33.1507L124.951 33.3882Z" fill="#8E8E8E"/>
<path d="M122.293 40.5273L121.616 42.6949L123.808 43.6133L123.708 43.8774L121.002 42.7157L121.712 40.2898L122.293 40.5273Z" fill="#8E8E8E"/>
<path fill-rule="evenodd" clip-rule="evenodd" d="M123.461 30.0089L130.176 32.6542L130.46 34.3908L126.32 46.6848L124.917 48.0189L118.214 45.0286L117.941 42.947L119.083 39.1863L121.767 40.3134L121.009 42.7055L123.693 43.8326L124.824 40.417L120.464 38.5423L119.819 37.4843L121.73 30.9865L123.461 30.0089ZM124.379 33.1474L123.248 36.5632L125.931 37.6898L127.063 34.274L124.379 33.1474Z" fill="#BDBDBD"/>
<path d="M125.833 46.188L129.839 34.4308L129.462 32.3789L130.172 32.6566L130.464 34.4096L126.308 46.6829L124.914 48.0112L124.151 47.6881L125.833 46.188Z" fill="#8E8E8E"/>
<path d="M90.8872 133.246C85.9769 134.887 80.3404 139.827 77.5942 144.815C76.0554 147.611 77.5765 151.672 80.2061 149.868C81.9044 148.703 84.0146 146.217 86.4779 141.795C88.088 138.905 90.2109 136.254 91.6608 134.572C92.4946 133.604 92.0991 132.841 90.8872 133.246Z" fill="#F8F8F8"/>
<ellipse cx="75.966" cy="152.928" rx="1.75557" ry="1.78332" fill="#F8F8F8"/>
<rect width="7.42151" height="13.9455" transform="matrix(0.934447 0.355933 -0.344573 0.938821 91.541 65.4929)" fill="#CACACA"/>
<rect width="8.00939" height="15.0501" transform="matrix(0.934787 0.355041 -0.345447 0.938501 118.048 73.4127)" fill="#CACACA"/>
<path d="M129.203 201.24L144.737 202.546L152.252 206.153L153.125 221.148L133.053 223.812L129.203 201.24Z" fill="#5B5B5B"/>
<defs>
<linearGradient id="paint0_linear" x1="158.601" y1="106.792" x2="102.86" y2="111.155" gradientUnits="userSpaceOnUse">
<stop offset="0.333333" stop-color="#ABABAB"/>
<stop offset="0.833333" stop-color="#B9B7B7" stop-opacity="0"/>
</linearGradient>
<radialGradient id="paint1_radial" cx="0" cy="0" r="1" gradientUnits="userSpaceOnUse" gradientTransform="translate(70.2976 183.299) rotate(35.2195) scale(8.77425 12.6962)">
<stop stop-color="#6F6F6F"/>
<stop offset="0.776042" stop-color="#858585"/>
</radialGradient>
<radialGradient id="paint2_radial" cx="0" cy="0" r="1" gradientUnits="userSpaceOnUse" gradientTransform="translate(66.2037 179.05) rotate(39.2513) scale(8.78354 12.6827)">
<stop stop-color="#6F6F6F"/>
<stop offset="0.776042" stop-color="#858585"/>
</radialGradient>
<radialGradient id="paint3_radial" cx="0" cy="0" r="1" gradientUnits="userSpaceOnUse" gradientTransform="translate(62.7618 174.082) rotate(40.0608) scale(8.78545 12.68)">
<stop stop-color="#6F6F6F"/>
<stop offset="0.776042" stop-color="#858585"/>
</radialGradient>
<radialGradient id="paint4_radial" cx="0" cy="0" r="1" gradientUnits="userSpaceOnUse" gradientTransform="translate(60.7046 167.759) rotate(61.5025) scale(8.83506 12.6088)">
<stop stop-color="#6F6F6F"/>
<stop offset="0.776042" stop-color="#858585"/>
</radialGradient>
<radialGradient id="paint5_radial" cx="0" cy="0" r="1" gradientUnits="userSpaceOnUse" gradientTransform="translate(61.6402 160.669) rotate(86.1324) scale(8.8664 12.5642)">
<stop stop-color="#6F6F6F"/>
<stop offset="0.776042" stop-color="#858585"/>
</radialGradient>
<radialGradient id="paint6_radial" cx="0" cy="0" r="1" gradientUnits="userSpaceOnUse" gradientTransform="translate(64.0798 153.696) rotate(107.275) scale(8.85461 12.581)">
<stop stop-color="#6F6F6F"/>
<stop offset="0.776042" stop-color="#858585"/>
</radialGradient>
<radialGradient id="paint7_radial" cx="0" cy="0" r="1" gradientUnits="userSpaceOnUse" gradientTransform="translate(69.2099 146.593) rotate(122.789) scale(8.82591 12.6219)">
<stop stop-color="#6F6F6F"/>
<stop offset="0.776042" stop-color="#858585"/>
</radialGradient>
<linearGradient id="paint8_linear" x1="144.74" y1="186.585" x2="105.664" y2="176.361" gradientUnits="userSpaceOnUse">
<stop offset="0.102342" stop-color="#C8C8C8"/>
<stop offset="1" stop-color="#C4C4C4" stop-opacity="0"/>
</linearGradient>
<radialGradient id="paint9_radial" cx="0" cy="0" r="1" gradientUnits="userSpaceOnUse" gradientTransform="translate(148.898 159.211) rotate(-145.098) scale(9.53343 13.7969)">
<stop stop-color="#6F6F6F"/>
<stop offset="0.776042" stop-color="#858585"/>
</radialGradient>
<radialGradient id="paint10_radial" cx="0" cy="0" r="1" gradientUnits="userSpaceOnUse" gradientTransform="translate(153.372 163.803) rotate(-141.065) scale(9.54349 13.7824)">
<stop stop-color="#6F6F6F"/>
<stop offset="0.776042" stop-color="#858585"/>
</radialGradient>
<radialGradient id="paint11_radial" cx="0" cy="0" r="1" gradientUnits="userSpaceOnUse" gradientTransform="translate(157.142 169.18) rotate(-140.255) scale(9.54556 13.7794)">
<stop stop-color="#6F6F6F"/>
<stop offset="0.776042" stop-color="#858585"/>
</radialGradient>
<radialGradient id="paint12_radial" cx="0" cy="0" r="1" gradientUnits="userSpaceOnUse" gradientTransform="translate(159.414 176.038) rotate(-118.81) scale(9.59958 13.7018)">
<stop stop-color="#6F6F6F"/>
<stop offset="0.776042" stop-color="#858585"/>
</radialGradient>
<radialGradient id="paint13_radial" cx="0" cy="0" r="1" gradientUnits="userSpaceOnUse" gradientTransform="translate(158.439 183.748) rotate(-94.178) scale(9.63421 13.6526)">
<stop stop-color="#6F6F6F"/>
<stop offset="0.776042" stop-color="#858585"/>
</radialGradient>
<radialGradient id="paint14_radial" cx="0" cy="0" r="1" gradientUnits="userSpaceOnUse" gradientTransform="translate(155.829 191.34) rotate(-73.0364) scale(9.62199 13.6699)">
<stop stop-color="#6F6F6F"/>
<stop offset="0.776042" stop-color="#858585"/>
</radialGradient>
<radialGradient id="paint15_radial" cx="0" cy="0" r="1" gradientUnits="userSpaceOnUse" gradientTransform="translate(150.297 199.089) rotate(-57.5239) scale(9.59108 13.714)">
<stop stop-color="#6F6F6F"/>
<stop offset="0.776042" stop-color="#858585"/>
</radialGradient>
<linearGradient id="paint16_linear" x1="126.282" y1="19.1168" x2="130.267" y2="35.4683" gradientUnits="userSpaceOnUse">
<stop offset="0.0773366" stop-color="#7D7D7D"/>
<stop offset="0.964698" stop-color="#656565" stop-opacity="0"/>
</linearGradient>
<linearGradient id="paint17_linear" x1="161.655" y1="68.7625" x2="168.994" y2="76.9265" gradientUnits="userSpaceOnUse">
<stop stop-color="#3A3A3A" stop-opacity="0"/>
<stop offset="0.308563" stop-color="#3A3A3A" stop-opacity="0.390925"/>
<stop offset="0.478055" stop-color="#3E3E3E" stop-opacity="0.597563"/>
<stop offset="0.808558" stop-color="#343434"/>
<stop offset="1" stop-color="#363636"/>
</linearGradient>
<linearGradient id="paint18_linear" x1="94.0222" y1="44.5709" x2="137.329" y2="66.6453" gradientUnits="userSpaceOnUse">
<stop stop-color="#7C7C7C"/>
<stop offset="1" stop-color="#858585" stop-opacity="0"/>
</linearGradient>
</defs>
</svg>
