<svg width="225" height="461" viewBox="0 0 225 461" fill="none" xmlns="http://www.w3.org/2000/svg">
<path d="M0.508789 429.86L112.522 460.454V278.084L0.508789 247.49V429.86Z" fill="#585858"/>
<path d="M224.536 429.86L112.522 460.454V278.084L224.536 247.49V429.86Z" fill="#313131"/>
<path d="M112.367 222.837L224.536 247.491L112.367 278.149L0.197754 247.491L112.367 222.837Z" fill="#8A8A8A"/>
<ellipse cx="108.675" cy="247.49" rx="29.1647" ry="5.10315" fill="#585858"/>
<path d="M79.2089 174.218L63.6741 175.524L56.1594 179.131L55.2866 194.125L75.359 196.79L79.2089 174.218Z" fill="#005D4D"/>
<path d="M89.2325 106.72L64.3823 57.6819L156.202 84.6363L119.558 111.882C107.829 115.797 91.6193 110.161 89.2325 106.72Z" fill="#EEEEEE"/>
<path d="M156.623 84.6363C102.71 96.2738 70.1384 67.3801 63.9609 57.6823C63.9609 57.6823 70.1084 35.9925 85.8628 32.4391C114.504 17.0366 169.511 3.9445 160.414 74.7959C160.414 74.7959 157.465 82.4971 156.623 84.6363Z" fill="#181818"/>
<path d="M154.517 51.1575C151.25 94.2087 111.969 93.6028 77.8584 70.8146C70.8075 66.1041 86.3659 32.3449 86.3659 32.3449L123.055 34.1098L154.517 51.1575Z" fill="black"/>
<path d="M115.305 113.434C109.868 100.691 103.564 88.1753 100.399 82.318C124.604 90.1551 146.208 86.9678 156.537 84.6515C144.529 93.9358 119.537 111.903 119.537 111.903C119.537 111.903 117.497 112.997 115.305 113.434Z" fill="url(#paint0_linear)"/>
<path d="M81.4403 34.799C76.4304 37.1543 71.0442 43.23 68.8594 48.9041C67.7117 51.8848 69.6763 55.7926 72.1337 53.7522C73.7964 52.3715 75.7461 49.4734 77.8253 44.3472C79.1575 41.0625 81.076 37.9667 82.3738 36.0265C83.0853 34.9628 82.5985 34.2545 81.4403 34.799Z" fill="#646464"/>
<path d="M59.3212 168.856C59.9163 171.054 62.2423 175.682 66.7851 176.615C72.4636 177.781 81.3337 166.264 77.1846 160.812C75.548 158.662 73.4787 155.974 66.796 156.017C66.7505 156.011 66.7232 156.01 66.7237 156.017C66.94 159.35 66.5144 166.631 59.3212 168.856Z" fill="url(#paint1_radial)"/>
<path d="M54.9532 164.111C55.3954 166.346 57.3967 171.128 61.8641 172.382C67.4483 173.949 77.0904 163.091 73.3271 157.358C71.8427 155.097 69.9638 152.268 63.2945 151.835C63.2496 151.826 63.2224 151.823 63.2224 151.831C63.2085 155.17 62.2821 162.403 54.9532 164.111Z" fill="url(#paint2_radial)"/>
<path d="M51.4603 159.041C51.8715 161.282 53.8063 166.092 58.2559 167.409C63.8178 169.056 73.6095 158.337 69.9261 152.551C68.4732 150.269 66.6336 147.413 59.9711 146.885C59.9262 146.876 59.8991 146.873 59.899 146.88C59.8388 150.219 58.8123 157.438 51.4603 159.041Z" fill="url(#paint3_radial)"/>
<path d="M48.5938 149.803C48.1679 152.041 48.232 157.236 51.8963 160.119C56.4767 163.723 69.4551 157.396 68.1163 150.641C67.5882 147.977 66.9072 144.635 60.8989 141.663C60.8608 141.637 60.8366 141.624 60.8339 141.631C59.5728 144.715 56.0126 151.049 48.5938 149.803Z" fill="url(#paint4_radial)"/>
<path d="M49.9788 139.237C48.6635 141.083 46.5642 145.822 48.6896 150.005C51.3464 155.235 65.7408 155.059 67.3317 148.361C67.9592 145.719 68.7293 142.397 64.5157 137.128C64.4919 137.088 64.4754 137.066 64.4701 137.071C62.0461 139.327 56.188 143.545 49.9788 139.237Z" fill="url(#paint5_radial)"/>
<path d="M53.9367 129.663C52.0476 130.893 48.3873 134.523 48.8585 139.206C49.4476 145.061 62.9075 150.247 66.8005 144.604C68.3361 142.378 70.2492 139.573 68.2253 133.103C68.2175 133.057 68.2101 133.031 68.2033 133.033C65.1349 134.232 58.1639 135.981 53.9367 129.663Z" fill="url(#paint6_radial)"/>
<path d="M60.7171 121.116C58.5713 121.782 54.0819 124.273 53.2904 128.911C52.3011 134.71 63.8821 143.396 69.1307 139.031C71.2009 137.309 73.7888 135.133 73.5602 128.348C73.5649 128.302 73.5648 128.274 73.5576 128.275C70.2844 128.587 63.1077 128.358 60.7171 121.116Z" fill="url(#paint7_radial)"/>
<ellipse cx="71.8615" cy="119.256" rx="14.3165" ry="14.5428" fill="#005D4D"/>
<path d="M75.2053 108.698C75.6814 110.321 73.0803 109.342 69.9802 110.28C66.8801 111.218 64.455 113.719 63.979 112.096C63.5029 110.474 65.4319 108.492 68.532 107.554C71.632 106.616 74.7293 107.076 75.2053 108.698Z" fill="#75AFA6"/>
<path d="M61.9959 142.884C63.3437 126.797 78.8435 114.789 86.4249 110.796C90.2575 108.777 101.586 118.744 117.593 114.647C132.655 110.791 134.441 133.9 133.177 142.884C131.913 159.856 127.028 197.82 117.593 213.907C108.158 229.994 97.9375 220.61 94.0064 213.907C82.7746 196.936 60.6481 158.971 61.9959 142.884Z" fill="#EEEEEE"/>
<ellipse rx="2.27877" ry="2.3106" transform="matrix(0.969832 0.243773 -0.236675 0.971589 94.6295 129.718)" fill="#5697F9"/>
<ellipse rx="2.27877" ry="2.3106" transform="matrix(0.969832 0.243773 -0.236675 0.971589 99.3116 130.894)" fill="#C751FF"/>
<ellipse rx="2.27877" ry="2.3106" transform="matrix(0.969832 0.243773 -0.236675 0.971589 103.994 132.071)" fill="#6CBB3C"/>
<ellipse rx="2.27877" ry="2.3106" transform="matrix(0.969832 0.243773 -0.236675 0.971589 108.675 133.248)" fill="#FFD600"/>
<path d="M109.285 156.034C117.551 141.138 121.082 130.709 114.644 119.544C110.051 111.58 131.053 115.613 132.756 130.709C133.53 194.238 114.72 225.399 105.948 222.673C99.6527 217.222 104.721 164.26 109.285 156.034Z" fill="url(#paint8_linear)"/>
<path d="M151.766 181.754C145.021 183.706 141.54 178.375 140.643 175.466C139.071 178.066 135.578 185.046 141.68 187.993C147.026 190.576 150.321 185.41 151.766 181.754Z" fill="#005D4D"/>
<path d="M152.141 135.921C151.482 133.537 148.927 128.523 143.985 127.537C137.808 126.304 128.238 138.872 132.778 144.77C134.569 147.097 136.834 150.005 144.095 149.918C144.144 149.924 144.174 149.925 144.173 149.917C143.919 146.297 144.338 138.383 152.141 135.921Z" fill="url(#paint9_radial)"/>
<path d="M156.915 141.051C156.422 138.625 154.219 133.441 149.357 132.106C143.28 130.437 132.867 142.294 136.99 148.501C138.616 150.949 140.675 154.011 147.924 154.441C147.973 154.45 148.002 154.453 148.002 154.445C147.998 150.816 148.962 142.952 156.915 141.051Z" fill="url(#paint10_radial)"/>
<path d="M160.741 146.539C160.281 144.107 158.151 138.892 153.308 137.487C147.255 135.731 136.678 147.438 140.715 153.703C142.307 156.174 144.323 159.266 151.565 159.799C151.614 159.809 151.643 159.812 151.644 159.804C151.689 156.176 152.762 148.326 160.741 146.539Z" fill="url(#paint11_radial)"/>
<path d="M163.91 156.559C164.36 154.125 164.26 148.48 160.261 145.37C155.263 141.482 141.198 148.436 142.692 155.767C143.282 158.659 144.041 162.286 150.587 165.479C150.629 165.507 150.655 165.521 150.658 165.514C152.01 162.155 155.842 155.251 163.91 156.559Z" fill="url(#paint12_radial)"/>
<path d="M162.467 168.049C163.886 166.035 166.139 160.873 163.805 156.34C160.887 150.674 145.247 150.952 143.558 158.24C142.892 161.115 142.074 164.729 146.684 170.429C146.71 170.472 146.728 170.495 146.734 170.49C149.354 168.024 155.695 163.405 162.467 168.049Z" fill="url(#paint13_radial)"/>
<path d="M158.223 178.475C160.269 177.128 164.225 173.162 163.685 168.075C163.011 161.717 148.355 156.164 144.158 162.319C142.502 164.747 140.44 167.807 142.677 174.824C142.686 174.874 142.694 174.903 142.701 174.9C146.029 173.579 153.593 171.637 158.223 178.475Z" fill="url(#paint14_radial)"/>
<path d="M150.906 187.804C153.234 187.068 158.097 184.334 158.93 179.289C159.971 172.982 147.336 163.614 141.658 168.389C139.419 170.273 136.62 172.653 136.908 180.024C136.903 180.074 136.904 180.104 136.911 180.103C140.466 179.744 148.266 179.949 150.906 187.804Z" fill="url(#paint15_radial)"/>
<ellipse cx="131.176" cy="131.72" rx="16.4467" ry="16.7067" fill="#005D4D"/>
<path d="M125.946 144.397C125.333 142.554 129.327 142.265 136.448 139.694C142.296 137.583 144.315 132.678 144.927 134.521C145.54 136.364 142.91 143.43 136.448 145.646C132.927 146.853 126.558 146.24 125.946 144.397Z" fill="#00372D" fill-opacity="0.390925"/>
<ellipse rx="3.07299" ry="1.34508" transform="matrix(0.942998 0.332799 -0.323616 0.946188 143.72 4.49913)" fill="#75AFA6"/>
<path fill-rule="evenodd" clip-rule="evenodd" d="M86.6609 25.9976C87.1646 22.8408 90.7303 14.9462 101.617 6.04905C115.706 -5.46526 168.882 2.82505 170.7 30.4594C172.155 52.5669 163.125 72.525 158.429 79.7407C158.811 73.7615 157.381 65.5304 152.583 57.3108L145.152 62.8604C143.316 64.2319 140.777 64.1646 138.966 62.7602C103.081 34.9364 70.6774 33.7984 54.6951 37.9314C52.8933 38.3974 51.6952 36.7984 53.1521 35.6403C58.1803 31.6433 68.4862 26.933 86.6609 25.9976Z" fill="#004B3F"/>
<path d="M120.659 31.7289C112.115 26.9782 92.3801 24.7013 87.0889 24.5191C96.4643 3.54316 112.162 -5.41041 143.39 4.48108C154.877 13.5099 122.543 22.8923 120.659 31.7289Z" fill="url(#paint16_linear)"/>
<path d="M138.847 42.0897C116.271 27.3718 95.0044 25.7335 86.6655 25.9886C86.7116 25.5641 86.9979 24.5981 86.9979 24.5981C110.248 24.5981 131.546 35.8146 138.847 42.0897Z" fill="#00372D"/>
<path d="M158.662 79.416C159.031 74.7237 155.705 62.242 152.703 57.2212L170.337 35.513C172.167 43.1972 167.254 65.0105 158.662 79.416Z" fill="url(#paint17_linear)"/>
<path d="M139.942 63.2185C111.089 36.2616 75.5291 30.2706 52.3877 36.4172C59.9934 29.1952 76.888 26.1123 86.6556 25.921C107.136 25.5197 125.144 34.6659 133.824 39.7046L139.942 63.2185Z" fill="url(#paint18_linear)"/>
<path d="M145.38 4.97827C149.578 6.17678 172.674 16.4709 152.696 57.1326C161.734 38.7377 165.277 12.3443 145.38 4.97827Z" fill="#00372D"/>
<path d="M120.801 14.7255L119.708 17.8747L121.869 18.7666L121.786 19.027L119.094 17.8955L120.22 14.488L120.801 14.7255Z" fill="#3D796F"/>
<path d="M118.143 21.8646L117.465 24.0322L119.657 24.9506L119.557 25.2147L116.852 24.053L117.561 21.6271L118.143 21.8646Z" fill="#3D796F"/>
<path fill-rule="evenodd" clip-rule="evenodd" d="M119.311 11.3462L126.026 13.9915L126.31 15.7281L122.17 28.0221L120.767 29.3561L114.064 26.3659L113.791 24.2843L114.933 20.5236L117.617 21.6507L116.859 24.0428L119.543 25.1699L120.674 21.7543L116.314 19.8796L115.669 18.8215L117.58 12.3238L119.311 11.3462ZM120.229 14.4846L119.097 17.9005L121.78 19.027L122.912 15.6112L120.229 14.4846Z" fill="#75AFA6"/>
<path d="M121.682 27.5253L125.689 15.7681L125.312 13.7162L126.022 13.9939L126.314 15.7469L122.158 28.0202L120.763 29.3485L120 29.0254L121.682 27.5253Z" fill="#3D796F"/>
<path d="M86.7373 114.583C81.827 116.225 76.1905 121.164 73.4443 126.153C71.9055 128.948 73.4266 133.009 76.0562 131.205C77.7545 130.04 79.8647 127.554 82.328 123.132C83.938 120.242 86.061 117.592 87.5109 115.909C88.3447 114.941 87.9492 114.178 86.7373 114.583Z" fill="#F8F8F8"/>
<ellipse cx="71.8166" cy="134.265" rx="1.75557" ry="1.78332" fill="#F8F8F8"/>
<path d="M125.053 182.577L140.588 183.884L148.102 187.49L148.975 202.485L128.903 205.15L125.053 182.577Z" fill="#005D4D"/>
<path d="M82.0477 54.705L80.0143 53.6669L81.0032 51.5074L83.2071 52.6057L83.9703 51.0095L86.3122 52.2109L87.0731 50.6371L90.2154 52.2503L89.5118 53.8883L92.2695 55.2878L91.62 56.7981L93.42 57.6952L92.4942 59.83L90.5156 58.8578L82.0477 54.705Z" fill="#6CBB3C"/>
<path d="M107.912 66.2324L105.355 65.3458L106.163 62.6482L108.93 63.5776L109.565 61.5784L112.512 62.6063L113.148 60.6339L117.102 62.0145L116.543 64.053L120.011 65.2454L119.495 67.1253L121.755 67.8843L121.017 70.5426L118.535 69.7244L107.912 66.2324Z" fill="#6CBB3C"/>
<defs>
<linearGradient id="paint0_linear" x1="154.451" y1="88.1294" x2="98.7103" y2="92.4925" gradientUnits="userSpaceOnUse">
<stop offset="0.333333" stop-color="#ABABAB"/>
<stop offset="0.833333" stop-color="#B9B7B7" stop-opacity="0"/>
</linearGradient>
<radialGradient id="paint1_radial" cx="0" cy="0" r="1" gradientUnits="userSpaceOnUse" gradientTransform="translate(66.1477 164.636) rotate(35.2195) scale(8.77425 12.6962)">
<stop stop-color="#005D4D"/>
<stop offset="0.776042" stop-color="#3D796F"/>
</radialGradient>
<radialGradient id="paint2_radial" cx="0" cy="0" r="1" gradientUnits="userSpaceOnUse" gradientTransform="translate(62.0538 160.387) rotate(39.2513) scale(8.78354 12.6827)">
<stop stop-color="#005D4D"/>
<stop offset="0.776042" stop-color="#3D796F"/>
</radialGradient>
<radialGradient id="paint3_radial" cx="0" cy="0" r="1" gradientUnits="userSpaceOnUse" gradientTransform="translate(58.6119 155.419) rotate(40.0608) scale(8.78545 12.68)">
<stop stop-color="#005D4D"/>
<stop offset="0.776042" stop-color="#3D796F"/>
</radialGradient>
<radialGradient id="paint4_radial" cx="0" cy="0" r="1" gradientUnits="userSpaceOnUse" gradientTransform="translate(56.5547 149.096) rotate(61.5025) scale(8.83506 12.6088)">
<stop stop-color="#005D4D"/>
<stop offset="0.776042" stop-color="#3D796F"/>
</radialGradient>
<radialGradient id="paint5_radial" cx="0" cy="0" r="1" gradientUnits="userSpaceOnUse" gradientTransform="translate(57.4903 142.007) rotate(86.1324) scale(8.8664 12.5642)">
<stop stop-color="#005D4D"/>
<stop offset="0.776042" stop-color="#3D796F"/>
</radialGradient>
<radialGradient id="paint6_radial" cx="0" cy="0" r="1" gradientUnits="userSpaceOnUse" gradientTransform="translate(59.9299 135.033) rotate(107.275) scale(8.85461 12.581)">
<stop stop-color="#005D4D"/>
<stop offset="0.776042" stop-color="#3D796F"/>
</radialGradient>
<radialGradient id="paint7_radial" cx="0" cy="0" r="1" gradientUnits="userSpaceOnUse" gradientTransform="translate(65.06 127.93) rotate(122.789) scale(8.82591 12.6219)">
<stop stop-color="#005D4D"/>
<stop offset="0.776042" stop-color="#3D796F"/>
</radialGradient>
<linearGradient id="paint8_linear" x1="140.59" y1="167.922" x2="101.514" y2="157.698" gradientUnits="userSpaceOnUse">
<stop offset="0.102342" stop-color="#C8C8C8"/>
<stop offset="1" stop-color="#C4C4C4" stop-opacity="0"/>
</linearGradient>
<radialGradient id="paint9_radial" cx="0" cy="0" r="1" gradientUnits="userSpaceOnUse" gradientTransform="translate(144.748 140.548) rotate(-145.098) scale(9.53343 13.7969)">
<stop stop-color="#005D4D"/>
<stop offset="0.776042" stop-color="#3D796F"/>
</radialGradient>
<radialGradient id="paint10_radial" cx="0" cy="0" r="1" gradientUnits="userSpaceOnUse" gradientTransform="translate(149.222 145.14) rotate(-141.065) scale(9.54349 13.7824)">
<stop stop-color="#005D4D"/>
<stop offset="0.776042" stop-color="#3D796F"/>
</radialGradient>
<radialGradient id="paint11_radial" cx="0" cy="0" r="1" gradientUnits="userSpaceOnUse" gradientTransform="translate(152.992 150.518) rotate(-140.255) scale(9.54556 13.7794)">
<stop stop-color="#005D4D"/>
<stop offset="0.776042" stop-color="#3D796F"/>
</radialGradient>
<radialGradient id="paint12_radial" cx="0" cy="0" r="1" gradientUnits="userSpaceOnUse" gradientTransform="translate(155.264 157.376) rotate(-118.81) scale(9.59958 13.7018)">
<stop stop-color="#005D4D"/>
<stop offset="0.776042" stop-color="#3D796F"/>
</radialGradient>
<radialGradient id="paint13_radial" cx="0" cy="0" r="1" gradientUnits="userSpaceOnUse" gradientTransform="translate(154.289 165.085) rotate(-94.178) scale(9.63421 13.6526)">
<stop stop-color="#005D4D"/>
<stop offset="0.776042" stop-color="#3D796F"/>
</radialGradient>
<radialGradient id="paint14_radial" cx="0" cy="0" r="1" gradientUnits="userSpaceOnUse" gradientTransform="translate(151.68 172.677) rotate(-73.0364) scale(9.62199 13.6699)">
<stop stop-color="#005D4D"/>
<stop offset="0.776042" stop-color="#3D796F"/>
</radialGradient>
<radialGradient id="paint15_radial" cx="0" cy="0" r="1" gradientUnits="userSpaceOnUse" gradientTransform="translate(146.147 180.426) rotate(-57.5239) scale(9.59108 13.714)">
<stop stop-color="#005D4D"/>
<stop offset="0.776042" stop-color="#3D796F"/>
</radialGradient>
<linearGradient id="paint16_linear" x1="122.133" y1="0.4541" x2="126.117" y2="16.8056" gradientUnits="userSpaceOnUse">
<stop offset="0.0773366" stop-color="#3D796F"/>
<stop offset="0.964698" stop-color="#006857" stop-opacity="0"/>
</linearGradient>
<linearGradient id="paint17_linear" x1="157.505" y1="50.0997" x2="164.844" y2="58.2638" gradientUnits="userSpaceOnUse">
<stop stop-color="#00372D" stop-opacity="0"/>
<stop offset="0.308563" stop-color="#00372D" stop-opacity="0.390925"/>
<stop offset="0.478055" stop-color="#00372D" stop-opacity="0.597563"/>
<stop offset="0.808558" stop-color="#00372D"/>
<stop offset="1" stop-color="#00372D"/>
</linearGradient>
<linearGradient id="paint18_linear" x1="89.8723" y1="25.9082" x2="133.179" y2="47.9826" gradientUnits="userSpaceOnUse">
<stop stop-color="#3D796F"/>
<stop offset="1" stop-color="#3D796F" stop-opacity="0"/>
</linearGradient>
</defs>
</svg>
