<svg width="198" height="348" viewBox="0 0 198 348" fill="none" xmlns="http://www.w3.org/2000/svg">
<path d="M0.808594 320.615L98.974 347.454V187.466L0.808594 160.626V320.615Z" fill="#2D50D7"/>
<path d="M197.14 320.615L98.9742 347.454V187.466L197.14 160.626V320.615Z" fill="#223EA8"/>
<path d="M98.8379 138.999L197.14 160.626L98.8379 187.522L0.536133 160.626L98.8379 138.999Z" fill="#647FE7"/>
<path d="M164.678 52.5324L173.148 49.3085L174.451 58.4058L165.98 61.6297L164.678 52.5324Z" fill="#222222"/>
<path d="M173.126 49.1566L164.091 48.4384L165.393 57.5357L174.428 58.254L173.126 49.1566Z" fill="#222222"/>
<path d="M164.678 52.5324L173.148 49.3085L174.451 58.4058L165.98 61.6297L164.678 52.5324Z" fill="#9F5B34"/>
<path d="M155.623 51.663L164.094 48.4391L165.396 57.5364L156.925 60.7603L155.623 51.663Z" fill="#222222"/>
<path d="M164.678 52.5324L155.643 51.8141L156.945 60.9115L165.98 61.6297L164.678 52.5324Z" fill="#864C2C"/>
<path d="M155.666 51.8215L164.093 48.4383L173.139 49.2323L164.679 52.5321L155.666 51.8215Z" fill="#BF754C"/>
<path d="M156.14 54.0768L167.718 49.6705L169.498 62.1044L157.92 66.5107L156.14 54.0768Z" fill="#222222"/>
<path d="M167.688 49.4633L155.34 48.4816L157.119 60.9155L169.468 61.8972L167.688 49.4633Z" fill="#222222"/>
<path d="M156.14 54.0768L167.718 49.6705L169.498 62.1044L157.92 66.5107L156.14 54.0768Z" fill="#9F5B34"/>
<path d="M143.763 52.8886L155.34 48.4823L157.12 60.9162L145.542 65.3225L143.763 52.8886Z" fill="#222222"/>
<path d="M156.14 54.0768L143.792 53.0951L145.571 65.529L157.92 66.5107L156.14 54.0768Z" fill="#864C2C"/>
<path d="M143.822 53.1056L155.34 48.4815L167.704 49.5668L156.141 54.0768L143.822 53.1056Z" fill="#BF754C"/>
<path d="M143.743 57.1767L160.166 50.9541L162.711 67.929L146.287 74.1515L143.743 57.1767Z" fill="#222222"/>
<path d="M160.125 50.6713L142.598 49.5381L145.143 66.5129L162.669 67.6462L160.125 50.6713Z" fill="#864C2C"/>
<path d="M143.743 57.1767L160.166 50.9541L162.711 67.929L146.287 74.1515L143.743 57.1767Z" fill="#9F5B34"/>
<path d="M143.743 57.1767L126.217 56.0434L128.761 73.0183L146.287 74.1515L143.743 57.1767Z" fill="#864C2C"/>
<path d="M126.222 56.0343L142.597 49.5384L160.144 50.8131L143.742 57.1771L126.222 56.0343Z" fill="#BF754C"/>
<path d="M54.9815 146.923L74.267 142.31L74.6819 161.686L55.3965 166.298L54.9815 146.923Z" fill="#BDAA79"/>
<path d="M74.2598 141.987L54.7945 138.204L55.2095 157.579L74.6748 161.362L74.2598 141.987Z" fill="#A9996F"/>
<path d="M54.9815 146.923L74.267 142.31L74.6819 161.686L55.3965 166.298L54.9815 146.923Z" fill="#9F5B34"/>
<path d="M35.5089 142.818L54.7943 138.205L55.2093 157.581L35.9238 162.194L35.5089 142.818Z" fill="#BDAA79"/>
<path d="M54.9821 146.923L35.5192 142.794L35.9317 162.516L55.397 166.299L54.9821 146.923Z" fill="#864C2C"/>
<path d="M35.5089 142.818L54.7943 138.205L74.2631 142.15L54.9811 146.924L35.5089 142.818Z" fill="#693D24"/>
<path d="M54.7189 130.77L66.4739 127.959L66.7268 139.769L54.9718 142.58L54.7189 130.77Z" fill="#864C2C"/>
<path d="M66.4698 127.762L54.6052 125.456L54.8582 137.266L66.7228 139.572L66.4698 127.762Z" fill="#A9996F"/>
<path d="M54.7189 130.77L66.4739 127.959L66.7268 139.769L54.9718 142.58L54.7189 130.77Z" fill="#9F5B34"/>
<path d="M42.8497 128.268L54.6047 125.456L54.8577 137.266L43.1026 140.078L42.8497 128.268Z" fill="#864C2C"/>
<path d="M54.7189 130.77L42.8543 128.465L43.1072 140.274L54.9718 142.58L54.7189 130.77Z" fill="#864C2C"/>
<path d="M42.8497 128.268L54.6047 125.456L66.4714 127.861L54.7185 130.771L42.8497 128.268Z" fill="#664F34"/>
<path d="M93.1807 155.966L112.466 151.353L112.881 170.729L93.5957 175.341L93.1807 155.966Z" fill="#BDAA79"/>
<path d="M112.46 151.03L92.9947 147.247L93.4097 166.622L112.875 170.405L112.46 151.03Z" fill="#A9996F"/>
<path d="M93.1807 155.966L112.466 151.353L112.881 170.729L93.5957 175.341L93.1807 155.966Z" fill="#9F5B34"/>
<path d="M73.7081 151.86L92.9936 147.247L93.4085 166.622L74.123 171.235L73.7081 151.86Z" fill="#BDAA79"/>
<path d="M93.1813 155.966L73.7184 151.837L74.131 171.558L93.5963 175.341L93.1813 155.966Z" fill="#864C2C"/>
<path d="M73.7081 151.86L92.9936 147.247L112.462 151.191L93.1803 155.966L73.7081 151.86Z" fill="#693D24"/>
<path d="M93.3166 138.448L106.769 135.23L107.059 148.745L93.6061 151.963L93.3166 138.448Z" fill="#BDAA79"/>
<path d="M106.764 135.004L93.186 132.366L93.4755 145.881L107.053 148.52L106.764 135.004Z" fill="#A9996F"/>
<path d="M93.3166 138.448L106.769 135.23L107.059 148.745L93.6061 151.963L93.3166 138.448Z" fill="#9F5B34"/>
<path d="M79.7336 135.583L93.1861 132.365L93.4755 145.881L80.0231 149.098L79.7336 135.583Z" fill="#BDAA79"/>
<path d="M93.3166 138.448L79.7387 135.809L80.0282 149.324L93.6061 151.963L93.3166 138.448Z" fill="#864C2C"/>
<path d="M79.7336 135.583L93.1861 132.365L106.766 135.117L93.3163 138.447L79.7336 135.583Z" fill="#664F34"/>
<path d="M97.8643 75.7607L162.609 61.7327V126.477L97.8643 140.506V75.7607Z" fill="#BDAA79"/>
<path d="M97.8643 75.7607L162.609 61.7327V126.477L97.8643 140.506V75.7607Z" fill="#9F5B34"/>
<path d="M97.8643 75.7607L33.1194 61.7327V126.477L97.8643 140.506V75.7607Z" fill="#864C2C"/>
<path d="M32.7139 61.6654L97.8633 46.6257L162.878 61.598L97.8633 75.7609L32.7139 61.6654Z" fill="#BF754C"/>
<path d="M36.498 158.949L51.3819 155.725V170.608L36.498 173.833V158.949Z" fill="black"/>
<path d="M36.498 158.949L51.3819 155.725V170.608L36.498 173.833V158.949Z" fill="#D0EB29"/>
<path d="M36.498 158.949L21.6142 155.725V170.608L36.498 173.833V158.949Z" fill="#B9D125"/>
<path d="M21.3066 155.679L36.4982 152.252L51.4513 155.679L36.4982 158.949L21.3066 155.679Z" fill="#D3E660"/>
<path d="M150.107 143.367L169.393 138.754L169.808 158.129L150.522 162.742L150.107 143.367Z" fill="#BDAA79"/>
<path d="M169.386 138.431L149.921 134.648L150.335 154.023L169.801 157.807L169.386 138.431Z" fill="#A9996F"/>
<path d="M150.107 143.367L169.393 138.754L169.808 158.129L150.522 162.742L150.107 143.367Z" fill="#9F5B34"/>
<path d="M130.635 139.261L149.92 134.648L150.335 154.023L131.05 158.636L130.635 139.261Z" fill="#BDAA79"/>
<path d="M150.107 143.367L130.644 139.238L131.057 158.959L150.522 162.743L150.107 143.367Z" fill="#864C2C"/>
<path d="M130.635 139.261L149.92 134.648L169.389 138.593L150.107 143.367L130.635 139.261Z" fill="#693D24"/>
<path d="M150.244 125.848L163.697 122.63L163.986 136.145L150.534 139.363L150.244 125.848Z" fill="#BDAA79"/>
<path d="M150.244 125.848L163.888 122.495L163.986 136.146L150.534 139.364L150.244 125.848Z" fill="#9F5B34"/>
<path d="M150.244 125.848L136.666 123.209L136.956 136.724L150.534 139.363L150.244 125.848Z" fill="#864C2C"/>
<path d="M136.556 123.207L149.796 119.702L163.887 122.499L150.197 125.871L136.556 123.207Z" fill="#BF754C"/>
<path d="M46.5137 101.212L81.4908 93.6338V118.789L46.5137 126.367V101.212Z" fill="#9F5B34"/>
<path d="M46.5137 101.212L11.5366 93.6338V118.764L46.5137 126.343V101.212Z" fill="#864C2C"/>
<path d="M11.5361 93.0508L46.5132 85.4724L81.6764 93.5655L46.5132 101.212L11.5361 93.0508Z" fill="#BF754C"/>
<path d="M28.5791 92.1702L43.463 88.9453V103.829L28.5791 107.054V92.1702Z" fill="black"/>
<path d="M43.4619 88.6972L28.5781 85.4724V100.356L43.4619 103.581V88.6972Z" fill="#3A3A3A"/>
<path d="M28.5791 92.1702L43.463 88.9453V103.829L28.5791 107.054V92.1702Z" fill="#9F4E34"/>
<path d="M13.6943 88.6975L28.5782 85.4727V100.357L13.6943 103.581V88.6975Z" fill="black"/>
<path d="M28.5791 92.1702L13.6952 88.9453V103.829L28.5791 107.054V92.1702Z" fill="#7C3F2C"/>
<path d="M13.6943 88.6975L28.5782 85.4727L43.4621 88.8215L28.5782 92.1704L13.6943 88.6975Z" fill="#C17055"/>
<path d="M55.2199 78.6427C55.2199 81.1585 53.1765 80.3174 49.6376 79.3871C47.588 78.8482 45.6836 79.9571 45.6836 77.4413C45.6836 74.9254 47.7231 72.886 50.2389 72.886C52.7547 72.886 55.2199 76.1269 55.2199 78.6427Z" fill="#341D10"/>
<path d="M76.784 83.0915C76.784 85.9297 74.4787 84.9808 70.4861 83.9312C68.1739 83.3233 66.0254 84.5743 66.0254 81.736C66.0254 78.8978 68.3262 76.5969 71.1645 76.5969C74.0027 76.5969 76.784 80.2533 76.784 83.0915Z" fill="#341D10"/>
<path d="M75.4893 61.6301L96.3593 60.2764V73.1932L75.4893 67.7219V61.6301Z" fill="#693D24"/>
<path d="M84.6777 54.1468L106.337 49.4539V71.1135L96.3027 73.1934V63.6701H84.6777V54.1468Z" fill="#9F5B34"/>
<path d="M84.7402 54.1562L63.0241 49.1079V58.6968L84.7402 63.7751V54.1562Z" fill="#BF754C"/>
<path d="M63.0186 49.0926L84.6782 44.3997L106.4 49.4464L84.6782 54.1465L63.0186 49.0926Z" fill="#BF754C"/>
<path d="M40.9902 55.7627L58.7891 54.6082V65.6242L40.9902 60.958V55.7627Z" fill="#693D24"/>
<path d="M48.8271 49.3805L67.2995 45.3782V63.8505L58.7414 65.6243V57.5024H48.8271V49.3805Z" fill="#9F5B34"/>
<path d="M48.8799 49.3892L30.3594 45.0837V53.2616L48.8799 57.5926V49.3892Z" fill="#BF754C"/>
<path d="M30.3555 45.0705L48.8278 41.0681L67.3529 45.3722L48.8278 49.3807L30.3555 45.0705Z" fill="#BF754C"/>
</svg>
