<svg width="185" height="326" viewBox="0 0 185 326" fill="none" xmlns="http://www.w3.org/2000/svg">
<path d="M0.607422 300.607L92.5157 325.736V175.945L0.607422 150.816V300.607Z" fill="#CCD1E2"/>
<path d="M184.424 300.607L92.5155 325.736V175.945L184.424 150.816V300.607Z" fill="#AAAFC1"/>
<path d="M92.388 130.568L184.424 150.817L92.388 175.998L0.352051 150.817L92.388 130.568Z" fill="#DADFEF"/>
<path d="M166.083 83.4075L173.285 88.1567L166.983 94.2237L159.78 89.4745L166.083 83.4075Z" fill="#222222"/>
<path d="M173.389 88.0555L168.918 80.6773L162.615 86.7442L167.087 94.1224L173.389 88.0555Z" fill="#222222"/>
<path d="M166.083 83.4075L173.285 88.1567L166.983 94.2237L159.78 89.4745L166.083 83.4075Z" fill="#864C2C"/>
<path d="M161.716 75.9307L168.918 80.6799L162.616 86.7469L155.413 81.9977L161.716 75.9307Z" fill="#222222"/>
<path d="M166.083 83.4075L161.611 76.0293L155.309 82.0963L159.78 89.4745L166.083 83.4075Z" fill="#864C2C"/>
<path d="M161.616 76.0506L168.918 80.6778L173.337 88.1066L166.082 83.4079L161.616 76.0506Z" fill="#BF754C"/>
<path d="M160.141 77.6723L169.985 84.1634L161.371 92.4554L151.527 85.9644L160.141 77.6723Z" fill="#222222"/>
<path d="M170.128 84.0254L164.016 73.9411L155.402 82.2332L161.514 92.3174L170.128 84.0254Z" fill="#222222"/>
<path d="M160.141 77.6723L169.985 84.1634L161.371 92.4554L151.527 85.9644L160.141 77.6723Z" fill="#864C2C"/>
<path d="M154.172 67.4514L164.016 73.9424L155.402 82.2345L145.558 75.7435L154.172 67.4514Z" fill="#222222"/>
<path d="M160.141 77.6723L154.029 67.5881L145.415 75.8802L151.527 85.9644L160.141 77.6723Z" fill="#864C2C"/>
<path d="M154.037 67.6178L164.017 73.9421L170.057 84.0954L160.14 77.6735L154.037 67.6178Z" fill="#BF754C"/>
<path d="M150.848 69.8209L164.791 79.0445L153.095 90.4538L139.152 81.2301L150.848 69.8209Z" fill="#222222"/>
<path d="M164.985 78.8543L156.11 64.6867L144.415 76.0959L153.29 90.2636L164.985 78.8543Z" fill="#864C2C"/>
<path d="M150.848 69.8209L164.791 79.0445L153.095 90.4538L139.152 81.2301L150.848 69.8209Z" fill="#864C2C"/>
<path d="M150.848 69.8209L141.973 55.6532L130.277 67.0624L139.152 81.2301L150.848 69.8209Z" fill="#864C2C"/>
<path d="M141.983 55.6542L156.11 64.6876L164.887 78.9503L150.847 69.8217L141.983 55.6542Z" fill="#BF754C"/>
<path d="M49.985 137.676L68.3428 133.285L68.7378 151.729L50.38 156.12L49.985 137.676Z" fill="#BDAA79"/>
<path d="M68.3366 132.978L49.8076 129.377L50.2026 147.82L68.7316 151.421L68.3366 132.978Z" fill="#A9996F"/>
<path d="M49.985 137.676L68.3428 133.285L68.7378 151.729L50.38 156.12L49.985 137.676Z" fill="#9F5B34"/>
<path d="M31.4503 133.768L49.8081 129.377L50.2031 147.82L31.8453 152.211L31.4503 133.768Z" fill="#BDAA79"/>
<path d="M49.9857 137.676L31.459 133.746L31.8517 152.519L50.3807 156.12L49.9857 137.676Z" fill="#864C2C"/>
<path d="M31.4503 133.768L49.8081 129.377L68.3404 133.132L49.9859 137.676L31.4503 133.768Z" fill="#693D24"/>
<path d="M49.7372 122.301L60.9268 119.624L61.1676 130.866L49.978 133.542L49.7372 122.301Z" fill="#864C2C"/>
<path d="M60.9233 119.437L49.6294 117.242L49.8701 128.484L61.164 130.679L60.9233 119.437Z" fill="#A9996F"/>
<path d="M49.7372 122.301L60.9268 119.624L61.1676 130.866L49.978 133.542L49.7372 122.301Z" fill="#9F5B34"/>
<path d="M38.4413 119.918L49.6309 117.242L49.8717 128.484L38.6821 131.16L38.4413 119.918Z" fill="#864C2C"/>
<path d="M49.7372 122.301L38.4433 120.106L38.6841 131.347L49.978 133.542L49.7372 122.301Z" fill="#864C2C"/>
<path d="M38.4413 119.918L49.6309 117.242L60.9268 119.531L49.7392 122.301L38.4413 119.918Z" fill="#664F34"/>
<path d="M86.3468 146.284L104.705 141.893L105.1 160.337L86.7418 164.728L86.3468 146.284Z" fill="#BDAA79"/>
<path d="M104.699 141.586L86.1704 137.985L86.5654 156.428L105.094 160.029L104.699 141.586Z" fill="#A9996F"/>
<path d="M86.3468 146.284L104.705 141.893L105.1 160.337L86.7418 164.728L86.3468 146.284Z" fill="#9F5B34"/>
<path d="M67.8126 142.376L86.1704 137.985L86.5654 156.428L68.2076 160.819L67.8126 142.376Z" fill="#BDAA79"/>
<path d="M86.3475 146.284L67.8208 142.354L68.2135 161.127L86.7425 164.728L86.3475 146.284Z" fill="#864C2C"/>
<path d="M67.8126 142.376L86.1704 137.985L104.703 141.74L86.3482 146.284L67.8126 142.376Z" fill="#693D24"/>
<path d="M86.4777 129.608L99.283 126.546L99.5586 139.411L86.7532 142.474L86.4777 129.608Z" fill="#BDAA79"/>
<path d="M99.278 126.331L86.3532 123.819L86.6287 136.685L99.5535 139.196L99.278 126.331Z" fill="#A9996F"/>
<path d="M86.4777 129.608L99.283 126.546L99.5586 139.411L86.7532 142.474L86.4777 129.608Z" fill="#9F5B34"/>
<path d="M73.549 126.882L86.3543 123.819L86.6298 136.684L73.8245 139.747L73.549 126.882Z" fill="#BDAA79"/>
<path d="M86.4777 129.608L73.5529 127.097L73.8284 139.962L86.7532 142.474L86.4777 129.608Z" fill="#864C2C"/>
<path d="M73.549 126.882L86.3543 123.819L99.2814 126.438L86.4783 129.608L73.549 126.882Z" fill="#664F34"/>
<path d="M90.8037 69.937L152.434 56.5837V118.214L90.8037 131.567V69.937Z" fill="#BDAA79"/>
<path d="M90.8037 69.937L152.434 56.5837V118.214L90.8037 131.567V69.937Z" fill="#9F5B34"/>
<path d="M90.8037 69.937L29.1732 56.5837V118.214L90.8037 131.567V69.937Z" fill="#864C2C"/>
<path d="M28.7891 56.5199L90.8047 42.2036L152.692 56.4557L90.8047 69.9373L28.7891 56.5199Z" fill="#BF754C"/>
<path d="M32.3921 114.814L46.56 111.744V125.912L32.3921 128.982V114.814Z" fill="black"/>
<path d="M46.5596 111.508L32.3916 108.438V122.606L46.5596 125.676V111.508Z" fill="#3A3A3A"/>
<path d="M32.3921 114.814L46.56 111.744V125.912L32.3921 128.982V114.814Z" fill="#D0EB29"/>
<path d="M18.2241 111.508L32.392 108.439V122.607L18.2241 125.676V111.508Z" fill="black"/>
<path d="M32.3921 114.814L18.2242 111.744V125.912L32.3921 128.982V114.814Z" fill="#B9D125"/>
<path d="M18.2241 111.508L32.392 108.439L46.56 111.627L32.392 114.814L18.2241 111.508Z" fill="#C17055"/>
<path d="M140.536 134.291L158.894 129.9L159.289 148.344L140.931 152.735L140.536 134.291Z" fill="#BDAA79"/>
<path d="M158.886 129.593L140.357 125.991L140.752 144.435L159.281 148.036L158.886 129.593Z" fill="#A9996F"/>
<path d="M140.536 134.291L158.894 129.9L159.289 148.344L140.931 152.735L140.536 134.291Z" fill="#9F5B34"/>
<path d="M122 130.383L140.357 125.991L140.752 144.435L122.395 148.826L122 130.383Z" fill="#BDAA79"/>
<path d="M140.535 134.291L122.008 130.361L122.401 149.133L140.93 152.735L140.535 134.291Z" fill="#864C2C"/>
<path d="M122 130.383L140.357 125.991L158.89 129.746L140.535 134.291L122 130.383Z" fill="#693D24"/>
<path d="M140.668 117.616L153.473 114.553L153.749 127.418L140.944 130.481L140.668 117.616Z" fill="#BDAA79"/>
<path d="M140.668 117.616L153.655 114.423L153.749 127.418L140.943 130.481L140.668 117.616Z" fill="#9F5B34"/>
<path d="M140.668 117.616L127.743 115.104L128.019 127.969L140.944 130.481L140.668 117.616Z" fill="#864C2C"/>
<path d="M127.639 115.101L140.242 111.765L153.655 114.427L140.623 117.637L127.639 115.101Z" fill="#BF754C"/>
<path d="M41.9253 94.1643L75.2199 86.9504V110.896L41.9253 118.11V94.1643Z" fill="#9F5B34"/>
<path d="M41.9253 94.1643L8.63068 86.9504V110.872L41.9253 118.086V94.1643Z" fill="#864C2C"/>
<path d="M8.63037 86.3957L41.925 79.1819L75.3967 86.8857L41.925 94.1645L8.63037 86.3957Z" fill="#BF754C"/>
<path d="M24.854 85.5573L39.0219 82.4875V96.6555L24.854 99.7252V85.5573Z" fill="black"/>
<path d="M39.0215 82.2514L24.8536 79.1816V93.3496L39.0215 96.4193V82.2514Z" fill="#3A3A3A"/>
<path d="M24.854 85.5573L39.0219 82.4875V96.6555L24.854 99.7252V85.5573Z" fill="#9F4E34"/>
<path d="M10.6855 82.2516L24.8535 79.1819V93.3498L10.6855 96.4195V82.2516Z" fill="black"/>
<path d="M24.854 85.5573L10.6861 82.4875V96.6555L24.854 99.7252V85.5573Z" fill="#7C3F2C"/>
<path d="M10.6855 82.2516L24.8535 79.1819L39.0214 82.3697L24.8535 85.5574L10.6855 82.2516Z" fill="#C17055"/>
<circle cx="65.5969" cy="75.8728" r="4.33615" fill="#341D10"/>
<circle cx="45.4724" cy="71.5366" r="4.33615" fill="#341D10"/>
<path d="M76.6975 54.9548L95.2156 62.2625L89.9714 73.3836L74.2242 60.1997L76.6975 54.9548Z" fill="#693D24"/>
<path d="M87.6469 52.2424L108.201 56.9957L99.4069 75.6441L89.9228 73.3607L93.7893 65.1614L83.7805 60.4417L87.6469 52.2424Z" fill="#9F5B34"/>
<path d="M87.6965 52.2756L71.0491 39.1125L67.156 47.3683L83.7912 60.5573L87.6965 52.2756Z" fill="#BF754C"/>
<path d="M71.0503 39.0971L91.604 43.8504L108.257 57.0143L87.6468 52.2422L71.0503 39.0971Z" fill="#9F5B34"/>
<path d="M31.0467 51.2118L47.1866 45.9424L49.7891 56.1005L32.274 56.0026L31.0467 51.2118Z" fill="#693D24"/>
<path d="M36.7644 43.4758L52.8525 35.4213L57.2164 52.4549L49.7439 56.1123L47.8252 48.623L38.6831 50.9651L36.7644 43.4758Z" fill="#9F5B34"/>
<path d="M36.8155 43.4706L18.7203 43.8758L20.6522 51.4167L38.7534 51.0351L36.8155 43.4706Z" fill="#BF754C"/>
<path d="M18.7146 43.8647L34.8027 35.8102L52.9018 35.4027L36.7665 43.4753L18.7146 43.8647Z" fill="#BF754C"/>
</svg>
