<svg width="521" height="919" viewBox="0 0 521 919" fill="none" xmlns="http://www.w3.org/2000/svg">
<path d="M435.497 133.841L458.259 125.178L461.757 149.623L438.996 158.286L435.497 133.841Z" fill="#222222"/>
<path d="M458.2 124.771L433.923 122.841L437.421 147.286L461.699 149.216L458.2 124.771Z" fill="#222222"/>
<path d="M435.497 133.841L458.259 125.178L461.757 149.623L438.996 158.286L435.497 133.841Z" fill="#9F5B34"/>
<path d="M411.162 131.504L433.923 122.841L437.422 147.286L414.661 155.948L411.162 131.504Z" fill="#222222"/>
<path d="M435.497 133.841L411.22 131.911L414.719 156.356L438.996 158.286L435.497 133.841Z" fill="#864C2C"/>
<path d="M411.278 131.931L433.924 122.84L458.23 124.974L435.498 133.84L411.278 131.931Z" fill="#BF754C"/>
<path d="M412.556 137.991L443.665 126.151L448.447 159.561L417.338 171.401L412.556 137.991Z" fill="#222222"/>
<path d="M443.584 125.594L410.403 122.956L415.185 156.366L448.367 159.004L443.584 125.594Z" fill="#222222"/>
<path d="M412.556 137.991L443.665 126.151L448.447 159.561L417.338 171.401L412.556 137.991Z" fill="#9F5B34"/>
<path d="M379.295 134.796L410.404 122.956L415.186 156.367L384.077 168.207L379.295 134.796Z" fill="#222222"/>
<path d="M412.556 137.991L379.374 135.353L384.156 168.763L417.338 171.401L412.556 137.991Z" fill="#864C2C"/>
<path d="M379.454 135.381L410.404 122.956L443.626 125.872L412.556 137.99L379.454 135.381Z" fill="#BF754C"/>
<path d="M379.242 146.321L423.373 129.601L430.21 175.213L386.08 191.933L379.242 146.321Z" fill="#222222"/>
<path d="M423.259 128.841L376.165 125.796L383.003 171.408L430.096 174.453L423.259 128.841Z" fill="#864C2C"/>
<path d="M379.242 146.321L423.373 129.601L430.21 175.213L386.08 191.933L379.242 146.321Z" fill="#9F5B34"/>
<path d="M379.242 146.321L332.149 143.276L338.986 188.888L386.08 191.933L379.242 146.321Z" fill="#864C2C"/>
<path d="M332.168 143.25L376.166 125.795L423.317 129.22L379.243 146.321L332.168 143.25Z" fill="#BF754C"/>
<path d="M1.34375 847.396L260.784 918.329V495.497L1.34375 424.564V847.396Z" fill="#585858"/>
<path d="M520.225 847.396L260.784 918.329V495.497L520.225 424.564V847.396Z" fill="#313131"/>
<path d="M260.424 367.404L520.225 424.564L260.424 495.646L0.623047 424.564L260.424 367.404Z" fill="#8A8A8A"/>
<path d="M140.732 387.473L192.553 375.078L193.668 427.14L141.847 439.535L140.732 387.473Z" fill="#BDAA79"/>
<path d="M192.535 374.21L140.231 364.045L141.346 416.107L193.65 426.272L192.535 374.21Z" fill="#A9996F"/>
<path d="M140.732 387.473L192.553 375.078L193.668 427.14L141.847 439.535L140.732 387.473Z" fill="#9F5B34"/>
<path d="M88.4096 376.439L140.23 364.044L141.345 416.107L89.5246 428.502L88.4096 376.439Z" fill="#BDAA79"/>
<path d="M140.732 387.473L88.4341 376.378L89.5427 429.37L141.847 439.535L140.732 387.473Z" fill="#864C2C"/>
<path d="M88.4096 376.439L140.23 364.044L192.544 374.643L140.732 387.472L88.4096 376.439Z" fill="#693D24"/>
<path d="M140.03 344.07L171.616 336.514L172.295 368.248L140.709 375.803L140.03 344.07Z" fill="#864C2C"/>
<path d="M171.605 335.986L139.724 329.79L140.404 361.523L172.284 367.719L171.605 335.986Z" fill="#A9996F"/>
<path d="M140.03 344.07L171.616 336.514L172.295 368.248L140.709 375.803L140.03 344.07Z" fill="#9F5B34"/>
<path d="M108.137 337.345L139.724 329.789L140.403 361.523L108.817 369.078L108.137 337.345Z" fill="#864C2C"/>
<path d="M140.03 344.07L108.149 337.874L108.829 369.607L140.709 375.803L140.03 344.07Z" fill="#864C2C"/>
<path d="M108.137 337.345L139.724 329.789L171.61 336.25L140.029 344.069L108.137 337.345Z" fill="#664F34"/>
<path d="M243.378 411.77L295.199 399.375L296.314 451.438L244.493 463.833L243.378 411.77Z" fill="#BDAA79"/>
<path d="M295.181 398.507L242.877 388.342L243.992 440.404L296.296 450.57L295.181 398.507Z" fill="#A9996F"/>
<path d="M243.378 411.77L295.199 399.375L296.314 451.438L244.493 463.833L243.378 411.77Z" fill="#9F5B34"/>
<path d="M191.056 400.737L242.876 388.342L243.991 440.404L192.171 452.8L191.056 400.737Z" fill="#BDAA79"/>
<path d="M243.378 411.77L191.08 400.675L192.189 453.667L244.493 463.833L243.378 411.77Z" fill="#864C2C"/>
<path d="M191.056 400.737L242.876 388.342L295.19 398.941L243.378 411.77L191.056 400.737Z" fill="#693D24"/>
<path d="M243.747 364.697L279.894 356.051L280.672 392.367L244.525 401.013L243.747 364.697Z" fill="#BDAA79"/>
<path d="M279.882 355.446L243.398 348.355L244.175 384.671L280.66 391.762L279.882 355.446Z" fill="#A9996F"/>
<path d="M243.747 364.697L279.894 356.051L280.672 392.367L244.525 401.013L243.747 364.697Z" fill="#9F5B34"/>
<path d="M207.251 357.001L243.398 348.355L244.176 384.671L208.028 393.317L207.251 357.001Z" fill="#BDAA79"/>
<path d="M243.747 364.697L207.263 357.607L208.041 393.922L244.525 401.013L243.747 364.697Z" fill="#864C2C"/>
<path d="M207.251 357.001L243.398 348.355L279.889 355.748L243.748 364.697L207.251 357.001Z" fill="#664F34"/>
<path d="M255.958 196.257L429.929 158.563V332.535L255.958 370.228V196.257Z" fill="#BDAA79"/>
<path d="M255.958 196.257L429.929 158.563V332.535L255.958 370.228V196.257Z" fill="#9F5B34"/>
<path d="M255.958 196.257L81.9857 158.563V332.535L255.958 370.228V196.257Z" fill="#864C2C"/>
<path d="M80.8984 158.382L255.958 117.969L430.654 158.2L255.958 196.257L80.8984 158.382Z" fill="#BF754C"/>
<path d="M91.0703 419.788L131.064 411.123V451.116L91.0703 459.782V419.788Z" fill="black"/>
<path d="M91.0703 419.788L131.064 411.123V451.116L91.0703 459.782V419.788Z" fill="#D0EB29"/>
<path d="M91.0703 419.788L51.0768 411.123V451.116L91.0703 459.782V419.788Z" fill="#B9D125"/>
<path d="M50.25 411L91.0702 401.791L131.25 411L91.0702 419.788L50.25 411Z" fill="#D3E660"/>
<path d="M396.341 377.915L448.162 365.52L449.277 417.583L397.456 429.978L396.341 377.915Z" fill="#BDAA79"/>
<path d="M448.144 364.653L395.84 354.487L396.955 406.55L449.259 416.715L448.144 364.653Z" fill="#A9996F"/>
<path d="M396.341 377.915L448.162 365.52L449.277 417.583L397.456 429.978L396.341 377.915Z" fill="#9F5B34"/>
<path d="M344.019 366.882L395.84 354.487L396.955 406.549L345.134 418.945L344.019 366.882Z" fill="#BDAA79"/>
<path d="M396.342 377.916L344.044 366.82L345.153 419.813L397.457 429.978L396.342 377.916Z" fill="#864C2C"/>
<path d="M344.019 366.882L395.84 354.487L448.154 365.086L396.342 377.915L344.019 366.882Z" fill="#693D24"/>
<path d="M396.711 330.842L432.858 322.196L433.636 358.512L397.489 367.158L396.711 330.842Z" fill="#BDAA79"/>
<path d="M396.711 330.843L433.372 321.832L433.636 358.512L397.489 367.158L396.711 330.843Z" fill="#9F5B34"/>
<path d="M396.711 330.842L360.227 323.752L361.004 360.068L397.489 367.158L396.711 330.842Z" fill="#864C2C"/>
<path d="M359.933 323.746L395.508 314.327L433.373 321.843L396.586 330.904L359.933 323.746Z" fill="#BF754C"/>
<path d="M117.98 264.646L211.965 244.282V311.875L117.98 332.239V264.646Z" fill="#9F5B34"/>
<path d="M117.98 264.646L23.9952 244.282V311.809L117.98 332.172V264.646Z" fill="#864C2C"/>
<path d="M23.9951 242.716L117.98 222.353L212.465 244.099L117.98 264.646L23.9951 242.716Z" fill="#BF754C"/>
<path d="M69.7876 240.35L109.781 231.685V271.678L69.7876 280.343V240.35Z" fill="black"/>
<path d="M109.781 231.018L69.7877 222.352V262.346L109.781 271.011V231.018Z" fill="#3A3A3A"/>
<path d="M69.7876 240.35L109.781 231.685V271.678L69.7876 280.343V240.35Z" fill="#9F4E34"/>
<path d="M29.7939 231.018L69.7875 222.353V262.346L29.7939 271.011V231.018Z" fill="black"/>
<path d="M69.7876 240.35L29.7941 231.685V271.678L69.7876 280.343V240.35Z" fill="#7C3F2C"/>
<path d="M29.7939 231.018L69.7875 222.353L109.781 231.351L69.7875 240.35L29.7939 231.018Z" fill="#C17055"/>
<path d="M141.375 204C141.375 210.76 135.884 208.5 126.375 206C120.868 204.552 115.75 207.532 115.75 200.772C115.75 194.012 121.231 188.532 127.991 188.532C134.751 188.532 141.375 197.24 141.375 204Z" fill="#341D10"/>
<path d="M199.315 215.954C199.315 223.58 193.121 221.03 182.392 218.21C176.179 216.577 170.406 219.938 170.406 212.311C170.406 204.685 176.589 198.502 184.215 198.502C191.842 198.502 199.315 208.327 199.315 215.954Z" fill="#341D10"/>
<path d="M195.842 158.287L251.921 154.649V189.358L195.842 174.656V158.287Z" fill="#693D24"/>
<path d="M220.533 138.179L278.733 125.569V183.769L251.769 189.358V163.768H220.533V138.179Z" fill="#9F5B34"/>
<path d="M220.699 138.205L162.347 124.64V150.405L220.699 164.051V138.205Z" fill="#BF754C"/>
<path d="M162.333 124.598L220.533 111.988L278.899 125.549L220.533 138.178L162.333 124.598Z" fill="#BF754C"/>
<path d="M103.143 142.522L150.969 139.419V169.02L103.143 156.482V142.522Z" fill="#693D24"/>
<path d="M124.2 125.372L173.836 114.618V164.254L150.84 169.02V147.196H124.2V125.372Z" fill="#9F5B34"/>
<path d="M124.341 125.395L74.576 113.826V135.8L124.341 147.438V125.395Z" fill="#BF754C"/>
<path d="M74.564 113.791L124.2 103.036L173.977 114.601L124.2 125.372L74.564 113.791Z" fill="#BF754C"/>
</svg>
