<svg width="521" height="919" viewBox="0 0 521 919" fill="none" xmlns="http://www.w3.org/2000/svg">
<path d="M1.34375 847.396L260.784 918.329V495.497L1.34375 424.564V847.396Z" fill="#585858"/>
<path d="M520.225 847.396L260.784 918.329V495.497L520.225 424.564V847.396Z" fill="#313131"/>
<path d="M260.424 367.404L520.225 424.564L260.424 495.646L0.623047 424.564L260.424 367.404Z" fill="#8A8A8A"/>
<path d="M434.459 125.604L457.22 116.941L460.719 141.386L437.958 150.048L434.459 125.604Z" fill="#222222"/>
<path d="M457.161 116.533L432.884 114.603L436.383 139.048L460.66 140.978L457.161 116.533Z" fill="#222222"/>
<path d="M434.459 125.604L457.22 116.941L460.719 141.386L437.958 150.048L434.459 125.604Z" fill="#9F5B34"/>
<path d="M410.123 123.266L432.885 114.603L436.383 139.048L413.622 147.711L410.123 123.266Z" fill="#222222"/>
<path d="M434.459 125.604L410.181 123.674L413.68 148.118L437.958 150.048L434.459 125.604Z" fill="#864C2C"/>
<path d="M410.24 123.694L432.885 114.603L457.192 116.737L434.46 125.603L410.24 123.694Z" fill="#BF754C"/>
<path d="M411.517 129.753L442.626 117.913L447.408 151.324L416.299 163.164L411.517 129.753Z" fill="#222222"/>
<path d="M442.546 117.356L409.364 114.719L414.147 148.129L447.328 150.767L442.546 117.356Z" fill="#222222"/>
<path d="M411.517 129.753L442.626 117.913L447.408 151.324L416.299 163.164L411.517 129.753Z" fill="#9F5B34"/>
<path d="M378.256 126.559L409.365 114.719L414.148 148.129L383.038 159.969L378.256 126.559Z" fill="#222222"/>
<path d="M411.517 129.753L378.336 127.116L383.118 160.526L416.299 163.164L411.517 129.753Z" fill="#864C2C"/>
<path d="M378.415 127.143L409.366 114.718L442.587 117.635L411.518 129.753L378.415 127.143Z" fill="#BF754C"/>
<path d="M378.204 138.083L422.334 121.363L429.172 166.975L385.041 183.696L378.204 138.083Z" fill="#222222"/>
<path d="M422.22 120.603L375.127 117.558L381.964 163.17L429.058 166.215L422.22 120.603Z" fill="#864C2C"/>
<path d="M378.204 138.083L422.334 121.363L429.172 166.975L385.041 183.696L378.204 138.083Z" fill="#9F5B34"/>
<path d="M378.204 138.083L331.11 135.038L337.948 180.65L385.041 183.696L378.204 138.083Z" fill="#864C2C"/>
<path d="M331.13 135.013L375.128 117.558L422.278 120.983L378.205 138.083L331.13 135.013Z" fill="#BF754C"/>
<path d="M140.732 387.473L192.553 375.078L193.668 427.14L141.847 439.535L140.732 387.473Z" fill="#BDAA79"/>
<path d="M192.535 374.21L140.231 364.045L141.346 416.107L193.65 426.272L192.535 374.21Z" fill="#A9996F"/>
<path d="M140.732 387.473L192.553 375.078L193.668 427.14L141.847 439.535L140.732 387.473Z" fill="#9F5B34"/>
<path d="M88.4096 376.439L140.23 364.044L141.345 416.107L89.5246 428.502L88.4096 376.439Z" fill="#BDAA79"/>
<path d="M140.732 387.473L88.4341 376.378L89.5427 429.37L141.847 439.535L140.732 387.473Z" fill="#864C2C"/>
<path d="M88.4096 376.439L140.23 364.044L192.544 374.643L140.732 387.472L88.4096 376.439Z" fill="#693D24"/>
<path d="M140.03 344.069L171.616 336.514L172.295 368.248L140.709 375.803L140.03 344.069Z" fill="#864C2C"/>
<path d="M171.605 335.985L139.724 329.789L140.404 361.523L172.284 367.719L171.605 335.985Z" fill="#A9996F"/>
<path d="M140.03 344.069L171.616 336.514L172.295 368.248L140.709 375.803L140.03 344.069Z" fill="#9F5B34"/>
<path d="M108.137 337.344L139.724 329.789L140.403 361.523L108.817 369.078L108.137 337.344Z" fill="#864C2C"/>
<path d="M140.03 344.069L108.149 337.873L108.829 369.607L140.709 375.803L140.03 344.069Z" fill="#864C2C"/>
<path d="M108.137 337.344L139.724 329.789L171.61 336.25L140.029 344.069L108.137 337.344Z" fill="#664F34"/>
<path d="M243.378 411.77L295.199 399.375L296.314 451.437L244.493 463.833L243.378 411.77Z" fill="#BDAA79"/>
<path d="M295.181 398.507L242.877 388.342L243.992 440.404L296.296 450.569L295.181 398.507Z" fill="#A9996F"/>
<path d="M243.378 411.77L295.199 399.375L296.314 451.437L244.493 463.833L243.378 411.77Z" fill="#9F5B34"/>
<path d="M191.056 400.737L242.876 388.342L243.991 440.404L192.171 452.799L191.056 400.737Z" fill="#BDAA79"/>
<path d="M243.378 411.77L191.08 400.675L192.189 453.667L244.493 463.832L243.378 411.77Z" fill="#864C2C"/>
<path d="M191.056 400.737L242.876 388.342L295.19 398.941L243.378 411.77L191.056 400.737Z" fill="#693D24"/>
<path d="M243.747 364.697L279.894 356.051L280.672 392.367L244.525 401.013L243.747 364.697Z" fill="#BDAA79"/>
<path d="M279.882 355.446L243.398 348.355L244.175 384.671L280.66 391.761L279.882 355.446Z" fill="#A9996F"/>
<path d="M243.747 364.697L279.894 356.051L280.672 392.367L244.525 401.013L243.747 364.697Z" fill="#9F5B34"/>
<path d="M207.251 357.001L243.398 348.355L244.176 384.67L208.028 393.317L207.251 357.001Z" fill="#BDAA79"/>
<path d="M243.747 364.697L207.263 357.606L208.041 393.922L244.525 401.013L243.747 364.697Z" fill="#864C2C"/>
<path d="M207.251 357.001L243.398 348.355L279.889 355.748L243.748 364.697L207.251 357.001Z" fill="#664F34"/>
<path d="M255.958 196.257L429.929 158.563V332.534L255.958 370.228V196.257Z" fill="#BDAA79"/>
<path d="M255.958 196.257L429.929 158.563V332.534L255.958 370.228V196.257Z" fill="#9F5B34"/>
<path d="M255.958 196.257L81.9857 158.563V332.534L255.958 370.228V196.257Z" fill="#864C2C"/>
<path d="M80.8984 158.382L255.958 117.969L430.654 158.2L255.958 196.257L80.8984 158.382Z" fill="#BF754C"/>
<path d="M91.0703 322.936L131.064 314.27V354.264L91.0703 362.929V322.936Z" fill="black"/>
<path d="M131.064 313.603L91.0704 304.938V344.932L131.064 353.597V313.603Z" fill="#3A3A3A"/>
<path d="M91.0703 322.936L131.064 314.27V354.264L91.0703 362.929V322.936Z" fill="#D0EB29"/>
<path d="M51.0767 313.604L91.0702 304.938V344.932L51.0767 353.597V313.604Z" fill="black"/>
<path d="M91.0703 322.936L51.0768 314.27V354.264L91.0703 362.929V322.936Z" fill="#B9D125"/>
<path d="M51.0767 313.604L91.0702 304.938L131.064 313.937L91.0702 322.935L51.0767 313.604Z" fill="#C17055"/>
<path d="M396.341 377.915L448.162 365.52L449.277 417.583L397.456 429.978L396.341 377.915Z" fill="#BDAA79"/>
<path d="M448.144 364.653L395.84 354.487L396.955 406.55L449.259 416.715L448.144 364.653Z" fill="#A9996F"/>
<path d="M396.341 377.915L448.162 365.52L449.277 417.583L397.456 429.978L396.341 377.915Z" fill="#9F5B34"/>
<path d="M344.019 366.882L395.84 354.487L396.955 406.549L345.134 418.945L344.019 366.882Z" fill="#BDAA79"/>
<path d="M396.342 377.916L344.044 366.82L345.153 419.813L397.457 429.978L396.342 377.916Z" fill="#864C2C"/>
<path d="M344.019 366.882L395.84 354.487L448.154 365.086L396.342 377.915L344.019 366.882Z" fill="#693D24"/>
<path d="M396.711 330.842L432.858 322.196L433.636 358.512L397.489 367.158L396.711 330.842Z" fill="#BDAA79"/>
<path d="M396.711 330.843L433.372 321.832L433.636 358.512L397.489 367.158L396.711 330.843Z" fill="#9F5B34"/>
<path d="M396.711 330.842L360.227 323.752L361.004 360.068L397.489 367.158L396.711 330.842Z" fill="#864C2C"/>
<path d="M359.933 323.746L395.508 314.327L433.373 321.843L396.586 330.904L359.933 323.746Z" fill="#BF754C"/>
<path d="M117.98 264.645L211.965 244.282V311.875L117.98 332.239V264.645Z" fill="#9F5B34"/>
<path d="M117.98 264.645L23.9952 244.282V311.809L117.98 332.172V264.645Z" fill="#864C2C"/>
<path d="M23.9951 242.716L117.98 222.352L212.465 244.099L117.98 264.646L23.9951 242.716Z" fill="#BF754C"/>
<path d="M69.7876 240.35L109.781 231.685V271.678L69.7876 280.343V240.35Z" fill="black"/>
<path d="M109.781 231.018L69.7877 222.352V262.346L109.781 271.011V231.018Z" fill="#3A3A3A"/>
<path d="M69.7876 240.35L109.781 231.685V271.678L69.7876 280.343V240.35Z" fill="#9F4E34"/>
<path d="M29.7939 231.018L69.7875 222.353V262.346L29.7939 271.011V231.018Z" fill="black"/>
<path d="M69.7876 240.35L29.7941 231.685V271.678L69.7876 280.343V240.35Z" fill="#7C3F2C"/>
<path d="M29.7939 231.018L69.7875 222.353L109.781 231.351L69.7875 240.35L29.7939 231.018Z" fill="#C17055"/>
<circle cx="184.8" cy="213.012" r="12.2402" fill="#341D10"/>
<circle cx="127.991" cy="200.772" r="12.2402" fill="#341D10"/>
<path d="M216.135 153.963L268.408 174.591L253.605 205.984L209.153 168.768L216.135 153.963Z" fill="#693D24"/>
<path d="M247.043 146.306L305.062 159.724L280.239 212.365L253.467 205.92L264.381 182.774L236.128 169.452L247.043 146.306Z" fill="#9F5B34"/>
<path d="M247.182 146.401L200.189 109.243L189.199 132.548L236.158 169.778L247.182 146.401Z" fill="#BF754C"/>
<path d="M200.194 109.2L258.213 122.618L305.221 159.777L247.043 146.306L200.194 109.2Z" fill="#9F5B34"/>
<path d="M87.2748 143.398L132.835 128.524L140.181 157.198L90.7394 156.922L87.2748 143.398Z" fill="#693D24"/>
<path d="M103.417 121.559L148.831 98.8228L161.15 146.906L140.056 157.23L134.64 136.089L108.833 142.7L103.417 121.559Z" fill="#9F5B34"/>
<path d="M103.56 121.546L52.4806 122.69L57.9341 143.976L109.031 142.899L103.56 121.546Z" fill="#BF754C"/>
<path d="M52.46 122.658L97.8741 99.9219L148.964 98.7716L103.417 121.559L52.46 122.658Z" fill="#BF754C"/>
</svg>
