<svg width="1440" height="674" viewBox="0 0 1440 674" fill="none" xmlns="http://www.w3.org/2000/svg">
<path d="M0 573.371C0 575.633 1.51787 577.613 3.70173 578.2L353.702 672.307C356.878 673.161 360 670.767 360 667.478V100.833C360 98.5718 358.482 96.5919 356.298 96.0047L6.29828 1.89799C3.12167 1.04387 0 3.43706 0 6.72649V573.371Z" fill="#CCD1E2"/>
<path d="M720 577.205L1080 674V97L720 0.204529V577.205Z" fill="#4B5578"/>
<path d="M720 577.205L1080 674V97L720 0.204529V577.205Z" fill="#CCD1E2"/>
<path d="M720 573.371C720 575.633 718.482 577.613 716.298 578.2L366.298 672.307C363.122 673.161 360 670.767 360 667.478V100.833C360 98.5718 361.518 96.5919 363.702 96.0047L713.702 1.89799C716.878 1.04387 720 3.43706 720 6.72649V573.371Z" fill="#AAAFC1"/>
<path d="M1440 577.205L1080 674V97L1440 0.204529V577.205Z" fill="#363D52"/>
<path d="M1440 577.205L1080 674V97L1440 0.204529V577.205Z" fill="#AAAFC1"/>
</svg>
