<svg width="1440" height="674" viewBox="0 0 1440 674" fill="none" xmlns="http://www.w3.org/2000/svg">
<path d="M0 573.167C0 575.428 1.51787 577.408 3.70173 577.995L353.702 672.102C356.878 672.956 360 670.563 360 667.274V100.629C360 98.3672 358.482 96.3874 356.298 95.8002L6.29828 1.69346C3.12167 0.839343 0 3.23254 0 6.52196V573.167Z" fill="#CCD1E2"/>
<path d="M720 577L1080 673.795V96.7955L720 0V577Z" fill="#CCD1E2"/>
<path d="M720 573.167C720 575.428 718.482 577.408 716.298 577.995L366.298 672.102C363.122 672.956 360 670.563 360 667.274V100.629C360 98.3672 361.518 96.3874 363.702 95.8002L713.702 1.69346C716.878 0.839343 720 3.23254 720 6.52196V573.167Z" fill="#AAAFC1"/>
<path d="M1440 577L1080 673.795V96.7955L1440 0V577Z" fill="#AAAFC1"/>
</svg>
