<svg width="73" height="77" viewBox="0 0 73 77" fill="none" xmlns="http://www.w3.org/2000/svg">
<path d="M0.544922 66.7569L36.3615 76.5393V18.2261L0.544922 8.44372V66.7569Z" fill="#2D50D7"/>
<path d="M72.1768 66.7569L36.3602 76.5393V18.2261L72.1768 8.44372V66.7569Z" fill="#22388E"/>
<path d="M36.3106 0.560791L72.1769 8.44368L36.3106 18.2468L0.444336 8.44368L36.3106 0.560791Z" fill="#869CED"/>
<path d="M51.8389 36.9341L59.7365 34.7923V61.7058L51.8389 63.8476V36.9341Z" fill="white"/>
<path d="M22.4014 36.4603L14.5037 34.3185V61.232L22.4014 63.3738V36.4603Z" fill="white"/>
<path d="M51.8389 24.2248L59.7365 22.0831V30.6326L51.8389 32.7744V24.2248Z" fill="white"/>
<path d="M22.4014 23.751L14.5037 21.6093V30.1588L22.4014 32.3006V23.751Z" fill="white"/>
<path d="M43.4189 8.82958L35.5213 6.68781L20.2895 10.3806L28.1872 12.5224L43.4189 8.82958Z" fill="white"/>
<path d="M52.0557 6.64819L44.158 4.50641L37.7138 6.06574L45.6115 8.20751L52.0557 6.64819Z" fill="white"/>
</svg>
