<svg width="73" height="77" viewBox="0 0 73 77" fill="none" xmlns="http://www.w3.org/2000/svg">
<path d="M0.407227 66.7569L36.2238 76.5393V18.2261L0.407227 8.44372V66.7569Z" fill="#CCD1E2"/>
<path d="M72.0391 66.7569L36.2225 76.5393V18.2261L72.0391 8.44372V66.7569Z" fill="#AAAFC1"/>
<path d="M36.1729 0.560791L72.0392 8.44368L36.1729 18.2468L0.306641 8.44368L36.1729 0.560791Z" fill="#DADFEF"/>
<path d="M51.7012 36.9341L59.5988 34.7923V61.7058L51.7012 63.8476V36.9341Z" fill="white"/>
<path d="M22.2637 36.4603L14.366 34.3185V61.232L22.2637 63.3738V36.4603Z" fill="white"/>
<path d="M51.7012 24.2248L59.5988 22.0831V30.6326L51.7012 32.7744V24.2248Z" fill="white"/>
<path d="M22.2637 23.751L14.366 21.6093V30.1588L22.2637 32.3006V23.751Z" fill="white"/>
<path d="M43.2812 8.82958L35.3836 6.68781L20.1518 10.3806L28.0495 12.5224L43.2812 8.82958Z" fill="white"/>
<path d="M51.918 6.64819L44.0203 4.50641L37.5761 6.06574L45.4738 8.20751L51.918 6.64819Z" fill="white"/>
</svg>
