<svg width="158" height="77" viewBox="0 0 158 77" fill="none" xmlns="http://www.w3.org/2000/svg">
<path d="M43.8992 76.3646C43.1146 76.3646 0.0272217 76.3646 0.0272217 76.3646V72.4415C0.0272217 72.4415 43.1522 72.4415 43.3108 72.4415C44.1739 72.4415 44.8146 72.2322 45.2331 71.8138C45.6516 71.3691 45.8608 70.7022 45.8608 69.813V48.7457H50.1763V69.6953C50.1763 71.9445 49.6532 73.6184 48.607 74.7169C47.587 75.8154 46.0177 76.3646 43.8992 76.3646Z" fill="white"/>
<path d="M56.5198 48.7457H62.3653L66.8376 76.2077H62.5222L61.7376 70.7545V70.833H56.8336L56.049 76.2077H52.0474L56.5198 48.7457ZM61.2276 67.106L59.3052 53.5319H59.2268L57.3436 67.106H61.2276Z" fill="white"/>
<path d="M74.9355 76.6C72.8694 76.6 71.287 76.0115 70.1885 74.8346C69.1162 73.6576 68.5801 71.9968 68.5801 69.8522V55.1012C68.5801 52.9565 69.1162 51.2957 70.1885 50.1188C71.287 48.9419 72.8694 48.3534 74.9355 48.3534C77.0017 48.3534 78.571 48.9419 79.6433 50.1188C80.7418 51.2957 81.291 52.9565 81.291 55.1012V58.0043H77.211V54.8266C77.211 53.1265 76.4917 52.2765 75.0532 52.2765C73.6148 52.2765 72.8955 53.1265 72.8955 54.8266V70.166C72.8955 71.8399 73.6148 72.6768 75.0532 72.6768C76.4917 72.6768 77.211 71.8399 77.211 70.166V65.9683H81.291V69.8522C81.291 71.9968 80.7418 73.6576 79.6433 74.8346C78.571 76.0115 77.0017 76.6 74.9355 76.6Z" fill="white"/>
<path d="M90.1873 76.6C88.0689 76.6 86.4473 75.9984 85.3227 74.7953C84.198 73.5922 83.6357 71.8922 83.6357 69.6953V55.2581C83.6357 53.0612 84.198 51.3611 85.3227 50.158C86.4473 48.9549 88.0689 48.3534 90.1873 48.3534C92.3058 48.3534 93.9274 48.9549 95.052 50.158C96.1767 51.3611 96.739 53.0612 96.739 55.2581V69.6953C96.739 71.8922 96.1767 73.5922 95.052 74.7953C93.9274 75.9984 92.3058 76.6 90.1873 76.6ZM90.1873 72.6768C91.6781 72.6768 92.4235 71.7745 92.4235 69.9699V54.9835C92.4235 53.1789 91.6781 52.2765 90.1873 52.2765C88.6966 52.2765 87.9512 53.1789 87.9512 54.9835V69.9699C87.9512 71.7745 88.6966 72.6768 90.1873 72.6768Z" fill="white"/>
<path d="M99.6574 48.7457H106.17C108.393 48.7457 110.015 49.2688 111.035 50.315C112.055 51.335 112.565 52.9173 112.565 55.062V56.1604C112.565 57.5728 112.329 58.7236 111.858 59.6128C111.414 60.502 110.721 61.1428 109.779 61.5351V61.6136C111.924 62.3459 112.996 64.2552 112.996 67.3414V69.6953C112.996 71.8138 112.434 73.4353 111.309 74.56C110.211 75.6584 108.589 76.2077 106.444 76.2077H99.6574V48.7457ZM105.66 59.9266C106.523 59.9266 107.164 59.7043 107.582 59.2597C108.027 58.8151 108.249 58.0697 108.249 57.0235V55.4935C108.249 54.4996 108.066 53.7804 107.7 53.3358C107.36 52.8912 106.811 52.6688 106.052 52.6688H103.973V59.9266H105.66ZM106.444 72.2845C107.203 72.2845 107.765 72.0884 108.131 71.6961C108.498 71.2776 108.681 70.5714 108.681 69.5776V67.1845C108.681 65.929 108.458 65.066 108.014 64.5952C107.595 64.0983 106.889 63.8498 105.895 63.8498H103.973V72.2845H106.444Z" fill="white"/>
<path d="M121.129 76.6C119.036 76.6 117.454 76.0115 116.382 74.8346C115.309 73.6315 114.773 71.9184 114.773 69.6953V68.126H118.853V70.0091C118.853 71.7876 119.599 72.6768 121.089 72.6768C121.822 72.6768 122.371 72.4676 122.737 72.0491C123.129 71.6045 123.326 70.8984 123.326 69.9306C123.326 68.7799 123.064 67.7729 122.541 66.9098C122.018 66.0206 121.05 64.9613 119.638 63.7321C117.859 62.1628 116.617 60.7505 115.911 59.4951C115.205 58.2135 114.852 56.7751 114.852 55.1797C114.852 53.0089 115.401 51.335 116.499 50.158C117.598 48.9549 119.193 48.3534 121.286 48.3534C123.352 48.3534 124.908 48.9549 125.954 50.158C127.026 51.335 127.563 53.035 127.563 55.2581V56.3958H123.483V54.9835C123.483 54.0419 123.299 53.3619 122.933 52.9435C122.567 52.4988 122.031 52.2765 121.325 52.2765C119.886 52.2765 119.167 53.1527 119.167 54.905C119.167 55.8989 119.429 56.8274 119.952 57.6905C120.501 58.5536 121.482 59.5997 122.894 60.829C124.699 62.3982 125.941 63.8236 126.621 65.1052C127.301 66.3867 127.641 67.8906 127.641 69.6168C127.641 71.8661 127.079 73.5922 125.954 74.7953C124.856 75.9984 123.247 76.6 121.129 76.6Z" fill="white"/>
<path d="M130.115 48.7457H141.885V52.6688H134.431V59.9266H140.355V63.8498H134.431V72.2845H141.885V76.2077H130.115V48.7457Z" fill="white"/>
<path d="M144.367 48.7457H149.781L153.979 65.1837H154.058V48.7457H157.902V76.2077H153.469L148.291 56.1604H148.212V76.2077H144.367V48.7457Z" fill="white"/>
<path d="M53.7031 0.775879H63.9316L71.7575 48.8292H64.2062L62.8333 39.2872V39.4245H54.2523L52.8794 48.8292H45.8773L53.7031 0.775879ZM61.9409 32.903L58.5771 9.15089H58.4398L55.1447 32.903H61.9409Z" fill="white"/>
<path d="M75.421 0.775879H84.8944L92.2397 29.5392H92.377V0.775879H99.1044V48.8292H91.3472L82.2858 13.7503H82.1485V48.8292H75.421V0.775879Z" fill="white"/>
<path d="M104.717 0.775879H114.19L121.536 29.5392H121.673V0.775879H128.4V48.8292H120.643L111.582 13.7503H111.444V48.8292H104.717V0.775879Z" fill="white"/>
<path d="M139.848 0.775879H150.076L157.902 48.8292H150.351L148.978 39.2872V39.4245H140.397L139.024 48.8292H132.022L139.848 0.775879ZM148.086 32.903L144.722 9.15089H144.585L141.289 32.903H148.086Z" fill="white"/>
</svg>
