<svg width="187" height="322" viewBox="0 0 187 322" fill="none" xmlns="http://www.w3.org/2000/svg">
<path d="M0.374512 296.18L93.4236 321.308V171.519L0.374512 146.391V296.18Z" fill="#CCD1E2"/>
<path d="M186.473 296.18L93.4236 321.308V171.519L186.473 146.391V296.18Z" fill="#AAAFC1"/>
<path d="M93.2945 126.142L186.473 146.391L93.2945 171.572L0.116211 146.391L93.2945 126.142Z" fill="#DADFEF"/>
<path d="M155.359 37.2895L180.361 32.1346L180.171 56.7889L155.17 61.9438L155.359 37.2895Z" fill="#222222"/>
<path d="M180.365 31.7238L155.445 26.1952L155.256 50.8495L180.176 56.3782L180.365 31.7238Z" fill="#222222"/>
<path d="M155.359 37.2895L180.361 32.1346L180.171 56.7889L155.17 61.9438L155.359 37.2895Z" fill="#0B0B0B"/>
<path d="M130.445 31.3508L155.446 26.1959L155.257 50.8502L130.256 56.0051L130.445 31.3508Z" fill="#222222"/>
<path d="M155.359 37.2895L130.439 31.7609L130.25 56.4152L155.17 61.9438L155.359 37.2895Z" fill="#222222"/>
<path d="M130.445 31.3508L155.446 26.1959L180.365 31.9299L155.361 37.2903L130.445 31.3508Z" fill="#222222"/>
<path d="M47.995 129.134L69.1344 124.14L69.5892 145.117L48.4499 150.111L47.995 129.134Z" fill="#BDAA79"/>
<path d="M69.1283 123.79L47.7919 119.694L48.2467 140.671L69.5832 144.767L69.1283 123.79Z" fill="#A9996F"/>
<path d="M47.9956 129.134L69.163 123.889L69.5898 145.117L48.4504 150.111L47.9956 129.134Z" fill="#0B0B0B"/>
<path d="M26.6513 124.689L47.7906 119.695L48.2455 140.672L27.1061 145.666L26.6513 124.689Z" fill="#BDAA79"/>
<path d="M47.9958 129.134L26.662 124.663L27.1142 146.015L48.4507 150.111L47.9958 129.134Z" fill="white"/>
<path d="M26.6513 124.689L47.7906 119.695L69.1309 123.965L47.9953 129.135L26.6513 124.689Z" fill="#0D0D0D"/>
<path d="M47.7075 111.646L60.5925 108.602L60.8698 121.388L47.9848 124.432L47.7075 111.646Z" fill="#BDAA79"/>
<path d="M60.5879 108.389L47.5828 105.892L47.86 118.678L60.8651 121.175L60.5879 108.389Z" fill="#A9996F"/>
<path d="M47.7075 111.646L60.5925 108.602L60.8698 121.388L47.9848 124.432L47.7075 111.646Z" fill="#0B0B0B"/>
<path d="M34.6983 108.936L47.5832 105.892L47.8605 118.678L34.9755 121.723L34.6983 108.936Z" fill="#BDAA79"/>
<path d="M47.7075 111.646L34.7024 109.149L34.9796 121.936L47.9848 124.432L47.7075 111.646Z" fill="#404040"/>
<path d="M34.6983 108.936L47.5832 105.892L60.5907 108.495L47.708 111.646L34.6983 108.936Z" fill="#664F34"/>
<path d="M89.8676 138.924L111.007 133.929L111.462 154.907L90.3224 159.901L89.8676 138.924Z" fill="#BDAA79"/>
<path d="M111 133.58L89.6635 129.484L90.1183 150.461L111.455 154.557L111 133.58Z" fill="#A9996F"/>
<path d="M89.868 138.924L110.968 133.71L111.462 154.907L90.3228 159.901L89.868 138.924Z" fill="#0B0B0B"/>
<path d="M68.5253 134.48L89.6647 129.485L90.1195 150.463L68.9802 155.457L68.5253 134.48Z" fill="#BDAA79"/>
<path d="M89.8679 138.924L68.534 134.453L68.9863 155.805L90.3227 159.901L89.8679 138.924Z" fill="white"/>
<path d="M68.5253 134.48L89.6647 129.485L111.005 133.756L89.8693 138.925L68.5253 134.48Z" fill="#0D0D0D"/>
<path d="M90.0194 119.957L104.765 116.473L105.082 131.106L90.3367 134.589L90.0194 119.957Z" fill="#BDAA79"/>
<path d="M104.76 116.229L89.8766 113.372L90.1938 128.005L105.077 130.862L104.76 116.229Z" fill="#A9996F"/>
<path d="M90.0194 119.957L104.765 116.473L105.082 131.106L90.3367 134.589L90.0194 119.957Z" fill="#0B0B0B"/>
<path d="M75.1308 116.856L89.8764 113.372L90.1936 128.005L75.448 131.488L75.1308 116.856Z" fill="#BDAA79"/>
<path d="M90.0194 119.957L75.1363 117.1L75.4536 131.732L90.3367 134.589L90.0194 119.957Z" fill="#404040"/>
<path d="M75.1308 116.856L89.8764 113.372L104.762 116.351L90.0191 119.957L75.1308 116.856Z" fill="#664F34"/>
<path d="M94.9995 52.0887L165.968 36.9009V106.998L94.9995 122.186V52.0887Z" fill="#BDAA79"/>
<path d="M94.9995 52.0887L165.968 36.9009V106.998L94.9995 122.186V52.0887Z" fill="#0B0B0B"/>
<path d="M94.9995 52.0887L24.0309 36.9009V106.998L94.9995 122.186V52.0887Z" fill="#404040"/>
<path d="M23.5874 36.8278L94.9996 20.5447L166.264 36.7547L94.9996 52.0886L23.5874 36.8278Z" fill="#222222"/>
<path d="M152.266 125.283L173.405 120.289L173.86 141.266L152.721 146.26L152.266 125.283Z" fill="#BDAA79"/>
<path d="M173.399 119.939L152.062 115.843L152.517 136.82L173.854 140.916L173.399 119.939Z" fill="#A9996F"/>
<path d="M152.267 125.283L173.324 120.019L173.861 141.266L152.721 146.26L152.267 125.283Z" fill="#0B0B0B"/>
<path d="M130.922 120.838L152.061 115.843L152.516 136.82L131.377 141.815L130.922 120.838Z" fill="#BDAA79"/>
<path d="M152.267 125.283L130.933 120.812L131.385 142.164L152.722 146.26L152.267 125.283Z" fill="#404040"/>
<path d="M130.922 120.838L152.061 115.843L173.401 120.114L152.266 125.283L130.922 120.838Z" fill="#0D0D0D"/>
<path d="M152.417 106.316L167.163 102.832L167.48 117.465L152.735 120.949L152.417 106.316Z" fill="#BDAA79"/>
<path d="M152.417 106.316L167.372 102.686L167.479 117.465L152.734 120.949L152.417 106.316Z" fill="#222222"/>
<path d="M152.417 106.316L137.534 103.459L137.852 118.092L152.735 120.949L152.417 106.316Z" fill="#0D0D0D"/>
<path d="M137.414 103.457L151.926 99.6619L167.372 102.69L152.366 106.341L137.414 103.457Z" fill="#4D4C4C"/>
<path d="M38.7144 79.6444L77.0537 71.4395V109.308L38.7144 117.513V79.6444Z" fill="#BDAA79"/>
<path d="M77.0532 70.8082L38.7139 62.6033V100.472L77.0532 108.677V70.8082Z" fill="#A9996F"/>
<path d="M38.7144 79.6444L77.0537 71.4395V109.308L38.7144 117.513V79.6444Z" fill="#0B0B0B"/>
<path d="M0.374512 70.8082L38.7139 62.6033V100.472L0.374512 108.677V70.8082Z" fill="#BDAA79"/>
<path d="M38.7144 79.6446L0.375004 70.7683V109.309L38.7144 117.513V79.6446Z" fill="white"/>
<path d="M0.374512 70.8082L38.7139 62.6033L77.0532 71.1238L38.7139 79.6442L0.374512 70.8082Z" fill="white"/>
<path d="M30.1167 27.1702L52.3388 20.0041L55.922 33.8186L31.8066 33.6853L30.1167 27.1702Z" fill="black"/>
<path d="M37.9908 16.6489L60.1416 5.69523L66.15 28.86L55.8615 33.8338L53.2198 23.6488L40.6325 26.834L37.9908 16.6489Z" fill="#222222"/>
<path d="M38.061 16.6425L13.1469 17.1935L15.8069 27.4488L40.7293 26.9299L38.061 16.6425Z" fill="#4D4C4C"/>
<path d="M13.1353 17.1785L35.2861 6.22477L60.2056 5.67058L37.9899 16.6489L13.1353 17.1785Z" fill="#4D4C4C"/>
<path d="M92.9684 32.2601L118.465 42.1981L111.244 57.3221L89.5631 39.3928L92.9684 32.2601Z" fill="black"/>
<path d="M108.044 28.5712L136.343 35.0354L124.235 60.3962L111.177 57.2909L116.501 46.1403L102.72 39.7218L108.044 28.5712Z" fill="#222222"/>
<path d="M108.112 28.6165L85.1908 10.7154L79.8307 21.9428L102.735 39.879L108.112 28.6165Z" fill="#4D4C4C"/>
<path d="M85.1931 10.6945L113.492 17.1587L136.42 35.0608L108.044 28.571L85.1931 10.6945Z" fill="#4D4C4C"/>
<path d="M19.0547 69.8547L35.3693 66.3633V82.4777L19.0547 85.9691V69.8547Z" fill="black"/>
<path d="M35.3687 66.0947L19.054 62.6033V78.7177L35.3687 82.2091V66.0947Z" fill="#3A3A3A"/>
<path d="M19.0547 69.8547L35.3693 66.3633V82.4777L19.0547 85.9691V69.8547Z" fill="#3A3A3A"/>
<path d="M2.73975 66.0947L19.0544 62.6033V78.7177L2.73975 82.2091V66.0947Z" fill="black"/>
<path d="M19.0547 69.8547L2.74007 66.3633V82.4777L19.0547 85.9691V69.8547Z" fill="black"/>
<path d="M2.73975 66.0947L19.0544 62.6033L35.369 66.229L19.0544 69.8547L2.73975 66.0947Z" fill="#808080"/>
<ellipse cx="65.9722" cy="58.8398" rx="4.99316" ry="4.93187" fill="#0D0D0D"/>
<ellipse cx="43.731" cy="54.614" rx="4.27834" ry="4.22583" fill="#0D0D0D"/>
</svg>
