<svg width="544" height="919" viewBox="0 0 544 919" fill="none" xmlns="http://www.w3.org/2000/svg">
<path d="M24.4385 847.396L283.879 918.329V495.497L24.4385 424.564V847.396Z" fill="#585858"/>
<path d="M543.32 847.396L283.879 918.329V495.497L543.32 424.564V847.396Z" fill="#313131"/>
<path d="M283.519 367.404L543.32 424.564L283.519 495.646L23.7178 424.564L283.519 367.404Z" fill="#8A8A8A"/>
<path d="M452.847 109.93L525.885 94.684L525.332 167.602L452.294 182.849L452.847 109.93Z" fill="#222222"/>
<path d="M525.894 93.4682L453.095 77.1166L452.543 150.035L525.341 166.387L525.894 93.4682Z" fill="#222222"/>
<path d="M452.847 109.93L525.885 94.684L525.332 167.602L452.294 182.849L452.847 109.93Z" fill="#0B0B0B"/>
<path d="M380.057 92.3635L453.095 77.1171L452.542 150.036L379.504 165.282L380.057 92.3635Z" fill="#222222"/>
<path d="M452.847 109.93L380.048 93.5787L379.495 166.497L452.294 182.849L452.847 109.93Z" fill="#222222"/>
<path d="M380.057 92.3635L453.095 77.1171L525.889 94.0764L452.846 109.93L380.057 92.3635Z" fill="#222222"/>
<path d="M139.2 381.573L200.955 366.801L202.283 428.845L140.528 443.616L139.2 381.573Z" fill="#BDAA79"/>
<path d="M200.933 365.767L138.602 353.653L139.931 415.696L202.262 427.81L200.933 365.767Z" fill="#A9996F"/>
<path d="M139.199 381.573L201.036 366.059L202.283 428.844L140.528 443.616L139.199 381.573Z" fill="#0B0B0B"/>
<path d="M76.847 368.425L138.602 353.654L139.931 415.697L78.1757 430.469L76.847 368.425Z" fill="#BDAA79"/>
<path d="M139.199 381.573L76.8759 368.351L78.1971 431.502L140.528 443.616L139.199 381.573Z" fill="white"/>
<path d="M76.847 368.425L138.602 353.654L200.944 366.285L139.2 381.573L76.847 368.425Z" fill="#0D0D0D"/>
<path d="M138.362 329.849L176.004 320.845L176.814 358.662L139.172 367.665L138.362 329.849Z" fill="#BDAA79"/>
<path d="M175.991 320.214L137.998 312.831L138.808 350.647L176.801 358.031L175.991 320.214Z" fill="#A9996F"/>
<path d="M138.362 329.849L176.004 320.845L176.814 358.662L139.172 367.665L138.362 329.849Z" fill="#0B0B0B"/>
<path d="M100.357 321.835L137.999 312.831L138.808 350.648L101.167 359.652L100.357 321.835Z" fill="#BDAA79"/>
<path d="M138.362 329.849L100.37 322.465L101.18 360.282L139.172 367.665L138.362 329.849Z" fill="#404040"/>
<path d="M100.357 321.835L137.999 312.831L175.998 320.53L138.363 329.849L100.357 321.835Z" fill="#664F34"/>
<path d="M261.523 410.527L323.279 395.756L324.607 457.799L262.852 472.57L261.523 410.527Z" fill="#BDAA79"/>
<path d="M323.257 394.721L260.926 382.608L262.255 444.651L324.586 456.765L323.257 394.721Z" fill="#A9996F"/>
<path d="M261.523 410.527L323.162 395.106L324.607 457.799L262.852 472.57L261.523 410.527Z" fill="#0B0B0B"/>
<path d="M199.172 397.38L260.928 382.609L262.256 444.652L200.501 459.423L199.172 397.38Z" fill="#BDAA79"/>
<path d="M261.523 410.527L199.2 397.305L200.521 460.456L262.852 472.57L261.523 410.527Z" fill="white"/>
<path d="M199.172 397.38L260.928 382.609L323.27 395.239L261.526 410.528L199.172 397.38Z" fill="#0D0D0D"/>
<path d="M261.964 354.431L305.041 344.127L305.968 387.405L262.891 397.708L261.964 354.431Z" fill="#BDAA79"/>
<path d="M305.026 343.406L261.547 334.956L262.474 378.234L305.953 386.684L305.026 343.406Z" fill="#A9996F"/>
<path d="M261.964 354.431L305.041 344.127L305.968 387.405L262.891 397.708L261.964 354.431Z" fill="#0B0B0B"/>
<path d="M218.47 345.259L261.547 334.956L262.474 378.233L219.397 388.537L218.47 345.259Z" fill="#BDAA79"/>
<path d="M261.964 354.431L218.486 345.981L219.413 389.258L262.891 397.708L261.964 354.431Z" fill="#404040"/>
<path d="M218.47 345.259L261.547 334.956L305.033 343.766L261.964 354.431L218.47 345.259Z" fill="#664F34"/>
<path d="M276.515 153.7L483.838 108.78V316.103L276.515 361.023V153.7Z" fill="#BDAA79"/>
<path d="M276.515 153.7L483.838 108.78V316.103L276.515 361.023V153.7Z" fill="#0B0B0B"/>
<path d="M276.515 153.7L69.1916 108.78V316.103L276.515 361.023V153.7Z" fill="#404040"/>
<path d="M67.896 108.564L276.515 60.4043L484.702 108.348L276.515 153.7L67.896 108.564Z" fill="#222222"/>
<path d="M443.811 370.182L505.567 355.411L506.895 417.454L445.14 432.225L443.811 370.182Z" fill="#BDAA79"/>
<path d="M505.545 354.377L443.214 342.263L444.543 404.306L506.874 416.42L505.545 354.377Z" fill="#A9996F"/>
<path d="M443.811 370.182L505.326 354.612L506.895 417.454L445.14 432.226L443.811 370.182Z" fill="#0B0B0B"/>
<path d="M381.459 357.034L443.214 342.263L444.543 404.306L382.788 419.077L381.459 357.034Z" fill="#BDAA79"/>
<path d="M443.811 370.182L381.488 356.96L382.809 420.111L445.14 432.225L443.811 370.182Z" fill="#404040"/>
<path d="M381.459 357.034L443.214 342.263L505.556 354.894L443.812 370.182L381.459 357.034Z" fill="#0D0D0D"/>
<path d="M444.251 314.085L487.328 303.782L488.255 347.059L445.178 357.363L444.251 314.085Z" fill="#BDAA79"/>
<path d="M444.252 314.085L487.941 303.347L488.256 347.059L445.179 357.363L444.252 314.085Z" fill="#222222"/>
<path d="M444.251 314.085L400.773 305.635L401.7 348.913L445.178 357.363L444.251 314.085Z" fill="#0D0D0D"/>
<path d="M400.423 305.628L442.818 294.404L487.942 303.361L444.102 314.159L400.423 305.628Z" fill="#4D4C4C"/>
<path d="M112.086 235.2L224.088 210.932V322.935L112.086 347.202V235.2Z" fill="#BDAA79"/>
<path d="M224.088 209.066L112.086 184.798V296.801L224.088 321.068V209.066Z" fill="#A9996F"/>
<path d="M112.086 235.2L224.088 210.932V322.935L112.086 347.202V235.2Z" fill="#0B0B0B"/>
<path d="M0.0839844 209.065L112.086 184.798V296.801L0.0839844 321.068V209.065Z" fill="#BDAA79"/>
<path d="M112.086 235.2L0.0839604 208.947V322.935L112.086 347.202V235.2Z" fill="white"/>
<path d="M0.0839844 209.065L112.086 184.798L224.088 209.999L112.086 235.199L0.0839844 209.065Z" fill="white"/>
<path d="M86.9708 80.0002L151.889 58.8055L162.357 99.6636L91.9075 99.2695L86.9708 80.0002Z" fill="black"/>
<path d="M109.972 48.8822L174.682 16.4852L192.234 84.9982L162.178 99.709L154.461 69.5853L117.689 79.0059L109.972 48.8822Z" fill="#222222"/>
<path d="M110.176 48.863L37.3929 50.4927L45.1636 80.8241L117.97 79.2892L110.176 48.863Z" fill="#4D4C4C"/>
<path d="M37.3636 50.4484L102.074 18.0513L174.872 16.4122L109.972 48.8822L37.3636 50.4484Z" fill="#4D4C4C"/>
<path d="M270.581 95.0541L345.065 124.447L323.972 169.178L260.633 116.15L270.581 95.0541Z" fill="black"/>
<path d="M314.622 84.1439L397.294 103.263L361.923 178.27L323.776 169.086L339.328 136.107L299.07 117.123L314.622 84.1439Z" fill="#222222"/>
<path d="M314.82 84.2782L247.861 31.3334L232.202 64.54L299.113 117.589L314.82 84.2782Z" fill="#4D4C4C"/>
<path d="M247.868 31.2716L330.539 50.3903L397.52 103.338L314.622 84.1438L247.868 31.2716Z" fill="#4D4C4C"/>
<path d="M54.6553 206.245L102.316 195.919V243.579L54.6553 253.906V206.245Z" fill="black"/>
<path d="M102.316 195.125L54.6552 184.798V232.459L102.316 242.785V195.125Z" fill="#3A3A3A"/>
<path d="M54.6553 206.245L102.316 195.919V243.579L54.6553 253.906V206.245Z" fill="#3A3A3A"/>
<path d="M6.99512 195.125L54.6556 184.798V232.459L6.99512 242.785V195.125Z" fill="black"/>
<path d="M54.6553 206.245L6.99475 195.919V243.579L54.6553 253.906V206.245Z" fill="black"/>
<path d="M6.99512 195.125L54.6556 184.798L102.316 195.522L54.6556 206.246L6.99512 195.125Z" fill="#808080"/>
<circle cx="191.716" cy="173.667" r="14.5867" fill="#0D0D0D"/>
<circle cx="126.744" cy="161.169" r="12.4985" fill="#0D0D0D"/>
</svg>
