<svg width="115" height="210" viewBox="0 0 115 210" fill="none" xmlns="http://www.w3.org/2000/svg">
<ellipse cx="54.8776" cy="204.856" rx="40.7521" ry="4.91702" fill="#AAAFC1"/>
<path d="M52.9526 184.57L63.8249 197.493L51.6885 201.94L47.9164 189.029L52.9526 184.57Z" fill="#FBF7F2"/>
<path d="M51.376 192.939H66.5205L66.5484 202.004H51.4039L51.376 192.939Z" fill="#FBF7F2"/>
<path d="M46.7832 193.639L46.7832 204.91L38.7168 204.879L38.7168 193.608L46.7832 193.639Z" fill="#FBF7F2"/>
<path d="M30.5916 15.2889C30.5916 18.3364 28.1211 20.8068 25.0736 20.8068C22.0261 20.8068 19.5557 18.3364 19.5557 15.2889C19.5557 12.2414 22.0261 9.77094 25.0736 9.77094C28.1211 9.77094 30.5916 12.2414 30.5916 15.2889Z" fill="#E7C368"/>
<path d="M35.1121 9.03965C35.1121 12.0871 32.6416 14.5576 29.5941 14.5576C26.5466 14.5576 24.0762 12.0871 24.0762 9.03965C24.0762 5.99217 26.5466 3.5217 29.5941 3.5217C32.6416 3.5217 35.1121 5.99217 35.1121 9.03965Z" fill="#E7C368"/>
<path d="M30.5916 22.8677C30.5916 25.9152 28.1211 28.3857 25.0736 28.3857C22.0261 28.3857 19.5557 25.9152 19.5557 22.8677C19.5557 19.8202 22.0261 17.3498 25.0736 17.3498C28.1211 17.3498 30.5916 19.8202 30.5916 22.8677Z" fill="#E7C368"/>
<path d="M37.3723 18.8789C37.3723 21.9263 34.9019 24.3968 31.8544 24.3968C28.8069 24.3968 26.3364 21.9263 26.3364 18.8789C26.3364 15.8314 28.8069 13.3609 31.8544 13.3609C34.9019 13.3609 37.3723 15.8314 37.3723 18.8789Z" fill="#E7C368"/>
<path d="M35.929 25.527C35.929 28.5744 33.4585 31.0449 30.411 31.0449C27.3635 31.0449 24.8931 28.5744 24.8931 25.527C24.8931 22.4795 27.3635 20.009 30.411 20.009C33.4585 20.009 35.929 22.4795 35.929 25.527Z" fill="#E7C368"/>
<path d="M42.3435 6.24742C42.3435 9.2949 39.8731 11.7654 36.8256 11.7654C33.7781 11.7654 31.3076 9.2949 31.3076 6.24742C31.3076 3.19993 33.7781 0.729462 36.8256 0.729462C39.8731 0.729462 42.3435 3.19993 42.3435 6.24742Z" fill="#F2CF76"/>
<path d="M49.2381 7.84294C49.2381 10.8904 46.7676 13.3609 43.7201 13.3609C40.6726 13.3609 38.2021 10.8904 38.2021 7.84294C38.2021 4.79545 40.6726 2.32498 43.7201 2.32498C46.7676 2.32498 49.2381 4.79545 49.2381 7.84294Z" fill="#F2CF76"/>
<path d="M51.8098 14.4911C51.8098 17.5386 49.3394 20.009 46.2919 20.009C43.2444 20.009 40.7739 17.5386 40.7739 14.4911C40.7739 11.4436 43.2444 8.97311 46.2919 8.97311C49.3394 8.97311 51.8098 11.4436 51.8098 14.4911Z" fill="#F2CF76"/>
<path d="M45.0232 18.8789C45.0232 21.9263 42.5527 24.3968 39.5053 24.3968C36.4578 24.3968 33.9873 21.9263 33.9873 18.8789C33.9873 15.8314 36.4578 13.3609 39.5053 13.3609C42.5527 13.3609 45.0232 15.8314 45.0232 18.8789Z" fill="#E7C368"/>
<path d="M42.3435 26.5073C42.3435 29.5548 39.8731 32.0252 36.8256 32.0252C33.7781 32.0252 31.3076 29.5548 31.3076 26.5073C31.3076 23.4598 33.7781 20.9893 36.8256 20.9893C39.8731 20.9893 42.3435 23.4598 42.3435 26.5073Z" fill="#E7C368"/>
<path d="M42.3435 10.9011C42.3435 13.9486 39.8731 16.4191 36.8256 16.4191C33.7781 16.4191 31.3076 13.9486 31.3076 10.9011C31.3076 7.85362 33.7781 5.38315 36.8256 5.38315C39.8731 5.38315 42.3435 7.85362 42.3435 10.9011Z" fill="#E7C368"/>
<path d="M50.5408 21.937C50.5408 24.9845 48.0703 27.455 45.0228 27.455C41.9754 27.455 39.5049 24.9845 39.5049 21.937C39.5049 18.8895 41.9754 16.4191 45.0228 16.4191C48.0703 16.4191 50.5408 18.8895 50.5408 21.937Z" fill="#F2CF76"/>
<path d="M47.7278 12.8466C47.7278 15.8941 45.2573 18.3646 42.2098 18.3646C39.1624 18.3646 36.6919 15.8941 36.6919 12.8466C36.6919 9.79915 39.1624 7.32867 42.2098 7.32867C45.2573 7.32867 47.7278 9.79915 47.7278 12.8466Z" fill="#F2CF76"/>
<path d="M68.2209 110.166C66.1621 89.3022 47.2879 99.1131 39.8816 102.073L47.7782 114.126C47.7782 114.126 45.8425 132.41 53.7396 145.662C47.4143 153.387 47.0708 167.119 47.7782 173.502L50.496 191.537L58.8158 191.537C58.1171 184.985 63.76 158.051 68.2209 145.662C68.2209 145.662 70.2269 130.495 68.2209 110.166Z" fill="#3F3F3F"/>
<path d="M30.7513 113.511C32.81 92.6468 51.6843 102.458 59.0906 105.418L51.194 117.471C51.194 117.471 49.5541 138.179 48.1844 146.337C48.4792 150.635 50.2615 160.583 49.5541 166.966L47.1252 188.88L47.1252 194.882L38.3343 194.882C39.8558 182.879 29.0329 169.189 35.5142 148.94C35.5142 148.94 28.7452 133.84 30.7513 113.511Z" fill="#3F3F3F"/>
<path d="M100.587 46.8012L95.6563 55.9716L84.5031 50.0972L89.4342 40.9269L100.587 46.8012Z" fill="#EAD3C3"/>
<path d="M77.0191 80.013C64.1674 77.8707 52.7093 76.5064 49.346 70.9119C47.9477 64.6308 50.7134 64.2124 58.4013 64.9846C68.095 65.9583 76.8682 63.7202 78.7172 61.8103L82.0247 49.1508C87.3566 49.4987 93.8311 54.2162 96.4018 56.5314C95.2958 65.2513 89.8709 82.1554 77.0191 80.013Z" fill="#8895BE"/>
<path d="M32.6258 106.442C32.6258 106.442 23.6153 69.3855 31.2618 65.0772C38.9084 60.7689 63.0262 54.2955 60.128 61.9673C57.2298 69.6392 77.9642 74.0755 64.4278 88.3794C64.4278 91.5794 67.8718 106.442 67.8718 106.442H32.6258Z" fill="#C2C9E0"/>
<path d="M32.5655 44.5212C32.5655 55.6628 41.4814 64.6949 52.4798 64.6949C63.4781 64.6949 72.394 55.6628 72.394 44.5212C72.394 33.3796 63.4781 24.3476 52.4798 24.3476C41.4814 24.3476 32.5655 33.3796 32.5655 44.5212Z" fill="#EAD3C3"/>
<path d="M41.374 119.68L34.148 112.183L43.1481 103.357L50.3742 110.854L41.374 119.68Z" fill="#EAD3C3"/>
<path d="M16.9474 87.0941C22.9127 75.5108 27.7114 65.0169 34.0658 63.523C40.4738 64.11 40.0276 66.8713 36.9441 73.956C33.0562 82.8891 32.5078 91.9266 33.7617 94.2706L44.8061 101.287C42.8462 106.257 36.3767 110.982 33.3869 112.723C25.4215 109.006 10.9821 98.6774 16.9474 87.0941Z" fill="#8895BE"/>
<path d="M44.991 41.824L47.975 41.9188L47.3329 43.6742L44.991 41.824Z" fill="#3F3F3F"/>
<path d="M68.1824 36.6023L65.7859 38.1065L67.1506 39.2359L68.1824 36.6023Z" fill="#3F3F3F"/>
<path d="M44.9194 44.3065L47.5917 42.9769L47.8593 44.8267L44.9194 44.3065Z" fill="#3F3F3F"/>
<path d="M69.4609 38.3607L66.6475 38.6546L67.3732 40.2705L69.4609 38.3607Z" fill="#3F3F3F"/>
<path d="M60.5161 55.4565C60.5161 56.9042 55.0488 59.8342 53.6008 59.8342C52.1529 59.8342 49.2393 55.8741 49.2393 54.4265C49.2393 52.9788 53.7197 54.4266 55.1677 54.4266C56.6156 54.4266 60.5161 54.0089 60.5161 55.4565Z" fill="#E5C6B0"/>
<path d="M58.9771 38.1065L63.5403 48.5024L58.9771 50.1018L58.9771 38.1065Z" fill="#E6C6B0"/>
<path d="M35.8773 45.4093C36.0768 48.0462 34.1009 50.337 31.4641 50.5259C28.8273 50.7148 26.528 48.7303 26.3285 46.0934C26.129 43.4564 28.1048 41.1656 30.7417 40.9767C33.3785 40.7878 35.6778 42.7724 35.8773 45.4093Z" fill="#E6C6B0"/>
<path d="M35.5207 45.4353C36.0202 47.2458 35.8344 51.9974 34.025 52.4888C32.2157 52.9803 28.1561 49.7822 27.6567 47.9717C27.1572 46.1612 30.407 46.4238 32.2164 45.9324C34.0257 45.441 35.0213 43.6248 35.5207 45.4353Z" fill="#E6C6B0"/>
<path d="M36.9349 47.0452C34.2636 42.0392 42.1544 29.395 37.8526 27.7957L31.0846 27.5672C23.6282 31.5656 25.938 44.6377 28.0028 42.3529C29.6547 40.525 31.9878 43.3604 33.2879 43.5508L35.531 49.2334L36.9349 47.0452Z" fill="#E7C368"/>
<path d="M50.3538 39.0136C49.201 39.0863 47.422 39.2846 47.3167 39.2915C44.3275 39.4879 44.081 40.6605 42.3159 43.5005C43.6199 36.6381 47.0099 37.4679 50.9799 36.9414C52.0066 37.3325 51.4526 38.9442 50.3538 39.0136Z" fill="#9E8568"/>
<path d="M63.3433 36.4821C64.0044 36.2671 65.3931 35.557 66.062 35.5182C67.5415 35.4324 67.7988 35.2847 69.4162 36.4821C67.4027 33.1007 66.8618 34.3086 62.5158 34.9867C62.0281 35.4333 62.7132 36.687 63.3433 36.4821Z" fill="#9E8568"/>
<path d="M69.1522 33.6355C62.9117 23.5906 46.3406 26.9916 38.8351 29.9477L30.5913 28.1916C37.5943 18.533 49.0295 19.5866 51.4229 18.972C53.3377 18.4803 55.7074 20.0549 56.653 20.9037C57.2912 20.0608 59.5192 21.2549 60.5534 21.9574C61.759 21.3954 63.656 22.7769 64.4538 23.5379C65.8012 23.6081 66.3744 25.3233 66.4926 26.172C67.84 25.9613 68.8271 28.133 69.1522 29.2452C70.7125 30.5799 69.8023 32.7282 69.1522 33.6355Z" fill="#F2CF76"/>
<path d="M43.4813 53.1039C43.2831 53.4856 42.813 53.6345 42.4312 53.4363C42.0494 53.2381 42.5928 53.1273 42.791 52.7455C42.9892 52.3637 42.7672 51.8555 43.1489 52.0537C43.5307 52.2519 43.6795 52.7221 43.4813 53.1039Z" fill="#E5C6B0"/>
<path d="M51.5813 42.9769C51.5813 44.2704 50.5327 45.319 49.2391 45.319C47.9456 45.319 46.897 44.2704 46.897 42.9769C46.897 41.6833 47.9456 40.6347 49.2391 40.6347C50.5327 40.6347 51.5813 41.6833 51.5813 42.9769Z" fill="#3F3F3F"/>
<path d="M67.6835 39.373C67.6835 40.5171 66.7561 41.4445 65.612 41.4445C64.468 41.4445 63.5405 40.5171 63.5405 39.373C63.5405 38.229 64.468 37.3015 65.612 37.3015C66.7561 37.3015 67.6835 38.229 67.6835 39.373Z" fill="#3F3F3F"/>
<path d="M34.7432 197.348H50.7954L50.7579 207.132H34.7056L34.7432 197.348Z" fill="#FBF7F2"/>
</svg>
