<svg width="1152" height="258" viewBox="0 0 1152 258" fill="none" xmlns="http://www.w3.org/2000/svg">
<g clip-path="url(#clip0)">
<path d="M35.5874 12.5087C64.652 27.7403 46.8576 36.8106 0 36.8106V115.267H1152V36.8106C1110.29 36.8106 1064.71 14.0019 1037.76 5.5852C1011.35 -2.66443 966.214 -2.88421 995.587 12.5087C1024.65 27.7402 1006.86 36.8104 960.001 36.8106C918.286 36.8106 872.714 14.0019 845.765 5.5852C819.35 -2.66443 774.215 -2.88421 803.587 12.5087C832.652 27.7402 814.858 36.8104 768.001 36.8106C726.287 36.8106 680.714 14.0019 653.765 5.5852C627.351 -2.66443 582.216 -2.88421 611.588 12.5087C640.652 27.7402 622.859 36.8104 576.002 36.8106C534.288 36.8106 488.715 14.0019 461.766 5.5852C435.352 -2.66443 390.216 -2.88421 419.589 12.5087C448.653 27.7403 430.859 36.8106 384.001 36.8106C342.286 36.8106 296.714 14.0019 269.765 5.5852C243.351 -2.66443 198.215 -2.88421 227.588 12.5087C256.652 27.7403 238.858 36.8106 192.001 36.8106C150.286 36.8106 104.714 14.0019 77.7646 5.5852C51.3503 -2.66443 6.21503 -2.88421 35.5874 12.5087Z" fill="#FA569B"/>
<path d="M-81.7261 70.1422C-52.6615 85.3738 -70.4559 94.4442 -117.313 94.4442V172.901H1034.69V94.4442C992.972 94.4442 947.4 71.6354 920.45 63.2187C894.036 54.9691 848.901 54.7493 878.273 70.1422C907.338 85.3737 889.544 94.444 842.687 94.4442C800.973 94.4442 755.4 71.6354 728.451 63.2187C702.037 54.9691 656.902 54.7493 686.274 70.1422C715.338 85.3737 697.544 94.444 650.688 94.4442C608.974 94.4442 563.401 71.6354 536.452 63.2187C510.038 54.9691 464.902 54.7493 494.275 70.1422C523.339 85.3737 505.545 94.444 458.689 94.4442C416.974 94.4442 371.402 71.6354 344.452 63.2187C318.038 54.9691 272.903 54.7493 302.275 70.1422C331.34 85.3738 313.545 94.4442 266.687 94.4442C224.973 94.4442 179.4 71.6354 152.451 63.2187C126.037 54.9691 80.9018 54.7493 110.274 70.1422C139.339 85.3738 121.545 94.4442 74.6872 94.4442C32.9728 94.4442 -12.5998 71.6354 -39.5489 63.2187C-65.9632 54.9691 -111.098 54.7493 -81.7261 70.1422Z" fill="#ED3884"/>
<path d="M1070.27 70.1422C1099.34 85.3738 1081.55 94.4442 1034.69 94.4442V172.901H2186.69V94.4442C2144.97 94.4442 2099.4 71.6354 2072.45 63.2187C2046.04 54.9691 2000.9 54.7493 2030.27 70.1422C2059.34 85.3737 2041.54 94.444 1994.69 94.4442C1952.97 94.4442 1907.4 71.6354 1880.45 63.2187C1854.04 54.9691 1808.9 54.7493 1838.27 70.1422C1867.34 85.3737 1849.55 94.444 1802.69 94.4442C1760.97 94.4442 1715.4 71.6354 1688.45 63.2187C1662.04 54.9691 1616.9 54.7493 1646.28 70.1422C1675.34 85.3737 1657.55 94.444 1610.69 94.4442C1568.98 94.4442 1523.4 71.6354 1496.45 63.2187C1470.04 54.9691 1424.9 54.7493 1454.28 70.1422C1483.34 85.3738 1465.55 94.4442 1418.69 94.4442C1376.97 94.4442 1331.4 71.6354 1304.45 63.2187C1278.04 54.9691 1232.9 54.7493 1262.28 70.1422C1291.34 85.3738 1273.55 94.4442 1226.69 94.4442C1184.97 94.4442 1139.4 71.6354 1112.45 63.2187C1086.04 54.9691 1040.9 54.7493 1070.27 70.1422Z" fill="#ED3884"/>
<path d="M35.5874 127.776C64.652 143.007 46.8576 152.078 0 152.078V230.534H1152V152.078C1110.29 152.078 1064.71 129.269 1037.76 120.852C1011.35 112.603 966.214 112.383 995.587 127.776C1024.65 143.007 1006.86 152.078 960.001 152.078C918.286 152.078 872.714 129.269 845.765 120.852C819.35 112.603 774.215 112.383 803.587 127.776C832.652 143.007 814.858 152.078 768.001 152.078C726.287 152.078 680.714 129.269 653.765 120.852C627.351 112.603 582.216 112.383 611.588 127.776C640.652 143.007 622.859 152.078 576.002 152.078C534.288 152.078 488.715 129.269 461.766 120.852C435.352 112.603 390.216 112.383 419.589 127.776C448.653 143.007 430.859 152.078 384.001 152.078C342.286 152.078 296.714 129.269 269.765 120.852C243.351 112.603 198.215 112.383 227.588 127.776C256.652 143.007 238.858 152.078 192.001 152.078C150.286 152.078 104.714 129.269 77.7646 120.852C51.3503 112.603 6.21503 112.383 35.5874 127.776Z" fill="#DB2773"/>
<path d="M-81.7261 185.409C-52.6615 200.641 -70.4559 209.711 -117.313 209.711V288.168H1034.69V209.711C992.972 209.711 947.4 186.902 920.45 178.486C894.036 170.236 848.901 170.016 878.273 185.409C907.338 200.641 889.544 209.711 842.687 209.711C800.973 209.711 755.4 186.902 728.451 178.486C702.037 170.236 656.902 170.016 686.274 185.409C715.338 200.641 697.544 209.711 650.688 209.711C608.974 209.711 563.401 186.902 536.452 178.486C510.038 170.236 464.902 170.016 494.275 185.409C523.339 200.641 505.545 209.711 458.689 209.711C416.974 209.711 371.402 186.902 344.452 178.486C318.038 170.236 272.903 170.016 302.275 185.409C331.34 200.641 313.545 209.711 266.687 209.711C224.973 209.711 179.4 186.902 152.451 178.486C126.037 170.236 80.9018 170.016 110.274 185.409C139.339 200.641 121.545 209.711 74.6872 209.711C32.9728 209.711 -12.5998 186.902 -39.5489 178.486C-65.9632 170.236 -111.098 170.016 -81.7261 185.409Z" fill="#C22064"/>
<path d="M1070.27 185.409C1099.34 200.641 1081.55 209.711 1034.69 209.711V288.168H2186.69V209.711C2144.97 209.711 2099.4 186.902 2072.45 178.486C2046.04 170.236 2000.9 170.016 2030.27 185.409C2059.34 200.641 2041.54 209.711 1994.69 209.711C1952.97 209.711 1907.4 186.902 1880.45 178.486C1854.04 170.236 1808.9 170.016 1838.27 185.409C1867.34 200.641 1849.55 209.711 1802.69 209.711C1760.97 209.711 1715.4 186.902 1688.45 178.486C1662.04 170.236 1616.9 170.016 1646.28 185.409C1675.34 200.641 1657.55 209.711 1610.69 209.711C1568.98 209.711 1523.4 186.902 1496.45 178.486C1470.04 170.236 1424.9 170.016 1454.28 185.409C1483.34 200.641 1465.55 209.711 1418.69 209.711C1376.97 209.711 1331.4 186.902 1304.45 178.486C1278.04 170.236 1232.9 170.016 1262.28 185.409C1291.34 200.641 1273.55 209.711 1226.69 209.711C1184.97 209.711 1139.4 186.902 1112.45 178.486C1086.04 170.236 1040.9 170.016 1070.27 185.409Z" fill="#C22064"/>
</g>
<defs>
<clipPath id="clip0">
<rect width="1152" height="258" fill="white"/>
</clipPath>
</defs>
</svg>
