<?xml version="1.0" standalone="no"?>
<!DOCTYPE svg PUBLIC "-//W3C//DTD SVG 20010904//EN"
 "http://www.w3.org/TR/2001/REC-SVG-20010904/DTD/svg10.dtd">
<svg version="1.0" xmlns="http://www.w3.org/2000/svg"
 width="626.000000pt" height="626.000000pt" viewBox="0 0 626.000000 626.000000"
 preserveAspectRatio="xMidYMid meet">
<metadata>
Created by potrace 1.14, written by Peter Selinger 2001-2017
</metadata>
<g transform="translate(0.000000,626.000000) scale(0.100000,-0.100000)"
fill="#000000" stroke="none">
<path d="M1392 6252 c1 -6 -11 -87 -28 -177 -2 -10 -6 -37 -9 -60 -3 -22 -10
-65 -15 -95 -16 -94 -50 -302 -55 -335 -1 -11 -8 -51 -15 -90 -6 -38 -13 -81
-15 -95 -2 -14 -7 -41 -10 -60 -4 -19 -8 -48 -11 -65 -2 -16 -11 -73 -19 -125
-9 -52 -18 -106 -20 -120 -2 -14 -6 -38 -9 -55 -3 -16 -8 -46 -11 -65 -3 -19
-7 -46 -10 -60 -5 -28 -11 -65 -20 -125 -3 -23 -8 -52 -10 -65 -3 -14 -7 -41
-10 -60 -3 -19 -7 -47 -10 -63 -10 -56 -35 -210 -40 -245 -8 -59 -33 -197 -35
-197 -1 0 -3 -13 -4 -30 -4 -41 -16 -117 -21 -135 -2 -8 -7 -35 -10 -60 -3
-25 -8 -56 -10 -70 -13 -70 -17 -97 -20 -120 -2 -14 -5 -38 -8 -55 -6 -30 -35
-209 -42 -255 -6 -37 -14 -88 -25 -150 -5 -30 -12 -71 -14 -90 -3 -19 -7 -46
-10 -60 -3 -14 -7 -41 -10 -60 -3 -19 -8 -46 -10 -60 -3 -14 -7 -43 -11 -64
-3 -21 -7 -48 -10 -60 -2 -12 -7 -38 -10 -58 -9 -66 -16 -112 -21 -138 -3 -14
-7 -38 -9 -55 -9 -61 -23 -150 -30 -185 -3 -14 -7 -38 -9 -55 -3 -16 -10 -59
-16 -95 -6 -36 -13 -81 -16 -100 -2 -19 -9 -57 -14 -85 -5 -27 -12 -68 -15
-90 -2 -22 -7 -51 -10 -65 -2 -14 -7 -41 -10 -60 -3 -19 -10 -60 -16 -91 -5
-31 -11 -74 -14 -95 -2 -22 -11 -77 -19 -124 -8 -47 -17 -101 -20 -120 -3 -19
-8 -46 -10 -60 -3 -14 -7 -41 -10 -60 -3 -19 -8 -46 -10 -60 -3 -14 -7 -43
-11 -65 -6 -44 -15 -99 -22 -130 -2 -11 -6 -33 -8 -50 -2 -16 -17 -115 -35
-220 -17 -104 -33 -206 -36 -225 -3 -19 -11 -71 -19 -115 -18 -101 -26 -153
-29 -185 -2 -14 -6 -34 -9 -45 -3 -11 -9 -44 -12 -74 -7 -52 -9 -69 -17 -101
-3 -13 54 -15 455 -17 421 -1 457 0 458 15 0 9 2 26 4 37 2 11 7 40 10 65 8
58 15 109 20 140 3 14 9 59 15 101 6 41 12 84 14 95 2 10 7 42 10 69 4 28 10
66 13 85 3 19 7 51 8 70 2 19 4 35 5 35 3 0 9 40 15 90 3 28 8 64 12 80 3 17
7 41 8 55 5 43 15 114 20 140 2 14 7 45 11 70 3 25 7 52 9 60 2 13 72 15 563
15 l560 1 7 -56 c4 -30 9 -66 11 -80 1 -14 5 -38 8 -55 3 -16 8 -50 12 -75 3
-25 7 -56 9 -70 2 -14 7 -49 10 -79 4 -30 8 -57 10 -61 2 -3 6 -37 10 -75 4
-39 9 -73 11 -76 2 -3 6 -30 9 -60 3 -30 8 -61 10 -69 2 -8 7 -37 10 -65 4
-27 8 -59 10 -70 1 -11 6 -42 10 -70 3 -27 8 -61 10 -74 2 -13 7 -45 11 -70
11 -82 15 -104 20 -112 5 -9 1940 -5 1989 4 17 3 53 8 82 12 99 11 253 49 343
85 136 53 280 151 359 244 14 15 30 33 36 40 25 25 95 126 88 126 -4 0 -3 4 2
8 26 18 126 244 141 316 2 10 8 33 13 50 21 64 45 218 58 356 4 47 7 1192 8
2545 l0 2460 -491 2 -491 3 0 -2438 c0 -1340 -4 -2459 -7 -2487 -11 -83 -15
-98 -36 -159 -40 -118 -116 -206 -215 -251 -81 -38 -100 -44 -152 -50 -27 -4
-59 -8 -73 -11 -21 -3 -87 -4 -180 -3 -8 0 -42 -1 -75 -2 -33 -1 -64 0 -70 1
-5 1 -14 2 -20 0 -13 -2 -128 -2 -140 0 -6 1 -14 2 -20 1 -24 -5 -186 -1 -195
4 -5 3 -11 2 -14 -3 -9 -14 -99 2 -102 18 -2 8 -5 26 -8 40 -2 14 -12 70 -20
125 -9 55 -18 111 -21 124 -2 12 -7 42 -9 65 -3 22 -8 52 -11 66 -3 14 -7 40
-10 57 -3 18 -7 48 -10 65 -3 18 -6 42 -9 53 -2 11 -7 45 -11 75 -4 30 -9 64
-12 75 -8 36 -12 59 -27 160 -9 55 -18 111 -20 125 -8 43 -25 143 -30 180 -3
19 -8 46 -11 60 -4 24 -7 41 -20 135 -3 22 -8 51 -10 65 -3 14 -8 41 -11 60
-3 19 -10 62 -16 95 -12 73 -16 97 -23 154 -3 24 -7 46 -9 50 -2 3 -7 30 -11
60 -4 30 -9 63 -11 75 -9 43 -14 74 -19 110 -2 21 -6 46 -9 55 -3 9 -7 36 -10
61 -6 45 -12 82 -21 130 -3 14 -7 43 -11 65 -8 58 -10 74 -39 245 -14 85 -27
169 -29 185 -2 17 -6 41 -10 55 -3 14 -8 39 -10 55 -2 17 -11 75 -20 130 -10
55 -19 111 -21 125 -10 69 -29 183 -41 250 -2 14 -7 45 -10 69 -3 25 -7 48 -9
51 -2 3 -7 33 -10 65 -4 33 -9 63 -11 66 -1 3 -6 28 -10 55 -3 27 -8 58 -10
69 -7 32 -12 67 -19 110 -3 23 -7 50 -9 60 -3 18 -7 39 -22 140 -3 17 -7 44
-11 60 -3 17 -7 39 -8 50 -13 83 -17 106 -25 155 -5 30 -12 71 -15 90 -3 19
-10 60 -15 90 -5 30 -12 71 -14 90 -3 19 -9 58 -14 85 -5 28 -10 57 -10 65 0
8 -3 26 -6 40 -2 14 -8 43 -11 65 -4 22 -9 54 -11 70 -3 17 -7 41 -10 55 -2
14 -7 43 -10 65 -3 22 -8 51 -10 65 -18 95 -32 184 -33 207 -1 9 -159 12 -671
12 -368 1 -669 -3 -668 -7z m639 -1094 c0 -7 2 -22 5 -33 2 -11 6 -40 9 -65 3
-25 8 -54 10 -65 2 -11 7 -45 11 -75 12 -102 22 -174 29 -210 3 -14 7 -45 10
-70 7 -54 14 -106 19 -140 2 -14 7 -48 10 -75 4 -28 9 -59 11 -70 2 -11 7 -40
10 -65 3 -25 7 -56 9 -70 8 -43 15 -93 21 -146 3 -28 8 -61 10 -75 3 -13 8
-44 10 -69 9 -77 16 -124 20 -140 2 -8 6 -35 9 -60 3 -25 8 -54 10 -65 2 -11
7 -49 12 -85 4 -36 8 -67 9 -70 1 -3 5 -34 9 -70 5 -36 10 -74 12 -85 2 -11 6
-38 9 -60 3 -22 8 -58 11 -80 4 -22 8 -51 9 -65 2 -14 6 -41 9 -60 3 -19 8
-51 10 -70 11 -84 26 -187 30 -205 2 -11 7 -49 12 -85 4 -36 8 -67 9 -70 1 -3
5 -32 9 -65 4 -32 10 -68 12 -80 2 -11 6 -40 9 -65 9 -77 17 -133 31 -214 4
-26 9 -62 17 -141 2 -19 -5 -20 -435 -20 -287 0 -438 3 -439 10 -1 5 -1 12 -1
15 1 22 27 212 37 270 2 14 7 48 10 75 3 28 8 65 11 83 2 17 6 47 8 65 3 17 8
55 11 82 7 54 12 86 20 125 2 13 7 51 10 83 3 33 10 80 14 106 5 25 9 53 9 61
0 8 3 30 6 48 5 31 23 163 30 219 2 16 11 78 20 139 9 61 18 126 21 145 2 19
6 52 10 74 8 54 15 102 21 150 2 22 7 51 9 65 2 14 7 49 10 79 4 30 8 62 10
71 2 9 6 41 10 70 4 29 8 61 10 70 2 9 6 41 10 71 3 30 8 65 10 79 3 21 16
111 30 215 2 11 6 40 10 65 9 57 13 93 20 155 3 28 8 63 11 78 6 30 7 37 19
131 7 57 11 85 15 96 2 6 6 37 8 73 2 26 21 39 23 15z"/>
</g>
</svg>
