<svg width="225" height="461" viewBox="0 0 225 461" fill="none" xmlns="http://www.w3.org/2000/svg">
<path d="M0.362305 429.804L112.583 460.454V277.748L0.362305 247.097V429.804Z" fill="#585858"/>
<path d="M224.802 429.804L112.582 460.454V277.748L224.802 247.097V429.804Z" fill="#313131"/>
<path d="M112.426 222.399L224.802 247.097L112.426 277.812L0.050293 247.097L112.426 222.399Z" fill="#8A8A8A"/>
<path fill-rule="evenodd" clip-rule="evenodd" d="M192.907 156.196L192.974 156.431C192.91 156.408 192.846 156.385 192.781 156.362C192.739 156.417 192.697 156.471 192.655 156.526L192.588 156.29C173.047 149.013 140.192 114.003 135.833 73.702C146.957 91.1527 171.893 125.163 183.044 122.27C193.985 118.646 197.125 76.3636 197.325 55.5763C214.881 91.9871 205.578 139.424 192.907 156.196Z" fill="#EEEEEE"/>
<path d="M155.781 45.4433C160.918 46.718 163.018 44.4936 164.232 44.1077L162.921 45.4109C160.785 47.6187 155.172 46.0289 151.221 45.464C151.023 45.4357 154.387 45.0974 155.781 45.4433Z" fill="#EEEEEE"/>
<path d="M163.284 41.5833C153.557 38.5546 152.056 42.9236 151.053 44.1669C151.374 40.9761 153.915 39.2492 154.316 39.1682C155.489 38.4321 159.524 38.8419 164.594 39.3402C165.693 39.4482 165.22 40.5236 164.692 41.2361C164.366 41.6754 163.805 41.7456 163.284 41.5833Z" fill="#EEEEEE"/>
<path d="M154.381 11.3812L158.284 20.2265C156.777 22.1891 151.219 25.6605 141.038 23.845C130.857 22.0295 130.164 18.1804 131.09 16.4829C127.081 14.2313 126.176 11.3574 126.224 10.2018C122.187 8.64361 121.395 3.05409 121.504 0.454102L154.381 11.3812Z" fill="#EEEEEE"/>
<path d="M125.684 19.8857L130.993 31.9033C128.948 34.5678 121.402 39.2779 107.574 36.8028C93.7462 34.3278 92.801 29.0992 94.0569 26.7943C88.6111 23.7325 87.3791 19.8281 87.4438 18.2586C81.9592 16.1386 80.8793 8.54588 81.0249 5.01453L125.684 19.8857Z" fill="#EEEEEE"/>
<path fill-rule="evenodd" clip-rule="evenodd" d="M168.191 25.8978C141.264 2.66448 108.503 25.4236 120.02 57.2251H130.24L140.743 67.8531C142.411 66.5962 159.216 60.2808 167.056 57.6993V49.6253L150.024 53.0856V40.8923C157.839 36.9227 164.997 34.6418 170.019 33.3027C170.06 34.5954 169.977 36.1435 169.904 37.4938C169.857 38.385 169.814 39.1901 169.814 39.7787C170.158 40.2604 170.744 41.7856 171.432 43.5762C172.468 46.2764 173.737 49.5801 174.761 50.8186C176.919 53.4279 172.4 55.3294 170.168 55.4322H169.814C169.923 55.4381 170.042 55.438 170.168 55.4322H177.6V47.0287C175.77 48.1126 172.351 45.2677 171.623 32.8876C172.452 32.6792 173.203 32.4996 173.869 32.3442L172.165 25.1765L168.191 25.8978ZM131.76 47.5002C133.193 47.5002 134.355 46.3199 134.355 44.8638C134.355 43.4078 133.193 42.2274 131.76 42.2274C130.327 42.2274 129.165 43.4078 129.165 44.8638C129.165 46.3199 130.327 47.5002 131.76 47.5002Z" fill="#EEEEEE"/>
<path fill-rule="evenodd" clip-rule="evenodd" d="M102.63 111.009C100.398 95.189 115.231 81.5555 118.476 78.741C121.794 75.8641 125.68 66.2082 125.134 60.191H120.344C118.506 61.9486 101.755 64.3445 48.8092 62.2354C-17.3729 59.599 -7.31578 115.952 26.7485 115.622C12.3118 89.0265 49.8041 89.8486 39.2388 118.356C31.9755 137.955 78.5642 154.913 102.63 111.009ZM109.601 94.6053C110.82 93.4769 112.712 92.6215 115.64 92.5539C120.398 92.4441 126.963 95.9557 132.186 102.44C132.433 102.747 132.697 103.063 132.971 103.392C135.942 106.947 140.195 112.037 138.674 124.191C143.056 113.266 138.341 98.1196 134.828 86.8315C132.618 79.7314 130.883 74.1578 132.186 72.1219L137.701 69.2536L128.455 60.191H128.42C128.938 64.4507 128.387 73.3994 119.777 81.6115C114.561 86.5866 111.401 90.9283 109.601 94.6053Z" fill="#EEEEEE"/>
<ellipse cx="112.426" cy="247.097" rx="44.6819" ry="7.82841" fill="#585858"/>
</svg>
