<svg width="225" height="461" viewBox="0 0 225 461" fill="none" xmlns="http://www.w3.org/2000/svg">
<path d="M0.362305 429.818L112.583 460.468V277.762L0.362305 247.112V429.818Z" fill="#585858"/>
<path d="M224.802 429.818L112.582 460.468V277.762L224.802 247.112V429.818Z" fill="#313131"/>
<path d="M112.426 222.413L224.802 247.112L112.426 277.827L0.050293 247.112L112.426 222.413Z" fill="#8A8A8A"/>
<path fill-rule="evenodd" clip-rule="evenodd" d="M192.907 156.211L192.974 156.446C192.91 156.423 192.846 156.399 192.781 156.376C192.739 156.431 192.697 156.486 192.655 156.54L192.588 156.305C173.047 149.027 140.192 114.017 135.833 73.7163C146.957 91.1669 171.893 125.177 183.044 122.284C193.985 118.66 197.125 76.3779 197.325 55.5906C214.881 92.0014 205.578 139.438 192.907 156.211Z" fill="#B99DDD"/>
<path d="M155.407 44.7537C160.35 42.8589 162.706 44.8092 163.959 45.0433L162.498 43.9107C160.107 41.9813 154.731 44.2471 150.879 45.292C150.686 45.3444 154.066 45.2678 155.407 44.7537Z" fill="#B99DDD"/>
<path d="M163.284 41.5975C153.557 38.5688 152.056 42.9378 151.053 44.1811C151.374 40.9904 153.915 39.2634 154.316 39.1825C155.489 38.4464 159.524 38.8561 164.594 39.3544C165.693 39.4625 165.22 40.5378 164.692 41.2503C164.366 41.6897 163.805 41.7598 163.284 41.5975Z" fill="#B99DDD"/>
<path d="M154.381 11.3954L158.284 20.2407C156.777 22.2034 151.219 25.6748 141.038 23.8593C130.857 22.0438 130.164 18.1947 131.09 16.4971C127.081 14.2456 126.176 11.3716 126.224 10.2161C122.187 8.65789 121.395 3.06837 121.504 0.468384L154.381 11.3954Z" fill="#B99DDD"/>
<path d="M125.684 19.8999L130.993 31.9176C128.948 34.5821 121.402 39.2922 107.574 36.8171C93.7462 34.3421 92.801 29.1135 94.0569 26.8086C88.6111 23.7468 87.3791 19.8424 87.4438 18.2729C81.9592 16.1529 80.8793 8.56016 81.0249 5.02881L125.684 19.8999Z" fill="#B99DDD"/>
<path fill-rule="evenodd" clip-rule="evenodd" d="M168.191 25.9121C141.264 2.67876 108.503 25.4378 120.02 57.2394H130.24L140.743 67.8673C142.411 66.6105 159.216 60.295 167.056 57.7136V49.6396L150.024 53.0999V40.9066C157.839 36.937 164.997 34.656 170.019 33.317C170.06 34.6096 169.977 36.1578 169.904 37.508C169.857 38.3993 169.814 39.2044 169.814 39.7929C170.158 40.2747 170.744 41.7999 171.432 43.5904C172.468 46.2907 173.737 49.5944 174.761 50.8328C176.919 53.4422 172.4 55.3437 170.168 55.4465H169.814C169.923 55.4524 170.042 55.4523 170.168 55.4465H177.6V47.043C175.77 48.1269 172.351 45.282 171.623 32.9019C172.452 32.6935 173.203 32.5139 173.869 32.3585L172.165 25.1908L168.191 25.9121ZM131.76 47.5145C133.193 47.5145 134.355 46.3342 134.355 44.8781C134.355 43.4221 133.193 42.2417 131.76 42.2417C130.327 42.2417 129.165 43.4221 129.165 44.8781C129.165 46.3342 130.327 47.5145 131.76 47.5145Z" fill="#B99DDD"/>
<path fill-rule="evenodd" clip-rule="evenodd" d="M102.63 111.023C100.398 95.2033 115.231 81.5698 118.476 78.7553C121.794 75.8784 125.68 66.2225 125.134 60.2053H120.344C118.506 61.9629 101.755 64.3588 48.8092 62.2497C-17.3729 59.6133 -7.31578 115.966 26.7485 115.637C12.3118 89.0408 49.8041 89.8629 39.2388 118.371C31.9755 137.969 78.5642 154.927 102.63 111.023ZM109.601 94.6196C110.82 93.4912 112.712 92.6358 115.64 92.5682C120.398 92.4584 126.963 95.97 132.186 102.455C132.433 102.762 132.697 103.077 132.971 103.406C135.942 106.961 140.195 112.052 138.674 124.205C143.056 113.281 138.341 98.1339 134.828 86.8458C132.618 79.7457 130.883 74.1721 132.186 72.1362L137.701 69.2679L128.455 60.2053H128.42C128.938 64.465 128.387 73.4137 119.777 81.6258C114.561 86.6009 111.401 90.9426 109.601 94.6196Z" fill="#B99DDD"/>
<ellipse cx="112.426" cy="247.112" rx="44.6819" ry="7.82841" fill="#585858"/>
<circle cx="159.63" cy="45.5248" r="2.28125" fill="#B99DDD"/>
</svg>
