<svg width="187" height="380" viewBox="0 0 187 380" fill="none" xmlns="http://www.w3.org/2000/svg">
<path fill-rule="evenodd" clip-rule="evenodd" d="M159.71 128.989L159.766 129.182C159.713 129.163 159.66 129.144 159.607 129.125C159.572 129.17 159.537 129.215 159.503 129.26L159.447 129.066C143.313 123.058 116.185 94.1511 112.586 60.8752C121.772 75.2855 142.365 103.372 151.57 100.975C160.601 97.9767 163.194 63.071 163.359 45.9094C177.854 75.9732 170.172 115.141 159.71 128.989Z" fill="#5600C3"/>
<path d="M128.748 36.9617C132.83 35.3972 134.775 37.0075 135.809 37.2009L134.603 36.2657C132.629 34.6726 128.191 36.5434 125.01 37.4062C124.85 37.4495 127.641 37.3862 128.748 36.9617Z" fill="#5600C3"/>
<path d="M135.112 34.3126C127.206 31.8971 125.977 35.4684 125.154 36.489C125.418 33.8545 127.517 32.4286 127.848 32.3617C128.816 31.754 132.148 32.0923 136.334 32.5037C137.18 32.587 136.897 33.3655 136.501 33.9473C136.193 34.3993 135.634 34.4721 135.112 34.3126Z" fill="#5600C3"/>
<path d="M127.9 9.41879L131.123 16.7221C129.879 18.3426 125.289 21.2088 116.883 19.7098C108.477 18.2108 107.905 15.0328 108.669 13.6311C105.36 11.7721 104.612 9.39915 104.652 8.44505C101.319 7.15849 100.665 2.54339 100.755 0.396667L127.9 9.41879Z" fill="#5600C3"/>
<path d="M104.207 16.4407L108.59 26.3634C106.902 28.5633 100.671 32.4523 89.254 30.4087C77.8366 28.3652 77.0562 24.0481 78.0931 22.1449C73.5967 19.617 72.5795 16.3932 72.6329 15.0973C68.1044 13.3469 67.2128 7.07781 67.333 4.16208L104.207 16.4407Z" fill="#5600C3"/>
<path fill-rule="evenodd" clip-rule="evenodd" d="M139.304 21.4047C117.072 2.22173 90.022 21.0132 99.5311 47.2707H107.969L116.641 56.0459C118.019 55.0082 131.894 49.7937 138.367 47.6623V40.9959L124.304 43.8529V33.7852C130.757 30.5079 136.667 28.6246 140.813 27.519C140.846 28.5862 140.778 29.8643 140.718 30.9792C140.679 31.715 140.643 32.3798 140.643 32.8657C140.928 33.2635 141.411 34.5228 141.979 36.0011L141.979 36.0012C142.835 38.2307 143.883 40.9585 144.728 41.981C146.51 44.1355 142.779 45.7055 140.936 45.7904H140.643C140.734 45.7953 140.832 45.7952 140.936 45.7904H147.072V38.8519C145.562 39.7468 142.738 37.3979 142.137 27.1762C142.822 27.004 143.443 26.8557 143.992 26.7274L142.586 20.8092L139.304 21.4047ZM109.223 39.2412C110.407 39.2412 111.366 38.2666 111.366 37.0644C111.366 35.8622 110.407 34.8876 109.223 34.8876C108.04 34.8876 107.081 35.8622 107.081 37.0644C107.081 38.2666 108.04 39.2412 109.223 39.2412Z" fill="#5600C3"/>
<path fill-rule="evenodd" clip-rule="evenodd" d="M85.1724 91.6774C83.3298 78.6158 95.5762 67.3596 98.2562 65.0358C100.996 62.6604 104.204 54.6878 103.753 49.7196H99.7977C98.2798 51.1708 84.449 53.149 40.7334 51.4076C-13.9112 49.2308 -5.60733 95.7597 22.5185 95.4876C10.5985 73.5282 41.5548 74.207 32.8314 97.745C26.8342 113.927 65.3019 127.929 85.1724 91.6774ZM90.9284 78.1332C91.935 77.2021 93.4967 76.4965 95.9136 76.4407C99.8423 76.35 105.262 79.2494 109.575 84.6036C109.779 84.857 109.997 85.1176 110.223 85.389C112.676 88.3242 116.188 92.5275 114.932 102.562C118.55 93.5423 114.657 81.0361 111.756 71.7159C109.931 65.8535 108.499 61.2516 109.575 59.5706L114.128 57.2023L106.494 49.7196L106.466 49.7196C106.894 53.2367 106.439 60.6254 99.33 67.4058C95.0237 71.5131 92.415 75.0975 90.9284 78.1332Z" fill="#5600C3"/>
<path d="M0.353516 354.707L92.9606 380.001V229.227L0.353516 203.933V354.707Z" fill="#F5B331"/>
<path d="M185.566 354.707L92.9594 380.001V229.227L185.566 203.933V354.707Z" fill="#DF9E1F"/>
<path d="M92.8314 183.551L185.567 203.933L92.8314 229.28L0.0957031 203.933L92.8314 183.551Z" fill="#DADFEF"/>
<path d="M93.2601 183.266L186.046 203.659L93.2601 229.02L0.474609 203.659L93.2601 183.266Z" fill="#FFC85F"/>
<ellipse cx="93.1044" cy="203.933" rx="48.9013" ry="6.46021" fill="#DF9E1F"/>
<circle cx="132.235" cy="37.7233" r="1.88356" fill="#5600C3"/>
</svg>
