<svg width="187" height="380" viewBox="0 0 187 380" fill="none" xmlns="http://www.w3.org/2000/svg">
<path d="M135.993 34.2943C128.092 31.8804 126.863 35.4496 126.04 36.4696C126.305 33.8365 128.402 32.4114 128.733 32.3446C129.701 31.7371 133.03 32.0752 137.214 32.4865C138.06 32.5697 137.777 33.3475 137.382 33.9289C137.074 34.381 136.515 34.4538 135.993 34.2943Z" fill="#797F98"/>
<path d="M137.675 37.7578C137.62 37.7578 136.439 37.3344 136.096 36.9906C135.038 36.9906 133.3 37.3112 135.064 37.9706C136.789 38.6153 137.675 37.7578 137.675 37.7578Z" fill="#797F98"/>
<path d="M136.235 38.5973C136.181 38.5898 135.069 38.0084 134.776 37.6207C133.729 37.4756 131.963 37.5547 133.62 38.4498C135.24 39.3251 136.235 38.5973 136.235 38.5973Z" fill="#797F98"/>
<path d="M128.718 68.5039C126.999 69.1289 126.07 68.7102 125.211 67.885L115.411 102.441C119.042 103.349 130.265 89.444 137.692 79.4382C140.065 73.8679 134.532 66.3897 128.718 68.5039Z" fill="#797F98"/>
<path d="M1.20996 354.707L93.817 380.001V229.227L1.20996 203.933V354.707Z" fill="#CCD1E2"/>
<path d="M186.423 354.707L93.8158 380.001V229.227L186.423 203.933V354.707Z" fill="#AAAFC1"/>
<path d="M93.6878 183.551L186.423 203.933L93.6878 229.28L0.952148 203.933L93.6878 183.551Z" fill="#DADFEF"/>
<path fill-rule="evenodd" clip-rule="evenodd" d="M115.319 165.012L115.205 165.178C115.186 165.125 115.167 165.072 115.148 165.019C115.091 165.021 115.034 165.023 114.977 165.025L115.091 164.858C109.417 148.613 114.342 109.299 137.642 85.2972C132.42 101.557 123.957 135.314 131.67 140.872C139.737 145.911 168.246 125.628 181.554 114.802C167.678 145.137 132.648 164.222 115.319 165.012Z" fill="#797F98"/>
<path d="M129.465 37.6223C135.642 38.546 135.242 35.4691 135.371 34.4118L136.081 37.006C133.901 39.7242 130.2 38.5379 126.445 37.6223C126.284 37.5832 128.943 37.5441 129.465 37.6223Z" fill="#797F98"/>
<path d="M128.309 9.41398L131.53 16.7134C130.287 18.333 125.7 21.1977 117.298 19.6995C108.897 18.2013 108.325 15.0249 109.089 13.6241C105.781 11.766 105.034 9.39435 105.074 8.44076C101.742 7.15489 101.089 2.54227 101.179 0.396698L128.309 9.41398Z" fill="#797F98"/>
<path d="M104.63 16.4321L109.01 26.3495C107.323 28.5482 101.096 32.4351 89.6846 30.3927C78.2734 28.3502 77.4933 24.0354 78.5297 22.1333C74.0357 19.6067 73.019 16.3847 73.0724 15.0895C68.5464 13.34 67.6552 7.07426 67.7754 4.1601L104.63 16.4321Z" fill="#797F98"/>
<path fill-rule="evenodd" clip-rule="evenodd" d="M139.707 21.3935C117.486 2.22075 90.4508 21.0021 99.9549 47.2456H108.388L117.056 56.0161C118.432 54.9789 132.3 49.7672 138.77 47.6369V40.9741L124.714 43.8296V33.7673C131.164 30.4916 137.071 28.6094 141.215 27.5043C141.248 28.571 141.18 29.8485 141.12 30.9628L141.12 30.9629C141.081 31.6984 141.045 32.3627 141.045 32.8483C141.33 33.2459 141.813 34.5045 142.38 35.9821L142.38 35.9821C143.236 38.2104 144.283 40.9367 145.128 41.9588C146.909 44.1121 143.18 45.6812 141.338 45.7661H141.045C141.136 45.7709 141.234 45.7709 141.338 45.7661H147.471V38.8313C145.961 39.7258 143.139 37.3781 142.538 27.1617C143.222 26.9897 143.843 26.8415 144.392 26.7132L142.987 20.7983L139.707 21.3935ZM109.643 39.2204C110.826 39.2204 111.785 38.2463 111.785 37.0448C111.785 35.8432 110.826 34.8691 109.643 34.8691C108.46 34.8691 107.501 35.8432 107.501 37.0448C107.501 38.2463 108.46 39.2204 109.643 39.2204Z" fill="#797F98"/>
<path fill-rule="evenodd" clip-rule="evenodd" d="M86.1126 83.6121C88.5366 74.1921 96.5721 66.8297 98.6809 65.0011C101.419 62.627 104.625 54.6587 104.175 49.6931H100.222C100.079 49.8306 99.7206 50.1072 99.201 50.5086C94.2382 54.3425 74.5402 69.5598 86.1126 83.6121ZM91.6148 77.5817C92.9177 76.9072 94.4826 76.4428 96.3404 76.3999C100.267 76.3092 105.684 79.2072 109.994 84.5585C110.198 84.8117 110.416 85.0721 110.642 85.3434C113.094 88.2771 116.604 92.4781 115.349 102.507C125.355 96.5807 125.354 83.8935 125.354 74.0385C125.353 66.4594 125.353 60.5555 129.904 60.69C129.904 60.69 118.093 58.2917 115.205 57.4665C112.317 56.6413 106.915 49.6931 106.915 49.6931H106.887C107.314 53.2084 106.859 60.5931 99.7542 67.3699C95.6889 71.2473 93.1373 74.6585 91.6148 77.5817Z" fill="#797F98"/>
<ellipse cx="110.485" cy="203.933" rx="32.377" ry="6.46021" fill="#AAAFC1"/>
<path d="M139.865 60.458C135.01 62.3663 122.722 59.5554 117.771 58.1112C136.893 62.3921 141.825 58.1198 141.825 56.2287C143.392 58.2092 141.339 59.8784 139.865 60.458Z" fill="#797F98"/>
<path d="M141.534 48.2343C139.395 49.3753 138.414 48.6727 134.752 49.6815C135.354 49.6815 137.589 49.2689 139.084 49.6815C140.58 50.0941 142.506 49.8018 142.849 49.2689C142.849 47.7216 143.082 47.4091 141.534 48.2343Z" fill="#797F98"/>
<path d="M141.778 52.6699C143.308 51.5492 142.809 50.0524 142.468 49.5495C143.153 51.4311 140.98 52.6699 140.98 52.6699C140.98 52.6699 138.257 54.4493 141.778 56.2029C141.159 55.5582 138.838 54.8232 141.778 52.6699Z" fill="#797F98"/>
</svg>
