<svg width="226" height="461" viewBox="0 0 226 461" fill="none" xmlns="http://www.w3.org/2000/svg">
<path d="M0.936035 429.519L113.156 460.169V277.463L0.936035 246.813V429.519Z" fill="#F57731"/>
<path d="M225.376 429.519L113.156 460.169V277.463L225.376 246.813V429.519Z" fill="#C35A1F"/>
<path d="M113 222.114L225.376 246.813L113 277.528L0.624023 246.813L113 222.114Z" fill="#FD8746"/>
<path fill-rule="evenodd" clip-rule="evenodd" d="M193.481 155.912L193.548 156.147C193.484 156.124 193.419 156.101 193.355 156.077C193.313 156.132 193.271 156.187 193.229 156.241L193.161 156.006C173.62 148.728 140.765 113.718 136.407 73.4173C147.531 90.868 172.466 124.878 183.617 121.985C194.558 118.361 197.699 76.0789 197.899 55.2916C215.454 91.7024 206.151 139.139 193.481 155.912Z" fill="#5600C3"/>
<path d="M155.981 44.4547C160.924 42.5599 163.28 44.5102 164.532 44.7443L163.071 43.6117C160.681 41.6823 155.305 43.9481 151.453 44.993C151.259 45.0455 154.64 44.9688 155.981 44.4547Z" fill="#5600C3"/>
<path d="M163.858 41.2986C154.131 38.2699 152.63 42.6389 151.627 43.8821C151.948 40.6914 154.489 38.9644 154.89 38.8835C156.063 38.1474 160.098 38.5571 165.168 39.0555C166.267 39.1635 165.793 40.2388 165.265 40.9514C164.94 41.3907 164.379 41.4609 163.858 41.2986Z" fill="#5600C3"/>
<path d="M154.954 11.0964L158.857 19.9417C157.351 21.9044 151.792 25.3758 141.611 23.5603C131.431 21.7448 130.737 17.8957 131.663 16.1981C127.655 13.9466 126.75 11.0726 126.798 9.91708C122.761 8.35888 121.969 2.76936 122.078 0.169373L154.954 11.0964Z" fill="#5600C3"/>
<path d="M126.258 19.6009L131.567 31.6186C129.522 34.2831 121.976 38.9932 108.148 36.5181C94.3202 34.0431 93.375 28.8145 94.6308 26.5095C89.1851 23.4478 87.9531 19.5434 88.0178 17.9739C82.5332 15.8539 81.4533 8.26115 81.5989 4.7298L126.258 19.6009Z" fill="#5600C3"/>
<path fill-rule="evenodd" clip-rule="evenodd" d="M168.765 25.613C141.838 2.37975 109.077 25.1388 120.594 56.9404H130.813L141.317 67.5683C142.985 66.3115 159.79 59.996 167.63 57.4146V49.3406L150.598 52.8009V40.6075C158.413 36.6379 165.571 34.357 170.593 33.018C170.634 34.3106 170.551 35.8587 170.478 37.209C170.431 38.1003 170.387 38.9054 170.387 39.4939C170.732 39.9757 171.318 41.5009 172.006 43.2914C173.042 45.9917 174.311 49.2954 175.335 50.5338C177.493 53.1432 172.974 55.0447 170.742 55.1475H170.387C170.497 55.1534 170.616 55.1533 170.742 55.1475H178.174V46.744C176.344 47.8279 172.925 44.983 172.197 32.6028C173.026 32.3944 173.777 32.2148 174.443 32.0595L172.739 24.8918L168.765 25.613ZM132.334 47.2155C133.767 47.2155 134.929 46.0352 134.929 44.5791C134.929 43.1231 133.767 41.9427 132.334 41.9427C130.901 41.9427 129.739 43.1231 129.739 44.5791C129.739 46.0352 130.901 47.2155 132.334 47.2155Z" fill="#5600C3"/>
<path fill-rule="evenodd" clip-rule="evenodd" d="M103.204 110.724C100.971 94.9043 115.804 81.2708 119.05 78.4563C122.368 75.5793 126.254 65.9235 125.707 59.9062H120.918C119.08 61.6638 102.329 64.0598 49.383 61.9507C-16.7991 59.3143 -6.74205 115.667 27.3223 115.338C12.8855 88.7418 50.3778 89.5639 39.8125 118.072C32.5492 137.67 79.138 154.628 103.204 110.724ZM110.174 94.3206C111.394 93.1922 113.285 92.3368 116.214 92.2692C120.972 92.1594 127.536 95.671 132.759 102.156C133.007 102.463 133.27 102.778 133.545 103.107C136.515 106.662 140.769 111.753 139.248 123.906C143.629 112.982 138.915 97.8349 135.401 86.5468C133.191 79.4466 131.457 73.8731 132.759 71.8372L138.275 68.9689L129.029 59.9062H128.994C129.512 64.166 128.961 73.1147 120.351 81.3268C115.134 86.3019 111.975 90.6436 110.174 94.3206Z" fill="#5600C3"/>
<ellipse cx="113" cy="246.813" rx="44.6819" ry="7.82841" fill="#C35A1F"/>
<circle cx="160.204" cy="45.2258" r="2.28125" fill="#5600C3"/>
</svg>
