<svg width="187" height="381" viewBox="0 0 187 381" fill="none" xmlns="http://www.w3.org/2000/svg">
<path d="M135.877 34.6775C127.976 32.2636 126.747 35.8329 125.924 36.8529C126.188 34.2198 128.286 32.7946 128.617 32.7279C129.585 32.1204 132.914 32.4585 137.098 32.8698C137.944 32.9529 137.661 33.7307 137.265 34.3122C136.958 34.7642 136.399 34.837 135.877 34.6775Z" fill="#5600C3"/>
<path d="M137.559 38.1411C137.504 38.1411 136.323 37.7177 135.979 37.3739C134.922 37.3739 133.184 37.6945 134.948 38.3538C136.673 38.9985 137.559 38.1411 137.559 38.1411Z" fill="#5600C3"/>
<path d="M136.119 38.9806C136.065 38.9731 134.953 38.3917 134.66 38.0039C133.612 37.8589 131.847 37.9379 133.504 38.8331C135.124 39.7084 136.119 38.9806 136.119 38.9806Z" fill="#5600C3"/>
<path d="M128.602 68.8872C126.883 69.5121 125.954 69.0935 125.094 68.2683L115.295 102.825C118.926 103.732 130.149 89.8273 137.576 79.8214C139.949 74.2512 134.416 66.7729 128.602 68.8872Z" fill="#5600C3"/>
<path d="M1.09375 355.091L93.7008 380.384V229.61L1.09375 204.316V355.091Z" fill="#CCD1E2"/>
<path d="M186.307 355.091L93.6996 380.384V229.61L186.307 204.316V355.091Z" fill="#AAAFC1"/>
<path d="M93.5716 183.935L186.307 204.316L93.5716 229.663L0.835938 204.316L93.5716 183.935Z" fill="#DADFEF"/>
<path fill-rule="evenodd" clip-rule="evenodd" d="M115.203 165.395L115.089 165.561C115.07 165.509 115.05 165.455 115.031 165.402C114.974 165.404 114.918 165.406 114.861 165.408L114.975 165.242C109.301 148.996 114.226 109.683 137.526 85.6805C132.303 101.94 123.841 135.698 131.554 141.255C139.621 146.294 168.129 126.011 181.437 115.186C167.562 145.52 132.532 164.605 115.203 165.395Z" fill="#5600C3"/>
<path d="M129.349 38.0056C135.526 38.9293 135.126 35.8524 135.255 34.795L135.965 37.3893C133.785 40.1074 130.084 38.9211 126.329 38.0056C126.168 37.9664 128.826 37.9274 129.349 38.0056Z" fill="#5600C3"/>
<path d="M128.193 9.79725L131.414 17.0966C130.171 18.7163 125.583 21.581 117.182 20.0828C108.781 18.5845 108.209 15.4082 108.973 14.0073C105.665 12.1493 104.918 9.77762 104.958 8.82403C101.626 7.53816 100.973 2.92554 101.062 0.779968L128.193 9.79725Z" fill="#5600C3"/>
<path d="M104.513 16.8154L108.894 26.7327C107.207 28.9315 100.98 32.8184 89.5684 30.7759C78.1572 28.7334 77.3771 24.4186 78.4135 22.5165C73.9195 19.9899 72.9028 16.7679 72.9562 15.4727C68.4302 13.7232 67.539 7.4575 67.6592 4.54333L104.513 16.8154Z" fill="#5600C3"/>
<path fill-rule="evenodd" clip-rule="evenodd" d="M139.591 21.7767C117.37 2.60402 90.3346 21.3854 99.8387 47.6289H108.272L116.939 56.3993C118.316 55.3622 132.184 50.1505 138.654 48.0202V41.3573L124.598 44.2129V34.1506C131.048 30.8749 136.955 28.9926 141.099 27.8876C141.132 28.9543 141.064 30.2318 141.004 31.3461L141.004 31.3462C140.965 32.0816 140.929 32.746 140.929 33.2316C141.214 33.6292 141.697 34.8878 142.264 36.3654L142.264 36.3654C143.12 38.5937 144.167 41.32 145.012 42.342C146.792 44.4953 143.064 46.0645 141.222 46.1494H140.929C141.02 46.1542 141.118 46.1542 141.222 46.1494H147.354V39.2146C145.845 40.109 143.023 37.7614 142.422 27.545C143.106 27.373 143.727 27.2248 144.276 27.0965L142.87 21.1815L139.591 21.7767ZM109.527 39.6037C110.709 39.6037 111.668 38.6296 111.668 37.428C111.668 36.2265 110.709 35.2524 109.527 35.2524C108.344 35.2524 107.385 36.2265 107.385 37.428C107.385 38.6296 108.344 39.6037 109.527 39.6037Z" fill="#5600C3"/>
<path fill-rule="evenodd" clip-rule="evenodd" d="M85.9964 83.9954C88.4204 74.5754 96.4559 67.2129 98.5647 65.3844C101.303 63.0103 104.509 55.042 104.058 50.0764H100.106C99.9624 50.2138 99.6044 50.4905 99.0848 50.8918C94.122 54.7258 74.424 69.943 85.9964 83.9954ZM91.4985 77.9649C92.8015 77.2905 94.3664 76.8261 96.2242 76.7832C100.151 76.6925 105.568 79.5904 109.878 84.9417C110.082 85.195 110.3 85.4554 110.526 85.7267C112.977 88.6603 116.488 92.8614 115.233 102.891C125.239 96.964 125.238 84.2768 125.237 74.4218C125.237 66.8427 125.237 60.9388 129.788 61.0733C129.788 61.0733 117.977 58.675 115.089 57.8498C112.2 57.0245 106.799 50.0764 106.799 50.0764H106.77C107.198 53.5916 106.743 60.9764 99.638 67.7532C95.5726 71.6306 93.0211 75.0417 91.4985 77.9649Z" fill="#5600C3"/>
<ellipse cx="110.369" cy="204.316" rx="32.377" ry="6.46021" fill="#AAAFC1"/>
<path d="M139.748 60.8412C134.894 62.7496 122.606 59.9386 117.654 58.4945C136.776 62.7754 141.708 58.5031 141.708 56.612C143.276 58.5925 141.223 60.2616 139.748 60.8412Z" fill="#5600C3"/>
<path d="M141.418 48.6176C139.279 49.7586 138.298 49.056 134.636 50.0647C135.237 50.0647 137.472 49.6521 138.968 50.0647C140.464 50.4774 142.389 50.1851 142.733 49.6521C142.733 48.1048 142.965 47.7923 141.418 48.6176Z" fill="#5600C3"/>
<path d="M141.661 53.0532C143.191 51.9325 142.693 50.4356 142.351 49.9328C143.037 51.8144 140.864 53.0532 140.864 53.0532C140.864 53.0532 138.141 54.8326 141.661 56.5862C141.042 55.9414 138.721 55.2065 141.661 53.0532Z" fill="#5600C3"/>
</svg>
