<svg width="203" height="381" viewBox="0 0 203 381" fill="none" xmlns="http://www.w3.org/2000/svg">
<path fill-rule="evenodd" clip-rule="evenodd" d="M159.446 129.372L159.501 129.566C159.448 129.547 159.395 129.528 159.342 129.508C159.308 129.554 159.273 129.599 159.238 129.643L159.183 129.449C143.048 123.441 115.92 94.5344 112.321 61.2585C121.507 75.6688 142.1 103.755 151.305 101.359C160.337 98.3599 162.929 63.4543 163.094 46.2927C177.59 76.3565 169.908 115.524 159.446 129.372Z" fill="#5600C3"/>
<path d="M128.483 37.345C132.564 35.7805 134.509 37.3908 135.544 37.5841L134.337 36.6489C132.363 35.0559 127.925 36.9267 124.744 37.7895C124.585 37.8327 127.375 37.7695 128.483 37.345Z" fill="#5600C3"/>
<path d="M134.846 34.6959C126.941 32.2804 125.711 35.8517 124.888 36.8722C125.153 34.2377 127.251 32.8118 127.582 32.745C128.551 32.1372 131.882 32.4755 136.068 32.887C136.915 32.9702 136.631 33.7488 136.235 34.3305C135.928 34.7826 135.368 34.8554 134.846 34.6959Z" fill="#5600C3"/>
<path d="M127.634 9.80207L130.857 17.1054C129.613 18.7259 125.023 21.5921 116.618 20.0931C108.212 18.5941 107.639 15.416 108.404 14.0144C105.094 12.1554 104.346 9.78242 104.386 8.82832C101.053 7.54176 100.399 2.92667 100.489 0.779938L127.634 9.80207Z" fill="#5600C3"/>
<path d="M103.942 16.824L108.325 26.7466C106.637 28.9466 100.406 32.8355 88.9888 30.792C77.5715 28.7484 76.791 24.4313 77.828 22.5282C73.3316 20.0002 72.3143 16.7765 72.3678 15.4806C67.8393 13.7301 66.9476 7.46108 67.0679 4.54535L103.942 16.824Z" fill="#5600C3"/>
<path fill-rule="evenodd" clip-rule="evenodd" d="M139.039 21.788C116.806 2.605 89.7563 21.3965 99.2655 47.654H107.703L116.375 56.4292C117.753 55.3915 131.628 50.177 138.101 48.0455V41.3791L124.038 44.2362V34.1685C130.491 30.8911 136.401 29.0079 140.547 27.9023C140.581 28.9695 140.512 30.2476 140.453 31.3624C140.413 32.0983 140.378 32.7631 140.378 33.249C140.662 33.6468 141.146 34.9061 141.713 36.3844L141.714 36.3845C142.57 38.614 143.617 41.3417 144.462 42.3643C146.244 44.5188 142.513 46.0888 140.671 46.1737H140.378C140.468 46.1785 140.566 46.1785 140.671 46.1737H146.806V39.2352C145.296 40.1301 142.473 37.7812 141.871 27.5595C142.556 27.3873 143.177 27.239 143.727 27.1106L142.32 21.1925L139.039 21.788ZM108.958 39.6245C110.141 39.6245 111.101 38.6499 111.101 37.4477C111.101 36.2455 110.141 35.2709 108.958 35.2709C107.774 35.2709 106.815 36.2455 106.815 37.4477C106.815 38.6499 107.774 39.6245 108.958 39.6245Z" fill="#5600C3"/>
<path fill-rule="evenodd" clip-rule="evenodd" d="M84.9072 92.0606C83.0647 78.999 95.3111 67.7428 97.991 65.419C100.73 63.0436 103.939 55.0711 103.488 50.1028H99.5325C98.0146 51.554 84.1839 53.5323 40.4682 51.7909C-14.1763 49.6141 -5.87247 96.1429 22.2534 95.8708C10.3334 73.9115 41.2897 74.5902 32.5662 98.1283C26.5691 114.31 65.0368 128.312 84.9072 92.0606ZM90.6633 78.5165C91.6699 77.5854 93.2316 76.8797 95.6485 76.8239C99.5772 76.7332 104.997 79.6327 109.31 84.9869C109.514 85.2402 109.731 85.5008 109.958 85.7723C112.411 88.7075 115.923 92.9108 114.667 102.945C118.285 93.9255 114.392 81.4194 111.491 72.0991C109.666 66.2368 108.234 61.6349 109.31 59.9538L113.863 57.5856L106.229 50.1028H106.201C106.629 53.62 106.174 61.0087 99.0648 67.7891C94.7585 71.8963 92.1498 75.4807 90.6633 78.5165Z" fill="#5600C3"/>
<path d="M16.4487 355.091L109.056 380.384V229.61L16.4487 204.316V355.091Z" fill="#DADFEF"/>
<path d="M201.662 355.091L109.055 380.384V229.61L201.662 204.316V355.091Z" fill="#C2C9E0"/>
<path d="M108.927 183.935L201.663 204.316L108.927 229.663L16.1914 204.316L108.927 183.935Z" fill="#DADFEF"/>
<path d="M109.356 183.65L202.142 204.042L109.356 229.403L16.5708 204.042L109.356 183.65Z" fill="#E8EDFF"/>
<ellipse cx="109.201" cy="204.316" rx="48.9013" ry="6.46021" fill="#C2C9E0"/>
</svg>
