<svg width="225" height="461" viewBox="0 0 225 461" fill="none" xmlns="http://www.w3.org/2000/svg">
<path d="M0.362305 429.818L112.583 460.468V277.762L0.362305 247.112V429.818Z" fill="#585858"/>
<path d="M224.802 429.818L112.582 460.468V277.762L224.802 247.112V429.818Z" fill="#313131"/>
<path d="M112.426 222.413L224.802 247.112L112.426 277.827L0.050293 247.112L112.426 222.413Z" fill="#8A8A8A"/>
<path fill-rule="evenodd" clip-rule="evenodd" d="M154.798 205.366L154.712 205.595C154.674 205.538 154.636 205.481 154.599 205.424C154.532 205.443 154.466 205.461 154.399 205.48L154.486 205.251C143.165 187.739 137.738 140.035 158.323 105.115C156.816 125.755 156.49 167.925 167.16 172.268C178.099 175.9 205.881 143.871 218.462 127.322C210.783 167.008 174.98 199.487 154.798 205.366Z" fill="#EEEEEE"/>
<path d="M155.781 45.4576C160.918 46.7323 163.018 44.5079 164.232 44.122L162.921 45.4252C160.785 47.6331 155.172 46.0432 151.221 45.4784C151.023 45.45 154.387 45.1118 155.781 45.4576Z" fill="#EEEEEE"/>
<path d="M163.284 41.5977C153.557 38.5689 152.056 42.9379 151.053 44.1812C151.374 40.9905 153.915 39.2635 154.316 39.1826C155.489 38.4465 159.524 38.8562 164.594 39.3545C165.693 39.4626 165.22 40.5379 164.692 41.2505C164.366 41.6898 163.805 41.7599 163.284 41.5977Z" fill="#EEEEEE"/>
<path d="M154.381 11.3955L158.284 20.2408C156.777 22.2034 151.219 25.6749 141.038 23.8594C130.857 22.0438 130.164 18.1948 131.09 16.4972C127.081 14.2457 126.176 11.3717 126.224 10.2161C122.187 8.65795 121.395 3.06843 121.504 0.468445L154.381 11.3955Z" fill="#EEEEEE"/>
<path d="M125.684 19.9L130.993 31.9177C128.948 34.5821 121.402 39.2922 107.574 36.8172C93.7462 34.3422 92.801 29.1135 94.0569 26.8086C88.6111 23.7469 87.3791 19.8425 87.4438 18.273C81.9592 16.1529 80.8793 8.56022 81.0249 5.02887L125.684 19.9Z" fill="#EEEEEE"/>
<path fill-rule="evenodd" clip-rule="evenodd" d="M168.191 25.9121C141.264 2.67882 108.503 25.4379 120.02 57.2394H130.24L140.743 67.8674C142.411 66.6106 159.216 60.2951 167.056 57.7136V49.6397L150.024 53.0999V40.9066C157.839 36.937 164.997 34.6561 170.019 33.3171C170.06 34.6097 169.977 36.1578 169.904 37.5081C169.857 38.3994 169.814 39.2045 169.814 39.793C170.158 40.2748 170.744 41.8 171.432 43.5905C172.468 46.2907 173.737 49.5944 174.761 50.8329C176.919 53.4423 172.4 55.3438 170.168 55.4466H169.814C169.923 55.4525 170.042 55.4524 170.168 55.4466H177.6V47.0431C175.77 48.127 172.351 45.2821 171.623 32.9019C172.452 32.6935 173.203 32.5139 173.869 32.3585L172.165 25.1908L168.191 25.9121ZM131.76 47.5146C133.193 47.5146 134.355 46.3342 134.355 44.8782C134.355 43.4221 133.193 42.2418 131.76 42.2418C130.327 42.2418 129.165 43.4221 129.165 44.8782C129.165 46.3342 130.327 47.5146 131.76 47.5146Z" fill="#EEEEEE"/>
<path fill-rule="evenodd" clip-rule="evenodd" d="M102.63 111.023C100.398 95.2034 115.231 81.5699 118.476 78.7554C121.794 75.8784 125.68 66.2226 125.134 60.2053H120.344C118.506 61.9629 101.755 64.3589 48.8092 62.2498C-17.3729 59.6134 -7.31578 115.966 26.7485 115.637C12.3118 89.0409 49.8041 89.863 39.2388 118.371C31.9755 137.969 78.5642 154.928 102.63 111.023ZM109.601 94.6197C110.82 93.4912 112.712 92.6359 115.64 92.5683C120.398 92.4584 126.963 95.9701 132.186 102.455C132.433 102.762 132.697 103.077 132.971 103.406C135.942 106.961 140.195 112.052 138.674 124.205C142.904 113.658 142.894 100.269 142.886 90.0143C142.88 82.9659 142.876 77.3978 144.25 75.25L137.701 69.2679L128.455 60.2053H128.42C128.938 64.4651 128.387 73.4138 119.777 81.6258C114.561 86.601 111.401 90.9427 109.601 94.6197Z" fill="#EEEEEE"/>
<ellipse cx="113.091" cy="247.112" rx="52.3777" ry="7.82841" fill="#585858"/>
<path d="M168.383 73.25C161.583 75.35 147.883 72.375 141.883 70.625C164.983 74.125 170.758 70.4167 170.758 68.125C172.658 70.525 169.966 72.5417 168.383 73.25Z" fill="#EEEEEE"/>
<path d="M170.406 58.4375C167.814 59.8202 166.625 58.9688 162.188 60.1912C162.917 60.1912 165.625 59.6912 167.438 60.1912C169.25 60.6912 171.583 60.337 172 59.6912C172 57.8162 172.281 57.4375 170.406 58.4375Z" fill="#EEEEEE"/>
<path d="M170.701 63.8125C172.555 62.4545 171.951 60.6406 171.537 60.0312C172.368 62.3114 169.734 63.8125 169.734 63.8125C169.734 63.8125 166.436 65.9688 170.701 68.0938C169.951 67.3125 167.139 66.4219 170.701 63.8125Z" fill="#EEEEEE"/>
</svg>
