<svg width="187" height="381" viewBox="0 0 187 381" fill="none" xmlns="http://www.w3.org/2000/svg">
<path d="M0.44873 355.091L93.0558 380.384V229.61L0.44873 204.316V355.091Z" fill="#DADFEF"/>
<path d="M185.662 355.091L93.0551 380.384V229.61L185.662 204.316V355.091Z" fill="#C2C9E0"/>
<path d="M92.9271 183.934L185.663 204.316L92.9271 229.663L0.191406 204.316L92.9271 183.934Z" fill="#DADFEF"/>
<path d="M93.3563 183.65L186.142 204.042L93.3563 229.403L0.570801 204.042L93.3563 183.65Z" fill="#E8EDFF"/>
<ellipse cx="93.2006" cy="204.316" rx="48.9013" ry="6.46021" fill="#C2C9E0"/>
<path fill-rule="evenodd" clip-rule="evenodd" d="M159.394 129.216L159.449 129.409C159.397 129.39 159.344 129.371 159.291 129.352C159.257 129.397 159.222 129.442 159.187 129.487L159.132 129.293C143.04 123.301 115.981 94.4687 112.392 61.2788C121.554 75.6523 142.095 103.667 151.276 101.275C160.283 98.2821 162.869 63.4684 163.033 46.3517C177.491 76.3378 169.829 115.404 159.394 129.216Z" fill="#5600C3"/>
<path d="M128.511 37.4271C132.581 35.8667 134.522 37.4728 135.553 37.6657L134.35 36.7329C132.381 35.144 127.954 37.0099 124.782 37.8705C124.623 37.9137 127.406 37.8505 128.511 37.4271Z" fill="#5600C3"/>
<path d="M134.856 34.7842C126.973 32.3763 125.747 35.9378 124.925 36.9556C125.189 34.3279 127.282 32.9057 127.613 32.8391C128.579 32.2329 131.901 32.5703 136.076 32.9807C136.92 33.0636 136.639 33.8386 136.245 34.4187C135.937 34.8709 135.378 34.9437 134.856 34.7842Z" fill="#5600C3"/>
<path d="M127.665 9.95555L130.879 17.2399C129.638 18.8562 125.06 21.7151 116.676 20.2199C108.292 18.7248 107.721 15.555 108.484 14.157C105.183 12.3028 104.437 9.93596 104.477 8.98433C101.152 7.7011 100.5 3.09796 100.59 0.956787L127.665 9.95555Z" fill="#5600C3"/>
<path d="M104.034 16.9593L108.406 26.8563C106.722 29.0505 100.508 32.9294 89.1201 30.8911C77.7323 28.8529 76.9538 24.5469 77.9881 22.6488C73.5033 20.1273 72.4887 16.9119 72.542 15.6194C68.0253 13.8735 67.1359 7.62064 67.2559 4.71246L104.034 16.9593Z" fill="#5600C3"/>
<path fill-rule="evenodd" clip-rule="evenodd" d="M139.04 21.9105C116.865 2.77712 89.8853 21.5199 99.3698 47.7095H107.786L116.435 56.462C117.809 55.4269 131.648 50.2259 138.105 48.1V41.4509L124.079 44.3005V34.2589C130.515 30.99 136.409 29.1116 140.545 28.0089C140.578 29.0734 140.51 30.3482 140.45 31.4601C140.411 32.1941 140.375 32.8571 140.375 33.3418C140.659 33.7385 141.142 34.9945 141.708 36.4691L141.708 36.4691C142.562 38.6929 143.606 41.4136 144.45 42.4335C146.227 44.5824 142.506 46.1483 140.668 46.233H140.375C140.466 46.2378 140.564 46.2378 140.668 46.233H146.788V39.3125C145.281 40.2051 142.465 37.8622 141.865 27.667C142.548 27.4953 143.168 27.3473 143.716 27.2193L142.313 21.3165L139.04 21.9105ZM109.037 39.7007C110.218 39.7007 111.175 38.7287 111.175 37.5296C111.175 36.3305 110.218 35.3584 109.037 35.3584C107.857 35.3584 106.9 36.3305 106.9 37.5296C106.9 38.7287 107.857 39.7007 109.037 39.7007Z" fill="#5600C3"/>
<path fill-rule="evenodd" clip-rule="evenodd" d="M85.0488 92.0011C83.211 78.9734 95.4257 67.7463 98.0987 65.4285C100.831 63.0593 104.031 55.1074 103.581 50.152H99.6362C98.1222 51.5994 84.3273 53.5726 40.7248 51.8357C-13.7782 49.6645 -5.49588 96.0729 22.5572 95.8015C10.668 73.899 41.5442 74.576 32.8433 98.0531C26.8617 114.193 65.2298 128.159 85.0488 92.0011ZM90.7899 78.4921C91.7939 77.5634 93.3516 76.8596 95.7622 76.8039C99.6808 76.7134 105.087 79.6054 109.388 84.9457C109.592 85.1984 109.809 85.4583 110.035 85.7291C112.481 88.6567 115.984 92.8491 114.731 102.858C118.34 93.8612 114.457 81.3874 111.564 72.0913C109.744 66.2441 108.315 61.6541 109.388 59.9775L113.93 57.6153L106.316 50.152H106.288C106.714 53.66 106.26 61.0296 99.1697 67.7925C94.8746 71.8891 92.2726 75.4642 90.7899 78.4921Z" fill="#5600C3"/>
</svg>
