<svg width="226" height="461" viewBox="0 0 226 461" fill="none" xmlns="http://www.w3.org/2000/svg">
<path d="M164.189 41.2985C154.462 38.2698 152.962 42.6388 151.958 43.8821C152.279 40.6914 154.82 38.9644 155.222 38.8835C156.395 38.1474 160.429 38.5571 165.499 39.0554C166.598 39.1635 166.125 40.2388 165.597 40.9514C165.271 41.3907 164.71 41.4608 164.189 41.2985Z" fill="#797F98"/>
<path d="M166.059 45.4431C165.992 45.4431 164.561 44.9301 164.145 44.5135C162.863 44.5135 160.757 44.902 162.895 45.701C164.985 46.4822 166.059 45.4431 166.059 45.4431Z" fill="#797F98"/>
<path d="M164.313 46.4605C164.247 46.4514 162.9 45.7469 162.545 45.277C161.276 45.1012 159.136 45.197 161.144 46.2817C163.107 47.3424 164.313 46.4605 164.313 46.4605Z" fill="#797F98"/>
<path d="M155.204 82.701C153.121 83.4583 151.995 82.951 150.954 81.951L139.079 123.826C143.479 124.926 157.079 108.076 166.079 95.951C168.954 89.201 162.249 80.1389 155.204 82.701Z" fill="#797F98"/>
<path d="M0.690918 429.519L112.911 460.169V277.463L0.690918 246.813V429.519Z" fill="#CCD1E2"/>
<path d="M225.131 429.519L112.911 460.169V277.463L225.131 246.813V429.519Z" fill="#AAAFC1"/>
<path d="M112.755 222.114L225.131 246.813L112.755 277.528L0.378906 246.813L112.755 222.114Z" fill="#DADFEF"/>
<path fill-rule="evenodd" clip-rule="evenodd" d="M138.966 199.648L138.828 199.85C138.805 199.786 138.782 199.721 138.759 199.657C138.69 199.659 138.621 199.662 138.552 199.664L138.69 199.463C131.815 179.776 137.782 132.137 166.017 103.051C159.689 122.753 149.435 163.656 158.778 170.394C168.551 176.506 203.101 151.924 219.229 138.805C202.414 175.564 159.965 198.691 138.966 199.648Z" fill="#797F98"/>
<path d="M156.11 45.279C163.595 46.3983 163.11 42.6697 163.266 41.3885L164.127 44.5321C161.486 47.826 157.001 46.3885 152.45 45.279C152.256 45.2316 155.477 45.1843 156.11 45.279Z" fill="#797F98"/>
<path d="M154.709 11.0965L158.612 19.9418C157.106 21.9044 151.547 25.3758 141.366 23.5603C131.186 21.7448 130.492 17.8957 131.418 16.1982C127.41 13.9466 126.504 11.0727 126.553 9.91711C122.515 8.35891 121.724 2.76939 121.833 0.169403L154.709 11.0965Z" fill="#797F98"/>
<path d="M126.013 19.601L131.322 31.6187C129.277 34.2831 121.731 38.9932 107.903 36.5182C94.0751 34.0431 93.1299 28.8145 94.3857 26.5096C88.94 23.4478 87.708 19.5434 87.7727 17.9739C82.2881 15.8539 81.2081 8.26118 81.3538 4.72983L126.013 19.601Z" fill="#797F98"/>
<path fill-rule="evenodd" clip-rule="evenodd" d="M168.52 25.6131C141.593 2.37978 108.832 25.1389 120.349 56.9404H130.568L141.072 67.5684C142.74 66.3115 159.544 59.9961 167.385 57.4146V49.3406L150.352 52.8009V40.6076C158.168 36.638 165.326 34.3571 170.348 33.018C170.388 34.3107 170.306 35.8588 170.233 37.2091C170.185 38.1003 170.142 38.9054 170.142 39.494C170.487 39.9757 171.073 41.5009 171.76 43.2915C172.797 45.9917 174.066 49.2954 175.09 50.5339C177.248 53.1432 172.729 55.0447 170.497 55.1475H170.142C170.252 55.1534 170.371 55.1534 170.497 55.1475H177.928V46.744C176.099 47.8279 172.68 44.983 171.951 32.6029C172.78 32.3945 173.532 32.2149 174.198 32.0595L172.494 24.8918L168.52 25.6131ZM132.089 47.2155C133.522 47.2155 134.684 46.0352 134.684 44.5791C134.684 43.1231 133.522 41.9427 132.089 41.9427C130.655 41.9427 129.493 43.1231 129.493 44.5791C129.493 46.0352 130.655 47.2155 132.089 47.2155Z" fill="#797F98"/>
<path fill-rule="evenodd" clip-rule="evenodd" d="M103.575 101.009C106.512 89.5939 116.249 80.6722 118.805 78.4563C122.123 75.5794 126.008 65.9235 125.462 59.9063H120.673C120.499 60.0728 120.065 60.408 119.435 60.8944C113.421 65.5403 89.5515 83.9805 103.575 101.009ZM110.242 93.7013C111.821 92.884 113.717 92.3212 115.969 92.2692C120.727 92.1594 127.291 95.671 132.514 102.156C132.761 102.463 133.025 102.778 133.3 103.107C136.27 106.662 140.524 111.753 139.003 123.906C151.128 116.724 151.127 101.35 151.127 89.4077C151.126 80.2235 151.126 73.0692 156.641 73.2322C156.641 73.2322 142.329 70.326 138.829 69.326C135.329 68.326 128.783 59.9063 128.783 59.9063H128.749C129.267 64.166 128.715 73.1147 120.105 81.3268C115.179 86.0254 112.087 90.159 110.242 93.7013Z" fill="#797F98"/>
<ellipse cx="133.109" cy="246.813" rx="39.2341" ry="7.82841" fill="#AAAFC1"/>
<path d="M168.711 72.951C162.829 75.2635 147.938 71.8572 141.938 70.1072C165.11 75.2947 171.086 70.1176 171.086 67.826C172.986 70.226 170.498 72.2486 168.711 72.951Z" fill="#797F98"/>
<path d="M170.735 58.1385C168.142 59.5211 166.954 58.6697 162.516 59.8922C163.245 59.8922 165.954 59.3921 167.766 59.8921C169.579 60.3922 171.912 60.038 172.329 59.3921C172.329 57.5171 172.61 57.1385 170.735 58.1385Z" fill="#797F98"/>
<path d="M171.03 63.5135C172.884 62.1555 172.28 60.3416 171.866 59.7322C172.697 62.0123 170.063 63.5135 170.063 63.5135C170.063 63.5135 166.764 65.6697 171.03 67.7947C170.28 67.0135 167.467 66.1228 171.03 63.5135Z" fill="#797F98"/>
</svg>
