<svg width="225" height="461" viewBox="0 0 225 461" fill="none" xmlns="http://www.w3.org/2000/svg">
<path d="M163.86 41.5976C154.134 38.5689 152.633 42.9379 151.63 44.1812C151.95 40.9904 154.492 39.2635 154.893 39.1825C156.066 38.4464 160.101 38.8561 165.17 39.3545C166.27 39.4625 165.796 40.5378 165.268 41.2504C164.943 41.6897 164.382 41.7599 163.86 41.5976Z" fill="white"/>
<path d="M165.73 45.7422C165.663 45.7422 164.233 45.2292 163.816 44.8125C162.535 44.8125 160.428 45.201 162.566 46C164.656 46.7812 165.73 45.7422 165.73 45.7422Z" fill="#EEEEEE"/>
<path d="M163.985 46.7595C163.919 46.7504 162.572 46.0459 162.216 45.576C160.947 45.4002 158.807 45.496 160.815 46.5808C162.779 47.6414 163.985 46.7595 163.985 46.7595Z" fill="#EEEEEE"/>
<path d="M154.875 83C152.792 83.7573 151.667 83.25 150.625 82.25L138.75 124.125C143.15 125.225 156.75 108.375 165.75 96.25C168.625 89.5 161.921 80.438 154.875 83Z" fill="#EEEEEE"/>
<path d="M0.362305 429.818L112.583 460.468V277.762L0.362305 247.112V429.818Z" fill="#4B5578"/>
<path d="M224.802 429.818L112.582 460.468V277.762L224.802 247.112V429.818Z" fill="#363D52"/>
<path d="M112.426 222.413L224.802 247.112L112.426 277.827L0.050293 247.112L112.426 222.413Z" fill="#6E7CAE"/>
<path fill-rule="evenodd" clip-rule="evenodd" d="M138.638 199.947L138.5 200.149C138.476 200.085 138.453 200.02 138.43 199.956C138.361 199.959 138.292 199.961 138.224 199.963L138.362 199.762C131.486 180.076 137.454 132.436 165.689 103.35C159.361 123.052 149.107 163.955 158.45 170.693C168.222 176.805 202.773 152.223 218.9 139.104C202.086 175.863 159.636 198.99 138.638 199.947Z" fill="#EEEEEE"/>
<path d="M155.781 45.5781C163.266 46.6974 162.781 42.9688 162.938 41.6876L163.798 44.8312C161.157 48.1251 156.672 46.6875 152.121 45.5781C151.927 45.5306 155.148 45.4833 155.781 45.5781Z" fill="#EEEEEE"/>
<path d="M154.381 11.3955L158.284 20.2408C156.777 22.2034 151.219 25.6749 141.038 23.8594C130.857 22.0438 130.164 18.1948 131.09 16.4972C127.081 14.2457 126.176 11.3717 126.224 10.2161C122.187 8.65795 121.395 3.06843 121.504 0.468445L154.381 11.3955Z" fill="#EEEEEE"/>
<path d="M125.684 19.9L130.993 31.9177C128.948 34.5821 121.402 39.2922 107.574 36.8172C93.7462 34.3422 92.801 29.1135 94.0569 26.8086C88.6111 23.7469 87.3791 19.8425 87.4438 18.273C81.9592 16.1529 80.8793 8.56022 81.0249 5.02887L125.684 19.9Z" fill="#EEEEEE"/>
<path fill-rule="evenodd" clip-rule="evenodd" d="M168.191 25.9121C141.264 2.67882 108.503 25.4379 120.02 57.2394H130.24L140.743 67.8674C142.411 66.6106 159.216 60.2951 167.056 57.7136V49.6397L150.024 53.0999V40.9066C157.839 36.937 164.997 34.6561 170.019 33.3171C170.06 34.6097 169.977 36.1578 169.904 37.5081C169.857 38.3994 169.814 39.2045 169.814 39.793C170.158 40.2748 170.744 41.8 171.432 43.5905C172.468 46.2907 173.737 49.5944 174.761 50.8329C176.919 53.4423 172.4 55.3438 170.168 55.4466H169.814C169.923 55.4525 170.042 55.4524 170.168 55.4466H177.6V47.0431C175.77 48.127 172.351 45.2821 171.623 32.9019C172.452 32.6935 173.203 32.5139 173.869 32.3585L172.165 25.1908L168.191 25.9121ZM131.76 47.5146C133.193 47.5146 134.355 46.3342 134.355 44.8782C134.355 43.4221 133.193 42.2418 131.76 42.2418C130.327 42.2418 129.165 43.4221 129.165 44.8782C129.165 46.3342 130.327 47.5146 131.76 47.5146Z" fill="#EEEEEE"/>
<path fill-rule="evenodd" clip-rule="evenodd" d="M103.246 101.308C106.184 89.8929 115.921 80.9712 118.476 78.7554C121.794 75.8784 125.68 66.2226 125.134 60.2053H120.344C120.17 60.3719 119.736 60.7071 119.107 61.1935C113.093 65.8394 89.223 84.2795 103.246 101.308ZM109.914 94.0003C111.493 93.183 113.389 92.6203 115.64 92.5683C120.398 92.4584 126.963 95.9701 132.186 102.455C132.433 102.762 132.697 103.077 132.971 103.406C135.942 106.961 140.195 112.052 138.674 124.205C150.8 117.023 150.799 101.649 150.798 89.7067C150.798 80.5225 150.797 73.3682 156.313 73.5312C156.313 73.5312 142 70.625 138.5 69.625C135 68.625 128.455 60.2053 128.455 60.2053H128.42C128.938 64.4651 128.387 73.4138 119.777 81.6258C114.851 86.3244 111.759 90.458 109.914 94.0003Z" fill="#EEEEEE"/>
<ellipse cx="132.781" cy="247.112" rx="39.2341" ry="7.82841" fill="#4B5578"/>
<path d="M168.383 73.25C162.5 75.5625 147.609 72.1562 141.609 70.4062C164.781 75.5938 170.758 70.4167 170.758 68.125C172.658 70.525 170.17 72.5476 168.383 73.25Z" fill="#EEEEEE"/>
<path d="M170.406 58.4375C167.814 59.8202 166.625 58.9688 162.188 60.1912C162.917 60.1912 165.625 59.6912 167.438 60.1912C169.25 60.6912 171.583 60.337 172 59.6912C172 57.8162 172.281 57.4375 170.406 58.4375Z" fill="#EEEEEE"/>
<path d="M170.701 63.8125C172.555 62.4545 171.951 60.6406 171.537 60.0312C172.368 62.3114 169.734 63.8125 169.734 63.8125C169.734 63.8125 166.436 65.9688 170.701 68.0938C169.951 67.3125 167.139 66.4219 170.701 63.8125Z" fill="#EEEEEE"/>
</svg>
