<?xml version="1.0" encoding="UTF-8"?>
<svg width="1200pt" height="1200pt" version="1.1" viewBox="0 0 1200 1200" xmlns="http://www.w3.org/2000/svg">
 <path d="m928.16 167.75h-656.33c-6.4531-0.003906-12.793 1.6914-18.379 4.918-5.5898 3.2227-10.23 7.8633-13.457 13.449-3.6328 5.4375-5.5703 11.828-5.5703 18.367 0 6.5391 1.9375 12.934 5.5703 18.367l206.94 353.88c18.414 32.043 28.125 68.348 28.164 105.3v313.47c0.09375 12.164 6.0156 23.547 15.918 30.609 6.2773 3.8477 13.461 5.957 20.816 6.125 4.6328 0.48047 9.3047-0.37109 13.469-2.4492l175.1-64.898c7.2109-2.3516 13.477-6.9492 17.883-13.117 4.4062-6.1719 6.7227-13.59 6.6094-21.168v-248.57c0.039062-36.957 9.75-73.262 28.164-105.3l206.94-353.88c3.6328-5.4336 5.5703-11.828 5.5703-18.367 0-6.5391-1.9375-12.93-5.5703-18.367-3.2266-5.5859-7.8672-10.227-13.457-13.449-5.5859-3.2266-11.926-4.9219-18.379-4.918zm-238.78 372.25c-25.344 43.012-38.469 92.121-37.957 142.04v222.86l-102.86 37.957v-260.82c0.51172-49.918-12.613-99.027-37.957-142.04l-175.1-298.78h528.98z"/>
</svg>
