<svg width="393" height="152" viewBox="0 0 393 152" fill="none" xmlns="http://www.w3.org/2000/svg">
<rect x="0.208252" y="0.676392" width="7.24121" height="7.24121" fill="#297467"/>
<rect x="0.20874" y="9.27081" width="7.24121" height="7.24121" fill="#297467"/>
<rect x="0.20874" y="17.8652" width="7.24121" height="7.24121" fill="#297467"/>
<rect x="0.20874" y="26.4597" width="7.24121" height="7.24121" fill="#297467"/>
<rect x="0.20874" y="35.0539" width="7.24121" height="7.24121" fill="#297467"/>
<rect x="0.20874" y="43.6483" width="7.24121" height="7.24121" fill="#297467"/>
<rect x="0.20874" y="52.2427" width="7.24121" height="7.24121" fill="#297467"/>
<rect x="0.20874" y="60.8372" width="7.24121" height="7.24121" fill="#297467"/>
<rect x="0.20874" y="69.4316" width="7.24121" height="7.24121" fill="#297467"/>
<rect x="0.20874" y="78.0258" width="7.24121" height="7.24121" fill="#297467"/>
<rect x="0.20874" y="86.6202" width="7.24121" height="7.24121" fill="#297467"/>
<rect x="0.20874" y="95.2147" width="7.24121" height="7.24121" fill="#297467"/>
<rect x="8.77417" y="0.676392" width="7.24121" height="7.24121" fill="#297467"/>
<rect x="8.77417" y="9.27081" width="7.24121" height="7.24121" fill="#297467"/>
<rect x="8.77417" y="17.8652" width="7.24121" height="7.24121" fill="#297467"/>
<rect x="8.77417" y="26.4597" width="7.24121" height="7.24121" fill="#297467"/>
<rect x="8.77417" y="35.0539" width="7.24121" height="7.24121" fill="#297467"/>
<rect x="8.77417" y="43.6483" width="7.24121" height="7.24121" fill="#297467"/>
<rect x="8.77417" y="52.2427" width="7.24121" height="7.24121" fill="#297467"/>
<rect x="8.77417" y="60.8372" width="7.24121" height="7.24121" fill="#297467"/>
<rect x="8.77417" y="69.4316" width="7.24121" height="7.24121" fill="#297467"/>
<rect x="8.77417" y="78.0258" width="7.24121" height="7.24121" fill="#297467"/>
<rect x="8.77417" y="86.6202" width="7.24121" height="7.24121" fill="#297467"/>
<rect x="8.77417" y="95.2147" width="7.24121" height="7.24121" fill="#297467"/>
<rect x="17.3401" y="0.676392" width="7.24121" height="7.24121" fill="#297467"/>
<rect x="17.3401" y="9.27081" width="7.24121" height="7.24121" fill="#297467"/>
<rect x="17.3401" y="17.8652" width="7.24121" height="7.24121" fill="#297467"/>
<rect x="17.3401" y="26.4597" width="7.24121" height="7.24121" fill="#297467"/>
<rect x="17.3401" y="35.0539" width="7.24121" height="7.24121" fill="#297467"/>
<rect x="17.3401" y="43.6483" width="7.24121" height="7.24121" fill="#297467"/>
<rect x="17.3401" y="52.2427" width="7.24121" height="7.24121" fill="#297467"/>
<rect x="17.3401" y="60.8372" width="7.24121" height="7.24121" fill="#297467"/>
<rect x="17.3401" y="69.4316" width="7.24121" height="7.24121" fill="#297467"/>
<rect x="17.3401" y="78.0258" width="7.24121" height="7.24121" fill="#297467"/>
<rect x="17.3401" y="86.6202" width="7.24121" height="7.24121" fill="#297467"/>
<rect x="17.3401" y="95.2147" width="7.24121" height="7.24121" fill="#297467"/>
<rect x="25.9055" y="0.676392" width="7.24121" height="7.24121" fill="#297467"/>
<rect x="25.9055" y="9.27081" width="7.24121" height="7.24121" fill="#297467"/>
<rect x="25.9055" y="17.8652" width="7.24121" height="7.24121" fill="#297467"/>
<rect x="25.9055" y="26.4597" width="7.24121" height="7.24121" fill="#297467"/>
<rect x="25.9055" y="35.0539" width="7.24121" height="7.24121" fill="#297467"/>
<rect x="25.9055" y="43.6483" width="7.24121" height="7.24121" fill="#297467"/>
<rect x="25.9055" y="52.2427" width="7.24121" height="7.24121" fill="#297467"/>
<rect x="25.9055" y="60.8372" width="7.24121" height="7.24121" fill="#297467"/>
<rect x="25.9055" y="69.4316" width="7.24121" height="7.24121" fill="#297467"/>
<rect x="25.9055" y="78.0258" width="7.24121" height="7.24121" fill="#297467"/>
<rect x="25.9055" y="86.6202" width="7.24121" height="7.24121" fill="#297467"/>
<rect x="25.9055" y="95.2147" width="7.24121" height="7.24121" fill="#297467"/>
<rect x="34.4714" y="0.676392" width="7.24121" height="7.24121" fill="#297467"/>
<rect x="34.4714" y="9.27081" width="7.24121" height="7.24121" fill="#297467"/>
<rect x="34.4714" y="17.8652" width="7.24121" height="7.24121" fill="#297467"/>
<rect x="34.4714" y="26.4597" width="7.24121" height="7.24121" fill="#297467"/>
<rect x="34.4714" y="35.0539" width="7.24121" height="7.24121" fill="#297467"/>
<rect x="34.4714" y="43.6483" width="7.24121" height="7.24121" fill="#297467"/>
<rect x="34.4714" y="52.2427" width="7.24121" height="7.24121" fill="#297467"/>
<rect x="34.4714" y="60.8372" width="7.24121" height="7.24121" fill="#297467"/>
<rect x="34.4714" y="69.4316" width="7.24121" height="7.24121" fill="#297467"/>
<rect x="34.4714" y="78.0258" width="7.24121" height="7.24121" fill="#297467"/>
<rect x="34.4714" y="86.6202" width="7.24121" height="7.24121" fill="#297467"/>
<rect x="34.4714" y="95.2147" width="7.24121" height="7.24121" fill="#297467"/>
<rect x="43.0369" y="0.676392" width="7.24121" height="7.24121" fill="#297467"/>
<rect x="43.0369" y="9.27081" width="7.24121" height="7.24121" fill="#297467"/>
<rect x="43.0369" y="17.8652" width="7.24121" height="7.24121" fill="#297467"/>
<rect x="43.0369" y="26.4597" width="7.24121" height="7.24121" fill="#297467"/>
<rect x="43.0369" y="35.0539" width="7.24121" height="7.24121" fill="#297467"/>
<rect x="43.0369" y="43.6483" width="7.24121" height="7.24121" fill="#297467"/>
<rect x="43.0369" y="52.2427" width="7.24121" height="7.24121" fill="#297467"/>
<rect x="43.0369" y="60.8372" width="7.24121" height="7.24121" fill="#297467"/>
<rect x="43.0369" y="69.4316" width="7.24121" height="7.24121" fill="#297467"/>
<rect x="43.0369" y="78.0258" width="7.24121" height="7.24121" fill="#297467"/>
<rect x="43.0369" y="86.6202" width="7.24121" height="7.24121" fill="#297467"/>
<rect x="43.0369" y="95.2147" width="7.24121" height="7.24121" fill="#297467"/>
<rect x="51.6028" y="0.676392" width="7.24121" height="7.24121" fill="#297467"/>
<rect x="51.6028" y="9.27081" width="7.24121" height="7.24121" fill="#297467"/>
<rect x="51.6028" y="17.8652" width="7.24121" height="7.24121" fill="#297467"/>
<rect x="51.6028" y="26.4597" width="7.24121" height="7.24121" fill="#297467"/>
<rect x="51.6028" y="35.0539" width="7.24121" height="7.24121" fill="#297467"/>
<rect x="51.6028" y="43.6483" width="7.24121" height="7.24121" fill="#297467"/>
<rect x="51.6028" y="52.2427" width="7.24121" height="7.24121" fill="#297467"/>
<rect x="51.6028" y="60.8372" width="7.24121" height="7.24121" fill="#297467"/>
<rect x="51.6028" y="69.4316" width="7.24121" height="7.24121" fill="#297467"/>
<rect x="51.6028" y="78.0258" width="7.24121" height="7.24121" fill="#297467"/>
<rect x="51.6028" y="86.6202" width="7.24121" height="7.24121" fill="#297467"/>
<rect x="51.6028" y="95.2147" width="7.24121" height="7.24121" fill="#297467"/>
<rect x="60.1687" y="0.676392" width="7.24121" height="7.24121" fill="#297467"/>
<rect x="60.1687" y="9.27081" width="7.24121" height="7.24121" fill="#297467"/>
<rect x="60.1687" y="17.8652" width="7.24121" height="7.24121" fill="#297467"/>
<rect x="60.1687" y="26.4597" width="7.24121" height="7.24121" fill="#297467"/>
<rect x="60.1687" y="35.0539" width="7.24121" height="7.24121" fill="#297467"/>
<rect x="60.1687" y="43.6483" width="7.24121" height="7.24121" fill="#297467"/>
<rect x="60.1687" y="52.2427" width="7.24121" height="7.24121" fill="#297467"/>
<rect x="60.1687" y="60.8372" width="7.24121" height="7.24121" fill="#297467"/>
<rect x="60.1687" y="69.4316" width="7.24121" height="7.24121" fill="#297467"/>
<rect x="60.1687" y="78.0258" width="7.24121" height="7.24121" fill="#297467"/>
<rect x="60.1687" y="86.6202" width="7.24121" height="7.24121" fill="#297467"/>
<rect x="60.1687" y="95.2147" width="7.24121" height="7.24121" fill="#297467"/>
<rect x="68.7341" y="0.676392" width="7.24121" height="7.24121" fill="#297467"/>
<rect x="68.7341" y="9.27081" width="7.24121" height="7.24121" fill="#297467"/>
<rect x="68.7341" y="17.8652" width="7.24121" height="7.24121" fill="#297467"/>
<rect x="68.7341" y="26.4597" width="7.24121" height="7.24121" fill="#297467"/>
<rect x="68.7341" y="35.0539" width="7.24121" height="7.24121" fill="#297467"/>
<rect x="68.7341" y="43.6483" width="7.24121" height="7.24121" fill="#297467"/>
<rect x="68.7341" y="52.2427" width="7.24121" height="7.24121" fill="#297467"/>
<rect x="68.7341" y="60.8372" width="7.24121" height="7.24121" fill="#297467"/>
<rect x="68.7341" y="69.4316" width="7.24121" height="7.24121" fill="#297467"/>
<rect x="68.7341" y="78.0258" width="7.24121" height="7.24121" fill="#297467"/>
<rect x="68.7341" y="86.6202" width="7.24121" height="7.24121" fill="#297467"/>
<rect x="68.7341" y="95.2147" width="7.24121" height="7.24121" fill="#297467"/>
<rect x="77.3" y="0.676392" width="7.24121" height="7.24121" fill="#297467"/>
<rect x="77.3" y="9.27081" width="7.24121" height="7.24121" fill="#297467"/>
<rect x="77.3" y="17.8652" width="7.24121" height="7.24121" fill="#297467"/>
<rect x="77.3" y="26.4597" width="7.24121" height="7.24121" fill="#297467"/>
<rect x="77.3" y="35.0539" width="7.24121" height="7.24121" fill="#297467"/>
<rect x="77.3" y="43.6483" width="7.24121" height="7.24121" fill="#297467"/>
<rect x="77.3" y="52.2427" width="7.24121" height="7.24121" fill="#297467"/>
<rect x="77.3" y="60.8372" width="7.24121" height="7.24121" fill="#297467"/>
<rect x="77.3" y="69.4316" width="7.24121" height="7.24121" fill="#297467"/>
<rect x="77.3" y="78.0258" width="7.24121" height="7.24121" fill="#297467"/>
<rect x="77.3" y="86.6202" width="7.24121" height="7.24121" fill="#297467"/>
<rect x="77.3" y="95.2147" width="7.24121" height="7.24121" fill="#297467"/>
<rect x="85.8655" y="0.676392" width="7.24121" height="7.24121" fill="#297467"/>
<rect x="85.8655" y="9.27081" width="7.24121" height="7.24121" fill="#297467"/>
<rect x="85.8655" y="17.8652" width="7.24121" height="7.24121" fill="#297467"/>
<rect x="85.8655" y="26.4597" width="7.24121" height="7.24121" fill="#297467"/>
<rect x="85.8655" y="35.0539" width="7.24121" height="7.24121" fill="#297467"/>
<rect x="85.8655" y="43.6483" width="7.24121" height="7.24121" fill="#297467"/>
<rect x="85.8655" y="52.2427" width="7.24121" height="7.24121" fill="#297467"/>
<rect x="85.8655" y="60.8372" width="7.24121" height="7.24121" fill="#297467"/>
<rect x="85.8655" y="69.4316" width="7.24121" height="7.24121" fill="#297467"/>
<rect x="85.8655" y="78.0258" width="7.24121" height="7.24121" fill="#297467"/>
<rect x="85.8655" y="86.6202" width="7.24121" height="7.24121" fill="#297467"/>
<rect x="85.8655" y="95.2147" width="7.24121" height="7.24121" fill="#297467"/>
<rect x="94.4314" y="0.676392" width="7.24121" height="7.24121" fill="#297467"/>
<rect x="94.4314" y="9.27081" width="7.24121" height="7.24121" fill="#297467"/>
<rect x="94.4314" y="17.8652" width="7.24121" height="7.24121" fill="#297467"/>
<rect x="94.4314" y="26.4597" width="7.24121" height="7.24121" fill="#297467"/>
<rect x="94.4314" y="35.0539" width="7.24121" height="7.24121" fill="#297467"/>
<rect x="94.4314" y="43.6483" width="7.24121" height="7.24121" fill="#297467"/>
<rect x="94.4314" y="52.2427" width="7.24121" height="7.24121" fill="#297467"/>
<rect x="94.4314" y="60.8372" width="7.24121" height="7.24121" fill="#297467"/>
<rect x="94.4314" y="69.4316" width="7.24121" height="7.24121" fill="#297467"/>
<rect x="94.4314" y="78.0258" width="7.24121" height="7.24121" fill="#297467"/>
<rect x="94.4314" y="86.6202" width="7.24121" height="7.24121" fill="#297467"/>
<rect x="94.4314" y="95.2147" width="7.24121" height="7.24121" fill="#297467"/>
<rect x="102.997" y="0.676392" width="7.24121" height="7.24121" fill="#297467"/>
<rect x="102.997" y="9.27081" width="7.24121" height="7.24121" fill="#297467"/>
<rect x="102.997" y="17.8652" width="7.24121" height="7.24121" fill="#297467"/>
<rect x="102.997" y="26.4597" width="7.24121" height="7.24121" fill="#297467"/>
<rect x="102.997" y="35.0539" width="7.24121" height="7.24121" fill="#297467"/>
<rect x="102.997" y="43.6483" width="7.24121" height="7.24121" fill="#297467"/>
<rect x="102.997" y="52.2427" width="7.24121" height="7.24121" fill="#297467"/>
<rect x="102.997" y="60.8372" width="7.24121" height="7.24121" fill="#297467"/>
<rect x="102.997" y="69.4316" width="7.24121" height="7.24121" fill="#297467"/>
<rect x="102.997" y="78.0258" width="7.24121" height="7.24121" fill="#297467"/>
<rect x="102.997" y="86.6202" width="7.24121" height="7.24121" fill="#297467"/>
<rect x="102.997" y="95.2147" width="7.24121" height="7.24121" fill="#297467"/>
<rect x="111.563" y="0.676392" width="7.24121" height="7.24121" fill="#297467"/>
<rect x="111.563" y="9.27081" width="7.24121" height="7.24121" fill="#297467"/>
<rect x="111.563" y="17.8652" width="7.24121" height="7.24121" fill="#297467"/>
<rect x="111.563" y="26.4597" width="7.24121" height="7.24121" fill="#297467"/>
<rect x="111.563" y="35.0539" width="7.24121" height="7.24121" fill="#297467"/>
<rect x="111.563" y="43.6483" width="7.24121" height="7.24121" fill="#297467"/>
<rect x="111.563" y="52.2427" width="7.24121" height="7.24121" fill="#297467"/>
<rect x="111.563" y="60.8372" width="7.24121" height="7.24121" fill="#297467"/>
<rect x="111.563" y="69.4316" width="7.24121" height="7.24121" fill="#297467"/>
<rect x="111.563" y="78.0258" width="7.24121" height="7.24121" fill="#297467"/>
<rect x="111.563" y="86.6202" width="7.24121" height="7.24121" fill="#297467"/>
<rect x="120.129" y="0.676392" width="7.24121" height="7.24121" fill="#297467"/>
<rect x="120.129" y="9.27081" width="7.24121" height="7.24121" fill="#297467"/>
<rect x="120.129" y="17.8652" width="7.24121" height="7.24121" fill="#297467"/>
<rect x="120.129" y="26.4597" width="7.24121" height="7.24121" fill="#297467"/>
<rect x="120.129" y="35.0539" width="7.24121" height="7.24121" fill="#297467"/>
<rect x="120.129" y="43.6483" width="7.24121" height="7.24121" fill="#297467"/>
<rect x="120.129" y="52.2427" width="7.24121" height="7.24121" fill="#297467"/>
<rect x="120.129" y="60.8372" width="7.24121" height="7.24121" fill="#297467"/>
<rect x="120.129" y="69.4316" width="7.24121" height="7.24121" fill="#297467"/>
<rect x="120.129" y="78.0258" width="7.24121" height="7.24121" fill="#297467"/>
<rect x="120.129" y="86.6202" width="7.24121" height="7.24121" fill="#297467"/>
<rect x="128.694" y="0.676392" width="7.24121" height="7.24121" fill="#297467"/>
<rect x="128.694" y="9.27081" width="7.24121" height="7.24121" fill="#297467"/>
<rect x="128.694" y="17.8652" width="7.24121" height="7.24121" fill="#297467"/>
<rect x="128.694" y="26.4597" width="7.24121" height="7.24121" fill="#297467"/>
<rect x="128.694" y="35.0539" width="7.24121" height="7.24121" fill="#297467"/>
<rect x="128.694" y="43.6483" width="7.24121" height="7.24121" fill="#297467"/>
<rect x="128.694" y="52.2427" width="7.24121" height="7.24121" fill="#297467"/>
<rect x="128.694" y="60.8372" width="7.24121" height="7.24121" fill="#297467"/>
<rect x="128.694" y="69.4316" width="7.24121" height="7.24121" fill="#297467"/>
<rect x="128.694" y="78.0258" width="7.24121" height="7.24121" fill="#297467"/>
<rect x="128.694" y="86.6202" width="7.24121" height="7.24121" fill="#297467"/>
<rect x="137.26" y="0.676392" width="7.24121" height="7.24121" fill="#297467"/>
<rect x="137.26" y="9.27081" width="7.24121" height="7.24121" fill="#297467"/>
<rect x="137.26" y="17.8652" width="7.24121" height="7.24121" fill="#297467"/>
<rect x="137.26" y="26.4597" width="7.24121" height="7.24121" fill="#297467"/>
<rect x="137.26" y="35.0539" width="7.24121" height="7.24121" fill="#297467"/>
<rect x="137.26" y="43.6483" width="7.24121" height="7.24121" fill="#297467"/>
<rect x="137.26" y="52.2427" width="7.24121" height="7.24121" fill="#297467"/>
<rect x="137.26" y="60.8372" width="7.24121" height="7.24121" fill="#297467"/>
<rect x="137.26" y="69.4316" width="7.24121" height="7.24121" fill="#297467"/>
<rect x="137.26" y="78.0258" width="7.24121" height="7.24121" fill="#297467"/>
<rect x="137.26" y="86.6202" width="7.24121" height="7.24121" fill="#297467"/>
<rect x="145.825" y="0.676392" width="7.24121" height="7.24121" fill="#297467"/>
<rect x="145.825" y="9.27081" width="7.24121" height="7.24121" fill="#297467"/>
<rect x="145.825" y="17.8652" width="7.24121" height="7.24121" fill="#297467"/>
<rect x="145.825" y="26.4597" width="7.24121" height="7.24121" fill="#297467"/>
<rect x="145.825" y="35.0539" width="7.24121" height="7.24121" fill="#297467"/>
<rect x="145.825" y="43.6483" width="7.24121" height="7.24121" fill="#297467"/>
<rect x="145.825" y="52.2427" width="7.24121" height="7.24121" fill="#297467"/>
<rect x="145.825" y="60.8372" width="7.24121" height="7.24121" fill="#297467"/>
<rect x="145.825" y="69.4316" width="7.24121" height="7.24121" fill="#297467"/>
<rect x="145.825" y="78.0258" width="7.24121" height="7.24121" fill="#297467"/>
<rect x="145.825" y="86.6202" width="7.24121" height="7.24121" fill="#297467"/>
<rect x="154.391" y="0.676392" width="7.24121" height="7.24121" fill="#297467"/>
<rect x="154.391" y="9.27081" width="7.24121" height="7.24121" fill="#297467"/>
<rect x="154.391" y="17.8652" width="7.24121" height="7.24121" fill="#297467"/>
<rect x="154.391" y="26.4597" width="7.24121" height="7.24121" fill="#297467"/>
<rect x="154.391" y="35.0539" width="7.24121" height="7.24121" fill="#297467"/>
<rect x="154.391" y="43.6483" width="7.24121" height="7.24121" fill="#297467"/>
<rect x="154.391" y="52.2427" width="7.24121" height="7.24121" fill="#297467"/>
<rect x="154.391" y="60.8372" width="7.24121" height="7.24121" fill="#297467"/>
<rect x="154.391" y="69.4316" width="7.24121" height="7.24121" fill="#297467"/>
<rect x="154.391" y="78.0258" width="7.24121" height="7.24121" fill="#297467"/>
<rect x="154.391" y="86.6202" width="7.24121" height="7.24121" fill="#297467"/>
<rect x="162.957" y="0.676392" width="7.24121" height="7.24121" fill="#297467"/>
<rect x="162.957" y="9.27081" width="7.24121" height="7.24121" fill="#297467"/>
<rect x="162.957" y="17.8652" width="7.24121" height="7.24121" fill="#297467"/>
<rect x="162.957" y="26.4597" width="7.24121" height="7.24121" fill="#297467"/>
<rect x="162.957" y="35.0539" width="7.24121" height="7.24121" fill="#297467"/>
<rect x="162.957" y="43.6483" width="7.24121" height="7.24121" fill="#297467"/>
<rect x="162.957" y="52.2427" width="7.24121" height="7.24121" fill="#297467"/>
<rect x="162.957" y="60.8372" width="7.24121" height="7.24121" fill="#297467"/>
<rect x="162.957" y="69.4316" width="7.24121" height="7.24121" fill="#297467"/>
<rect x="162.957" y="78.0258" width="7.24121" height="7.24121" fill="#297467"/>
<rect x="162.957" y="86.6202" width="7.24121" height="7.24121" fill="#297467"/>
<path d="M1.26587 130.261C1.26587 129.327 1.4708 128.491 1.88067 127.753C2.29054 126.999 2.79058 126.343 3.38079 125.785C3.98739 125.228 4.77433 124.597 5.74162 123.892C6.57775 123.252 7.23354 122.72 7.70899 122.293C8.20083 121.867 8.61069 121.4 8.93859 120.892C9.34846 120.252 9.55339 119.531 9.55339 118.728C9.55339 118.203 9.35665 117.744 8.96318 117.35C8.5861 116.941 8.03688 116.736 7.31551 116.736C5.69244 116.736 4.8809 117.514 4.8809 119.072V120.08H1.53638C1.4708 119.785 1.43801 119.457 1.43801 119.096C1.43801 117.391 2.00363 116.113 3.13486 115.26C4.28249 114.408 5.72523 113.981 7.46307 113.981C8.98777 113.981 10.16 114.276 10.9797 114.867C11.7995 115.457 12.3323 116.121 12.5782 116.859C12.8405 117.596 12.9717 118.285 12.9717 118.924C12.9717 120.055 12.7176 121.064 12.2093 121.949C11.7011 122.818 11.0945 123.556 10.3895 124.162C9.70094 124.753 8.84022 125.4 7.80735 126.105C7.02041 126.646 6.4302 127.089 6.03673 127.433C5.75802 127.679 5.55308 127.917 5.42193 128.146H13.0701V131.147H1.26587V130.261Z" fill="#303030"/>
<path d="M21.0153 131.442C19.0807 131.442 17.5888 130.991 16.5395 130.089C15.4903 129.171 14.9656 127.933 14.9656 126.376V125.933H18.3839V126.449C18.3839 127.171 18.6052 127.728 19.0479 128.122C19.4906 128.499 20.13 128.687 20.9661 128.687C21.7202 128.687 22.3186 128.499 22.7613 128.122C23.204 127.728 23.4253 127.146 23.4253 126.376C23.4253 125.474 23.1794 124.843 22.6875 124.482C22.1957 124.121 21.5399 123.941 20.7202 123.941H19.466V121.187H20.7939C21.4661 121.187 22.0153 120.99 22.4416 120.597C22.8679 120.187 23.081 119.596 23.081 118.826C23.081 118.121 22.8925 117.596 22.5154 117.252C22.1547 116.908 21.6383 116.736 20.9661 116.736C20.2611 116.736 19.7119 116.916 19.3184 117.277C18.9249 117.621 18.7282 118.137 18.7282 118.826V119.293H15.3099V118.605C15.3099 117.686 15.5476 116.883 16.0231 116.195C16.4985 115.49 17.1543 114.949 17.9904 114.571C18.843 114.178 19.8103 113.981 20.8923 113.981C22.6138 113.981 23.9827 114.383 24.9992 115.186C26.032 115.99 26.5485 117.129 26.5485 118.605C26.5485 119.539 26.3108 120.31 25.8353 120.916C25.3763 121.506 24.7287 121.998 23.8925 122.392V122.49C24.8106 122.769 25.5402 123.261 26.0812 123.966C26.6223 124.671 26.8928 125.556 26.8928 126.622C26.8928 127.605 26.6387 128.466 26.1304 129.204C25.6386 129.925 24.95 130.483 24.0647 130.876C23.1794 131.253 22.1629 131.442 21.0153 131.442Z" fill="#303030"/>
<path d="M34.9364 131.442C33.0018 131.442 31.5099 130.991 30.4606 130.089C29.4113 129.171 28.8867 127.933 28.8867 126.376V125.933H32.305V126.449C32.305 127.171 32.5263 127.728 32.969 128.122C33.4116 128.499 34.051 128.687 34.8872 128.687C35.6413 128.687 36.2397 128.499 36.6824 128.122C37.125 127.728 37.3464 127.146 37.3464 126.376C37.3464 125.474 37.1005 124.843 36.6086 124.482C36.1168 124.121 35.461 123.941 34.6412 123.941H33.3871V121.187H34.715C35.3872 121.187 35.9364 120.99 36.3627 120.597C36.789 120.187 37.0021 119.596 37.0021 118.826C37.0021 118.121 36.8135 117.596 36.4365 117.252C36.0758 116.908 35.5594 116.736 34.8872 116.736C34.1822 116.736 33.633 116.916 33.2395 117.277C32.846 117.621 32.6493 118.137 32.6493 118.826V119.293H29.231V118.605C29.231 117.686 29.4687 116.883 29.9442 116.195C30.4196 115.49 31.0754 114.949 31.9115 114.571C32.7641 114.178 33.7313 113.981 34.8134 113.981C36.5348 113.981 37.9038 114.383 38.9203 115.186C39.9531 115.99 40.4696 117.129 40.4696 118.605C40.4696 119.539 40.2318 120.31 39.7564 120.916C39.2973 121.506 38.6498 121.998 37.8136 122.392V122.49C38.7317 122.769 39.4613 123.261 40.0023 123.966C40.5433 124.671 40.8139 125.556 40.8139 126.622C40.8139 127.605 40.5597 128.466 40.0515 129.204C39.5597 129.925 38.8711 130.483 37.9858 130.876C37.1005 131.253 36.084 131.442 34.9364 131.442Z" fill="#303030"/>
<path d="M2.71679 149.062C2.18396 149.062 1.70032 148.931 1.26586 148.668C0.839596 148.406 0.626465 147.931 0.626465 147.242C0.626465 146.414 0.987148 145.84 1.70852 145.521C2.42988 145.201 3.46275 145.041 4.80711 145.041V144.402C4.80711 144.049 4.71284 143.783 4.5243 143.603C4.34396 143.414 4.00377 143.32 3.50373 143.32C3.02009 143.32 2.6758 143.406 2.47087 143.578C2.27413 143.75 2.17576 143.959 2.17576 144.205V144.365H0.946161C0.937964 144.316 0.933865 144.226 0.933865 144.094C0.933865 143.529 1.17159 143.09 1.64703 142.779C2.12248 142.459 2.75778 142.299 3.55292 142.299C4.38905 142.299 5.01615 142.471 5.43421 142.816C5.86047 143.16 6.0736 143.648 6.0736 144.279V147.586C6.0736 147.734 6.11459 147.845 6.19656 147.918C6.27854 147.984 6.381 148.017 6.50396 148.017H6.94662V148.865C6.73349 148.972 6.44248 149.025 6.0736 149.025C5.7785 149.025 5.52848 148.947 5.32355 148.791C5.12681 148.628 4.99565 148.406 4.93007 148.127H4.844C4.61448 148.423 4.31937 148.652 3.95869 148.816C3.6062 148.98 3.19224 149.062 2.71679 149.062ZM3.08567 148.029C3.56931 148.029 3.97508 147.886 4.30298 147.599C4.63907 147.304 4.80711 146.902 4.80711 146.394V146C3.87262 146 3.15945 146.082 2.6676 146.246C2.17576 146.402 1.92984 146.701 1.92984 147.144C1.92984 147.447 2.02411 147.673 2.21265 147.82C2.40939 147.959 2.70039 148.029 3.08567 148.029Z" fill="#303030"/>
<path d="M8.34219 143.492H7.40769V142.447H8.34219V141.5C8.34219 141.049 8.45695 140.676 8.68648 140.381C8.9242 140.078 9.31357 139.926 9.8546 139.926C10.0185 139.926 10.1907 139.942 10.371 139.975C10.5514 140.008 10.703 140.045 10.826 140.086V140.971H10.1989C9.80541 140.971 9.60868 141.16 9.60868 141.537V142.447H11.7236V141.5C11.7236 141.049 11.8384 140.676 12.0679 140.381C12.3056 140.078 12.695 139.926 13.236 139.926C13.4 139.926 13.5721 139.942 13.7524 139.975C13.9328 140.008 14.0844 140.045 14.2074 140.086V140.971H13.568C13.1827 140.971 12.9901 141.16 12.9901 141.537V142.447H14.2074V143.492H12.9901V148.914H11.7236V143.492H9.60868V148.914H8.34219V143.492ZM15.1419 140.024H16.3961V141.315H15.1419V140.024ZM15.1419 142.447H16.4084V148.914H15.1419V142.447Z" fill="#303030"/>
<path d="M18.3318 142.447H19.3524L19.4753 143.307H19.5614C19.7909 142.98 20.086 142.73 20.4467 142.557C20.8156 142.385 21.2296 142.299 21.6886 142.299C23.0576 142.299 23.7421 143.041 23.7421 144.525V148.914H22.4756V144.685C22.4756 144.201 22.3649 143.865 22.1436 143.676C21.9304 143.48 21.6148 143.381 21.1968 143.381C20.9099 143.381 20.6435 143.455 20.3975 143.603C20.1516 143.742 19.9549 143.943 19.8073 144.205C19.668 144.467 19.5983 144.771 19.5983 145.115V148.914H18.3318V142.447Z" fill="#303030"/>
<path d="M25.6366 140.024H26.8908V141.315H25.6366V140.024ZM25.6366 142.447H26.9031V148.914H25.6366V142.447Z" fill="#303030"/>
<path d="M30.384 149.05C29.8921 149.05 29.5355 148.91 29.3142 148.632C29.0929 148.345 28.9822 147.992 28.9822 147.574V143.492H28.1953V142.447H28.9945L29.2404 140.639H30.2487V142.447H31.3431V143.492H30.2487V147.451C30.2487 147.828 30.425 148.017 30.7774 148.017H31.3431V148.878C31.2365 148.927 31.0889 148.968 30.9004 149C30.7201 149.033 30.5479 149.05 30.384 149.05Z" fill="#303030"/>
<path d="M33.4427 151.152C33.041 151.152 32.7254 151.111 32.4959 151.029V150.193H33.0369C33.7829 150.193 34.2829 149.767 34.537 148.914L32.0286 142.447H33.3566L34.5616 145.619C34.7255 146.037 34.9346 146.681 35.1887 147.55H35.2502C35.4797 146.73 35.6682 146.086 35.8158 145.619L36.8241 142.447H38.0906L35.9511 148.582C35.6559 149.402 35.324 150.033 34.9551 150.476C34.5862 150.927 34.0821 151.152 33.4427 151.152Z" fill="#303030"/>
<path d="M43.0039 142.447H44.0245L44.1474 143.307H44.2335C44.463 142.98 44.7581 142.73 45.1188 142.557C45.4877 142.385 45.9017 142.299 46.3607 142.299C47.7297 142.299 48.4142 143.041 48.4142 144.525V148.914H47.1477V144.685C47.1477 144.201 47.037 143.865 46.8157 143.676C46.6025 143.48 46.2869 143.381 45.8689 143.381C45.582 143.381 45.3156 143.455 45.0696 143.603C44.8237 143.742 44.627 143.943 44.4794 144.205C44.3401 144.467 44.2704 144.771 44.2704 145.115V148.914H43.0039V142.447Z" fill="#303030"/>
<path d="M52.9892 149.062C51.9645 149.062 51.194 148.787 50.6776 148.238C50.1693 147.681 49.9152 146.828 49.9152 145.681C49.9152 144.533 50.1693 143.685 50.6776 143.135C51.194 142.578 51.9645 142.299 52.9892 142.299C54.0139 142.299 54.7844 142.578 55.3009 143.135C55.8173 143.685 56.0755 144.533 56.0755 145.681C56.0755 146.828 55.8173 147.681 55.3009 148.238C54.7844 148.787 54.0139 149.062 52.9892 149.062ZM52.9892 148.017C53.6122 148.017 54.0631 147.836 54.3418 147.476C54.6287 147.107 54.7721 146.529 54.7721 145.742V145.619C54.7721 144.832 54.6287 144.258 54.3418 143.898C54.0631 143.529 53.6122 143.344 52.9892 143.344C52.3744 143.344 51.9236 143.529 51.6366 143.898C51.3579 144.258 51.2186 144.832 51.2186 145.619V145.742C51.2186 146.529 51.3579 147.107 51.6366 147.476C51.9236 147.836 52.3744 148.017 52.9892 148.017Z" fill="#303030"/>
<path d="M59.1627 149.05C58.6709 149.05 58.3143 148.91 58.093 148.632C57.8717 148.345 57.761 147.992 57.761 147.574V143.492H56.9741V142.447H57.7733L58.0192 140.639H59.0275V142.447H60.1218V143.492H59.0275V147.451C59.0275 147.828 59.2037 148.017 59.5562 148.017H60.1218V148.878C60.0153 148.927 59.8677 148.968 59.6792 149C59.4988 149.033 59.3267 149.05 59.1627 149.05Z" fill="#303030"/>
<path d="M64.2134 149.062C63.1723 149.062 62.3977 148.787 61.8895 148.238C61.3812 147.689 61.1271 146.836 61.1271 145.681C61.1271 144.525 61.3812 143.672 61.8895 143.123C62.3977 142.574 63.1723 142.299 64.2134 142.299C65.1561 142.299 65.8611 142.557 66.3283 143.074C66.7956 143.582 67.0292 144.394 67.0292 145.508V146H62.4305C62.4633 146.697 62.619 147.213 62.8977 147.55C63.1846 147.877 63.6273 148.041 64.2257 148.041C64.6929 148.041 65.07 147.931 65.3569 147.709C65.6438 147.488 65.7873 147.148 65.7873 146.689H67.0292C67.0292 147.459 66.7669 148.05 66.2422 148.459C65.7258 148.861 65.0495 149.062 64.2134 149.062ZM65.7135 145.041C65.7135 143.894 65.2135 143.32 64.2134 143.32C63.656 143.32 63.2379 143.459 62.9592 143.738C62.6805 144.008 62.5124 144.443 62.4551 145.041H65.7135Z" fill="#303030"/>
<path d="M70.9086 149.062C70.0232 149.062 69.347 148.878 68.8797 148.509C68.4207 148.14 68.1911 147.677 68.1911 147.119C68.1911 147.029 68.1911 146.972 68.1911 146.947C68.1993 146.914 68.2034 146.894 68.2034 146.886H69.4453V146.996C69.4453 147.349 69.5888 147.615 69.8757 147.795C70.1626 147.968 70.5274 148.054 70.97 148.054C71.3635 148.054 71.6914 147.98 71.9537 147.832C72.2242 147.685 72.3595 147.476 72.3595 147.205C72.3595 146.992 72.2857 146.82 72.1382 146.689C71.9906 146.549 71.8103 146.443 71.5971 146.369C71.384 146.287 71.0766 146.193 70.6749 146.086C70.1831 145.963 69.7814 145.84 69.4699 145.717C69.1584 145.594 68.892 145.41 68.6707 145.164C68.4576 144.918 68.351 144.59 68.351 144.18C68.351 143.59 68.5928 143.131 69.0764 142.803C69.5601 142.467 70.2036 142.299 71.0069 142.299C71.507 142.299 71.9414 142.377 72.3103 142.533C72.6874 142.68 72.9743 142.889 73.171 143.16C73.376 143.43 73.4784 143.734 73.4784 144.07L73.4661 144.316H72.2242V144.23C72.2242 143.959 72.1136 143.742 71.8922 143.578C71.6791 143.406 71.3471 143.32 70.8963 143.32C70.4618 143.32 70.1421 143.398 69.9372 143.553C69.7404 143.701 69.6421 143.877 69.6421 144.082C69.6421 144.336 69.765 144.525 70.0109 144.648C70.2569 144.771 70.6462 144.894 71.1791 145.017C71.6955 145.14 72.1177 145.267 72.4456 145.398C72.7735 145.521 73.0563 145.717 73.294 145.988C73.5317 146.25 73.6506 146.603 73.6506 147.045C73.6506 147.734 73.4006 148.242 72.9005 148.57C72.4087 148.898 71.7447 149.062 70.9086 149.062Z" fill="#303030"/>
<path d="M213.835 131.442C212.032 131.442 210.589 130.95 209.507 129.966C208.442 128.966 207.909 127.614 207.909 125.908H211.376C211.376 126.777 211.589 127.458 212.016 127.95C212.458 128.441 213.065 128.687 213.835 128.687C214.59 128.687 215.18 128.433 215.606 127.925C216.049 127.4 216.27 126.638 216.27 125.638C216.27 124.72 216.049 124.023 215.606 123.548C215.163 123.072 214.581 122.834 213.86 122.834C213.368 122.834 212.95 122.941 212.606 123.154C212.261 123.367 211.95 123.654 211.671 124.015L208.474 123.621L209.138 114.276H218.901V117.277H212.114L211.893 121.015C212.286 120.769 212.712 120.572 213.171 120.424C213.63 120.26 214.188 120.179 214.844 120.179C216.286 120.179 217.459 120.646 218.36 121.58C219.278 122.498 219.737 123.851 219.737 125.638C219.737 127.474 219.213 128.9 218.164 129.917C217.114 130.933 215.672 131.442 213.835 131.442Z" fill="#303030"/>
<path d="M222.002 130.261C222.002 129.327 222.207 128.491 222.617 127.753C223.027 126.999 223.527 126.343 224.117 125.786C224.723 125.228 225.51 124.597 226.478 123.892C227.314 123.253 227.97 122.72 228.445 122.293C228.937 121.867 229.347 121.4 229.675 120.892C230.085 120.252 230.289 119.531 230.289 118.728C230.289 118.203 230.093 117.744 229.699 117.35C229.322 116.941 228.773 116.736 228.052 116.736C226.428 116.736 225.617 117.514 225.617 119.072V120.08H222.272C222.207 119.785 222.174 119.457 222.174 119.096C222.174 117.391 222.74 116.113 223.871 115.26C225.019 114.408 226.461 113.981 228.199 113.981C229.724 113.981 230.896 114.276 231.716 114.867C232.536 115.457 233.068 116.121 233.314 116.859C233.577 117.596 233.708 118.285 233.708 118.924C233.708 120.056 233.454 121.064 232.945 121.949C232.437 122.818 231.831 123.556 231.126 124.162C230.437 124.753 229.576 125.4 228.543 126.105C227.756 126.646 227.166 127.089 226.773 127.433C226.494 127.679 226.289 127.917 226.158 128.146H233.806V131.147H222.002V130.261Z" fill="#303030"/>
<path d="M207.86 142.447H208.868L208.991 143.307H209.077C209.282 142.98 209.556 142.73 209.901 142.557C210.253 142.385 210.643 142.299 211.069 142.299C211.889 142.299 212.52 142.578 212.962 143.135C213.405 143.685 213.626 144.533 213.626 145.681C213.626 146.812 213.405 147.66 212.962 148.226C212.52 148.783 211.917 149.062 211.155 149.062C210.261 149.062 209.61 148.767 209.2 148.177H209.126V151.042H207.86V142.447ZM210.712 147.992C211.294 147.992 211.708 147.82 211.954 147.476C212.2 147.132 212.323 146.558 212.323 145.754V145.644C212.323 144.824 212.2 144.242 211.954 143.898C211.708 143.545 211.294 143.369 210.712 143.369C210.163 143.369 209.761 143.562 209.507 143.947C209.253 144.332 209.126 144.898 209.126 145.644V145.742C209.126 146.48 209.253 147.041 209.507 147.427C209.761 147.804 210.163 147.992 210.712 147.992Z" fill="#303030"/>
<path d="M215.164 142.447H216.185L216.308 143.443H216.382C216.677 142.68 217.173 142.299 217.87 142.299C218.099 142.299 218.3 142.332 218.472 142.398V143.603H218.017C217.533 143.603 217.148 143.742 216.861 144.021C216.574 144.299 216.431 144.726 216.431 145.299V148.914H215.164V142.447Z" fill="#303030"/>
<path d="M222.4 149.062C221.375 149.062 220.605 148.787 220.088 148.238C219.58 147.681 219.326 146.828 219.326 145.681C219.326 144.533 219.58 143.685 220.088 143.135C220.605 142.578 221.375 142.299 222.4 142.299C223.425 142.299 224.195 142.578 224.712 143.135C225.228 143.685 225.486 144.533 225.486 145.681C225.486 146.828 225.228 147.681 224.712 148.238C224.195 148.787 223.425 149.062 222.4 149.062ZM222.4 148.017C223.023 148.017 223.474 147.836 223.752 147.476C224.039 147.107 224.183 146.529 224.183 145.742V145.619C224.183 144.832 224.039 144.258 223.752 143.898C223.474 143.529 223.023 143.344 222.4 143.344C221.785 143.344 221.334 143.529 221.047 143.898C220.769 144.258 220.629 144.832 220.629 145.619V145.742C220.629 146.529 220.769 147.107 221.047 147.476C221.334 147.836 221.785 148.017 222.4 148.017Z" fill="#303030"/>
<path d="M230.233 149.062C229.807 149.062 229.418 148.976 229.065 148.804C228.721 148.632 228.446 148.382 228.241 148.054H228.155L228.032 148.914H227.024V140.024H228.291V143.184H228.364C228.774 142.594 229.426 142.299 230.319 142.299C231.082 142.299 231.684 142.582 232.127 143.148C232.57 143.705 232.791 144.549 232.791 145.681C232.791 146.828 232.57 147.681 232.127 148.238C231.684 148.787 231.053 149.062 230.233 149.062ZM229.877 147.992C230.459 147.992 230.873 147.82 231.119 147.476C231.365 147.132 231.488 146.558 231.488 145.754V145.644C231.488 144.824 231.365 144.242 231.119 143.898C230.873 143.545 230.459 143.369 229.877 143.369C229.328 143.369 228.926 143.562 228.672 143.947C228.418 144.332 228.291 144.902 228.291 145.656V145.754C228.291 146.492 228.418 147.05 228.672 147.427C228.926 147.804 229.328 147.992 229.877 147.992Z" fill="#303030"/>
<path d="M234.329 140.024H235.595V148.914H234.329V140.024Z" fill="#303030"/>
<path d="M240.244 149.062C239.203 149.062 238.429 148.787 237.92 148.238C237.412 147.689 237.158 146.836 237.158 145.681C237.158 144.525 237.412 143.672 237.92 143.123C238.429 142.574 239.203 142.299 240.244 142.299C241.187 142.299 241.892 142.557 242.359 143.074C242.827 143.582 243.06 144.394 243.06 145.508V146H238.461C238.494 146.697 238.65 147.213 238.929 147.55C239.216 147.877 239.658 148.041 240.257 148.041C240.724 148.041 241.101 147.931 241.388 147.709C241.675 147.488 241.818 147.148 241.818 146.689H243.06C243.06 147.459 242.798 148.05 242.273 148.459C241.757 148.861 241.081 149.062 240.244 149.062ZM241.745 145.041C241.745 143.894 241.244 143.32 240.244 143.32C239.687 143.32 239.269 143.459 238.99 143.738C238.711 144.008 238.543 144.443 238.486 145.041H241.745Z" fill="#303030"/>
<path d="M244.616 142.447H245.636L245.759 143.307H245.845C246.067 142.98 246.337 142.73 246.657 142.557C246.976 142.385 247.341 142.299 247.751 142.299C248.587 142.299 249.149 142.635 249.436 143.307H249.509C249.731 142.988 250.014 142.742 250.358 142.57C250.702 142.389 251.079 142.299 251.489 142.299C252.096 142.299 252.571 142.463 252.915 142.791C253.26 143.111 253.432 143.631 253.432 144.353V148.914H252.165V144.599C252.165 144.156 252.067 143.844 251.87 143.664C251.682 143.475 251.415 143.381 251.071 143.381C250.669 143.381 250.333 143.541 250.063 143.861C249.792 144.18 249.657 144.599 249.657 145.115V148.914H248.39V144.599C248.39 144.156 248.296 143.844 248.108 143.664C247.927 143.475 247.665 143.381 247.321 143.381C246.919 143.381 246.579 143.541 246.3 143.861C246.021 144.18 245.882 144.599 245.882 145.115V148.914H244.616V142.447Z" fill="#303030"/>
<path d="M257.643 149.062C256.757 149.062 256.081 148.878 255.614 148.509C255.155 148.14 254.925 147.677 254.925 147.119C254.925 147.029 254.925 146.972 254.925 146.947C254.933 146.914 254.937 146.894 254.937 146.886H256.179V146.996C256.179 147.349 256.323 147.615 256.61 147.796C256.897 147.968 257.261 148.054 257.704 148.054C258.097 148.054 258.425 147.98 258.688 147.832C258.958 147.685 259.093 147.476 259.093 147.205C259.093 146.992 259.02 146.82 258.872 146.689C258.725 146.55 258.544 146.443 258.331 146.369C258.118 146.287 257.811 146.193 257.409 146.086C256.917 145.963 256.515 145.84 256.204 145.717C255.892 145.595 255.626 145.41 255.405 145.164C255.192 144.918 255.085 144.59 255.085 144.18C255.085 143.59 255.327 143.131 255.81 142.803C256.294 142.467 256.938 142.299 257.741 142.299C258.241 142.299 258.675 142.377 259.044 142.533C259.421 142.68 259.708 142.889 259.905 143.16C260.11 143.43 260.212 143.734 260.212 144.07L260.2 144.316H258.958V144.23C258.958 143.959 258.848 143.742 258.626 143.578C258.413 143.406 258.081 143.32 257.63 143.32C257.196 143.32 256.876 143.398 256.671 143.553C256.474 143.701 256.376 143.877 256.376 144.082C256.376 144.336 256.499 144.525 256.745 144.648C256.991 144.771 257.38 144.894 257.913 145.017C258.429 145.14 258.852 145.267 259.18 145.398C259.507 145.521 259.79 145.717 260.028 145.988C260.266 146.25 260.385 146.603 260.385 147.045C260.385 147.734 260.135 148.242 259.634 148.57C259.143 148.898 258.479 149.062 257.643 149.062Z" fill="#303030"/>
<path d="M207.023 52.2427H214.265V59.484H207.023V52.2427Z" fill="#297467"/>
<path d="M207.023 60.837H214.265V68.0782H207.023V60.837Z" fill="#297467"/>
<path d="M207.023 69.4313H214.265V76.6725H207.023V69.4313Z" fill="#297467"/>
<path d="M207.023 78.0257H214.265V85.2669H207.023V78.0257Z" fill="#297467"/>
<path d="M207.023 86.6199H214.265V93.8611H207.023V86.6199Z" fill="#297467"/>
<path d="M207.023 95.2141H214.265V102.455H207.023V95.2141Z" fill="#297467"/>
<path d="M215.589 52.2428H222.831V59.484H215.589V52.2428Z" fill="#297467"/>
<path d="M215.589 60.837H222.831V68.0782H215.589V60.837Z" fill="#297467"/>
<path d="M215.589 69.4313H222.831V76.6725H215.589V69.4313Z" fill="#297467"/>
<path d="M215.589 78.0257H222.831V85.2669H215.589V78.0257Z" fill="#297467"/>
<path d="M215.589 86.6199H222.831V93.8611H215.589V86.6199Z" fill="#297467"/>
<path d="M215.589 95.2141H222.831V102.455H215.589V95.2141Z" fill="#297467"/>
<path d="M224.155 52.2428H231.396V59.484H224.155V52.2428Z" fill="#297467"/>
<path d="M224.155 60.837H231.396V68.0782H224.155V60.837Z" fill="#297467"/>
<path d="M224.155 69.4313H231.396V76.6725H224.155V69.4313Z" fill="#297467"/>
<path d="M224.155 78.0257H231.396V85.2669H224.155V78.0257Z" fill="#297467"/>
<path d="M224.155 86.6199H231.396V93.8611H224.155V86.6199Z" fill="#297467"/>
<path d="M232.721 52.2428H239.962V59.484H232.721V52.2428Z" fill="#297467"/>
<path d="M232.721 60.837H239.962V68.0782H232.721V60.837Z" fill="#297467"/>
<path d="M232.721 69.4313H239.962V76.6725H232.721V69.4313Z" fill="#297467"/>
<path d="M232.721 78.0257H239.962V85.2669H232.721V78.0257Z" fill="#297467"/>
<path d="M232.721 86.6199H239.962V93.8611H232.721V86.6199Z" fill="#297467"/>
<path d="M241.286 52.2428H248.528V59.484H241.286V52.2428Z" fill="#297467"/>
<path d="M241.286 60.837H248.528V68.0782H241.286V60.837Z" fill="#297467"/>
<path d="M241.286 69.4313H248.528V76.6725H241.286V69.4313Z" fill="#297467"/>
<path d="M241.286 78.0257H248.528V85.2669H241.286V78.0257Z" fill="#297467"/>
<path d="M241.286 86.6199H248.528V93.8611H241.286V86.6199Z" fill="#297467"/>
<path d="M249.852 52.2428H257.093V59.484H249.852V52.2428Z" fill="#297467"/>
<path d="M249.852 60.837H257.093V68.0782H249.852V60.837Z" fill="#297467"/>
<path d="M249.852 69.4313H257.093V76.6725H249.852V69.4313Z" fill="#297467"/>
<path d="M249.852 78.0257H257.093V85.2669H249.852V78.0257Z" fill="#297467"/>
<path d="M249.852 86.6199H257.093V93.8611H249.852V86.6199Z" fill="#297467"/>
<path d="M258.418 52.2428H265.659V59.484H258.418V52.2428Z" fill="#297467"/>
<path d="M258.418 60.837H265.659V68.0782H258.418V60.837Z" fill="#297467"/>
<path d="M258.418 69.4313H265.659V76.6725H258.418V69.4313Z" fill="#297467"/>
<path d="M258.418 78.0257H265.659V85.2669H258.418V78.0257Z" fill="#297467"/>
<path d="M258.418 86.6199H265.659V93.8611H258.418V86.6199Z" fill="#297467"/>
<path d="M266.984 52.2428H274.225V59.484H266.984V52.2428Z" fill="#297467"/>
<path d="M266.984 60.837H274.225V68.0782H266.984V60.837Z" fill="#297467"/>
<path d="M266.984 69.4313H274.225V76.6725H266.984V69.4313Z" fill="#297467"/>
<path d="M266.984 78.0257H274.225V85.2669H266.984V78.0257Z" fill="#297467"/>
<path d="M266.984 86.6199H274.225V93.8611H266.984V86.6199Z" fill="#297467"/>
<path d="M275.549 52.2428H282.791V59.484H275.549V52.2428Z" fill="#297467"/>
<path d="M275.549 60.837H282.791V68.0782H275.549V60.837Z" fill="#297467"/>
<path d="M275.549 69.4313H282.791V76.6725H275.549V69.4313Z" fill="#297467"/>
<path d="M275.549 78.0257H282.791V85.2669H275.549V78.0257Z" fill="#297467"/>
<path d="M275.549 86.6199H282.791V93.8611H275.549V86.6199Z" fill="#297467"/>
<path d="M284.115 52.2428H291.356V59.484H284.115V52.2428Z" fill="#297467"/>
<path d="M284.115 60.837H291.356V68.0782H284.115V60.837Z" fill="#297467"/>
<path d="M284.115 69.4313H291.356V76.6725H284.115V69.4313Z" fill="#297467"/>
<path d="M284.115 78.0257H291.356V85.2669H284.115V78.0257Z" fill="#297467"/>
<path d="M284.115 86.6199H291.356V93.8611H284.115V86.6199Z" fill="#297467"/>
<path d="M350.309 131.442C348.538 131.442 347.21 130.958 346.325 129.991C345.456 129.023 345.022 127.745 345.022 126.154H348.44C348.44 126.99 348.596 127.63 348.907 128.073C349.219 128.499 349.727 128.712 350.432 128.712C351.137 128.712 351.662 128.523 352.006 128.146C352.367 127.753 352.604 127.212 352.719 126.523C352.834 125.835 352.899 124.908 352.916 123.744C352.522 124.121 352.022 124.441 351.416 124.703C350.825 124.949 350.178 125.072 349.473 125.072C347.801 125.072 346.546 124.572 345.71 123.572C344.891 122.572 344.481 121.228 344.481 119.539C344.481 118.424 344.727 117.449 345.218 116.613C345.71 115.76 346.382 115.112 347.235 114.67C348.104 114.211 349.079 113.981 350.161 113.981C352.211 113.981 353.76 114.612 354.809 115.875C355.859 117.121 356.383 119.236 356.383 122.22C356.383 124.498 356.146 126.318 355.67 127.679C355.195 129.04 354.514 130.007 353.629 130.581C352.744 131.155 351.637 131.442 350.309 131.442ZM350.309 122.392C351.096 122.392 351.694 122.138 352.104 121.629C352.514 121.121 352.719 120.424 352.719 119.539C352.719 118.703 352.514 118.031 352.104 117.523C351.694 116.998 351.096 116.736 350.309 116.736C349.522 116.736 348.932 116.998 348.538 117.523C348.145 118.031 347.948 118.703 347.948 119.539C347.948 120.424 348.145 121.121 348.538 121.629C348.932 122.138 349.522 122.392 350.309 122.392Z" fill="#303030"/>
<path d="M344.579 140.024H345.833V141.315H344.579V140.024ZM344.579 142.447H345.845V148.914H344.579V142.447Z" fill="#303030"/>
<path d="M347.777 142.447H348.798L348.92 143.307H349.007C349.236 142.98 349.531 142.73 349.892 142.557C350.261 142.385 350.675 142.299 351.134 142.299C352.503 142.299 353.187 143.041 353.187 144.525V148.914H351.921V144.685C351.921 144.201 351.81 143.865 351.589 143.676C351.376 143.48 351.06 143.381 350.642 143.381C350.355 143.381 350.089 143.455 349.843 143.603C349.597 143.742 349.4 143.943 349.252 144.205C349.113 144.467 349.043 144.771 349.043 145.115V148.914H347.777V142.447Z" fill="#303030"/>
<path d="M354.688 144.955H357.898V146.234H354.688V144.955Z" fill="#303030"/>
<path d="M361.756 149.062C360.871 149.062 360.195 148.878 359.728 148.509C359.269 148.14 359.039 147.677 359.039 147.119C359.039 147.029 359.039 146.972 359.039 146.947C359.047 146.914 359.051 146.894 359.051 146.886H360.293V146.996C360.293 147.349 360.437 147.615 360.724 147.796C361.011 147.968 361.375 148.054 361.818 148.054C362.211 148.054 362.539 147.98 362.802 147.832C363.072 147.685 363.207 147.476 363.207 147.205C363.207 146.992 363.134 146.82 362.986 146.689C362.839 146.55 362.658 146.443 362.445 146.369C362.232 146.287 361.925 146.193 361.523 146.086C361.031 145.963 360.629 145.84 360.318 145.717C360.006 145.595 359.74 145.41 359.519 145.164C359.305 144.918 359.199 144.59 359.199 144.18C359.199 143.59 359.441 143.131 359.924 142.803C360.408 142.467 361.052 142.299 361.855 142.299C362.355 142.299 362.789 142.377 363.158 142.533C363.535 142.68 363.822 142.889 364.019 143.16C364.224 143.43 364.326 143.734 364.326 144.07L364.314 144.316H363.072V144.23C363.072 143.959 362.962 143.742 362.74 143.578C362.527 143.406 362.195 143.32 361.744 143.32C361.31 143.32 360.99 143.398 360.785 143.553C360.588 143.701 360.49 143.877 360.49 144.082C360.49 144.336 360.613 144.525 360.859 144.648C361.105 144.771 361.494 144.894 362.027 145.017C362.543 145.14 362.966 145.267 363.294 145.398C363.621 145.521 363.904 145.717 364.142 145.988C364.38 146.25 364.499 146.603 364.499 147.045C364.499 147.734 364.248 148.242 363.748 148.57C363.257 148.898 362.593 149.062 361.756 149.062Z" fill="#303030"/>
<path d="M368.574 149.062C367.574 149.062 366.836 148.787 366.361 148.238C365.885 147.689 365.647 146.836 365.647 145.681C365.647 144.525 365.885 143.672 366.361 143.123C366.844 142.574 367.582 142.299 368.574 142.299C369.451 142.299 370.107 142.516 370.541 142.951C370.984 143.377 371.205 144.012 371.205 144.857H369.926C369.926 144.332 369.82 143.947 369.607 143.701C369.402 143.455 369.053 143.332 368.562 143.332C368.004 143.332 367.594 143.516 367.332 143.885C367.078 144.254 366.951 144.844 366.951 145.656V145.742C366.951 146.545 367.078 147.127 367.332 147.488C367.594 147.849 368.012 148.029 368.586 148.029C369.07 148.029 369.422 147.902 369.644 147.648C369.873 147.386 369.988 147.004 369.988 146.504H371.205C371.205 147.275 370.984 147.894 370.541 148.361C370.099 148.828 369.443 149.062 368.574 149.062Z" fill="#303030"/>
<path d="M375.33 149.062C374.305 149.062 373.534 148.787 373.018 148.238C372.51 147.681 372.256 146.828 372.256 145.681C372.256 144.533 372.51 143.685 373.018 143.135C373.534 142.578 374.305 142.299 375.33 142.299C376.354 142.299 377.125 142.578 377.641 143.135C378.158 143.685 378.416 144.533 378.416 145.681C378.416 146.828 378.158 147.681 377.641 148.238C377.125 148.787 376.354 149.062 375.33 149.062ZM375.33 148.017C375.953 148.017 376.404 147.836 376.682 147.476C376.969 147.107 377.113 146.529 377.113 145.742V145.619C377.113 144.832 376.969 144.258 376.682 143.898C376.404 143.529 375.953 143.344 375.33 143.344C374.715 143.344 374.264 143.529 373.977 143.898C373.698 144.258 373.559 144.832 373.559 145.619V145.742C373.559 146.529 373.698 147.107 373.977 147.476C374.264 147.836 374.715 148.017 375.33 148.017Z" fill="#303030"/>
<path d="M379.954 142.447H380.962L381.085 143.307H381.171C381.376 142.98 381.651 142.73 381.995 142.557C382.348 142.385 382.737 142.299 383.163 142.299C383.983 142.299 384.614 142.578 385.057 143.135C385.499 143.685 385.721 144.533 385.721 145.681C385.721 146.812 385.499 147.66 385.057 148.226C384.614 148.783 384.012 149.062 383.249 149.062C382.356 149.062 381.704 148.767 381.294 148.177H381.22V151.042H379.954V142.447ZM382.807 147.992C383.389 147.992 383.803 147.82 384.049 147.476C384.294 147.132 384.417 146.558 384.417 145.754V145.644C384.417 144.824 384.294 144.242 384.049 143.898C383.803 143.545 383.389 143.369 382.807 143.369C382.257 143.369 381.856 143.562 381.602 143.947C381.347 144.332 381.22 144.898 381.22 145.644V145.742C381.22 146.48 381.347 147.041 381.602 147.427C381.856 147.804 382.257 147.992 382.807 147.992Z" fill="#303030"/>
<path d="M389.976 149.062C388.935 149.062 388.16 148.787 387.652 148.238C387.144 147.689 386.89 146.836 386.89 145.681C386.89 144.525 387.144 143.672 387.652 143.123C388.16 142.574 388.935 142.299 389.976 142.299C390.919 142.299 391.624 142.557 392.091 143.074C392.558 143.582 392.792 144.394 392.792 145.508V146H388.193C388.226 146.697 388.382 147.213 388.66 147.55C388.947 147.877 389.39 148.041 389.988 148.041C390.456 148.041 390.833 147.931 391.12 147.709C391.407 147.488 391.55 147.148 391.55 146.689H392.792C392.792 147.459 392.53 148.05 392.005 148.459C391.489 148.861 390.812 149.062 389.976 149.062ZM391.476 145.041C391.476 143.894 390.976 143.32 389.976 143.32C389.419 143.32 389.001 143.459 388.722 143.738C388.443 144.008 388.275 144.443 388.218 145.041H391.476Z" fill="#303030"/>
<path d="M343.743 78.0257H350.984V85.2669H343.743V78.0257Z" fill="#297467"/>
<path d="M343.743 86.6199H350.984V93.8611H343.743V86.6199Z" fill="#297467"/>
<path d="M352.309 78.0256H359.55V85.2668H352.309V78.0256Z" fill="#297467"/>
<path d="M352.309 86.6199H359.55V93.8611H352.309V86.6199Z" fill="#297467"/>
<path d="M360.874 78.0256H368.115V85.2668H360.874V78.0256Z" fill="#297467"/>
<path d="M360.874 86.6199H368.115V93.8611H360.874V86.6199Z" fill="#297467"/>
<path d="M360.874 95.2143H368.115V102.456H360.874V95.2143Z" fill="#297467"/>
<path d="M352.309 95.2143H359.55V102.456H352.309V95.2143Z" fill="#297467"/>
<path d="M343.743 95.2143H350.984V102.456H343.743V95.2143Z" fill="#297467"/>
</svg>
