<svg width="189" height="380" viewBox="0 0 189 380" fill="none" xmlns="http://www.w3.org/2000/svg">
<path d="M0.803223 354.578L93.4103 379.907V228.917L0.803223 203.588V354.578Z" fill="#CCD1E2"/>
<path d="M186.017 354.578L93.41 379.907V228.917L186.017 203.588V354.578Z" fill="#AAAFC1"/>
<path d="M93.2816 183.177L186.017 203.588L93.2816 228.971L0.545898 203.588L93.2816 183.177Z" fill="#DADFEF"/>
<ellipse cx="93.2796" cy="205.576" rx="64.845" ry="6.4696" fill="#AAAFC1"/>
<path d="M102.203 92.7555C99.0732 90.9884 87.9524 93.5293 87.9524 93.5293L97.6488 162.81L110.045 161.018C110.045 161.018 105.334 94.5226 102.203 92.7555Z" fill="#2C2C2C"/>
<rect width="24.5773" height="9.06172" transform="matrix(-0.313281 0.957251 0.941593 0.314559 102.813 159.76)" fill="#AD5D4E"/>
<rect width="9.49561" height="9.09201" transform="matrix(-0.984492 0.140022 0.132466 0.996801 102.526 176.95)" fill="#AD5D4E"/>
<path fill-rule="evenodd" clip-rule="evenodd" d="M149.921 207.622C128.754 207.622 111.594 190.236 111.594 168.79C111.594 147.343 128.754 129.957 149.921 129.957C171.088 129.957 188.247 147.343 188.247 168.79C188.247 190.236 171.088 207.622 149.921 207.622ZM149.921 201.588C132.043 201.588 117.551 186.904 117.551 168.79C117.551 150.676 132.043 135.992 149.921 135.992C167.798 135.992 182.291 150.676 182.291 168.79C182.291 186.904 167.798 201.588 149.921 201.588Z" fill="#3F3F3F"/>
<path fill-rule="evenodd" clip-rule="evenodd" d="M38.5672 207.622C17.4001 207.622 0.240822 190.236 0.240822 168.79C0.240822 147.343 17.4001 129.957 38.5672 129.957C59.7343 129.957 76.8936 147.343 76.8936 168.79C76.8936 190.236 59.7343 207.622 38.5672 207.622ZM38.5672 201.588C20.6897 201.588 6.19704 186.904 6.19704 168.79C6.19704 150.676 20.6897 135.992 38.5672 135.992C56.4448 135.992 70.9374 150.676 70.9374 168.79C70.9374 186.904 56.4448 201.588 38.5672 201.588Z" fill="#3F3F3F"/>
<ellipse rx="5.17924" ry="5.24777" transform="matrix(-1 0 0 1 149.921 168.789)" fill="#474747"/>
<ellipse rx="5.17921" ry="5.24777" transform="matrix(-1 0 0 1 38.5674 168.789)" fill="#474747"/>
<rect width="5.17928" height="86.0617" transform="matrix(-1 0 0 1 41.1567 84.3022)" fill="#E0A458"/>
<rect width="5.19127" height="70.5218" transform="matrix(-0.906231 0.422783 0.413709 0.910409 123.704 104.639)" fill="#E0A458"/>
<path d="M52.7715 104.55L50.045 109.012L148.205 170.956L152.866 168.824L52.7715 104.55Z" fill="#E0A458"/>
<rect width="5.24777" height="93.7441" transform="matrix(4.31406e-08 1 1 -4.42898e-08 38.5674 104.638)" fill="#E0A458"/>
<rect width="5.24779" height="23.0476" transform="matrix(4.30034e-08 1 1 -4.4431e-08 12.9297 84.3022)" fill="#474747"/>
<rect width="5.17922" height="14.5626" transform="matrix(-1 0 0 1 99.2939 95.3223)" fill="#E0A458"/>
<rect width="5.24783" height="28.2268" transform="matrix(4.314e-08 1 1 -4.42904e-08 78.7061 92.6987)" fill="#2C2C2C"/>
<rect width="4.2359" height="12.0175" transform="matrix(-1 0 0 1 136.569 101.184)" fill="#A86561"/>
<path d="M102.512 67.5938C102.512 67.5938 82.2694 44.5672 54.3753 40.2985C26.4812 36.0297 38.2131 52.6643 38.2131 52.6643C60.1142 61.4114 72.3873 83.2747 72.3873 83.2747L102.512 67.5938Z" fill="#E0A458"/>
<rect width="9.48388" height="11.3819" transform="matrix(0.952871 -0.288626 -0.282894 -0.963687 22.4541 89.4817)" fill="#A27D63"/>
<path d="M56.2073 74.4933C56.6098 62.6847 57.4537 52.2547 53.0843 48.2608C47.7519 45.8904 46.8835 48.2737 46.19 55.2462C45.3155 64.0378 41.7513 71.4346 39.7215 72.7354L27.8744 73.4031C27.2267 78.2051 30.258 84.8071 31.8546 87.5078C39.8045 88.0899 55.8048 86.3018 56.2073 74.4933Z" fill="#F4BB73"/>
<rect width="3.39135" height="21.5083" transform="matrix(-1 0 0 1 97.0688 137.36)" fill="#474747"/>
<ellipse rx="2.26091" ry="2.29083" transform="matrix(-1 0 0 1 53.9744 35.1786)" fill="#474747"/>
<ellipse rx="2.26089" ry="2.29083" transform="matrix(-1 0 0 1 55.2308 32.2515)" fill="#474747"/>
<ellipse rx="20.019" ry="20.2798" transform="matrix(-1 0 0 1 32.1724 32.0411)" fill="#936D51"/>
<path d="M28.2633 34.1469C28.2633 35.4364 29.2441 35.9196 30.5682 35.9196C32.018 35.9196 32.873 35.4364 32.873 34.1469C32.873 32.8574 31.8411 31.812 30.5682 31.812C29.2953 31.812 28.2633 32.8574 28.2633 34.1469Z" fill="#2C2C2C"/>
<path d="M14.8169 28.9812C14.8169 30.0576 15.6356 30.4609 16.7407 30.4609C17.9509 30.4609 18.6646 30.0576 18.6646 28.9812C18.6646 27.9049 17.8032 27.0324 16.7407 27.0324C15.6783 27.0324 14.8169 27.9049 14.8169 28.9812Z" fill="#2C2C2C"/>
<ellipse rx="2.63772" ry="2.67263" transform="matrix(-1 0 0 1 20.438 37.724)" fill="#7B5A41"/>
<ellipse rx="2.6377" ry="2.67263" transform="matrix(-1 0 0 1 23.0757 38.7422)" fill="#7B5A41"/>
<path d="M23.7036 29.3243L19.1966 39.7609L23.7036 41.3665L23.7036 29.3243Z" fill="#7B5A41"/>
<path d="M47.066 27.0335L44.6795 40.1421L48.0081 38.2967L51.188 34.4787L53.7231 35.115L58.873 25.2517C60.4807 8.04507 32.747 2.72526 18.6791 2.21619L17.6743 17.9975C25.0096 16.063 40.3252 23.2155 47.066 27.0335Z" fill="#2C2C2C"/>
<ellipse rx="2.2609" ry="2.29083" transform="matrix(-1 0 0 1 20.9403 2.59799)" fill="#2C2C2C"/>
<ellipse rx="2.26088" ry="2.29083" transform="matrix(-1 0 0 1 24.3314 2.59799)" fill="#2C2C2C"/>
<ellipse rx="2.26091" ry="2.29083" transform="matrix(-1 0 0 1 28.3509 2.85333)" fill="#2C2C2C"/>
<ellipse rx="2.2609" ry="2.29083" transform="matrix(-1 0 0 1 32.3704 3.48886)" fill="#2C2C2C"/>
<ellipse rx="2.26091" ry="2.29083" transform="matrix(-1 0 0 1 36.39 4.12521)" fill="#2C2C2C"/>
<ellipse rx="2.26089" ry="2.29083" transform="matrix(-1 0 0 1 40.409 5.14337)" fill="#2C2C2C"/>
<ellipse rx="2.26091" ry="2.29083" transform="matrix(-1 0 0 1 53.598 13.2885)" fill="#2C2C2C"/>
<ellipse rx="2.26091" ry="2.29083" transform="matrix(-1 0 0 1 50.3319 10.9977)" fill="#2C2C2C"/>
<ellipse rx="2.2609" ry="2.29083" transform="matrix(-1 0 0 1 47.0662 8.70688)" fill="#2C2C2C"/>
<ellipse rx="2.26091" ry="2.29083" transform="matrix(-1 0 0 1 43.8006 6.41604)" fill="#2C2C2C"/>
<ellipse rx="2.26091" ry="2.29083" transform="matrix(-1 0 0 1 55.9842 16.343)" fill="#2C2C2C"/>
<ellipse rx="2.2609" ry="2.29083" transform="matrix(-1 0 0 1 58.1195 20.0337)" fill="#2C2C2C"/>
<ellipse rx="2.26093" ry="2.29083" transform="matrix(-1 0 0 1 58.9988 23.47)" fill="#2C2C2C"/>
<ellipse rx="2.26089" ry="2.29083" transform="matrix(-1 0 0 1 57.743 26.3972)" fill="#2C2C2C"/>
<ellipse rx="2.26092" ry="2.29082" transform="matrix(-1 0 0 1 56.4866 29.3243)" fill="#2C2C2C"/>
<ellipse rx="3.35807" ry="3.36486" transform="matrix(-0.883865 -0.467761 -0.457313 0.889316 51.309 36.1991)" fill="#7B5A41"/>
<path d="M49.0808 34.7528C48.2657 35.7856 47.0852 38.9194 48.1099 39.7497C49.1346 40.5799 52.61 39.6538 53.4251 38.6209C54.2403 37.5881 52.0865 36.8396 51.0618 36.0093C50.0371 35.1791 49.8959 33.7199 49.0808 34.7528Z" fill="#7B5A41"/>
<path d="M24.4221 44.9127C24.4221 46.2022 26.9139 47.5005 29.944 47.1383C32.279 46.8591 35.1973 45.0359 35.1973 43.7464C35.1973 43.7464 31.2169 44.9127 29.944 44.9127C25.7237 45.7411 24.4221 43.6232 24.4221 44.9127Z" fill="#7B5A41"/>
<rect width="3.38059" height="21.5084" transform="matrix(-1 0 0 1 101.047 164.501)" fill="#474747"/>
<rect width="13.8166" height="4.83618" transform="matrix(-1 0 0 1 102.219 155.177)" fill="#474747"/>
<rect width="13.7727" height="4.83621" transform="matrix(-1 0 0 1 106.18 182.318)" fill="#474747"/>
<ellipse rx="12.3722" ry="12.5359" transform="matrix(-1 0 0 1 92.8495 156.271)" fill="#C8924D"/>
<rect x="80.1821" y="17.1229" width="62.5031" height="1.51084" fill="white"/>
<rect x="99.2935" y="25.7608" width="62.5031" height="1.51084" fill="white"/>
<rect x="126.791" y="82.6285" width="48.9183" height="1.51084" fill="white"/>
<rect x="125.461" y="91.1688" width="31.9597" height="1.51084" fill="white"/>
<rect width="13.7729" height="4.8362" transform="matrix(-1 0 0 1 91.4492 152.538)" fill="#474747"/>
<rect width="3.38053" height="9.54514" transform="matrix(-1 0 0 1 86.1904 154.956)" fill="#474747"/>
<path fill-rule="evenodd" clip-rule="evenodd" d="M73.1236 84.0277C73.5415 84.577 73.974 85.1339 74.4282 85.6893C69.8066 92.9021 65.3298 111.586 64.1019 116.976C63.9107 117.428 63.8037 117.873 63.8052 118.302C63.7835 118.401 63.7724 118.453 63.7724 118.453L63.8113 118.469C63.8179 118.561 63.8298 118.653 63.8473 118.744C64.5874 122.598 90.7727 144.155 90.7727 144.155L99.2919 134.829L79.4899 116.14L92.2576 94.1457C93.2872 94.148 94.2977 94.165 95.283 94.1816H95.2831C104.29 94.333 111.187 94.449 111.187 82.9459C111.187 71.1099 100.669 66.5282 100.669 66.5282C90.1238 66.5282 71.6211 74.5462 73.1236 84.0277Z" fill="#474747"/>
<rect width="20.169" height="9.09174" transform="matrix(-0.675203 0.74059 0.727081 0.683378 99.5767 132.871)" fill="#AD5D4E"/>
<rect width="16.2557" height="9.20296" transform="matrix(-0.998914 -0.0266764 -0.0297981 1.00028 92.7812 144.721)" fill="#AD5D4E"/>
</svg>
