<svg width="189" height="381" viewBox="0 0 189 381" fill="none" xmlns="http://www.w3.org/2000/svg">
<path d="M0.898438 355.054L93.5055 380.384V229.391L0.898438 204.06V355.054Z" fill="#DADFEF"/>
<path d="M186.112 355.054L93.5053 380.384V229.391L186.112 204.06V355.054Z" fill="#C2C9E0"/>
<path d="M93.3768 183.649L186.112 204.06L93.3768 229.444L0.641113 204.06L93.3768 183.649Z" fill="#E8EDFF"/>
<ellipse cx="94.5164" cy="205.171" rx="65.0516" ry="6.49021" fill="#C2C9E0"/>
<rect width="24.6115" height="9.08492" transform="matrix(-0.493762 0.876689 0.864057 0.490944 87.8687 124.784)" fill="#AD5D4E"/>
<rect width="9.52509" height="9.09177" transform="matrix(-0.99372 -0.0544338 -0.0631229 1.00278 84.2456 141.599)" fill="#AD5D4E"/>
<path d="M92.8889 94.1377C92.8889 94.1377 91.9149 80.6746 86.6286 77.0015C81.3423 73.3284 55.414 99.3981 55.414 99.3981L62.6526 109.666L92.8889 94.1377Z" fill="#2C2C2C"/>
<path d="M69.5602 92.9472C66.3426 92.9007 56.4187 98.5372 56.4187 98.5372L77.2941 140.658L88.5336 135.059C88.5336 135.059 72.7779 92.9937 69.5602 92.9472Z" fill="#2C2C2C"/>
<path fill-rule="evenodd" clip-rule="evenodd" d="M150.321 208.1C129.154 208.1 111.995 190.714 111.995 169.266C111.995 147.819 129.154 130.433 150.321 130.433C171.488 130.433 188.647 147.819 188.647 169.266C188.647 190.714 171.488 208.1 150.321 208.1ZM150.321 202.065C132.444 202.065 117.951 187.381 117.951 169.267C117.951 151.153 132.444 136.468 150.321 136.468C168.199 136.468 182.691 151.153 182.691 169.267C182.691 187.381 168.199 202.065 150.321 202.065Z" fill="#3F3F3F"/>
<path fill-rule="evenodd" clip-rule="evenodd" d="M38.9676 208.1C17.8005 208.1 0.641212 190.714 0.641212 169.266C0.641212 147.819 17.8005 130.433 38.9676 130.433C60.1346 130.433 77.2939 147.819 77.2939 169.266C77.2939 190.714 60.1346 208.1 38.9676 208.1ZM38.9676 202.065C21.0901 202.065 6.59743 187.381 6.59743 169.267C6.59743 151.153 21.0901 136.468 38.9676 136.468C56.8452 136.468 71.3378 151.153 71.3378 169.267C71.3378 187.381 56.8452 202.065 38.9676 202.065Z" fill="#3F3F3F"/>
<ellipse rx="5.17924" ry="5.24777" transform="matrix(-1 0 0 1 150.321 169.266)" fill="#474747"/>
<ellipse rx="5.17921" ry="5.24777" transform="matrix(-1 0 0 1 38.9678 169.266)" fill="#474747"/>
<rect width="5.17928" height="86.0637" transform="matrix(-1 0 0 1 41.5571 84.777)" fill="#E0A458"/>
<rect width="5.19129" height="70.5232" transform="matrix(-0.906231 0.422783 0.413709 0.910409 124.104 105.113)" fill="#E0A458"/>
<path d="M53.1719 105.024L50.4454 109.486L148.606 171.431L153.267 169.299L53.1719 105.024Z" fill="#E0A458"/>
<rect width="5.24777" height="93.7441" transform="matrix(4.31406e-08 1 1 -4.42898e-08 38.9678 105.112)" fill="#E0A458"/>
<rect width="5.24779" height="23.0476" transform="matrix(4.30034e-08 1 1 -4.4431e-08 13.3301 84.777)" fill="#474747"/>
<rect width="5.17922" height="14.5626" transform="matrix(-1 0 0 1 99.6943 95.7971)" fill="#E0A458"/>
<rect width="5.24783" height="28.2268" transform="matrix(4.314e-08 1 1 -4.42904e-08 79.1064 93.1734)" fill="#2C2C2C"/>
<rect width="4.2359" height="12.0175" transform="matrix(-1 0 0 1 136.969 101.659)" fill="#A86561"/>
<path d="M102.913 68.0666C102.913 68.0666 82.6698 45.04 54.7757 40.7712C26.8816 36.5025 38.6135 53.1371 38.6135 53.1371C60.5146 61.8842 72.7877 83.7474 72.7877 83.7474L102.913 68.0666Z" fill="#E0A458"/>
<rect width="9.48388" height="11.3819" transform="matrix(0.95286 -0.28863 -0.282891 -0.963698 22.855 89.9563)" fill="#A27D63"/>
<path d="M56.6078 74.9677C57.0103 63.159 57.8542 52.7288 53.4849 48.7349C48.1526 46.3645 47.2842 48.7478 46.5906 55.7204C45.7162 64.512 42.152 71.9089 40.1223 73.2098L28.2753 73.8775C27.6275 78.6796 30.6588 85.2816 32.2555 87.9824C40.2052 88.5645 56.2053 86.7764 56.6078 74.9677Z" fill="#F4BB73"/>
<rect width="3.39135" height="21.5083" transform="matrix(-1 0 0 1 97.4692 137.836)" fill="#474747"/>
<ellipse rx="2.26091" ry="2.29083" transform="matrix(-1 0 0 1 54.3748 35.6514)" fill="#474747"/>
<ellipse rx="2.26089" ry="2.29083" transform="matrix(-1 0 0 1 55.6312 32.7243)" fill="#474747"/>
<rect width="13.8167" height="4.8362" transform="matrix(-0.999166 -0.0408442 -0.0411047 0.999155 87.8799 150.066)" fill="#474747"/>
<ellipse rx="20.019" ry="20.2798" transform="matrix(-1 0 0 1 32.5728 32.5138)" fill="#936D51"/>
<path d="M28.6637 34.6196C28.6637 35.9091 29.0905 35.991 30.9686 35.5444C32.7124 36.1973 33.2734 35.9091 33.2734 34.6196C33.2734 33.3301 32.2415 32.2848 30.9686 32.2848C29.6956 32.2848 28.6637 33.3301 28.6637 34.6196Z" fill="#2C2C2C"/>
<path d="M14.7322 29.6871C14.5838 30.8328 14.9535 30.9544 16.6736 30.7723C18.1478 31.5519 18.6795 31.36 18.8279 30.2143C18.9764 29.0686 18.1798 28.0217 17.0488 27.8762C15.9178 27.7306 14.8806 28.5413 14.7322 29.6871Z" fill="#2C2C2C"/>
<ellipse rx="2.63772" ry="2.67263" transform="matrix(-1 0 0 1 20.8384 38.1968)" fill="#7B5A41"/>
<ellipse rx="2.6377" ry="2.67263" transform="matrix(-1 0 0 1 23.4761 39.2149)" fill="#7B5A41"/>
<path d="M24.104 29.7971L19.597 40.2337L24.104 41.8393L24.104 29.7971Z" fill="#7B5A41"/>
<path d="M47.4664 27.5063L45.0799 40.6149L48.4085 38.7695L51.5884 34.9515L54.1235 35.5878L59.2733 25.7245C60.8811 8.51785 33.1474 3.19804 19.0795 2.68896L18.0747 18.4702C25.41 16.5358 40.7256 23.6882 47.4664 27.5063Z" fill="#2C2C2C"/>
<ellipse rx="2.2609" ry="2.29083" transform="matrix(-1 0 0 1 21.3407 3.07077)" fill="#2C2C2C"/>
<ellipse rx="2.26088" ry="2.29083" transform="matrix(-1 0 0 1 24.7318 3.07077)" fill="#2C2C2C"/>
<ellipse rx="2.26091" ry="2.29083" transform="matrix(-1 0 0 1 28.7513 3.32611)" fill="#2C2C2C"/>
<ellipse rx="2.2609" ry="2.29083" transform="matrix(-1 0 0 1 32.7708 3.96164)" fill="#2C2C2C"/>
<ellipse rx="2.26091" ry="2.29083" transform="matrix(-1 0 0 1 36.7904 4.59799)" fill="#2C2C2C"/>
<ellipse rx="2.26089" ry="2.29083" transform="matrix(-1 0 0 1 40.8094 5.61615)" fill="#2C2C2C"/>
<ellipse rx="2.26091" ry="2.29083" transform="matrix(-1 0 0 1 53.9984 13.7613)" fill="#2C2C2C"/>
<ellipse rx="2.26091" ry="2.29083" transform="matrix(-1 0 0 1 50.7323 11.4705)" fill="#2C2C2C"/>
<ellipse rx="2.2609" ry="2.29083" transform="matrix(-1 0 0 1 47.4666 9.17965)" fill="#2C2C2C"/>
<ellipse rx="2.26091" ry="2.29083" transform="matrix(-1 0 0 1 44.201 6.88882)" fill="#2C2C2C"/>
<ellipse rx="2.26091" ry="2.29083" transform="matrix(-1 0 0 1 56.3846 16.8157)" fill="#2C2C2C"/>
<ellipse rx="2.2609" ry="2.29083" transform="matrix(-1 0 0 1 58.5199 20.5065)" fill="#2C2C2C"/>
<ellipse rx="2.26093" ry="2.29083" transform="matrix(-1 0 0 1 59.3992 23.9428)" fill="#2C2C2C"/>
<ellipse rx="2.26089" ry="2.29083" transform="matrix(-1 0 0 1 58.1434 26.8699)" fill="#2C2C2C"/>
<ellipse rx="2.26092" ry="2.29082" transform="matrix(-1 0 0 1 56.887 29.7971)" fill="#2C2C2C"/>
<ellipse rx="3.35807" ry="3.36486" transform="matrix(-0.883865 -0.467761 -0.457313 0.889316 51.7094 36.6718)" fill="#7B5A41"/>
<path d="M49.4812 35.2256C48.666 36.2584 47.4856 39.3922 48.5103 40.2224C49.535 41.0527 53.0104 40.1266 53.8255 39.0937C54.6407 38.0609 52.4869 37.3124 51.4622 36.4821C50.4374 35.6519 50.2963 34.1927 49.4812 35.2256Z" fill="#7B5A41"/>
<path d="M24.6155 45.5418C24.6155 46.8313 29.4219 49.4412 30.6948 49.4412C36.5928 50.0374 36.5928 44.4672 36.5928 43.1777C36.5928 41.8882 30.5903 44.6243 29.3174 44.6243C28.0445 44.6243 24.6155 44.2523 24.6155 45.5418Z" fill="#7B5A41"/>
<rect width="3.39129" height="9.54517" transform="matrix(-0.999166 -0.0408444 -0.0411045 0.999155 82.5098 152.267)" fill="#474747"/>
<rect width="13.8166" height="4.83618" transform="matrix(-1 0 0 1 102.619 155.653)" fill="#474747"/>
<ellipse rx="12.3722" ry="12.5359" transform="matrix(-1 0 0 1 93.2499 156.747)" fill="#C8924D"/>
<rect width="18.7329" height="9.11408" transform="matrix(-0.155381 0.988556 0.984791 0.169793 106.711 143.091)" fill="#AD5D4E"/>
<rect width="11.6219" height="9.21816" transform="matrix(-0.901714 0.43178 0.431753 0.902255 108.142 154.934)" fill="#AD5D4E"/>
<path fill-rule="evenodd" clip-rule="evenodd" d="M72.4621 83.1861C75.0142 86.53 78.1076 90.155 83.3694 92.0257C81.6113 101.431 81.9349 117.164 82.07 121.634C81.9563 121.945 81.8972 122.258 81.9031 122.571C81.9768 126.495 104.182 152.194 104.182 152.194L114.196 144.453L95.8496 120.059L103.478 92.9343C107.844 92.0396 110.646 89.4248 110.646 82.1043C110.646 70.2684 100.095 65.6867 100.095 65.6867C89.5164 65.6867 70.9548 73.7046 72.4621 83.1861Z" fill="#474747"/>
<rect width="13.8089" height="4.83892" transform="matrix(-0.907476 0.420103 0.422309 0.906452 111.563 163.596)" fill="#474747"/>
<rect width="3.3894" height="9.55051" transform="matrix(-0.907477 0.420103 0.422309 0.906452 107.8 168.004)" fill="#474747"/>
<rect x="80.5825" y="17.5957" width="62.5031" height="1.51084" fill="white"/>
<rect x="99.6938" y="26.2336" width="62.5031" height="1.51084" fill="white"/>
<rect x="127.191" y="83.1032" width="48.9183" height="1.51084" fill="white"/>
<rect x="125.862" y="91.6437" width="31.9597" height="1.51084" fill="white"/>
</svg>
