<svg width="186" height="380" viewBox="0 0 186 380" fill="none" xmlns="http://www.w3.org/2000/svg">
<path d="M68.8433 158.865L55.9828 159.946L49.7616 162.932L49.0391 175.345L65.6562 177.551L68.8433 158.865Z" fill="#005D4D"/>
<path d="M106.796 165.785L119.656 166.867L125.878 169.853L126.6 182.266L109.983 184.472L106.796 165.785Z" fill="#005D4D"/>
<path d="M0.358887 354.397L92.7953 379.643V229.147L0.358887 203.9V354.397Z" fill="#CCD1E2"/>
<path d="M185.231 354.397L92.795 379.643V229.147L185.231 203.9V354.397Z" fill="#AAAFC1"/>
<path d="M92.6669 183.556L185.232 203.9L92.6669 229.2L0.102051 203.9L92.6669 183.556Z" fill="#DADFEF"/>
<ellipse cx="91.6516" cy="206.481" rx="40.1032" ry="7.01714" fill="#AAAFC1"/>
<path d="M77.1437 102.986L56.5713 62.39L132.585 84.7043L102.249 107.26C92.5391 110.501 79.1196 105.835 77.1437 102.986Z" fill="#EEEEEE"/>
<path d="M132.932 84.7043C88.3002 94.3384 61.3352 70.4187 56.2212 62.3902C56.2212 62.3902 61.3104 44.4342 74.3528 41.4925C98.0633 28.7415 143.602 17.9031 136.07 76.5578C136.07 76.5578 133.629 82.9333 132.932 84.7043Z" fill="#181818"/>
<path d="M131.19 56.9887C128.485 92.6289 95.9657 92.1273 67.7273 73.2619C61.8902 69.3623 74.7703 41.4146 74.7703 41.4146L105.143 42.8757L131.19 56.9887Z" fill="black"/>
<path d="M98.7272 108.545C94.2261 97.9954 89.0075 87.6341 86.3872 82.785C106.425 89.2731 124.31 86.6344 132.861 84.7169C122.92 92.4029 102.231 107.277 102.231 107.277C102.231 107.277 100.542 108.183 98.7272 108.545Z" fill="url(#paint0_linear)"/>
<path d="M70.3055 43.6362C66.501 45.5891 62.5129 50.025 60.6007 54.3409C59.3068 57.2612 61.4044 60.8735 63.6027 58.5562C64.8356 57.2566 66.2282 54.9771 67.699 51.3507C68.723 48.8261 70.1654 46.4361 71.2264 44.8216C71.9293 43.752 71.4441 43.0517 70.3055 43.6362Z" fill="#646464"/>
<path d="M52.3789 154.426C52.8716 156.245 54.7972 160.077 58.558 160.849C63.259 161.814 70.6021 152.28 67.1672 147.767C65.8124 145.987 64.0993 143.761 58.567 143.797C58.5293 143.792 58.5068 143.791 58.5071 143.797C58.6862 146.556 58.3339 152.584 52.3789 154.426Z" fill="url(#paint1_radial)"/>
<path d="M48.7642 150.498C49.1303 152.348 50.7871 156.307 54.4854 157.345C59.1084 158.642 67.0906 149.653 63.9752 144.907C62.7463 143.035 61.1908 140.693 55.6696 140.335C55.6324 140.328 55.6099 140.325 55.6099 140.331C55.5984 143.096 54.8315 149.084 48.7642 150.498Z" fill="url(#paint2_radial)"/>
<path d="M45.8716 146.301C46.212 148.155 47.8137 152.138 51.4973 153.228C56.1018 154.592 64.2079 145.718 61.1586 140.928C59.9558 139.039 58.4329 136.675 52.9172 136.238C52.8802 136.229 52.8577 136.227 52.8576 136.233C52.8077 138.997 51.9579 144.973 45.8716 146.301Z" fill="url(#paint3_radial)"/>
<path d="M43.4983 138.653C43.1456 140.505 43.1987 144.807 46.2322 147.193C50.0241 150.176 60.7684 144.939 59.66 139.347C59.2228 137.141 58.6591 134.374 53.6851 131.914C53.6535 131.892 53.6335 131.882 53.6312 131.887C52.5873 134.441 49.6399 139.684 43.4983 138.653Z" fill="url(#paint4_radial)"/>
<path d="M44.645 129.906C43.5561 131.434 41.8182 135.357 43.5777 138.82C45.7771 143.15 57.6937 143.004 59.0107 137.459C59.5301 135.272 60.1677 132.522 56.6795 128.16C56.6598 128.127 56.6461 128.109 56.6417 128.113C54.635 129.981 49.7854 133.472 44.645 129.906Z" fill="url(#paint5_radial)"/>
<path d="M47.9209 121.98C46.357 122.998 43.3267 126.003 43.7169 129.88C44.2046 134.727 55.3474 139.02 58.5702 134.349C59.8415 132.506 61.4252 130.184 59.7498 124.828C59.7433 124.79 59.7371 124.768 59.7316 124.77C57.1913 125.763 51.4204 127.21 47.9209 121.98Z" fill="url(#paint6_radial)"/>
<path d="M53.5354 114.904C51.759 115.455 48.0424 117.517 47.3872 121.358C46.5681 126.158 56.1555 133.349 60.5006 129.735C62.2144 128.31 64.3568 126.508 64.1676 120.891C64.1715 120.853 64.1714 120.83 64.1654 120.831C61.4557 121.089 55.5144 120.9 53.5354 114.904Z" fill="url(#paint7_radial)"/>
<ellipse cx="62.7612" cy="113.364" rx="11.852" ry="12.0393" fill="#005D4D"/>
<path d="M65.5308 104.624C65.9249 105.968 63.7716 105.157 61.2052 105.934C58.6388 106.71 56.6311 108.781 56.237 107.437C55.8429 106.094 57.4398 104.454 60.0062 103.677C62.5726 102.9 65.1367 103.281 65.5308 104.624Z" fill="#75AFA6"/>
<path d="M54.5942 132.925C55.7099 119.608 68.5415 109.667 74.8179 106.361C77.9907 104.69 87.3691 112.941 100.621 109.548C113.09 106.357 114.568 125.487 113.522 132.925C112.476 146.975 108.431 178.404 100.621 191.722C92.81 205.039 84.3486 197.271 81.0942 191.722C71.7959 177.672 53.4784 146.243 54.5942 132.925Z" fill="#EEEEEE"/>
<ellipse rx="1.88649" ry="1.91284" transform="matrix(0.969832 0.243773 -0.236675 0.971589 81.6098 122.025)" fill="#5697F9"/>
<ellipse rx="1.88649" ry="1.91284" transform="matrix(0.969832 0.243773 -0.236675 0.971589 85.4867 122.999)" fill="#C751FF"/>
<ellipse rx="1.88649" ry="1.91284" transform="matrix(0.969832 0.243773 -0.236675 0.971589 89.3632 123.974)" fill="#6CBB3C"/>
<ellipse rx="1.88649" ry="1.91284" transform="matrix(0.969832 0.243773 -0.236675 0.971589 93.2382 124.948)" fill="#FFD600"/>
<path d="M93.7445 143.812C100.587 131.48 103.511 122.846 98.1807 113.603C94.3786 107.009 111.765 110.349 113.175 122.846C113.816 175.439 98.2439 201.235 90.9818 198.979C85.7701 194.466 89.9661 150.621 93.7445 143.812Z" fill="url(#paint8_linear)"/>
<path d="M128.912 165.104C123.329 166.72 120.447 162.307 119.704 159.898C118.403 162.05 115.511 167.829 120.563 170.269C124.988 172.407 127.717 168.13 128.912 165.104Z" fill="#005D4D"/>
<path d="M129.221 127.161C128.675 125.187 126.56 121.036 122.469 120.219C117.356 119.199 109.433 129.604 113.192 134.486C114.674 136.412 116.549 138.82 122.56 138.748C122.601 138.753 122.626 138.754 122.625 138.747C122.414 135.751 122.762 129.199 129.221 127.161Z" fill="url(#paint9_radial)"/>
<path d="M133.174 131.407C132.765 129.399 130.942 125.108 126.917 124.002C121.886 122.621 113.265 132.437 116.678 137.575C118.025 139.601 119.729 142.137 125.73 142.492C125.771 142.5 125.795 142.502 125.795 142.496C125.791 139.492 126.589 132.981 133.174 131.407Z" fill="url(#paint10_radial)"/>
<path d="M136.34 135.95C135.959 133.937 134.195 129.62 130.186 128.457C125.175 127.003 116.419 136.695 119.761 141.881C121.079 143.927 122.748 146.487 128.744 146.928C128.784 146.937 128.808 146.939 128.808 146.932C128.846 143.929 129.735 137.43 136.34 135.95Z" fill="url(#paint11_radial)"/>
<path d="M138.963 144.246C139.335 142.231 139.252 137.558 135.942 134.983C131.804 131.764 120.16 137.521 121.398 143.59C121.886 145.985 122.515 148.987 127.934 151.631C127.968 151.654 127.99 151.665 127.992 151.659C129.112 148.878 132.283 143.163 138.963 144.246Z" fill="url(#paint12_radial)"/>
<path d="M137.769 153.758C138.943 152.091 140.808 147.817 138.876 144.065C136.46 139.374 123.513 139.604 122.114 145.638C121.563 148.017 120.886 151.009 124.702 155.728C124.724 155.764 124.739 155.783 124.744 155.779C126.913 153.737 132.162 149.914 137.769 153.758Z" fill="url(#paint13_radial)"/>
<path d="M134.256 162.39C135.949 161.274 139.224 157.99 138.777 153.78C138.219 148.516 126.086 143.919 122.611 149.015C121.241 151.024 119.534 153.557 121.386 159.367C121.393 159.408 121.4 159.432 121.406 159.43C124.16 158.336 130.422 156.728 134.256 162.39Z" fill="url(#paint14_radial)"/>
<path d="M128.197 170.112C130.124 169.503 134.15 167.239 134.84 163.063C135.701 157.842 125.242 150.087 120.542 154.04C118.688 155.599 116.37 157.569 116.609 163.671C116.605 163.713 116.605 163.738 116.612 163.737C119.555 163.44 126.011 163.61 128.197 170.112Z" fill="url(#paint15_radial)"/>
<ellipse cx="111.866" cy="123.683" rx="13.6155" ry="13.8307" fill="#005D4D"/>
<path d="M107.538 134.178C107.031 132.652 110.337 132.413 116.232 130.284C121.073 128.536 122.745 124.476 123.252 126.002C123.759 127.528 121.582 133.377 116.232 135.212C113.317 136.211 108.045 135.703 107.538 134.178Z" fill="#00372D" fill-opacity="0.390925"/>
<ellipse rx="2.54399" ry="1.11353" transform="matrix(0.942998 0.332799 -0.323616 0.946188 122.25 18.3623)" fill="#75AFA6"/>
<path fill-rule="evenodd" clip-rule="evenodd" d="M75.0127 36.1599C75.4297 33.5465 78.3815 27.0109 87.3943 19.6454C99.0582 10.1132 143.08 16.9763 144.585 39.8536C145.789 58.1554 138.314 74.6778 134.426 80.6514C134.743 75.7015 133.559 68.8875 129.587 62.0829L123.973 66.2753C122.137 67.6468 119.607 67.5841 117.788 66.1886C88.962 44.0642 62.9147 42.6907 49.4688 45.814C47.656 46.2351 46.5099 44.6665 48.0192 43.5776C52.4186 40.4037 60.8158 36.8906 75.0127 36.1599Z" fill="#004B3F"/>
<path d="M103.159 40.9046C96.0859 36.9717 79.7481 35.0868 75.3677 34.9359C83.1292 17.5709 96.1247 10.1586 121.977 18.3474C131.487 25.8219 104.718 33.5892 103.159 40.9046Z" fill="url(#paint16_linear)"/>
<path d="M118.217 49.4819C99.5273 37.2976 81.9215 35.9413 75.0181 36.1525C75.0562 35.8011 75.2932 35.0014 75.2932 35.0014C94.5406 35.0014 112.173 44.287 118.217 49.4819Z" fill="#00372D"/>
<path d="M134.621 80.3827C134.927 76.4981 132.173 66.1651 129.688 62.0086L144.286 44.0374C145.801 50.3987 141.734 68.457 134.621 80.3827Z" fill="url(#paint17_linear)"/>
<path d="M119.122 66.9734C95.2367 44.657 65.7979 39.6974 46.6401 44.7859C52.9366 38.8071 66.9228 36.2549 75.009 36.0965C91.9639 35.7643 106.872 43.336 114.058 47.5073L119.122 66.9734Z" fill="url(#paint18_linear)"/>
<path d="M123.624 18.759C127.1 19.7512 146.22 28.2732 129.681 61.9352C137.163 46.7069 140.096 24.857 123.624 18.759Z" fill="#00372D"/>
<path d="M103.277 26.8282L102.372 29.4354L104.161 30.1737L104.092 30.3893L101.864 29.4526L102.795 26.6316L103.277 26.8282Z" fill="#3D796F"/>
<path d="M101.076 32.7384L100.515 34.5328L102.33 35.2931L102.247 35.5118L100.007 34.5501L100.595 32.5418L101.076 32.7384Z" fill="#3D796F"/>
<path fill-rule="evenodd" clip-rule="evenodd" d="M102.043 24.0308L107.601 26.2206L107.836 27.6583L104.41 37.836L103.248 38.9404L97.6984 36.4649L97.4729 34.7416L98.4184 31.6283L100.64 32.5614L100.013 34.5417L102.234 35.4748L103.171 32.6471L99.5617 31.0952L99.0271 30.2192L100.609 24.84L102.043 24.0308ZM102.802 26.6289L101.866 29.4567L104.087 30.3894L105.024 27.5616L102.802 26.6289Z" fill="#75AFA6"/>
<path d="M104.006 37.4247L107.323 27.6914L107.011 25.9927L107.599 26.2226L107.841 27.6738L104.4 37.8343L103.246 38.934L102.614 38.6665L104.006 37.4247Z" fill="#3D796F"/>
<path d="M74.6732 109.639C70.9492 111.034 66.8111 114.606 64.4998 118.343C62.8214 121.056 64.4929 124.828 66.9012 122.737C68.18 121.627 69.6985 119.676 71.4269 116.573C72.6602 114.36 74.257 112.316 75.4396 110.919C76.2651 109.944 75.8697 109.191 74.6732 109.639Z" fill="#F8F8F8"/>
<ellipse cx="62.7253" cy="125.79" rx="1.45336" ry="1.47633" fill="#F8F8F8"/>
<rect width="6.12443" height="11.5082" transform="matrix(0.934447 0.355933 -0.344573 0.938821 75.4814 53.7111)" fill="#6CBB3C"/>
<rect width="6.60956" height="12.4198" transform="matrix(0.934787 0.355041 -0.345447 0.938501 97.356 60.2468)" fill="#6CBB3C"/>
<defs>
<linearGradient id="paint0_linear" x1="131.135" y1="87.5961" x2="84.9893" y2="91.208" gradientUnits="userSpaceOnUse">
<stop offset="0.333333" stop-color="#ABABAB"/>
<stop offset="0.833333" stop-color="#B9B7B7" stop-opacity="0"/>
</linearGradient>
<radialGradient id="paint1_radial" cx="0" cy="0" r="1" gradientUnits="userSpaceOnUse" gradientTransform="translate(58.0303 150.933) rotate(35.2195) scale(7.26381 10.5106)">
<stop stop-color="#005D4D"/>
<stop offset="0.776042" stop-color="#3D796F"/>
</radialGradient>
<radialGradient id="paint2_radial" cx="0" cy="0" r="1" gradientUnits="userSpaceOnUse" gradientTransform="translate(54.6425 147.415) rotate(39.2513) scale(7.2715 10.4995)">
<stop stop-color="#005D4D"/>
<stop offset="0.776042" stop-color="#3D796F"/>
</radialGradient>
<radialGradient id="paint3_radial" cx="0" cy="0" r="1" gradientUnits="userSpaceOnUse" gradientTransform="translate(51.792 143.302) rotate(40.0608) scale(7.27308 10.4972)">
<stop stop-color="#005D4D"/>
<stop offset="0.776042" stop-color="#3D796F"/>
</radialGradient>
<radialGradient id="paint4_radial" cx="0" cy="0" r="1" gradientUnits="userSpaceOnUse" gradientTransform="translate(50.0887 138.068) rotate(61.5025) scale(7.31415 10.4383)">
<stop stop-color="#005D4D"/>
<stop offset="0.776042" stop-color="#3D796F"/>
</radialGradient>
<radialGradient id="paint5_radial" cx="0" cy="0" r="1" gradientUnits="userSpaceOnUse" gradientTransform="translate(50.8634 132.199) rotate(86.1325) scale(7.34009 10.4014)">
<stop stop-color="#005D4D"/>
<stop offset="0.776042" stop-color="#3D796F"/>
</radialGradient>
<radialGradient id="paint6_radial" cx="0" cy="0" r="1" gradientUnits="userSpaceOnUse" gradientTransform="translate(52.8824 126.425) rotate(107.275) scale(7.33034 10.4152)">
<stop stop-color="#005D4D"/>
<stop offset="0.776042" stop-color="#3D796F"/>
</radialGradient>
<radialGradient id="paint7_radial" cx="0" cy="0" r="1" gradientUnits="userSpaceOnUse" gradientTransform="translate(57.1307 120.545) rotate(122.789) scale(7.30657 10.4491)">
<stop stop-color="#005D4D"/>
<stop offset="0.776042" stop-color="#3D796F"/>
</radialGradient>
<linearGradient id="paint8_linear" x1="119.661" y1="153.653" x2="87.311" y2="145.189" gradientUnits="userSpaceOnUse">
<stop offset="0.102342" stop-color="#C8C8C8"/>
<stop offset="1" stop-color="#C4C4C4" stop-opacity="0"/>
</linearGradient>
<radialGradient id="paint9_radial" cx="0" cy="0" r="1" gradientUnits="userSpaceOnUse" gradientTransform="translate(123.101 130.991) rotate(-145.098) scale(7.8923 11.4219)">
<stop stop-color="#005D4D"/>
<stop offset="0.776042" stop-color="#3D796F"/>
</radialGradient>
<radialGradient id="paint10_radial" cx="0" cy="0" r="1" gradientUnits="userSpaceOnUse" gradientTransform="translate(126.805 134.793) rotate(-141.065) scale(7.90063 11.4098)">
<stop stop-color="#005D4D"/>
<stop offset="0.776042" stop-color="#3D796F"/>
</radialGradient>
<radialGradient id="paint11_radial" cx="0" cy="0" r="1" gradientUnits="userSpaceOnUse" gradientTransform="translate(129.925 139.245) rotate(-140.255) scale(7.90234 11.4073)">
<stop stop-color="#005D4D"/>
<stop offset="0.776042" stop-color="#3D796F"/>
</radialGradient>
<radialGradient id="paint12_radial" cx="0" cy="0" r="1" gradientUnits="userSpaceOnUse" gradientTransform="translate(131.805 144.922) rotate(-118.81) scale(7.94706 11.3431)">
<stop stop-color="#005D4D"/>
<stop offset="0.776042" stop-color="#3D796F"/>
</radialGradient>
<radialGradient id="paint13_radial" cx="0" cy="0" r="1" gradientUnits="userSpaceOnUse" gradientTransform="translate(130.998 151.304) rotate(-94.178) scale(7.97573 11.3024)">
<stop stop-color="#005D4D"/>
<stop offset="0.776042" stop-color="#3D796F"/>
</radialGradient>
<radialGradient id="paint14_radial" cx="0" cy="0" r="1" gradientUnits="userSpaceOnUse" gradientTransform="translate(128.838 157.59) rotate(-73.0364) scale(7.96561 11.3167)">
<stop stop-color="#005D4D"/>
<stop offset="0.776042" stop-color="#3D796F"/>
</radialGradient>
<radialGradient id="paint15_radial" cx="0" cy="0" r="1" gradientUnits="userSpaceOnUse" gradientTransform="translate(124.257 164.004) rotate(-57.5239) scale(7.94003 11.3532)">
<stop stop-color="#005D4D"/>
<stop offset="0.776042" stop-color="#3D796F"/>
</radialGradient>
<linearGradient id="paint16_linear" x1="104.379" y1="15.0136" x2="107.677" y2="28.5503" gradientUnits="userSpaceOnUse">
<stop offset="0.0773366" stop-color="#3D796F"/>
<stop offset="0.964698" stop-color="#006857" stop-opacity="0"/>
</linearGradient>
<linearGradient id="paint17_linear" x1="133.664" y1="56.113" x2="139.739" y2="62.8717" gradientUnits="userSpaceOnUse">
<stop stop-color="#00372D" stop-opacity="0"/>
<stop offset="0.308563" stop-color="#00372D" stop-opacity="0.390925"/>
<stop offset="0.478055" stop-color="#00372D" stop-opacity="0.597563"/>
<stop offset="0.808558" stop-color="#00372D"/>
<stop offset="1" stop-color="#00372D"/>
</linearGradient>
<linearGradient id="paint18_linear" x1="77.672" y1="36.0859" x2="113.523" y2="54.3603" gradientUnits="userSpaceOnUse">
<stop stop-color="#3D796F"/>
<stop offset="1" stop-color="#3D796F" stop-opacity="0"/>
</linearGradient>
</defs>
</svg>
