<svg width="187" height="381" viewBox="0 0 187 381" fill="none" xmlns="http://www.w3.org/2000/svg">
<path d="M0.930664 355.067L93.6616 380.38V229.489L0.930664 204.176V355.067Z" fill="#DADFEF"/>
<path d="M186.393 355.067L93.6621 380.38V229.489L186.393 204.176V355.067Z" fill="#C2C9E0"/>
<path d="M93.5326 183.778L186.392 204.176L93.5326 229.542L0.672852 204.176L93.5326 183.778Z" fill="#E8EDFF"/>
<ellipse cx="90.4762" cy="204.176" rx="24.1441" ry="4.22229" fill="#C2C9E0"/>
<path d="M66.0831 144.55L53.2225 145.631L47.0014 148.615L46.2789 161.022L62.8959 163.226L66.0831 144.55Z" fill="#005D4D"/>
<path d="M74.3829 88.7031L53.8105 48.1297L129.824 70.4314L99.4882 92.974C89.7783 96.2138 76.3588 91.5504 74.3829 88.7031Z" fill="#EEEEEE"/>
<path d="M130.171 70.4315C85.5394 80.0602 58.5745 56.1539 53.4604 48.13C53.4604 48.13 58.5496 30.184 71.5921 27.244C95.3026 14.5001 140.841 3.66786 133.309 62.2896C133.309 62.2896 130.868 68.6615 130.171 70.4315Z" fill="#181818"/>
<path d="M128.429 42.7315C125.724 78.3516 93.2049 77.8503 64.9666 58.9955C59.1295 55.0981 72.0096 27.1661 72.0096 27.1661L102.383 28.6264L128.429 42.7315Z" fill="black"/>
<path d="M95.9665 94.2584C91.4653 83.7151 86.2467 73.3596 83.6265 68.5133C103.664 74.9977 121.549 72.3605 130.1 70.444C120.16 78.1257 99.47 92.9919 99.47 92.9919C99.47 92.9919 97.781 93.8966 95.9665 94.2584Z" fill="url(#paint0_linear)"/>
<path d="M67.5449 29.3864C63.7416 31.3375 59.7549 35.7685 57.8419 40.0808C56.546 43.0017 58.6448 46.6144 60.8439 44.296C62.0764 42.9967 63.4682 40.719 64.9383 37.0966C65.9622 34.5737 67.4043 32.1854 68.4653 30.5717C69.1684 29.5024 68.6835 28.8022 67.5449 29.3864Z" fill="#646464"/>
<path d="M49.6194 140.113C50.1117 141.931 52.0363 145.76 55.7965 146.532C60.4968 147.496 67.8406 137.964 64.4069 133.454C63.0526 131.675 61.3401 129.451 55.8085 129.487C55.7709 129.482 55.7483 129.481 55.7487 129.488C55.9272 132.245 55.5739 138.27 49.6194 140.113Z" fill="url(#paint1_radial)"/>
<path d="M46.0034 136.188C46.3695 138.037 48.0263 141.994 51.7247 143.031C56.3476 144.328 64.3299 135.344 61.2144 130.6C59.9856 128.73 58.4301 126.389 52.9089 126.031C52.8717 126.023 52.8492 126.021 52.8492 126.027C52.8377 128.79 52.0708 134.775 46.0034 136.188Z" fill="url(#paint2_radial)"/>
<path d="M43.1108 131.993C43.4513 133.847 45.053 137.827 48.7366 138.917C53.3411 140.28 61.4472 131.411 58.3978 126.623C57.1951 124.735 55.6722 122.372 50.1565 121.936C50.1194 121.928 50.097 121.925 50.0968 121.931C50.047 124.694 49.1972 130.667 43.1108 131.993Z" fill="url(#paint3_radial)"/>
<path d="M40.7375 124.35C40.3849 126.201 40.438 130.5 43.4715 132.885C47.2634 135.867 58.0076 130.632 56.8993 125.043C56.4621 122.839 55.8983 120.074 50.9243 117.615C50.8928 117.593 50.8728 117.582 50.8705 117.588C49.8265 120.14 46.8792 125.381 40.7375 124.35Z" fill="url(#paint4_radial)"/>
<path d="M41.8842 115.607C40.7953 117.135 39.0574 121.056 40.817 124.517C43.0164 128.844 54.9329 128.699 56.2499 123.157C56.7694 120.971 57.407 118.222 53.9187 113.863C53.899 113.83 53.8853 113.812 53.8809 113.816C51.8742 115.682 47.0246 119.172 41.8842 115.607Z" fill="url(#paint5_radial)"/>
<path d="M45.1602 107.686C43.5963 108.704 40.566 111.707 40.9562 115.582C41.4438 120.426 52.5867 124.717 55.8095 120.048C57.0807 118.207 58.6645 115.886 56.989 110.533C56.9826 110.495 56.9764 110.473 56.9708 110.475C54.4306 111.467 48.6597 112.913 45.1602 107.686Z" fill="url(#paint6_radial)"/>
<path d="M50.7746 100.615C48.9982 101.165 45.2816 103.226 44.6264 107.064C43.8074 111.862 53.3948 119.048 57.7398 115.437C59.4537 114.012 61.5961 112.212 61.4068 106.598C61.4107 106.56 61.4106 106.537 61.4047 106.538C58.695 106.796 52.7537 106.607 50.7746 100.615Z" fill="url(#paint7_radial)"/>
<ellipse cx="60.0005" cy="99.0753" rx="11.852" ry="12.0326" fill="#005D4D"/>
<path d="M62.7701 90.3403C63.1642 91.683 61.0108 90.8724 58.4444 91.6488C55.878 92.4252 53.8703 94.4945 53.4763 93.1517C53.0822 91.809 54.6791 90.1698 57.2455 89.3934C59.8119 88.617 62.376 88.9975 62.7701 90.3403Z" fill="#75AFA6"/>
<path d="M51.8334 118.625C52.9492 105.315 65.7808 95.3797 72.0571 92.0757C75.2299 90.4055 84.6083 98.6519 97.8598 95.2617C110.329 92.0716 111.807 111.191 110.761 118.625C109.715 132.667 105.67 164.078 97.8598 177.389C90.0492 190.699 81.5878 182.935 78.3334 177.389C69.0352 163.347 50.7176 131.936 51.8334 118.625Z" fill="#EEEEEE"/>
<ellipse rx="1.88643" ry="1.91182" transform="matrix(0.969865 0.243644 -0.2368 0.971558 78.849 107.732)" fill="#5697F9"/>
<ellipse rx="1.88643" ry="1.91182" transform="matrix(0.969865 0.243644 -0.2368 0.971558 82.726 108.705)" fill="#C751FF"/>
<ellipse rx="1.88643" ry="1.91182" transform="matrix(0.969865 0.243644 -0.2368 0.971558 86.6024 109.679)" fill="#6CBB3C"/>
<ellipse rx="1.88643" ry="1.91182" transform="matrix(0.969865 0.243644 -0.2368 0.971558 90.4779 110.652)" fill="#FFD600"/>
<path d="M90.9838 129.506C97.8264 117.181 100.75 108.552 95.42 99.3139C91.6178 92.7241 109.004 96.0613 110.414 108.552C111.055 161.115 95.4832 186.897 88.221 184.642C83.0094 180.131 87.2054 136.311 90.9838 129.506Z" fill="url(#paint8_linear)"/>
<path d="M126.151 150.786C120.567 152.401 117.686 147.99 116.943 145.583C115.642 147.734 112.75 153.51 117.802 155.948C122.227 158.085 124.955 153.811 126.151 150.786Z" fill="#005D4D"/>
<path d="M126.46 112.866C125.914 110.893 123.8 106.744 119.71 105.929C114.597 104.909 106.673 115.311 110.431 120.191C111.913 122.116 113.787 124.522 119.797 124.449C119.838 124.454 119.862 124.455 119.862 124.448C119.652 121.453 120 114.904 126.46 112.866Z" fill="url(#paint9_radial)"/>
<path d="M130.413 117.108C130.004 115.102 128.181 110.812 124.156 109.708C119.125 108.327 110.505 118.137 113.918 123.272C115.264 125.298 116.968 127.832 122.969 128.187C123.01 128.195 123.034 128.197 123.034 128.191C123.031 125.188 123.829 118.681 130.413 117.108Z" fill="url(#paint10_radial)"/>
<path d="M133.579 121.649C133.199 119.637 131.435 115.322 127.426 114.16C122.414 112.707 113.659 122.393 117 127.576C118.318 129.621 119.987 132.179 125.983 132.62C126.023 132.629 126.048 132.631 126.048 132.625C126.086 129.622 126.974 123.127 133.579 121.649Z" fill="url(#paint11_radial)"/>
<path d="M136.202 129.94C136.575 127.926 136.492 123.255 133.181 120.682C129.044 117.465 117.4 123.218 118.637 129.285C119.125 131.677 119.754 134.678 125.173 137.32C125.207 137.343 125.229 137.355 125.232 137.349C126.351 134.569 129.523 128.857 136.202 129.94Z" fill="url(#paint12_radial)"/>
<path d="M135.009 139.446C136.183 137.78 138.048 133.509 136.116 129.758C133.701 125.07 120.753 125.3 119.355 131.33C118.803 133.709 118.126 136.699 121.942 141.415C121.964 141.451 121.979 141.47 121.984 141.466C124.153 139.426 129.402 135.604 135.009 139.446Z" fill="url(#paint13_radial)"/>
<path d="M131.495 148.073C133.189 146.958 136.464 143.676 136.017 139.468C135.458 134.208 123.325 129.613 119.851 134.706C118.481 136.714 116.773 139.246 118.625 145.052C118.633 145.093 118.64 145.117 118.646 145.115C121.4 144.022 127.662 142.415 131.495 148.073Z" fill="url(#paint14_radial)"/>
<path d="M125.437 155.791C127.364 155.182 131.391 152.92 132.08 148.746C132.942 143.528 122.482 135.777 117.782 139.728C115.928 141.286 113.611 143.256 113.849 149.354C113.845 149.396 113.845 149.421 113.852 149.42C116.795 149.123 123.252 149.292 125.437 155.791Z" fill="url(#paint15_radial)"/>
<ellipse cx="109.105" cy="109.388" rx="13.6155" ry="13.8229" fill="#005D4D"/>
<path d="M104.777 119.877C104.269 118.352 107.575 118.113 113.47 115.986C118.312 114.239 119.983 110.181 120.491 111.706C120.998 113.231 118.821 119.077 113.47 120.91C110.556 121.909 105.284 121.402 104.777 119.877Z" fill="#00372D" fill-opacity="0.390925"/>
<ellipse rx="2.54384" ry="1.11297" transform="matrix(0.942998 0.332799 -0.323616 0.946188 119.489 4.12803)" fill="#75AFA6"/>
<path fill-rule="evenodd" clip-rule="evenodd" d="M72.2519 21.9143C72.669 19.3023 75.6209 12.7705 84.6334 5.40934C96.2973 -4.11749 140.319 2.74183 141.824 25.6062C143.028 43.8977 135.553 60.4109 131.665 66.3811C131.982 61.434 130.798 54.6237 126.826 47.8229L121.211 52.0137C119.375 53.384 116.847 53.3214 115.029 51.927C86.2022 29.8145 60.1547 28.4415 46.7085 31.563C44.8956 31.9838 43.7502 30.4153 45.2599 29.3269C49.6596 26.155 58.0565 22.6446 72.2519 21.9143Z" fill="#004B3F"/>
<path d="M100.398 26.6564C93.3252 22.7257 76.9873 20.8418 72.6069 20.6911C80.3685 3.33579 93.364 -4.0723 119.216 4.11182C128.726 11.5822 101.958 19.3451 100.398 26.6564Z" fill="url(#paint16_linear)"/>
<path d="M115.456 35.2289C96.7666 23.0514 79.1607 21.6959 72.2573 21.907C72.2955 21.5558 72.5325 20.7565 72.5325 20.7565C91.7799 20.7565 109.412 30.0369 115.456 35.2289Z" fill="#00372D"/>
<path d="M131.859 66.1123C132.165 62.2299 129.412 51.9027 126.926 47.7485L141.525 29.7874C143.04 36.1452 138.972 54.1933 131.859 66.1123Z" fill="url(#paint17_linear)"/>
<path d="M116.362 52.7106C92.476 30.4067 63.0371 25.4498 43.8794 30.5355C50.1758 24.5601 64.1621 22.0093 72.2483 21.851C89.2032 21.519 104.111 29.0864 111.297 33.2554L116.362 52.7106Z" fill="url(#paint18_linear)"/>
<path d="M120.864 4.52319C124.339 5.51483 143.459 14.0321 126.921 47.6751C134.403 32.4554 137.335 10.6177 120.864 4.52319Z" fill="#00372D"/>
<path d="M100.516 12.5879L99.6112 15.1936L101.4 15.9315L101.331 16.1469L99.1032 15.2108L100.035 12.3914L100.516 12.5879Z" fill="#3D796F"/>
<path d="M98.3154 18.4947L97.7544 20.2882L99.569 21.0481L99.4863 21.2666L97.2464 20.3054L97.8339 18.2982L98.3154 18.4947Z" fill="#3D796F"/>
<path fill-rule="evenodd" clip-rule="evenodd" d="M99.2821 9.79216L104.841 11.981L105.076 13.4179L101.649 23.5897L100.488 24.6935L94.9381 22.2191L94.7125 20.4968L95.6579 17.3853L97.8796 18.318L97.2524 20.2971L99.474 21.2298L100.41 18.4037L96.8012 16.8525L96.2666 15.9771L97.8484 10.6009L99.2821 9.79216ZM100.042 12.3887L99.105 15.215L101.326 16.1471L102.263 13.3209L100.042 12.3887Z" fill="#75AFA6"/>
<path d="M101.246 23.1783L104.563 13.4505L104.251 11.7528L104.838 11.9826L105.08 13.433L101.639 23.5878L100.485 24.6868L99.8534 24.4195L101.246 23.1783Z" fill="#3D796F"/>
<path d="M71.9125 95.3524C68.1899 96.7457 64.0533 100.314 61.7415 104.047C60.061 106.761 61.7333 110.533 64.1427 108.441C65.421 107.331 66.9387 105.382 68.6662 102.283C69.8993 100.07 71.4959 98.0276 72.6785 96.6317C73.5042 95.657 73.1091 94.9046 71.9125 95.3524Z" fill="#F8F8F8"/>
<ellipse cx="59.9646" cy="111.494" rx="1.45336" ry="1.4755" fill="#F8F8F8"/>
<path d="M104.036 151.467L116.896 152.548L123.117 155.532L123.84 167.938L107.223 170.143L104.036 151.467Z" fill="#005D4D"/>
<path d="M68.4325 44.6672L66.7492 43.8082L67.5679 42.0215L69.3923 42.9302L70.0242 41.6095L71.9629 42.6035L72.5929 41.3014L75.1942 42.6362L74.6117 43.9914L76.8948 45.1493L76.357 46.399L77.8471 47.1412L77.0807 48.9076L75.4427 48.1031L68.4325 44.6672Z" fill="#6CBB3C"/>
<path d="M89.8449 54.2048L87.7277 53.4712L88.3968 51.2393L90.6879 52.0082L91.2138 50.3541L93.653 51.2046L94.1798 49.5727L97.4528 50.7149L96.9905 52.4016L99.8608 53.3882L99.4338 54.9435L101.305 55.5716L100.694 57.771L98.639 57.094L89.8449 54.2048Z" fill="#6CBB3C"/>
<defs>
<linearGradient id="paint0_linear" x1="128.374" y1="73.3216" x2="82.2289" y2="76.9356" gradientUnits="userSpaceOnUse">
<stop offset="0.333333" stop-color="#ABABAB"/>
<stop offset="0.833333" stop-color="#B9B7B7" stop-opacity="0"/>
</linearGradient>
<radialGradient id="paint1_radial" cx="0" cy="0" r="1" gradientUnits="userSpaceOnUse" gradientTransform="translate(55.2707 136.62) rotate(35.2077) scale(7.26091 10.5088)">
<stop stop-color="#005D4D"/>
<stop offset="0.776042" stop-color="#3D796F"/>
</radialGradient>
<radialGradient id="paint2_radial" cx="0" cy="0" r="1" gradientUnits="userSpaceOnUse" gradientTransform="translate(51.8817 133.107) rotate(39.2355) scale(7.26986 10.4959)">
<stop stop-color="#005D4D"/>
<stop offset="0.776042" stop-color="#3D796F"/>
</radialGradient>
<radialGradient id="paint3_radial" cx="0" cy="0" r="1" gradientUnits="userSpaceOnUse" gradientTransform="translate(49.0313 128.996) rotate(40.0449) scale(7.27139 10.4937)">
<stop stop-color="#005D4D"/>
<stop offset="0.776042" stop-color="#3D796F"/>
</radialGradient>
<radialGradient id="paint4_radial" cx="0" cy="0" r="1" gradientUnits="userSpaceOnUse" gradientTransform="translate(47.3279 123.765) rotate(61.489) scale(7.31098 10.4369)">
<stop stop-color="#005D4D"/>
<stop offset="0.776042" stop-color="#3D796F"/>
</radialGradient>
<radialGradient id="paint5_radial" cx="0" cy="0" r="1" gradientUnits="userSpaceOnUse" gradientTransform="translate(48.1027 117.899) rotate(86.1303) scale(7.33599 10.4013)">
<stop stop-color="#005D4D"/>
<stop offset="0.776042" stop-color="#3D796F"/>
</radialGradient>
<radialGradient id="paint6_radial" cx="0" cy="0" r="1" gradientUnits="userSpaceOnUse" gradientTransform="translate(50.1216 112.129) rotate(107.284) scale(7.32658 10.4147)">
<stop stop-color="#005D4D"/>
<stop offset="0.776042" stop-color="#3D796F"/>
</radialGradient>
<radialGradient id="paint7_radial" cx="0" cy="0" r="1" gradientUnits="userSpaceOnUse" gradientTransform="translate(54.3699 106.252) rotate(122.804) scale(7.30367 10.4474)">
<stop stop-color="#005D4D"/>
<stop offset="0.776042" stop-color="#3D796F"/>
</radialGradient>
<linearGradient id="paint8_linear" x1="116.9" y1="139.341" x2="84.5525" y2="130.873" gradientUnits="userSpaceOnUse">
<stop offset="0.102342" stop-color="#C8C8C8"/>
<stop offset="1" stop-color="#C4C4C4" stop-opacity="0"/>
</linearGradient>
<radialGradient id="paint9_radial" cx="0" cy="0" r="1" gradientUnits="userSpaceOnUse" gradientTransform="translate(120.339 116.696) rotate(-145.109) scale(7.88915 11.4199)">
<stop stop-color="#005D4D"/>
<stop offset="0.776042" stop-color="#3D796F"/>
</radialGradient>
<radialGradient id="paint10_radial" cx="0" cy="0" r="1" gradientUnits="userSpaceOnUse" gradientTransform="translate(124.044 120.492) rotate(-141.081) scale(7.89887 11.4059)">
<stop stop-color="#005D4D"/>
<stop offset="0.776042" stop-color="#3D796F"/>
</radialGradient>
<radialGradient id="paint11_radial" cx="0" cy="0" r="1" gradientUnits="userSpaceOnUse" gradientTransform="translate(127.164 124.941) rotate(-140.271) scale(7.90052 11.4036)">
<stop stop-color="#005D4D"/>
<stop offset="0.776042" stop-color="#3D796F"/>
</radialGradient>
<radialGradient id="paint12_radial" cx="0" cy="0" r="1" gradientUnits="userSpaceOnUse" gradientTransform="translate(129.045 130.615) rotate(-118.824) scale(7.94363 11.3417)">
<stop stop-color="#005D4D"/>
<stop offset="0.776042" stop-color="#3D796F"/>
</radialGradient>
<radialGradient id="paint13_radial" cx="0" cy="0" r="1" gradientUnits="userSpaceOnUse" gradientTransform="translate(128.238 136.994) rotate(-94.1803) scale(7.97127 11.3023)">
<stop stop-color="#005D4D"/>
<stop offset="0.776042" stop-color="#3D796F"/>
</radialGradient>
<radialGradient id="paint14_radial" cx="0" cy="0" r="1" gradientUnits="userSpaceOnUse" gradientTransform="translate(126.078 143.276) rotate(-73.0274) scale(7.96152 11.3162)">
<stop stop-color="#005D4D"/>
<stop offset="0.776042" stop-color="#3D796F"/>
</radialGradient>
<radialGradient id="paint15_radial" cx="0" cy="0" r="1" gradientUnits="userSpaceOnUse" gradientTransform="translate(121.498 149.687) rotate(-57.5093) scale(7.93685 11.3514)">
<stop stop-color="#005D4D"/>
<stop offset="0.776042" stop-color="#3D796F"/>
</radialGradient>
<linearGradient id="paint16_linear" x1="101.618" y1="0.779936" x2="104.913" y2="14.3098" gradientUnits="userSpaceOnUse">
<stop offset="0.0773366" stop-color="#3D796F"/>
<stop offset="0.964698" stop-color="#006857" stop-opacity="0"/>
</linearGradient>
<linearGradient id="paint17_linear" x1="130.902" y1="41.8563" x2="136.974" y2="48.6145" gradientUnits="userSpaceOnUse">
<stop stop-color="#00372D" stop-opacity="0"/>
<stop offset="0.308563" stop-color="#00372D" stop-opacity="0.390925"/>
<stop offset="0.478055" stop-color="#00372D" stop-opacity="0.597563"/>
<stop offset="0.808558" stop-color="#00372D"/>
<stop offset="1" stop-color="#00372D"/>
</linearGradient>
<linearGradient id="paint18_linear" x1="74.9113" y1="21.8404" x2="110.754" y2="40.1208" gradientUnits="userSpaceOnUse">
<stop stop-color="#3D796F"/>
<stop offset="1" stop-color="#3D796F" stop-opacity="0"/>
</linearGradient>
</defs>
</svg>
