<svg width="200" height="200" viewBox="0 0 200 200" fill="none" xmlns="http://www.w3.org/2000/svg">
<path d="M80.4907 121.821L69.5935 122.737L64.3222 125.265L63.71 135.778L77.7901 137.646L80.4907 121.821Z" fill="#005D4D"/>
<path d="M87.5234 74.5L70.0918 40.1208L134.5 59.0178L108.796 78.1188C100.568 80.864 89.1976 76.9125 87.5234 74.5Z" fill="#EEEEEE"/>
<path d="M134.793 59.0178C96.9755 67.1765 74.1272 46.92 69.7939 40.1211C69.7939 40.1211 74.1062 24.9149 85.1574 22.4238C105.248 11.6255 143.834 2.44699 137.452 52.119C137.452 52.119 135.384 57.5181 134.793 59.0178Z" fill="#181818"/>
<path d="M133.317 35.5468C131.025 65.7288 103.47 65.304 79.543 49.3278C74.597 46.0254 85.5107 22.3578 85.5107 22.3578L111.247 23.5951L133.317 35.5468Z" fill="black"/>
<path d="M105.811 79.2071C101.997 70.2734 97.5747 61.4989 95.3545 57.3925C112.333 62.8869 127.488 60.6523 134.733 59.0284C126.31 65.5373 108.779 78.134 108.779 78.134C108.779 78.134 107.348 78.9005 105.811 79.2071Z" fill="url(#paint0_linear_205_1508)"/>
<path d="M81.3918 24.4187C78.4731 26.0415 75.4817 29.3166 73.8274 32.6208C72.3968 35.4782 74.5522 38.8055 76.5412 36.3045C77.4586 35.1509 78.4652 33.3694 79.5193 30.7722C80.3218 28.7947 81.4276 26.9149 82.3004 25.5619C82.9942 24.4865 82.5103 23.7969 81.3918 24.4187Z" fill="#646464"/>
<path d="M66.5429 118.061C66.96 119.601 68.5908 122.846 71.7769 123.5C75.7596 124.317 81.9822 116.24 79.0728 112.419C77.9252 110.911 76.4741 109.026 71.7871 109.057C71.7552 109.053 71.736 109.053 71.7364 109.058C71.8877 111.394 71.5883 116.499 66.5429 118.061Z" fill="url(#paint1_radial_205_1508)"/>
<path d="M63.4776 114.736C63.7878 116.302 65.1916 119.655 68.3253 120.534C72.2425 121.632 79.0061 114.02 76.3663 110.001C75.325 108.416 74.007 106.432 69.3287 106.129C69.2972 106.123 69.2782 106.121 69.2781 106.126C69.2684 108.467 68.6186 113.538 63.4776 114.736Z" fill="url(#paint2_radial_205_1508)"/>
<path d="M61.0262 111.181C61.3146 112.752 62.6718 116.124 65.793 117.048C69.6945 118.202 76.5631 110.688 73.9793 106.631C72.9601 105.031 71.6698 103.029 66.9962 102.659C66.9647 102.652 66.9457 102.65 66.9456 102.655C66.9034 104.996 66.1833 110.057 61.0262 111.181Z" fill="url(#paint3_radial_205_1508)"/>
<path d="M59.0147 104.705C58.7159 106.273 58.7609 109.916 61.3313 111.937C64.5443 114.463 73.6482 110.028 72.709 105.292C72.3386 103.424 71.8609 101.081 67.6463 98.9976C67.6196 98.9794 67.6026 98.9704 67.6007 98.9752C66.7161 101.137 64.2187 105.578 59.0147 104.705Z" fill="url(#paint4_radial_205_1508)"/>
<path d="M59.9868 97.2968C59.0641 98.5912 57.5916 101.913 59.0825 104.846C60.9461 108.513 71.0433 108.39 72.1593 103.694C72.5994 101.841 73.1397 99.5125 70.184 95.8185C70.1673 95.7906 70.1557 95.7751 70.1519 95.7786C68.4516 97.3603 64.3424 100.317 59.9868 97.2968Z" fill="url(#paint5_radial_205_1508)"/>
<path d="M62.7621 90.5852C61.437 91.4472 58.8693 93.992 59.1999 97.2756C59.6131 101.38 69.0548 105.016 71.7856 101.06C72.8627 99.4993 74.2047 97.5326 72.7851 92.9969C72.7796 92.9647 72.7744 92.946 72.7696 92.9478C70.6172 93.7883 65.7273 95.014 62.7621 90.5852Z" fill="url(#paint6_radial_205_1508)"/>
<path d="M67.5193 84.593C66.0141 85.0596 62.8649 86.8059 62.3097 90.058C61.6157 94.1232 69.7394 100.213 73.4211 97.1523C74.8733 95.9452 76.6886 94.4195 76.5283 89.6631C76.5316 89.6307 76.5315 89.6112 76.5265 89.6117C74.2304 89.8308 69.1962 89.6702 67.5193 84.593Z" fill="url(#paint7_radial_205_1508)"/>
<ellipse cx="75.3356" cy="83.2886" rx="10.0426" ry="10.1956" fill="#005D4D"/>
<path d="M77.6829 75.8872C78.0168 77.0249 76.1922 76.3381 74.0176 76.996C71.843 77.6538 70.1419 79.4072 69.808 78.2694C69.474 77.1317 70.8271 75.7427 73.0017 75.0849C75.1763 74.427 77.349 74.7495 77.6829 75.8872Z" fill="#75AFA6"/>
<path d="M68.4153 99.854C69.3608 88.5759 80.2334 80.1572 85.5515 77.3577C88.2399 75.9424 96.1865 82.9299 107.415 80.0572C117.98 77.3542 119.233 93.555 118.347 99.854C117.46 111.752 114.033 138.368 107.415 149.646C100.797 160.924 93.6272 154.345 90.8696 149.646C82.9909 137.748 67.4699 111.132 68.4153 99.854Z" fill="#EEEEEE"/>
<ellipse rx="1.59843" ry="1.61995" transform="matrix(0.969865 0.243644 -0.2368 0.971558 91.3073 90.6234)" fill="#5697F9"/>
<ellipse rx="1.59843" ry="1.61995" transform="matrix(0.969865 0.243644 -0.2368 0.971558 94.5924 91.4479)" fill="#C751FF"/>
<ellipse rx="1.59843" ry="1.61995" transform="matrix(0.969865 0.243644 -0.2368 0.971558 97.8776 92.2731)" fill="#6CBB3C"/>
<ellipse rx="1.59843" ry="1.61995" transform="matrix(0.969865 0.243644 -0.2368 0.971558 101.161 93.0981)" fill="#FFD600"/>
<path d="M101.588 109.073C107.386 98.6298 109.863 91.3182 105.347 83.4909C102.125 77.9071 116.857 80.7348 118.052 91.3182C118.595 135.857 105.4 157.702 99.247 155.792C94.831 151.97 98.3864 114.84 101.588 109.073Z" fill="url(#paint8_linear_205_1508)"/>
<path d="M131.387 127.104C126.656 128.473 124.214 124.736 123.585 122.696C122.483 124.519 120.032 129.412 124.312 131.479C128.063 133.289 130.374 129.667 131.387 127.104Z" fill="#005D4D"/>
<path d="M131.649 94.9738C131.186 93.3022 129.395 89.7864 125.929 89.0956C121.597 88.232 114.883 97.0457 118.067 101.181C119.323 102.812 120.91 104.851 126.003 104.789C126.038 104.793 126.059 104.793 126.058 104.788C125.88 102.25 126.175 96.701 131.649 94.9738Z" fill="url(#paint9_radial_205_1508)"/>
<path d="M134.999 98.5683C134.653 96.8682 133.108 93.2338 129.698 92.2977C125.435 91.1276 118.13 99.4402 121.022 103.791C122.163 105.508 123.607 107.655 128.692 107.956C128.726 107.963 128.747 107.964 128.747 107.959C128.744 105.415 129.42 99.9011 134.999 98.5683Z" fill="url(#paint10_radial_205_1508)"/>
<path d="M137.682 102.416C137.359 100.711 135.865 97.0547 132.468 96.0699C128.222 94.839 120.803 103.046 123.634 107.438C124.751 109.171 126.165 111.338 131.245 111.712C131.279 111.719 131.3 111.722 131.3 111.716C131.332 109.172 132.085 103.669 137.682 102.416Z" fill="url(#paint11_radial_205_1508)"/>
<path d="M139.904 109.441C140.219 107.735 140.149 103.777 137.344 101.597C133.838 98.871 123.972 103.746 125.02 108.886C125.434 110.913 125.967 113.456 130.559 115.695C130.588 115.714 130.606 115.724 130.608 115.719C131.557 113.364 134.244 108.524 139.904 109.441Z" fill="url(#paint12_radial_205_1508)"/>
<path d="M138.893 117.496C139.888 116.084 141.468 112.465 139.831 109.287C137.784 105.315 126.813 105.51 125.629 110.619C125.161 112.635 124.588 115.168 127.821 119.164C127.84 119.195 127.852 119.211 127.856 119.208C129.695 117.479 134.142 114.241 138.893 117.496Z" fill="url(#paint13_radial_205_1508)"/>
<path d="M135.916 124.806C137.351 123.861 140.126 121.08 139.747 117.515C139.274 113.057 128.993 109.164 126.049 113.479C124.888 115.181 123.441 117.326 125.011 122.246C125.017 122.281 125.023 122.302 125.028 122.299C127.362 121.373 132.668 120.012 135.916 124.806Z" fill="url(#paint14_radial_205_1508)"/>
<path d="M130.784 131.346C132.417 130.83 135.828 128.913 136.412 125.376C137.143 120.954 128.28 114.387 124.297 117.735C122.726 119.055 120.763 120.724 120.965 125.891C120.962 125.927 120.962 125.948 120.967 125.947C123.461 125.695 128.932 125.839 130.784 131.346Z" fill="url(#paint15_radial_205_1508)"/>
<ellipse cx="116.944" cy="92.0269" rx="11.5369" ry="11.7126" fill="#005D4D"/>
<path d="M113.276 100.914C112.846 99.6223 115.647 99.4199 120.643 97.6174C124.745 96.137 126.161 92.6985 126.591 93.9907C127.021 95.2828 125.176 100.236 120.643 101.79C118.173 102.637 113.706 102.207 113.276 100.914Z" fill="#00372D" fill-opacity="0.390925"/>
<ellipse rx="2.15547" ry="0.943057" transform="matrix(0.942998 0.332799 -0.323616 0.946188 125.742 2.83694)" fill="#75AFA6"/>
<path fill-rule="evenodd" clip-rule="evenodd" d="M85.7165 17.9079C86.0699 15.6946 88.5712 10.1601 96.2078 3.92268C106.091 -4.14969 143.392 1.66241 144.667 21.0361C145.687 36.5351 139.354 50.5272 136.059 55.5859C136.328 51.3941 135.324 45.6235 131.959 39.861L127.678 43.0561C125.842 44.4265 123.312 44.3604 121.487 42.9756C97.8136 25.0139 76.4086 23.5175 64.8783 25.9066C63.0559 26.2843 61.9745 24.74 63.5299 23.7179C67.4169 21.1634 74.3873 18.4907 85.7165 17.9079Z" fill="#004B3F"/>
<path d="M109.566 21.9259C103.573 18.5953 89.7292 16.999 86.0176 16.8713C92.5942 2.16566 103.606 -4.11145 125.511 2.8232C133.569 9.15306 110.887 15.7308 109.566 21.9259Z" fill="url(#paint16_linear_205_1508)"/>
<path d="M122.325 29.1896C106.489 18.8713 91.5712 17.7227 85.7217 17.9016C85.754 17.604 85.9548 16.9268 85.9548 16.9268C102.264 16.9268 117.204 24.7903 122.325 29.1896Z" fill="#00372D"/>
<path d="M136.224 55.3581C136.483 52.0684 134.15 43.3178 132.044 39.7979L144.414 24.5789C145.697 29.966 142.251 45.2587 136.224 55.3581Z" fill="url(#paint17_linear_205_1508)"/>
<path d="M123.092 44.0024C102.853 25.1037 77.9087 20.9036 61.6758 25.2128C67.011 20.1497 78.8619 17.9883 85.7136 17.8542C100.08 17.5729 112.712 23.985 118.801 27.5175L123.092 44.0024Z" fill="url(#paint18_linear_205_1508)"/>
<path d="M126.907 3.17175C129.852 4.01199 146.053 11.229 132.039 39.7357C138.379 26.8396 140.864 8.33586 126.907 3.17175Z" fill="#00372D"/>
<path d="M109.665 10.0052L108.899 12.213L110.415 12.8383L110.356 13.0208L108.468 12.2276L109.257 9.83868L109.665 10.0052Z" fill="#3D796F"/>
<path d="M107.802 15.0103L107.327 16.53L108.864 17.1738L108.794 17.359L106.896 16.5445L107.394 14.8438L107.802 15.0103Z" fill="#3D796F"/>
<path fill-rule="evenodd" clip-rule="evenodd" d="M108.622 7.63614L113.332 9.49083L113.531 10.7083L110.627 19.3272L109.643 20.2625L104.941 18.1659L104.75 16.7065L105.551 14.0701L107.433 14.8603L106.902 16.5373L108.784 17.3276L109.577 14.933L106.519 13.6186L106.066 12.8768L107.407 8.32142L108.622 7.63614ZM109.265 9.83638L108.472 12.2311L110.354 13.0209L111.148 10.6262L109.265 9.83638Z" fill="#75AFA6"/>
<path d="M110.284 18.9788L113.094 10.7362L112.83 9.29763L113.328 9.4923L113.533 10.7213L110.617 19.3258L109.639 20.257L109.104 20.0305L110.284 18.9788Z" fill="#3D796F"/>
<path d="M85.0752 80.2741C82.2268 81.4535 79.1535 84.0623 77.2213 86.8743C75.4138 89.505 77.1631 92.9944 79.39 90.7091C80.3518 89.722 81.4531 88.2059 82.6791 86.0065C83.6412 84.2803 84.8644 82.6762 85.8344 81.5095C86.6511 80.5272 86.2556 79.7854 85.0752 80.2741Z" fill="#F8F8F8"/>
<ellipse cx="75.3057" cy="93.8111" rx="1.23148" ry="1.25023" fill="#F8F8F8"/>
<path d="M112.649 127.681L123.546 128.597L128.817 131.126L129.43 141.638L115.35 143.506L112.649 127.681Z" fill="#005D4D"/>
<path d="M82.4805 37.1868L81.0542 36.459L81.7479 34.9451L83.2938 35.715L83.8292 34.596L85.472 35.4382L86.0057 34.335L88.2099 35.4659L87.7164 36.6143L89.6508 37.5954L89.1952 38.6543L90.4578 39.2831L89.8084 40.7798L88.4205 40.0982L82.4805 37.1868Z" fill="#6CBB3C"/>
<path d="M100.625 45.2685L98.831 44.6469L99.3979 42.7557L101.339 43.4073L101.785 42.0057L103.852 42.7263L104.298 41.3435L107.071 42.3114L106.68 43.7405L109.112 44.5765L108.75 45.8944L110.335 46.4266L109.818 48.2902L108.076 47.7166L100.625 45.2685Z" fill="#6CBB3C"/>
<ellipse cx="98.1441" cy="180.222" rx="24.1441" ry="4.22229" fill="#C2C9E0"/>
<defs>
<linearGradient id="paint0_linear_205_1508" x1="133.27" y1="61.4667" x2="94.1703" y2="64.5289" gradientUnits="userSpaceOnUse">
<stop offset="0.333333" stop-color="#ABABAB"/>
<stop offset="0.833333" stop-color="#B9B7B7" stop-opacity="0"/>
</linearGradient>
<radialGradient id="paint1_radial_205_1508" cx="0" cy="0" r="1" gradientUnits="userSpaceOnUse" gradientTransform="translate(71.3313 115.101) rotate(35.2077) scale(6.15239 8.90445)">
<stop stop-color="#005D4D"/>
<stop offset="0.776042" stop-color="#3D796F"/>
</radialGradient>
<radialGradient id="paint2_radial_205_1508" cx="0" cy="0" r="1" gradientUnits="userSpaceOnUse" gradientTransform="translate(68.4584 112.125) rotate(39.2355) scale(6.15998 8.89353)">
<stop stop-color="#005D4D"/>
<stop offset="0.776042" stop-color="#3D796F"/>
</radialGradient>
<radialGradient id="paint3_radial_205_1508" cx="0" cy="0" r="1" gradientUnits="userSpaceOnUse" gradientTransform="translate(66.0427 108.642) rotate(40.0449) scale(6.16127 8.89167)">
<stop stop-color="#005D4D"/>
<stop offset="0.776042" stop-color="#3D796F"/>
</radialGradient>
<radialGradient id="paint4_radial_205_1508" cx="0" cy="0" r="1" gradientUnits="userSpaceOnUse" gradientTransform="translate(64.599 104.209) rotate(61.489) scale(6.19481 8.84352)">
<stop stop-color="#005D4D"/>
<stop offset="0.776042" stop-color="#3D796F"/>
</radialGradient>
<radialGradient id="paint5_radial_205_1508" cx="0" cy="0" r="1" gradientUnits="userSpaceOnUse" gradientTransform="translate(65.2559 99.2387) rotate(86.1303) scale(6.216 8.81337)">
<stop stop-color="#005D4D"/>
<stop offset="0.776042" stop-color="#3D796F"/>
</radialGradient>
<radialGradient id="paint6_radial_205_1508" cx="0" cy="0" r="1" gradientUnits="userSpaceOnUse" gradientTransform="translate(66.9661 94.3496) rotate(107.284) scale(6.20803 8.82468)">
<stop stop-color="#005D4D"/>
<stop offset="0.776042" stop-color="#3D796F"/>
</radialGradient>
<radialGradient id="paint7_radial_205_1508" cx="0" cy="0" r="1" gradientUnits="userSpaceOnUse" gradientTransform="translate(70.5657 89.3701) rotate(122.804) scale(6.18862 8.85236)">
<stop stop-color="#005D4D"/>
<stop offset="0.776042" stop-color="#3D796F"/>
</radialGradient>
<linearGradient id="paint8_linear_205_1508" x1="123.547" y1="117.407" x2="96.1386" y2="110.232" gradientUnits="userSpaceOnUse">
<stop offset="0.102342" stop-color="#C8C8C8"/>
<stop offset="1" stop-color="#C4C4C4" stop-opacity="0"/>
</linearGradient>
<radialGradient id="paint9_radial_205_1508" cx="0" cy="0" r="1" gradientUnits="userSpaceOnUse" gradientTransform="translate(126.463 98.2188) rotate(-145.109) scale(6.68472 9.67645)">
<stop stop-color="#005D4D"/>
<stop offset="0.776042" stop-color="#3D796F"/>
</radialGradient>
<radialGradient id="paint10_radial_205_1508" cx="0" cy="0" r="1" gradientUnits="userSpaceOnUse" gradientTransform="translate(129.602 101.435) rotate(-141.081) scale(6.69295 9.6646)">
<stop stop-color="#005D4D"/>
<stop offset="0.776042" stop-color="#3D796F"/>
</radialGradient>
<radialGradient id="paint11_radial_205_1508" cx="0" cy="0" r="1" gradientUnits="userSpaceOnUse" gradientTransform="translate(132.246 105.205) rotate(-140.271) scale(6.69435 9.66258)">
<stop stop-color="#005D4D"/>
<stop offset="0.776042" stop-color="#3D796F"/>
</radialGradient>
<radialGradient id="paint12_radial_205_1508" cx="0" cy="0" r="1" gradientUnits="userSpaceOnUse" gradientTransform="translate(133.839 110.014) rotate(-118.824) scale(6.73088 9.61014)">
<stop stop-color="#005D4D"/>
<stop offset="0.776042" stop-color="#3D796F"/>
</radialGradient>
<radialGradient id="paint13_radial_205_1508" cx="0" cy="0" r="1" gradientUnits="userSpaceOnUse" gradientTransform="translate(133.156 115.418) rotate(-94.1803) scale(6.7543 9.57682)">
<stop stop-color="#005D4D"/>
<stop offset="0.776042" stop-color="#3D796F"/>
</radialGradient>
<radialGradient id="paint14_radial_205_1508" cx="0" cy="0" r="1" gradientUnits="userSpaceOnUse" gradientTransform="translate(131.326 120.741) rotate(-73.0274) scale(6.74604 9.58855)">
<stop stop-color="#005D4D"/>
<stop offset="0.776042" stop-color="#3D796F"/>
</radialGradient>
<radialGradient id="paint15_radial_205_1508" cx="0" cy="0" r="1" gradientUnits="userSpaceOnUse" gradientTransform="translate(127.446 126.173) rotate(-57.5093) scale(6.72514 9.61835)">
<stop stop-color="#005D4D"/>
<stop offset="0.776042" stop-color="#3D796F"/>
</radialGradient>
<linearGradient id="paint16_linear_205_1508" x1="110.6" y1="-1.11937e-06" x2="113.391" y2="11.4643" gradientUnits="userSpaceOnUse">
<stop offset="0.0773366" stop-color="#3D796F"/>
<stop offset="0.964698" stop-color="#006857" stop-opacity="0"/>
</linearGradient>
<linearGradient id="paint17_linear_205_1508" x1="135.413" y1="34.8052" x2="140.557" y2="40.5317" gradientUnits="userSpaceOnUse">
<stop stop-color="#00372D" stop-opacity="0"/>
<stop offset="0.308563" stop-color="#00372D" stop-opacity="0.390925"/>
<stop offset="0.478055" stop-color="#00372D" stop-opacity="0.597563"/>
<stop offset="0.808558" stop-color="#00372D"/>
<stop offset="1" stop-color="#00372D"/>
</linearGradient>
<linearGradient id="paint18_linear_205_1508" x1="87.97" y1="17.8452" x2="118.341" y2="33.3348" gradientUnits="userSpaceOnUse">
<stop stop-color="#3D796F"/>
<stop offset="1" stop-color="#3D796F" stop-opacity="0"/>
</linearGradient>
</defs>
</svg>
