<svg width="200" height="200" viewBox="0 0 200 200" fill="none" xmlns="http://www.w3.org/2000/svg">
<g clip-path="url(#clip0_205_1425)">
<path d="M76.7046 159.851L63.8441 160.933L57.6229 163.919L56.9005 176.332L73.5175 178.538L76.7046 159.851Z" fill="#005D4D"/>
<path d="M114.658 166.771L127.518 167.853L133.739 170.839L134.462 183.252L117.845 185.458L114.658 166.771Z" fill="#005D4D"/>
<path d="M85.005 103.973L64.4326 63.3763L140.446 85.6906L110.11 108.246C100.4 111.488 86.9809 106.821 85.005 103.973Z" fill="#EEEEEE"/>
<path d="M140.794 85.6907C96.162 95.3248 69.197 71.405 64.083 63.3766C64.083 63.3766 69.1722 45.4206 82.2146 42.4789C105.925 29.7279 151.463 18.8895 143.932 77.5442C143.932 77.5442 141.491 83.9197 140.794 85.6907Z" fill="#181818"/>
<path d="M139.051 57.9751C136.346 93.6153 103.827 93.1137 75.5882 74.2483C69.7511 70.3487 82.6312 42.401 82.6312 42.401L113.004 43.8621L139.051 57.9751Z" fill="black"/>
<path d="M106.589 109.531C102.088 98.9818 96.8693 88.6205 94.249 83.7715C114.287 90.2595 132.172 87.6208 140.723 85.7033C130.782 93.3893 110.093 108.264 110.093 108.264C110.093 108.264 108.404 109.169 106.589 109.531Z" fill="url(#paint0_linear_205_1425)"/>
<path d="M78.1674 44.6226C74.3628 46.5755 70.3747 51.0114 68.4625 55.3273C67.1686 58.2476 69.2662 61.8599 71.4645 59.5427C72.6975 58.243 74.09 55.9635 75.5608 52.3371C76.5849 49.8125 78.0272 47.4225 79.0882 45.808C79.7911 44.7385 79.3059 44.0381 78.1674 44.6226Z" fill="#646464"/>
<path d="M60.2398 155.413C60.7324 157.232 62.658 161.063 66.4188 161.835C71.1198 162.801 78.463 153.266 75.0281 148.753C73.6732 146.973 71.9601 144.748 66.4278 144.783C66.3902 144.778 66.3676 144.778 66.368 144.784C66.547 147.543 66.1947 153.57 60.2398 155.413Z" fill="url(#paint1_radial_205_1425)"/>
<path d="M56.6245 151.485C56.9906 153.334 58.6474 157.293 62.3458 158.331C66.9687 159.628 74.951 150.639 71.8355 145.894C70.6067 144.022 69.0511 141.68 63.53 141.322C63.4928 141.314 63.4703 141.312 63.4703 141.318C63.4587 144.082 62.6919 150.07 56.6245 151.485Z" fill="url(#paint2_radial_205_1425)"/>
<path d="M53.7319 147.287C54.0723 149.142 55.6741 153.124 59.3577 154.215C63.9622 155.578 72.0683 146.704 69.0189 141.914C67.8161 140.025 66.2933 137.661 60.7776 137.224C60.7405 137.216 60.718 137.213 60.7179 137.219C60.6681 139.984 59.8183 145.96 53.7319 147.287Z" fill="url(#paint3_radial_205_1425)"/>
<path d="M51.3591 139.639C51.0065 141.492 51.0596 145.793 54.0931 148.18C57.885 151.163 68.6292 145.925 67.5208 140.333C67.0836 138.127 66.5199 135.361 61.5459 132.9C61.5144 132.879 61.4944 132.868 61.4921 132.874C60.4481 135.427 57.5008 140.671 51.3591 139.639Z" fill="url(#paint4_radial_205_1425)"/>
<path d="M52.5063 130.892C51.4174 132.42 49.6795 136.343 51.439 139.807C53.6385 144.136 65.555 143.991 66.872 138.446C67.3915 136.258 68.0291 133.508 64.5408 129.146C64.5211 129.113 64.5074 129.095 64.503 129.099C62.4963 130.967 57.6467 134.459 52.5063 130.892Z" fill="url(#paint5_radial_205_1425)"/>
<path d="M55.7817 122.967C54.2178 123.985 51.1876 126.99 51.5777 130.867C52.0654 135.714 63.2082 140.007 66.4311 135.335C67.7023 133.493 69.2861 131.17 67.6106 125.814C67.6042 125.776 67.598 125.754 67.5924 125.757C65.0522 126.749 59.2812 128.196 55.7817 122.967Z" fill="url(#paint6_radial_205_1425)"/>
<path d="M61.3962 115.891C59.6198 116.442 55.9032 118.504 55.248 122.344C54.429 127.144 64.0164 134.335 68.3614 130.721C70.0753 129.296 72.2176 127.494 72.0284 121.878C72.0323 121.839 72.0322 121.816 72.0263 121.817C69.3166 122.076 63.3753 121.886 61.3962 115.891Z" fill="url(#paint7_radial_205_1425)"/>
<ellipse cx="70.6225" cy="114.351" rx="11.852" ry="12.0393" fill="#005D4D"/>
<path d="M73.3921 105.611C73.7862 106.954 71.6329 106.143 69.0665 106.92C66.5001 107.697 64.4924 109.767 64.0983 108.424C63.7042 107.08 65.3011 105.44 67.8675 104.663C70.434 103.887 72.9981 104.267 73.3921 105.611Z" fill="#75AFA6"/>
<path d="M62.455 133.912C63.5708 120.594 76.4024 110.653 82.6787 107.347C85.8515 105.676 95.2299 113.927 108.481 110.535C120.95 107.343 122.429 126.474 121.383 133.912C120.337 147.962 116.292 179.39 108.481 192.708C100.671 206.026 92.2094 198.257 88.955 192.708C79.6568 178.658 61.3392 147.229 62.455 133.912Z" fill="#EEEEEE"/>
<ellipse rx="1.88649" ry="1.91284" transform="matrix(0.969832 0.243773 -0.236675 0.971589 89.4706 123.012)" fill="#5697F9"/>
<ellipse rx="1.88649" ry="1.91284" transform="matrix(0.969832 0.243773 -0.236675 0.971589 93.3476 123.985)" fill="#C751FF"/>
<ellipse rx="1.88649" ry="1.91284" transform="matrix(0.969832 0.243773 -0.236675 0.971589 97.2235 124.96)" fill="#6CBB3C"/>
<ellipse rx="1.88649" ry="1.91284" transform="matrix(0.969832 0.243773 -0.236675 0.971589 101.099 125.934)" fill="#FFD600"/>
<path d="M101.605 144.798C108.448 132.466 111.371 123.832 106.041 114.589C102.239 107.996 119.626 111.335 121.035 123.832C121.676 176.425 106.104 202.222 98.8421 199.965C93.6305 195.452 97.8265 151.608 101.605 144.798Z" fill="url(#paint8_linear_205_1425)"/>
<path d="M136.774 166.09C131.19 167.706 128.308 163.293 127.566 160.885C126.264 163.037 123.373 168.816 128.424 171.256C132.85 173.393 135.578 169.117 136.774 166.09Z" fill="#005D4D"/>
<path d="M137.083 128.148C136.537 126.174 134.422 122.022 130.331 121.206C125.217 120.185 117.294 130.59 121.053 135.473C122.536 137.399 124.41 139.807 130.421 139.735C130.462 139.74 130.487 139.74 130.486 139.734C130.276 136.737 130.623 130.186 137.083 128.148Z" fill="url(#paint9_radial_205_1425)"/>
<path d="M141.035 132.394C140.626 130.386 138.803 126.094 134.778 124.989C129.747 123.607 121.127 133.423 124.54 138.561C125.886 140.588 127.59 143.123 133.591 143.479C133.632 143.487 133.656 143.489 133.656 143.482C133.653 140.478 134.451 133.967 141.035 132.394Z" fill="url(#paint10_radial_205_1425)"/>
<path d="M144.201 136.937C143.821 134.924 142.057 130.606 138.048 129.443C133.037 127.99 124.281 137.681 127.622 142.868C128.94 144.914 130.609 147.473 136.605 147.914C136.645 147.923 136.67 147.925 136.67 147.919C136.708 144.915 137.596 138.416 144.201 136.937Z" fill="url(#paint11_radial_205_1425)"/>
<path d="M146.824 145.233C147.197 143.218 147.114 138.544 143.803 135.969C139.666 132.751 128.022 138.507 129.259 144.577C129.747 146.971 130.376 149.974 135.795 152.617C135.83 152.64 135.851 152.652 135.854 152.646C136.973 149.865 140.145 144.149 146.824 145.233Z" fill="url(#paint12_radial_205_1425)"/>
<path d="M145.63 154.744C146.804 153.077 148.669 148.804 146.737 145.051C144.322 140.36 131.374 140.591 129.976 146.624C129.424 149.004 128.748 151.996 132.564 156.714C132.585 156.75 132.6 156.77 132.605 156.765C134.774 154.724 140.023 150.9 145.63 154.744Z" fill="url(#paint13_radial_205_1425)"/>
<path d="M142.117 163.376C143.81 162.261 147.085 158.977 146.639 154.766C146.08 149.503 133.947 144.906 130.473 150.001C129.102 152.011 127.395 154.544 129.247 160.354C129.254 160.395 129.261 160.419 129.267 160.416C132.022 159.322 138.284 157.715 142.117 163.376Z" fill="url(#paint14_radial_205_1425)"/>
<path d="M136.058 171.099C137.985 170.489 142.012 168.226 142.701 164.049C143.563 158.828 133.103 151.073 128.403 155.026C126.549 156.585 124.232 158.556 124.47 164.658C124.466 164.699 124.467 164.724 124.473 164.724C127.416 164.426 133.873 164.596 136.058 171.099Z" fill="url(#paint15_radial_205_1425)"/>
<ellipse cx="119.728" cy="124.669" rx="13.6155" ry="13.8307" fill="#005D4D"/>
<path d="M115.399 135.164C114.892 133.638 118.198 133.399 124.093 131.271C128.935 129.523 130.606 125.462 131.113 126.988C131.62 128.514 129.443 134.363 124.093 136.198C121.178 137.198 115.906 136.69 115.399 135.164Z" fill="#00372D" fill-opacity="0.390925"/>
<ellipse rx="2.54399" ry="1.11353" transform="matrix(0.942998 0.332799 -0.323616 0.946188 130.111 19.3486)" fill="#75AFA6"/>
<path fill-rule="evenodd" clip-rule="evenodd" d="M82.8736 37.1463C83.2905 34.5329 86.2424 27.9973 95.2551 20.6317C106.919 11.0995 150.941 17.9627 152.446 40.8399C153.65 59.1417 146.175 75.6642 142.287 81.6377C142.604 76.6879 141.42 69.8738 137.448 63.0692L131.834 67.2617C129.997 68.6332 127.468 68.5704 125.649 67.175C96.8228 45.0506 70.7756 43.6771 57.3297 46.8004C55.5168 47.2215 54.3708 45.6529 55.8801 44.564C60.2794 41.39 68.6766 37.877 82.8736 37.1463Z" fill="#004B3F"/>
<path d="M111.02 41.891C103.947 37.9581 87.6089 36.0731 83.2285 35.9223C90.9901 18.5573 103.986 11.145 129.838 19.3338C139.347 26.8083 112.579 34.5756 111.02 41.891Z" fill="url(#paint16_linear_205_1425)"/>
<path d="M126.078 50.4683C107.388 38.284 89.7823 36.9277 82.8789 37.1389C82.917 36.7875 83.154 35.9878 83.154 35.9878C102.401 35.9878 120.034 45.2734 126.078 50.4683Z" fill="#00372D"/>
<path d="M142.481 81.369C142.787 77.4845 140.034 67.1514 137.548 62.9949L152.146 45.0237C153.661 51.3851 149.594 69.4433 142.481 81.369Z" fill="url(#paint17_linear_205_1425)"/>
<path d="M126.983 67.9598C103.098 45.6434 73.6587 40.6837 54.501 45.7722C60.7974 39.7934 74.7836 37.2413 82.8698 37.0828C99.8247 36.7507 114.732 44.3224 121.919 48.4936L126.983 67.9598Z" fill="url(#paint18_linear_205_1425)"/>
<path d="M131.485 19.7454C134.961 20.7376 154.081 29.2596 137.542 62.9216C145.024 47.6933 147.957 25.8433 131.485 19.7454Z" fill="#00372D"/>
<path d="M111.138 27.8147L110.233 30.4218L112.023 31.1601L111.953 31.3757L109.725 30.439L110.657 27.618L111.138 27.8147Z" fill="#3D796F"/>
<path d="M108.937 33.7248L108.376 35.5192L110.191 36.2795L110.108 36.4982L107.868 35.5365L108.455 33.5282L108.937 33.7248Z" fill="#3D796F"/>
<path fill-rule="evenodd" clip-rule="evenodd" d="M109.904 25.0171L115.463 27.207L115.698 28.6447L112.271 38.8224L111.109 39.9267L105.56 37.4513L105.334 35.728L106.28 32.6147L108.501 33.5478L107.874 35.5281L110.096 36.4612L111.032 33.6335L107.423 32.0815L106.888 31.2056L108.47 25.8264L109.904 25.0171ZM110.664 27.6153L109.727 30.4431L111.948 31.3758L112.885 28.548L110.664 27.6153Z" fill="#75AFA6"/>
<path d="M111.868 38.411L115.185 28.6778L114.873 26.9791L115.46 27.209L115.702 28.6602L112.261 38.8207L111.107 39.9203L110.475 39.6529L111.868 38.411Z" fill="#3D796F"/>
<path d="M82.535 110.626C78.811 112.02 74.6729 115.592 72.3616 119.329C70.6833 122.043 72.3547 125.815 74.763 123.724C76.0418 122.614 77.5603 120.662 79.2887 117.56C80.522 115.346 82.1189 113.302 83.3015 111.905C84.1269 110.93 83.7315 110.178 82.535 110.626Z" fill="#F8F8F8"/>
<ellipse cx="70.5862" cy="126.776" rx="1.45336" ry="1.47633" fill="#F8F8F8"/>
<rect width="6.12443" height="11.5082" transform="matrix(0.934447 0.355933 -0.344573 0.938821 83.3438 54.6975)" fill="#6CBB3C"/>
<rect width="6.60956" height="12.4198" transform="matrix(0.934787 0.355041 -0.345447 0.938501 105.218 61.2332)" fill="#6CBB3C"/>
</g>
<defs>
<linearGradient id="paint0_linear_205_1425" x1="138.997" y1="88.5825" x2="92.8511" y2="92.1945" gradientUnits="userSpaceOnUse">
<stop offset="0.333333" stop-color="#ABABAB"/>
<stop offset="0.833333" stop-color="#B9B7B7" stop-opacity="0"/>
</linearGradient>
<radialGradient id="paint1_radial_205_1425" cx="0" cy="0" r="1" gradientUnits="userSpaceOnUse" gradientTransform="translate(65.8911 151.919) rotate(35.2195) scale(7.26381 10.5106)">
<stop stop-color="#005D4D"/>
<stop offset="0.776042" stop-color="#3D796F"/>
</radialGradient>
<radialGradient id="paint2_radial_205_1425" cx="0" cy="0" r="1" gradientUnits="userSpaceOnUse" gradientTransform="translate(62.5028 148.402) rotate(39.2513) scale(7.2715 10.4995)">
<stop stop-color="#005D4D"/>
<stop offset="0.776042" stop-color="#3D796F"/>
</radialGradient>
<radialGradient id="paint3_radial_205_1425" cx="0" cy="0" r="1" gradientUnits="userSpaceOnUse" gradientTransform="translate(59.6524 144.289) rotate(40.0608) scale(7.27308 10.4972)">
<stop stop-color="#005D4D"/>
<stop offset="0.776042" stop-color="#3D796F"/>
</radialGradient>
<radialGradient id="paint4_radial_205_1425" cx="0" cy="0" r="1" gradientUnits="userSpaceOnUse" gradientTransform="translate(57.9495 139.054) rotate(61.5025) scale(7.31415 10.4383)">
<stop stop-color="#005D4D"/>
<stop offset="0.776042" stop-color="#3D796F"/>
</radialGradient>
<radialGradient id="paint5_radial_205_1425" cx="0" cy="0" r="1" gradientUnits="userSpaceOnUse" gradientTransform="translate(58.7248 133.185) rotate(86.1325) scale(7.34009 10.4014)">
<stop stop-color="#005D4D"/>
<stop offset="0.776042" stop-color="#3D796F"/>
</radialGradient>
<radialGradient id="paint6_radial_205_1425" cx="0" cy="0" r="1" gradientUnits="userSpaceOnUse" gradientTransform="translate(60.7432 127.412) rotate(107.275) scale(7.33034 10.4152)">
<stop stop-color="#005D4D"/>
<stop offset="0.776042" stop-color="#3D796F"/>
</radialGradient>
<radialGradient id="paint7_radial_205_1425" cx="0" cy="0" r="1" gradientUnits="userSpaceOnUse" gradientTransform="translate(64.9915 121.532) rotate(122.789) scale(7.30657 10.4491)">
<stop stop-color="#005D4D"/>
<stop offset="0.776042" stop-color="#3D796F"/>
</radialGradient>
<linearGradient id="paint8_linear_205_1425" x1="127.521" y1="154.639" x2="95.1713" y2="146.176" gradientUnits="userSpaceOnUse">
<stop offset="0.102342" stop-color="#C8C8C8"/>
<stop offset="1" stop-color="#C4C4C4" stop-opacity="0"/>
</linearGradient>
<radialGradient id="paint9_radial_205_1425" cx="0" cy="0" r="1" gradientUnits="userSpaceOnUse" gradientTransform="translate(130.962 131.978) rotate(-145.098) scale(7.8923 11.4219)">
<stop stop-color="#005D4D"/>
<stop offset="0.776042" stop-color="#3D796F"/>
</radialGradient>
<radialGradient id="paint10_radial_205_1425" cx="0" cy="0" r="1" gradientUnits="userSpaceOnUse" gradientTransform="translate(134.666 135.779) rotate(-141.065) scale(7.90063 11.4098)">
<stop stop-color="#005D4D"/>
<stop offset="0.776042" stop-color="#3D796F"/>
</radialGradient>
<radialGradient id="paint11_radial_205_1425" cx="0" cy="0" r="1" gradientUnits="userSpaceOnUse" gradientTransform="translate(137.786 140.231) rotate(-140.255) scale(7.90234 11.4073)">
<stop stop-color="#005D4D"/>
<stop offset="0.776042" stop-color="#3D796F"/>
</radialGradient>
<radialGradient id="paint12_radial_205_1425" cx="0" cy="0" r="1" gradientUnits="userSpaceOnUse" gradientTransform="translate(139.667 145.908) rotate(-118.81) scale(7.94706 11.3431)">
<stop stop-color="#005D4D"/>
<stop offset="0.776042" stop-color="#3D796F"/>
</radialGradient>
<radialGradient id="paint13_radial_205_1425" cx="0" cy="0" r="1" gradientUnits="userSpaceOnUse" gradientTransform="translate(138.859 152.29) rotate(-94.178) scale(7.97573 11.3024)">
<stop stop-color="#005D4D"/>
<stop offset="0.776042" stop-color="#3D796F"/>
</radialGradient>
<radialGradient id="paint14_radial_205_1425" cx="0" cy="0" r="1" gradientUnits="userSpaceOnUse" gradientTransform="translate(136.7 158.576) rotate(-73.0364) scale(7.96561 11.3167)">
<stop stop-color="#005D4D"/>
<stop offset="0.776042" stop-color="#3D796F"/>
</radialGradient>
<radialGradient id="paint15_radial_205_1425" cx="0" cy="0" r="1" gradientUnits="userSpaceOnUse" gradientTransform="translate(132.119 164.991) rotate(-57.5239) scale(7.94003 11.3532)">
<stop stop-color="#005D4D"/>
<stop offset="0.776042" stop-color="#3D796F"/>
</radialGradient>
<linearGradient id="paint16_linear_205_1425" x1="112.24" y1="16" x2="115.538" y2="29.5367" gradientUnits="userSpaceOnUse">
<stop offset="0.0773366" stop-color="#3D796F"/>
<stop offset="0.964698" stop-color="#006857" stop-opacity="0"/>
</linearGradient>
<linearGradient id="paint17_linear_205_1425" x1="141.524" y1="57.0994" x2="147.599" y2="63.858" gradientUnits="userSpaceOnUse">
<stop stop-color="#00372D" stop-opacity="0"/>
<stop offset="0.308563" stop-color="#00372D" stop-opacity="0.390925"/>
<stop offset="0.478055" stop-color="#00372D" stop-opacity="0.597563"/>
<stop offset="0.808558" stop-color="#00372D"/>
<stop offset="1" stop-color="#00372D"/>
</linearGradient>
<linearGradient id="paint18_linear_205_1425" x1="85.5328" y1="37.0723" x2="121.384" y2="55.3467" gradientUnits="userSpaceOnUse">
<stop stop-color="#3D796F"/>
<stop offset="1" stop-color="#3D796F" stop-opacity="0"/>
</linearGradient>
<clipPath id="clip0_205_1425">
<rect width="200" height="200" fill="white"/>
</clipPath>
</defs>
</svg>
