<svg width="200" height="200" viewBox="0 0 200 200" fill="none" xmlns="http://www.w3.org/2000/svg">
<path d="M80.4924 143.894L69.5949 144.81L64.3234 147.34L63.7112 157.859L77.7918 159.728L80.4924 143.894Z" fill="#005D4D"/>
<path d="M112.652 149.758L123.55 150.674L128.821 153.204L129.433 163.723L115.353 165.592L112.652 149.758Z" fill="#005D4D"/>
<path d="M87.525 96.5444L70.0928 62.1448L134.503 81.053L108.798 100.165C100.57 102.912 89.1993 98.9584 87.525 96.5444Z" fill="#EEEEEE"/>
<path d="M134.798 81.0531C96.9793 89.2166 74.1303 68.948 69.7969 62.145C69.7969 62.145 74.1092 46.9298 85.1609 44.4372C105.252 33.6324 143.84 24.4484 137.458 74.1501C137.458 74.1501 135.389 79.5524 134.798 81.0531Z" fill="#181818"/>
<path d="M133.322 57.568C131.029 87.768 103.474 87.343 79.546 71.3572C74.5998 68.0528 85.5139 44.3711 85.5139 44.3711L111.251 45.6092L133.322 57.568Z" fill="black"/>
<path d="M105.815 101.255C102.001 92.3155 97.5787 83.5358 95.3584 79.4269C112.338 84.9246 127.493 82.6887 134.738 81.0638C126.315 87.5766 108.784 100.181 108.784 100.181C108.784 100.181 107.352 100.948 105.815 101.255Z" fill="url(#paint0_linear_205_1425)"/>
<path d="M81.395 46.4335C78.4749 48.058 75.4821 51.3372 73.8281 54.6449C72.3996 57.5017 74.554 60.8286 76.5423 58.3288C77.4603 57.1746 78.4676 55.3914 79.5224 52.7907C80.3251 50.8117 81.4311 48.9305 82.3041 47.5766C82.9976 46.501 82.5134 45.8113 81.395 46.4335Z" fill="#646464"/>
<path d="M66.5407 140.133C66.9582 141.674 68.5899 144.921 71.7766 145.575C75.7601 146.393 81.9824 138.314 79.0718 134.49C77.9237 132.982 76.4721 131.096 71.7842 131.126C71.7524 131.122 71.7332 131.121 71.7335 131.126C71.8853 133.464 71.5867 138.571 66.5407 140.133Z" fill="url(#paint1_radial_205_1425)"/>
<path d="M63.4763 136.804C63.7866 138.372 65.1904 141.726 68.3243 142.606C72.2416 143.705 79.0054 136.088 76.3655 132.067C75.3242 130.48 74.0061 128.496 69.3277 128.193C69.2962 128.186 69.2771 128.184 69.2771 128.189C69.2674 130.532 68.6176 135.606 63.4763 136.804Z" fill="url(#paint2_radial_205_1425)"/>
<path d="M61.0259 133.247C61.3144 134.819 62.6716 138.193 65.7929 139.118C69.6946 140.273 76.5634 132.754 73.9795 128.695C72.9603 127.094 71.6699 125.091 66.9961 124.72C66.9647 124.713 66.9457 124.711 66.9456 124.716C66.9033 127.059 66.1832 132.123 61.0259 133.247Z" fill="url(#paint3_radial_205_1425)"/>
<path d="M59.0153 126.767C58.7165 128.337 58.7615 131.981 61.332 134.004C64.5451 136.532 73.6493 132.093 72.7101 127.355C72.3397 125.486 71.862 123.142 67.6472 121.057C67.6205 121.038 67.6035 121.029 67.6016 121.034C66.717 123.198 64.2195 127.641 59.0153 126.767Z" fill="url(#paint4_radial_205_1425)"/>
<path d="M59.9873 119.355C59.0647 120.65 57.592 123.974 59.083 126.909C60.9467 130.578 71.0443 130.454 72.1603 125.756C72.6004 123.902 73.1407 121.572 70.1849 117.876C70.1682 117.848 70.1566 117.832 70.1529 117.836C68.4525 119.418 64.3431 122.377 59.9873 119.355Z" fill="url(#paint5_radial_205_1425)"/>
<path d="M62.7626 112.639C61.4375 113.502 58.8698 116.048 59.2003 119.334C59.6136 123.441 69.0556 127.078 71.7865 123.12C72.8637 121.559 74.2057 119.591 72.786 115.052C72.7805 115.02 72.7753 115.001 72.7705 115.003C70.618 115.844 65.728 117.071 62.7626 112.639Z" fill="url(#paint6_radial_205_1425)"/>
<path d="M67.5199 106.643C66.0146 107.11 62.8654 108.858 62.3101 112.112C61.6161 116.179 69.7401 122.272 73.4219 119.21C74.8742 118.002 76.6895 116.476 76.5292 111.717C76.5325 111.684 76.5324 111.665 76.5274 111.665C74.2313 111.884 69.1969 111.724 67.5199 106.643Z" fill="url(#paint7_radial_205_1425)"/>
<ellipse cx="75.3379" cy="105.338" rx="10.0429" ry="10.2016" fill="#005D4D"/>
<path d="M77.6851 97.9325C78.0191 99.0709 76.1944 98.3837 74.0198 99.042C71.8451 99.7002 70.1439 101.455 69.8099 100.316C69.476 99.1778 70.8291 97.788 73.0038 97.1297C75.1785 96.4715 77.3512 96.7941 77.6851 97.9325Z" fill="#75AFA6"/>
<path d="M68.4173 121.914C69.3628 110.629 80.2357 102.205 85.554 99.4039C88.2425 97.9878 96.1894 104.979 107.418 102.105C117.984 99.4004 119.237 115.611 118.35 121.914C117.464 133.819 114.037 160.451 107.418 171.735C100.8 183.02 93.63 176.437 90.8724 171.735C82.9934 159.83 67.4718 133.199 68.4173 121.914Z" fill="#EEEEEE"/>
<ellipse rx="1.59854" ry="1.62086" transform="matrix(0.969832 0.243773 -0.236675 0.971589 91.3093 112.678)" fill="#5697F9"/>
<ellipse rx="1.59854" ry="1.62086" transform="matrix(0.969832 0.243773 -0.236675 0.971589 94.5944 113.503)" fill="#C751FF"/>
<ellipse rx="1.59854" ry="1.62086" transform="matrix(0.969832 0.243773 -0.236675 0.971589 97.8786 114.328)" fill="#6CBB3C"/>
<ellipse rx="1.59854" ry="1.62086" transform="matrix(0.969832 0.243773 -0.236675 0.971589 101.162 115.154)" fill="#FFD600"/>
<path d="M101.591 131.138C107.389 120.689 109.866 113.373 105.35 105.541C102.128 99.9536 116.861 102.783 118.056 113.373C118.599 157.938 105.404 179.797 99.25 177.885C94.8338 174.061 98.3894 136.908 101.591 131.138Z" fill="url(#paint8_linear_205_1425)"/>
<path d="M131.392 149.18C126.66 150.55 124.218 146.81 123.589 144.77C122.487 146.593 120.036 151.49 124.317 153.557C128.067 155.369 130.378 151.745 131.392 149.18Z" fill="#005D4D"/>
<path d="M131.654 117.029C131.191 115.357 129.399 111.839 125.932 111.147C121.599 110.283 114.885 119.099 118.071 123.237C119.327 124.869 120.915 126.909 126.009 126.848C126.044 126.852 126.064 126.853 126.064 126.847C125.885 124.308 126.18 118.756 131.654 117.029Z" fill="url(#paint9_radial_205_1425)"/>
<path d="M135.002 120.627C134.656 118.926 133.111 115.29 129.701 114.353C125.438 113.182 118.133 121.5 121.025 125.853C122.166 127.571 123.61 129.719 128.695 130.02C128.729 130.027 128.75 130.029 128.75 130.023C128.747 127.478 129.423 121.961 135.002 120.627Z" fill="url(#paint10_radial_205_1425)"/>
<path d="M137.685 124.477C137.363 122.771 135.868 119.113 132.471 118.127C128.225 116.896 120.805 125.108 123.637 129.503C124.754 131.236 126.168 133.405 131.248 133.779C131.282 133.786 131.303 133.788 131.303 133.783C131.335 131.237 132.088 125.731 137.685 124.477Z" fill="url(#paint11_radial_205_1425)"/>
<path d="M139.909 131.507C140.225 129.799 140.154 125.839 137.349 123.657C133.843 120.93 123.977 125.808 125.025 130.951C125.439 132.98 125.971 135.524 130.563 137.764C130.593 137.783 130.611 137.793 130.613 137.788C131.562 135.432 134.249 130.589 139.909 131.507Z" fill="url(#paint12_radial_205_1425)"/>
<path d="M138.897 139.566C139.892 138.153 141.473 134.533 139.835 131.353C137.789 127.378 126.817 127.573 125.632 132.685C125.165 134.702 124.592 137.237 127.825 141.236C127.844 141.266 127.856 141.283 127.86 141.279C129.699 139.549 134.146 136.309 138.897 139.566Z" fill="url(#paint13_radial_205_1425)"/>
<path d="M135.92 146.881C137.355 145.935 140.13 143.153 139.752 139.585C139.278 135.125 128.997 131.229 126.053 135.547C124.892 137.25 123.445 139.397 125.015 144.319C125.021 144.354 125.027 144.375 125.032 144.373C127.366 143.446 132.672 142.083 135.92 146.881Z" fill="url(#paint14_radial_205_1425)"/>
<path d="M130.786 153.424C132.419 152.908 135.831 150.99 136.415 147.451C137.145 143.027 128.282 136.456 124.299 139.805C122.728 141.126 120.765 142.796 120.967 147.967C120.964 148.002 120.964 148.023 120.969 148.022C123.463 147.77 128.934 147.914 130.786 153.424Z" fill="url(#paint15_radial_205_1425)"/>
<ellipse cx="116.948" cy="114.082" rx="11.5373" ry="11.7196" fill="#005D4D"/>
<path d="M113.28 122.975C112.851 121.682 115.652 121.48 120.647 119.676C124.75 118.195 126.166 114.754 126.596 116.047C127.025 117.34 125.181 122.296 120.647 123.851C118.177 124.698 113.71 124.268 113.28 122.975Z" fill="#00372D" fill-opacity="0.390925"/>
<ellipse rx="2.15568" ry="0.943565" transform="matrix(0.942998 0.332799 -0.323616 0.946188 125.747 24.8375)" fill="#75AFA6"/>
<path fill-rule="evenodd" clip-rule="evenodd" d="M85.7195 39.9184C86.0728 37.7039 88.5741 32.1659 96.2111 25.9247C106.095 17.8475 143.397 23.663 144.672 43.0483C145.693 58.5565 139.359 72.557 136.064 77.6187C136.332 73.4244 135.329 67.6505 131.963 61.8845L127.683 65.0809C125.847 66.4524 123.316 66.3863 121.49 65.0004C97.8159 47.0283 76.4102 45.5314 64.8798 47.9221C63.0575 48.2999 61.9755 46.7555 63.5304 45.7329C67.4172 43.1766 74.3883 40.5016 85.7195 39.9184Z" fill="#004B3F"/>
<path d="M109.57 43.939C103.576 40.6064 89.7323 39.0092 86.0205 38.8814C92.5973 24.1669 103.609 17.8861 125.515 24.8249C133.573 31.1585 110.891 37.7402 109.57 43.939Z" fill="url(#paint16_linear_205_1425)"/>
<path d="M122.329 51.2071C106.492 40.8826 91.5733 39.7333 85.7236 39.9123C85.7559 39.6145 85.9568 38.9369 85.9568 38.9369C102.266 38.9369 117.207 46.8052 122.329 51.2071Z" fill="#00372D"/>
<path d="M136.228 77.3911C136.487 74.0995 134.154 65.3437 132.048 61.8216L144.418 46.5935C145.702 51.9839 142.255 67.2857 136.228 77.3911Z" fill="url(#paint17_linear_205_1425)"/>
<path d="M123.096 66.0287C102.857 47.1186 77.9112 42.916 61.6777 47.2278C67.0131 42.1617 78.8645 39.999 85.7164 39.8648C100.083 39.5833 112.715 45.9993 118.805 49.5339L123.096 66.0287Z" fill="url(#paint18_linear_205_1425)"/>
<path d="M126.911 25.1737C129.856 26.0144 146.058 33.2357 132.044 61.7595C138.383 48.8557 140.869 30.3409 126.911 25.1737Z" fill="#00372D"/>
<path d="M109.67 32.0114L108.904 34.2205L110.42 34.8462L110.361 35.0288L108.473 34.2351L109.262 31.8448L109.67 32.0114Z" fill="#3D796F"/>
<path d="M107.805 37.0193L107.329 38.5399L108.867 39.1841L108.797 39.3694L106.899 38.5545L107.397 36.8527L107.805 37.0193Z" fill="#3D796F"/>
<path fill-rule="evenodd" clip-rule="evenodd" d="M108.625 29.6408L113.335 31.4965L113.534 32.7147L110.63 41.3388L109.646 42.2746L104.943 40.177L104.752 38.7168L105.553 36.0787L107.436 36.8694L106.904 38.5474L108.787 39.338L109.58 36.942L106.522 35.6269L106.069 34.8847L107.41 30.3266L108.625 29.6408ZM109.268 31.8424L108.475 34.2386L110.357 35.0289L111.151 32.6327L109.268 31.8424Z" fill="#75AFA6"/>
<path d="M110.289 40.9903L113.099 32.7427L112.835 31.3033L113.333 31.4981L113.538 32.7278L110.622 41.3374L109.644 42.2692L109.109 42.0426L110.289 40.9903Z" fill="#3D796F"/>
<path d="M85.0774 102.322C82.2276 103.503 79.1527 106.115 77.2206 108.93C75.4154 111.56 77.1638 115.05 79.3897 112.766C80.3521 111.778 81.4543 110.26 82.6812 108.058C83.6435 106.33 84.867 104.725 85.8371 103.557C86.6536 102.575 86.2577 101.833 85.0774 102.322Z" fill="#F8F8F8"/>
<ellipse cx="75.3077" cy="115.867" rx="1.23152" ry="1.25098" fill="#F8F8F8"/>
<rect width="5.18959" height="9.75156" transform="matrix(0.934447 0.355933 -0.344573 0.938821 86.1182 54.7908)" fill="#6CBB3C"/>
<rect width="5.60067" height="10.524" transform="matrix(0.934787 0.355041 -0.345447 0.938501 104.653 60.3289)" fill="#6CBB3C"/>
<defs>
<linearGradient id="paint0_linear_205_1425" x1="133.276" y1="83.5036" x2="94.1739" y2="86.5642" gradientUnits="userSpaceOnUse">
<stop offset="0.333333" stop-color="#ABABAB"/>
<stop offset="0.833333" stop-color="#B9B7B7" stop-opacity="0"/>
</linearGradient>
<radialGradient id="paint1_radial_205_1425" cx="0" cy="0" r="1" gradientUnits="userSpaceOnUse" gradientTransform="translate(71.3295 137.172) rotate(35.2195) scale(6.15506 8.90625)">
<stop stop-color="#005D4D"/>
<stop offset="0.776042" stop-color="#3D796F"/>
</radialGradient>
<radialGradient id="paint2_radial_205_1425" cx="0" cy="0" r="1" gradientUnits="userSpaceOnUse" gradientTransform="translate(68.4574 134.192) rotate(39.2513) scale(6.16158 8.89684)">
<stop stop-color="#005D4D"/>
<stop offset="0.776042" stop-color="#3D796F"/>
</radialGradient>
<radialGradient id="paint3_radial_205_1425" cx="0" cy="0" r="1" gradientUnits="userSpaceOnUse" gradientTransform="translate(66.0427 130.707) rotate(40.0608) scale(6.16292 8.89491)">
<stop stop-color="#005D4D"/>
<stop offset="0.776042" stop-color="#3D796F"/>
</radialGradient>
<radialGradient id="paint4_radial_205_1425" cx="0" cy="0" r="1" gradientUnits="userSpaceOnUse" gradientTransform="translate(64.5998 126.271) rotate(61.5025) scale(6.19772 8.84496)">
<stop stop-color="#005D4D"/>
<stop offset="0.776042" stop-color="#3D796F"/>
</radialGradient>
<radialGradient id="paint5_radial_205_1425" cx="0" cy="0" r="1" gradientUnits="userSpaceOnUse" gradientTransform="translate(65.2566 121.298) rotate(86.1325) scale(6.2197 8.8137)">
<stop stop-color="#005D4D"/>
<stop offset="0.776042" stop-color="#3D796F"/>
</radialGradient>
<radialGradient id="paint6_radial_205_1425" cx="0" cy="0" r="1" gradientUnits="userSpaceOnUse" gradientTransform="translate(66.9668 116.406) rotate(107.275) scale(6.21143 8.82543)">
<stop stop-color="#005D4D"/>
<stop offset="0.776042" stop-color="#3D796F"/>
</radialGradient>
<radialGradient id="paint7_radial_205_1425" cx="0" cy="0" r="1" gradientUnits="userSpaceOnUse" gradientTransform="translate(70.5664 111.423) rotate(122.789) scale(6.1913 8.85413)">
<stop stop-color="#005D4D"/>
<stop offset="0.776042" stop-color="#3D796F"/>
</radialGradient>
<linearGradient id="paint8_linear_205_1425" x1="123.551" y1="139.477" x2="96.1395" y2="132.306" gradientUnits="userSpaceOnUse">
<stop offset="0.102342" stop-color="#C8C8C8"/>
<stop offset="1" stop-color="#C4C4C4" stop-opacity="0"/>
</linearGradient>
<radialGradient id="paint9_radial_205_1425" cx="0" cy="0" r="1" gradientUnits="userSpaceOnUse" gradientTransform="translate(126.468 120.275) rotate(-145.098) scale(6.68762 9.67842)">
<stop stop-color="#005D4D"/>
<stop offset="0.776042" stop-color="#3D796F"/>
</radialGradient>
<radialGradient id="paint10_radial_205_1425" cx="0" cy="0" r="1" gradientUnits="userSpaceOnUse" gradientTransform="translate(129.605 123.496) rotate(-141.065) scale(6.69467 9.66822)">
<stop stop-color="#005D4D"/>
<stop offset="0.776042" stop-color="#3D796F"/>
</radialGradient>
<radialGradient id="paint11_radial_205_1425" cx="0" cy="0" r="1" gradientUnits="userSpaceOnUse" gradientTransform="translate(132.249 127.268) rotate(-140.255) scale(6.69613 9.66613)">
<stop stop-color="#005D4D"/>
<stop offset="0.776042" stop-color="#3D796F"/>
</radialGradient>
<radialGradient id="paint12_radial_205_1425" cx="0" cy="0" r="1" gradientUnits="userSpaceOnUse" gradientTransform="translate(133.844 132.079) rotate(-118.81) scale(6.73402 9.61173)">
<stop stop-color="#005D4D"/>
<stop offset="0.776042" stop-color="#3D796F"/>
</radialGradient>
<radialGradient id="paint13_radial_205_1425" cx="0" cy="0" r="1" gradientUnits="userSpaceOnUse" gradientTransform="translate(133.16 137.487) rotate(-94.178) scale(6.75832 9.57718)">
<stop stop-color="#005D4D"/>
<stop offset="0.776042" stop-color="#3D796F"/>
</radialGradient>
<radialGradient id="paint14_radial_205_1425" cx="0" cy="0" r="1" gradientUnits="userSpaceOnUse" gradientTransform="translate(131.33 142.813) rotate(-73.0364) scale(6.74974 9.58935)">
<stop stop-color="#005D4D"/>
<stop offset="0.776042" stop-color="#3D796F"/>
</radialGradient>
<radialGradient id="paint15_radial_205_1425" cx="0" cy="0" r="1" gradientUnits="userSpaceOnUse" gradientTransform="translate(127.448 148.249) rotate(-57.5239) scale(6.72806 9.62025)">
<stop stop-color="#005D4D"/>
<stop offset="0.776042" stop-color="#3D796F"/>
</radialGradient>
<linearGradient id="paint16_linear_205_1425" x1="110.603" y1="22" x2="113.398" y2="33.4704" gradientUnits="userSpaceOnUse">
<stop offset="0.0773366" stop-color="#3D796F"/>
<stop offset="0.964698" stop-color="#006857" stop-opacity="0"/>
</linearGradient>
<linearGradient id="paint17_linear_205_1425" x1="135.417" y1="56.826" x2="140.565" y2="62.553" gradientUnits="userSpaceOnUse">
<stop stop-color="#00372D" stop-opacity="0"/>
<stop offset="0.308563" stop-color="#00372D" stop-opacity="0.390925"/>
<stop offset="0.478055" stop-color="#00372D" stop-opacity="0.597563"/>
<stop offset="0.808558" stop-color="#00372D"/>
<stop offset="1" stop-color="#00372D"/>
</linearGradient>
<linearGradient id="paint18_linear_205_1425" x1="87.9729" y1="39.8558" x2="118.352" y2="55.3408" gradientUnits="userSpaceOnUse">
<stop stop-color="#3D796F"/>
<stop offset="1" stop-color="#3D796F" stop-opacity="0"/>
</linearGradient>
</defs>
</svg>
