<svg width="200" height="200" viewBox="0 0 200 200" fill="none" xmlns="http://www.w3.org/2000/svg">
<path d="M70.4917 121.821L59.5945 122.737L54.3232 125.265L53.711 135.778L67.7911 137.646L70.4917 121.821Z" fill="#005D4D"/>
<path d="M77.5244 74.5L60.0928 40.1208L124.501 59.0178L98.7969 78.1188C90.5694 80.864 79.1986 76.9125 77.5244 74.5Z" fill="#EEEEEE"/>
<path d="M124.794 59.0178C86.9764 67.1765 64.1282 46.92 59.7949 40.1211C59.7949 40.1211 64.1071 24.9149 75.1584 22.4238C95.2491 11.6255 133.835 2.44699 127.453 52.119C127.453 52.119 125.385 57.5181 124.794 59.0178Z" fill="#181818"/>
<path d="M123.318 35.5468C121.026 65.7288 93.4711 65.304 69.544 49.3278C64.598 46.0254 75.5117 22.3578 75.5117 22.3578L101.248 23.5951L123.318 35.5468Z" fill="black"/>
<path d="M95.8116 79.2071C91.9976 70.2734 87.5757 61.4989 85.3555 57.3925C102.334 62.8869 117.489 60.6523 124.734 59.0284C116.311 65.5373 98.7802 78.134 98.7802 78.134C98.7802 78.134 97.3491 78.9005 95.8116 79.2071Z" fill="url(#paint0_linear_205_1508)"/>
<path d="M71.3928 24.4187C68.4741 26.0415 65.4827 29.3166 63.8284 32.6208C62.3978 35.4782 64.5531 38.8055 66.5421 36.3045C67.4596 35.1509 68.4662 33.3694 69.5202 30.7722C70.3228 28.7947 71.4285 26.9149 72.3014 25.5619C72.9951 24.4865 72.5112 23.7969 71.3928 24.4187Z" fill="#646464"/>
<path d="M56.5438 118.061C56.961 119.601 58.5918 122.846 61.7779 123.5C65.7605 124.317 71.9832 116.24 69.0738 112.419C67.9262 110.911 66.4751 109.026 61.788 109.057C61.7562 109.053 61.737 109.053 61.7374 109.058C61.8886 111.394 61.5893 116.499 56.5438 118.061Z" fill="url(#paint1_radial_205_1508)"/>
<path d="M53.4785 114.736C53.7887 116.302 55.1926 119.655 58.3263 120.534C62.2435 121.632 69.0071 114.02 66.3673 110.001C65.326 108.416 64.008 106.432 59.3297 106.129C59.2982 106.123 59.2791 106.121 59.2791 106.126C59.2694 108.467 58.6196 113.538 53.4785 114.736Z" fill="url(#paint2_radial_205_1508)"/>
<path d="M51.0271 111.181C51.3156 112.752 52.6728 116.124 55.794 117.048C59.6955 118.202 66.5641 110.688 63.9803 106.631C62.9611 105.031 61.6707 103.029 56.9971 102.659C56.9657 102.652 56.9467 102.65 56.9466 102.655C56.9044 104.996 56.1843 110.057 51.0271 111.181Z" fill="url(#paint3_radial_205_1508)"/>
<path d="M49.0157 104.705C48.7169 106.273 48.7619 109.916 51.3323 111.937C54.5453 114.463 63.6492 110.028 62.71 105.292C62.3396 103.424 61.8619 101.081 57.6473 98.9976C57.6205 98.9794 57.6036 98.9704 57.6017 98.9752C56.7171 101.137 54.2197 105.578 49.0157 104.705Z" fill="url(#paint4_radial_205_1508)"/>
<path d="M49.9878 97.2968C49.0651 98.5912 47.5925 101.913 49.0834 104.846C50.9471 108.513 61.0443 108.39 62.1603 103.694C62.6004 101.841 63.1407 99.5125 60.1849 95.8185C60.1683 95.7906 60.1567 95.7751 60.1529 95.7786C58.4526 97.3603 54.3434 100.317 49.9878 97.2968Z" fill="url(#paint5_radial_205_1508)"/>
<path d="M52.7631 90.5852C51.4379 91.4472 48.8703 93.992 49.2009 97.2756C49.6141 101.38 59.0558 105.016 61.7866 101.06C62.8637 99.4993 64.2057 97.5326 62.786 92.9969C62.7806 92.9647 62.7753 92.946 62.7706 92.9478C60.6182 93.7883 55.7283 95.014 52.7631 90.5852Z" fill="url(#paint6_radial_205_1508)"/>
<path d="M57.5203 84.593C56.0151 85.0596 52.8659 86.8059 52.3107 90.058C51.6167 94.1232 59.7404 100.213 63.4221 97.1523C64.8743 95.9452 66.6896 94.4195 66.5292 89.6631C66.5326 89.6307 66.5325 89.6112 66.5274 89.6117C64.2314 89.8308 59.1972 89.6702 57.5203 84.593Z" fill="url(#paint7_radial_205_1508)"/>
<ellipse cx="65.3365" cy="83.2886" rx="10.0426" ry="10.1956" fill="#005D4D"/>
<path d="M67.6839 75.8872C68.0178 77.0249 66.1932 76.3381 64.0186 76.996C61.844 77.6538 60.1429 79.4072 59.8089 78.2694C59.475 77.1317 60.8281 75.7427 63.0027 75.0849C65.1773 74.427 67.3499 74.7495 67.6839 75.8872Z" fill="#75AFA6"/>
<path d="M58.4163 99.854C59.3617 88.5759 70.2343 80.1572 75.5525 77.3577C78.2409 75.9424 86.1875 82.9299 97.4158 80.0572C107.981 77.3542 109.234 93.555 108.348 99.854C107.461 111.752 104.034 138.368 97.4158 149.646C90.7977 160.924 83.6281 154.345 80.8706 149.646C72.9919 137.748 57.4709 111.132 58.4163 99.854Z" fill="#EEEEEE"/>
<ellipse rx="1.59843" ry="1.61995" transform="matrix(0.969865 0.243644 -0.2368 0.971558 81.3083 90.6234)" fill="#5697F9"/>
<ellipse rx="1.59843" ry="1.61995" transform="matrix(0.969865 0.243644 -0.2368 0.971558 84.5934 91.4479)" fill="#C751FF"/>
<ellipse rx="1.59843" ry="1.61995" transform="matrix(0.969865 0.243644 -0.2368 0.971558 87.8786 92.2731)" fill="#6CBB3C"/>
<ellipse rx="1.59843" ry="1.61995" transform="matrix(0.969865 0.243644 -0.2368 0.971558 91.1618 93.0981)" fill="#FFD600"/>
<path d="M91.5889 109.073C97.3869 98.6298 99.864 91.3182 95.3478 83.4909C92.1262 77.9071 106.858 80.7348 108.053 91.3182C108.596 135.857 95.4014 157.702 89.248 155.792C84.832 151.97 88.3874 114.84 91.5889 109.073Z" fill="url(#paint8_linear_205_1508)"/>
<path d="M121.388 127.104C116.657 128.473 114.215 124.736 113.586 122.696C112.484 124.519 110.033 129.412 114.313 131.479C118.063 133.289 120.375 129.667 121.388 127.104Z" fill="#005D4D"/>
<path d="M121.65 94.9738C121.187 93.3022 119.396 89.7864 115.93 89.0956C111.598 88.232 104.884 97.0457 108.068 101.181C109.324 102.812 110.911 104.851 116.004 104.789C116.039 104.793 116.06 104.793 116.059 104.788C115.881 102.25 116.176 96.701 121.65 94.9738Z" fill="url(#paint9_radial_205_1508)"/>
<path d="M125 98.5683C124.654 96.8682 123.109 93.2338 119.699 92.2977C115.436 91.1276 108.131 99.4402 111.023 103.791C112.164 105.508 113.608 107.655 118.693 107.956C118.727 107.963 118.748 107.964 118.748 107.959C118.745 105.415 119.421 99.9011 125 98.5683Z" fill="url(#paint10_radial_205_1508)"/>
<path d="M127.683 102.416C127.36 100.711 125.866 97.0547 122.469 96.0699C118.223 94.839 110.804 103.046 113.635 107.438C114.752 109.171 116.166 111.338 121.246 111.712C121.28 111.719 121.301 111.722 121.301 111.716C121.333 109.172 122.086 103.669 127.683 102.416Z" fill="url(#paint11_radial_205_1508)"/>
<path d="M129.905 109.441C130.22 107.735 130.15 103.777 127.345 101.597C123.839 98.871 113.973 103.746 115.021 108.886C115.435 110.913 115.968 113.456 120.56 115.695C120.589 115.714 120.607 115.724 120.609 115.719C121.558 113.364 124.245 108.524 129.905 109.441Z" fill="url(#paint12_radial_205_1508)"/>
<path d="M128.894 117.496C129.889 116.084 131.469 112.465 129.832 109.287C127.785 105.315 116.814 105.51 115.63 110.619C115.162 112.635 114.589 115.168 117.822 119.164C117.841 119.195 117.853 119.211 117.857 119.208C119.696 117.479 124.143 114.241 128.894 117.496Z" fill="url(#paint13_radial_205_1508)"/>
<path d="M125.917 124.806C127.352 123.861 130.127 121.08 129.748 117.515C129.275 113.057 118.994 109.164 116.05 113.479C114.889 115.181 113.442 117.326 115.012 122.246C115.018 122.281 115.024 122.302 115.029 122.299C117.363 121.373 122.669 120.012 125.917 124.806Z" fill="url(#paint14_radial_205_1508)"/>
<path d="M120.785 131.346C122.418 130.83 125.829 128.913 126.413 125.376C127.144 120.954 118.281 114.387 114.298 117.735C112.727 119.055 110.764 120.724 110.966 125.891C110.963 125.927 110.963 125.948 110.968 125.947C113.462 125.695 118.933 125.839 120.785 131.346Z" fill="url(#paint15_radial_205_1508)"/>
<ellipse cx="106.945" cy="92.0269" rx="11.5369" ry="11.7126" fill="#005D4D"/>
<path d="M103.277 100.914C102.847 99.6223 105.648 99.4199 110.644 97.6174C114.746 96.137 116.162 92.6985 116.592 93.9907C117.022 95.2828 115.177 100.236 110.644 101.79C108.174 102.637 103.707 102.207 103.277 100.914Z" fill="#00372D" fill-opacity="0.390925"/>
<ellipse rx="2.15547" ry="0.943057" transform="matrix(0.942998 0.332799 -0.323616 0.946188 115.743 2.83694)" fill="#75AFA6"/>
<path fill-rule="evenodd" clip-rule="evenodd" d="M75.7175 17.9079C76.0709 15.6947 78.5722 10.1601 86.2088 3.92268C96.092 -4.14969 133.393 1.66241 134.668 21.0361C135.689 36.5351 129.355 50.5272 126.06 55.5859C126.329 51.3941 125.326 45.6235 121.96 39.861L117.679 43.0562C115.843 44.4265 113.313 44.3605 111.488 42.9757C87.8146 25.014 66.4096 23.5176 54.8793 25.9067C53.0569 26.2843 51.9755 24.7401 53.5309 23.7179C57.4178 21.1634 64.3882 18.4907 75.7175 17.9079Z" fill="#004B3F"/>
<path d="M99.5672 21.9259C93.5738 18.5953 79.7302 16.999 76.0186 16.8713C82.5951 2.16566 93.6066 -4.11145 115.512 2.8232C123.57 9.15306 100.888 15.7308 99.5672 21.9259Z" fill="url(#paint16_linear_205_1508)"/>
<path d="M112.326 29.1896C96.4901 18.8713 81.5721 17.7227 75.7227 17.9016C75.755 17.604 75.9558 16.9268 75.9558 16.9268C92.2647 16.9268 107.205 24.7903 112.326 29.1896Z" fill="#00372D"/>
<path d="M126.225 55.3581C126.484 52.0684 124.151 43.3178 122.045 39.7979L134.415 24.5789C135.698 29.966 132.252 45.2587 126.225 55.3581Z" fill="url(#paint17_linear_205_1508)"/>
<path d="M113.093 44.0024C92.8541 25.1037 67.9097 20.9036 51.6768 25.2128C57.0119 20.1497 68.8629 17.9883 75.7146 17.8542C90.081 17.5729 102.713 23.985 108.802 27.5175L113.093 44.0024Z" fill="url(#paint18_linear_205_1508)"/>
<path d="M116.908 3.17175C119.853 4.01199 136.054 11.229 122.04 39.7357C128.38 26.8396 130.865 8.33586 116.908 3.17175Z" fill="#00372D"/>
<path d="M99.6664 10.0052L98.8996 12.213L100.416 12.8383L100.357 13.0208L98.4692 12.2276L99.2584 9.83868L99.6664 10.0052Z" fill="#3D796F"/>
<path d="M97.8029 15.0103L97.3275 16.53L98.8651 17.1738L98.795 17.359L96.8971 16.5445L97.3949 14.8438L97.8029 15.0103Z" fill="#3D796F"/>
<path fill-rule="evenodd" clip-rule="evenodd" d="M98.6226 7.63614L103.333 9.49083L103.532 10.7083L100.628 19.3272L99.644 20.2625L94.9418 18.1659L94.7506 16.7065L95.5517 14.0701L97.4342 14.8603L96.9027 16.5373L98.7852 17.3276L99.5784 14.933L96.5204 13.6186L96.0674 12.8768L97.4078 8.32142L98.6226 7.63614ZM99.2665 9.83638L98.4727 12.2311L100.355 13.0209L101.149 10.6262L99.2665 9.83638Z" fill="#75AFA6"/>
<path d="M100.285 18.9788L103.095 10.7362L102.831 9.29763L103.329 9.4923L103.534 10.7213L100.618 19.3258L99.6401 20.257L99.1051 20.0305L100.285 18.9788Z" fill="#3D796F"/>
<path d="M75.0761 80.2741C72.2278 81.4535 69.1545 84.0623 67.2223 86.8743C65.4148 89.505 67.164 92.9944 69.3909 90.7091C70.3528 89.722 71.4541 88.2059 72.68 86.0065C73.6422 84.2803 74.8654 82.6762 75.8354 81.5095C76.6521 80.5272 76.2565 79.7854 75.0761 80.2741Z" fill="#F8F8F8"/>
<ellipse cx="65.3067" cy="93.8111" rx="1.23148" ry="1.25023" fill="#F8F8F8"/>
<path d="M102.65 127.681L113.547 128.597L118.818 131.126L119.431 141.638L105.351 143.506L102.65 127.681Z" fill="#005D4D"/>
<path d="M72.4815 37.1868L71.0552 36.459L71.7489 34.9451L73.2948 35.715L73.8302 34.596L75.4729 35.4382L76.0067 34.335L78.2109 35.4659L77.7173 36.6143L79.6518 37.5954L79.1962 38.6543L80.4588 39.2831L79.8094 40.7798L78.4215 40.0982L72.4815 37.1868Z" fill="#6CBB3C"/>
<path d="M90.6259 45.2685L88.8319 44.6469L89.3988 42.7557L91.3402 43.4073L91.7858 42.0057L93.8526 42.7263L94.299 41.3435L97.0723 42.3114L96.6806 43.7405L99.1127 44.5765L98.7508 45.8944L100.336 46.4266L99.8186 48.2902L98.0774 47.7166L90.6259 45.2685Z" fill="#6CBB3C"/>
<ellipse cx="87.1441" cy="180.222" rx="24.1441" ry="4.22229" fill="#C2C9E0"/>
<defs>
<linearGradient id="paint0_linear_205_1508" x1="123.271" y1="61.4667" x2="84.1712" y2="64.5289" gradientUnits="userSpaceOnUse">
<stop offset="0.333333" stop-color="#ABABAB"/>
<stop offset="0.833333" stop-color="#B9B7B7" stop-opacity="0"/>
</linearGradient>
<radialGradient id="paint1_radial_205_1508" cx="0" cy="0" r="1" gradientUnits="userSpaceOnUse" gradientTransform="translate(61.3323 115.101) rotate(35.2077) scale(6.15239 8.90445)">
<stop stop-color="#005D4D"/>
<stop offset="0.776042" stop-color="#3D796F"/>
</radialGradient>
<radialGradient id="paint2_radial_205_1508" cx="0" cy="0" r="1" gradientUnits="userSpaceOnUse" gradientTransform="translate(58.4594 112.125) rotate(39.2355) scale(6.15998 8.89353)">
<stop stop-color="#005D4D"/>
<stop offset="0.776042" stop-color="#3D796F"/>
</radialGradient>
<radialGradient id="paint3_radial_205_1508" cx="0" cy="0" r="1" gradientUnits="userSpaceOnUse" gradientTransform="translate(56.0437 108.642) rotate(40.0449) scale(6.16127 8.89167)">
<stop stop-color="#005D4D"/>
<stop offset="0.776042" stop-color="#3D796F"/>
</radialGradient>
<radialGradient id="paint4_radial_205_1508" cx="0" cy="0" r="1" gradientUnits="userSpaceOnUse" gradientTransform="translate(54.5999 104.209) rotate(61.489) scale(6.19481 8.84352)">
<stop stop-color="#005D4D"/>
<stop offset="0.776042" stop-color="#3D796F"/>
</radialGradient>
<radialGradient id="paint5_radial_205_1508" cx="0" cy="0" r="1" gradientUnits="userSpaceOnUse" gradientTransform="translate(55.2569 99.2387) rotate(86.1303) scale(6.216 8.81337)">
<stop stop-color="#005D4D"/>
<stop offset="0.776042" stop-color="#3D796F"/>
</radialGradient>
<radialGradient id="paint6_radial_205_1508" cx="0" cy="0" r="1" gradientUnits="userSpaceOnUse" gradientTransform="translate(56.9671 94.3496) rotate(107.284) scale(6.20803 8.82468)">
<stop stop-color="#005D4D"/>
<stop offset="0.776042" stop-color="#3D796F"/>
</radialGradient>
<radialGradient id="paint7_radial_205_1508" cx="0" cy="0" r="1" gradientUnits="userSpaceOnUse" gradientTransform="translate(60.5667 89.3701) rotate(122.804) scale(6.18862 8.85236)">
<stop stop-color="#005D4D"/>
<stop offset="0.776042" stop-color="#3D796F"/>
</radialGradient>
<linearGradient id="paint8_linear_205_1508" x1="113.548" y1="117.407" x2="86.1395" y2="110.232" gradientUnits="userSpaceOnUse">
<stop offset="0.102342" stop-color="#C8C8C8"/>
<stop offset="1" stop-color="#C4C4C4" stop-opacity="0"/>
</linearGradient>
<radialGradient id="paint9_radial_205_1508" cx="0" cy="0" r="1" gradientUnits="userSpaceOnUse" gradientTransform="translate(116.464 98.2188) rotate(-145.109) scale(6.68472 9.67645)">
<stop stop-color="#005D4D"/>
<stop offset="0.776042" stop-color="#3D796F"/>
</radialGradient>
<radialGradient id="paint10_radial_205_1508" cx="0" cy="0" r="1" gradientUnits="userSpaceOnUse" gradientTransform="translate(119.603 101.435) rotate(-141.081) scale(6.69295 9.6646)">
<stop stop-color="#005D4D"/>
<stop offset="0.776042" stop-color="#3D796F"/>
</radialGradient>
<radialGradient id="paint11_radial_205_1508" cx="0" cy="0" r="1" gradientUnits="userSpaceOnUse" gradientTransform="translate(122.247 105.205) rotate(-140.271) scale(6.69435 9.66258)">
<stop stop-color="#005D4D"/>
<stop offset="0.776042" stop-color="#3D796F"/>
</radialGradient>
<radialGradient id="paint12_radial_205_1508" cx="0" cy="0" r="1" gradientUnits="userSpaceOnUse" gradientTransform="translate(123.84 110.014) rotate(-118.824) scale(6.73088 9.61014)">
<stop stop-color="#005D4D"/>
<stop offset="0.776042" stop-color="#3D796F"/>
</radialGradient>
<radialGradient id="paint13_radial_205_1508" cx="0" cy="0" r="1" gradientUnits="userSpaceOnUse" gradientTransform="translate(123.157 115.418) rotate(-94.1803) scale(6.7543 9.57682)">
<stop stop-color="#005D4D"/>
<stop offset="0.776042" stop-color="#3D796F"/>
</radialGradient>
<radialGradient id="paint14_radial_205_1508" cx="0" cy="0" r="1" gradientUnits="userSpaceOnUse" gradientTransform="translate(121.327 120.741) rotate(-73.0274) scale(6.74604 9.58855)">
<stop stop-color="#005D4D"/>
<stop offset="0.776042" stop-color="#3D796F"/>
</radialGradient>
<radialGradient id="paint15_radial_205_1508" cx="0" cy="0" r="1" gradientUnits="userSpaceOnUse" gradientTransform="translate(117.447 126.173) rotate(-57.5093) scale(6.72514 9.61835)">
<stop stop-color="#005D4D"/>
<stop offset="0.776042" stop-color="#3D796F"/>
</radialGradient>
<linearGradient id="paint16_linear_205_1508" x1="100.601" y1="-1.11937e-06" x2="103.392" y2="11.4643" gradientUnits="userSpaceOnUse">
<stop offset="0.0773366" stop-color="#3D796F"/>
<stop offset="0.964698" stop-color="#006857" stop-opacity="0"/>
</linearGradient>
<linearGradient id="paint17_linear_205_1508" x1="125.414" y1="34.8052" x2="130.558" y2="40.5317" gradientUnits="userSpaceOnUse">
<stop stop-color="#00372D" stop-opacity="0"/>
<stop offset="0.308563" stop-color="#00372D" stop-opacity="0.390925"/>
<stop offset="0.478055" stop-color="#00372D" stop-opacity="0.597563"/>
<stop offset="0.808558" stop-color="#00372D"/>
<stop offset="1" stop-color="#00372D"/>
</linearGradient>
<linearGradient id="paint18_linear_205_1508" x1="77.971" y1="17.8452" x2="108.342" y2="33.3348" gradientUnits="userSpaceOnUse">
<stop stop-color="#3D796F"/>
<stop offset="1" stop-color="#3D796F" stop-opacity="0"/>
</linearGradient>
</defs>
</svg>
