<svg width="200" height="200" viewBox="0 0 200 200" fill="none" xmlns="http://www.w3.org/2000/svg">
<g clip-path="url(#clip0_205_1508)">
<path d="M76.7046 143.77L63.8441 144.851L57.6229 147.835L56.9005 160.242L73.5175 162.446L76.7046 143.77Z" fill="#005D4D"/>
<path d="M85.005 87.9232L64.4326 47.3497L140.446 69.6515L110.11 92.194C100.4 95.4339 86.9809 90.7704 85.005 87.9232Z" fill="#EEEEEE"/>
<path d="M140.793 69.6515C96.161 79.2802 69.1961 55.3739 64.082 47.35C64.082 47.35 69.1712 29.404 82.2136 26.464C105.924 13.7201 151.462 2.88786 143.931 61.5096C143.931 61.5096 141.49 67.8815 140.793 69.6515Z" fill="#181818"/>
<path d="M139.051 41.9515C136.346 77.5716 103.827 77.0703 75.5882 58.2155C69.7511 54.3181 82.6312 26.3861 82.6312 26.3861L113.004 27.8464L139.051 41.9515Z" fill="black"/>
<path d="M106.588 93.4784C102.087 82.9351 96.8683 72.5796 94.248 67.7333C114.286 74.2177 132.171 71.5805 140.722 69.664C130.781 77.3457 110.092 92.2119 110.092 92.2119C110.092 92.2119 108.403 93.1166 106.588 93.4784Z" fill="url(#paint0_linear_205_1508)"/>
<path d="M78.1665 28.6064C74.3632 30.5575 70.3765 34.9886 68.4634 39.3008C67.1676 42.2217 69.2664 45.8344 71.4655 43.5161C72.698 42.2167 74.0898 39.939 75.5599 36.3167C76.5838 33.7937 78.0259 31.4054 79.0869 29.7918C79.7899 28.7225 79.3051 28.0223 78.1665 28.6064Z" fill="#646464"/>
<path d="M60.2425 139.333C60.7347 141.151 62.6594 144.98 66.4196 145.752C71.1198 146.716 78.4637 137.184 75.03 132.674C73.6756 130.895 71.9631 128.671 66.4315 128.707C66.3939 128.702 66.3713 128.702 66.3717 128.708C66.5503 131.465 66.197 137.49 60.2425 139.333Z" fill="url(#paint1_radial_205_1508)"/>
<path d="M56.6255 135.408C56.9916 137.257 58.6484 141.214 62.3468 142.251C66.9697 143.548 74.952 134.564 71.8365 129.82C70.6076 127.95 69.0521 125.609 63.531 125.251C63.4938 125.243 63.4713 125.241 63.4712 125.247C63.4597 128.01 62.6929 133.995 56.6255 135.408Z" fill="url(#paint2_radial_205_1508)"/>
<path d="M53.7319 131.213C54.0723 133.067 55.6741 137.047 59.3577 138.137C63.9622 139.5 72.0683 130.631 69.0189 125.843C67.8162 123.955 66.2933 121.592 60.7776 121.156C60.7405 121.148 60.718 121.145 60.7179 121.151C60.6681 123.914 59.8183 129.887 53.7319 131.213Z" fill="url(#paint3_radial_205_1508)"/>
<path d="M51.3591 123.57C51.0065 125.421 51.0596 129.72 54.0931 132.105C57.885 135.087 68.6292 129.852 67.5208 124.263C67.0836 122.059 66.5199 119.294 61.5459 116.835C61.5144 116.813 61.4944 116.802 61.4921 116.808C60.4481 119.36 57.5008 124.601 51.3591 123.57Z" fill="url(#paint4_radial_205_1508)"/>
<path d="M52.5063 114.827C51.4174 116.355 49.6795 120.276 51.439 123.737C53.6385 128.064 65.555 127.919 66.872 122.377C67.3915 120.191 68.0291 117.442 64.5408 113.083C64.5211 113.05 64.5074 113.032 64.503 113.036C62.4963 114.902 57.6467 118.392 52.5063 114.827Z" fill="url(#paint5_radial_205_1508)"/>
<path d="M55.7817 106.906C54.2178 107.924 51.1876 110.927 51.5777 114.802C52.0654 119.646 63.2082 123.937 66.4311 119.268C67.7023 117.427 69.2861 115.106 67.6106 109.753C67.6042 109.715 67.598 109.693 67.5924 109.695C65.0522 110.687 59.2812 112.133 55.7817 106.906Z" fill="url(#paint6_radial_205_1508)"/>
<path d="M61.3972 99.8346C59.6208 100.385 55.9042 102.446 55.249 106.284C54.43 111.082 64.0173 118.268 68.3624 114.657C70.0763 113.232 72.2186 111.432 72.0294 105.818C72.0333 105.78 72.0332 105.757 72.0273 105.758C69.3175 106.016 63.3763 105.827 61.3972 99.8346Z" fill="url(#paint7_radial_205_1508)"/>
<ellipse cx="70.6225" cy="98.2954" rx="11.852" ry="12.0326" fill="#005D4D"/>
<path d="M73.3921 89.5604C73.7862 90.9032 71.6329 90.0926 69.0665 90.869C66.5001 91.6453 64.4924 93.7146 64.0983 92.3719C63.7042 91.0292 65.3011 89.3899 67.8675 88.6136C70.434 87.8372 72.9981 88.2177 73.3921 89.5604Z" fill="#75AFA6"/>
<path d="M62.455 117.845C63.5708 104.535 76.4024 94.5997 82.6787 91.2957C85.8515 89.6255 95.2299 97.872 108.481 94.4817C120.95 91.2916 122.429 110.412 121.383 117.845C120.337 131.887 116.292 163.299 108.481 176.609C100.671 189.919 92.2094 182.155 88.955 176.609C79.6568 162.567 61.3392 131.156 62.455 117.845Z" fill="#EEEEEE"/>
<ellipse rx="1.88643" ry="1.91182" transform="matrix(0.969865 0.243644 -0.2368 0.971558 89.4706 106.952)" fill="#5697F9"/>
<ellipse rx="1.88643" ry="1.91182" transform="matrix(0.969865 0.243644 -0.2368 0.971558 93.3476 107.925)" fill="#C751FF"/>
<ellipse rx="1.88643" ry="1.91182" transform="matrix(0.969865 0.243644 -0.2368 0.971558 97.2245 108.899)" fill="#6CBB3C"/>
<ellipse rx="1.88643" ry="1.91182" transform="matrix(0.969865 0.243644 -0.2368 0.971558 101.1 109.872)" fill="#FFD600"/>
<path d="M101.605 128.726C108.448 116.401 111.371 107.772 106.041 98.534C102.239 91.9442 119.626 95.2813 121.035 107.772C121.676 160.335 106.104 186.117 98.8421 183.862C93.6305 179.351 97.8265 135.531 101.605 128.726Z" fill="url(#paint8_linear_205_1508)"/>
<path d="M136.773 150.006C131.189 151.621 128.307 147.21 127.565 144.803C126.263 146.954 123.372 152.73 128.423 155.168C132.849 157.305 135.577 153.031 136.773 150.006Z" fill="#005D4D"/>
<path d="M137.081 112.086C136.535 110.113 134.422 105.964 130.331 105.149C125.218 104.129 117.295 114.531 121.052 119.411C122.534 121.336 124.408 123.743 130.419 123.669C130.46 123.674 130.484 123.675 130.484 123.668C130.273 120.673 130.622 114.124 137.081 112.086Z" fill="url(#paint9_radial_205_1508)"/>
<path d="M141.035 116.328C140.626 114.322 138.803 110.032 134.778 108.928C129.747 107.547 121.127 117.357 124.54 122.492C125.886 124.518 127.59 127.052 133.591 127.407C133.632 127.415 133.656 127.417 133.656 127.411C133.653 124.408 134.451 117.901 141.035 116.328Z" fill="url(#paint10_radial_205_1508)"/>
<path d="M144.201 120.869C143.821 118.857 142.057 114.542 138.048 113.38C133.037 111.927 124.281 121.613 127.622 126.796C128.94 128.841 130.609 131.399 136.605 131.84C136.645 131.849 136.67 131.851 136.67 131.845C136.708 128.842 137.596 122.347 144.201 120.869Z" fill="url(#paint11_radial_205_1508)"/>
<path d="M146.824 129.16C147.197 127.146 147.114 122.475 143.803 119.902C139.666 116.685 128.022 122.438 129.259 128.505C129.747 130.897 130.376 133.898 135.795 136.54C135.83 136.563 135.851 136.575 135.854 136.569C136.973 133.79 140.145 128.077 146.824 129.16Z" fill="url(#paint12_radial_205_1508)"/>
<path d="M145.63 138.666C146.804 137 148.669 132.729 146.737 128.978C144.322 124.29 131.374 124.52 129.976 130.55C129.424 132.929 128.748 135.919 132.564 140.635C132.585 140.671 132.6 140.69 132.605 140.686C134.774 138.645 140.023 134.824 145.63 138.666Z" fill="url(#paint13_radial_205_1508)"/>
<path d="M142.117 147.293C143.81 146.178 147.085 142.896 146.639 138.688C146.08 133.428 133.947 128.833 130.473 133.926C129.102 135.934 127.395 138.466 129.247 144.272C129.254 144.314 129.261 144.338 129.267 144.335C132.022 143.242 138.284 141.635 142.117 147.293Z" fill="url(#paint14_radial_205_1508)"/>
<path d="M136.059 155.011C137.986 154.402 142.013 152.14 142.702 147.966C143.564 142.748 133.104 134.997 128.404 138.948C126.55 140.506 124.233 142.476 124.471 148.574C124.467 148.616 124.468 148.641 124.474 148.64C127.417 148.343 133.874 148.512 136.059 155.011Z" fill="url(#paint15_radial_205_1508)"/>
<ellipse cx="119.727" cy="108.608" rx="13.6155" ry="13.8229" fill="#005D4D"/>
<path d="M115.398 119.097C114.891 117.572 118.197 117.333 124.092 115.206C128.934 113.459 130.605 109.401 131.112 110.926C131.619 112.451 129.442 118.296 124.092 120.13C121.177 121.129 115.905 120.622 115.398 119.097Z" fill="#00372D" fill-opacity="0.390925"/>
<ellipse rx="2.54384" ry="1.11297" transform="matrix(0.942998 0.332799 -0.323616 0.946188 130.111 3.34804)" fill="#75AFA6"/>
<path fill-rule="evenodd" clip-rule="evenodd" d="M82.8734 21.1344C83.2905 18.5223 86.2425 11.9906 95.255 4.62937C106.919 -4.89746 150.941 1.96186 152.446 24.8262C153.65 43.1178 146.175 59.6309 142.287 65.6011C142.603 60.654 141.42 53.8437 137.447 47.043L131.833 51.2337C129.997 52.6041 127.468 52.5414 125.65 51.147C96.8238 29.0345 70.7763 27.6615 57.3301 30.783C55.5172 31.2038 54.3718 29.6353 55.8815 28.5469C60.2812 25.375 68.6781 21.8646 82.8734 21.1344Z" fill="#004B3F"/>
<path d="M111.02 25.8765C103.947 21.9458 87.6089 20.0619 83.2285 19.9111C90.9901 2.55586 103.986 -4.85224 129.838 3.33188C139.347 10.8022 112.579 18.5651 111.02 25.8765Z" fill="url(#paint16_linear_205_1508)"/>
<path d="M126.078 34.4489C107.388 22.2715 89.7823 20.9159 82.8789 21.1271C82.917 20.7758 83.154 19.9766 83.154 19.9766C102.401 19.9766 120.034 29.257 126.078 34.4489Z" fill="#00372D"/>
<path d="M142.481 65.3324C142.787 61.45 140.034 51.1228 137.548 46.9686L152.146 29.0075C153.661 35.3652 149.594 53.4134 142.481 65.3324Z" fill="url(#paint17_linear_205_1508)"/>
<path d="M126.983 51.9306C103.098 29.6267 73.6587 24.6699 54.501 29.7555C60.7974 23.7801 74.7836 21.2293 82.8698 21.071C99.8247 20.739 114.732 28.3064 121.919 32.4754L126.983 51.9306Z" fill="url(#paint18_linear_205_1508)"/>
<path d="M131.485 3.74329C134.961 4.73492 154.081 13.2522 137.542 46.8952C145.024 31.6755 147.957 9.83784 131.485 3.74329Z" fill="#00372D"/>
<path d="M111.137 11.808L110.232 14.4136L112.022 15.1516L111.952 15.367L109.724 14.4308L110.656 11.6115L111.137 11.808Z" fill="#3D796F"/>
<path d="M108.937 17.7148L108.376 19.5083L110.191 20.2681L110.108 20.4866L107.868 19.5255L108.455 17.5183L108.937 17.7148Z" fill="#3D796F"/>
<path fill-rule="evenodd" clip-rule="evenodd" d="M109.904 9.01222L115.463 11.2011L115.698 12.6379L112.271 22.8098L111.11 23.9135L105.56 21.4392L105.335 19.7169L106.28 16.6054L108.502 17.538L107.874 19.5172L110.096 20.4498L111.032 17.6238L107.423 16.0726L106.889 15.1971L108.471 9.82096L109.904 9.01222ZM110.664 11.6088L109.727 14.435L111.949 15.3671L112.885 12.5409L110.664 11.6088Z" fill="#75AFA6"/>
<path d="M111.867 22.3985L115.184 12.6707L114.872 10.973L115.459 11.2027L115.701 12.6531L112.26 22.8079L111.106 23.9069L110.474 23.6396L111.867 22.3985Z" fill="#3D796F"/>
<path d="M82.5341 94.5725C78.8114 95.9658 74.6749 99.5339 72.3631 103.267C70.6825 105.981 72.3549 109.753 74.7643 107.661C76.0426 106.551 77.5603 104.602 79.2877 101.503C80.5209 99.2903 82.1175 97.2477 83.3001 95.8518C84.1258 94.8771 83.7307 94.1246 82.5341 94.5725Z" fill="#F8F8F8"/>
<ellipse cx="70.5862" cy="110.714" rx="1.45336" ry="1.4755" fill="#F8F8F8"/>
<path d="M114.658 150.687L127.518 151.768L133.739 154.752L134.462 167.158L117.845 169.363L114.658 150.687Z" fill="#005D4D"/>
<path d="M79.0546 43.8872L77.3713 43.0282L78.1899 41.2415L80.0144 42.1502L80.6462 40.8295L82.585 41.8235L83.215 40.5214L85.8163 41.8562L85.2338 43.2114L87.5168 44.3693L86.9791 45.619L88.4692 46.3612L87.7028 48.1276L86.0648 47.3231L79.0546 43.8872Z" fill="#6CBB3C"/>
<path d="M100.467 53.4248L98.3498 52.6912L99.0188 50.4593L101.31 51.2282L101.836 49.5741L104.275 50.4246L104.802 48.7927L108.075 49.9349L107.613 51.6216L110.483 52.6082L110.056 54.1635L111.927 54.7916L111.316 56.991L109.261 56.314L100.467 53.4248Z" fill="#6CBB3C"/>
<ellipse cx="98.1441" cy="196.222" rx="24.1441" ry="4.22229" fill="#C2C9E0"/>
</g>
<defs>
<linearGradient id="paint0_linear_205_1508" x1="138.996" y1="72.5416" x2="92.8504" y2="76.1556" gradientUnits="userSpaceOnUse">
<stop offset="0.333333" stop-color="#ABABAB"/>
<stop offset="0.833333" stop-color="#B9B7B7" stop-opacity="0"/>
</linearGradient>
<radialGradient id="paint1_radial_205_1508" cx="0" cy="0" r="1" gradientUnits="userSpaceOnUse" gradientTransform="translate(65.8937 135.84) rotate(35.2077) scale(7.26091 10.5088)">
<stop stop-color="#005D4D"/>
<stop offset="0.776042" stop-color="#3D796F"/>
</radialGradient>
<radialGradient id="paint2_radial_205_1508" cx="0" cy="0" r="1" gradientUnits="userSpaceOnUse" gradientTransform="translate(62.5038 132.327) rotate(39.2355) scale(7.26986 10.4959)">
<stop stop-color="#005D4D"/>
<stop offset="0.776042" stop-color="#3D796F"/>
</radialGradient>
<radialGradient id="paint3_radial_205_1508" cx="0" cy="0" r="1" gradientUnits="userSpaceOnUse" gradientTransform="translate(59.6524 128.216) rotate(40.0449) scale(7.27139 10.4937)">
<stop stop-color="#005D4D"/>
<stop offset="0.776042" stop-color="#3D796F"/>
</radialGradient>
<radialGradient id="paint4_radial_205_1508" cx="0" cy="0" r="1" gradientUnits="userSpaceOnUse" gradientTransform="translate(57.9495 122.985) rotate(61.489) scale(7.31098 10.4369)">
<stop stop-color="#005D4D"/>
<stop offset="0.776042" stop-color="#3D796F"/>
</radialGradient>
<radialGradient id="paint5_radial_205_1508" cx="0" cy="0" r="1" gradientUnits="userSpaceOnUse" gradientTransform="translate(58.7248 117.119) rotate(86.1303) scale(7.33599 10.4013)">
<stop stop-color="#005D4D"/>
<stop offset="0.776042" stop-color="#3D796F"/>
</radialGradient>
<radialGradient id="paint6_radial_205_1508" cx="0" cy="0" r="1" gradientUnits="userSpaceOnUse" gradientTransform="translate(60.7432 111.349) rotate(107.284) scale(7.32658 10.4147)">
<stop stop-color="#005D4D"/>
<stop offset="0.776042" stop-color="#3D796F"/>
</radialGradient>
<radialGradient id="paint7_radial_205_1508" cx="0" cy="0" r="1" gradientUnits="userSpaceOnUse" gradientTransform="translate(64.9925 105.472) rotate(122.804) scale(7.30367 10.4474)">
<stop stop-color="#005D4D"/>
<stop offset="0.776042" stop-color="#3D796F"/>
</radialGradient>
<linearGradient id="paint8_linear_205_1508" x1="127.521" y1="138.561" x2="95.1736" y2="130.094" gradientUnits="userSpaceOnUse">
<stop offset="0.102342" stop-color="#C8C8C8"/>
<stop offset="1" stop-color="#C4C4C4" stop-opacity="0"/>
</linearGradient>
<radialGradient id="paint9_radial_205_1508" cx="0" cy="0" r="1" gradientUnits="userSpaceOnUse" gradientTransform="translate(130.961 115.916) rotate(-145.109) scale(7.88915 11.4199)">
<stop stop-color="#005D4D"/>
<stop offset="0.776042" stop-color="#3D796F"/>
</radialGradient>
<radialGradient id="paint10_radial_205_1508" cx="0" cy="0" r="1" gradientUnits="userSpaceOnUse" gradientTransform="translate(134.666 119.712) rotate(-141.081) scale(7.89887 11.4059)">
<stop stop-color="#005D4D"/>
<stop offset="0.776042" stop-color="#3D796F"/>
</radialGradient>
<radialGradient id="paint11_radial_205_1508" cx="0" cy="0" r="1" gradientUnits="userSpaceOnUse" gradientTransform="translate(137.786 124.161) rotate(-140.271) scale(7.90052 11.4036)">
<stop stop-color="#005D4D"/>
<stop offset="0.776042" stop-color="#3D796F"/>
</radialGradient>
<radialGradient id="paint12_radial_205_1508" cx="0" cy="0" r="1" gradientUnits="userSpaceOnUse" gradientTransform="translate(139.667 129.835) rotate(-118.824) scale(7.94363 11.3417)">
<stop stop-color="#005D4D"/>
<stop offset="0.776042" stop-color="#3D796F"/>
</radialGradient>
<radialGradient id="paint13_radial_205_1508" cx="0" cy="0" r="1" gradientUnits="userSpaceOnUse" gradientTransform="translate(138.859 136.214) rotate(-94.1803) scale(7.97127 11.3023)">
<stop stop-color="#005D4D"/>
<stop offset="0.776042" stop-color="#3D796F"/>
</radialGradient>
<radialGradient id="paint14_radial_205_1508" cx="0" cy="0" r="1" gradientUnits="userSpaceOnUse" gradientTransform="translate(136.7 142.496) rotate(-73.0274) scale(7.96152 11.3162)">
<stop stop-color="#005D4D"/>
<stop offset="0.776042" stop-color="#3D796F"/>
</radialGradient>
<radialGradient id="paint15_radial_205_1508" cx="0" cy="0" r="1" gradientUnits="userSpaceOnUse" gradientTransform="translate(132.12 148.907) rotate(-57.5093) scale(7.93685 11.3514)">
<stop stop-color="#005D4D"/>
<stop offset="0.776042" stop-color="#3D796F"/>
</radialGradient>
<linearGradient id="paint16_linear_205_1508" x1="112.24" y1="-1.32105e-06" x2="115.534" y2="13.5299" gradientUnits="userSpaceOnUse">
<stop offset="0.0773366" stop-color="#3D796F"/>
<stop offset="0.964698" stop-color="#006857" stop-opacity="0"/>
</linearGradient>
<linearGradient id="paint17_linear_205_1508" x1="141.524" y1="41.0764" x2="147.595" y2="47.8346" gradientUnits="userSpaceOnUse">
<stop stop-color="#00372D" stop-opacity="0"/>
<stop offset="0.308563" stop-color="#00372D" stop-opacity="0.390925"/>
<stop offset="0.478055" stop-color="#00372D" stop-opacity="0.597563"/>
<stop offset="0.808558" stop-color="#00372D"/>
<stop offset="1" stop-color="#00372D"/>
</linearGradient>
<linearGradient id="paint18_linear_205_1508" x1="85.5328" y1="21.0604" x2="121.376" y2="39.3408" gradientUnits="userSpaceOnUse">
<stop stop-color="#3D796F"/>
<stop offset="1" stop-color="#3D796F" stop-opacity="0"/>
</linearGradient>
<clipPath id="clip0_205_1508">
<rect width="200" height="200" fill="white"/>
</clipPath>
</defs>
</svg>
