<svg width="393" height="115" viewBox="0 0 393 115" fill="none" xmlns="http://www.w3.org/2000/svg">
<path d="M141.997 95.7527C140.29 95.7527 138.924 95.287 137.899 94.3557C136.89 93.4088 136.386 92.1281 136.386 90.5137H139.669C139.669 91.3365 139.871 91.9807 140.274 92.4463C140.693 92.912 141.268 93.1449 141.997 93.1449C142.711 93.1449 143.27 92.9043 143.674 92.4231C144.093 91.9263 144.302 91.2045 144.302 90.2576C144.302 89.3883 144.093 88.7286 143.674 88.2784C143.255 87.8283 142.704 87.6032 142.021 87.6032C141.555 87.6032 141.159 87.7041 140.833 87.9059C140.507 88.1077 140.212 88.3793 139.948 88.7208L136.921 88.3483L137.55 79.5002H146.794V82.3409H140.367L140.158 85.8802C140.53 85.6473 140.934 85.461 141.369 85.3213C141.803 85.1661 142.331 85.0885 142.952 85.0885C144.318 85.0885 145.428 85.5309 146.282 86.4157C147.151 87.285 147.586 88.5656 147.586 90.2576C147.586 91.9962 147.089 93.3467 146.095 94.3091C145.102 95.2715 143.736 95.7527 141.997 95.7527Z" fill="#303030"/>
<path d="M140.076 112.436C138.804 112.436 137.818 112.091 137.119 111.4C136.421 110.701 136.072 109.669 136.072 108.303C136.072 106.937 136.421 105.909 137.119 105.218C137.818 104.519 138.804 104.17 140.076 104.17C141.357 104.17 142.347 104.519 143.045 105.218C143.744 105.909 144.093 106.937 144.093 108.303C144.093 109.669 143.744 110.701 143.045 111.4C142.347 112.091 141.357 112.436 140.076 112.436ZM140.076 111.342C141.869 111.342 142.766 110.356 142.766 108.385V108.245C142.758 106.258 141.862 105.265 140.076 105.265C138.299 105.265 137.407 106.258 137.399 108.245V108.385C137.399 110.356 138.291 111.342 140.076 111.342Z" fill="#303030"/>
<path d="M148.682 112.436C148.278 112.436 147.91 112.355 147.576 112.192C147.25 112.029 146.99 111.792 146.796 111.481H146.714L146.598 112.296H145.643V103.879H146.842V106.871H146.912C147.3 106.312 147.917 106.033 148.763 106.033C149.485 106.033 150.056 106.301 150.475 106.836C150.894 107.364 151.103 108.163 151.103 109.234C151.103 110.321 150.894 111.128 150.475 111.656C150.056 112.176 149.458 112.436 148.682 112.436ZM148.344 111.423C148.895 111.423 149.287 111.26 149.52 110.934C149.753 110.608 149.869 110.065 149.869 109.304V109.2C149.869 108.423 149.753 107.872 149.52 107.546C149.287 107.213 148.895 107.046 148.344 107.046C147.824 107.046 147.444 107.228 147.203 107.593C146.963 107.958 146.842 108.497 146.842 109.211V109.304C146.842 110.003 146.963 110.531 147.203 110.888C147.444 111.245 147.824 111.423 148.344 111.423Z" fill="#303030"/>
<path d="M154.76 112.436C153.922 112.436 153.281 112.261 152.839 111.912C152.404 111.563 152.187 111.124 152.187 110.597C152.187 110.511 152.187 110.457 152.187 110.434C152.195 110.403 152.199 110.383 152.199 110.375H153.374V110.48C153.374 110.814 153.51 111.066 153.782 111.237C154.054 111.4 154.399 111.481 154.818 111.481C155.191 111.481 155.501 111.412 155.749 111.272C156.006 111.132 156.134 110.934 156.134 110.678C156.134 110.476 156.064 110.313 155.924 110.189C155.784 110.057 155.614 109.956 155.412 109.886C155.21 109.809 154.919 109.72 154.539 109.619C154.073 109.502 153.693 109.386 153.398 109.269C153.103 109.153 152.851 108.978 152.641 108.746C152.439 108.513 152.338 108.202 152.338 107.814C152.338 107.255 152.567 106.821 153.025 106.51C153.483 106.192 154.092 106.033 154.853 106.033C155.326 106.033 155.738 106.107 156.087 106.254C156.444 106.394 156.716 106.592 156.902 106.848C157.096 107.104 157.193 107.391 157.193 107.709L157.181 107.942H156.006V107.861C156.006 107.605 155.901 107.399 155.691 107.244C155.489 107.081 155.175 106.999 154.748 106.999C154.337 106.999 154.034 107.073 153.84 107.22C153.654 107.36 153.561 107.527 153.561 107.721C153.561 107.962 153.677 108.14 153.91 108.257C154.143 108.373 154.512 108.489 155.016 108.606C155.505 108.722 155.905 108.843 156.215 108.967C156.526 109.083 156.793 109.269 157.018 109.526C157.244 109.774 157.356 110.108 157.356 110.527C157.356 111.179 157.119 111.66 156.646 111.97C156.18 112.281 155.552 112.436 154.76 112.436Z" fill="#303030"/>
<path d="M161.389 112.436C160.404 112.436 159.67 112.176 159.189 111.656C158.708 111.136 158.467 110.329 158.467 109.234C158.467 108.14 158.708 107.333 159.189 106.813C159.67 106.293 160.404 106.033 161.389 106.033C162.282 106.033 162.949 106.277 163.392 106.766C163.834 107.248 164.055 108.016 164.055 109.071V109.537H159.701C159.732 110.197 159.88 110.686 160.144 111.004C160.415 111.315 160.834 111.47 161.401 111.47C161.843 111.47 162.2 111.365 162.472 111.155C162.744 110.946 162.88 110.624 162.88 110.189H164.055C164.055 110.919 163.807 111.478 163.31 111.866C162.821 112.246 162.181 112.436 161.389 112.436ZM162.81 108.629C162.81 107.542 162.336 106.999 161.389 106.999C160.862 106.999 160.466 107.131 160.202 107.395C159.938 107.651 159.779 108.063 159.725 108.629H162.81Z" fill="#303030"/>
<path d="M165.528 106.173H166.494L166.611 107.116H166.681C166.96 106.394 167.43 106.033 168.089 106.033C168.307 106.033 168.497 106.064 168.66 106.126V107.267H168.229C167.771 107.267 167.406 107.399 167.135 107.663C166.863 107.927 166.727 108.33 166.727 108.874V112.296H165.528V106.173Z" fill="#303030"/>
<path d="M169.189 106.173H170.446L171.494 109.106C171.634 109.494 171.824 110.127 172.065 111.004H172.123C172.348 110.174 172.538 109.541 172.693 109.106L173.729 106.173H174.929L172.67 112.296H171.447L169.189 106.173Z" fill="#303030"/>
<path d="M177.681 112.436C177.177 112.436 176.719 112.312 176.307 112.064C175.904 111.815 175.702 111.365 175.702 110.713C175.702 109.929 176.043 109.386 176.726 109.083C177.409 108.78 178.387 108.629 179.66 108.629V108.024C179.66 107.69 179.571 107.438 179.393 107.267C179.222 107.088 178.9 106.999 178.426 106.999C177.968 106.999 177.642 107.081 177.448 107.244C177.262 107.407 177.169 107.605 177.169 107.837V107.989H176.005C175.997 107.942 175.993 107.857 175.993 107.733C175.993 107.197 176.218 106.782 176.668 106.487C177.118 106.184 177.72 106.033 178.473 106.033C179.264 106.033 179.858 106.196 180.254 106.522C180.658 106.848 180.859 107.31 180.859 107.907V111.039C180.859 111.179 180.898 111.284 180.976 111.353C181.053 111.415 181.15 111.447 181.267 111.447H181.686V112.25C181.484 112.351 181.209 112.401 180.859 112.401C180.58 112.401 180.343 112.327 180.149 112.18C179.963 112.025 179.839 111.815 179.777 111.551H179.695C179.478 111.831 179.198 112.048 178.857 112.203C178.523 112.358 178.131 112.436 177.681 112.436ZM178.03 111.458C178.488 111.458 178.873 111.322 179.183 111.051C179.501 110.771 179.66 110.391 179.66 109.91V109.537C178.775 109.537 178.1 109.615 177.635 109.77C177.169 109.917 176.936 110.201 176.936 110.62C176.936 110.907 177.025 111.121 177.204 111.26C177.39 111.392 177.666 111.458 178.03 111.458Z" fill="#303030"/>
<path d="M184.276 112.424C183.811 112.424 183.473 112.293 183.264 112.029C183.054 111.757 182.949 111.423 182.949 111.027V107.162H182.204V106.173H182.961L183.194 104.461H184.148V106.173H185.184V107.162H184.148V110.911C184.148 111.268 184.315 111.447 184.649 111.447H185.184V112.261C185.084 112.308 184.944 112.347 184.765 112.378C184.595 112.409 184.432 112.424 184.276 112.424Z" fill="#303030"/>
<path d="M186.486 103.879H187.673V105.102H186.486V103.879ZM186.486 106.173H187.685V112.296H186.486V106.173Z" fill="#303030"/>
<path d="M192.052 112.436C191.081 112.436 190.352 112.176 189.863 111.656C189.382 111.128 189.141 110.321 189.141 109.234C189.141 108.148 189.382 107.345 189.863 106.825C190.352 106.297 191.081 106.033 192.052 106.033C193.022 106.033 193.751 106.297 194.24 106.825C194.729 107.345 194.974 108.148 194.974 109.234C194.974 110.321 194.729 111.128 194.24 111.656C193.751 112.176 193.022 112.436 192.052 112.436ZM192.052 111.447C192.641 111.447 193.068 111.276 193.332 110.934C193.604 110.585 193.74 110.038 193.74 109.293V109.176C193.74 108.431 193.604 107.888 193.332 107.546C193.068 107.197 192.641 107.022 192.052 107.022C191.469 107.022 191.043 107.197 190.771 107.546C190.507 107.888 190.375 108.431 190.375 109.176V109.293C190.375 110.038 190.507 110.585 190.771 110.934C191.043 111.276 191.469 111.447 192.052 111.447Z" fill="#303030"/>
<path d="M196.43 106.173H197.396L197.513 106.988H197.594C197.811 106.677 198.091 106.44 198.432 106.277C198.782 106.114 199.174 106.033 199.608 106.033C200.904 106.033 201.552 106.735 201.552 108.14V112.296H200.353V108.291C200.353 107.834 200.249 107.515 200.039 107.337C199.837 107.151 199.538 107.057 199.143 107.057C198.871 107.057 198.619 107.127 198.386 107.267C198.153 107.399 197.967 107.589 197.827 107.837C197.695 108.086 197.629 108.373 197.629 108.699V112.296H196.43V106.173Z" fill="#303030"/>
<path d="M205.547 112.436C204.708 112.436 204.068 112.261 203.626 111.912C203.191 111.563 202.974 111.124 202.974 110.597C202.974 110.511 202.974 110.457 202.974 110.434C202.981 110.403 202.985 110.383 202.985 110.375H204.161V110.48C204.161 110.814 204.297 111.066 204.569 111.237C204.84 111.4 205.186 111.481 205.605 111.481C205.977 111.481 206.288 111.412 206.536 111.272C206.792 111.132 206.92 110.934 206.92 110.678C206.92 110.476 206.851 110.313 206.711 110.189C206.571 110.057 206.4 109.956 206.199 109.886C205.997 109.809 205.706 109.72 205.325 109.619C204.86 109.502 204.479 109.386 204.184 109.269C203.89 109.153 203.637 108.978 203.428 108.746C203.226 108.513 203.125 108.202 203.125 107.814C203.125 107.255 203.354 106.821 203.812 106.51C204.27 106.192 204.879 106.033 205.64 106.033C206.113 106.033 206.525 106.107 206.874 106.254C207.231 106.394 207.502 106.592 207.689 106.848C207.883 107.104 207.98 107.391 207.98 107.709L207.968 107.942H206.792V107.861C206.792 107.605 206.688 107.399 206.478 107.244C206.276 107.081 205.962 106.999 205.535 106.999C205.124 106.999 204.821 107.073 204.627 107.22C204.441 107.36 204.347 107.527 204.347 107.721C204.347 107.962 204.464 108.14 204.697 108.257C204.93 108.373 205.298 108.489 205.803 108.606C206.292 108.722 206.691 108.843 207.002 108.967C207.312 109.083 207.58 109.269 207.805 109.526C208.03 109.774 208.143 110.108 208.143 110.527C208.143 111.179 207.906 111.66 207.433 111.97C206.967 112.281 206.338 112.436 205.547 112.436Z" fill="#303030"/>
<path d="M296.121 92.8654H299.87V83.3654H296.098V81.3862C296.796 81.3086 297.65 81.0913 298.659 80.7342C299.684 80.3772 300.6 79.9659 301.407 79.5002H303.06V92.8654H306.483V95.4732H296.121V92.8654Z" fill="#303030"/>
<path d="M313.842 95.7527C312.011 95.7527 310.598 95.3258 309.605 94.472C308.611 93.6027 308.115 92.4308 308.115 90.9561V90.537H311.351V91.0259C311.351 91.7089 311.561 92.2367 311.98 92.6093C312.399 92.9663 313.004 93.1448 313.796 93.1448C314.51 93.1448 315.077 92.9663 315.496 92.6093C315.915 92.2367 316.124 91.6857 316.124 90.9561C316.124 90.1023 315.891 89.5047 315.426 89.1632C314.96 88.8217 314.339 88.6509 313.563 88.6509H312.376V86.0431H313.633C314.269 86.0431 314.789 85.8568 315.193 85.4843C315.597 85.0962 315.798 84.5374 315.798 83.8078C315.798 83.1403 315.62 82.6436 315.263 82.3176C314.921 81.9916 314.432 81.8286 313.796 81.8286C313.128 81.8286 312.608 81.9994 312.236 82.3409C311.863 82.6668 311.677 83.1558 311.677 83.8078V84.2502H308.44V83.5982C308.44 82.7289 308.666 81.9683 309.116 81.3164C309.566 80.6489 310.187 80.1366 310.978 79.7796C311.786 79.407 312.702 79.2208 313.726 79.2208C315.356 79.2208 316.652 79.6011 317.615 80.3617C318.592 81.1223 319.081 82.2012 319.081 83.5982C319.081 84.483 318.856 85.2126 318.406 85.787C317.972 86.3458 317.358 86.8115 316.567 87.184V87.2771C317.436 87.541 318.127 88.0067 318.639 88.6742C319.151 89.3417 319.407 90.1799 319.407 91.1889C319.407 92.1203 319.167 92.9352 318.686 93.6338C318.22 94.3168 317.568 94.8446 316.73 95.2171C315.891 95.5741 314.929 95.7527 313.842 95.7527Z" fill="#303030"/>
<path d="M346.086 24.6199C353.626 24.6199 359.739 30.7324 359.739 38.2725C359.739 45.8126 353.626 51.925 346.086 51.925C338.546 51.925 332.433 45.8126 332.433 38.2725C332.433 30.7324 338.546 24.6199 346.086 24.6199ZM361.725 53.1044L355.64 51.5831C349.247 56.1815 341.498 55.1553 336.532 51.5831L330.447 53.1044C326.8 54.016 324.242 57.2925 324.242 61.0513V64.2123C324.242 66.4744 326.076 68.3081 328.338 68.3081H363.834C366.096 68.3081 367.93 66.4744 367.93 64.2123V61.0513C367.93 57.2925 365.372 54.016 361.725 53.1044V53.1044Z" fill="#297467"/>
<path fill-rule="evenodd" clip-rule="evenodd" d="M361.82 1.52081C359.141 1.52081 356.969 3.69264 356.969 6.37172V25.8555C356.969 28.5346 359.141 30.7064 361.82 30.7064H366.545L362.499 35.4966C362.152 35.9066 362.63 36.4922 363.101 36.2358L373.267 30.7064H387.941C390.62 30.7064 392.792 28.5346 392.792 25.8555V6.37172C392.792 3.69264 390.62 1.52081 387.941 1.52081H361.82ZM373.313 9.32192C373.313 8.45602 374.015 7.75407 374.881 7.75407C375.746 7.75407 376.448 8.45602 376.448 9.32192V18.52C376.448 19.3859 375.746 20.0878 374.881 20.0878C374.015 20.0878 373.313 19.3859 373.313 18.52V9.32192ZM374.881 20.8045C374.015 20.8045 373.313 21.5065 373.313 22.3724V22.6321C373.313 23.498 374.015 24.2 374.881 24.2C375.746 24.2 376.448 23.498 376.448 22.6321V22.3724C376.448 21.5065 375.746 20.8045 374.881 20.8045Z" fill="#297467"/>
<path d="M310.694 18.1693C316.408 18.1693 321.04 22.801 321.04 28.5146C321.04 34.2282 316.408 38.8599 310.694 38.8599C304.981 38.8599 300.349 34.2282 300.349 28.5146C300.349 22.801 304.981 18.1693 310.694 18.1693ZM322.545 39.7536L317.934 38.6008C313.09 42.0853 307.218 41.3077 303.455 38.6008L298.844 39.7536C296.08 40.4444 294.142 42.9271 294.142 45.7754V48.1707C294.142 49.8848 295.531 51.2743 297.245 51.2743H324.143C325.857 51.2743 327.247 49.8848 327.247 48.1707V45.7754C327.247 42.9271 325.308 40.4444 322.545 39.7536V39.7536Z" fill="#297467"/>
<path fill-rule="evenodd" clip-rule="evenodd" d="M318.942 5.51673C318.942 2.83765 321.113 0.665833 323.793 0.665833H341.235C343.914 0.665833 346.086 2.83766 346.086 5.51674V17.9305C346.086 20.6096 343.914 22.7814 341.235 22.7814H331.143C331.102 22.8545 331.038 22.9191 330.95 22.9668L324.138 26.6723C323.666 26.9287 323.189 26.3431 323.535 25.9331L326.198 22.7814H323.793C321.113 22.7814 318.942 20.6096 318.942 17.9305V5.51673ZM332.514 15.2782C331.858 15.2782 331.326 15.8101 331.326 16.4662V16.6631C331.326 17.3192 331.858 17.8511 332.514 17.8511C333.17 17.8511 333.702 17.3192 333.702 16.6631V16.4662C333.702 15.8101 333.17 15.2782 332.514 15.2782ZM335.364 16.4662C335.364 15.8101 335.896 15.2782 336.552 15.2782C337.208 15.2782 337.74 15.8101 337.74 16.4662V16.6631C337.74 17.3192 337.208 17.8511 336.552 17.8511C335.896 17.8511 335.364 17.3192 335.364 16.6631V16.4662ZM328.476 15.2782C327.82 15.2782 327.288 15.8101 327.288 16.4662V16.6631C327.288 17.3192 327.82 17.8511 328.476 17.8511C329.132 17.8511 329.664 17.3192 329.664 16.6631V16.4662C329.664 15.8101 329.132 15.2782 328.476 15.2782Z" fill="#297467"/>
<path d="M295.12 104.31H296.412V112.296H295.12V104.31Z" fill="#303030"/>
<path d="M298.416 106.173H299.382L299.499 106.987H299.58C299.798 106.677 300.077 106.44 300.419 106.277C300.768 106.114 301.16 106.033 301.594 106.033C302.891 106.033 303.539 106.735 303.539 108.14V112.296H302.34V108.291C302.34 107.833 302.235 107.515 302.025 107.337C301.823 107.15 301.525 107.057 301.129 107.057C300.857 107.057 300.605 107.127 300.372 107.267C300.139 107.399 299.953 107.589 299.813 107.837C299.681 108.086 299.615 108.373 299.615 108.699V112.296H298.416V106.173Z" fill="#303030"/>
<path d="M306.799 112.424C306.334 112.424 305.996 112.292 305.787 112.029C305.577 111.757 305.472 111.423 305.472 111.027V107.162H304.727V106.173H305.484L305.717 104.461H306.671V106.173H307.707V107.162H306.671V110.911C306.671 111.268 306.838 111.446 307.172 111.446H307.707V112.261C307.607 112.308 307.467 112.347 307.288 112.378C307.118 112.409 306.955 112.424 306.799 112.424Z" fill="#303030"/>
<path d="M311.581 112.436C310.596 112.436 309.862 112.176 309.381 111.656C308.9 111.136 308.659 110.329 308.659 109.234C308.659 108.14 308.9 107.333 309.381 106.813C309.862 106.293 310.596 106.033 311.581 106.033C312.474 106.033 313.142 106.277 313.584 106.766C314.026 107.247 314.248 108.016 314.248 109.071V109.537H309.893C309.924 110.197 310.072 110.686 310.336 111.004C310.607 111.314 311.027 111.47 311.593 111.47C312.036 111.47 312.393 111.365 312.664 111.155C312.936 110.946 313.072 110.624 313.072 110.189H314.248C314.248 110.919 313.999 111.477 313.502 111.866C313.013 112.246 312.373 112.436 311.581 112.436ZM313.002 108.629C313.002 107.542 312.528 106.999 311.581 106.999C311.054 106.999 310.658 107.131 310.394 107.395C310.13 107.651 309.971 108.062 309.917 108.629H313.002Z" fill="#303030"/>
<path d="M315.72 106.173H316.687L316.803 107.116H316.873C317.152 106.394 317.622 106.033 318.282 106.033C318.499 106.033 318.689 106.064 318.852 106.126V107.267H318.421C317.963 107.267 317.599 107.399 317.327 107.663C317.055 107.927 316.919 108.33 316.919 108.874V112.296H315.72V106.173Z" fill="#303030"/>
<path d="M319.381 106.173H320.638L321.686 109.106C321.826 109.494 322.016 110.127 322.257 111.004H322.315C322.54 110.174 322.73 109.541 322.885 109.106L323.921 106.173H325.121L322.862 112.296H321.64L319.381 106.173Z" fill="#303030"/>
<path d="M326.29 103.879H327.477V105.101H326.29V103.879ZM326.29 106.173H327.489V112.296H326.29V106.173Z" fill="#303030"/>
<path d="M331.891 112.436C330.905 112.436 330.172 112.176 329.69 111.656C329.209 111.136 328.969 110.329 328.969 109.234C328.969 108.14 329.209 107.333 329.69 106.813C330.172 106.293 330.905 106.033 331.891 106.033C332.783 106.033 333.451 106.277 333.893 106.766C334.336 107.247 334.557 108.016 334.557 109.071V109.537H330.203C330.234 110.197 330.381 110.686 330.645 111.004C330.917 111.314 331.336 111.47 331.903 111.47C332.345 111.47 332.702 111.365 332.974 111.155C333.245 110.946 333.381 110.624 333.381 110.189H334.557C334.557 110.919 334.309 111.477 333.812 111.866C333.323 112.246 332.683 112.436 331.891 112.436ZM333.311 108.629C333.311 107.542 332.838 106.999 331.891 106.999C331.363 106.999 330.967 107.131 330.703 107.395C330.439 107.651 330.28 108.062 330.226 108.629H333.311Z" fill="#303030"/>
<path d="M335.296 106.173H336.53L337.392 109.351L337.753 110.888H337.799L338.125 109.351L338.882 106.173H340.244L341.036 109.362C341.106 109.611 341.218 110.119 341.373 110.888H341.432C341.595 110.166 341.711 109.657 341.781 109.362L342.619 106.173H343.783L341.944 112.296H340.663L339.837 108.862L339.557 107.581H339.511C339.402 108.171 339.313 108.598 339.243 108.862L338.416 112.296H337.124L335.296 106.173Z" fill="#303030"/>
<path d="M347.079 112.436C346.241 112.436 345.601 112.261 345.158 111.912C344.724 111.563 344.506 111.124 344.506 110.597C344.506 110.511 344.506 110.457 344.506 110.434C344.514 110.403 344.518 110.383 344.518 110.375H345.694V110.48C345.694 110.814 345.83 111.066 346.101 111.237C346.373 111.4 346.718 111.481 347.137 111.481C347.51 111.481 347.82 111.412 348.069 111.272C348.325 111.132 348.453 110.934 348.453 110.678C348.453 110.476 348.383 110.313 348.243 110.189C348.104 110.057 347.933 109.956 347.731 109.886C347.529 109.809 347.238 109.72 346.858 109.619C346.392 109.502 346.012 109.386 345.717 109.269C345.422 109.153 345.17 108.978 344.96 108.745C344.758 108.513 344.658 108.202 344.658 107.814C344.658 107.255 344.887 106.821 345.344 106.51C345.802 106.192 346.412 106.033 347.172 106.033C347.646 106.033 348.057 106.107 348.406 106.254C348.763 106.394 349.035 106.592 349.221 106.848C349.415 107.104 349.512 107.391 349.512 107.709L349.501 107.942H348.325V107.861C348.325 107.605 348.22 107.399 348.01 107.244C347.809 107.081 347.494 106.999 347.067 106.999C346.656 106.999 346.353 107.073 346.159 107.22C345.973 107.36 345.88 107.527 345.88 107.721C345.88 107.962 345.996 108.14 346.229 108.256C346.462 108.373 346.831 108.489 347.335 108.606C347.824 108.722 348.224 108.842 348.534 108.967C348.845 109.083 349.113 109.269 349.338 109.525C349.563 109.774 349.675 110.108 349.675 110.527C349.675 111.179 349.439 111.66 348.965 111.97C348.499 112.281 347.871 112.436 347.079 112.436Z" fill="#303030"/>
<path fill-rule="evenodd" clip-rule="evenodd" d="M208.958 41.8664C208.917 41.9943 208.819 42.2625 208.595 42.6914C208.209 43.428 207.586 44.3795 206.706 45.4874C204.952 47.6967 202.344 50.3147 199.069 52.8207C192.484 57.8601 183.59 62.1582 173.97 62.1582C164.364 62.1582 155.474 57.8021 148.879 52.7228C145.602 50.1981 142.989 47.5673 141.228 45.3629C140.345 44.2572 139.719 43.3119 139.333 42.5869C139.093 42.1381 139.001 41.8773 138.967 41.777C138.998 41.6197 139.095 41.2516 139.39 40.6448C139.772 39.8596 140.386 38.882 141.255 37.7661C142.989 35.5377 145.575 32.9689 148.838 30.5348C155.388 25.6483 164.296 21.5746 173.97 21.5746C183.59 21.5746 192.484 25.8727 199.069 30.9121C202.344 33.4181 204.952 36.0361 206.706 38.2453C207.586 39.3532 208.209 40.3048 208.595 41.0414C208.819 41.4703 208.917 41.7385 208.958 41.8664ZM173.97 65.5635C195.19 65.5635 212.392 46.6932 212.392 41.8664C212.392 37.0396 195.19 18.1693 173.97 18.1693C152.75 18.1693 135.548 35.9663 135.548 41.8664C135.548 46.4146 152.75 65.5635 173.97 65.5635Z" fill="#3D796F"/>
<path fill-rule="evenodd" clip-rule="evenodd" d="M173.97 65.5635C187.058 65.5635 197.667 54.9539 197.667 41.8664C197.667 28.7789 187.058 18.1693 173.97 18.1693C160.882 18.1693 150.273 28.7789 150.273 41.8664C150.273 54.9539 160.882 65.5635 173.97 65.5635ZM173.97 61.5996C184.868 61.5996 193.703 52.7647 193.703 41.8664C193.703 30.968 184.868 22.1332 173.97 22.1332C163.072 22.1332 154.237 30.968 154.237 41.8664C154.237 52.7647 163.072 61.5996 173.97 61.5996Z" fill="#3D796F"/>
<path fill-rule="evenodd" clip-rule="evenodd" d="M187.033 40.0471C186.087 40.4295 185.053 40.64 183.969 40.64C179.45 40.64 175.786 36.9762 175.786 32.4568C175.786 31.1966 176.071 30.0029 176.58 28.9366C175.736 28.7673 174.863 28.6784 173.97 28.6784C166.686 28.6784 160.782 34.5828 160.782 41.8663C160.782 49.1498 166.686 55.0542 173.97 55.0542C181.253 55.0542 187.158 49.1498 187.158 41.8663C187.158 41.2491 187.115 40.6418 187.033 40.0471Z" fill="#3D796F"/>
<path d="M1.27393 94.6351C1.27393 93.7503 1.46796 92.9586 1.85603 92.2601C2.24411 91.546 2.71756 90.9251 3.27638 90.3973C3.85073 89.8695 4.59583 89.2719 5.51168 88.6044C6.30335 87.999 6.92426 87.4945 7.37443 87.0909C7.84011 86.6873 8.22819 86.2449 8.53864 85.7637C8.92672 85.1583 9.12075 84.4753 9.12075 83.7147C9.12075 83.218 8.93448 82.7833 8.56193 82.4108C8.2049 82.0227 7.68488 81.8287 7.00188 81.8287C5.46511 81.8287 4.69673 82.566 4.69673 84.0407V84.9953H1.53005C1.46796 84.7159 1.43692 84.4055 1.43692 84.064C1.43692 82.4496 1.97246 81.2388 3.04354 80.4316C4.13014 79.6244 5.49615 79.2208 7.14158 79.2208C8.58521 79.2208 9.6951 79.5002 10.4712 80.0591C11.2474 80.6179 11.7519 81.2466 11.9847 81.9451C12.2331 82.6436 12.3573 83.2956 12.3573 83.901C12.3573 84.9721 12.1167 85.9267 11.6355 86.765C11.1543 87.5877 10.5799 88.2862 9.91242 88.8605C9.26046 89.4194 8.44551 90.0325 7.46756 90.7C6.72246 91.2123 6.16364 91.6314 5.79109 91.9574C5.5272 92.1902 5.33316 92.4153 5.20898 92.6326H12.4504V95.4733H1.27393V94.6351Z" fill="#303030"/>
<path d="M4.1262 112.436C3.16378 112.436 2.37211 112.238 1.7512 111.842C1.13028 111.439 0.819824 110.829 0.819824 110.014L0.831466 109.77H2.11211C2.09658 109.879 2.08882 109.956 2.08882 110.003C2.08882 110.437 2.27122 110.771 2.636 111.004C3.00079 111.229 3.49364 111.342 4.11456 111.342C4.79757 111.342 5.3137 111.241 5.66297 111.039C6.01223 110.837 6.18687 110.546 6.18687 110.166C6.18687 109.894 6.08985 109.673 5.89581 109.502C5.70954 109.324 5.46893 109.184 5.174 109.083C4.88682 108.974 4.49487 108.854 3.99814 108.722C3.36946 108.559 2.85332 108.4 2.44973 108.245C2.05389 108.082 1.71627 107.849 1.43686 107.546C1.15745 107.236 1.01774 106.832 1.01774 106.336C1.01774 105.629 1.3088 105.094 1.8909 104.729C2.47301 104.356 3.22975 104.17 4.16113 104.17C5.07698 104.17 5.8182 104.36 6.38478 104.741C6.95913 105.121 7.24631 105.691 7.24631 106.452V106.592H5.98895V106.44C5.98895 106.068 5.82208 105.781 5.48834 105.579C5.15459 105.369 4.71995 105.264 4.18441 105.264C3.61007 105.264 3.15214 105.35 2.81064 105.521C2.47689 105.691 2.31002 105.94 2.31002 106.266C2.31002 106.506 2.40316 106.708 2.58944 106.871C2.77571 107.026 3.00855 107.154 3.28797 107.255C3.56738 107.356 3.94769 107.469 4.4289 107.593C5.08086 107.764 5.60476 107.927 6.00059 108.082C6.40419 108.237 6.74957 108.47 7.03675 108.78C7.32392 109.083 7.46751 109.483 7.46751 109.98C7.46751 110.833 7.16869 111.458 6.57106 111.854C5.97343 112.242 5.15848 112.436 4.1262 112.436Z" fill="#303030"/>
<path d="M10.9814 112.436C9.68525 112.436 9.03717 111.734 9.03717 110.329V106.173H10.2363V110.177C10.2363 110.635 10.3372 110.957 10.539 111.144C10.7486 111.322 11.0513 111.412 11.4471 111.412C11.7187 111.412 11.971 111.346 12.2038 111.214C12.4367 111.074 12.6191 110.88 12.751 110.632C12.8907 110.383 12.9606 110.096 12.9606 109.77V106.173H14.1597V112.296H13.1934L13.077 111.481H12.9955C12.7704 111.792 12.4871 112.029 12.1456 112.192C11.8041 112.355 11.4161 112.436 10.9814 112.436Z" fill="#303030"/>
<path d="M15.9884 106.173H16.9547L17.0711 107.116H17.141C17.4204 106.394 17.89 106.033 18.5497 106.033C18.767 106.033 18.9572 106.064 19.1202 106.126V107.267H18.6894C18.2315 107.267 17.8667 107.399 17.595 107.663C17.3234 107.927 17.1876 108.33 17.1876 108.874V112.296H15.9884V106.173Z" fill="#303030"/>
<path d="M19.6492 106.173H20.9066L21.9544 109.106C22.0941 109.494 22.2842 110.127 22.5248 111.004H22.5831C22.8081 110.174 22.9983 109.541 23.1535 109.106L24.1897 106.173H25.3888L23.1302 112.296H21.9078L19.6492 106.173Z" fill="#303030"/>
<path d="M29.131 112.436C28.1453 112.436 27.4119 112.176 26.9306 111.656C26.4494 111.136 26.2088 110.329 26.2088 109.234C26.2088 108.14 26.4494 107.333 26.9306 106.813C27.4119 106.293 28.1453 106.033 29.131 106.033C30.0236 106.033 30.6911 106.277 31.1335 106.766C31.5759 107.248 31.7971 108.016 31.7971 109.071V109.537H27.4429C27.4739 110.197 27.6214 110.686 27.8853 111.004C28.157 111.315 28.5761 111.47 29.1427 111.47C29.5851 111.47 29.9421 111.365 30.2137 111.155C30.4854 110.946 30.6212 110.624 30.6212 110.189H31.7971C31.7971 110.919 31.5487 111.478 31.052 111.866C30.563 112.246 29.9227 112.436 29.131 112.436ZM30.5514 108.629C30.5514 107.542 30.0779 106.999 29.131 106.999C28.6032 106.999 28.2074 107.131 27.9435 107.395C27.6796 107.651 27.5205 108.062 27.4662 108.629H30.5514Z" fill="#303030"/>
<path d="M33.9567 114.415C33.5764 114.415 33.2775 114.376 33.0602 114.299V113.507H33.5725C34.2788 113.507 34.7522 113.104 34.9928 112.296L32.6178 106.173H33.8752L35.0161 109.176C35.1713 109.572 35.3693 110.181 35.6099 111.004H35.6681C35.8854 110.228 36.0639 109.619 36.2036 109.176L37.1583 106.173H38.3574L36.3317 111.982C36.0523 112.758 35.7379 113.356 35.3887 113.775C35.0394 114.202 34.5621 114.415 33.9567 114.415Z" fill="#303030"/>
<path d="M41.7271 112.436C40.8888 112.436 40.2485 112.261 39.8061 111.912C39.3715 111.563 39.1541 111.124 39.1541 110.597C39.1541 110.511 39.1541 110.457 39.1541 110.434C39.1619 110.403 39.1658 110.383 39.1658 110.375H40.3416V110.48C40.3416 110.814 40.4775 111.066 40.7491 111.237C41.0208 111.4 41.3662 111.481 41.7853 111.481C42.1578 111.481 42.4683 111.412 42.7166 111.272C42.9728 111.132 43.1008 110.934 43.1008 110.678C43.1008 110.476 43.031 110.313 42.8913 110.189C42.7516 110.057 42.5808 109.956 42.379 109.886C42.1772 109.809 41.8862 109.72 41.5059 109.619C41.0402 109.502 40.6599 109.386 40.3649 109.269C40.07 109.153 39.8177 108.978 39.6082 108.745C39.4064 108.513 39.3055 108.202 39.3055 107.814C39.3055 107.255 39.5345 106.821 39.9924 106.51C40.4503 106.192 41.0596 106.033 41.8202 106.033C42.2937 106.033 42.705 106.107 43.0543 106.254C43.4113 106.394 43.6829 106.592 43.8692 106.848C44.0633 107.104 44.1603 107.391 44.1603 107.709L44.1486 107.942H42.9728V107.861C42.9728 107.605 42.868 107.399 42.6584 107.244C42.4566 107.081 42.1423 106.999 41.7154 106.999C41.3041 106.999 41.0014 107.073 40.8073 107.22C40.6211 107.36 40.5279 107.527 40.5279 107.721C40.5279 107.962 40.6443 108.14 40.8772 108.257C41.11 108.373 41.4787 108.489 41.9832 108.606C42.4722 108.722 42.8719 108.842 43.1823 108.967C43.4928 109.083 43.7606 109.269 43.9856 109.526C44.2107 109.774 44.3233 110.108 44.3233 110.527C44.3233 111.179 44.0865 111.66 43.6131 111.97C43.1474 112.281 42.5187 112.436 41.7271 112.436Z" fill="#303030"/>
<path fill-rule="evenodd" clip-rule="evenodd" d="M3.1188 1.52087C1.51135 1.52087 0.208252 2.82397 0.208252 4.43142V60.9393C0.208252 62.5468 1.51135 63.8499 3.1188 63.8499H4.66448V7.70158C4.66448 6.09413 5.96757 4.79104 7.57502 4.79104H38.5161V4.43142C38.5161 2.82397 37.213 1.52087 35.6055 1.52087H3.1188Z" fill="#3D796F"/>
<path fill-rule="evenodd" clip-rule="evenodd" d="M6.09497 8.88973C6.09497 7.28228 7.39807 5.97919 9.00551 5.97919H45.6656C47.2731 5.97919 48.5762 7.28228 48.5762 8.88973V65.3976C48.5762 67.0051 47.2731 68.3082 45.6656 68.3082H9.00552C7.39807 68.3082 6.09497 67.0051 6.09497 65.3976V8.88973ZM41.9358 18.782C42.7337 18.782 43.3805 19.4288 43.3805 20.2267C43.3805 21.0245 42.7337 21.6714 41.9358 21.6714L12.7353 21.6714C11.9374 21.6714 11.2906 21.0245 11.2906 20.2267C11.2906 19.4288 11.9374 18.782 12.7353 18.782L41.9358 18.782ZM43.3805 31.5047C43.3805 30.7068 42.7337 30.06 41.9358 30.06L12.7353 30.06C11.9374 30.06 11.2906 30.7068 11.2906 31.5047C11.2906 32.3026 11.9374 32.9494 12.7353 32.9494L41.9358 32.9494C42.7337 32.9494 43.3805 32.3026 43.3805 31.5047ZM41.9358 41.338C42.7337 41.338 43.3805 41.9848 43.3805 42.7827C43.3805 43.5806 42.7337 44.2274 41.9358 44.2274L12.7353 44.2274C11.9374 44.2274 11.2906 43.5806 11.2906 42.7827C11.2906 41.9848 11.9374 41.338 12.7353 41.338H41.9358ZM43.3805 54.0607C43.3805 53.2628 42.7337 52.616 41.9358 52.616H12.7353C11.9374 52.616 11.2906 53.2628 11.2906 54.0607C11.2906 54.8586 11.9374 55.5054 12.7353 55.5054L41.9358 55.5054C42.7337 55.5054 43.3805 54.8586 43.3805 54.0607Z" fill="#3D796F"/>
</svg>
