<svg width="200" height="200" viewBox="0 0 200 200" fill="none" xmlns="http://www.w3.org/2000/svg">
<path d="M110.366 89.1864C107.346 87.4816 96.6177 89.9328 96.6177 89.9328L105.972 156.769L117.93 155.04C117.93 155.04 113.386 90.8911 110.366 89.1864Z" fill="#2C2C2C"/>
<rect width="23.7101" height="8.74197" transform="matrix(-0.313281 0.957251 0.941593 0.314559 110.953 153.826)" fill="#AD5D4E"/>
<rect width="9.16056" height="8.7712" transform="matrix(-0.984492 0.140022 0.132466 0.996801 110.676 170.41)" fill="#AD5D4E"/>
<path fill-rule="evenodd" clip-rule="evenodd" d="M156.398 200C135.978 200 119.424 183.228 119.424 162.538C119.424 141.848 135.978 125.075 156.398 125.075C176.818 125.075 193.372 141.848 193.372 162.538C193.372 183.228 176.818 200 156.398 200ZM156.398 194.179C139.151 194.179 125.17 180.013 125.17 162.538C125.17 145.063 139.151 130.897 156.398 130.897C173.645 130.897 187.626 145.063 187.626 162.538C187.626 180.013 173.645 194.179 156.398 194.179Z" fill="#3F3F3F"/>
<path fill-rule="evenodd" clip-rule="evenodd" d="M48.9742 200C28.5541 200 12.0002 183.228 12.0002 162.538C12.0002 141.848 28.5541 125.075 48.9742 125.075C69.3944 125.075 85.9482 141.848 85.9482 162.538C85.9482 183.228 69.3944 200 48.9742 200ZM48.9743 194.179C31.7275 194.179 17.7463 180.013 17.7463 162.538C17.7463 145.063 31.7275 130.897 48.9743 130.897C66.221 130.897 80.2023 145.063 80.2023 162.538C80.2023 180.013 66.221 194.179 48.9743 194.179Z" fill="#3F3F3F"/>
<ellipse rx="4.99649" ry="5.06261" transform="matrix(-1 0 0 1 156.398 162.537)" fill="#474747"/>
<ellipse rx="4.99646" ry="5.06261" transform="matrix(-1 0 0 1 48.9733 162.537)" fill="#474747"/>
<rect width="4.99652" height="83.025" transform="matrix(-1 0 0 1 51.4717 81.0312)" fill="#E0A458"/>
<rect width="5.00809" height="68.0334" transform="matrix(-0.906231 0.422783 0.413709 0.910409 131.106 100.65)" fill="#E0A458"/>
<path d="M62.6768 100.564L60.0465 104.869L154.743 164.628L159.24 162.571L62.6768 100.564Z" fill="#E0A458"/>
<rect width="5.0626" height="90.4364" transform="matrix(4.31405e-08 1 1 -4.42898e-08 48.9736 100.649)" fill="#E0A458"/>
<rect width="5.06262" height="22.2344" transform="matrix(4.30034e-08 1 1 -4.44311e-08 24.2412 81.0312)" fill="#474747"/>
<rect width="4.99647" height="14.0488" transform="matrix(-1 0 0 1 107.558 91.6625)" fill="#E0A458"/>
<rect width="5.06266" height="27.2308" transform="matrix(4.314e-08 1 1 -4.42904e-08 87.6963 89.1313)" fill="#2C2C2C"/>
<rect width="4.08644" height="11.5935" transform="matrix(-1 0 0 1 143.518 97.3176)" fill="#A86561"/>
<path d="M110.662 64.9124C110.662 64.9124 91.1338 42.6984 64.2239 38.5802C37.3141 34.4621 48.632 50.5098 48.632 50.5098C69.7603 58.9482 81.6003 80.04 81.6003 80.04L110.662 64.9124Z" fill="#E0A458"/>
<rect width="9.14924" height="10.9803" transform="matrix(0.952871 -0.288626 -0.282894 -0.963687 33.4287 86.028)" fill="#A27D63"/>
<path d="M65.9906 71.5684C66.3789 60.1765 67.1931 50.1145 62.9778 46.2615C57.8336 43.9748 56.9958 46.274 56.3268 53.0005C55.4832 61.4818 52.0447 68.6176 50.0866 69.8726L38.6575 70.5167C38.0326 75.1493 40.9569 81.5183 42.4972 84.1238C50.1666 84.6853 65.6023 82.9603 65.9906 71.5684Z" fill="#F4BB73"/>
<rect width="3.27169" height="20.7494" transform="matrix(-1 0 0 1 105.411 132.216)" fill="#474747"/>
<ellipse rx="2.18114" ry="2.21" transform="matrix(-1 0 0 1 63.8374 33.641)" fill="#474747"/>
<ellipse rx="2.18112" ry="2.21" transform="matrix(-1 0 0 1 65.0494 30.8172)" fill="#474747"/>
<ellipse rx="19.3126" ry="19.5642" transform="matrix(-1 0 0 1 42.8046 30.6141)" fill="#936D51"/>
<path d="M39.0324 32.6457C39.0324 33.8897 39.9786 34.3559 41.256 34.3559C42.6546 34.3559 43.4795 33.8897 43.4795 32.6457C43.4795 31.4017 42.484 30.3932 41.256 30.3932C40.0279 30.3932 39.0324 31.4017 39.0324 32.6457Z" fill="#2C2C2C"/>
<path d="M26.0616 27.6623C26.0616 28.7006 26.8513 29.0898 27.9175 29.0898C29.0849 29.0898 29.7734 28.7006 29.7734 27.6623C29.7734 26.624 28.9425 25.7822 27.9175 25.7822C26.8925 25.7822 26.0616 26.624 26.0616 27.6623Z" fill="#2C2C2C"/>
<ellipse rx="2.54465" ry="2.57833" transform="matrix(-1 0 0 1 31.4837 36.0966)" fill="#7B5A41"/>
<ellipse rx="2.54462" ry="2.57833" transform="matrix(-1 0 0 1 34.0286 37.0788)" fill="#7B5A41"/>
<path d="M34.6338 27.9933L30.2858 38.0616L34.6338 39.6106L34.6338 27.9933Z" fill="#7B5A41"/>
<path d="M57.173 25.7833L54.8707 38.4294L58.0818 36.6491L61.1496 32.9658L63.5952 33.5797L68.5633 24.0644C70.1143 7.46489 43.3592 2.33279 29.7877 1.84167L28.8183 17.0661C35.8949 15.1999 50.67 22.1 57.173 25.7833Z" fill="#2C2C2C"/>
<ellipse rx="2.18113" ry="2.21" transform="matrix(-1 0 0 1 31.9683 2.21)" fill="#2C2C2C"/>
<ellipse rx="2.18111" ry="2.21" transform="matrix(-1 0 0 1 35.2398 2.21)" fill="#2C2C2C"/>
<ellipse rx="2.18114" ry="2.21" transform="matrix(-1 0 0 1 39.1177 2.45633)" fill="#2C2C2C"/>
<ellipse rx="2.18112" ry="2.21" transform="matrix(-1 0 0 1 42.9956 3.06949)" fill="#2C2C2C"/>
<ellipse rx="2.18114" ry="2.21" transform="matrix(-1 0 0 1 46.8726 3.68338)" fill="#2C2C2C"/>
<ellipse rx="2.18112" ry="2.21" transform="matrix(-1 0 0 1 50.7505 4.66556)" fill="#2C2C2C"/>
<ellipse rx="2.18113" ry="2.21" transform="matrix(-1 0 0 1 63.4732 12.5233)" fill="#2C2C2C"/>
<ellipse rx="2.18113" ry="2.21" transform="matrix(-1 0 0 1 60.3228 10.3133)" fill="#2C2C2C"/>
<ellipse rx="2.18113" ry="2.21" transform="matrix(-1 0 0 1 57.1724 8.10331)" fill="#2C2C2C"/>
<ellipse rx="2.18114" ry="2.21" transform="matrix(-1 0 0 1 54.022 5.89335)" fill="#2C2C2C"/>
<ellipse rx="2.18113" ry="2.21" transform="matrix(-1 0 0 1 65.7759 15.47)" fill="#2C2C2C"/>
<ellipse rx="2.18112" ry="2.21" transform="matrix(-1 0 0 1 67.8355 19.0306)" fill="#2C2C2C"/>
<ellipse rx="2.18115" ry="2.21" transform="matrix(-1 0 0 1 68.6841 22.3455)" fill="#2C2C2C"/>
<ellipse rx="2.18111" ry="2.21" transform="matrix(-1 0 0 1 67.4722 25.1693)" fill="#2C2C2C"/>
<ellipse rx="2.18114" ry="2.20999" transform="matrix(-1 0 0 1 66.2603 27.9933)" fill="#2C2C2C"/>
<ellipse rx="3.23957" ry="3.24613" transform="matrix(-0.883865 -0.467762 -0.457312 0.889316 61.2664 34.6255)" fill="#7B5A41"/>
<path d="M59.1163 33.2303C58.33 34.2267 57.1911 37.25 58.1797 38.0509C59.1683 38.8518 62.521 37.9584 63.3074 36.962C64.0938 35.9656 62.016 35.2435 61.0274 34.4425C60.0389 33.6416 59.9027 32.2339 59.1163 33.2303Z" fill="#7B5A41"/>
<path d="M35.3277 43.0316C35.3277 44.2756 37.7316 45.5281 40.6547 45.1787C42.9074 44.9094 45.7227 43.1505 45.7227 41.9065C45.7227 41.9065 41.8827 43.0316 40.6547 43.0316C36.5834 43.8308 35.3277 41.7876 35.3277 43.0316Z" fill="#7B5A41"/>
<rect width="3.26131" height="20.7494" transform="matrix(-1 0 0 1 109.249 158.4)" fill="#474747"/>
<rect width="13.3291" height="4.66554" transform="matrix(-1 0 0 1 110.379 149.405)" fill="#474747"/>
<rect width="13.2867" height="4.66557" transform="matrix(-1 0 0 1 114.201 175.589)" fill="#474747"/>
<ellipse rx="11.9356" ry="12.0936" transform="matrix(-1 0 0 1 101.341 150.461)" fill="#C8924D"/>
<rect x="89.1201" y="16.2224" width="60.2976" height="1.45753" fill="white"/>
<rect x="107.558" y="24.5555" width="60.2976" height="1.45753" fill="white"/>
<rect x="134.084" y="79.4166" width="47.1922" height="1.45753" fill="white"/>
<rect x="132.802" y="87.6555" width="30.832" height="1.45753" fill="white"/>
<rect width="13.2869" height="4.66554" transform="matrix(-1 0 0 1 99.9902 146.86)" fill="#474747"/>
<rect width="3.26125" height="9.20833" transform="matrix(-1 0 0 1 94.917 149.192)" fill="#474747"/>
<path fill-rule="evenodd" clip-rule="evenodd" d="M82.3104 80.7663C82.7136 81.2963 83.1308 81.8335 83.569 82.3694C79.1104 89.3276 74.7916 107.352 73.6071 112.552C73.4226 112.988 73.3193 113.417 73.3208 113.831C73.2999 113.927 73.2892 113.977 73.2892 113.977L73.3267 113.992C73.333 114.081 73.3445 114.17 73.3614 114.258C74.0754 117.976 99.3367 138.772 99.3367 138.772L107.555 129.775L88.4521 111.746L100.769 90.5274C101.763 90.5296 102.737 90.546 103.688 90.562C112.377 90.7081 119.03 90.8199 119.03 79.7227C119.03 68.3044 108.884 63.8844 108.884 63.8844C98.7107 63.8844 80.861 71.6194 82.3104 80.7663Z" fill="#474747"/>
<rect width="19.4573" height="8.77093" transform="matrix(-0.675203 0.74059 0.727081 0.683378 107.83 127.886)" fill="#AD5D4E"/>
<rect width="15.6821" height="8.87823" transform="matrix(-0.998914 -0.0266764 -0.029798 1.00028 101.274 139.318)" fill="#AD5D4E"/>
</svg>
