<svg width="200" height="200" viewBox="0 0 200 200" fill="none" xmlns="http://www.w3.org/2000/svg">
<rect width="23.6547" height="8.74128" transform="matrix(-0.494258 0.875282 0.865458 0.490479 96.9697 120.028)" fill="#AD5D4E"/>
<rect width="9.16944" height="8.72673" transform="matrix(-0.994456 -0.0549852 -0.0626177 1.00206 93.4893 136.174)" fill="#AD5D4E"/>
<path d="M101.81 90.6112C101.81 90.6112 100.872 77.6883 95.7826 74.1627C90.6933 70.637 65.7314 95.6604 65.7314 95.6604L72.7002 105.516L101.81 90.6112Z" fill="#2C2C2C"/>
<path d="M79.3503 89.4685C76.2525 89.4238 66.6985 94.8341 66.6985 94.8341L86.796 135.265L97.6166 129.891C97.6166 129.891 82.448 89.5131 79.3503 89.4685Z" fill="#2C2C2C"/>
<path fill-rule="evenodd" clip-rule="evenodd" d="M157.102 200C136.724 200 120.204 183.311 120.204 162.725C120.204 142.138 136.724 125.45 157.102 125.45C177.48 125.45 194 142.138 194 162.725C194 183.311 177.48 200 157.102 200ZM157.102 194.208C139.891 194.208 125.938 180.113 125.938 162.725C125.938 145.338 139.891 131.243 157.102 131.243C174.313 131.243 188.266 145.338 188.266 162.725C188.266 180.113 174.313 194.208 157.102 194.208Z" fill="#3F3F3F"/>
<path fill-rule="evenodd" clip-rule="evenodd" d="M49.8978 200C29.5195 200 12.9997 183.311 12.9997 162.725C12.9997 142.138 29.5195 125.45 49.8978 125.45C70.2761 125.45 86.7959 142.138 86.7959 162.725C86.7959 183.311 70.2761 200 49.8978 200ZM49.8978 194.208C32.6865 194.208 18.7339 180.113 18.7339 162.725C18.7339 145.338 32.6865 131.243 49.8978 131.243C67.1092 131.243 81.0617 145.338 81.0617 162.725C81.0617 180.113 67.1092 194.208 49.8978 194.208Z" fill="#3F3F3F"/>
<ellipse rx="4.98623" ry="5.03717" transform="matrix(-1 0 0 1 157.102 162.724)" fill="#474747"/>
<ellipse rx="4.98621" ry="5.03717" transform="matrix(-1 0 0 1 49.8976 162.724)" fill="#474747"/>
<rect width="4.98627" height="82.6098" transform="matrix(-1 0 0 1 52.3916 81.6261)" fill="#E0A458"/>
<rect width="4.99518" height="67.7276" transform="matrix(-0.906713 0.421749 0.414732 0.909944 131.862 101.146)" fill="#E0A458"/>
<path d="M63.5732 101.061L60.9484 105.344L155.451 164.803L159.938 162.756L63.5732 101.061Z" fill="#E0A458"/>
<rect width="5.03717" height="90.2507" transform="matrix(4.32694e-08 1 1 -4.41579e-08 49.8984 101.146)" fill="#E0A458"/>
<rect width="5.03718" height="22.1887" transform="matrix(4.29182e-08 1 1 -4.45192e-08 25.2158 81.6261)" fill="#474747"/>
<rect width="4.98621" height="13.9782" transform="matrix(-1 0 0 1 108.361 92.204)" fill="#E0A458"/>
<rect width="5.03722" height="27.1749" transform="matrix(4.32688e-08 1 1 -4.41585e-08 88.541 89.6855)" fill="#2C2C2C"/>
<rect width="4.07805" height="11.5352" transform="matrix(-1 0 0 1 144.247 97.8307)" fill="#A86561"/>
<path d="M111.46 65.6022C111.46 65.6022 91.9643 43.4903 65.1118 39.3801C38.2593 35.2699 49.5597 51.2426 49.5597 51.2426C70.6454 59.6487 82.469 80.6403 82.469 80.6403L111.46 65.6022Z" fill="#E0A458"/>
<rect width="9.11426" height="10.943" transform="matrix(0.954123 -0.28789 -0.283628 -0.962452 34.3896 86.5975)" fill="#A27D63"/>
<path d="M66.8836 72.2159C67.2658 60.8801 68.0738 50.8678 63.8651 47.0318C58.7299 44.7539 57.8948 47.0414 57.2302 53.7346C56.3921 62.1738 52.9636 69.273 51.01 70.5209L39.6036 71.1564C38.982 75.766 41.9036 82.1051 43.4421 84.6985C51.0966 85.2609 66.5013 83.5516 66.8836 72.2159Z" fill="#F4BB73"/>
<rect width="3.26497" height="20.6452" transform="matrix(-1 0 0 1 106.22 132.555)" fill="#474747"/>
<ellipse rx="2.17666" ry="2.1989" transform="matrix(-1 0 0 1 64.7315 34.4721)" fill="#474747"/>
<ellipse rx="2.17664" ry="2.1989" transform="matrix(-1 0 0 1 65.9405 31.6624)" fill="#474747"/>
<rect width="13.3017" height="4.64215" transform="matrix(-0.99917 -0.0407229 -0.0412271 0.99915 96.9873 144.295)" fill="#474747"/>
<ellipse rx="19.273" ry="19.4659" transform="matrix(-1 0 0 1 43.7417 31.4604)" fill="#936D51"/>
<path d="M39.9781 33.4816C39.9781 34.7194 40.3889 34.798 42.197 34.3693C43.8759 34.996 44.416 34.7194 44.416 33.4816C44.416 32.2439 43.4225 31.2405 42.197 31.2405C40.9715 31.2405 39.9781 32.2439 39.9781 33.4816Z" fill="#2C2C2C"/>
<path d="M26.5657 28.7471C26.4228 29.8468 26.7788 29.9635 28.4348 29.7888C29.8541 30.5371 30.366 30.3529 30.5088 29.2531C30.6517 28.1534 29.8849 27.1486 28.796 27.0088C27.7072 26.8691 26.7086 27.6473 26.5657 28.7471Z" fill="#2C2C2C"/>
<ellipse rx="2.53942" ry="2.56538" transform="matrix(-1 0 0 1 32.444 36.9152)" fill="#7B5A41"/>
<ellipse rx="2.5394" ry="2.56537" transform="matrix(-1 0 0 1 34.984 37.8925)" fill="#7B5A41"/>
<path d="M35.5889 28.8527L31.2498 38.8704L35.5889 40.4116L35.5889 28.8527Z" fill="#7B5A41"/>
<path d="M58.0803 26.6538L55.7827 39.2363L58.9872 37.465L62.0487 33.8002L64.4893 34.411L69.4472 24.9435C70.9951 8.42736 44.2948 3.32104 30.7513 2.8324L29.7839 17.9804C36.8459 16.1235 51.5907 22.989 58.0803 26.6538Z" fill="#2C2C2C"/>
<ellipse rx="2.17664" ry="2.19889" transform="matrix(-1 0 0 1 32.9278 3.19889)" fill="#2C2C2C"/>
<ellipse rx="2.17663" ry="2.19889" transform="matrix(-1 0 0 1 36.1935 3.19889)" fill="#2C2C2C"/>
<ellipse rx="2.17665" ry="2.19889" transform="matrix(-1 0 0 1 40.0626 3.44401)" fill="#2C2C2C"/>
<ellipse rx="2.17664" ry="2.19889" transform="matrix(-1 0 0 1 43.9327 4.054)" fill="#2C2C2C"/>
<ellipse rx="2.17666" ry="2.19889" transform="matrix(-1 0 0 1 47.8019 4.66484)" fill="#2C2C2C"/>
<ellipse rx="2.17664" ry="2.1989" transform="matrix(-1 0 0 1 51.671 5.64213)" fill="#2C2C2C"/>
<ellipse rx="2.17664" ry="2.19889" transform="matrix(-1 0 0 1 64.3683 13.4604)" fill="#2C2C2C"/>
<ellipse rx="2.17666" ry="2.1989" transform="matrix(-1 0 0 1 61.2247 11.2615)" fill="#2C2C2C"/>
<ellipse rx="2.17664" ry="2.1989" transform="matrix(-1 0 0 1 58.0802 9.06267)" fill="#2C2C2C"/>
<ellipse rx="2.17666" ry="2.19889" transform="matrix(-1 0 0 1 54.9366 6.86369)" fill="#2C2C2C"/>
<ellipse rx="2.17665" ry="2.1989" transform="matrix(-1 0 0 1 66.6661 16.3923)" fill="#2C2C2C"/>
<ellipse rx="2.17664" ry="2.1989" transform="matrix(-1 0 0 1 68.7218 19.935)" fill="#2C2C2C"/>
<ellipse rx="2.17667" ry="2.1989" transform="matrix(-1 0 0 1 69.5684 23.2333)" fill="#2C2C2C"/>
<ellipse rx="2.17663" ry="2.19889" transform="matrix(-1 0 0 1 68.3595 26.043)" fill="#2C2C2C"/>
<ellipse rx="2.17666" ry="2.19889" transform="matrix(-1 0 0 1 67.1495 28.8527)" fill="#2C2C2C"/>
<ellipse rx="3.22858" ry="3.23411" transform="matrix(-0.884539 -0.466476 -0.458585 0.888656 62.166 35.4516)" fill="#7B5A41"/>
<path d="M60.0229 34.0637C59.2374 35.0557 58.0989 38.065 59.0848 38.8613C60.0708 39.6576 63.4172 38.7662 64.2026 37.7741C64.988 36.782 62.9151 36.0649 61.9291 35.2686C60.9432 34.4723 60.8083 33.0716 60.0229 34.0637Z" fill="#7B5A41"/>
<path d="M36.0814 43.9655C36.0814 45.2033 40.7087 47.7084 41.9342 47.7084C47.6123 48.2807 47.6123 42.9341 47.6123 41.6963C47.6123 40.4586 41.8336 43.0849 40.6081 43.0849C39.3826 43.0849 36.0814 42.7278 36.0814 43.9655Z" fill="#7B5A41"/>
<rect width="3.26489" height="9.16216" transform="matrix(-0.999171 -0.040723 -0.0412271 0.99915 91.8174 146.408)" fill="#474747"/>
<rect width="13.3017" height="4.64211" transform="matrix(-1 0 0 1 111.178 149.658)" fill="#474747"/>
<ellipse rx="11.9111" ry="12.0328" transform="matrix(-1 0 0 1 102.157 150.708)" fill="#C8924D"/>
<rect width="18.0028" height="8.76851" transform="matrix(-0.155293 0.987151 0.986205 0.169844 115.111 137.6)" fill="#AD5D4E"/>
<rect width="11.1728" height="8.86196" transform="matrix(-0.9027 0.430782 0.432752 0.90127 116.492 148.968)" fill="#AD5D4E"/>
<path fill-rule="evenodd" clip-rule="evenodd" d="M82.1448 80.0991C84.6018 83.3088 87.5798 86.7883 92.6456 88.5839C90.9531 97.6116 91.2646 112.714 91.3946 117.004C91.2852 117.302 91.2283 117.603 91.234 117.904C91.3049 121.67 112.682 146.338 112.682 146.338L122.323 138.908L104.661 115.493L112.005 89.4561C116.209 88.5973 118.906 86.0874 118.906 79.0608C118.906 67.6998 108.748 63.302 108.748 63.302C98.5636 63.302 80.6937 70.9981 82.1448 80.0991Z" fill="#474747"/>
<rect width="13.2874" height="4.6472" transform="matrix(-0.907953 0.419072 0.423344 0.905969 119.788 157.282)" fill="#474747"/>
<rect width="3.26138" height="9.17212" transform="matrix(-0.907953 0.419072 0.423344 0.905969 116.166 161.513)" fill="#474747"/>
<rect x="89.9619" y="17.141" width="60.1738" height="1.45021" fill="white"/>
<rect x="108.361" y="25.4321" width="60.1738" height="1.45021" fill="white"/>
<rect x="134.834" y="80.0195" width="47.0953" height="1.45022" fill="white"/>
<rect x="133.555" y="88.2173" width="30.7687" height="1.45021" fill="white"/>
</svg>
