<svg width="200" height="200" viewBox="0 0 200 200" fill="none" xmlns="http://www.w3.org/2000/svg">
<path fill-rule="evenodd" clip-rule="evenodd" d="M158.824 144.26L158.879 144.452C158.827 144.433 158.774 144.414 158.721 144.395C158.687 144.44 158.652 144.485 158.617 144.53L158.562 144.337C142.47 138.344 115.411 109.512 111.822 76.3219C120.985 90.6966 141.528 118.715 150.708 116.317C159.714 113.32 162.299 78.5104 162.463 61.3949C176.922 91.3812 169.259 130.448 158.824 144.26Z" fill="black"/>
<path d="M127.94 52.4703C132.01 50.9099 133.951 52.516 134.982 52.7089L133.779 51.7761C131.81 50.1872 127.383 52.0531 124.211 52.9137C124.051 52.9568 126.835 52.8937 127.94 52.4703Z" fill="black"/>
<path d="M134.284 49.8275C126.401 47.4196 125.175 50.9811 124.354 51.9989C124.618 49.3713 126.711 47.949 127.041 47.8824C128.007 47.2762 131.33 47.6136 135.505 48.024C136.349 48.1069 136.067 48.8819 135.673 49.462C135.366 49.9142 134.807 49.987 134.284 49.8275Z" fill="black"/>
<path d="M127.093 24.9988L130.308 32.2832C129.067 33.8995 124.489 36.7583 116.105 35.2631C107.721 33.768 107.15 30.5982 107.912 29.2002C104.611 27.346 103.866 24.9792 103.906 24.0275C100.581 22.7443 99.9289 18.1412 100.019 16L127.093 24.9988Z" fill="black"/>
<path d="M103.464 32.0025L107.836 41.8994C106.152 44.0936 99.9375 47.9726 88.5497 45.9343C77.162 43.896 76.3835 39.5901 77.4178 37.6919C72.933 35.1705 71.9184 31.9551 71.9717 30.6626C67.455 28.9166 66.5656 22.6638 66.6855 19.7556L103.464 32.0025Z" fill="black"/>
<path fill-rule="evenodd" clip-rule="evenodd" d="M138.47 36.9537C116.295 17.8204 89.3149 36.5632 98.7995 62.7527H107.215L115.865 71.5052C117.239 70.4702 131.078 65.2692 137.535 63.1432V56.4941L123.508 59.3437V49.3022C129.944 46.0334 135.839 44.155 139.974 43.0522C140.007 44.1167 139.939 45.3914 139.88 46.5033C139.84 47.2373 139.805 47.9003 139.805 48.385C140.089 48.7818 140.571 50.0378 141.137 51.5123L141.137 51.5124C141.991 53.7361 143.036 56.4568 143.879 57.4767C145.656 59.6256 141.935 61.1916 140.097 61.2762H139.805C139.895 61.2811 139.993 61.281 140.097 61.2762H146.217V54.3557C144.71 55.2483 141.895 52.9055 141.295 42.7103C141.978 42.5386 142.597 42.3906 143.145 42.2625L141.743 36.3597L138.47 36.9537ZM108.466 54.7439C109.647 54.7439 110.604 53.7719 110.604 52.5728C110.604 51.3737 109.647 50.4016 108.466 50.4016C107.286 50.4016 106.329 51.3737 106.329 52.5728C106.329 53.7719 107.286 54.7439 108.466 54.7439Z" fill="black"/>
<path fill-rule="evenodd" clip-rule="evenodd" d="M84.4784 107.044C82.6406 94.0166 94.8553 82.7895 97.5283 80.4717C100.261 78.1025 103.461 70.1506 103.011 65.1952H99.0659C97.5519 66.6426 83.7569 68.6158 40.1545 66.8788C-14.3486 64.7077 -6.06624 111.116 21.9868 110.845C10.0977 88.9422 40.9738 89.6192 32.2729 113.096C26.2913 129.236 64.6594 143.202 84.4784 107.044ZM90.2196 93.5353C91.2236 92.6066 92.7812 91.9028 95.1919 91.8471C99.1104 91.7566 104.516 94.6486 108.818 99.9889C109.021 100.242 109.238 100.502 109.465 100.772C111.911 103.7 115.414 107.892 114.161 117.901C117.769 108.904 113.887 96.4306 110.993 87.1345C109.173 81.2873 107.745 76.6973 108.818 75.0207L113.36 72.6585L105.745 65.1952H105.717C106.144 68.7032 105.69 76.0728 98.5994 82.8357C94.3042 86.9323 91.7023 90.5074 90.2196 93.5353Z" fill="black"/>
<path d="M133.001 53.0178C133.001 54.0581 132.413 54.4385 131.657 54.4385C130.813 54.4385 130.331 53.7421 130.331 53.0178C130.331 51.9776 130.617 51.1343 131.657 51.1343C132.697 51.1343 133.001 51.9776 133.001 53.0178Z" fill="black"/>
</svg>
