<svg width="200" height="200" viewBox="0 0 200 200" fill="none" xmlns="http://www.w3.org/2000/svg">
<path fill-rule="evenodd" clip-rule="evenodd" d="M130.452 31.5002L127.591 25.0173L100.46 16C100.371 18.1456 101.024 22.7582 104.356 24.0441C104.316 24.9976 105.063 27.3693 108.37 29.2274C108.021 29.8687 107.951 30.8821 108.784 31.9363C107.441 32.6791 106.183 33.5591 105.028 34.563L103.911 32.0355L67.0571 19.7634C66.9369 22.6776 67.8281 28.9433 72.3541 30.6928C72.3007 31.988 73.3174 35.21 77.8114 37.7366C76.775 39.6387 77.5551 43.9535 88.9663 45.996C92.43 46.6159 95.416 46.6896 97.9425 46.43C96.8024 51.2748 97.0706 56.8681 99.2366 62.8489H107.67L116.337 71.6194C117.714 70.5822 131.582 65.3705 138.052 63.2402V56.5774L123.996 59.4329V49.3707C130.446 46.095 136.352 44.2128 140.496 43.1077C140.53 44.1744 140.461 45.4519 140.402 46.5661L140.402 46.5663C140.362 47.3017 140.327 47.966 140.327 48.4517C140.611 48.8493 141.095 50.1079 141.662 51.5855C142.517 53.8138 143.564 56.5401 144.409 57.5621C146.19 59.7154 142.461 61.2846 140.619 61.3694H140.327C140.417 61.3743 140.515 61.3742 140.619 61.3694H146.752V54.4347C145.242 55.3291 142.421 52.9814 141.82 42.7651C142.504 42.5931 143.124 42.4448 143.674 42.3166L142.268 36.4016L138.989 36.9968C136.192 34.5836 133.319 32.7717 130.452 31.5002ZM135.274 49.8975C128.231 47.7456 126.49 50.3486 125.612 51.6616C125.505 51.8215 125.411 51.9622 125.322 52.0729C125.586 49.4398 127.684 48.0147 128.015 47.9479C128.968 47.3496 132.213 47.6686 136.308 48.0713L136.496 48.0898C137.342 48.173 137.059 48.9507 136.663 49.5322C136.356 49.9842 135.796 50.057 135.274 49.8975ZM114.487 180.781L114.601 180.615C131.93 179.825 166.959 160.74 180.835 130.406C167.529 141.229 139.027 161.508 130.955 156.477C123.236 150.927 131.701 117.162 136.924 100.9C113.624 124.902 108.699 164.215 114.373 180.461L114.258 180.628C114.315 180.626 114.372 180.624 114.429 180.622C114.448 180.675 114.468 180.729 114.487 180.781ZM128.747 53.2256C134.378 54.0677 134.543 51.585 134.626 50.3386L134.626 50.3383L134.626 50.3379C134.634 50.2173 134.641 50.1084 134.653 50.0151L135.363 52.6093C133.346 55.1247 130.026 54.2965 126.566 53.4334C126.287 53.3638 126.007 53.294 125.727 53.2256C125.566 53.1865 128.224 53.1475 128.747 53.2256ZM111.066 52.6481C111.066 53.8497 110.107 54.8237 108.925 54.8237C107.742 54.8237 106.783 53.8497 106.783 52.6481C106.783 51.4465 107.742 50.4725 108.925 50.4725C110.107 50.4725 111.066 51.4465 111.066 52.6481ZM85.3941 99.2152C87.8182 89.7952 95.8536 82.4329 97.9624 80.6043C100.7 78.2302 103.907 70.262 103.456 65.2964H99.5041C99.3603 65.4338 99.0023 65.7104 98.4827 66.1118C93.5199 69.9457 73.8222 85.1629 85.3941 99.2152ZM90.8961 93.1851C92.1992 92.5105 93.7641 92.046 95.6221 92.0031C99.5487 91.9125 104.966 94.8104 109.276 100.162C109.48 100.415 109.697 100.675 109.924 100.946L109.924 100.947C112.375 103.88 115.886 108.081 114.63 118.111C124.637 112.184 124.636 99.4967 124.635 89.6417C124.635 82.0671 124.634 76.1656 129.178 76.2931C133.115 76.8186 136.916 76.9382 139.146 76.0613C140.621 75.4817 142.674 73.8126 141.106 71.832C141.106 73.688 136.356 77.8375 118.103 73.9444C116.546 73.5943 115.225 73.2807 114.487 73.0698C111.598 72.2445 106.197 65.2964 106.197 65.2964H106.168C106.596 68.8116 106.141 76.1964 99.0356 82.9731C94.9702 86.8506 92.4186 90.2618 90.8961 93.1851ZM140.816 63.8376C139.655 64.4569 138.835 64.5331 137.742 64.6346C136.822 64.7201 135.708 64.8235 134.034 65.2848C134.183 65.2848 134.432 65.2595 134.745 65.2277C135.697 65.1311 137.241 64.9743 138.366 65.2848C139.563 65.6149 141.035 65.4938 141.752 65.1591C142.43 67.0372 140.261 68.2732 140.261 68.2732C140.261 68.2732 137.539 70.0526 141.059 71.8062C140.949 71.691 140.784 71.5729 140.604 71.4443C139.779 70.8535 138.645 70.0417 141.059 68.2732C142.584 67.1567 142.094 65.6667 141.753 65.1584C141.931 65.075 142.063 64.9783 142.131 64.8721C142.131 64.6734 142.135 64.4951 142.138 64.3369C142.161 63.2633 142.165 63.1183 140.816 63.8376Z" fill="black"/>
</svg>
