<svg width="200" height="200" viewBox="0 0 200 200" fill="none" xmlns="http://www.w3.org/2000/svg">
<path fill-rule="evenodd" clip-rule="evenodd" d="M137.452 47.5002L134.591 41.0173L107.46 32C107.371 34.1456 108.024 38.7582 111.356 40.0441C111.316 40.9976 112.063 43.3693 115.37 45.2274C115.021 45.8687 114.951 46.8821 115.784 47.9363C114.441 48.6791 113.183 49.5591 112.028 50.563L110.911 48.0355L74.0571 35.7634C73.9369 38.6776 74.8281 44.9433 79.3541 46.6928C79.3007 47.988 80.3174 51.21 84.8114 53.7366C83.775 55.6387 84.5551 59.9535 95.9663 61.996C99.43 62.6159 102.416 62.6896 104.943 62.43C103.802 67.2748 104.071 72.8681 106.237 78.8489H114.67L123.337 87.6194C124.714 86.5822 138.582 81.3705 145.052 79.2402V72.5774L130.996 75.4329V65.3707C137.446 62.095 143.352 60.2128 147.496 59.1077C147.53 60.1744 147.461 61.4519 147.402 62.5661L147.402 62.5663C147.362 63.3017 147.327 63.966 147.327 64.4517C147.611 64.8493 148.095 66.1079 148.662 67.5855C149.517 69.8138 150.564 72.5401 151.409 73.5621C153.19 75.7154 149.461 77.2846 147.619 77.3694H147.327C147.417 77.3743 147.515 77.3742 147.619 77.3694H153.752V70.4347C152.242 71.3291 149.421 68.9814 148.82 58.7651C149.504 58.5931 150.124 58.4448 150.674 58.3166L149.268 52.4016L145.989 52.9968C143.192 50.5836 140.319 48.7717 137.452 47.5002ZM142.274 65.8975C135.231 63.7456 133.49 66.3486 132.612 67.6616C132.505 67.8215 132.411 67.9622 132.322 68.0729C132.586 65.4398 134.684 64.0147 135.015 63.9479C135.968 63.3496 139.213 63.6686 143.308 64.0713L143.496 64.0898C144.342 64.173 144.059 64.9507 143.663 65.5322C143.356 65.9842 142.796 66.057 142.274 65.8975ZM121.487 196.781L121.601 196.615C138.93 195.825 173.959 176.74 187.835 146.406C174.529 157.229 146.027 177.508 137.955 172.477C130.236 166.927 138.701 133.162 143.924 116.9C120.624 140.902 115.699 180.215 121.373 196.461L121.258 196.628L121.378 196.624L121.429 196.622C121.448 196.675 121.468 196.729 121.487 196.781ZM135.747 69.2256C141.378 70.0677 141.543 67.585 141.626 66.3386L141.626 66.3383L141.626 66.3379C141.634 66.2173 141.641 66.1084 141.653 66.0151L142.363 68.6093C140.346 71.1247 137.026 70.2965 133.566 69.4334C133.287 69.3638 133.007 69.294 132.727 69.2256C132.566 69.1865 135.224 69.1475 135.747 69.2256ZM118.066 68.6481C118.066 69.8497 117.107 70.8237 115.925 70.8237C114.742 70.8237 113.783 69.8497 113.783 68.6481C113.783 67.4465 114.742 66.4725 115.925 66.4725C117.107 66.4725 118.066 67.4465 118.066 68.6481ZM92.3941 115.215C94.8182 105.795 102.854 98.4329 104.962 96.6043C107.7 94.2302 110.907 86.262 110.456 81.2964H106.504C106.36 81.4338 106.002 81.7104 105.483 82.1118C100.52 85.9457 80.8222 101.163 92.3941 115.215ZM97.8961 109.185C99.1992 108.511 100.764 108.046 102.622 108.003C106.549 107.912 111.966 110.81 116.276 116.162C116.48 116.415 116.697 116.675 116.924 116.946L116.924 116.947C119.375 119.88 122.886 124.081 121.63 134.111C131.637 128.184 131.636 115.497 131.635 105.642C131.635 98.0671 131.634 92.1656 136.178 92.2931C140.115 92.8186 143.916 92.9382 146.146 92.0613C147.621 91.4817 149.674 89.8126 148.106 87.832C148.106 89.688 143.356 93.8375 125.103 89.9444C123.546 89.5943 122.225 89.2807 121.487 89.0698C118.598 88.2445 113.197 81.2964 113.197 81.2964H113.168C113.596 84.8116 113.141 92.1964 106.036 98.9731C101.97 102.851 99.4186 106.262 97.8961 109.185ZM147.816 79.8376C146.655 80.4569 145.835 80.5331 144.742 80.6346C143.822 80.7201 142.708 80.8235 141.034 81.2848C141.183 81.2848 141.432 81.2595 141.745 81.2277C142.697 81.1311 144.241 80.9743 145.366 81.2848C146.563 81.6149 148.035 81.4938 148.752 81.1591C149.43 83.0372 147.261 84.2732 147.261 84.2732C147.261 84.2732 144.539 86.0526 148.059 87.8062C147.949 87.691 147.784 87.5729 147.604 87.4443C146.779 86.8535 145.645 86.0417 148.059 84.2732C149.584 83.1567 149.094 81.6667 148.753 81.1584C148.931 81.075 149.063 80.9783 149.131 80.8721C149.131 80.6735 149.135 80.4953 149.138 80.3371V80.3369C149.161 79.2633 149.165 79.1183 147.816 79.8376Z" fill="black"/>
</svg>
