<svg width="200" height="200" viewBox="0 0 200 200" fill="none" xmlns="http://www.w3.org/2000/svg">
<path fill-rule="evenodd" clip-rule="evenodd" d="M165.824 160.259L165.879 160.452C165.827 160.433 165.774 160.414 165.721 160.395C165.686 160.44 165.652 160.485 165.617 160.53L165.562 160.336C149.469 154.344 122.411 125.512 118.822 92.3219C127.984 106.695 148.525 134.711 157.705 132.318C166.713 129.325 169.298 94.5116 169.463 77.3948C183.921 107.381 176.259 146.447 165.824 160.259Z" fill="black"/>
<path d="M134.941 68.4703C139.011 66.9099 140.952 68.516 141.983 68.7089L140.78 67.7761C138.811 66.1872 134.384 68.0531 131.212 68.9137C131.052 68.9568 133.836 68.8937 134.941 68.4703Z" fill="black"/>
<path d="M141.285 65.8275C133.402 63.4196 132.176 66.9811 131.355 67.9989C131.619 65.3713 133.712 63.949 134.042 63.8824C135.008 63.2762 138.331 63.6136 142.506 64.024C143.35 64.1069 143.068 64.8819 142.674 65.462C142.367 65.9142 141.808 65.987 141.285 65.8275Z" fill="black"/>
<path d="M134.094 40.9988L137.309 48.2832C136.068 49.8995 131.49 52.7583 123.106 51.2631C114.722 49.768 114.151 46.5982 114.913 45.2002C111.612 43.346 110.867 40.9792 110.907 40.0275C107.582 38.7443 106.93 34.1412 107.02 32L134.094 40.9988Z" fill="black"/>
<path d="M110.464 48.0025L114.836 57.8994C113.152 60.0936 106.938 63.9726 95.5497 61.9343C84.162 59.896 83.3835 55.5901 84.4178 53.6919C79.933 51.1705 78.9184 47.9551 78.9717 46.6626C74.455 44.9166 73.5656 38.6638 73.6855 35.7556L110.464 48.0025Z" fill="black"/>
<path fill-rule="evenodd" clip-rule="evenodd" d="M145.47 52.9537C123.295 33.8204 96.3149 52.5632 105.8 78.7527H114.215L122.865 87.5052C124.239 86.4702 138.078 81.2692 144.535 79.1432V72.4941L130.508 75.3437V65.3022C136.944 62.0333 142.839 60.1549 146.974 59.0521C147.008 60.1166 146.939 61.3914 146.88 62.5033C146.841 63.2373 146.805 63.9003 146.805 64.385C147.089 64.7818 147.571 66.0378 148.138 67.5123L148.138 67.5124C148.991 69.7361 150.036 72.4568 150.879 73.4767C152.656 75.6256 148.935 77.1916 147.097 77.2762H146.805C146.896 77.2811 146.993 77.281 147.097 77.2762H153.217V70.3557C151.711 71.2483 148.895 68.9055 148.295 58.7102C148.978 58.5385 149.597 58.3905 150.145 58.2625L148.743 52.3597L145.47 52.9537ZM115.467 70.744C116.647 70.744 117.604 69.7719 117.604 68.5728C117.604 67.3737 116.647 66.4017 115.467 66.4017C114.286 66.4017 113.329 67.3737 113.329 68.5728C113.329 69.7719 114.286 70.744 115.467 70.744Z" fill="black"/>
<path fill-rule="evenodd" clip-rule="evenodd" d="M91.4785 123.044C89.6407 110.017 101.855 98.7895 104.528 96.4717C107.261 94.1025 110.461 86.1506 110.011 81.1952H106.066C104.552 82.6426 90.757 84.6158 47.1545 82.8788C-7.34852 80.7077 0.933805 127.116 28.9868 126.845C17.0977 104.942 47.9738 105.619 39.273 129.096C33.2914 145.236 71.6595 159.202 91.4785 123.044ZM97.2196 109.535C98.2236 108.607 99.7812 107.903 102.192 107.847C106.11 107.757 111.516 110.649 115.818 115.989C116.021 116.242 116.238 116.502 116.465 116.772C118.911 119.7 122.414 123.892 121.161 133.901C124.769 124.904 120.887 112.431 117.993 103.135C116.173 97.2873 114.745 92.6973 115.818 91.0207L120.36 88.6585L112.745 81.1952H112.717C113.144 84.7032 112.69 92.0728 105.599 98.8357C101.304 102.932 98.7023 106.507 97.2196 109.535Z" fill="black"/>
<path d="M140.001 69.0178C140.001 70.0581 139.413 70.4385 138.657 70.4385C137.813 70.4385 137.331 69.7421 137.331 69.0178C137.331 67.9776 137.617 67.1343 138.657 67.1343C139.697 67.1343 140.001 67.9776 140.001 69.0178Z" fill="black"/>
</svg>
